<?xml version="1.0" encoding="utf-8" standalone="no"?>
<!DOCTYPE svg PUBLIC "-//W3C//DTD SVG 1.1//EN"
  "http://www.w3.org/Graphics/SVG/1.1/DTD/svg11.dtd">
<svg xmlns:xlink="http://www.w3.org/1999/xlink" width="740.87767pt" height="479.834214pt" viewBox="0 0 740.87767 479.834214" xmlns="http://www.w3.org/2000/svg" version="1.1">
 <metadata>
  <rdf:RDF xmlns:dc="http://purl.org/dc/elements/1.1/" xmlns:cc="http://creativecommons.org/ns#" xmlns:rdf="http://www.w3.org/1999/02/22-rdf-syntax-ns#">
   <cc:Work>
    <dc:type rdf:resource="http://purl.org/dc/dcmitype/StillImage"/>
    <dc:date>2022-05-03T22:25:40.517007</dc:date>
    <dc:format>image/svg+xml</dc:format>
    <dc:creator>
     <cc:Agent>
      <dc:title>Matplotlib v3.5.1, https://matplotlib.org/</dc:title>
     </cc:Agent>
    </dc:creator>
   </cc:Work>
  </rdf:RDF>
 </metadata>
 <defs>
  <style type="text/css">*{stroke-linejoin: round; stroke-linecap: butt}</style>
 </defs>
 <g id="figure_1">
  <g id="patch_1">
   <path d="M 0 479.834214 
L 740.87767 479.834214 
L 740.87767 0 
L 0 0 
z
" style="fill: #ffffff"/>
  </g>
  <g id="axes_1">
   <g id="patch_2">
    <path d="M 61.372788 188.642912 
L 733.67767 188.642912 
L 733.67767 8.157838 
L 61.372788 8.157838 
z
" style="fill: #ffffff"/>
   </g>
   <g id="matplotlib.axis_1">
    <g id="xtick_1">
     <g id="line2d_1">
      <path d="M 87.002981 188.642912 
L 87.002981 8.157838 
" clip-path="url(#p741dbd4625)" style="fill: none; stroke-dasharray: 0.8,1.32; stroke-dashoffset: 0; stroke: #b0b0b0; stroke-width: 0.8"/>
     </g>
     <g id="line2d_2">
      <defs>
       <path id="m24b0dd00fd" d="M 0 0 
L 0 3.5 
" style="stroke: #000000; stroke-width: 0.8"/>
      </defs>
      <g>
       <use xlink:href="#m24b0dd00fd" x="87.002981" y="188.642912" style="stroke: #000000; stroke-width: 0.8"/>
      </g>
     </g>
     <g id="text_1">
      <!-- $\mathdefault{0}$ -->
      <g transform="translate(84.512313 202.561411)scale(0.1 -0.1)">
       <defs>
        <path id="CMR17-30" d="M 2688 2025 
C 2688 2416 2682 3080 2413 3591 
C 2176 4039 1798 4198 1466 4198 
C 1158 4198 768 4058 525 3597 
C 269 3118 243 2524 243 2025 
C 243 1661 250 1106 448 619 
C 723 -39 1216 -128 1466 -128 
C 1760 -128 2208 -7 2470 600 
C 2662 1042 2688 1559 2688 2025 
z
M 1466 -26 
C 1056 -26 813 325 723 812 
C 653 1188 653 1738 653 2096 
C 653 2588 653 2997 736 3387 
C 858 3929 1216 4096 1466 4096 
C 1728 4096 2067 3923 2189 3400 
C 2272 3036 2278 2607 2278 2096 
C 2278 1680 2278 1169 2202 792 
C 2067 95 1690 -26 1466 -26 
z
" transform="scale(0.015625)"/>
       </defs>
       <use xlink:href="#CMR17-30" transform="scale(0.996264)"/>
      </g>
     </g>
    </g>
    <g id="xtick_2">
     <g id="line2d_3">
      <path d="M 210.230985 188.642912 
L 210.230985 8.157838 
" clip-path="url(#p741dbd4625)" style="fill: none; stroke-dasharray: 0.8,1.32; stroke-dashoffset: 0; stroke: #b0b0b0; stroke-width: 0.8"/>
     </g>
     <g id="line2d_4">
      <g>
       <use xlink:href="#m24b0dd00fd" x="210.230985" y="188.642912" style="stroke: #000000; stroke-width: 0.8"/>
      </g>
     </g>
     <g id="text_2">
      <!-- $\mathdefault{5}$ -->
      <g transform="translate(207.740318 202.561411)scale(0.1 -0.1)">
       <defs>
        <path id="CMR17-35" d="M 730 3692 
C 794 3666 1056 3584 1325 3584 
C 1920 3584 2246 3911 2432 4100 
C 2432 4157 2432 4192 2394 4192 
C 2387 4192 2374 4192 2323 4163 
C 2099 4058 1837 3973 1517 3973 
C 1325 3973 1037 3999 723 4139 
C 653 4171 640 4171 634 4171 
C 602 4171 595 4164 595 4037 
L 595 2203 
C 595 2089 595 2057 659 2057 
C 691 2057 704 2070 736 2114 
C 941 2401 1222 2522 1542 2522 
C 1766 2522 2246 2382 2246 1289 
C 2246 1085 2246 715 2054 421 
C 1894 159 1645 25 1370 25 
C 947 25 518 320 403 814 
C 429 807 480 795 506 795 
C 589 795 749 840 749 1038 
C 749 1210 627 1280 506 1280 
C 358 1280 262 1190 262 1011 
C 262 454 704 -128 1382 -128 
C 2042 -128 2669 440 2669 1264 
C 2669 2030 2170 2624 1549 2624 
C 1222 2624 947 2503 730 2274 
L 730 3692 
z
" transform="scale(0.015625)"/>
       </defs>
       <use xlink:href="#CMR17-35" transform="scale(0.996264)"/>
      </g>
     </g>
    </g>
    <g id="xtick_3">
     <g id="line2d_5">
      <path d="M 333.45899 188.642912 
L 333.45899 8.157838 
" clip-path="url(#p741dbd4625)" style="fill: none; stroke-dasharray: 0.8,1.32; stroke-dashoffset: 0; stroke: #b0b0b0; stroke-width: 0.8"/>
     </g>
     <g id="line2d_6">
      <g>
       <use xlink:href="#m24b0dd00fd" x="333.45899" y="188.642912" style="stroke: #000000; stroke-width: 0.8"/>
      </g>
     </g>
     <g id="text_3">
      <!-- $\mathdefault{10}$ -->
      <g transform="translate(328.477654 202.561411)scale(0.1 -0.1)">
       <defs>
        <path id="CMR17-31" d="M 1702 4058 
C 1702 4192 1696 4192 1606 4192 
C 1357 3916 979 3827 621 3827 
C 602 3827 570 3827 563 3808 
C 557 3795 557 3782 557 3648 
C 755 3648 1088 3686 1344 3839 
L 1344 461 
C 1344 236 1331 160 781 160 
L 589 160 
L 589 0 
C 896 0 1216 0 1523 0 
C 1830 0 2150 0 2458 0 
L 2458 160 
L 2266 160 
C 1715 160 1702 230 1702 458 
L 1702 4058 
z
" transform="scale(0.015625)"/>
       </defs>
       <use xlink:href="#CMR17-31" transform="scale(0.996264)"/>
       <use xlink:href="#CMR17-30" transform="translate(45.690477 0)scale(0.996264)"/>
      </g>
     </g>
    </g>
    <g id="xtick_4">
     <g id="line2d_7">
      <path d="M 456.686994 188.642912 
L 456.686994 8.157838 
" clip-path="url(#p741dbd4625)" style="fill: none; stroke-dasharray: 0.8,1.32; stroke-dashoffset: 0; stroke: #b0b0b0; stroke-width: 0.8"/>
     </g>
     <g id="line2d_8">
      <g>
       <use xlink:href="#m24b0dd00fd" x="456.686994" y="188.642912" style="stroke: #000000; stroke-width: 0.8"/>
      </g>
     </g>
     <g id="text_4">
      <!-- $\mathdefault{15}$ -->
      <g transform="translate(451.705659 202.561411)scale(0.1 -0.1)">
       <use xlink:href="#CMR17-31" transform="scale(0.996264)"/>
       <use xlink:href="#CMR17-35" transform="translate(45.690477 0)scale(0.996264)"/>
      </g>
     </g>
    </g>
    <g id="xtick_5">
     <g id="line2d_9">
      <path d="M 579.914998 188.642912 
L 579.914998 8.157838 
" clip-path="url(#p741dbd4625)" style="fill: none; stroke-dasharray: 0.8,1.32; stroke-dashoffset: 0; stroke: #b0b0b0; stroke-width: 0.8"/>
     </g>
     <g id="line2d_10">
      <g>
       <use xlink:href="#m24b0dd00fd" x="579.914998" y="188.642912" style="stroke: #000000; stroke-width: 0.8"/>
      </g>
     </g>
     <g id="text_5">
      <!-- $\mathdefault{20}$ -->
      <g transform="translate(574.933663 202.561411)scale(0.1 -0.1)">
       <defs>
        <path id="CMR17-32" d="M 2669 989 
L 2554 989 
C 2490 536 2438 459 2413 420 
C 2381 369 1920 369 1830 369 
L 602 369 
C 832 619 1280 1072 1824 1597 
C 2214 1967 2669 2402 2669 3035 
C 2669 3790 2067 4224 1395 4224 
C 691 4224 262 3604 262 3030 
C 262 2780 448 2748 525 2748 
C 589 2748 781 2787 781 3010 
C 781 3207 614 3264 525 3264 
C 486 3264 448 3258 422 3245 
C 544 3790 915 4058 1306 4058 
C 1862 4058 2227 3617 2227 3035 
C 2227 2479 1901 2000 1536 1584 
L 262 146 
L 262 0 
L 2515 0 
L 2669 989 
z
" transform="scale(0.015625)"/>
       </defs>
       <use xlink:href="#CMR17-32" transform="scale(0.996264)"/>
       <use xlink:href="#CMR17-30" transform="translate(45.690477 0)scale(0.996264)"/>
      </g>
     </g>
    </g>
    <g id="xtick_6">
     <g id="line2d_11">
      <path d="M 703.143003 188.642912 
L 703.143003 8.157838 
" clip-path="url(#p741dbd4625)" style="fill: none; stroke-dasharray: 0.8,1.32; stroke-dashoffset: 0; stroke: #b0b0b0; stroke-width: 0.8"/>
     </g>
     <g id="line2d_12">
      <g>
       <use xlink:href="#m24b0dd00fd" x="703.143003" y="188.642912" style="stroke: #000000; stroke-width: 0.8"/>
      </g>
     </g>
     <g id="text_6">
      <!-- $\mathdefault{25}$ -->
      <g transform="translate(698.161667 202.561411)scale(0.1 -0.1)">
       <use xlink:href="#CMR17-32" transform="scale(0.996264)"/>
       <use xlink:href="#CMR17-35" transform="translate(45.690477 0)scale(0.996264)"/>
      </g>
     </g>
    </g>
   </g>
   <g id="matplotlib.axis_2">
    <g id="ytick_1">
     <g id="line2d_13">
      <path d="M 61.372788 182.101703 
L 733.67767 182.101703 
" clip-path="url(#p741dbd4625)" style="fill: none; stroke-dasharray: 0.8,1.32; stroke-dashoffset: 0; stroke: #b0b0b0; stroke-width: 0.8"/>
     </g>
     <g id="line2d_14">
      <defs>
       <path id="me7c835c987" d="M 0 0 
L -3.5 0 
" style="stroke: #000000; stroke-width: 0.8"/>
      </defs>
      <g>
       <use xlink:href="#me7c835c987" x="61.372788" y="182.101703" style="stroke: #000000; stroke-width: 0.8"/>
      </g>
     </g>
     <g id="text_7">
      <!-- $\mathdefault{0.0}$ -->
      <g transform="translate(41.642709 185.560953)scale(0.1 -0.1)">
       <defs>
        <path id="CMMI12-3a" d="M 1178 307 
C 1178 492 1024 619 870 619 
C 685 619 557 466 557 313 
C 557 128 710 0 864 0 
C 1050 0 1178 153 1178 307 
z
" transform="scale(0.015625)"/>
       </defs>
       <use xlink:href="#CMR17-30" transform="scale(0.996264)"/>
       <use xlink:href="#CMMI12-3a" transform="translate(45.690477 0)scale(0.996264)"/>
       <use xlink:href="#CMR17-30" transform="translate(72.787654 0)scale(0.996264)"/>
      </g>
     </g>
    </g>
    <g id="ytick_2">
     <g id="line2d_15">
      <path d="M 61.372788 153.527961 
L 733.67767 153.527961 
" clip-path="url(#p741dbd4625)" style="fill: none; stroke-dasharray: 0.8,1.32; stroke-dashoffset: 0; stroke: #b0b0b0; stroke-width: 0.8"/>
     </g>
     <g id="line2d_16">
      <g>
       <use xlink:href="#me7c835c987" x="61.372788" y="153.527961" style="stroke: #000000; stroke-width: 0.8"/>
      </g>
     </g>
     <g id="text_8">
      <!-- $\mathdefault{0.5}$ -->
      <g transform="translate(41.642709 156.98721)scale(0.1 -0.1)">
       <use xlink:href="#CMR17-30" transform="scale(0.996264)"/>
       <use xlink:href="#CMMI12-3a" transform="translate(45.690477 0)scale(0.996264)"/>
       <use xlink:href="#CMR17-35" transform="translate(72.787654 0)scale(0.996264)"/>
      </g>
     </g>
    </g>
    <g id="ytick_3">
     <g id="line2d_17">
      <path d="M 61.372788 124.954219 
L 733.67767 124.954219 
" clip-path="url(#p741dbd4625)" style="fill: none; stroke-dasharray: 0.8,1.32; stroke-dashoffset: 0; stroke: #b0b0b0; stroke-width: 0.8"/>
     </g>
     <g id="line2d_18">
      <g>
       <use xlink:href="#me7c835c987" x="61.372788" y="124.954219" style="stroke: #000000; stroke-width: 0.8"/>
      </g>
     </g>
     <g id="text_9">
      <!-- $\mathdefault{1.0}$ -->
      <g transform="translate(41.642709 128.413468)scale(0.1 -0.1)">
       <use xlink:href="#CMR17-31" transform="scale(0.996264)"/>
       <use xlink:href="#CMMI12-3a" transform="translate(45.690477 0)scale(0.996264)"/>
       <use xlink:href="#CMR17-30" transform="translate(72.787654 0)scale(0.996264)"/>
      </g>
     </g>
    </g>
    <g id="ytick_4">
     <g id="line2d_19">
      <path d="M 61.372788 96.380476 
L 733.67767 96.380476 
" clip-path="url(#p741dbd4625)" style="fill: none; stroke-dasharray: 0.8,1.32; stroke-dashoffset: 0; stroke: #b0b0b0; stroke-width: 0.8"/>
     </g>
     <g id="line2d_20">
      <g>
       <use xlink:href="#me7c835c987" x="61.372788" y="96.380476" style="stroke: #000000; stroke-width: 0.8"/>
      </g>
     </g>
     <g id="text_10">
      <!-- $\mathdefault{1.5}$ -->
      <g transform="translate(41.642709 99.839725)scale(0.1 -0.1)">
       <use xlink:href="#CMR17-31" transform="scale(0.996264)"/>
       <use xlink:href="#CMMI12-3a" transform="translate(45.690477 0)scale(0.996264)"/>
       <use xlink:href="#CMR17-35" transform="translate(72.787654 0)scale(0.996264)"/>
      </g>
     </g>
    </g>
    <g id="ytick_5">
     <g id="line2d_21">
      <path d="M 61.372788 67.806734 
L 733.67767 67.806734 
" clip-path="url(#p741dbd4625)" style="fill: none; stroke-dasharray: 0.8,1.32; stroke-dashoffset: 0; stroke: #b0b0b0; stroke-width: 0.8"/>
     </g>
     <g id="line2d_22">
      <g>
       <use xlink:href="#me7c835c987" x="61.372788" y="67.806734" style="stroke: #000000; stroke-width: 0.8"/>
      </g>
     </g>
     <g id="text_11">
      <!-- $\mathdefault{2.0}$ -->
      <g transform="translate(41.642709 71.265983)scale(0.1 -0.1)">
       <use xlink:href="#CMR17-32" transform="scale(0.996264)"/>
       <use xlink:href="#CMMI12-3a" transform="translate(45.690477 0)scale(0.996264)"/>
       <use xlink:href="#CMR17-30" transform="translate(72.787654 0)scale(0.996264)"/>
      </g>
     </g>
    </g>
    <g id="ytick_6">
     <g id="line2d_23">
      <path d="M 61.372788 39.232992 
L 733.67767 39.232992 
" clip-path="url(#p741dbd4625)" style="fill: none; stroke-dasharray: 0.8,1.32; stroke-dashoffset: 0; stroke: #b0b0b0; stroke-width: 0.8"/>
     </g>
     <g id="line2d_24">
      <g>
       <use xlink:href="#me7c835c987" x="61.372788" y="39.232992" style="stroke: #000000; stroke-width: 0.8"/>
      </g>
     </g>
     <g id="text_12">
      <!-- $\mathdefault{2.5}$ -->
      <g transform="translate(41.642709 42.692241)scale(0.1 -0.1)">
       <use xlink:href="#CMR17-32" transform="scale(0.996264)"/>
       <use xlink:href="#CMMI12-3a" transform="translate(45.690477 0)scale(0.996264)"/>
       <use xlink:href="#CMR17-35" transform="translate(72.787654 0)scale(0.996264)"/>
      </g>
     </g>
    </g>
    <g id="ytick_7">
     <g id="line2d_25">
      <path d="M 61.372788 10.659249 
L 733.67767 10.659249 
" clip-path="url(#p741dbd4625)" style="fill: none; stroke-dasharray: 0.8,1.32; stroke-dashoffset: 0; stroke: #b0b0b0; stroke-width: 0.8"/>
     </g>
     <g id="line2d_26">
      <g>
       <use xlink:href="#me7c835c987" x="61.372788" y="10.659249" style="stroke: #000000; stroke-width: 0.8"/>
      </g>
     </g>
     <g id="text_13">
      <!-- $\mathdefault{3.0}$ -->
      <g transform="translate(41.642709 14.118498)scale(0.1 -0.1)">
       <defs>
        <path id="CMR17-33" d="M 1414 2157 
C 1984 2157 2234 1662 2234 1090 
C 2234 320 1824 25 1453 25 
C 1114 25 563 194 390 693 
C 422 680 454 680 486 680 
C 640 680 755 782 755 948 
C 755 1133 614 1216 486 1216 
C 378 1216 211 1165 211 926 
C 211 335 787 -128 1466 -128 
C 2176 -128 2720 430 2720 1085 
C 2720 1707 2208 2157 1600 2227 
C 2086 2328 2554 2756 2554 3329 
C 2554 3820 2048 4179 1472 4179 
C 890 4179 378 3829 378 3329 
C 378 3110 544 3072 627 3072 
C 762 3072 877 3155 877 3321 
C 877 3486 762 3569 627 3569 
C 602 3569 570 3569 544 3557 
C 730 3959 1235 4032 1459 4032 
C 1683 4032 2106 3925 2106 3320 
C 2106 3143 2080 2828 1862 2550 
C 1670 2304 1453 2304 1242 2284 
C 1210 2284 1062 2269 1037 2269 
C 992 2263 966 2257 966 2208 
C 966 2163 973 2157 1101 2157 
L 1414 2157 
z
" transform="scale(0.015625)"/>
       </defs>
       <use xlink:href="#CMR17-33" transform="scale(0.996264)"/>
       <use xlink:href="#CMMI12-3a" transform="translate(45.690477 0)scale(0.996264)"/>
       <use xlink:href="#CMR17-30" transform="translate(72.787654 0)scale(0.996264)"/>
      </g>
     </g>
    </g>
    <g id="text_14">
     <!-- $C_d$ -->
     <g transform="translate(33.767076 108.927792)rotate(-90)scale(0.2 -0.2)">
      <defs>
       <path id="CMMI12-43" d="M 4781 4423 
C 4781 4480 4736 4480 4723 4480 
C 4710 4480 4685 4480 4634 4416 
L 4192 3882 
C 3968 4264 3616 4480 3136 4480 
C 1754 4480 320 3088 320 1595 
C 320 533 1069 -128 2003 -128 
C 2515 -128 2963 88 3334 400 
C 3891 863 4058 1481 4058 1531 
C 4058 1588 4006 1588 3987 1588 
C 3930 1588 3923 1550 3910 1524 
C 3616 534 2752 57 2112 57 
C 1434 57 845 489 845 1391 
C 845 1595 909 2700 1632 3532 
C 1984 3939 2586 4295 3194 4295 
C 3898 4295 4211 3717 4211 3068 
C 4211 2903 4192 2764 4192 2738 
C 4192 2681 4256 2681 4275 2681 
C 4346 2681 4352 2687 4378 2801 
L 4781 4423 
z
" transform="scale(0.015625)"/>
       <path id="CMMI12-64" d="M 3219 4257 
C 3226 4282 3238 4320 3238 4352 
C 3238 4416 3174 4416 3162 4416 
C 3155 4416 2842 4388 2810 4380 
C 2701 4373 2605 4358 2490 4358 
C 2330 4345 2285 4339 2285 4224 
C 2285 4160 2336 4160 2426 4160 
C 2739 4160 2746 4103 2746 4040 
C 2746 4002 2733 3952 2726 3933 
L 2336 2395 
C 2266 2561 2093 2816 1760 2816 
C 1037 2816 256 1884 256 939 
C 256 307 627 -64 1062 -64 
C 1414 -64 1715 211 1894 422 
C 1958 45 2259 -64 2451 -64 
C 2643 -64 2797 51 2912 281 
C 3014 498 3104 888 3104 913 
C 3104 945 3078 971 3040 971 
C 2982 971 2976 939 2950 843 
C 2854 466 2733 64 2470 64 
C 2285 64 2272 229 2272 357 
C 2272 382 2272 515 2317 694 
L 3219 4257 
z
M 1926 760 
C 1894 651 1894 639 1805 517 
C 1664 338 1382 64 1082 64 
C 819 64 672 300 672 677 
C 672 1028 870 1743 992 2012 
C 1210 2459 1510 2689 1760 2689 
C 2182 2689 2266 2165 2266 2114 
C 2266 2108 2246 2024 2240 2012 
L 1926 760 
z
" transform="scale(0.015625)"/>
      </defs>
      <use xlink:href="#CMMI12-43" transform="scale(0.996264)"/>
      <use xlink:href="#CMMI12-64" transform="translate(69.792037 -14.943915)scale(0.697382)"/>
     </g>
    </g>
   </g>
   <g id="line2d_27">
    <path d="M 91.932101 56.18145 
L 92.425013 61.974376 
L 92.72076 63.729432 
L 92.917925 63.929563 
L 93.065799 63.711774 
L 93.262964 62.868848 
L 93.583356 60.165258 
L 94.667763 50.388066 
L 94.96351 49.503309 
L 95.111384 49.468106 
L 95.283903 49.755844 
L 95.57965 50.860562 
L 96.171144 54.184659 
L 97.03374 58.653364 
L 97.477361 59.910437 
L 97.773109 60.199889 
L 97.970273 60.129255 
L 98.216729 59.760139 
L 98.611059 58.675652 
L 99.621529 55.659693 
L 99.89263 55.475564 
L 100.114441 55.597231 
L 100.410188 56.070126 
L 101.642468 58.382314 
L 101.888924 58.354711 
L 102.184671 58.046801 
L 103.269078 56.641373 
L 103.515534 56.754753 
L 103.811281 57.176959 
L 104.230256 58.226244 
L 104.895687 60.602779 
L 107.187728 69.335486 
L 107.557412 69.820954 
L 107.877805 69.911762 
L 108.247489 69.761406 
L 109.627643 68.990201 
L 110.219137 69.04712 
L 111.328189 69.419493 
L 112.363304 69.985482 
L 115.025029 71.81843 
L 115.715106 72.694615 
L 116.626993 74.255428 
L 118.204312 77.458487 
L 119.313364 80.165106 
L 120.249897 83.074542 
L 121.703987 88.518983 
L 122.689811 91.743301 
L 123.355242 93.24868 
L 123.848154 93.897304 
L 124.242484 94.097606 
L 124.612168 94.035772 
L 125.031143 93.708946 
L 125.573346 92.971286 
L 126.805626 90.765907 
L 127.594286 89.645817 
L 128.18578 89.166349 
L 128.703338 89.018966 
L 129.220895 89.106744 
L 129.787744 89.436885 
L 130.527112 90.146772 
L 133.090255 92.855848 
L 134.002142 93.347659 
L 135.35765 93.789009 
L 137.42788 94.482151 
L 138.512287 95.093972 
L 139.621339 95.987987 
L 141.765506 98.107359 
L 142.973141 99.098296 
L 143.885028 99.56702 
L 144.698333 99.740177 
L 145.560929 99.682858 
L 146.793209 99.337116 
L 152.190595 97.651322 
L 153.275002 97.546685 
L 154.23618 97.67601 
L 155.24665 98.04484 
L 156.404993 98.718894 
L 157.760501 99.77418 
L 159.091363 101.090058 
L 160.323644 102.629039 
L 163.305761 106.569701 
L 163.971192 106.957904 
L 164.661269 107.104545 
L 165.622448 107.051798 
L 168.160945 106.605876 
L 169.615035 106.141381 
L 171.118417 105.414236 
L 175.431397 103.140909 
L 176.860842 102.743334 
L 178.314932 102.569777 
L 180.311226 102.57835 
L 183.835547 102.606695 
L 185.905777 102.376276 
L 188.247109 101.88035 
L 193.053001 100.77809 
L 194.753548 100.670481 
L 196.528031 100.783233 
L 198.622907 101.146005 
L 201.629671 101.907952 
L 203.601319 102.608523 
L 204.956827 103.326067 
L 206.164461 104.220254 
L 207.56926 105.557448 
L 210.304922 108.228236 
L 211.266101 108.805425 
L 212.104051 109.054874 
L 212.917356 109.068132 
L 213.804597 108.851715 
L 214.839713 108.357446 
L 216.293803 107.388453 
L 218.980174 105.565792 
L 220.138517 105.074095 
L 221.148986 104.880022 
L 222.134811 104.916425 
L 223.169926 105.18136 
L 224.402206 105.742949 
L 228.394793 107.770256 
L 229.454554 107.914953 
L 230.563606 107.834147 
L 231.746595 107.521264 
L 233.17604 106.892928 
L 236.996108 105.085295 
L 238.277679 104.788871 
L 239.436022 104.741325 
L 240.545074 104.912539 
L 241.629481 105.302684 
L 242.713887 105.934221 
L 243.798294 106.831094 
L 244.907346 108.047535 
L 246.090335 109.694926 
L 247.495134 112.071976 
L 250.42796 117.167188 
L 251.83276 119.053112 
L 253.188268 120.518717 
L 254.29732 121.405474 
L 255.233852 121.878255 
L 256.071803 122.054555 
L 256.835817 121.991407 
L 257.550539 121.709327 
L 258.21597 121.205058 
L 258.856756 120.433795 
L 259.497541 119.30199 
L 260.162973 117.65157 
L 260.877695 115.238803 
L 261.666354 111.727148 
L 262.602887 106.433633 
L 263.93375 97.43159 
L 265.930043 84.007703 
L 266.694057 80.295974 
L 267.260906 78.498914 
L 267.679881 77.780284 
L 268.000274 77.595355 
L 268.271375 77.683591 
L 268.591768 78.065793 
L 268.986098 78.919405 
L 269.528301 80.690577 
L 270.292315 84.066279 
L 271.721759 91.653751 
L 273.39766 100.142895 
L 274.580649 105.027691 
L 275.714347 108.797025 
L 276.823399 111.729262 
L 278.031033 114.296327 
L 279.411187 116.713208 
L 280.692758 118.538271 
L 281.629291 119.524522 
L 282.344013 119.988845 
L 282.935508 120.12537 
L 283.453065 120.021019 
L 283.970623 119.673105 
L 284.512826 119.01128 
L 285.104321 117.89959 
L 285.745106 116.187337 
L 286.459829 113.600328 
L 287.248488 109.869969 
L 288.13573 104.560167 
L 289.170845 96.954523 
L 290.60029 84.59095 
L 292.300836 70.230016 
L 293.114141 65.138004 
L 293.730281 62.519049 
L 294.198547 61.339753 
L 294.568231 60.921376 
L 294.839333 60.89926 
L 295.110435 61.110249 
L 295.455473 61.698754 
L 295.899094 62.938397 
L 296.490588 65.320133 
L 297.303893 69.635282 
L 298.634756 78.115626 
L 301.123961 93.953251 
L 302.430178 100.785976 
L 303.613167 105.840728 
L 304.77151 109.844767 
L 305.979145 113.237384 
L 307.260716 116.194881 
L 308.566933 118.668453 
L 309.651339 120.283955 
L 310.464644 121.133166 
L 311.080784 121.49051 
L 311.598342 121.555258 
L 312.091254 121.390044 
L 312.608811 120.959038 
L 313.17566 120.168517 
L 313.816446 118.857668 
L 314.531168 116.850077 
L 315.319827 113.935498 
L 316.207069 109.754245 
L 317.217539 103.848738 
L 318.400528 95.537951 
L 320.12572 81.616595 
L 322.023431 66.725961 
L 322.959964 61.013498 
L 323.674686 57.875873 
L 324.241535 56.260599 
L 324.685156 55.5618 
L 325.030194 55.361898 
L 325.325941 55.42476 
L 325.67098 55.76153 
L 326.089955 56.530221 
L 326.632158 58.056287 
L 327.322235 60.734504 
L 328.258768 65.356764 
L 329.786795 74.213024 
L 332.300646 88.674881 
L 333.656154 95.164321 
L 334.863789 99.900647 
L 335.997487 103.492366 
L 337.057247 106.15121 
L 337.99378 107.939412 
L 338.831731 109.092249 
L 339.62039 109.812478 
L 340.384403 110.215654 
L 341.197708 110.392697 
L 342.183532 110.368295 
L 343.736205 110.074442 
L 345.978955 109.688125 
L 347.285172 109.701669 
L 348.517452 109.944317 
L 349.749732 110.421956 
L 351.129885 111.210249 
L 355.442866 113.895437 
L 356.527272 114.148029 
L 357.685615 114.188604 
L 358.843959 114.011275 
L 359.977656 113.613757 
L 361.135999 112.963191 
L 362.269697 112.060146 
L 363.354103 110.906624 
L 364.413864 109.445534 
L 365.424334 107.66539 
L 366.410158 105.467898 
L 367.420628 102.641326 
L 368.480388 98.976515 
L 369.688023 93.945765 
L 371.363924 85.883512 
L 373.779193 74.336863 
L 374.740371 70.809491 
L 375.455094 68.953398 
L 376.021942 68.042353 
L 376.465563 67.699754 
L 376.835247 67.666665 
L 377.204931 67.861195 
L 377.623906 68.349921 
L 378.141464 69.328971 
L 378.78225 71.068541 
L 379.595554 73.991006 
L 380.729252 79.004955 
L 384.94365 98.464302 
L 386.299158 103.343497 
L 387.531438 106.979392 
L 388.689781 109.738358 
L 389.823479 111.879046 
L 390.932531 113.505577 
L 392.041583 114.745963 
L 393.249217 115.764332 
L 394.826536 116.787329 
L 397.784008 118.402602 
L 399.065579 118.882127 
L 400.100694 119.035511 
L 401.209746 118.963562 
L 402.417381 118.653137 
L 403.575724 118.127952 
L 404.635485 117.407322 
L 405.596663 116.478561 
L 406.483905 115.299494 
L 407.346501 113.775256 
L 408.233743 111.746121 
L 409.170276 109.026243 
L 410.1561 105.454068 
L 411.240506 100.642307 
L 412.497432 93.982339 
L 414.29656 83.080942 
L 416.218917 71.765283 
L 417.130805 67.651236 
L 417.796236 65.559523 
L 418.313793 64.570129 
L 418.708123 64.218215 
L 419.028516 64.193184 
L 419.348909 64.400115 
L 419.743238 64.963418 
L 420.23615 66.11494 
L 420.876936 68.259456 
L 421.739532 72.019246 
L 423.292205 80.006865 
L 425.485663 91.002441 
L 426.841171 96.700388 
L 428.02416 100.766489 
L 429.207149 104.05064 
L 430.513366 107.017795 
L 432.287849 110.457845 
L 434.727764 114.698645 
L 436.625475 117.59088 
L 438.128857 119.50092 
L 439.385782 120.759936 
L 440.420897 121.496167 
L 441.234202 121.821165 
L 441.924279 121.866826 
L 442.540419 121.681497 
L 443.131913 121.258834 
L 443.723408 120.554662 
L 444.364194 119.431543 
L 445.078916 117.696088 
L 445.867575 115.160683 
L 446.754817 111.520845 
L 447.765286 106.390715 
L 448.997567 98.885822 
L 450.870632 85.872025 
L 452.768343 73.163111 
L 453.778813 67.798619 
L 454.567472 64.708883 
L 455.208258 63.023147 
L 455.725816 62.228568 
L 456.144791 61.956775 
L 456.489829 61.977005 
L 456.859513 62.235026 
L 457.303134 62.852276 
L 457.845337 64.030828 
L 458.510768 66.049849 
L 459.348719 69.353202 
L 460.457771 74.711064 
L 462.306191 84.949036 
L 464.672169 97.761217 
L 466.027677 103.892113 
L 467.18602 108.152515 
L 468.245781 111.234422 
L 469.231605 113.448144 
L 470.143492 114.987583 
L 471.006088 116.026467 
L 471.794747 116.640403 
L 472.534115 116.944313 
L 473.273483 117.014204 
L 474.111434 116.861678 
L 475.171195 116.424385 
L 477.6604 115.047816 
L 479.262364 114.33153 
L 480.568581 113.987502 
L 481.800861 113.89138 
L 483.082433 114.01859 
L 484.659751 114.418623 
L 486.902501 114.988212 
L 487.740451 114.956838 
L 488.405882 114.717733 
L 489.022022 114.260496 
L 489.638162 113.520036 
L 490.303594 112.348855 
L 491.018316 110.616658 
L 491.831621 108.018904 
L 492.743508 104.315462 
L 493.803269 99.027491 
L 495.109486 91.300408 
L 497.401527 76.089519 
L 498.978845 66.371646 
L 499.964669 61.597145 
L 500.728683 58.897327 
L 501.369468 57.388119 
L 501.887026 56.682119 
L 502.306001 56.43827 
L 502.700331 56.464787 
L 503.09466 56.724922 
L 503.562927 57.313827 
L 504.154421 58.44489 
L 504.918435 60.441166 
L 505.928905 63.773779 
L 507.456932 69.677171 
L 511.967077 87.469698 
L 513.642978 93.014718 
L 515.121714 97.167111 
L 516.403285 100.147524 
L 517.536983 102.257695 
L 518.547452 103.697983 
L 519.459339 104.633487 
L 520.321935 105.215135 
L 521.209177 105.545847 
L 522.195001 105.665857 
L 523.476572 105.578421 
L 527.888135 105.115641 
L 529.859783 104.918596 
L 530.870253 104.589998 
L 531.683557 104.095787 
L 532.447571 103.362699 
L 533.186939 102.33353 
L 533.950953 100.874554 
L 534.788903 98.760498 
L 535.725436 95.750254 
L 536.834488 91.388472 
L 538.411806 84.168973 
L 540.605265 74.271029 
L 541.665026 70.499866 
L 542.527622 68.20088 
L 543.242344 66.879687 
L 543.858484 66.172716 
L 544.400687 65.872006 
L 544.893599 65.845604 
L 545.411157 66.052078 
L 546.002652 66.552804 
L 546.717374 67.483222 
L 547.604616 69.035691 
L 548.81225 71.636644 
L 551.252165 77.561467 
L 554.184991 84.439338 
L 556.698842 89.781428 
L 558.916946 93.967024 
L 560.937886 97.344497 
L 562.441267 99.445467 
L 563.870712 101.061713 
L 565.398739 102.450796 
L 566.926767 103.546085 
L 568.454794 104.368609 
L 570.451088 105.168216 
L 574.542257 106.774861 
L 577.425793 107.954614 
L 578.33768 108.067423 
L 579.052402 107.935526 
L 579.693188 107.590584 
L 580.333974 106.983621 
L 580.999405 106.035487 
L 581.738773 104.563768 
L 582.552078 102.403364 
L 583.463965 99.293455 
L 584.523726 94.81995 
L 585.879234 88.044773 
L 588.935288 72.429451 
L 589.847175 69.043405 
L 590.586543 67.083647 
L 591.202684 66.037448 
L 591.720241 65.570381 
L 592.163862 65.455858 
L 592.582837 65.573753 
L 593.051104 65.943383 
L 593.617952 66.689843 
L 594.332675 68.027552 
L 595.269208 70.29865 
L 596.649361 74.306289 
L 601.701709 89.460202 
L 603.352965 93.53796 
L 604.757764 96.445167 
L 606.088626 98.710551 
L 607.320906 100.396916 
L 608.429959 101.554781 
L 609.415783 102.277297 
L 610.352315 102.693102 
L 611.313494 102.870145 
L 612.422546 102.836428 
L 613.901282 102.555033 
L 615.577183 102.015504 
L 617.647413 101.090972 
L 622.157558 98.786557 
L 623.020154 98.013923 
L 623.784168 97.024186 
L 624.548181 95.644702 
L 625.336841 93.735405 
L 626.224082 90.971295 
L 627.333134 86.719751 
L 629.82234 75.914076 
L 631.128557 70.925158 
L 632.06509 68.14179 
L 632.829103 66.499371 
L 633.469889 65.60267 
L 634.012092 65.201723 
L 634.480359 65.121659 
L 634.923979 65.269271 
L 635.416891 65.677361 
L 636.008386 66.479084 
L 636.747754 67.892169 
L 637.733578 70.305679 
L 639.532707 75.441695 
L 641.652228 81.274682 
L 643.229547 84.967438 
L 644.732929 87.934535 
L 646.23631 90.429194 
L 647.690401 92.423527 
L 649.169137 94.068118 
L 650.894329 95.635387 
L 652.841331 97.104021 
L 654.763688 98.277887 
L 657.10502 99.433981 
L 660.284303 100.74283 
L 664.153662 102.140428 
L 666.889324 103.195314 
L 669.058137 104.006865 
L 669.945378 104.094415 
L 670.635455 103.94726 
L 671.276241 103.581231 
L 671.917026 102.952037 
L 672.607103 101.95327 
L 673.395762 100.401202 
L 674.332295 98.037353 
L 675.515284 94.405402 
L 677.166539 88.544928 
L 680.666215 75.919448 
L 681.873849 72.494656 
L 682.884319 70.243274 
L 683.77156 68.774298 
L 684.535574 67.910342 
L 685.225651 67.452477 
L 685.817145 67.311037 
L 686.383994 67.406244 
L 686.950843 67.735928 
L 687.591629 68.387181 
L 688.330997 69.479498 
L 689.242884 71.259128 
L 690.401227 74.052554 
L 692.200356 79.06696 
L 695.009954 86.826388 
L 696.48869 90.240493 
L 697.819553 92.774756 
L 699.051833 94.660737 
L 700.111594 95.900837 
L 701.097418 96.731876 
L 702.132533 97.316781 
L 703.118357 97.685896 
L 703.118357 97.685896 
" clip-path="url(#p741dbd4625)" style="fill: none; stroke: #2ca02c; stroke-width: 1.5; stroke-linecap: square"/>
   </g>
   <g id="line2d_28">
    <path d="M 91.932101 142.281959 
L 93.065799 147.448863 
L 94.051623 150.819096 
L 94.889573 152.953206 
L 95.826106 154.716446 
L 97.354133 157.07578 
L 99.030034 159.238646 
L 100.015858 160.192249 
L 101.396012 161.483697 
L 103.047267 163.051224 
L 104.427421 164.041681 
L 106.078676 164.947931 
L 107.45883 165.470134 
L 109.997327 166.354005 
L 112.880862 167.677335 
L 114.778573 168.413686 
L 117.070614 169.020787 
L 119.288718 169.410293 
L 123.453825 170.025057 
L 133.065609 172.776703 
L 136.121663 173.318398 
L 138.734097 173.554651 
L 144.279357 174.01134 
L 148.814148 174.288145 
L 153.965079 174.698715 
L 162.911432 175.372524 
L 168.727793 175.503449 
L 173.632268 176.309183 
L 177.452336 176.772934 
L 181.863899 177.07566 
L 186.891601 177.166509 
L 193.644496 177.040044 
L 201.013531 177.020035 
L 208.530439 177.16489 
L 214.593257 177.568979 
L 226.62031 178.278101 
L 230.810062 178.327173 
L 242.763178 178.232275 
L 262.405722 179.05367 
L 264.574535 178.692313 
L 266.521538 178.446777 
L 268.148147 178.477238 
L 275.344663 178.922464 
L 280.914569 179.105272 
L 284.833219 179.235919 
L 286.829513 179.073818 
L 288.628642 178.70277 
L 290.945328 177.971591 
L 293.779572 177.103139 
L 295.159726 176.924606 
L 296.515234 176.977502 
L 298.412945 177.299872 
L 302.282305 178.241164 
L 307.186779 179.333255 
L 310.218188 179.787785 
L 312.781331 179.954047 
L 315.196599 179.887175 
L 317.365412 179.609666 
L 319.977846 179.026639 
L 324.414054 178.029958 
L 326.28712 177.866639 
L 328.455933 177.917623 
L 334.641978 178.409199 
L 341.69062 179.07374 
L 347.457691 179.737079 
L 353.323344 180.128881 
L 357.118766 180.158947 
L 360.692379 179.971744 
L 369.170465 179.151647 
L 371.561089 178.638691 
L 375.898714 177.6503 
L 377.722489 177.514365 
L 379.965238 177.592856 
L 383.070584 177.912176 
L 386.644196 178.562217 
L 391.252924 179.323014 
L 396.231335 179.896237 
L 399.829593 180.092185 
L 403.230686 180.051617 
L 407.29721 179.757182 
L 411.832 179.28796 
L 414.493725 178.740954 
L 418.486313 177.923422 
L 420.531898 177.751593 
L 422.774647 177.799973 
L 425.978575 178.107771 
L 429.946517 178.693814 
L 436.748703 179.790117 
L 441.505304 180.278663 
L 444.167029 180.348389 
L 446.409778 180.187856 
L 448.480009 179.819375 
L 450.77205 179.169191 
L 454.123851 178.220805 
L 455.92298 177.960966 
L 457.746755 177.929991 
L 460.433125 178.140072 
L 467.383185 178.735946 
L 475.466942 179.306286 
L 482.638812 180.096038 
L 487.814388 180.429067 
L 490.525404 180.38077 
L 492.768154 180.120138 
L 494.887675 179.648329 
L 500.679392 178.181571 
L 502.577103 178.051753 
L 504.795207 178.138036 
L 513.371876 178.678306 
L 521.110595 178.940067 
L 527.025539 179.522911 
L 531.658912 179.842412 
L 534.369928 179.82102 
L 536.563386 179.583013 
L 538.929364 179.08803 
L 543.020534 178.193981 
L 544.893599 178.059648 
L 547.087058 178.138468 
L 556.624905 178.740626 
L 568.824478 178.901149 
L 581.02405 179.730889 
L 583.2668 179.548242 
L 585.287739 179.16161 
L 591.424494 177.768235 
L 593.149686 177.768518 
L 595.909993 178.038109 
L 601.30738 178.543915 
L 605.645006 178.695082 
L 616.957336 178.980763 
L 625.780462 179.30024 
L 627.998566 179.03206 
L 634.357131 178.069392 
L 636.969564 178.114127 
L 650.376771 178.557662 
L 659.273833 178.734983 
L 666.347121 179.136702 
L 670.980494 179.431318 
L 673.494345 179.359096 
L 675.934259 179.064623 
L 682.785736 178.064385 
L 687.221945 177.708214 
L 689.563277 177.788594 
L 700.382695 178.431332 
L 703.118357 178.557195 
L 703.118357 178.557195 
" clip-path="url(#p741dbd4625)" style="fill: none; stroke: #ff7f0e; stroke-width: 1.5; stroke-linecap: square"/>
   </g>
   <g id="line2d_29">
    <path d="M 91.932101 16.361705 
L 92.49895 25.535894 
L 92.843988 28.382673 
L 93.11509 29.102554 
L 93.213672 29.053356 
L 93.361546 28.626401 
L 93.681939 26.726219 
L 94.643117 20.801013 
L 94.889573 20.476478 
L 95.037447 20.615044 
L 95.234612 21.197348 
L 95.57965 23.050915 
L 96.466892 29.553065 
L 97.181614 33.905497 
L 97.625235 35.462183 
L 97.945628 35.92809 
L 98.167438 35.925781 
L 98.413894 35.665583 
L 98.832869 34.810548 
L 99.498301 33.497184 
L 99.769402 33.393376 
L 99.991213 33.570933 
L 100.28696 34.153363 
L 100.829163 35.858507 
L 101.51924 37.820111 
L 101.864278 38.231339 
L 102.13538 38.246117 
L 102.505064 37.986085 
L 102.997976 37.679757 
L 103.269078 37.769119 
L 103.564825 38.157104 
L 103.959154 39.126823 
L 104.526003 41.203963 
L 105.61041 46.220437 
L 106.84269 51.645208 
L 107.335602 52.914317 
L 107.705286 53.337762 
L 108.050324 53.410568 
L 108.567882 53.235514 
L 109.282604 53.037995 
L 109.775516 53.146055 
L 110.465593 53.564889 
L 111.648582 54.566107 
L 113.2259 56.275126 
L 115.394713 58.744212 
L 116.257309 60.305881 
L 117.785336 63.632242 
L 119.16549 67.058136 
L 120.151314 70.137437 
L 121.40824 74.926242 
L 122.64052 79.319335 
L 123.379888 81.192846 
L 123.922091 82.025685 
L 124.341066 82.310011 
L 124.71075 82.310291 
L 125.129725 82.0645 
L 125.671929 81.45141 
L 127.79145 78.73183 
L 128.309008 78.539534 
L 128.80192 78.588961 
L 129.344123 78.881545 
L 129.984909 79.498744 
L 130.896796 80.722551 
L 132.646634 83.096772 
L 133.558521 83.916804 
L 134.593636 84.538317 
L 138.808034 86.764229 
L 139.991023 87.870021 
L 143.244242 91.082413 
L 144.106838 91.532398 
L 144.920143 91.709064 
L 145.782739 91.659225 
L 147.162893 91.31398 
L 151.500518 90.208777 
L 152.757444 90.057507 
L 153.743268 90.159635 
L 154.729092 90.491639 
L 155.813499 91.106198 
L 157.09507 92.102078 
L 158.524515 93.501369 
L 159.830732 95.094966 
L 161.334113 97.324273 
L 162.714267 99.267624 
L 163.453635 99.947525 
L 164.09442 100.25383 
L 164.784497 100.337922 
L 165.918195 100.209609 
L 170.674796 99.369804 
L 172.572507 98.601205 
L 174.765966 97.774546 
L 176.343284 97.419867 
L 177.846666 97.310704 
L 179.744377 97.419253 
L 183.391926 97.651594 
L 185.338928 97.519266 
L 187.335222 97.161246 
L 190.243403 96.376317 
L 192.7819 95.770754 
L 194.457801 95.599178 
L 196.133702 95.651556 
L 198.080704 95.943256 
L 200.841011 96.603153 
L 203.157698 97.355886 
L 204.587143 98.050367 
L 205.794777 98.88744 
L 207.051703 100.038131 
L 210.970353 103.867853 
L 211.857595 104.277825 
L 212.695545 104.417979 
L 213.558141 104.328355 
L 214.51932 103.995683 
L 215.776245 103.302427 
L 219.473086 101.105591 
L 220.532846 100.819151 
L 221.51867 100.776902 
L 222.52914 100.960965 
L 223.638192 101.40038 
L 225.092283 102.2436 
L 227.581488 103.710803 
L 228.665895 104.059798 
L 229.676364 104.152863 
L 230.760771 104.023691 
L 231.919114 103.657087 
L 233.348559 102.950508 
L 236.700361 101.20382 
L 237.957286 100.842598 
L 239.090984 100.740584 
L 240.200036 100.866744 
L 241.284442 101.220252 
L 242.344203 101.801504 
L 243.42861 102.656961 
L 244.537662 103.825831 
L 245.696005 105.381693 
L 247.002222 107.529647 
L 251.019455 114.464541 
L 252.473545 116.287826 
L 253.755116 117.554979 
L 254.814877 118.301535 
L 255.726764 118.682285 
L 256.540069 118.790083 
L 257.279437 118.667991 
L 257.944869 118.334368 
L 258.561009 117.77924 
L 259.177149 116.916938 
L 259.817934 115.608263 
L 260.483365 113.709035 
L 261.198088 110.963957 
L 262.011393 106.902123 
L 263.021862 100.606324 
L 265.042802 86.11996 
L 266.151854 79.167883 
L 266.866576 75.98717 
L 267.384134 74.567337 
L 267.778463 74.040853 
L 268.074211 73.967491 
L 268.345312 74.137216 
L 268.690351 74.664842 
L 269.133971 75.809041 
L 269.725466 78.012463 
L 270.612707 82.30741 
L 273.964509 99.404523 
L 275.122852 103.754112 
L 276.231904 107.079005 
L 277.390248 109.845509 
L 278.745756 112.491247 
L 280.175201 114.814558 
L 281.284253 116.2306 
L 282.097557 116.935943 
L 282.738343 117.213527 
L 283.280546 117.207268 
L 283.773458 116.974438 
L 284.291016 116.462866 
L 284.833219 115.596537 
L 285.449359 114.155111 
L 286.11479 111.999232 
L 286.854158 108.82039 
L 287.692109 104.182973 
L 288.653287 97.530777 
L 289.81163 87.851947 
L 292.719811 62.673054 
L 293.434534 58.710134 
L 293.976737 56.770351 
L 294.395712 55.953258 
L 294.716105 55.73437 
L 294.987207 55.818218 
L 295.282954 56.179787 
L 295.677284 57.072337 
L 296.194841 58.879781 
L 296.884918 62.20937 
L 297.870742 68.203522 
L 302.109785 95.328737 
L 303.342065 101.170686 
L 304.525054 105.733766 
L 305.757334 109.608118 
L 307.063551 112.984314 
L 308.369768 115.765925 
L 309.503466 117.693108 
L 310.366062 118.752876 
L 311.006847 119.224528 
L 311.54905 119.360707 
L 312.017317 119.257144 
L 312.510229 118.908131 
L 313.052432 118.22533 
L 313.668572 117.054333 
L 314.358649 115.223362 
L 315.122663 112.525479 
L 315.985259 108.600105 
L 316.946437 103.12792 
L 318.080135 95.289534 
L 319.558871 83.348936 
L 322.171304 62.098639 
L 323.083192 56.560296 
L 323.773268 53.571434 
L 324.340117 52.001424 
L 324.783738 51.352549 
L 325.128777 51.198586 
L 325.424524 51.30483 
L 325.769562 51.695558 
L 326.213183 52.594054 
L 326.780032 54.324245 
L 327.5194 57.396669 
L 328.529869 62.666193 
L 330.452226 74.175813 
L 332.423874 85.441494 
L 333.779382 91.93175 
L 334.987017 96.664058 
L 336.120715 100.255566 
L 337.180475 102.913522 
L 338.117008 104.704242 
L 338.979604 105.899632 
L 339.792909 106.659234 
L 340.606214 107.116545 
L 341.493456 107.353162 
L 342.602508 107.402559 
L 344.993131 107.206936 
L 346.545804 107.218716 
L 347.827375 107.446067 
L 349.059655 107.889713 
L 350.365872 108.603958 
L 352.017127 109.785745 
L 354.432396 111.50716 
L 355.516802 111.991773 
L 356.551918 112.21812 
L 357.66097 112.233287 
L 358.770022 112.028808 
L 359.854428 111.602768 
L 360.96348 110.923545 
L 362.097178 109.961147 
L 363.230875 108.698308 
L 364.315282 107.153845 
L 365.350397 105.286187 
L 366.360867 102.982119 
L 367.346691 100.166014 
L 368.381806 96.518397 
L 369.564795 91.477072 
L 371.092822 83.890964 
L 373.951712 69.55487 
L 374.863599 66.159927 
L 375.553676 64.357145 
L 376.095879 63.485372 
L 376.5395 63.149867 
L 376.909184 63.133005 
L 377.278868 63.352239 
L 377.697843 63.877996 
L 378.215401 64.913434 
L 378.856186 66.733386 
L 379.669491 69.761843 
L 380.827835 75.029087 
L 385.091523 95.204415 
L 386.447032 100.242748 
L 387.703957 104.086609 
L 388.886946 107.011241 
L 390.020644 109.24313 
L 391.129696 110.956209 
L 392.263393 112.311061 
L 393.544965 113.490036 
L 395.270157 114.750289 
L 397.784008 116.309964 
L 399.016288 116.836148 
L 400.002112 117.024379 
L 401.012582 116.993602 
L 402.146279 116.729773 
L 403.279977 116.232956 
L 404.339738 115.523808 
L 405.300916 114.615659 
L 406.212803 113.44127 
L 407.100045 111.924189 
L 408.011932 109.900157 
L 408.948465 107.251325 
L 409.934289 103.757011 
L 410.99405 99.126452 
L 412.177039 92.906028 
L 413.729712 83.425804 
L 416.366791 67.225762 
L 417.229387 63.318936 
L 417.894818 61.238171 
L 418.412376 60.281198 
L 418.806705 59.965451 
L 419.127098 59.975747 
L 419.447491 60.222019 
L 419.841821 60.83745 
L 420.334733 62.056785 
L 420.975518 64.287426 
L 421.86276 68.269839 
L 423.563306 77.191008 
L 425.633537 87.639774 
L 426.989045 93.387713 
L 428.196679 97.592057 
L 429.428959 101.096541 
L 430.858404 104.481316 
L 432.854698 108.595543 
L 435.171384 112.889815 
L 436.945868 115.743101 
L 438.399958 117.685107 
L 439.607593 118.955589 
L 440.593417 119.691753 
L 441.382076 120.019111 
L 442.022861 120.061315 
L 442.614356 119.877661 
L 443.181205 119.461036 
L 443.772699 118.73439 
L 444.413485 117.568493 
L 445.128207 115.762652 
L 445.916866 113.121685 
L 446.804108 109.32774 
L 447.814578 103.976133 
L 449.022212 96.307674 
L 450.870632 82.90821 
L 452.792989 69.462778 
L 453.803459 63.874896 
L 454.592118 60.659316 
L 455.232904 58.904963 
L 455.750461 58.077366 
L 456.169436 57.793037 
L 456.514475 57.812059 
L 456.884159 58.077271 
L 457.32778 58.713405 
L 457.869983 59.927915 
L 458.535414 62.005868 
L 459.373364 65.397918 
L 460.482417 70.883089 
L 462.355482 81.467165 
L 464.647523 94.088874 
L 466.003031 100.340271 
L 467.161374 104.693152 
L 468.221135 107.851079 
L 469.206959 110.128211 
L 470.143492 111.758131 
L 471.006088 112.836404 
L 471.819393 113.507613 
L 472.583407 113.859606 
L 473.372066 113.977653 
L 474.259307 113.874778 
L 475.417651 113.496207 
L 479.607403 111.924493 
L 480.91362 111.776972 
L 482.170545 111.859305 
L 483.526053 112.178338 
L 485.84274 113.016898 
L 487.025729 113.300098 
L 487.814388 113.268543 
L 488.455173 113.02702 
L 489.071314 112.547183 
L 489.687454 111.767722 
L 490.352885 110.53542 
L 491.067607 108.71526 
L 491.880912 105.989377 
L 492.792799 102.106371 
L 493.85256 96.562819 
L 495.158777 88.459611 
L 497.598691 71.5329 
L 499.052782 62.338177 
L 500.01396 57.573463 
L 500.777974 54.823919 
L 501.394114 53.348872 
L 501.911672 52.630136 
L 502.330647 52.387397 
L 502.700331 52.413859 
L 503.09466 52.676295 
L 503.562927 53.27778 
L 504.154421 54.437647 
L 504.918435 56.486975 
L 505.928905 59.905162 
L 507.481577 66.045903 
L 511.745266 83.207653 
L 513.421167 88.908169 
L 514.924549 93.257737 
L 516.255411 96.456733 
L 517.4384 98.740743 
L 518.473515 100.287228 
L 519.434694 101.338513 
L 520.346581 102.009652 
L 521.258468 102.407622 
L 522.268938 102.606495 
L 523.649092 102.633642 
L 527.666324 102.604445 
L 529.736555 102.583684 
L 530.747025 102.345702 
L 531.560329 101.924813 
L 532.299697 101.285377 
L 533.01442 100.366157 
L 533.753788 99.039457 
L 534.542447 97.148355 
L 535.429689 94.405493 
L 536.464804 90.424815 
L 537.795666 84.326948 
L 541.02424 69.132593 
L 542.010064 65.745656 
L 542.798723 63.759022 
L 543.464155 62.619907 
L 544.031003 62.037661 
L 544.548561 61.806615 
L 545.016827 61.830329 
L 545.534385 62.093699 
L 546.12588 62.667889 
L 546.840602 63.694187 
L 547.752489 65.419542 
L 549.03406 68.363565 
L 555.540499 84.019695 
L 557.660021 88.29111 
L 559.828834 92.15597 
L 561.578671 94.859305 
L 563.057407 96.748146 
L 564.585435 98.33889 
L 566.212044 99.71346 
L 567.814008 100.781962 
L 569.71172 101.765173 
L 575.25698 104.484532 
L 577.253273 105.443964 
L 578.189806 105.656767 
L 578.904529 105.602393 
L 579.545314 105.328978 
L 580.161454 104.817974 
L 580.80224 103.987589 
L 581.492317 102.714984 
L 582.25633 100.813765 
L 583.094281 98.110092 
L 584.055459 94.225048 
L 585.238448 88.435304 
L 587.210096 77.409894 
L 588.762769 69.278088 
L 589.723947 65.332266 
L 590.487961 63.063719 
L 591.104101 61.860201 
L 591.621659 61.286341 
L 592.06528 61.100661 
L 592.484255 61.168965 
L 592.927876 61.478644 
L 593.470079 62.15358 
L 594.13551 63.363322 
L 594.998106 65.42529 
L 596.230386 69.009011 
L 602.293204 87.490086 
L 603.821231 91.121161 
L 605.176739 93.793549 
L 606.482956 95.89843 
L 607.665945 97.409453 
L 608.725706 98.421482 
L 609.71153 99.061411 
L 610.648063 99.409181 
L 611.658532 99.542367 
L 612.940103 99.466003 
L 614.591359 99.13497 
L 616.341196 98.549968 
L 621.344253 96.462496 
L 622.379369 95.830734 
L 623.168028 95.093641 
L 623.907396 94.08805 
L 624.646764 92.68533 
L 625.435423 90.680604 
L 626.322665 87.77935 
L 627.431717 83.32838 
L 631.646115 65.519756 
L 632.484065 63.274557 
L 633.174142 61.994487 
L 633.740991 61.353831 
L 634.233903 61.104452 
L 634.677523 61.122559 
L 635.14579 61.382623 
L 635.687993 61.97345 
L 636.328779 63.028264 
L 637.166729 64.87798 
L 638.374364 68.150779 
L 642.120495 78.638318 
L 643.673168 82.16298 
L 645.201195 85.087417 
L 646.704577 87.49599 
L 648.134022 89.373958 
L 649.612758 90.94831 
L 651.33795 92.455422 
L 653.260307 93.84105 
L 655.379828 95.091851 
L 658.263363 96.52378 
L 662.42847 98.306385 
L 666.199247 99.925921 
L 669.181365 101.290913 
L 669.994669 101.391464 
L 670.660101 101.260746 
L 671.276241 100.913951 
L 671.917026 100.281364 
L 672.607103 99.262517 
L 673.395762 97.66582 
L 674.30765 95.289662 
L 675.465993 91.603964 
L 677.043311 85.774156 
L 680.666215 72.114288 
L 681.873849 68.553581 
L 682.908964 66.145617 
L 683.796206 64.596768 
L 684.584865 63.642231 
L 685.274942 63.141493 
L 685.866436 62.973794 
L 686.40864 63.047533 
L 686.950843 63.347687 
L 687.566983 63.961451 
L 688.281705 65.013745 
L 689.144301 66.705897 
L 690.253353 69.407039 
L 691.929254 74.151099 
L 695.0346 82.951355 
L 696.513336 86.434301 
L 697.868844 89.070705 
L 699.101124 90.999103 
L 700.160885 92.269825 
L 701.171355 93.14552 
L 702.231115 93.771188 
L 703.118357 94.141388 
L 703.118357 94.141388 
" clip-path="url(#p741dbd4625)" style="fill: none; stroke: #1f77b4; stroke-width: 1.5; stroke-linecap: square"/>
   </g>
   <g id="patch_3">
    <path d="M 61.372788 188.642912 
L 61.372788 8.157838 
" style="fill: none; stroke: #000000; stroke-width: 0.8; stroke-linejoin: miter; stroke-linecap: square"/>
   </g>
   <g id="patch_4">
    <path d="M 733.67767 188.642912 
L 733.67767 8.157838 
" style="fill: none; stroke: #000000; stroke-width: 0.8; stroke-linejoin: miter; stroke-linecap: square"/>
   </g>
   <g id="patch_5">
    <path d="M 61.372788 188.642912 
L 733.67767 188.642912 
" style="fill: none; stroke: #000000; stroke-width: 0.8; stroke-linejoin: miter; stroke-linecap: square"/>
   </g>
   <g id="patch_6">
    <path d="M 61.372788 8.157838 
L 733.67767 8.157838 
" style="fill: none; stroke: #000000; stroke-width: 0.8; stroke-linejoin: miter; stroke-linecap: square"/>
   </g>
  </g>
  <g id="axes_2">
   <g id="patch_7">
    <path d="M 61.372788 399.242912 
L 733.67767 399.242912 
L 733.67767 218.757838 
L 61.372788 218.757838 
z
" style="fill: #ffffff"/>
   </g>
   <g id="matplotlib.axis_3">
    <g id="xtick_7">
     <g id="line2d_30">
      <path d="M 87.002981 399.242912 
L 87.002981 218.757838 
" clip-path="url(#p83953a2ef2)" style="fill: none; stroke-dasharray: 0.8,1.32; stroke-dashoffset: 0; stroke: #b0b0b0; stroke-width: 0.8"/>
     </g>
     <g id="line2d_31">
      <g>
       <use xlink:href="#m24b0dd00fd" x="87.002981" y="399.242912" style="stroke: #000000; stroke-width: 0.8"/>
      </g>
     </g>
     <g id="text_15">
      <!-- $\mathdefault{0}$ -->
      <g transform="translate(84.512313 413.161411)scale(0.1 -0.1)">
       <use xlink:href="#CMR17-30" transform="scale(0.996264)"/>
      </g>
     </g>
    </g>
    <g id="xtick_8">
     <g id="line2d_32">
      <path d="M 210.230985 399.242912 
L 210.230985 218.757838 
" clip-path="url(#p83953a2ef2)" style="fill: none; stroke-dasharray: 0.8,1.32; stroke-dashoffset: 0; stroke: #b0b0b0; stroke-width: 0.8"/>
     </g>
     <g id="line2d_33">
      <g>
       <use xlink:href="#m24b0dd00fd" x="210.230985" y="399.242912" style="stroke: #000000; stroke-width: 0.8"/>
      </g>
     </g>
     <g id="text_16">
      <!-- $\mathdefault{5}$ -->
      <g transform="translate(207.740318 413.161411)scale(0.1 -0.1)">
       <use xlink:href="#CMR17-35" transform="scale(0.996264)"/>
      </g>
     </g>
    </g>
    <g id="xtick_9">
     <g id="line2d_34">
      <path d="M 333.45899 399.242912 
L 333.45899 218.757838 
" clip-path="url(#p83953a2ef2)" style="fill: none; stroke-dasharray: 0.8,1.32; stroke-dashoffset: 0; stroke: #b0b0b0; stroke-width: 0.8"/>
     </g>
     <g id="line2d_35">
      <g>
       <use xlink:href="#m24b0dd00fd" x="333.45899" y="399.242912" style="stroke: #000000; stroke-width: 0.8"/>
      </g>
     </g>
     <g id="text_17">
      <!-- $\mathdefault{10}$ -->
      <g transform="translate(328.477654 413.161411)scale(0.1 -0.1)">
       <use xlink:href="#CMR17-31" transform="scale(0.996264)"/>
       <use xlink:href="#CMR17-30" transform="translate(45.690477 0)scale(0.996264)"/>
      </g>
     </g>
    </g>
    <g id="xtick_10">
     <g id="line2d_36">
      <path d="M 456.686994 399.242912 
L 456.686994 218.757838 
" clip-path="url(#p83953a2ef2)" style="fill: none; stroke-dasharray: 0.8,1.32; stroke-dashoffset: 0; stroke: #b0b0b0; stroke-width: 0.8"/>
     </g>
     <g id="line2d_37">
      <g>
       <use xlink:href="#m24b0dd00fd" x="456.686994" y="399.242912" style="stroke: #000000; stroke-width: 0.8"/>
      </g>
     </g>
     <g id="text_18">
      <!-- $\mathdefault{15}$ -->
      <g transform="translate(451.705659 413.161411)scale(0.1 -0.1)">
       <use xlink:href="#CMR17-31" transform="scale(0.996264)"/>
       <use xlink:href="#CMR17-35" transform="translate(45.690477 0)scale(0.996264)"/>
      </g>
     </g>
    </g>
    <g id="xtick_11">
     <g id="line2d_38">
      <path d="M 579.914998 399.242912 
L 579.914998 218.757838 
" clip-path="url(#p83953a2ef2)" style="fill: none; stroke-dasharray: 0.8,1.32; stroke-dashoffset: 0; stroke: #b0b0b0; stroke-width: 0.8"/>
     </g>
     <g id="line2d_39">
      <g>
       <use xlink:href="#m24b0dd00fd" x="579.914998" y="399.242912" style="stroke: #000000; stroke-width: 0.8"/>
      </g>
     </g>
     <g id="text_19">
      <!-- $\mathdefault{20}$ -->
      <g transform="translate(574.933663 413.161411)scale(0.1 -0.1)">
       <use xlink:href="#CMR17-32" transform="scale(0.996264)"/>
       <use xlink:href="#CMR17-30" transform="translate(45.690477 0)scale(0.996264)"/>
      </g>
     </g>
    </g>
    <g id="xtick_12">
     <g id="line2d_40">
      <path d="M 703.143003 399.242912 
L 703.143003 218.757838 
" clip-path="url(#p83953a2ef2)" style="fill: none; stroke-dasharray: 0.8,1.32; stroke-dashoffset: 0; stroke: #b0b0b0; stroke-width: 0.8"/>
     </g>
     <g id="line2d_41">
      <g>
       <use xlink:href="#m24b0dd00fd" x="703.143003" y="399.242912" style="stroke: #000000; stroke-width: 0.8"/>
      </g>
     </g>
     <g id="text_20">
      <!-- $\mathdefault{25}$ -->
      <g transform="translate(698.161667 413.161411)scale(0.1 -0.1)">
       <use xlink:href="#CMR17-32" transform="scale(0.996264)"/>
       <use xlink:href="#CMR17-35" transform="translate(45.690477 0)scale(0.996264)"/>
      </g>
     </g>
    </g>
    <g id="text_21">
     <!-- $t U_{\infty} / H_{box}$ -->
     <g transform="translate(357.128203 434.042549)scale(0.2 -0.2)">
      <defs>
       <path id="CMMI12-74" d="M 1286 2566 
L 1875 2566 
C 1997 2566 2061 2566 2061 2681 
C 2061 2752 2022 2752 1894 2752 
L 1331 2752 
L 1568 3692 
C 1594 3781 1594 3794 1594 3840 
C 1594 3943 1510 4000 1427 4000 
C 1376 4000 1229 3981 1178 3775 
L 928 2752 
L 326 2752 
C 198 2752 141 2752 141 2630 
C 141 2566 186 2566 307 2566 
L 877 2566 
L 454 881 
C 403 658 384 594 384 511 
C 384 211 595 -64 954 -64 
C 1600 -64 1946 868 1946 912 
C 1946 951 1920 970 1882 970 
C 1869 970 1843 970 1830 944 
C 1824 938 1818 931 1773 829 
C 1638 511 1344 64 973 64 
C 781 64 768 224 768 364 
C 768 370 768 492 787 568 
L 1286 2566 
z
" transform="scale(0.015625)"/>
       <path id="CMMI12-55" d="M 3238 1474 
C 3014 581 2272 57 1670 57 
C 1210 57 896 363 896 891 
C 896 916 896 1107 966 1387 
L 1594 3887 
C 1651 4103 1664 4167 2118 4167 
C 2234 4167 2298 4167 2298 4282 
C 2298 4352 2240 4352 2202 4352 
C 2086 4352 1952 4352 1830 4352 
L 1075 4352 
C 954 4352 819 4352 698 4352 
C 653 4352 576 4352 576 4231 
C 576 4167 621 4167 742 4167 
C 1126 4167 1126 4116 1126 4046 
C 1126 4008 1082 3824 1050 3715 
L 493 1488 
C 474 1418 435 1246 435 1075 
C 435 374 941 -128 1638 -128 
C 2285 -128 3002 384 3328 1197 
C 3373 1305 3430 1530 3469 1702 
C 3533 1933 3667 2496 3712 2662 
L 3955 3623 
C 4038 3956 4090 4167 4653 4167 
C 4704 4173 4730 4224 4730 4282 
C 4730 4352 4672 4352 4646 4352 
C 4557 4352 4442 4352 4352 4352 
L 4051 4352 
C 3654 4352 3450 4352 3443 4352 
C 3405 4352 3328 4352 3328 4231 
C 3328 4167 3379 4167 3424 4167 
C 3808 4167 3834 4020 3834 3905 
C 3834 3848 3834 3828 3808 3739 
L 3238 1474 
z
" transform="scale(0.015625)"/>
       <path id="CMSY10-31" d="M 3251 1730 
C 2906 2166 2829 2262 2630 2422 
C 2272 2710 1914 2825 1587 2825 
C 838 2825 352 2122 352 1374 
C 352 639 826 -70 1562 -70 
C 2298 -70 2829 511 3142 1022 
C 3488 588 3565 492 3763 332 
C 4122 45 4480 -70 4806 -70 
C 5555 -70 6042 633 6042 1380 
C 6042 2115 5568 2825 4832 2825 
C 4096 2825 3565 2242 3251 1730 
z
M 3418 1514 
C 3680 1975 4154 2620 4877 2620 
C 5555 2620 5901 1955 5901 1380 
C 5901 753 5472 236 4909 236 
C 4538 236 4250 505 4115 638 
C 3955 811 3808 1009 3418 1514 
z
M 2976 1240 
C 2714 780 2240 134 1517 134 
C 838 134 493 799 493 1374 
C 493 2000 922 2518 1485 2518 
C 1856 2518 2144 2249 2278 2115 
C 2438 1943 2586 1744 2976 1240 
z
" transform="scale(0.015625)"/>
       <path id="CMMI12-3d" d="M 2746 4562 
C 2746 4569 2784 4666 2784 4678 
C 2784 4755 2720 4800 2669 4800 
C 2637 4800 2579 4800 2528 4659 
L 384 -1363 
C 384 -1370 346 -1465 346 -1478 
C 346 -1555 410 -1600 461 -1600 
C 499 -1600 557 -1593 602 -1459 
L 2746 4562 
z
" transform="scale(0.015625)"/>
       <path id="CMMI12-48" d="M 4787 3887 
C 4845 4103 4858 4167 5312 4167 
C 5427 4167 5491 4167 5491 4282 
C 5491 4352 5434 4352 5395 4352 
C 5280 4352 5146 4352 5024 4352 
L 4269 4352 
C 4147 4352 4013 4352 3891 4352 
C 3846 4352 3770 4352 3770 4231 
C 3770 4167 3814 4167 3936 4167 
C 4320 4167 4320 4116 4320 4046 
C 4320 4034 4320 3995 4294 3900 
L 3904 2361 
L 1971 2361 
L 2355 3887 
C 2413 4103 2426 4167 2880 4167 
C 2995 4167 3059 4167 3059 4282 
C 3059 4352 3002 4352 2963 4352 
C 2848 4352 2714 4352 2592 4352 
L 1837 4352 
C 1715 4352 1581 4352 1459 4352 
C 1414 4352 1338 4352 1338 4231 
C 1338 4167 1382 4167 1504 4167 
C 1888 4167 1888 4116 1888 4046 
C 1888 4034 1888 3995 1862 3899 
L 998 472 
C 941 249 928 185 486 185 
C 339 185 294 185 294 64 
C 294 0 365 0 384 0 
C 499 0 634 0 755 0 
L 1510 0 
C 1632 0 1766 0 1888 0 
C 1939 0 2010 0 2010 121 
C 2010 185 1952 185 1856 185 
C 1466 185 1466 236 1466 300 
C 1466 307 1466 351 1478 402 
L 1920 2176 
L 3859 2176 
C 3750 1753 3424 416 3411 376 
C 3341 185 3238 185 2861 185 
C 2784 185 2726 185 2726 64 
C 2726 0 2797 0 2816 0 
C 2931 0 3066 0 3187 0 
L 3942 0 
C 4064 0 4198 0 4320 0 
C 4371 0 4442 0 4442 121 
C 4442 185 4384 185 4288 185 
C 3898 185 3898 236 3898 300 
C 3898 307 3898 351 3910 402 
L 4787 3887 
z
" transform="scale(0.015625)"/>
       <path id="CMMI12-62" d="M 1478 4257 
C 1485 4283 1498 4321 1498 4352 
C 1498 4416 1434 4416 1421 4416 
C 1414 4416 1184 4393 1069 4377 
C 960 4377 864 4358 749 4358 
C 595 4345 550 4339 550 4224 
C 550 4160 614 4160 678 4160 
C 1005 4160 1005 4103 1005 4040 
C 1005 3996 954 3811 928 3696 
L 774 3085 
C 710 2831 346 1387 320 1272 
C 288 1114 288 1005 288 922 
C 288 274 653 -64 1069 -64 
C 1811 -64 2579 888 2579 1814 
C 2579 2401 2246 2816 1766 2816 
C 1434 2816 1133 2542 1011 2414 
L 1478 4257 
z
M 1075 64 
C 870 64 646 217 646 715 
C 646 926 666 1047 781 1494 
C 800 1577 902 1986 928 2069 
C 941 2120 1318 2689 1754 2689 
C 2035 2689 2163 2408 2163 2076 
C 2163 1769 1984 1047 1824 715 
C 1664 370 1370 64 1075 64 
z
" transform="scale(0.015625)"/>
       <path id="CMMI12-6f" d="M 2918 1756 
C 2918 2363 2522 2816 1939 2816 
C 1094 2816 262 1897 262 996 
C 262 390 659 -64 1242 -64 
C 2093 -64 2918 856 2918 1756 
z
M 1248 64 
C 928 64 691 319 691 766 
C 691 1060 845 1712 1024 2031 
C 1312 2523 1670 2689 1933 2689 
C 2246 2689 2490 2433 2490 1986 
C 2490 1731 2355 1047 2112 658 
C 1850 230 1498 64 1248 64 
z
" transform="scale(0.015625)"/>
       <path id="CMMI12-78" d="M 3034 2606 
C 2829 2567 2752 2414 2752 2293 
C 2752 2139 2874 2088 2963 2088 
C 3155 2088 3290 2254 3290 2427 
C 3290 2695 2982 2816 2714 2816 
C 2323 2816 2106 2433 2048 2312 
C 1901 2816 1504 2816 1389 2816 
C 736 2816 390 1980 390 1839 
C 390 1814 416 1782 461 1782 
C 512 1782 525 1820 538 1846 
C 755 2555 1184 2689 1370 2689 
C 1658 2689 1715 2420 1715 2267 
C 1715 2127 1677 1980 1600 1673 
L 1382 798 
C 1286 415 1101 64 762 64 
C 730 64 570 64 435 147 
C 666 192 717 383 717 460 
C 717 588 621 664 499 664 
C 346 664 179 530 179 326 
C 179 57 480 -64 755 -64 
C 1062 -64 1280 179 1414 441 
C 1517 64 1837 -64 2074 -64 
C 2726 -64 3072 773 3072 913 
C 3072 945 3046 971 3008 971 
C 2950 971 2944 939 2925 888 
C 2752 326 2381 64 2093 64 
C 1869 64 1747 230 1747 492 
C 1747 632 1773 734 1875 1156 
L 2099 2024 
C 2195 2408 2413 2689 2707 2689 
C 2720 2689 2899 2689 3034 2606 
z
" transform="scale(0.015625)"/>
      </defs>
      <use xlink:href="#CMMI12-74" transform="scale(0.996264)"/>
      <use xlink:href="#CMMI12-55" transform="translate(35.22633 0)scale(0.996264)"/>
      <use xlink:href="#CMSY10-31" transform="translate(101.478449 -14.943915)scale(0.697382)"/>
      <use xlink:href="#CMMI12-3d" transform="translate(171.714956 0)scale(0.996264)"/>
      <use xlink:href="#CMMI12-48" transform="translate(220.489874 0)scale(0.996264)"/>
      <use xlink:href="#CMMI12-62" transform="translate(301.314711 -14.943915)scale(0.697382)"/>
      <use xlink:href="#CMMI12-6f" transform="translate(330.347698 -14.943915)scale(0.697382)"/>
      <use xlink:href="#CMMI12-78" transform="translate(363.17426 -14.943915)scale(0.697382)"/>
     </g>
    </g>
   </g>
   <g id="matplotlib.axis_4">
    <g id="ytick_8">
     <g id="line2d_42">
      <path d="M 61.372788 377.936474 
L 733.67767 377.936474 
" clip-path="url(#p83953a2ef2)" style="fill: none; stroke-dasharray: 0.8,1.32; stroke-dashoffset: 0; stroke: #b0b0b0; stroke-width: 0.8"/>
     </g>
     <g id="line2d_43">
      <g>
       <use xlink:href="#me7c835c987" x="61.372788" y="377.936474" style="stroke: #000000; stroke-width: 0.8"/>
      </g>
     </g>
     <g id="text_22">
      <!-- $\mathdefault{0.75}$ -->
      <g transform="translate(28.91263 381.395723)scale(0.1 -0.1)">
       <defs>
        <path id="CMSY10-0" d="M 4218 1472 
C 4326 1472 4442 1472 4442 1600 
C 4442 1728 4326 1728 4218 1728 
L 755 1728 
C 646 1728 531 1728 531 1600 
C 531 1472 646 1472 755 1472 
L 4218 1472 
z
" transform="scale(0.015625)"/>
        <path id="CMR17-37" d="M 2886 3941 
L 2886 4081 
L 1382 4081 
C 634 4081 621 4165 595 4288 
L 480 4288 
L 294 3094 
L 410 3094 
C 429 3215 474 3540 550 3661 
C 589 3712 1062 3712 1171 3712 
L 2579 3712 
L 1869 2661 
C 1395 1954 1069 999 1069 165 
C 1069 89 1069 -128 1299 -128 
C 1530 -128 1530 89 1530 171 
L 1530 465 
C 1530 1508 1709 2196 2003 2636 
L 2886 3941 
z
" transform="scale(0.015625)"/>
       </defs>
       <use xlink:href="#CMSY10-0" transform="scale(0.996264)"/>
       <use xlink:href="#CMR17-30" transform="translate(77.487468 0)scale(0.996264)"/>
       <use xlink:href="#CMMI12-3a" transform="translate(123.177945 0)scale(0.996264)"/>
       <use xlink:href="#CMR17-37" transform="translate(150.275122 0)scale(0.996264)"/>
       <use xlink:href="#CMR17-35" transform="translate(195.965599 0)scale(0.996264)"/>
      </g>
     </g>
    </g>
    <g id="ytick_9">
     <g id="line2d_44">
      <path d="M 61.372788 355.898166 
L 733.67767 355.898166 
" clip-path="url(#p83953a2ef2)" style="fill: none; stroke-dasharray: 0.8,1.32; stroke-dashoffset: 0; stroke: #b0b0b0; stroke-width: 0.8"/>
     </g>
     <g id="line2d_45">
      <g>
       <use xlink:href="#me7c835c987" x="61.372788" y="355.898166" style="stroke: #000000; stroke-width: 0.8"/>
      </g>
     </g>
     <g id="text_23">
      <!-- $\mathdefault{0.50}$ -->
      <g transform="translate(28.91263 359.357415)scale(0.1 -0.1)">
       <use xlink:href="#CMSY10-0" transform="scale(0.996264)"/>
       <use xlink:href="#CMR17-30" transform="translate(77.487468 0)scale(0.996264)"/>
       <use xlink:href="#CMMI12-3a" transform="translate(123.177945 0)scale(0.996264)"/>
       <use xlink:href="#CMR17-35" transform="translate(150.275122 0)scale(0.996264)"/>
       <use xlink:href="#CMR17-30" transform="translate(195.965599 0)scale(0.996264)"/>
      </g>
     </g>
    </g>
    <g id="ytick_10">
     <g id="line2d_46">
      <path d="M 61.372788 333.859858 
L 733.67767 333.859858 
" clip-path="url(#p83953a2ef2)" style="fill: none; stroke-dasharray: 0.8,1.32; stroke-dashoffset: 0; stroke: #b0b0b0; stroke-width: 0.8"/>
     </g>
     <g id="line2d_47">
      <g>
       <use xlink:href="#me7c835c987" x="61.372788" y="333.859858" style="stroke: #000000; stroke-width: 0.8"/>
      </g>
     </g>
     <g id="text_24">
      <!-- $\mathdefault{0.25}$ -->
      <g transform="translate(28.91263 337.319107)scale(0.1 -0.1)">
       <use xlink:href="#CMSY10-0" transform="scale(0.996264)"/>
       <use xlink:href="#CMR17-30" transform="translate(77.487468 0)scale(0.996264)"/>
       <use xlink:href="#CMMI12-3a" transform="translate(123.177945 0)scale(0.996264)"/>
       <use xlink:href="#CMR17-32" transform="translate(150.275122 0)scale(0.996264)"/>
       <use xlink:href="#CMR17-35" transform="translate(195.965599 0)scale(0.996264)"/>
      </g>
     </g>
    </g>
    <g id="ytick_11">
     <g id="line2d_48">
      <path d="M 61.372788 311.82155 
L 733.67767 311.82155 
" clip-path="url(#p83953a2ef2)" style="fill: none; stroke-dasharray: 0.8,1.32; stroke-dashoffset: 0; stroke: #b0b0b0; stroke-width: 0.8"/>
     </g>
     <g id="line2d_49">
      <g>
       <use xlink:href="#me7c835c987" x="61.372788" y="311.82155" style="stroke: #000000; stroke-width: 0.8"/>
      </g>
     </g>
     <g id="text_25">
      <!-- $\mathdefault{0.00}$ -->
      <g transform="translate(36.661374 315.280799)scale(0.1 -0.1)">
       <use xlink:href="#CMR17-30" transform="scale(0.996264)"/>
       <use xlink:href="#CMMI12-3a" transform="translate(45.690477 0)scale(0.996264)"/>
       <use xlink:href="#CMR17-30" transform="translate(72.787654 0)scale(0.996264)"/>
       <use xlink:href="#CMR17-30" transform="translate(118.478131 0)scale(0.996264)"/>
      </g>
     </g>
    </g>
    <g id="ytick_12">
     <g id="line2d_50">
      <path d="M 61.372788 289.783242 
L 733.67767 289.783242 
" clip-path="url(#p83953a2ef2)" style="fill: none; stroke-dasharray: 0.8,1.32; stroke-dashoffset: 0; stroke: #b0b0b0; stroke-width: 0.8"/>
     </g>
     <g id="line2d_51">
      <g>
       <use xlink:href="#me7c835c987" x="61.372788" y="289.783242" style="stroke: #000000; stroke-width: 0.8"/>
      </g>
     </g>
     <g id="text_26">
      <!-- $\mathdefault{0.25}$ -->
      <g transform="translate(36.661374 293.242491)scale(0.1 -0.1)">
       <use xlink:href="#CMR17-30" transform="scale(0.996264)"/>
       <use xlink:href="#CMMI12-3a" transform="translate(45.690477 0)scale(0.996264)"/>
       <use xlink:href="#CMR17-32" transform="translate(72.787654 0)scale(0.996264)"/>
       <use xlink:href="#CMR17-35" transform="translate(118.478131 0)scale(0.996264)"/>
      </g>
     </g>
    </g>
    <g id="ytick_13">
     <g id="line2d_52">
      <path d="M 61.372788 267.744934 
L 733.67767 267.744934 
" clip-path="url(#p83953a2ef2)" style="fill: none; stroke-dasharray: 0.8,1.32; stroke-dashoffset: 0; stroke: #b0b0b0; stroke-width: 0.8"/>
     </g>
     <g id="line2d_53">
      <g>
       <use xlink:href="#me7c835c987" x="61.372788" y="267.744934" style="stroke: #000000; stroke-width: 0.8"/>
      </g>
     </g>
     <g id="text_27">
      <!-- $\mathdefault{0.50}$ -->
      <g transform="translate(36.661374 271.204183)scale(0.1 -0.1)">
       <use xlink:href="#CMR17-30" transform="scale(0.996264)"/>
       <use xlink:href="#CMMI12-3a" transform="translate(45.690477 0)scale(0.996264)"/>
       <use xlink:href="#CMR17-35" transform="translate(72.787654 0)scale(0.996264)"/>
       <use xlink:href="#CMR17-30" transform="translate(118.478131 0)scale(0.996264)"/>
      </g>
     </g>
    </g>
    <g id="ytick_14">
     <g id="line2d_54">
      <path d="M 61.372788 245.706626 
L 733.67767 245.706626 
" clip-path="url(#p83953a2ef2)" style="fill: none; stroke-dasharray: 0.8,1.32; stroke-dashoffset: 0; stroke: #b0b0b0; stroke-width: 0.8"/>
     </g>
     <g id="line2d_55">
      <g>
       <use xlink:href="#me7c835c987" x="61.372788" y="245.706626" style="stroke: #000000; stroke-width: 0.8"/>
      </g>
     </g>
     <g id="text_28">
      <!-- $\mathdefault{0.75}$ -->
      <g transform="translate(36.661374 249.165875)scale(0.1 -0.1)">
       <use xlink:href="#CMR17-30" transform="scale(0.996264)"/>
       <use xlink:href="#CMMI12-3a" transform="translate(45.690477 0)scale(0.996264)"/>
       <use xlink:href="#CMR17-37" transform="translate(72.787654 0)scale(0.996264)"/>
       <use xlink:href="#CMR17-35" transform="translate(118.478131 0)scale(0.996264)"/>
      </g>
     </g>
    </g>
    <g id="ytick_15">
     <g id="line2d_56">
      <path d="M 61.372788 223.668317 
L 733.67767 223.668317 
" clip-path="url(#p83953a2ef2)" style="fill: none; stroke-dasharray: 0.8,1.32; stroke-dashoffset: 0; stroke: #b0b0b0; stroke-width: 0.8"/>
     </g>
     <g id="line2d_57">
      <g>
       <use xlink:href="#me7c835c987" x="61.372788" y="223.668317" style="stroke: #000000; stroke-width: 0.8"/>
      </g>
     </g>
     <g id="text_29">
      <!-- $\mathdefault{1.00}$ -->
      <g transform="translate(36.661374 227.127567)scale(0.1 -0.1)">
       <use xlink:href="#CMR17-31" transform="scale(0.996264)"/>
       <use xlink:href="#CMMI12-3a" transform="translate(45.690477 0)scale(0.996264)"/>
       <use xlink:href="#CMR17-30" transform="translate(72.787654 0)scale(0.996264)"/>
       <use xlink:href="#CMR17-30" transform="translate(118.478131 0)scale(0.996264)"/>
      </g>
     </g>
    </g>
    <g id="text_30">
     <!-- $C_l$ -->
     <g transform="translate(21.036997 318.01358)rotate(-90)scale(0.2 -0.2)">
      <defs>
       <path id="CMMI12-6c" d="M 1626 4257 
C 1632 4282 1645 4320 1645 4352 
C 1645 4416 1581 4416 1568 4416 
C 1562 4416 1331 4393 1216 4377 
C 1107 4377 1011 4358 896 4358 
C 742 4345 698 4339 698 4224 
C 698 4160 762 4160 826 4160 
C 1152 4160 1152 4102 1152 4039 
C 1152 4014 1152 4001 1120 3887 
L 326 731 
C 307 661 294 610 294 509 
C 294 191 531 -64 858 -64 
C 1069 -64 1210 76 1312 274 
C 1421 483 1510 884 1510 909 
C 1510 941 1485 967 1446 967 
C 1389 967 1382 935 1357 840 
C 1242 401 1126 64 870 64 
C 678 64 678 267 678 357 
C 678 382 678 515 723 694 
L 1626 4257 
z
" transform="scale(0.015625)"/>
      </defs>
      <use xlink:href="#CMMI12-43" transform="scale(0.996264)"/>
      <use xlink:href="#CMMI12-6c" transform="translate(69.792037 -14.943915)scale(0.697382)"/>
     </g>
    </g>
   </g>
   <g id="line2d_58">
    <path d="M 91.932101 311.82121 
L 188.247109 311.743448 
L 206.608082 311.438448 
L 214.075699 311.294012 
L 222.775596 311.189495 
L 229.972112 311.031316 
L 238.450198 310.895981 
L 246.287499 310.505978 
L 249.244971 310.449125 
L 261.91281 310.780652 
L 265.831461 310.782003 
L 267.926337 310.53387 
L 273.077268 309.800707 
L 276.995918 309.641921 
L 280.889923 309.401454 
L 288.258958 308.836496 
L 290.945328 308.929257 
L 293.508471 308.971608 
L 295.578701 308.760753 
L 297.501058 308.325183 
L 300.138137 307.756632 
L 302.430178 307.505427 
L 318.203363 306.547086 
L 320.396821 306.768488 
L 325.252005 307.399532 
L 327.026488 307.257351 
L 331.561278 306.77684 
L 340.433695 306.440262 
L 343.686914 306.624166 
L 349.380048 307.183009 
L 354.235231 307.637312 
L 356.6505 307.581113 
L 362.8119 307.342632 
L 364.684966 307.57488 
L 366.459449 308.020931 
L 368.35716 308.735773 
L 374.321396 311.185765 
L 375.356511 311.252302 
L 376.416272 311.089433 
L 377.77178 310.62939 
L 381.024999 309.462051 
L 382.922711 309.056707 
L 384.426092 308.948884 
L 386.003411 309.075009 
L 388.295452 309.503883 
L 396.798184 311.319693 
L 397.981173 311.248064 
L 399.11487 310.948757 
L 403.403205 309.542475 
L 404.635485 309.513643 
L 406.089575 309.714324 
L 407.592957 310.14245 
L 409.14563 310.828457 
L 412.029165 312.419359 
L 415.380967 314.15824 
L 416.982931 314.754679 
L 418.313793 315.015836 
L 419.472137 315.025061 
L 420.531898 314.814304 
L 421.567013 314.380844 
L 422.676065 313.666534 
L 423.859054 312.636231 
L 424.968106 311.379094 
L 426.077158 309.769347 
L 427.309438 307.569538 
L 429.083921 303.883504 
L 431.400607 299.178631 
L 432.95328 296.546543 
L 434.505953 294.351236 
L 436.305082 292.202695 
L 438.89287 289.498771 
L 441.850342 286.351595 
L 443.156559 284.606822 
L 444.512067 282.393894 
L 446.582298 278.526312 
L 451.585355 268.956811 
L 452.324723 268.187022 
L 452.940863 267.847844 
L 453.483066 267.79474 
L 454.025269 267.971814 
L 454.616764 268.410861 
L 455.356132 269.257017 
L 456.760931 271.298805 
L 457.919274 272.795462 
L 458.757224 273.538355 
L 459.521238 273.932215 
L 460.285252 274.07527 
L 461.098557 273.993402 
L 462.010444 273.666363 
L 462.946977 273.091665 
L 463.858864 272.269901 
L 464.795397 271.112563 
L 465.805866 269.486771 
L 466.988855 267.124934 
L 472.460179 255.511522 
L 473.840332 253.229843 
L 474.875447 251.928437 
L 475.885917 251.010127 
L 476.994969 250.303252 
L 478.202604 249.791567 
L 479.410238 249.51325 
L 480.543936 249.475467 
L 481.579051 249.661215 
L 482.540229 250.057957 
L 483.476762 250.687539 
L 484.437941 251.607427 
L 485.522347 252.96794 
L 488.997377 257.634014 
L 489.76139 258.103906 
L 492.176659 259.311905 
L 492.891382 260.13909 
L 493.63075 261.354609 
L 494.444055 263.142674 
L 495.429879 265.895549 
L 496.760741 270.344969 
L 500.679392 283.946704 
L 501.566633 285.90159 
L 502.47852 287.377337 
L 503.932611 289.216469 
L 505.017017 290.763973 
L 505.904259 292.426746 
L 506.840792 294.680357 
L 507.949844 297.977878 
L 509.625745 303.774792 
L 511.301646 309.357507 
L 512.065659 311.198441 
L 512.632508 312.038921 
L 513.051483 312.31578 
L 513.421167 312.303069 
L 513.790851 312.050201 
L 514.234472 311.442075 
L 514.776675 310.277886 
L 515.442106 308.268961 
L 516.230766 305.120893 
L 517.167299 300.382399 
L 518.374933 292.996542 
L 521.480279 273.41986 
L 522.416811 269.16287 
L 523.180825 266.643582 
L 523.846256 265.168303 
L 524.413105 264.415483 
L 524.906017 264.109882 
L 525.349638 264.090347 
L 525.793259 264.294343 
L 526.310816 264.794445 
L 526.926956 265.734555 
L 527.641679 267.275324 
L 528.430338 269.53403 
L 529.31758 272.792879 
L 530.303404 277.327807 
L 531.412456 283.546665 
L 532.915837 293.408156 
L 535.109296 307.677926 
L 536.242994 313.539782 
L 537.302754 317.886036 
L 538.362515 321.333257 
L 539.39763 323.986035 
L 540.358809 325.871245 
L 541.369279 327.369752 
L 543.119116 329.855656 
L 543.833839 331.376282 
L 544.523915 333.394153 
L 545.263283 336.270875 
L 546.12588 340.565507 
L 547.234932 347.316713 
L 549.132643 360.533492 
L 551.079645 373.540449 
L 552.28728 380.192668 
L 553.248458 384.352716 
L 554.037117 386.868283 
L 554.677903 388.233777 
L 555.170815 388.82569 
L 555.565145 388.989126 
L 555.910183 388.893119 
L 556.279867 388.53236 
L 556.723488 387.736866 
L 557.241046 386.303547 
L 557.881831 383.79557 
L 558.645845 379.840302 
L 559.631669 373.465228 
L 561.011822 362.904841 
L 565.694487 325.81554 
L 566.729602 319.964682 
L 567.567552 316.403623 
L 568.282275 314.26748 
L 568.873769 313.129849 
L 569.366681 312.601016 
L 569.810302 312.432472 
L 570.204632 312.512365 
L 570.648252 312.844546 
L 571.16581 313.535009 
L 571.78195 314.751133 
L 572.521318 316.72992 
L 573.40856 319.783876 
L 574.443675 324.183868 
L 575.700601 330.555981 
L 579.372795 349.963876 
L 580.013581 351.833473 
L 580.481847 352.608111 
L 580.851531 352.835934 
L 581.147278 352.766946 
L 581.467671 352.438636 
L 581.862001 351.676499 
L 582.354913 350.187414 
L 582.971053 347.555591 
L 583.784358 343.015541 
L 585.50955 331.6822 
L 586.791121 324.148475 
L 587.752299 319.749561 
L 588.540959 317.105044 
L 589.181744 315.659748 
L 589.699302 314.988235 
L 590.093631 314.790966 
L 590.43867 314.848679 
L 590.808354 315.153169 
L 591.227329 315.804744 
L 591.744887 317.061681 
L 592.361027 319.20554 
L 593.100395 322.666989 
L 594.012282 328.0961 
L 595.343144 337.552773 
L 599.187858 365.526826 
L 600.986987 376.757354 
L 602.31785 383.78418 
L 603.229737 387.513856 
L 603.895168 389.415259 
L 604.412726 390.315885 
L 604.807055 390.630733 
L 605.127448 390.638279 
L 605.447841 390.415128 
L 605.817525 389.860213 
L 606.261146 388.753845 
L 606.778703 386.820231 
L 607.394843 383.560738 
L 608.08492 378.629676 
L 608.898225 371.123842 
L 609.908695 359.5777 
L 611.362785 340.067697 
L 614.24632 300.992031 
L 615.281436 290.18716 
L 616.119386 283.58592 
L 616.834108 279.578712 
L 617.425603 277.392503 
L 617.918515 276.33246 
L 618.288199 275.974047 
L 618.608592 275.951788 
L 618.928984 276.183049 
L 619.323314 276.792214 
L 619.816226 278.009329 
L 620.457012 280.238318 
L 621.319608 284.124474 
L 622.724407 291.667817 
L 624.523536 301.094923 
L 625.386132 304.500271 
L 626.026918 306.2232 
L 626.51983 306.985723 
L 626.889514 307.204636 
L 627.185261 307.149413 
L 627.505654 306.849217 
L 627.899983 306.124696 
L 628.36825 304.739223 
L 628.935098 302.27987 
L 629.60053 298.287578 
L 630.389189 292.058045 
L 631.375013 282.329807 
L 632.804458 265.716237 
L 634.578941 245.648471 
L 635.564765 236.932867 
L 636.353424 231.80896 
L 636.99421 228.982935 
L 637.487122 227.674697 
L 637.881452 227.181859 
L 638.177199 227.134688 
L 638.4483 227.331948 
L 638.793339 227.909511 
L 639.212314 229.087185 
L 639.754517 231.34828 
L 640.419948 235.164239 
L 641.257899 241.3522 
L 642.440888 251.922372 
L 646.260956 287.249118 
L 647.320717 294.579976 
L 648.158667 298.966966 
L 648.848744 301.504316 
L 649.415593 302.841371 
L 649.883859 303.446414 
L 650.253543 303.613486 
L 650.598582 303.529888 
L 650.968266 303.19217 
L 651.411886 302.46002 
L 651.95409 301.099181 
L 652.594875 298.856854 
L 653.358889 295.325885 
L 654.270776 289.97806 
L 655.429119 281.731828 
L 659.96391 247.841961 
L 661.023671 242.249062 
L 661.886267 238.810478 
L 662.600989 236.79957 
L 663.192484 235.73824 
L 663.66075 235.290854 
L 664.05508 235.182073 
L 664.424764 235.300568 
L 664.843739 235.691616 
L 665.336651 236.50066 
L 665.9035 237.894477 
L 666.568931 240.161532 
L 667.308299 243.505563 
L 668.146249 248.395511 
L 669.082782 255.291976 
L 670.167189 265.042958 
L 671.769153 281.754113 
L 674.874498 314.285411 
L 676.032842 324.041571 
L 676.895438 329.604966 
L 677.536223 332.483266 
L 678.029135 333.800354 
L 678.374174 334.201152 
L 678.62063 334.208883 
L 678.867086 333.977428 
L 679.187479 333.313079 
L 679.581808 331.930563 
L 680.099366 329.200087 
L 680.764797 324.31906 
L 681.652039 315.973281 
L 683.056838 300.356279 
L 685.521398 272.901087 
L 686.457931 264.969218 
L 687.172653 260.61391 
L 687.739502 258.364046 
L 688.183123 257.388075 
L 688.503516 257.118264 
L 688.749972 257.157977 
L 689.021073 257.446617 
L 689.366112 258.176544 
L 689.809733 259.687675 
L 690.376581 262.488788 
L 691.091304 267.233733 
L 692.052482 275.26012 
L 693.506573 289.518271 
L 696.119006 315.206911 
L 697.252704 324.029036 
L 698.139946 329.335473 
L 698.830023 332.282065 
L 699.372226 333.764106 
L 699.791201 334.363768 
L 700.111594 334.486663 
L 700.382695 334.357915 
L 700.703088 333.926969 
L 701.097418 332.979048 
L 701.59033 331.146977 
L 702.181824 328.013386 
L 702.896547 322.915035 
L 703.118357 321.053759 
L 703.118357 321.053759 
" clip-path="url(#p83953a2ef2)" style="fill: none; stroke: #2ca02c; stroke-width: 1.5; stroke-linecap: square"/>
   </g>
   <g id="line2d_59">
    <path d="M 91.932101 311.82147 
L 437.389488 311.707848 
L 450.328429 311.530578 
L 458.338249 311.507105 
L 470.956797 311.110798 
L 489.120605 311.260437 
L 532.644736 311.789187 
L 539.964479 311.731651 
L 543.513446 311.997047 
L 548.738313 312.396887 
L 553.002002 312.43004 
L 560.247809 312.256121 
L 567.419679 312.174621 
L 578.33768 312.08107 
L 584.030814 312.098163 
L 592.582837 312.211657 
L 606.729412 312.127055 
L 615.749702 311.858367 
L 626.026918 311.540692 
L 631.966507 311.464981 
L 649.514175 311.642018 
L 661.836976 311.520037 
L 669.156719 311.421944 
L 673.346471 311.144678 
L 678.694567 310.745812 
L 680.69086 310.870901 
L 682.908964 311.248308 
L 686.753678 311.929768 
L 688.774617 312.013452 
L 691.460988 311.878752 
L 696.611918 311.605756 
L 703.118357 311.43266 
L 703.118357 311.43266 
" clip-path="url(#p83953a2ef2)" style="fill: none; stroke: #ff7f0e; stroke-width: 1.5; stroke-linecap: square"/>
   </g>
   <g id="line2d_60">
    <path d="M 91.932101 311.821129 
L 188.271755 311.742395 
L 206.608082 311.434973 
L 214.075699 311.289229 
L 222.775596 311.18237 
L 229.996757 311.022425 
L 238.474844 310.883999 
L 246.336791 310.491426 
L 249.269617 310.438052 
L 260.902341 310.74118 
L 266.422955 310.717046 
L 268.690351 310.388051 
L 272.436482 309.834138 
L 275.443245 309.667505 
L 280.939214 309.372396 
L 288.234312 308.806757 
L 290.896037 308.89595 
L 293.508471 308.942268 
L 295.554055 308.736566 
L 297.451767 308.307641 
L 300.187428 307.709231 
L 302.479469 307.456309 
L 318.154071 306.496153 
L 320.34753 306.714998 
L 325.301296 307.356551 
L 327.075779 307.208766 
L 331.511987 306.730568 
L 340.211884 306.384334 
L 343.366521 306.549056 
L 348.985718 307.091539 
L 354.333814 307.598731 
L 356.798374 307.534901 
L 362.713318 307.304762 
L 364.611029 307.529553 
L 366.385512 307.964666 
L 368.283224 308.667502 
L 374.419978 311.159647 
L 375.455094 311.206518 
L 376.514854 311.026692 
L 377.944299 310.529725 
L 380.926417 309.468098 
L 382.848774 309.047155 
L 384.352155 308.927739 
L 385.904828 309.041778 
L 388.147578 309.452738 
L 393.125989 310.680204 
L 395.984879 311.242142 
L 397.389678 311.30236 
L 398.49873 311.128711 
L 399.780302 310.683825 
L 402.417381 309.723224 
L 403.698952 309.514529 
L 404.955878 309.541007 
L 406.459259 309.802525 
L 407.937995 310.280983 
L 409.589251 311.066515 
L 416.366791 314.560522 
L 417.77159 314.942433 
L 419.00387 315.053726 
L 420.112922 314.931829 
L 421.148038 314.594239 
L 422.232444 313.997237 
L 423.390787 313.098662 
L 424.54913 311.918608 
L 425.633537 310.48629 
L 426.79188 308.571229 
L 428.221325 305.74545 
L 431.868874 298.323382 
L 433.396901 295.843735 
L 435.023511 293.632903 
L 436.970513 291.375088 
L 442.811521 284.863697 
L 444.117738 282.808836 
L 445.966158 279.424655 
L 448.455363 274.412156 
L 450.673467 270.059016 
L 451.659291 268.590084 
L 452.374014 267.886198 
L 452.965508 267.585539 
L 453.507711 267.549573 
L 454.049915 267.741904 
L 454.666055 268.217619 
L 455.430068 269.11326 
L 458.436832 272.974352 
L 459.200845 273.447355 
L 459.940213 273.651273 
L 460.704227 273.630878 
L 461.566823 273.375231 
L 462.503356 272.861929 
L 463.464534 272.075451 
L 464.401067 271.014447 
L 465.386891 269.548672 
L 466.495943 267.477083 
L 468.048616 264.033736 
L 470.636404 258.351832 
L 472.706635 254.364036 
L 473.988206 252.322806 
L 474.998675 251.107799 
L 476.009145 250.232554 
L 477.142843 249.548307 
L 478.375123 249.065322 
L 479.582757 248.827475 
L 480.691809 248.82992 
L 481.702279 249.048185 
L 482.663457 249.48341 
L 483.59999 250.155695 
L 484.585814 251.15057 
L 485.719512 252.636972 
L 488.800212 256.901235 
L 489.564226 257.452201 
L 490.525404 257.847679 
L 491.60981 258.341987 
L 492.324533 258.93553 
L 493.039255 259.835276 
L 493.803269 261.181141 
L 494.641219 263.134575 
L 495.676335 266.156416 
L 497.105779 271.083784 
L 500.358999 282.594451 
L 501.295532 284.883235 
L 502.182773 286.486112 
L 503.291825 288.00678 
L 504.869144 290.177234 
L 505.781031 291.860817 
L 506.717564 294.083282 
L 507.80197 297.270166 
L 509.354643 302.615437 
L 511.326291 309.286146 
L 512.090305 311.121367 
L 512.632508 311.925885 
L 513.051483 312.210547 
L 513.421167 312.204344 
L 513.790851 311.957673 
L 514.234472 311.356603 
L 514.776675 310.200493 
L 515.442106 308.200674 
L 516.230766 305.062369 
L 517.167299 300.334566 
L 518.374933 292.962459 
L 521.480279 273.424266 
L 522.416811 269.177228 
L 523.180825 266.664429 
L 523.846256 265.19343 
L 524.413105 264.443234 
L 524.906017 264.139178 
L 525.349638 264.120484 
L 525.793259 264.324834 
L 526.310816 264.824778 
L 526.926956 265.763947 
L 527.641679 267.302619 
L 528.430338 269.557687 
L 529.31758 272.8105 
L 530.303404 277.3357 
L 531.412456 283.538805 
L 532.915837 293.369404 
L 535.08465 307.438537 
L 536.218348 313.301383 
L 537.278109 317.657477 
L 538.362515 321.198597 
L 539.422276 323.930596 
L 540.4081 325.885476 
L 541.492507 327.530446 
L 543.020534 329.809656 
L 543.759902 331.394518 
L 544.474624 333.499981 
L 545.238638 336.50694 
L 546.12588 340.98788 
L 547.259577 347.98327 
L 549.305162 362.344041 
L 551.128937 374.452667 
L 552.336571 381.045455 
L 553.297749 385.140656 
L 554.086409 387.591449 
L 554.702549 388.858151 
L 555.195461 389.419111 
L 555.58979 389.555768 
L 555.934829 389.434991 
L 556.304513 389.046554 
L 556.748134 388.216761 
L 557.265691 386.742889 
L 557.906477 384.18586 
L 558.695136 380.031576 
L 559.705606 373.389619 
L 561.110405 362.516149 
L 565.546613 327.121536 
L 566.606374 320.933 
L 567.46897 317.117271 
L 568.183692 314.866538 
L 568.799832 313.59676 
L 569.31739 312.993045 
L 569.761011 312.793065 
L 570.15534 312.846352 
L 570.598961 313.149998 
L 571.116519 313.808781 
L 571.732659 314.989008 
L 572.472027 316.926685 
L 573.359268 319.933417 
L 574.394384 324.280734 
L 575.651309 330.594785 
L 579.422086 350.381796 
L 580.038226 352.124954 
L 580.506493 352.868799 
L 580.851531 353.069739 
L 581.147278 353.000764 
L 581.467671 352.67339 
L 581.862001 351.913764 
L 582.354913 350.42996 
L 582.971053 347.808001 
L 583.784358 343.28586 
L 585.534195 331.841803 
L 586.791121 324.498888 
L 587.752299 320.119159 
L 588.540959 317.48525 
L 589.181744 316.045009 
L 589.699302 315.37578 
L 590.093631 315.179492 
L 590.43867 315.237682 
L 590.808354 315.542406 
L 591.227329 316.194045 
L 591.744887 317.451023 
L 592.361027 319.595304 
L 593.100395 323.058455 
L 594.012282 328.492398 
L 595.343144 337.963067 
L 599.212504 366.164508 
L 600.986987 377.230793 
L 602.293204 384.12373 
L 603.205091 387.86245 
L 603.895168 389.828562 
L 604.412726 390.71201 
L 604.807055 391.012828 
L 605.127448 391.008454 
L 605.447841 390.772972 
L 605.817525 390.203386 
L 606.261146 389.078905 
L 606.778703 387.123659 
L 607.394843 383.838097 
L 608.08492 378.878028 
L 608.898225 371.339203 
L 609.908695 359.755278 
L 611.362785 340.199149 
L 614.221675 301.347219 
L 615.25679 290.458205 
L 616.09474 283.780676 
L 616.809463 279.70597 
L 617.400957 277.463323 
L 617.893869 276.356472 
L 618.288199 275.950176 
L 618.608592 275.918651 
L 618.928984 276.140299 
L 619.323314 276.737196 
L 619.816226 277.938378 
L 620.457012 280.145876 
L 621.319608 284.002236 
L 622.699761 291.359996 
L 624.523536 300.862783 
L 625.386132 304.239875 
L 626.026918 305.942342 
L 626.51983 306.689591 
L 626.889514 306.897444 
L 627.185261 306.833701 
L 627.505654 306.524696 
L 627.899983 305.790082 
L 628.36825 304.393967 
L 628.935098 301.924118 
L 629.60053 297.923379 
L 630.389189 291.689697 
L 631.375013 281.965586 
L 632.804458 265.377203 
L 634.578941 245.368239 
L 635.564765 236.691759 
L 636.353424 231.598345 
L 636.99421 228.794749 
L 637.487122 227.501566 
L 637.856806 227.034898 
L 638.152553 226.971621 
L 638.423655 227.15362 
L 638.744048 227.659576 
L 639.163023 228.7828 
L 639.68058 230.859294 
L 640.321366 234.403627 
L 641.134671 240.236555 
L 642.268369 250.174137 
L 646.482766 288.797059 
L 647.493236 295.44916 
L 648.306541 299.436966 
L 648.971972 301.682581 
L 649.514175 302.82636 
L 649.957796 303.313446 
L 650.32748 303.419562 
L 650.672518 303.280596 
L 651.066848 302.850036 
L 651.535114 301.975958 
L 652.101963 300.411446 
L 652.79204 297.789671 
L 653.605345 293.738636 
L 654.566523 287.733815 
L 655.848095 278.181863 
L 659.323124 251.548662 
L 660.506113 244.501076 
L 661.442646 240.143315 
L 662.231305 237.440805 
L 662.896736 235.899273 
L 663.43894 235.158551 
L 663.88256 234.897634 
L 664.27689 234.924024 
L 664.67122 235.191697 
L 665.114841 235.780675 
L 665.657044 236.913069 
L 666.297829 238.83131 
L 667.012552 241.72473 
L 667.801211 245.881889 
L 668.688453 251.822509 
L 669.698922 260.199588 
L 671.005139 273.073078 
L 675.465993 318.656505 
L 676.476463 326.134013 
L 677.240476 330.271002 
L 677.807325 332.249813 
L 678.2263 333.010783 
L 678.522047 333.158057 
L 678.768503 333.023921 
L 679.064251 332.547881 
L 679.433935 331.465641 
L 679.902201 329.331274 
L 680.493695 325.503601 
L 681.282355 318.786155 
L 682.440698 306.76587 
L 685.989664 268.671153 
L 686.802969 262.777196 
L 687.443755 259.561094 
L 687.961313 257.972537 
L 688.355642 257.389042 
L 688.626744 257.30408 
L 688.8732 257.448498 
L 689.193593 257.946332 
L 689.587922 259.025725 
L 690.10548 261.181057 
L 690.746265 264.897887 
L 691.584216 271.201361 
L 692.742559 281.780022 
L 696.858374 320.972121 
L 697.819553 327.345005 
L 698.583567 331.077752 
L 699.199707 333.075338 
L 699.667973 333.922676 
L 700.013011 334.15458 
L 700.284113 334.096244 
L 700.57986 333.787317 
L 700.949544 333.037966 
L 701.417811 331.508295 
L 701.984659 328.797079 
L 702.650091 324.447437 
L 703.118357 320.664868 
L 703.118357 320.664868 
" clip-path="url(#p83953a2ef2)" style="fill: none; stroke: #1f77b4; stroke-width: 1.5; stroke-linecap: square"/>
   </g>
   <g id="patch_8">
    <path d="M 61.372788 399.242912 
L 61.372788 218.757838 
" style="fill: none; stroke: #000000; stroke-width: 0.8; stroke-linejoin: miter; stroke-linecap: square"/>
   </g>
   <g id="patch_9">
    <path d="M 733.67767 399.242912 
L 733.67767 218.757838 
" style="fill: none; stroke: #000000; stroke-width: 0.8; stroke-linejoin: miter; stroke-linecap: square"/>
   </g>
   <g id="patch_10">
    <path d="M 61.372788 399.242912 
L 733.67767 399.242912 
" style="fill: none; stroke: #000000; stroke-width: 0.8; stroke-linejoin: miter; stroke-linecap: square"/>
   </g>
   <g id="patch_11">
    <path d="M 61.372788 218.757838 
L 733.67767 218.757838 
" style="fill: none; stroke: #000000; stroke-width: 0.8; stroke-linejoin: miter; stroke-linecap: square"/>
   </g>
   <g id="legend_1">
    <g id="patch_12">
     <path d="M 142.503276 474.634214 
L 656.547182 474.634214 
Q 659.947182 474.634214 659.947182 471.234214 
L 659.947182 449.239927 
Q 659.947182 445.839927 656.547182 445.839927 
L 142.503276 445.839927 
Q 139.103276 445.839927 139.103276 449.239927 
L 139.103276 471.234214 
Q 139.103276 474.634214 142.503276 474.634214 
z
" style="fill: #4c4c4c; opacity: 0.5; stroke: #4c4c4c; stroke-linejoin: miter"/>
    </g>
    <g id="patch_13">
     <path d="M 140.503276 472.634214 
L 654.547182 472.634214 
Q 657.947182 472.634214 657.947182 469.234214 
L 657.947182 447.239927 
Q 657.947182 443.839927 654.547182 443.839927 
L 140.503276 443.839927 
Q 137.103276 443.839927 137.103276 447.239927 
L 137.103276 469.234214 
Q 137.103276 472.634214 140.503276 472.634214 
z
" style="fill: #ffffff; stroke: #cccccc; stroke-linejoin: miter"/>
    </g>
    <g id="line2d_61">
     <path d="M 143.903276 456.589927 
L 160.903276 456.589927 
L 177.903276 456.589927 
" style="fill: none; stroke: #2ca02c; stroke-width: 1.5; stroke-linecap: square"/>
    </g>
    <g id="text_31">
     <!-- Pressure -->
     <g transform="translate(191.503276 462.539927)scale(0.17 -0.17)">
      <defs>
       <path id="CMR17-50" d="M 1267 2042 
L 2291 2042 
C 3117 2042 3718 2578 3718 3184 
C 3718 3791 3130 4352 2291 4352 
L 333 4352 
L 333 4186 
C 774 4186 845 4186 845 3899 
L 845 446 
C 845 160 774 160 333 160 
L 333 0 
C 518 0 858 0 1056 0 
C 1254 0 1594 0 1779 0 
L 1779 160 
C 1338 160 1267 160 1267 446 
L 1267 2042 
z
M 1254 2176 
L 1254 3938 
C 1254 4155 1267 4186 1523 4186 
L 2170 4186 
C 2995 4186 3232 3714 3232 3184 
C 3232 2604 2950 2176 2170 2176 
L 1254 2176 
z
" transform="scale(0.015625)"/>
       <path id="CMR17-72" d="M 960 1497 
C 960 2112 1222 2688 1702 2688 
C 1747 2688 1792 2682 1837 2662 
C 1837 2662 1696 2617 1696 2452 
C 1696 2298 1818 2234 1914 2234 
C 1990 2234 2131 2279 2131 2458 
C 2131 2663 1926 2790 1709 2790 
C 1222 2790 1011 2317 947 2093 
L 941 2093 
L 941 2790 
L 198 2720 
L 198 2554 
C 576 2554 634 2515 634 2208 
L 634 428 
C 634 184 608 153 198 153 
L 198 -13 
C 352 0 646 0 813 0 
C 998 0 1325 0 1498 -13 
L 1498 153 
C 1037 153 960 153 960 440 
L 960 1497 
z
" transform="scale(0.015625)"/>
       <path id="CMR17-65" d="M 2438 1472 
C 2464 1498 2464 1511 2464 1576 
C 2464 2238 2118 2816 1389 2816 
C 710 2816 173 2169 173 1383 
C 173 551 781 -64 1459 -64 
C 2176 -64 2458 607 2458 740 
C 2458 784 2419 784 2406 784 
C 2362 784 2355 771 2330 696 
C 2189 265 1837 51 1504 51 
C 1229 51 954 203 781 480 
C 582 803 582 1176 582 1472 
L 2438 1472 
z
M 589 1568 
C 634 2505 1126 2714 1382 2714 
C 1818 2714 2112 2297 2118 1568 
L 589 1568 
z
" transform="scale(0.015625)"/>
       <path id="CMR17-73" d="M 1978 2697 
C 1978 2813 1971 2819 1933 2819 
C 1907 2819 1901 2813 1824 2717 
C 1805 2691 1747 2626 1728 2601 
C 1523 2819 1235 2819 1126 2819 
C 416 2819 160 2447 160 2076 
C 160 1498 813 1365 998 1325 
C 1402 1243 1542 1217 1677 1101 
C 1760 1025 1901 884 1901 654 
C 1901 384 1747 38 1158 38 
C 602 38 403 460 288 1021 
C 269 1110 269 1117 218 1117 
C 166 1117 160 1110 160 983 
L 160 63 
C 160 -51 166 -58 205 -58 
C 237 -58 243 -51 275 0 
C 314 57 410 211 448 276 
C 576 103 800 -64 1158 -64 
C 1792 -64 2131 283 2131 784 
C 2131 1112 1958 1285 1875 1362 
C 1683 1561 1459 1606 1190 1657 
C 838 1735 390 1825 390 2217 
C 390 2383 480 2737 1126 2737 
C 1811 2737 1850 2094 1862 1888 
C 1869 1856 1901 1849 1920 1849 
C 1978 1849 1978 1869 1978 1978 
L 1978 2697 
z
" transform="scale(0.015625)"/>
       <path id="CMR17-75" d="M 1882 2693 
L 1882 2528 
C 2259 2528 2317 2489 2317 2186 
L 2317 1032 
C 2317 500 2029 38 1555 38 
C 1030 38 986 348 986 678 
L 986 2763 
L 211 2693 
L 211 2528 
C 467 2528 640 2528 646 2274 
L 646 1058 
C 646 633 646 361 813 183 
C 896 101 1056 -64 1517 -64 
C 2061 -64 2272 377 2323 506 
L 2330 506 
L 2330 -63 
L 3091 -63 
L 3091 128 
C 2714 128 2656 166 2656 473 
L 2656 2763 
L 1882 2693 
z
" transform="scale(0.015625)"/>
      </defs>
      <use xlink:href="#CMR17-50" transform="scale(0.996264)"/>
      <use xlink:href="#CMR17-72" transform="translate(62.586301 0)scale(0.996264)"/>
      <use xlink:href="#CMR17-65" transform="translate(97.867068 0)scale(0.996264)"/>
      <use xlink:href="#CMR17-73" transform="translate(138.352729 0)scale(0.996264)"/>
      <use xlink:href="#CMR17-73" transform="translate(174.154066 0)scale(0.996264)"/>
      <use xlink:href="#CMR17-75" transform="translate(209.955404 0)scale(0.996264)"/>
      <use xlink:href="#CMR17-72" transform="translate(260.850774 0)scale(0.996264)"/>
      <use xlink:href="#CMR17-65" transform="translate(296.131542 0)scale(0.996264)"/>
     </g>
    </g>
    <g id="line2d_62">
     <path d="M 358.155792 456.589927 
L 375.155792 456.589927 
L 392.155792 456.589927 
" style="fill: none; stroke: #ff7f0e; stroke-width: 1.5; stroke-linecap: square"/>
    </g>
    <g id="text_32">
     <!-- Friction -->
     <g transform="translate(405.755792 462.539927)scale(0.17 -0.17)">
      <defs>
       <path id="CMR17-46" d="M 3482 4325 
L 326 4325 
L 326 4160 
C 768 4160 838 4160 838 3874 
L 838 446 
C 838 160 768 160 326 160 
L 326 0 
C 512 0 870 0 1069 0 
C 1331 0 1638 0 1901 0 
L 1901 160 
L 1760 160 
C 1274 160 1261 223 1261 452 
L 1261 2075 
L 1837 2075 
C 2432 2075 2490 1865 2490 1332 
L 2605 1332 
L 2605 2987 
L 2490 2987 
C 2490 2450 2432 2240 1837 2240 
L 1261 2240 
L 1261 3911 
C 1261 4128 1274 4160 1530 4160 
L 2355 4160 
C 3322 4160 3430 3765 3520 2916 
L 3635 2916 
L 3482 4325 
z
" transform="scale(0.015625)"/>
       <path id="CMR17-69" d="M 992 3909 
C 992 4049 877 4170 730 4170 
C 589 4170 467 4056 467 3909 
C 467 3769 582 3648 730 3648 
C 870 3648 992 3763 992 3909 
z
M 243 2706 
L 243 2541 
C 602 2541 653 2502 653 2197 
L 653 427 
C 653 184 627 153 218 153 
L 218 -13 
C 371 0 646 0 806 0 
C 960 0 1222 0 1370 -13 
L 1370 153 
C 992 153 979 191 979 420 
L 979 2776 
L 243 2706 
z
" transform="scale(0.015625)"/>
       <path id="CMR17-63" d="M 2234 2240 
C 2112 2240 1933 2240 1933 2017 
C 1933 1838 2080 1787 2163 1787 
C 2208 1787 2394 1807 2394 2024 
C 2394 2467 1958 2803 1466 2803 
C 787 2803 211 2178 211 1363 
C 211 516 813 -64 1466 -64 
C 2259 -64 2458 677 2458 748 
C 2458 774 2451 793 2406 793 
C 2362 793 2355 787 2330 703 
C 2163 180 1798 51 1523 51 
C 1114 51 621 427 621 1369 
C 621 2338 1094 2688 1472 2688 
C 1722 2688 2093 2573 2234 2240 
z
" transform="scale(0.015625)"/>
       <path id="CMR17-74" d="M 966 2560 
L 1862 2560 
L 1862 2725 
L 966 2725 
L 966 3904 
L 851 3904 
C 838 3245 614 2668 70 2668 
L 70 2560 
L 627 2560 
L 627 771 
C 627 650 627 -64 1370 -64 
C 1747 -64 1965 306 1965 777 
L 1965 1140 
L 1850 1140 
L 1850 783 
C 1850 344 1677 51 1408 51 
C 1222 51 966 178 966 758 
L 966 2560 
z
" transform="scale(0.015625)"/>
       <path id="CMR17-6f" d="M 2758 1356 
C 2758 2176 2163 2816 1466 2816 
C 768 2816 173 2176 173 1356 
C 173 551 768 -64 1466 -64 
C 2163 -64 2758 551 2758 1356 
z
M 1466 51 
C 1165 51 909 230 762 480 
C 602 767 582 1126 582 1408 
C 582 1677 595 2010 762 2298 
C 890 2509 1139 2714 1466 2714 
C 1754 2714 1997 2554 2150 2330 
C 2349 2029 2349 1607 2349 1408 
C 2349 1158 2336 775 2163 467 
C 1984 173 1709 51 1466 51 
z
" transform="scale(0.015625)"/>
       <path id="CMR17-6e" d="M 2656 1933 
C 2656 2259 2592 2790 1837 2790 
C 1331 2790 1069 2400 973 2144 
L 966 2144 
L 966 2790 
L 211 2720 
L 211 2554 
C 589 2554 646 2515 646 2208 
L 646 428 
C 646 184 621 153 211 153 
L 211 -13 
C 365 0 646 0 813 0 
C 979 0 1267 0 1421 -13 
L 1421 153 
C 1011 153 986 178 986 428 
L 986 1658 
C 986 2247 1344 2688 1792 2688 
C 2266 2688 2317 2266 2317 1958 
L 2317 428 
C 2317 184 2291 153 1882 153 
L 1882 -13 
C 2035 0 2317 0 2483 0 
C 2650 0 2938 0 3091 -13 
L 3091 153 
C 2682 153 2656 178 2656 428 
L 2656 1933 
z
" transform="scale(0.015625)"/>
      </defs>
      <use xlink:href="#CMR17-46" transform="scale(0.996264)"/>
      <use xlink:href="#CMR17-72" transform="translate(52.176591 0)scale(0.996264)"/>
      <use xlink:href="#CMR17-69" transform="translate(87.457359 0)scale(0.996264)"/>
      <use xlink:href="#CMR17-63" transform="translate(112.328417 0)scale(0.996264)"/>
      <use xlink:href="#CMR17-74" transform="translate(152.814078 0)scale(0.996264)"/>
      <use xlink:href="#CMR17-69" transform="translate(188.094846 0)scale(0.996264)"/>
      <use xlink:href="#CMR17-6f" transform="translate(212.965904 0)scale(0.996264)"/>
      <use xlink:href="#CMR17-6e" transform="translate(258.656381 0)scale(0.996264)"/>
     </g>
    </g>
    <g id="line2d_63">
     <path d="M 567.807183 456.589927 
L 584.807183 456.589927 
L 601.807183 456.589927 
" style="fill: none; stroke: #1f77b4; stroke-width: 1.5; stroke-linecap: square"/>
    </g>
    <g id="text_33">
     <!-- Total -->
     <g transform="translate(615.407183 462.539927)scale(0.17 -0.17)">
      <defs>
       <path id="CMR17-54" d="M 3981 4326 
L 288 4326 
L 179 2918 
L 294 2918 
C 378 3976 467 4160 1453 4160 
C 1568 4160 1754 4160 1805 4154 
C 1926 4135 1926 4058 1926 3912 
L 1926 459 
C 1926 230 1907 160 1376 160 
L 1197 160 
L 1197 0 
C 1504 0 1824 0 2138 0 
C 2451 0 2771 0 3078 0 
L 3078 160 
L 2899 160 
C 2368 160 2349 230 2349 459 
L 2349 3912 
C 2349 4052 2349 4129 2464 4154 
C 2515 4160 2701 4160 2816 4160 
C 3795 4160 3891 3976 3974 2918 
L 4090 2918 
L 3981 4326 
z
" transform="scale(0.015625)"/>
       <path id="CMR17-61" d="M 2304 1653 
C 2304 2072 2304 2294 2035 2543 
C 1798 2752 1523 2816 1306 2816 
C 800 2816 435 2407 435 1971 
C 435 1728 627 1728 666 1728 
C 749 1728 896 1778 896 1954 
C 896 2112 774 2181 666 2181 
C 640 2181 608 2174 589 2168 
C 723 2592 1069 2714 1293 2714 
C 1613 2714 1965 2429 1965 1885 
L 1965 1600 
C 1587 1600 1133 1549 774 1357 
C 371 1133 256 813 256 570 
C 256 77 832 -64 1171 -64 
C 1523 -64 1850 139 1990 511 
C 2003 233 2182 -18 2464 -18 
C 2598 -18 2938 70 2938 567 
L 2938 920 
L 2822 920 
L 2822 562 
C 2822 178 2650 128 2566 128 
C 2304 128 2304 458 2304 738 
L 2304 1653 
z
M 1965 870 
C 1965 317 1568 38 1216 38 
C 896 38 646 275 646 570 
C 646 761 730 1100 1101 1305 
C 1408 1478 1760 1504 1965 1504 
L 1965 870 
z
" transform="scale(0.015625)"/>
       <path id="CMR17-6c" d="M 979 4396 
L 218 4326 
L 218 4160 
C 595 4160 653 4122 653 3817 
L 653 426 
C 653 184 627 153 218 153 
L 218 -13 
C 371 0 653 0 813 0 
C 979 0 1261 0 1414 -13 
L 1414 153 
C 1005 153 979 178 979 426 
L 979 4396 
z
" transform="scale(0.015625)"/>
      </defs>
      <use xlink:href="#CMR17-54" transform="scale(0.996264)"/>
      <use xlink:href="#CMR17-6f" transform="translate(58.702625 0)scale(0.996264)"/>
      <use xlink:href="#CMR17-74" transform="translate(104.393102 0)scale(0.996264)"/>
      <use xlink:href="#CMR17-61" transform="translate(139.67387 0)scale(0.996264)"/>
      <use xlink:href="#CMR17-6c" transform="translate(185.364347 0)scale(0.996264)"/>
     </g>
    </g>
   </g>
  </g>
 </g>
 <defs>
  <clipPath id="p741dbd4625">
   <rect x="61.372788" y="8.157838" width="672.304882" height="180.485074"/>
  </clipPath>
  <clipPath id="p83953a2ef2">
   <rect x="61.372788" y="218.757838" width="672.304882" height="180.485074"/>
  </clipPath>
 </defs>
</svg>
