<?xml version="1.0" encoding="utf-8" standalone="no"?>
<!DOCTYPE svg PUBLIC "-//W3C//DTD SVG 1.1//EN"
  "http://www.w3.org/Graphics/SVG/1.1/DTD/svg11.dtd">
<svg xmlns:xlink="http://www.w3.org/1999/xlink" width="733.128926pt" height="373.266031pt" viewBox="0 0 733.128926 373.266031" xmlns="http://www.w3.org/2000/svg" version="1.1">
 <metadata>
  <rdf:RDF xmlns:dc="http://purl.org/dc/elements/1.1/" xmlns:cc="http://creativecommons.org/ns#" xmlns:rdf="http://www.w3.org/1999/02/22-rdf-syntax-ns#">
   <cc:Work>
    <dc:type rdf:resource="http://purl.org/dc/dcmitype/StillImage"/>
    <dc:date>2022-05-03T22:25:32.768127</dc:date>
    <dc:format>image/svg+xml</dc:format>
    <dc:creator>
     <cc:Agent>
      <dc:title>Matplotlib v3.5.1, https://matplotlib.org/</dc:title>
     </cc:Agent>
    </dc:creator>
   </cc:Work>
  </rdf:RDF>
 </metadata>
 <defs>
  <style type="text/css">*{stroke-linejoin: round; stroke-linecap: butt}</style>
 </defs>
 <g id="figure_1">
  <g id="patch_1">
   <path d="M 0 373.266031 
L 733.128926 373.266031 
L 733.128926 0 
L 0 0 
z
" style="fill: #ffffff"/>
  </g>
  <g id="axes_1">
   <g id="patch_2">
    <path d="M 53.624045 326.285074 
L 725.928926 326.285074 
L 725.928926 7.2 
L 53.624045 7.2 
z
" style="fill: #ffffff"/>
   </g>
   <g id="matplotlib.axis_1">
    <g id="xtick_1">
     <g id="line2d_1">
      <path d="M 83.163013 326.285074 
L 83.163013 7.2 
" clip-path="url(#p6ce70d4a36)" style="fill: none; stroke-dasharray: 0.8,1.32; stroke-dashoffset: 0; stroke: #b0b0b0; stroke-width: 0.8"/>
     </g>
     <g id="line2d_2">
      <defs>
       <path id="m4fec102103" d="M 0 0 
L 0 3.5 
" style="stroke: #000000; stroke-width: 0.8"/>
      </defs>
      <g>
       <use xlink:href="#m4fec102103" x="83.163013" y="326.285074" style="stroke: #000000; stroke-width: 0.8"/>
      </g>
     </g>
     <g id="text_1">
      <!-- $\mathdefault{0}$ -->
      <g transform="translate(80.672345 340.203572)scale(0.1 -0.1)">
       <defs>
        <path id="CMR17-30" d="M 2688 2025 
C 2688 2416 2682 3080 2413 3591 
C 2176 4039 1798 4198 1466 4198 
C 1158 4198 768 4058 525 3597 
C 269 3118 243 2524 243 2025 
C 243 1661 250 1106 448 619 
C 723 -39 1216 -128 1466 -128 
C 1760 -128 2208 -7 2470 600 
C 2662 1042 2688 1559 2688 2025 
z
M 1466 -26 
C 1056 -26 813 325 723 812 
C 653 1188 653 1738 653 2096 
C 653 2588 653 2997 736 3387 
C 858 3929 1216 4096 1466 4096 
C 1728 4096 2067 3923 2189 3400 
C 2272 3036 2278 2607 2278 2096 
C 2278 1680 2278 1169 2202 792 
C 2067 95 1690 -26 1466 -26 
z
" transform="scale(0.015625)"/>
       </defs>
       <use xlink:href="#CMR17-30" transform="scale(0.996264)"/>
      </g>
     </g>
    </g>
    <g id="xtick_2">
     <g id="line2d_3">
      <path d="M 185.197446 326.285074 
L 185.197446 7.2 
" clip-path="url(#p6ce70d4a36)" style="fill: none; stroke-dasharray: 0.8,1.32; stroke-dashoffset: 0; stroke: #b0b0b0; stroke-width: 0.8"/>
     </g>
     <g id="line2d_4">
      <g>
       <use xlink:href="#m4fec102103" x="185.197446" y="326.285074" style="stroke: #000000; stroke-width: 0.8"/>
      </g>
     </g>
     <g id="text_2">
      <!-- $\mathdefault{10}$ -->
      <g transform="translate(180.216111 340.203572)scale(0.1 -0.1)">
       <defs>
        <path id="CMR17-31" d="M 1702 4058 
C 1702 4192 1696 4192 1606 4192 
C 1357 3916 979 3827 621 3827 
C 602 3827 570 3827 563 3808 
C 557 3795 557 3782 557 3648 
C 755 3648 1088 3686 1344 3839 
L 1344 461 
C 1344 236 1331 160 781 160 
L 589 160 
L 589 0 
C 896 0 1216 0 1523 0 
C 1830 0 2150 0 2458 0 
L 2458 160 
L 2266 160 
C 1715 160 1702 230 1702 458 
L 1702 4058 
z
" transform="scale(0.015625)"/>
       </defs>
       <use xlink:href="#CMR17-31" transform="scale(0.996264)"/>
       <use xlink:href="#CMR17-30" transform="translate(45.690477 0)scale(0.996264)"/>
      </g>
     </g>
    </g>
    <g id="xtick_3">
     <g id="line2d_5">
      <path d="M 287.23188 326.285074 
L 287.23188 7.2 
" clip-path="url(#p6ce70d4a36)" style="fill: none; stroke-dasharray: 0.8,1.32; stroke-dashoffset: 0; stroke: #b0b0b0; stroke-width: 0.8"/>
     </g>
     <g id="line2d_6">
      <g>
       <use xlink:href="#m4fec102103" x="287.23188" y="326.285074" style="stroke: #000000; stroke-width: 0.8"/>
      </g>
     </g>
     <g id="text_3">
      <!-- $\mathdefault{20}$ -->
      <g transform="translate(282.250545 340.203572)scale(0.1 -0.1)">
       <defs>
        <path id="CMR17-32" d="M 2669 989 
L 2554 989 
C 2490 536 2438 459 2413 420 
C 2381 369 1920 369 1830 369 
L 602 369 
C 832 619 1280 1072 1824 1597 
C 2214 1967 2669 2402 2669 3035 
C 2669 3790 2067 4224 1395 4224 
C 691 4224 262 3604 262 3030 
C 262 2780 448 2748 525 2748 
C 589 2748 781 2787 781 3010 
C 781 3207 614 3264 525 3264 
C 486 3264 448 3258 422 3245 
C 544 3790 915 4058 1306 4058 
C 1862 4058 2227 3617 2227 3035 
C 2227 2479 1901 2000 1536 1584 
L 262 146 
L 262 0 
L 2515 0 
L 2669 989 
z
" transform="scale(0.015625)"/>
       </defs>
       <use xlink:href="#CMR17-32" transform="scale(0.996264)"/>
       <use xlink:href="#CMR17-30" transform="translate(45.690477 0)scale(0.996264)"/>
      </g>
     </g>
    </g>
    <g id="xtick_4">
     <g id="line2d_7">
      <path d="M 389.266313 326.285074 
L 389.266313 7.2 
" clip-path="url(#p6ce70d4a36)" style="fill: none; stroke-dasharray: 0.8,1.32; stroke-dashoffset: 0; stroke: #b0b0b0; stroke-width: 0.8"/>
     </g>
     <g id="line2d_8">
      <g>
       <use xlink:href="#m4fec102103" x="389.266313" y="326.285074" style="stroke: #000000; stroke-width: 0.8"/>
      </g>
     </g>
     <g id="text_4">
      <!-- $\mathdefault{30}$ -->
      <g transform="translate(384.284978 340.203572)scale(0.1 -0.1)">
       <defs>
        <path id="CMR17-33" d="M 1414 2157 
C 1984 2157 2234 1662 2234 1090 
C 2234 320 1824 25 1453 25 
C 1114 25 563 194 390 693 
C 422 680 454 680 486 680 
C 640 680 755 782 755 948 
C 755 1133 614 1216 486 1216 
C 378 1216 211 1165 211 926 
C 211 335 787 -128 1466 -128 
C 2176 -128 2720 430 2720 1085 
C 2720 1707 2208 2157 1600 2227 
C 2086 2328 2554 2756 2554 3329 
C 2554 3820 2048 4179 1472 4179 
C 890 4179 378 3829 378 3329 
C 378 3110 544 3072 627 3072 
C 762 3072 877 3155 877 3321 
C 877 3486 762 3569 627 3569 
C 602 3569 570 3569 544 3557 
C 730 3959 1235 4032 1459 4032 
C 1683 4032 2106 3925 2106 3320 
C 2106 3143 2080 2828 1862 2550 
C 1670 2304 1453 2304 1242 2284 
C 1210 2284 1062 2269 1037 2269 
C 992 2263 966 2257 966 2208 
C 966 2163 973 2157 1101 2157 
L 1414 2157 
z
" transform="scale(0.015625)"/>
       </defs>
       <use xlink:href="#CMR17-33" transform="scale(0.996264)"/>
       <use xlink:href="#CMR17-30" transform="translate(45.690477 0)scale(0.996264)"/>
      </g>
     </g>
    </g>
    <g id="xtick_5">
     <g id="line2d_9">
      <path d="M 491.300747 326.285074 
L 491.300747 7.2 
" clip-path="url(#p6ce70d4a36)" style="fill: none; stroke-dasharray: 0.8,1.32; stroke-dashoffset: 0; stroke: #b0b0b0; stroke-width: 0.8"/>
     </g>
     <g id="line2d_10">
      <g>
       <use xlink:href="#m4fec102103" x="491.300747" y="326.285074" style="stroke: #000000; stroke-width: 0.8"/>
      </g>
     </g>
     <g id="text_5">
      <!-- $\mathdefault{40}$ -->
      <g transform="translate(486.319411 340.203572)scale(0.1 -0.1)">
       <defs>
        <path id="CMR17-34" d="M 2150 4122 
C 2150 4256 2144 4256 2029 4256 
L 128 1254 
L 128 1088 
L 1779 1088 
L 1779 457 
C 1779 224 1766 160 1318 160 
L 1197 160 
L 1197 0 
C 1402 0 1747 0 1965 0 
C 2182 0 2528 0 2733 0 
L 2733 160 
L 2611 160 
C 2163 160 2150 224 2150 457 
L 2150 1088 
L 2803 1088 
L 2803 1254 
L 2150 1254 
L 2150 4122 
z
M 1798 3703 
L 1798 1254 
L 256 1254 
L 1798 3703 
z
" transform="scale(0.015625)"/>
       </defs>
       <use xlink:href="#CMR17-34" transform="scale(0.996264)"/>
       <use xlink:href="#CMR17-30" transform="translate(45.690477 0)scale(0.996264)"/>
      </g>
     </g>
    </g>
    <g id="xtick_6">
     <g id="line2d_11">
      <path d="M 593.33518 326.285074 
L 593.33518 7.2 
" clip-path="url(#p6ce70d4a36)" style="fill: none; stroke-dasharray: 0.8,1.32; stroke-dashoffset: 0; stroke: #b0b0b0; stroke-width: 0.8"/>
     </g>
     <g id="line2d_12">
      <g>
       <use xlink:href="#m4fec102103" x="593.33518" y="326.285074" style="stroke: #000000; stroke-width: 0.8"/>
      </g>
     </g>
     <g id="text_6">
      <!-- $\mathdefault{50}$ -->
      <g transform="translate(588.353845 340.203572)scale(0.1 -0.1)">
       <defs>
        <path id="CMR17-35" d="M 730 3692 
C 794 3666 1056 3584 1325 3584 
C 1920 3584 2246 3911 2432 4100 
C 2432 4157 2432 4192 2394 4192 
C 2387 4192 2374 4192 2323 4163 
C 2099 4058 1837 3973 1517 3973 
C 1325 3973 1037 3999 723 4139 
C 653 4171 640 4171 634 4171 
C 602 4171 595 4164 595 4037 
L 595 2203 
C 595 2089 595 2057 659 2057 
C 691 2057 704 2070 736 2114 
C 941 2401 1222 2522 1542 2522 
C 1766 2522 2246 2382 2246 1289 
C 2246 1085 2246 715 2054 421 
C 1894 159 1645 25 1370 25 
C 947 25 518 320 403 814 
C 429 807 480 795 506 795 
C 589 795 749 840 749 1038 
C 749 1210 627 1280 506 1280 
C 358 1280 262 1190 262 1011 
C 262 454 704 -128 1382 -128 
C 2042 -128 2669 440 2669 1264 
C 2669 2030 2170 2624 1549 2624 
C 1222 2624 947 2503 730 2274 
L 730 3692 
z
" transform="scale(0.015625)"/>
       </defs>
       <use xlink:href="#CMR17-35" transform="scale(0.996264)"/>
       <use xlink:href="#CMR17-30" transform="translate(45.690477 0)scale(0.996264)"/>
      </g>
     </g>
    </g>
    <g id="xtick_7">
     <g id="line2d_13">
      <path d="M 695.369613 326.285074 
L 695.369613 7.2 
" clip-path="url(#p6ce70d4a36)" style="fill: none; stroke-dasharray: 0.8,1.32; stroke-dashoffset: 0; stroke: #b0b0b0; stroke-width: 0.8"/>
     </g>
     <g id="line2d_14">
      <g>
       <use xlink:href="#m4fec102103" x="695.369613" y="326.285074" style="stroke: #000000; stroke-width: 0.8"/>
      </g>
     </g>
     <g id="text_7">
      <!-- $\mathdefault{60}$ -->
      <g transform="translate(690.388278 340.203572)scale(0.1 -0.1)">
       <defs>
        <path id="CMR17-36" d="M 678 2176 
C 678 3690 1395 4032 1811 4032 
C 1946 4032 2272 4009 2400 3776 
C 2298 3776 2106 3776 2106 3553 
C 2106 3381 2246 3323 2336 3323 
C 2394 3323 2566 3348 2566 3560 
C 2566 3954 2246 4179 1805 4179 
C 1043 4179 243 3390 243 1984 
C 243 253 966 -128 1478 -128 
C 2099 -128 2688 427 2688 1283 
C 2688 2081 2170 2662 1517 2662 
C 1126 2662 838 2407 678 1960 
L 678 2176 
z
M 1478 25 
C 691 25 691 1200 691 1436 
C 691 1896 909 2560 1504 2560 
C 1613 2560 1926 2560 2138 2120 
C 2253 1870 2253 1609 2253 1289 
C 2253 944 2253 690 2118 434 
C 1978 171 1773 25 1478 25 
z
" transform="scale(0.015625)"/>
       </defs>
       <use xlink:href="#CMR17-36" transform="scale(0.996264)"/>
       <use xlink:href="#CMR17-30" transform="translate(45.690477 0)scale(0.996264)"/>
      </g>
     </g>
    </g>
    <g id="text_8">
     <!-- $t U_{\infty} / H_{box}$ -->
     <g transform="translate(349.379459 361.084711)scale(0.2 -0.2)">
      <defs>
       <path id="CMMI12-74" d="M 1286 2566 
L 1875 2566 
C 1997 2566 2061 2566 2061 2681 
C 2061 2752 2022 2752 1894 2752 
L 1331 2752 
L 1568 3692 
C 1594 3781 1594 3794 1594 3840 
C 1594 3943 1510 4000 1427 4000 
C 1376 4000 1229 3981 1178 3775 
L 928 2752 
L 326 2752 
C 198 2752 141 2752 141 2630 
C 141 2566 186 2566 307 2566 
L 877 2566 
L 454 881 
C 403 658 384 594 384 511 
C 384 211 595 -64 954 -64 
C 1600 -64 1946 868 1946 912 
C 1946 951 1920 970 1882 970 
C 1869 970 1843 970 1830 944 
C 1824 938 1818 931 1773 829 
C 1638 511 1344 64 973 64 
C 781 64 768 224 768 364 
C 768 370 768 492 787 568 
L 1286 2566 
z
" transform="scale(0.015625)"/>
       <path id="CMMI12-55" d="M 3238 1474 
C 3014 581 2272 57 1670 57 
C 1210 57 896 363 896 891 
C 896 916 896 1107 966 1387 
L 1594 3887 
C 1651 4103 1664 4167 2118 4167 
C 2234 4167 2298 4167 2298 4282 
C 2298 4352 2240 4352 2202 4352 
C 2086 4352 1952 4352 1830 4352 
L 1075 4352 
C 954 4352 819 4352 698 4352 
C 653 4352 576 4352 576 4231 
C 576 4167 621 4167 742 4167 
C 1126 4167 1126 4116 1126 4046 
C 1126 4008 1082 3824 1050 3715 
L 493 1488 
C 474 1418 435 1246 435 1075 
C 435 374 941 -128 1638 -128 
C 2285 -128 3002 384 3328 1197 
C 3373 1305 3430 1530 3469 1702 
C 3533 1933 3667 2496 3712 2662 
L 3955 3623 
C 4038 3956 4090 4167 4653 4167 
C 4704 4173 4730 4224 4730 4282 
C 4730 4352 4672 4352 4646 4352 
C 4557 4352 4442 4352 4352 4352 
L 4051 4352 
C 3654 4352 3450 4352 3443 4352 
C 3405 4352 3328 4352 3328 4231 
C 3328 4167 3379 4167 3424 4167 
C 3808 4167 3834 4020 3834 3905 
C 3834 3848 3834 3828 3808 3739 
L 3238 1474 
z
" transform="scale(0.015625)"/>
       <path id="CMSY10-31" d="M 3251 1730 
C 2906 2166 2829 2262 2630 2422 
C 2272 2710 1914 2825 1587 2825 
C 838 2825 352 2122 352 1374 
C 352 639 826 -70 1562 -70 
C 2298 -70 2829 511 3142 1022 
C 3488 588 3565 492 3763 332 
C 4122 45 4480 -70 4806 -70 
C 5555 -70 6042 633 6042 1380 
C 6042 2115 5568 2825 4832 2825 
C 4096 2825 3565 2242 3251 1730 
z
M 3418 1514 
C 3680 1975 4154 2620 4877 2620 
C 5555 2620 5901 1955 5901 1380 
C 5901 753 5472 236 4909 236 
C 4538 236 4250 505 4115 638 
C 3955 811 3808 1009 3418 1514 
z
M 2976 1240 
C 2714 780 2240 134 1517 134 
C 838 134 493 799 493 1374 
C 493 2000 922 2518 1485 2518 
C 1856 2518 2144 2249 2278 2115 
C 2438 1943 2586 1744 2976 1240 
z
" transform="scale(0.015625)"/>
       <path id="CMMI12-3d" d="M 2746 4562 
C 2746 4569 2784 4666 2784 4678 
C 2784 4755 2720 4800 2669 4800 
C 2637 4800 2579 4800 2528 4659 
L 384 -1363 
C 384 -1370 346 -1465 346 -1478 
C 346 -1555 410 -1600 461 -1600 
C 499 -1600 557 -1593 602 -1459 
L 2746 4562 
z
" transform="scale(0.015625)"/>
       <path id="CMMI12-48" d="M 4787 3887 
C 4845 4103 4858 4167 5312 4167 
C 5427 4167 5491 4167 5491 4282 
C 5491 4352 5434 4352 5395 4352 
C 5280 4352 5146 4352 5024 4352 
L 4269 4352 
C 4147 4352 4013 4352 3891 4352 
C 3846 4352 3770 4352 3770 4231 
C 3770 4167 3814 4167 3936 4167 
C 4320 4167 4320 4116 4320 4046 
C 4320 4034 4320 3995 4294 3900 
L 3904 2361 
L 1971 2361 
L 2355 3887 
C 2413 4103 2426 4167 2880 4167 
C 2995 4167 3059 4167 3059 4282 
C 3059 4352 3002 4352 2963 4352 
C 2848 4352 2714 4352 2592 4352 
L 1837 4352 
C 1715 4352 1581 4352 1459 4352 
C 1414 4352 1338 4352 1338 4231 
C 1338 4167 1382 4167 1504 4167 
C 1888 4167 1888 4116 1888 4046 
C 1888 4034 1888 3995 1862 3899 
L 998 472 
C 941 249 928 185 486 185 
C 339 185 294 185 294 64 
C 294 0 365 0 384 0 
C 499 0 634 0 755 0 
L 1510 0 
C 1632 0 1766 0 1888 0 
C 1939 0 2010 0 2010 121 
C 2010 185 1952 185 1856 185 
C 1466 185 1466 236 1466 300 
C 1466 307 1466 351 1478 402 
L 1920 2176 
L 3859 2176 
C 3750 1753 3424 416 3411 376 
C 3341 185 3238 185 2861 185 
C 2784 185 2726 185 2726 64 
C 2726 0 2797 0 2816 0 
C 2931 0 3066 0 3187 0 
L 3942 0 
C 4064 0 4198 0 4320 0 
C 4371 0 4442 0 4442 121 
C 4442 185 4384 185 4288 185 
C 3898 185 3898 236 3898 300 
C 3898 307 3898 351 3910 402 
L 4787 3887 
z
" transform="scale(0.015625)"/>
       <path id="CMMI12-62" d="M 1478 4257 
C 1485 4283 1498 4321 1498 4352 
C 1498 4416 1434 4416 1421 4416 
C 1414 4416 1184 4393 1069 4377 
C 960 4377 864 4358 749 4358 
C 595 4345 550 4339 550 4224 
C 550 4160 614 4160 678 4160 
C 1005 4160 1005 4103 1005 4040 
C 1005 3996 954 3811 928 3696 
L 774 3085 
C 710 2831 346 1387 320 1272 
C 288 1114 288 1005 288 922 
C 288 274 653 -64 1069 -64 
C 1811 -64 2579 888 2579 1814 
C 2579 2401 2246 2816 1766 2816 
C 1434 2816 1133 2542 1011 2414 
L 1478 4257 
z
M 1075 64 
C 870 64 646 217 646 715 
C 646 926 666 1047 781 1494 
C 800 1577 902 1986 928 2069 
C 941 2120 1318 2689 1754 2689 
C 2035 2689 2163 2408 2163 2076 
C 2163 1769 1984 1047 1824 715 
C 1664 370 1370 64 1075 64 
z
" transform="scale(0.015625)"/>
       <path id="CMMI12-6f" d="M 2918 1756 
C 2918 2363 2522 2816 1939 2816 
C 1094 2816 262 1897 262 996 
C 262 390 659 -64 1242 -64 
C 2093 -64 2918 856 2918 1756 
z
M 1248 64 
C 928 64 691 319 691 766 
C 691 1060 845 1712 1024 2031 
C 1312 2523 1670 2689 1933 2689 
C 2246 2689 2490 2433 2490 1986 
C 2490 1731 2355 1047 2112 658 
C 1850 230 1498 64 1248 64 
z
" transform="scale(0.015625)"/>
       <path id="CMMI12-78" d="M 3034 2606 
C 2829 2567 2752 2414 2752 2293 
C 2752 2139 2874 2088 2963 2088 
C 3155 2088 3290 2254 3290 2427 
C 3290 2695 2982 2816 2714 2816 
C 2323 2816 2106 2433 2048 2312 
C 1901 2816 1504 2816 1389 2816 
C 736 2816 390 1980 390 1839 
C 390 1814 416 1782 461 1782 
C 512 1782 525 1820 538 1846 
C 755 2555 1184 2689 1370 2689 
C 1658 2689 1715 2420 1715 2267 
C 1715 2127 1677 1980 1600 1673 
L 1382 798 
C 1286 415 1101 64 762 64 
C 730 64 570 64 435 147 
C 666 192 717 383 717 460 
C 717 588 621 664 499 664 
C 346 664 179 530 179 326 
C 179 57 480 -64 755 -64 
C 1062 -64 1280 179 1414 441 
C 1517 64 1837 -64 2074 -64 
C 2726 -64 3072 773 3072 913 
C 3072 945 3046 971 3008 971 
C 2950 971 2944 939 2925 888 
C 2752 326 2381 64 2093 64 
C 1869 64 1747 230 1747 492 
C 1747 632 1773 734 1875 1156 
L 2099 2024 
C 2195 2408 2413 2689 2707 2689 
C 2720 2689 2899 2689 3034 2606 
z
" transform="scale(0.015625)"/>
      </defs>
      <use xlink:href="#CMMI12-74" transform="scale(0.996264)"/>
      <use xlink:href="#CMMI12-55" transform="translate(35.22633 0)scale(0.996264)"/>
      <use xlink:href="#CMSY10-31" transform="translate(101.478449 -14.943915)scale(0.697382)"/>
      <use xlink:href="#CMMI12-3d" transform="translate(171.714956 0)scale(0.996264)"/>
      <use xlink:href="#CMMI12-48" transform="translate(220.489874 0)scale(0.996264)"/>
      <use xlink:href="#CMMI12-62" transform="translate(301.314711 -14.943915)scale(0.697382)"/>
      <use xlink:href="#CMMI12-6f" transform="translate(330.347698 -14.943915)scale(0.697382)"/>
      <use xlink:href="#CMMI12-78" transform="translate(363.17426 -14.943915)scale(0.697382)"/>
     </g>
    </g>
   </g>
   <g id="matplotlib.axis_2">
    <g id="ytick_1">
     <g id="line2d_15">
      <path d="M 53.624045 315.01422 
L 725.928926 315.01422 
" clip-path="url(#p6ce70d4a36)" style="fill: none; stroke-dasharray: 0.8,1.32; stroke-dashoffset: 0; stroke: #b0b0b0; stroke-width: 0.8"/>
     </g>
     <g id="line2d_16">
      <defs>
       <path id="m1bdba9d72e" d="M 0 0 
L -3.5 0 
" style="stroke: #000000; stroke-width: 0.8"/>
      </defs>
      <g>
       <use xlink:href="#m1bdba9d72e" x="53.624045" y="315.01422" style="stroke: #000000; stroke-width: 0.8"/>
      </g>
     </g>
     <g id="text_9">
      <!-- $\mathdefault{22.5}$ -->
      <g transform="translate(28.91263 318.47347)scale(0.1 -0.1)">
       <defs>
        <path id="CMMI12-3a" d="M 1178 307 
C 1178 492 1024 619 870 619 
C 685 619 557 466 557 313 
C 557 128 710 0 864 0 
C 1050 0 1178 153 1178 307 
z
" transform="scale(0.015625)"/>
       </defs>
       <use xlink:href="#CMR17-32" transform="scale(0.996264)"/>
       <use xlink:href="#CMR17-32" transform="translate(45.690477 0)scale(0.996264)"/>
       <use xlink:href="#CMMI12-3a" transform="translate(91.380954 0)scale(0.996264)"/>
       <use xlink:href="#CMR17-35" transform="translate(118.478131 0)scale(0.996264)"/>
      </g>
     </g>
    </g>
    <g id="ytick_2">
     <g id="line2d_17">
      <path d="M 53.624045 272.930845 
L 725.928926 272.930845 
" clip-path="url(#p6ce70d4a36)" style="fill: none; stroke-dasharray: 0.8,1.32; stroke-dashoffset: 0; stroke: #b0b0b0; stroke-width: 0.8"/>
     </g>
     <g id="line2d_18">
      <g>
       <use xlink:href="#m1bdba9d72e" x="53.624045" y="272.930845" style="stroke: #000000; stroke-width: 0.8"/>
      </g>
     </g>
     <g id="text_10">
      <!-- $\mathdefault{25.0}$ -->
      <g transform="translate(28.91263 276.390094)scale(0.1 -0.1)">
       <use xlink:href="#CMR17-32" transform="scale(0.996264)"/>
       <use xlink:href="#CMR17-35" transform="translate(45.690477 0)scale(0.996264)"/>
       <use xlink:href="#CMMI12-3a" transform="translate(91.380954 0)scale(0.996264)"/>
       <use xlink:href="#CMR17-30" transform="translate(118.478131 0)scale(0.996264)"/>
      </g>
     </g>
    </g>
    <g id="ytick_3">
     <g id="line2d_19">
      <path d="M 53.624045 230.847469 
L 725.928926 230.847469 
" clip-path="url(#p6ce70d4a36)" style="fill: none; stroke-dasharray: 0.8,1.32; stroke-dashoffset: 0; stroke: #b0b0b0; stroke-width: 0.8"/>
     </g>
     <g id="line2d_20">
      <g>
       <use xlink:href="#m1bdba9d72e" x="53.624045" y="230.847469" style="stroke: #000000; stroke-width: 0.8"/>
      </g>
     </g>
     <g id="text_11">
      <!-- $\mathdefault{27.5}$ -->
      <g transform="translate(28.91263 234.306719)scale(0.1 -0.1)">
       <defs>
        <path id="CMR17-37" d="M 2886 3941 
L 2886 4081 
L 1382 4081 
C 634 4081 621 4165 595 4288 
L 480 4288 
L 294 3094 
L 410 3094 
C 429 3215 474 3540 550 3661 
C 589 3712 1062 3712 1171 3712 
L 2579 3712 
L 1869 2661 
C 1395 1954 1069 999 1069 165 
C 1069 89 1069 -128 1299 -128 
C 1530 -128 1530 89 1530 171 
L 1530 465 
C 1530 1508 1709 2196 2003 2636 
L 2886 3941 
z
" transform="scale(0.015625)"/>
       </defs>
       <use xlink:href="#CMR17-32" transform="scale(0.996264)"/>
       <use xlink:href="#CMR17-37" transform="translate(45.690477 0)scale(0.996264)"/>
       <use xlink:href="#CMMI12-3a" transform="translate(91.380954 0)scale(0.996264)"/>
       <use xlink:href="#CMR17-35" transform="translate(118.478131 0)scale(0.996264)"/>
      </g>
     </g>
    </g>
    <g id="ytick_4">
     <g id="line2d_21">
      <path d="M 53.624045 188.764094 
L 725.928926 188.764094 
" clip-path="url(#p6ce70d4a36)" style="fill: none; stroke-dasharray: 0.8,1.32; stroke-dashoffset: 0; stroke: #b0b0b0; stroke-width: 0.8"/>
     </g>
     <g id="line2d_22">
      <g>
       <use xlink:href="#m1bdba9d72e" x="53.624045" y="188.764094" style="stroke: #000000; stroke-width: 0.8"/>
      </g>
     </g>
     <g id="text_12">
      <!-- $\mathdefault{30.0}$ -->
      <g transform="translate(28.91263 192.223343)scale(0.1 -0.1)">
       <use xlink:href="#CMR17-33" transform="scale(0.996264)"/>
       <use xlink:href="#CMR17-30" transform="translate(45.690477 0)scale(0.996264)"/>
       <use xlink:href="#CMMI12-3a" transform="translate(91.380954 0)scale(0.996264)"/>
       <use xlink:href="#CMR17-30" transform="translate(118.478131 0)scale(0.996264)"/>
      </g>
     </g>
    </g>
    <g id="ytick_5">
     <g id="line2d_23">
      <path d="M 53.624045 146.680719 
L 725.928926 146.680719 
" clip-path="url(#p6ce70d4a36)" style="fill: none; stroke-dasharray: 0.8,1.32; stroke-dashoffset: 0; stroke: #b0b0b0; stroke-width: 0.8"/>
     </g>
     <g id="line2d_24">
      <g>
       <use xlink:href="#m1bdba9d72e" x="53.624045" y="146.680719" style="stroke: #000000; stroke-width: 0.8"/>
      </g>
     </g>
     <g id="text_13">
      <!-- $\mathdefault{32.5}$ -->
      <g transform="translate(28.91263 150.139968)scale(0.1 -0.1)">
       <use xlink:href="#CMR17-33" transform="scale(0.996264)"/>
       <use xlink:href="#CMR17-32" transform="translate(45.690477 0)scale(0.996264)"/>
       <use xlink:href="#CMMI12-3a" transform="translate(91.380954 0)scale(0.996264)"/>
       <use xlink:href="#CMR17-35" transform="translate(118.478131 0)scale(0.996264)"/>
      </g>
     </g>
    </g>
    <g id="ytick_6">
     <g id="line2d_25">
      <path d="M 53.624045 104.597343 
L 725.928926 104.597343 
" clip-path="url(#p6ce70d4a36)" style="fill: none; stroke-dasharray: 0.8,1.32; stroke-dashoffset: 0; stroke: #b0b0b0; stroke-width: 0.8"/>
     </g>
     <g id="line2d_26">
      <g>
       <use xlink:href="#m1bdba9d72e" x="53.624045" y="104.597343" style="stroke: #000000; stroke-width: 0.8"/>
      </g>
     </g>
     <g id="text_14">
      <!-- $\mathdefault{35.0}$ -->
      <g transform="translate(28.91263 108.056592)scale(0.1 -0.1)">
       <use xlink:href="#CMR17-33" transform="scale(0.996264)"/>
       <use xlink:href="#CMR17-35" transform="translate(45.690477 0)scale(0.996264)"/>
       <use xlink:href="#CMMI12-3a" transform="translate(91.380954 0)scale(0.996264)"/>
       <use xlink:href="#CMR17-30" transform="translate(118.478131 0)scale(0.996264)"/>
      </g>
     </g>
    </g>
    <g id="ytick_7">
     <g id="line2d_27">
      <path d="M 53.624045 62.513968 
L 725.928926 62.513968 
" clip-path="url(#p6ce70d4a36)" style="fill: none; stroke-dasharray: 0.8,1.32; stroke-dashoffset: 0; stroke: #b0b0b0; stroke-width: 0.8"/>
     </g>
     <g id="line2d_28">
      <g>
       <use xlink:href="#m1bdba9d72e" x="53.624045" y="62.513968" style="stroke: #000000; stroke-width: 0.8"/>
      </g>
     </g>
     <g id="text_15">
      <!-- $\mathdefault{37.5}$ -->
      <g transform="translate(28.91263 65.973217)scale(0.1 -0.1)">
       <use xlink:href="#CMR17-33" transform="scale(0.996264)"/>
       <use xlink:href="#CMR17-37" transform="translate(45.690477 0)scale(0.996264)"/>
       <use xlink:href="#CMMI12-3a" transform="translate(91.380954 0)scale(0.996264)"/>
       <use xlink:href="#CMR17-35" transform="translate(118.478131 0)scale(0.996264)"/>
      </g>
     </g>
    </g>
    <g id="ytick_8">
     <g id="line2d_29">
      <path d="M 53.624045 20.430592 
L 725.928926 20.430592 
" clip-path="url(#p6ce70d4a36)" style="fill: none; stroke-dasharray: 0.8,1.32; stroke-dashoffset: 0; stroke: #b0b0b0; stroke-width: 0.8"/>
     </g>
     <g id="line2d_30">
      <g>
       <use xlink:href="#m1bdba9d72e" x="53.624045" y="20.430592" style="stroke: #000000; stroke-width: 0.8"/>
      </g>
     </g>
     <g id="text_16">
      <!-- $\mathdefault{40.0}$ -->
      <g transform="translate(28.91263 23.889842)scale(0.1 -0.1)">
       <use xlink:href="#CMR17-34" transform="scale(0.996264)"/>
       <use xlink:href="#CMR17-30" transform="translate(45.690477 0)scale(0.996264)"/>
       <use xlink:href="#CMMI12-3a" transform="translate(91.380954 0)scale(0.996264)"/>
       <use xlink:href="#CMR17-30" transform="translate(118.478131 0)scale(0.996264)"/>
      </g>
     </g>
    </g>
    <g id="text_17">
     <!-- $Re$ -->
     <g transform="translate(21.036997 178.770833)rotate(-90)scale(0.2 -0.2)">
      <defs>
       <path id="CMMI12-52" d="M 2355 3924 
C 2413 4160 2438 4160 2688 4160 
L 3149 4160 
C 3699 4160 4109 3995 4109 3499 
C 4109 3175 3942 2240 2656 2240 
L 1933 2240 
L 2355 3924 
z
M 3245 2169 
C 4038 2341 4659 2851 4659 3398 
C 4659 3894 4154 4352 3264 4352 
L 1530 4352 
C 1402 4352 1344 4352 1344 4226 
C 1344 4160 1389 4160 1510 4160 
C 1894 4160 1894 4112 1894 4045 
C 1894 4033 1894 3994 1869 3899 
L 1005 479 
C 947 256 934 192 493 192 
C 346 192 301 192 301 71 
C 301 7 371 7 390 7 
C 506 7 640 7 762 7 
L 1517 7 
C 1632 7 1766 7 1882 7 
C 1933 7 2003 7 2003 128 
C 2003 192 1946 192 1850 192 
C 1459 192 1459 243 1459 306 
C 1459 313 1459 357 1472 407 
L 1901 2112 
L 2669 2112 
C 3277 2112 3392 1731 3392 1522 
C 3392 1427 3328 1179 3283 1014 
C 3213 723 3194 652 3194 532 
C 3194 82 3565 -128 3994 -128 
C 4512 -128 4736 501 4736 591 
C 4736 635 4704 654 4666 654 
C 4614 654 4602 616 4589 565 
C 4435 114 4173 0 4013 0 
C 3853 0 3750 70 3750 356 
C 3750 509 3827 1088 3834 1120 
C 3866 1355 3866 1380 3866 1432 
C 3866 1896 3488 2093 3245 2169 
z
" transform="scale(0.015625)"/>
       <path id="CMMI12-65" d="M 1146 1479 
C 1318 1479 1754 1479 2061 1595 
C 2547 1783 2592 2158 2592 2274 
C 2592 2558 2349 2816 1926 2816 
C 1254 2816 288 2210 288 1073 
C 288 402 672 -64 1254 -64 
C 2125 -64 2675 609 2675 692 
C 2675 730 2637 762 2611 762 
C 2592 762 2586 756 2528 699 
C 2118 159 1510 64 1267 64 
C 902 64 710 350 710 822 
C 710 911 710 1071 806 1479 
L 1146 1479 
z
M 838 1600 
C 1114 2592 1722 2689 1926 2689 
C 2208 2689 2400 2522 2400 2277 
C 2400 1600 1376 1600 1107 1600 
L 838 1600 
z
" transform="scale(0.015625)"/>
      </defs>
      <use xlink:href="#CMMI12-52" transform="scale(0.996264)"/>
      <use xlink:href="#CMMI12-65" transform="translate(75.070962 0)scale(0.996264)"/>
     </g>
    </g>
   </g>
   <g id="line2d_31">
    <path d="M 83.18342 83.316959 
L 83.19055 -1 
M 83.278531 -1 
L 83.305861 57.248496 
L 83.387489 35.848763 
L 83.469116 29.013413 
L 83.50993 30.083004 
L 83.652778 47.152526 
L 84.081323 97.436268 
L 84.367019 117.233466 
L 84.42824 116.823574 
L 84.69353 115.023584 
L 84.734343 115.053547 
L 84.877192 115.676044 
L 85.856722 121.405443 
L 86.468929 127.938298 
L 87.18317 138.15328 
L 88.346362 158.611861 
L 88.917755 167.274808 
L 89.509555 170.463381 
L 90.346237 176.335358 
L 91.407395 185.460717 
L 92.611402 197.841478 
L 94.243953 217.156064 
L 96.447896 244.697782 
L 96.529524 244.363471 
L 97.835565 238.681037 
L 98.876316 234.354361 
L 100.059915 226.47669 
L 100.937411 222.010297 
L 101.631246 219.525695 
L 102.182231 218.280869 
L 102.610776 217.777383 
L 102.957693 217.671165 
L 103.284203 217.817783 
L 103.651527 218.265382 
L 104.100479 219.211416 
L 104.651465 220.952153 
L 105.324892 223.899336 
L 106.120761 228.44434 
L 107.100291 235.409139 
L 108.345111 245.994623 
L 110.079697 262.853223 
L 110.773531 269.850173 
L 110.814345 269.454085 
L 113.814157 241.291722 
L 113.977412 241.377403 
L 114.181481 241.823824 
L 114.528398 243.257184 
L 115.324266 247.741756 
L 116.6099 254.797455 
L 117.548617 258.646064 
L 118.71181 262.430874 
L 120.303547 266.835489 
L 121.915691 270.683256 
L 123.752311 274.47682 
L 126.282765 279.161204 
L 127.09904 280.397109 
L 128.690777 280.219181 
L 130.50699 280.254026 
L 132.751748 280.530429 
L 140.139041 281.637727 
L 144.016349 282.100139 
L 145.546866 282.53949 
L 146.791686 283.137578 
L 147.954878 283.944401 
L 149.138478 285.030152 
L 150.485332 286.575285 
L 152.117883 288.812437 
L 154.505489 292.514259 
L 154.95444 293.232202 
L 155.015661 293.168067 
L 158.260356 289.746857 
L 159.933721 288.338242 
L 161.239761 287.513576 
L 162.382547 287.032479 
L 163.423298 286.819369 
L 164.402829 286.837885 
L 165.382359 287.085336 
L 166.36189 287.565928 
L 167.443455 288.353729 
L 168.708682 289.572127 
L 170.239199 291.372453 
L 172.320701 294.19608 
L 174.320576 297.144441 
L 174.42261 297.029806 
L 179.952877 290.721003 
L 181.544614 289.298585 
L 182.911875 288.356422 
L 184.136288 287.776008 
L 185.23826 287.490346 
L 186.319825 287.441024 
L 187.34017 287.608853 
L 188.401328 288.002417 
L 189.56452 288.681306 
L 190.829747 289.69198 
L 192.278636 291.156313 
L 193.972408 293.206952 
L 196.074317 296.108685 
L 199.114943 300.590901 
L 199.216978 300.460779 
L 201.829059 297.321696 
L 203.482017 295.671859 
L 204.849278 294.609843 
L 206.032878 293.958056 
L 207.114443 293.602536 
L 208.134787 293.4879 
L 209.175538 293.595634 
L 210.236696 293.935836 
L 211.338668 294.526013 
L 212.542675 295.429291 
L 213.889529 296.729667 
L 215.440452 298.551541 
L 217.460734 301.312883 
L 217.9505 302.000694 
L 218.01172 301.917706 
L 224.031752 293.959066 
L 225.623489 292.339193 
L 226.92953 291.313537 
L 228.051908 290.703328 
L 229.031439 290.411774 
L 229.929342 290.366661 
L 230.806838 290.543074 
L 231.704741 290.952461 
L 232.704679 291.663839 
L 233.888278 292.793525 
L 235.58205 294.756125 
L 238.3982 298.391119 
L 241.091909 302.197644 
L 241.846964 303.299555 
L 241.908185 303.210844 
L 246.72421 296.413032 
L 248.254726 294.681217 
L 249.479139 293.615666 
L 250.499484 293.01118 
L 251.397387 292.727538 
L 252.254476 292.687811 
L 253.111565 292.86877 
L 254.050282 293.291792 
L 255.254288 294.093228 
L 257.172536 295.686841 
L 259.37648 297.779395 
L 261.151879 299.784583 
L 262.886464 302.105397 
L 264.110877 303.929123 
L 264.192505 303.806407 
L 269.947247 295.320547 
L 271.130846 294.101139 
L 272.171597 293.328657 
L 273.171535 292.861027 
L 274.191879 292.629905 
L 275.416292 292.589336 
L 277.191692 292.786118 
L 278.681394 293.155442 
L 279.946621 293.699664 
L 281.171034 294.481405 
L 282.436261 295.556046 
L 283.88515 297.081316 
L 285.742177 299.393545 
L 289.027686 303.968513 
L 289.374603 304.447421 
L 289.435824 304.36477 
L 291.313257 302.010457 
L 292.660112 300.655036 
L 293.843711 299.763205 
L 295.006904 299.154006 
L 296.374165 298.698496 
L 298.190378 298.34853 
L 299.843336 298.254432 
L 301.12897 298.416032 
L 302.271755 298.780642 
L 303.475762 299.396743 
L 304.843023 300.361126 
L 306.414353 301.757284 
L 308.679518 304.116478 
L 309.312131 304.779038 
L 309.373352 304.715577 
L 311.67933 302.495089 
L 313.107812 301.423983 
L 314.413853 300.714626 
L 315.821928 300.196496 
L 318.719706 299.451115 
L 320.780802 299.071859 
L 322.188877 299.043074 
L 323.474511 299.249451 
L 324.719331 299.669107 
L 326.086592 300.364661 
L 327.617109 301.401427 
L 329.412915 302.901783 
L 331.984182 305.383187 
L 332.127031 305.396654 
L 335.106436 302.698941 
L 336.575732 301.662849 
L 337.779738 301.074523 
L 338.88171 300.781454 
L 339.963275 300.723043 
L 341.167281 300.881781 
L 343.085529 301.405972 
L 346.61592 302.6274 
L 348.228064 303.45156 
L 349.758581 304.488831 
L 351.676828 305.835668 
L 354.146061 303.551719 
L 358.247845 299.746708 
L 359.839583 298.575612 
L 361.125216 297.88898 
L 362.227188 297.543728 
L 363.227126 297.456026 
L 364.206656 297.588336 
L 365.267814 297.961363 
L 366.533041 298.653887 
L 368.655358 300.114012 
L 372.287783 302.827043 
L 374.206031 304.552798 
L 376.022244 306.418607 
L 376.144685 306.289158 
L 382.654482 299.523498 
L 384.144185 298.413844 
L 385.389005 297.753976 
L 386.47057 297.426568 
L 387.4501 297.357551 
L 388.409224 297.515616 
L 389.368348 297.897228 
L 390.449913 298.572751 
L 391.817174 299.713378 
L 394.245594 302.107081 
L 398.122902 306.229737 
L 398.571854 306.745005 
L 398.633074 306.678345 
L 405.34694 299.093743 
L 406.693794 298.049738 
L 407.877394 297.410913 
L 408.938552 297.090742 
L 409.958896 297.016171 
L 411.020054 297.168681 
L 412.203654 297.572513 
L 413.67295 298.321429 
L 415.448349 299.474681 
L 417.264562 300.913765 
L 419.121588 302.682613 
L 421.366346 305.1556 
L 422.835642 306.822775 
L 422.876456 306.7748 
L 425.345689 304.053521 
L 426.855798 302.71325 
L 428.141432 301.854749 
L 429.406659 301.271305 
L 430.855548 300.86276 
L 432.712575 300.591238 
L 434.426753 300.544609 
L 435.834829 300.724053 
L 437.100056 301.105833 
L 438.44691 301.758462 
L 439.875392 302.70921 
L 441.609978 304.148798 
L 444.630197 306.730697 
L 446.50763 305.161155 
L 447.936112 304.236331 
L 449.323781 303.594139 
L 450.956332 303.078533 
L 455.364219 301.993624 
L 456.833515 301.860809 
L 458.078335 301.958779 
L 459.363969 302.282653 
L 460.690417 302.845896 
L 462.200526 303.742609 
L 463.935112 305.04753 
L 466.506379 307.024271 
L 469.261309 304.762037 
L 470.751012 303.840411 
L 471.995832 303.336252 
L 473.159024 303.10311 
L 474.424251 303.076177 
L 476.301685 303.27986 
L 480.13818 303.896803 
L 481.689103 304.392376 
L 483.178806 305.11318 
L 484.85217 306.192535 
L 486.709197 307.396119 
L 489.688603 304.845867 
L 492.606787 302.439371 
L 494.198524 301.39402 
L 495.504565 300.785999 
L 496.626944 300.496802 
L 497.688102 300.450679 
L 498.728853 300.627766 
L 499.851232 301.047926 
L 501.2389 301.821082 
L 503.932609 303.663156 
L 507.483408 306.316765 
L 509.217993 307.636668 
L 511.891295 305.01622 
L 515.707383 301.301773 
L 517.462375 299.925647 
L 518.80923 299.135489 
L 519.952015 298.701189 
L 521.03358 298.528142 
L 522.033518 298.597327 
L 522.992642 298.880464 
L 524.0538 299.434281 
L 525.257806 300.327796 
L 526.890357 301.845995 
L 531.339058 306.443183 
L 532.645099 307.853145 
L 532.726727 307.762076 
L 539.460999 300.370889 
L 540.889481 299.232955 
L 542.134301 298.505585 
L 543.236273 298.105962 
L 544.256618 297.964057 
L 545.236148 298.04654 
L 546.256492 298.358799 
L 547.399278 298.960086 
L 548.766539 299.959819 
L 550.603159 301.602585 
L 553.41931 304.450788 
L 556.398715 307.740866 
L 556.521156 307.598288 
L 559.296493 304.517448 
L 560.908637 303.050758 
L 562.255492 302.123577 
L 563.479905 301.540975 
L 564.785945 301.164076 
L 566.39809 300.942886 
L 568.357151 300.907368 
L 569.928481 301.094218 
L 571.275335 301.472632 
L 572.663004 302.104892 
L 574.1323 303.031232 
L 575.866885 304.396921 
L 579.601345 307.467661 
L 581.335931 306.16678 
L 582.805226 305.340094 
L 584.376557 304.72332 
L 587.968169 303.684366 
L 590.335368 303.13543 
L 591.682222 303.046382 
L 592.947449 303.176672 
L 594.233083 303.531014 
L 595.641158 304.159739 
L 597.192082 305.103417 
L 599.273584 306.663027 
L 600.661252 307.638015 
L 602.96723 305.97084 
L 604.416119 305.192129 
L 605.742567 304.740995 
L 607.089422 304.530578 
L 608.905634 304.49102 
L 614.333866 304.644035 
L 615.803162 305.010665 
L 617.231644 305.596466 
L 618.864195 306.514557 
L 620.823256 307.889337 
L 621.088546 307.969127 
L 624.27202 305.467859 
L 626.965729 303.474959 
L 628.557466 302.56781 
L 629.8431 302.082504 
L 630.965479 301.888247 
L 632.047044 301.927132 
L 633.128609 302.188723 
L 634.332615 302.710556 
L 635.965166 303.682009 
L 640.536309 306.79298 
L 642.536184 308.113557 
L 644.780941 306.156175 
L 650.249987 301.25363 
L 651.923352 300.120072 
L 653.270206 299.467106 
L 654.453806 299.135153 
L 655.514964 299.062433 
L 656.535308 299.214101 
L 657.535245 299.582583 
L 658.61681 300.220062 
L 659.882037 301.242352 
L 661.514588 302.87283 
L 665.493931 307.269364 
L 666.391834 308.26876 
L 666.453055 308.199239 
L 672.77919 301.162898 
L 674.432148 299.719607 
L 675.779002 298.823736 
L 676.962602 298.295169 
L 678.044167 298.054957 
L 679.044104 298.058492 
L 680.044041 298.290287 
L 681.084793 298.773741 
L 682.186765 299.53646 
L 683.513212 300.738193 
L 685.49268 302.887475 
L 689.961788 308.087633 
L 690.063823 307.962898 
L 693.328925 304.149303 
L 695.002289 302.52842 
L 695.369613 302.223904 
L 695.369613 302.223904 
" clip-path="url(#p6ce70d4a36)" style="fill: none; stroke: #1f77b4; stroke-width: 1.5; stroke-linecap: square"/>
   </g>
   <g id="line2d_32">
    <path d="M 83.923984 -1 
L 84.081323 20.674508 
L 84.183357 21.703867 
L 84.775157 38.052585 
L 85.162888 46.120136 
L 88.713686 112.760508 
L 90.346237 138.797829 
L 93.162388 183.467985 
L 95.917317 231.032973 
L 96.019352 230.080205 
L 98.549806 207.427734 
L 99.57015 200.389374 
L 100.386425 196.203088 
L 101.039446 193.896414 
L 101.570025 192.741141 
L 101.978163 192.300613 
L 102.304673 192.231764 
L 102.610776 192.396563 
L 102.9781 192.887928 
L 103.427052 193.922001 
L 103.957631 195.754648 
L 104.590244 198.791889 
L 105.345299 203.597979 
L 106.222795 210.719159 
L 107.263546 221.122338 
L 108.528773 236.199128 
L 110.202138 259.060669 
L 110.528648 263.757679 
L 110.589869 263.209754 
L 113.099916 231.093741 
L 113.773343 223.777462 
L 113.79375 223.844122 
L 114.263108 231.72617 
L 115.079384 240.556946 
L 115.834439 246.455015 
L 116.711935 251.567809 
L 117.752686 256.307407 
L 119.017913 261.032865 
L 120.446395 265.516596 
L 122.038132 269.779305 
L 123.976786 274.311853 
L 126.588868 279.834707 
L 128.119384 279.681523 
L 129.792749 279.735895 
L 132.119134 280.058422 
L 138.486083 281.050243 
L 143.914315 281.6081 
L 145.179542 282.035499 
L 146.342734 282.67483 
L 147.424299 283.527271 
L 148.567085 284.719072 
L 149.811905 286.34551 
L 151.301608 288.675751 
L 153.321889 292.292901 
L 154.668744 294.823122 
L 154.729965 294.74148 
L 157.566522 291.134093 
L 159.199073 289.415913 
L 160.52552 288.329657 
L 161.688713 287.656828 
L 162.709057 287.315111 
L 163.647774 287.231954 
L 164.545677 287.378741 
L 165.44358 287.757323 
L 166.382297 288.398 
L 167.463862 289.422815 
L 168.749496 290.97485 
L 170.36164 293.298694 
L 172.504363 296.804912 
L 173.994066 299.391525 
L 174.055286 299.305338 
L 179.422298 291.925597 
L 181.054848 290.119547 
L 182.381296 288.959898 
L 183.524082 288.228489 
L 184.58524 287.797723 
L 185.56477 287.626023 
L 186.544301 287.678711 
L 187.503425 287.948718 
L 188.482955 288.443619 
L 189.584927 289.254145 
L 190.829747 290.468334 
L 192.176602 292.096792 
L 193.809153 294.432083 
L 195.911062 297.856997 
L 198.972095 303.191149 
L 199.053722 303.067423 
L 201.522956 299.539658 
L 203.1351 297.61729 
L 204.441141 296.389297 
L 205.583926 295.605199 
L 206.645084 295.145312 
L 207.624615 294.961997 
L 208.563332 295.007615 
L 209.522455 295.276612 
L 210.522393 295.790198 
L 211.583551 296.583217 
L 212.787557 297.770978 
L 214.114005 299.398258 
L 215.644521 301.625647 
L 217.623989 304.890812 
L 217.726024 304.72635 
L 223.868497 295.05458 
L 225.399013 293.20207 
L 226.623426 292.039896 
L 227.704991 291.30512 
L 228.643708 290.92738 
L 229.500797 290.820656 
L 230.296666 290.941015 
L 231.112941 291.289802 
L 232.010844 291.927786 
L 233.031189 292.936608 
L 234.39845 294.636777 
L 236.622801 297.832756 
L 239.336917 302.107417 
L 241.724523 306.23041 
L 241.826557 306.053155 
L 246.316072 298.459967 
L 247.846589 296.348728 
L 249.030188 295.06569 
L 250.009719 294.306675 
L 250.887215 293.900318 
L 251.683083 293.772889 
L 252.458545 293.869176 
L 253.315634 294.209546 
L 254.315572 294.860829 
L 255.744054 296.095891 
L 257.968404 298.338935 
L 259.743803 300.420211 
L 261.335541 302.647768 
L 263.029312 305.431162 
L 263.906808 306.976969 
L 263.968029 306.866542 
L 269.620737 296.879316 
L 270.783929 295.428112 
L 271.783867 294.51221 
L 272.722583 293.942738 
L 273.702114 293.617854 
L 274.824493 293.496822 
L 276.41623 293.581494 
L 277.926339 293.865473 
L 279.130346 294.31829 
L 280.232318 294.976642 
L 281.39551 295.946411 
L 282.619923 297.256551 
L 284.109626 299.195248 
L 285.925839 301.948679 
L 289.292975 307.488871 
L 289.39501 307.327103 
L 291.109188 304.81624 
L 292.415229 303.283395 
L 293.558015 302.277434 
L 294.680393 301.581544 
L 295.986434 301.047253 
L 297.680206 300.603526 
L 299.169909 300.408259 
L 300.373915 300.469532 
L 301.45548 300.750481 
L 302.557452 301.275008 
L 303.741051 302.095802 
L 305.067499 303.296189 
L 306.679643 305.074969 
L 309.026435 307.985118 
L 309.128469 307.860215 
L 311.291599 305.391267 
L 312.679268 304.138698 
L 313.944494 303.296525 
L 315.291349 302.675711 
L 317.719769 301.872424 
L 320.311443 301.17586 
L 321.617484 301.072335 
L 322.76027 301.201615 
L 323.943869 301.566057 
L 325.147875 302.169364 
L 326.474323 303.08291 
L 327.943619 304.361403 
L 329.780239 306.271652 
L 331.902555 308.712487 
L 332.004589 308.596337 
L 334.779926 305.604209 
L 336.208408 304.388841 
L 337.351193 303.696317 
L 338.412352 303.320092 
L 339.432696 303.205625 
L 340.514261 303.31521 
L 342.024371 303.726786 
L 345.595576 305.020597 
L 347.146499 305.805199 
L 348.595388 306.803754 
L 350.085091 308.109853 
L 351.350318 309.202843 
L 353.656296 306.667067 
L 358.166218 301.662007 
L 359.717141 300.319379 
L 360.921148 299.562215 
L 361.921085 299.178751 
L 362.859802 299.051491 
L 363.757705 299.150808 
L 364.716829 299.485791 
L 365.8188 300.115359 
L 367.410538 301.31019 
L 371.471508 304.735777 
L 373.348942 306.634242 
L 375.226375 308.872236 
L 375.920209 309.761373 
L 375.98143 309.683267 
L 382.327972 301.744659 
L 383.797268 300.400179 
L 384.980867 299.603457 
L 386.001211 299.172186 
L 386.919521 299.017656 
L 387.797017 299.095089 
L 388.654107 299.387653 
L 389.61323 299.957967 
L 390.715202 300.884643 
L 392.204905 302.449303 
L 395.531227 306.374503 
L 398.041274 309.611557 
L 398.408598 310.117062 
L 398.469819 310.045184 
L 405.163278 301.01022 
L 406.448912 299.819597 
L 407.571291 299.078761 
L 408.571228 298.684187 
L 409.530352 298.549352 
L 410.489475 298.643451 
L 411.530227 298.971364 
L 412.856674 299.648402 
L 414.428004 300.708061 
L 416.142183 302.131152 
L 417.774734 303.776276 
L 419.611354 305.969493 
L 422.06018 309.280276 
L 422.733607 310.191297 
L 422.774421 310.1344 
L 425.080399 307.127122 
L 426.488474 305.633163 
L 427.712888 304.633093 
L 428.916894 303.930469 
L 430.202528 303.43742 
L 431.814672 303.060185 
L 433.630885 302.857512 
L 434.977739 302.923498 
L 436.161339 303.199397 
L 437.324531 303.697496 
L 438.569351 304.480246 
L 439.936613 305.607913 
L 441.630384 307.306903 
L 444.303687 310.260482 
L 444.405721 310.15056 
L 446.221934 308.363869 
L 447.630009 307.288723 
L 448.956457 306.556472 
L 450.548194 305.942728 
L 455.16015 304.499773 
L 456.527412 304.330598 
L 457.711011 304.411398 
L 458.874204 304.714062 
L 460.098617 305.265522 
L 461.425064 306.111566 
L 462.914767 307.328786 
L 464.812608 309.183653 
L 466.159462 310.605566 
L 466.24109 310.520558 
L 468.893985 307.922498 
L 470.24084 306.898862 
L 471.404032 306.279058 
L 472.46519 305.952155 
L 473.607976 305.836509 
L 475.036458 305.933806 
L 479.199463 306.560849 
L 480.709572 306.996832 
L 482.076834 307.633975 
L 483.505316 308.562166 
L 485.076646 309.85059 
L 486.403094 310.918835 
L 489.198837 308.066928 
L 492.280277 304.999219 
L 493.810794 303.768364 
L 495.096428 303.011032 
L 496.157586 302.633796 
L 497.116709 302.515458 
L 498.055426 302.615616 
L 499.055364 302.949253 
L 500.198149 303.575959 
L 501.769479 304.71625 
L 505.56516 307.831261 
L 507.707883 309.849917 
L 508.993517 311.230925 
L 509.075145 311.140193 
L 511.605599 308.156987 
L 515.564535 303.530846 
L 517.156272 302.023419 
L 518.441906 301.08294 
L 519.543878 300.531311 
L 520.523408 300.275612 
L 521.421311 300.258106 
L 522.339621 300.468017 
L 523.298745 300.93346 
L 524.319089 301.683049 
L 525.563909 302.882257 
L 527.543377 305.14853 
L 532.11452 310.788713 
L 532.543065 311.315428 
L 532.583878 311.26072 
L 539.399778 302.337361 
L 540.787447 301.039846 
L 541.971046 300.224776 
L 543.032204 299.763037 
L 543.970921 299.589485 
L 544.889231 299.645203 
L 545.827948 299.93238 
L 546.848292 300.490237 
L 548.011485 301.389643 
L 549.542001 302.872325 
L 551.786759 305.383861 
L 554.296806 308.513854 
L 556.317088 311.184296 
L 556.378308 311.099625 
L 559.072017 307.554858 
L 560.582127 305.918151 
L 561.847354 304.856977 
L 563.05136 304.136846 
L 564.29618 303.660967 
L 565.765476 303.35056 
L 567.540875 303.19805 
L 569.050985 303.269424 
L 570.357026 303.551551 
L 571.601846 304.057224 
L 572.867073 304.816408 
L 574.336368 305.97993 
L 576.132174 307.712418 
L 579.356463 311.037173 
L 579.417683 310.977415 
L 581.029827 309.560047 
L 582.397089 308.640441 
L 583.866385 307.930578 
L 586.213177 307.082346 
L 590.029264 305.845599 
L 591.314898 305.711606 
L 592.478091 305.810418 
L 593.66169 306.135638 
L 594.926917 306.722785 
L 596.334992 307.636836 
L 597.967543 308.970879 
L 600.497997 311.090871 
L 602.64072 309.262265 
L 603.987575 308.389455 
L 605.191581 307.866275 
L 606.436401 307.58095 
L 607.905697 307.484999 
L 613.640032 307.500823 
L 614.96648 307.798268 
L 616.272521 308.320607 
L 617.680596 309.127429 
L 619.333554 310.348352 
L 620.86407 311.467938 
L 623.925103 308.593139 
L 626.496371 306.286465 
L 628.108515 305.137925 
L 629.373742 304.513745 
L 630.414493 304.235658 
L 631.41443 304.195763 
L 632.393961 304.379246 
L 633.455119 304.809843 
L 634.76116 305.602526 
L 636.761035 307.104902 
L 640.781191 310.360977 
L 642.393336 311.663879 
L 644.597279 309.34559 
L 650.147952 303.372444 
L 651.658062 302.139232 
L 652.943696 301.361195 
L 654.025261 300.94861 
L 655.025198 300.797109 
L 655.984322 300.881781 
L 656.923039 301.194882 
L 657.882163 301.750045 
L 658.963728 302.640025 
L 660.330989 304.089039 
L 662.351271 306.607309 
L 666.2898 311.781207 
L 666.371427 311.670444 
L 672.84041 303.104793 
L 674.411741 301.505625 
L 675.676968 300.523736 
L 676.758533 299.948035 
L 677.75847 299.660858 
L 678.697187 299.624835 
L 679.59509 299.813537 
L 680.533807 300.245649 
L 681.574558 300.99204 
L 682.758157 302.139064 
L 684.268267 303.934341 
L 686.859942 307.404199 
L 689.859754 311.588465 
L 689.941381 311.470127 
L 693.16567 307.009289 
L 694.737 305.204586 
L 695.369613 304.594377 
L 695.369613 304.594377 
" clip-path="url(#p6ce70d4a36)" style="fill: none; stroke: #ff7f0e; stroke-width: 1.5; stroke-linecap: square"/>
   </g>
   <g id="patch_3">
    <path d="M 53.624045 326.285074 
L 53.624045 7.2 
" style="fill: none; stroke: #000000; stroke-width: 0.8; stroke-linejoin: miter; stroke-linecap: square"/>
   </g>
   <g id="patch_4">
    <path d="M 725.928926 326.285074 
L 725.928926 7.2 
" style="fill: none; stroke: #000000; stroke-width: 0.8; stroke-linejoin: miter; stroke-linecap: square"/>
   </g>
   <g id="patch_5">
    <path d="M 53.624045 326.285074 
L 725.928926 326.285074 
" style="fill: none; stroke: #000000; stroke-width: 0.8; stroke-linejoin: miter; stroke-linecap: square"/>
   </g>
   <g id="patch_6">
    <path d="M 53.624045 7.2 
L 725.928926 7.2 
" style="fill: none; stroke: #000000; stroke-width: 0.8; stroke-linejoin: miter; stroke-linecap: square"/>
   </g>
   <g id="legend_1">
    <g id="patch_7">
     <path d="M 631.801349 68.188574 
L 714.028926 68.188574 
Q 717.428926 68.188574 717.428926 64.788574 
L 717.428926 19.1 
Q 717.428926 15.7 714.028926 15.7 
L 631.801349 15.7 
Q 628.401349 15.7 628.401349 19.1 
L 628.401349 64.788574 
Q 628.401349 68.188574 631.801349 68.188574 
z
" style="fill: #ffffff; opacity: 0.8; stroke: #cccccc; stroke-linejoin: miter"/>
    </g>
    <g id="line2d_33">
     <path d="M 635.201349 28.45 
L 652.201349 28.45 
L 669.201349 28.45 
" style="fill: none; stroke: #1f77b4; stroke-width: 1.5; stroke-linecap: square"/>
    </g>
    <g id="text_18">
     <!-- $Re_h$ -->
     <g transform="translate(682.801349 34.4)scale(0.17 -0.17)">
      <defs>
       <path id="CMMI12-68" d="M 1798 4257 
C 1805 4283 1818 4321 1818 4352 
C 1818 4416 1754 4416 1741 4416 
C 1734 4416 1421 4388 1389 4380 
C 1280 4373 1184 4358 1069 4358 
C 909 4345 864 4339 864 4224 
C 864 4160 915 4160 1005 4160 
C 1318 4160 1325 4103 1325 4040 
C 1325 4002 1312 3951 1306 3932 
L 378 248 
C 352 152 352 140 352 101 
C 352 -38 461 -64 525 -64 
C 634 -64 717 19 749 89 
L 1037 1245 
C 1069 1386 1107 1520 1139 1660 
C 1210 1929 1210 1935 1331 2120 
C 1453 2305 1741 2689 2234 2689 
C 2490 2689 2579 2497 2579 2242 
C 2579 1884 2330 1188 2189 805 
C 2131 651 2099 568 2099 453 
C 2099 166 2298 -64 2605 -64 
C 3200 -64 3424 875 3424 913 
C 3424 945 3398 971 3360 971 
C 3302 971 3296 952 3264 843 
C 3117 332 2880 64 2624 64 
C 2560 64 2458 64 2458 269 
C 2458 436 2534 640 2560 710 
C 2675 1018 2963 1773 2963 2145 
C 2963 2528 2739 2816 2253 2816 
C 1888 2816 1568 2644 1306 2312 
L 1798 4257 
z
" transform="scale(0.015625)"/>
      </defs>
      <use xlink:href="#CMMI12-52" transform="scale(0.996264)"/>
      <use xlink:href="#CMMI12-65" transform="translate(75.070962 0)scale(0.996264)"/>
      <use xlink:href="#CMMI12-68" transform="translate(120.282963 -14.943915)scale(0.697382)"/>
     </g>
    </g>
    <g id="line2d_34">
     <path d="M 635.201349 52.144287 
L 652.201349 52.144287 
L 669.201349 52.144287 
" style="fill: none; stroke: #ff7f0e; stroke-width: 1.5; stroke-linecap: square"/>
    </g>
    <g id="text_19">
     <!-- $Re_{\omega}$ -->
     <g transform="translate(682.801349 58.094287)scale(0.17 -0.17)">
      <defs>
       <path id="CMMI12-21" d="M 3802 2395 
C 3802 2580 3750 2816 3526 2816 
C 3398 2816 3251 2657 3251 2529 
C 3251 2472 3277 2434 3328 2376 
C 3424 2268 3546 2096 3546 1797 
C 3546 1567 3405 1204 3302 1007 
C 3123 656 2829 357 2496 357 
C 2093 357 1939 615 1869 975 
C 1939 1143 2086 1560 2086 1728 
C 2086 1798 2061 1856 1978 1856 
C 1933 1856 1882 1831 1850 1779 
C 1760 1638 1677 1129 1683 994 
C 1562 756 1216 357 806 357 
C 378 357 262 733 262 1096 
C 262 1758 678 2338 794 2497 
C 858 2593 902 2657 902 2669 
C 902 2714 877 2784 819 2784 
C 717 2784 685 2701 634 2625 
C 307 2121 77 1414 77 803 
C 77 408 224 -64 704 -64 
C 1235 -64 1568 391 1702 634 
C 1754 275 1946 -64 2413 -64 
C 2899 -64 3206 363 3437 879 
C 3603 1249 3802 2045 3802 2395 
z
" transform="scale(0.015625)"/>
      </defs>
      <use xlink:href="#CMMI12-52" transform="scale(0.996264)"/>
      <use xlink:href="#CMMI12-65" transform="translate(75.070962 0)scale(0.996264)"/>
      <use xlink:href="#CMMI12-21" transform="translate(120.282963 -14.943915)scale(0.697382)"/>
     </g>
    </g>
   </g>
  </g>
 </g>
 <defs>
  <clipPath id="p6ce70d4a36">
   <rect x="53.624045" y="7.2" width="672.304882" height="319.085074"/>
  </clipPath>
 </defs>
</svg>
