<?xml version="1.0" encoding="utf-8" standalone="no"?>
<!DOCTYPE svg PUBLIC "-//W3C//DTD SVG 1.1//EN"
  "http://www.w3.org/Graphics/SVG/1.1/DTD/svg11.dtd">
<svg xmlns:xlink="http://www.w3.org/1999/xlink" width="725.380182pt" height="376.649054pt" viewBox="0 0 725.380182 376.649054" xmlns="http://www.w3.org/2000/svg" version="1.1">
 <metadata>
  <rdf:RDF xmlns:dc="http://purl.org/dc/elements/1.1/" xmlns:cc="http://creativecommons.org/ns#" xmlns:rdf="http://www.w3.org/1999/02/22-rdf-syntax-ns#">
   <cc:Work>
    <dc:type rdf:resource="http://purl.org/dc/dcmitype/StillImage"/>
    <dc:date>2022-05-03T22:25:49.633479</dc:date>
    <dc:format>image/svg+xml</dc:format>
    <dc:creator>
     <cc:Agent>
      <dc:title>Matplotlib v3.5.1, https://matplotlib.org/</dc:title>
     </cc:Agent>
    </dc:creator>
   </cc:Work>
  </rdf:RDF>
 </metadata>
 <defs>
  <style type="text/css">*{stroke-linejoin: round; stroke-linecap: butt}</style>
 </defs>
 <g id="figure_1">
  <g id="patch_1">
   <path d="M 0 376.649054 
L 725.380182 376.649054 
L 725.380182 0 
L 0 0 
z
" style="fill: #ffffff"/>
  </g>
  <g id="axes_1">
   <g id="patch_2">
    <path d="M 45.875301 329.668097 
L 718.180182 329.668097 
L 718.180182 10.583023 
L 45.875301 10.583023 
z
" style="fill: #ffffff"/>
   </g>
   <g id="matplotlib.axis_1">
    <g id="xtick_1">
     <g id="line2d_1">
      <path d="M 74.390512 329.668097 
L 74.390512 10.583023 
" clip-path="url(#pe04b437fe7)" style="fill: none; stroke-dasharray: 0.8,1.32; stroke-dashoffset: 0; stroke: #b0b0b0; stroke-width: 0.8"/>
     </g>
     <g id="line2d_2">
      <defs>
       <path id="m47203805e2" d="M 0 0 
L 0 3.5 
" style="stroke: #000000; stroke-width: 0.8"/>
      </defs>
      <g>
       <use xlink:href="#m47203805e2" x="74.390512" y="329.668097" style="stroke: #000000; stroke-width: 0.8"/>
      </g>
     </g>
     <g id="text_1">
      <!-- $\mathdefault{0}$ -->
      <g transform="translate(71.899845 343.586596)scale(0.1 -0.1)">
       <defs>
        <path id="CMR17-30" d="M 2688 2025 
C 2688 2416 2682 3080 2413 3591 
C 2176 4039 1798 4198 1466 4198 
C 1158 4198 768 4058 525 3597 
C 269 3118 243 2524 243 2025 
C 243 1661 250 1106 448 619 
C 723 -39 1216 -128 1466 -128 
C 1760 -128 2208 -7 2470 600 
C 2662 1042 2688 1559 2688 2025 
z
M 1466 -26 
C 1056 -26 813 325 723 812 
C 653 1188 653 1738 653 2096 
C 653 2588 653 2997 736 3387 
C 858 3929 1216 4096 1466 4096 
C 1728 4096 2067 3923 2189 3400 
C 2272 3036 2278 2607 2278 2096 
C 2278 1680 2278 1169 2202 792 
C 2067 95 1690 -26 1466 -26 
z
" transform="scale(0.015625)"/>
       </defs>
       <use xlink:href="#CMR17-30" transform="scale(0.996264)"/>
      </g>
     </g>
    </g>
    <g id="xtick_2">
     <g id="line2d_3">
      <path d="M 176.595572 329.668097 
L 176.595572 10.583023 
" clip-path="url(#pe04b437fe7)" style="fill: none; stroke-dasharray: 0.8,1.32; stroke-dashoffset: 0; stroke: #b0b0b0; stroke-width: 0.8"/>
     </g>
     <g id="line2d_4">
      <g>
       <use xlink:href="#m47203805e2" x="176.595572" y="329.668097" style="stroke: #000000; stroke-width: 0.8"/>
      </g>
     </g>
     <g id="text_2">
      <!-- $\mathdefault{5}$ -->
      <g transform="translate(174.104904 343.586596)scale(0.1 -0.1)">
       <defs>
        <path id="CMR17-35" d="M 730 3692 
C 794 3666 1056 3584 1325 3584 
C 1920 3584 2246 3911 2432 4100 
C 2432 4157 2432 4192 2394 4192 
C 2387 4192 2374 4192 2323 4163 
C 2099 4058 1837 3973 1517 3973 
C 1325 3973 1037 3999 723 4139 
C 653 4171 640 4171 634 4171 
C 602 4171 595 4164 595 4037 
L 595 2203 
C 595 2089 595 2057 659 2057 
C 691 2057 704 2070 736 2114 
C 941 2401 1222 2522 1542 2522 
C 1766 2522 2246 2382 2246 1289 
C 2246 1085 2246 715 2054 421 
C 1894 159 1645 25 1370 25 
C 947 25 518 320 403 814 
C 429 807 480 795 506 795 
C 589 795 749 840 749 1038 
C 749 1210 627 1280 506 1280 
C 358 1280 262 1190 262 1011 
C 262 454 704 -128 1382 -128 
C 2042 -128 2669 440 2669 1264 
C 2669 2030 2170 2624 1549 2624 
C 1222 2624 947 2503 730 2274 
L 730 3692 
z
" transform="scale(0.015625)"/>
       </defs>
       <use xlink:href="#CMR17-35" transform="scale(0.996264)"/>
      </g>
     </g>
    </g>
    <g id="xtick_3">
     <g id="line2d_5">
      <path d="M 278.800632 329.668097 
L 278.800632 10.583023 
" clip-path="url(#pe04b437fe7)" style="fill: none; stroke-dasharray: 0.8,1.32; stroke-dashoffset: 0; stroke: #b0b0b0; stroke-width: 0.8"/>
     </g>
     <g id="line2d_6">
      <g>
       <use xlink:href="#m47203805e2" x="278.800632" y="329.668097" style="stroke: #000000; stroke-width: 0.8"/>
      </g>
     </g>
     <g id="text_3">
      <!-- $\mathdefault{10}$ -->
      <g transform="translate(273.819296 343.586596)scale(0.1 -0.1)">
       <defs>
        <path id="CMR17-31" d="M 1702 4058 
C 1702 4192 1696 4192 1606 4192 
C 1357 3916 979 3827 621 3827 
C 602 3827 570 3827 563 3808 
C 557 3795 557 3782 557 3648 
C 755 3648 1088 3686 1344 3839 
L 1344 461 
C 1344 236 1331 160 781 160 
L 589 160 
L 589 0 
C 896 0 1216 0 1523 0 
C 1830 0 2150 0 2458 0 
L 2458 160 
L 2266 160 
C 1715 160 1702 230 1702 458 
L 1702 4058 
z
" transform="scale(0.015625)"/>
       </defs>
       <use xlink:href="#CMR17-31" transform="scale(0.996264)"/>
       <use xlink:href="#CMR17-30" transform="translate(45.690477 0)scale(0.996264)"/>
      </g>
     </g>
    </g>
    <g id="xtick_4">
     <g id="line2d_7">
      <path d="M 381.005691 329.668097 
L 381.005691 10.583023 
" clip-path="url(#pe04b437fe7)" style="fill: none; stroke-dasharray: 0.8,1.32; stroke-dashoffset: 0; stroke: #b0b0b0; stroke-width: 0.8"/>
     </g>
     <g id="line2d_8">
      <g>
       <use xlink:href="#m47203805e2" x="381.005691" y="329.668097" style="stroke: #000000; stroke-width: 0.8"/>
      </g>
     </g>
     <g id="text_4">
      <!-- $\mathdefault{15}$ -->
      <g transform="translate(376.024356 343.586596)scale(0.1 -0.1)">
       <use xlink:href="#CMR17-31" transform="scale(0.996264)"/>
       <use xlink:href="#CMR17-35" transform="translate(45.690477 0)scale(0.996264)"/>
      </g>
     </g>
    </g>
    <g id="xtick_5">
     <g id="line2d_9">
      <path d="M 483.210751 329.668097 
L 483.210751 10.583023 
" clip-path="url(#pe04b437fe7)" style="fill: none; stroke-dasharray: 0.8,1.32; stroke-dashoffset: 0; stroke: #b0b0b0; stroke-width: 0.8"/>
     </g>
     <g id="line2d_10">
      <g>
       <use xlink:href="#m47203805e2" x="483.210751" y="329.668097" style="stroke: #000000; stroke-width: 0.8"/>
      </g>
     </g>
     <g id="text_5">
      <!-- $\mathdefault{20}$ -->
      <g transform="translate(478.229415 343.586596)scale(0.1 -0.1)">
       <defs>
        <path id="CMR17-32" d="M 2669 989 
L 2554 989 
C 2490 536 2438 459 2413 420 
C 2381 369 1920 369 1830 369 
L 602 369 
C 832 619 1280 1072 1824 1597 
C 2214 1967 2669 2402 2669 3035 
C 2669 3790 2067 4224 1395 4224 
C 691 4224 262 3604 262 3030 
C 262 2780 448 2748 525 2748 
C 589 2748 781 2787 781 3010 
C 781 3207 614 3264 525 3264 
C 486 3264 448 3258 422 3245 
C 544 3790 915 4058 1306 4058 
C 1862 4058 2227 3617 2227 3035 
C 2227 2479 1901 2000 1536 1584 
L 262 146 
L 262 0 
L 2515 0 
L 2669 989 
z
" transform="scale(0.015625)"/>
       </defs>
       <use xlink:href="#CMR17-32" transform="scale(0.996264)"/>
       <use xlink:href="#CMR17-30" transform="translate(45.690477 0)scale(0.996264)"/>
      </g>
     </g>
    </g>
    <g id="xtick_6">
     <g id="line2d_11">
      <path d="M 585.41581 329.668097 
L 585.41581 10.583023 
" clip-path="url(#pe04b437fe7)" style="fill: none; stroke-dasharray: 0.8,1.32; stroke-dashoffset: 0; stroke: #b0b0b0; stroke-width: 0.8"/>
     </g>
     <g id="line2d_12">
      <g>
       <use xlink:href="#m47203805e2" x="585.41581" y="329.668097" style="stroke: #000000; stroke-width: 0.8"/>
      </g>
     </g>
     <g id="text_6">
      <!-- $\mathdefault{25}$ -->
      <g transform="translate(580.434475 343.586596)scale(0.1 -0.1)">
       <use xlink:href="#CMR17-32" transform="scale(0.996264)"/>
       <use xlink:href="#CMR17-35" transform="translate(45.690477 0)scale(0.996264)"/>
      </g>
     </g>
    </g>
    <g id="xtick_7">
     <g id="line2d_13">
      <path d="M 687.62087 329.668097 
L 687.62087 10.583023 
" clip-path="url(#pe04b437fe7)" style="fill: none; stroke-dasharray: 0.8,1.32; stroke-dashoffset: 0; stroke: #b0b0b0; stroke-width: 0.8"/>
     </g>
     <g id="line2d_14">
      <g>
       <use xlink:href="#m47203805e2" x="687.62087" y="329.668097" style="stroke: #000000; stroke-width: 0.8"/>
      </g>
     </g>
     <g id="text_7">
      <!-- $\mathdefault{30}$ -->
      <g transform="translate(682.639534 343.586596)scale(0.1 -0.1)">
       <defs>
        <path id="CMR17-33" d="M 1414 2157 
C 1984 2157 2234 1662 2234 1090 
C 2234 320 1824 25 1453 25 
C 1114 25 563 194 390 693 
C 422 680 454 680 486 680 
C 640 680 755 782 755 948 
C 755 1133 614 1216 486 1216 
C 378 1216 211 1165 211 926 
C 211 335 787 -128 1466 -128 
C 2176 -128 2720 430 2720 1085 
C 2720 1707 2208 2157 1600 2227 
C 2086 2328 2554 2756 2554 3329 
C 2554 3820 2048 4179 1472 4179 
C 890 4179 378 3829 378 3329 
C 378 3110 544 3072 627 3072 
C 762 3072 877 3155 877 3321 
C 877 3486 762 3569 627 3569 
C 602 3569 570 3569 544 3557 
C 730 3959 1235 4032 1459 4032 
C 1683 4032 2106 3925 2106 3320 
C 2106 3143 2080 2828 1862 2550 
C 1670 2304 1453 2304 1242 2284 
C 1210 2284 1062 2269 1037 2269 
C 992 2263 966 2257 966 2208 
C 966 2163 973 2157 1101 2157 
L 1414 2157 
z
" transform="scale(0.015625)"/>
       </defs>
       <use xlink:href="#CMR17-33" transform="scale(0.996264)"/>
       <use xlink:href="#CMR17-30" transform="translate(45.690477 0)scale(0.996264)"/>
      </g>
     </g>
    </g>
    <g id="text_8">
     <!-- $t U_{\infty} / H_{box}$ -->
     <g transform="translate(341.630715 364.467734)scale(0.2 -0.2)">
      <defs>
       <path id="CMMI12-74" d="M 1286 2566 
L 1875 2566 
C 1997 2566 2061 2566 2061 2681 
C 2061 2752 2022 2752 1894 2752 
L 1331 2752 
L 1568 3692 
C 1594 3781 1594 3794 1594 3840 
C 1594 3943 1510 4000 1427 4000 
C 1376 4000 1229 3981 1178 3775 
L 928 2752 
L 326 2752 
C 198 2752 141 2752 141 2630 
C 141 2566 186 2566 307 2566 
L 877 2566 
L 454 881 
C 403 658 384 594 384 511 
C 384 211 595 -64 954 -64 
C 1600 -64 1946 868 1946 912 
C 1946 951 1920 970 1882 970 
C 1869 970 1843 970 1830 944 
C 1824 938 1818 931 1773 829 
C 1638 511 1344 64 973 64 
C 781 64 768 224 768 364 
C 768 370 768 492 787 568 
L 1286 2566 
z
" transform="scale(0.015625)"/>
       <path id="CMMI12-55" d="M 3238 1474 
C 3014 581 2272 57 1670 57 
C 1210 57 896 363 896 891 
C 896 916 896 1107 966 1387 
L 1594 3887 
C 1651 4103 1664 4167 2118 4167 
C 2234 4167 2298 4167 2298 4282 
C 2298 4352 2240 4352 2202 4352 
C 2086 4352 1952 4352 1830 4352 
L 1075 4352 
C 954 4352 819 4352 698 4352 
C 653 4352 576 4352 576 4231 
C 576 4167 621 4167 742 4167 
C 1126 4167 1126 4116 1126 4046 
C 1126 4008 1082 3824 1050 3715 
L 493 1488 
C 474 1418 435 1246 435 1075 
C 435 374 941 -128 1638 -128 
C 2285 -128 3002 384 3328 1197 
C 3373 1305 3430 1530 3469 1702 
C 3533 1933 3667 2496 3712 2662 
L 3955 3623 
C 4038 3956 4090 4167 4653 4167 
C 4704 4173 4730 4224 4730 4282 
C 4730 4352 4672 4352 4646 4352 
C 4557 4352 4442 4352 4352 4352 
L 4051 4352 
C 3654 4352 3450 4352 3443 4352 
C 3405 4352 3328 4352 3328 4231 
C 3328 4167 3379 4167 3424 4167 
C 3808 4167 3834 4020 3834 3905 
C 3834 3848 3834 3828 3808 3739 
L 3238 1474 
z
" transform="scale(0.015625)"/>
       <path id="CMSY10-31" d="M 3251 1730 
C 2906 2166 2829 2262 2630 2422 
C 2272 2710 1914 2825 1587 2825 
C 838 2825 352 2122 352 1374 
C 352 639 826 -70 1562 -70 
C 2298 -70 2829 511 3142 1022 
C 3488 588 3565 492 3763 332 
C 4122 45 4480 -70 4806 -70 
C 5555 -70 6042 633 6042 1380 
C 6042 2115 5568 2825 4832 2825 
C 4096 2825 3565 2242 3251 1730 
z
M 3418 1514 
C 3680 1975 4154 2620 4877 2620 
C 5555 2620 5901 1955 5901 1380 
C 5901 753 5472 236 4909 236 
C 4538 236 4250 505 4115 638 
C 3955 811 3808 1009 3418 1514 
z
M 2976 1240 
C 2714 780 2240 134 1517 134 
C 838 134 493 799 493 1374 
C 493 2000 922 2518 1485 2518 
C 1856 2518 2144 2249 2278 2115 
C 2438 1943 2586 1744 2976 1240 
z
" transform="scale(0.015625)"/>
       <path id="CMMI12-3d" d="M 2746 4562 
C 2746 4569 2784 4666 2784 4678 
C 2784 4755 2720 4800 2669 4800 
C 2637 4800 2579 4800 2528 4659 
L 384 -1363 
C 384 -1370 346 -1465 346 -1478 
C 346 -1555 410 -1600 461 -1600 
C 499 -1600 557 -1593 602 -1459 
L 2746 4562 
z
" transform="scale(0.015625)"/>
       <path id="CMMI12-48" d="M 4787 3887 
C 4845 4103 4858 4167 5312 4167 
C 5427 4167 5491 4167 5491 4282 
C 5491 4352 5434 4352 5395 4352 
C 5280 4352 5146 4352 5024 4352 
L 4269 4352 
C 4147 4352 4013 4352 3891 4352 
C 3846 4352 3770 4352 3770 4231 
C 3770 4167 3814 4167 3936 4167 
C 4320 4167 4320 4116 4320 4046 
C 4320 4034 4320 3995 4294 3900 
L 3904 2361 
L 1971 2361 
L 2355 3887 
C 2413 4103 2426 4167 2880 4167 
C 2995 4167 3059 4167 3059 4282 
C 3059 4352 3002 4352 2963 4352 
C 2848 4352 2714 4352 2592 4352 
L 1837 4352 
C 1715 4352 1581 4352 1459 4352 
C 1414 4352 1338 4352 1338 4231 
C 1338 4167 1382 4167 1504 4167 
C 1888 4167 1888 4116 1888 4046 
C 1888 4034 1888 3995 1862 3899 
L 998 472 
C 941 249 928 185 486 185 
C 339 185 294 185 294 64 
C 294 0 365 0 384 0 
C 499 0 634 0 755 0 
L 1510 0 
C 1632 0 1766 0 1888 0 
C 1939 0 2010 0 2010 121 
C 2010 185 1952 185 1856 185 
C 1466 185 1466 236 1466 300 
C 1466 307 1466 351 1478 402 
L 1920 2176 
L 3859 2176 
C 3750 1753 3424 416 3411 376 
C 3341 185 3238 185 2861 185 
C 2784 185 2726 185 2726 64 
C 2726 0 2797 0 2816 0 
C 2931 0 3066 0 3187 0 
L 3942 0 
C 4064 0 4198 0 4320 0 
C 4371 0 4442 0 4442 121 
C 4442 185 4384 185 4288 185 
C 3898 185 3898 236 3898 300 
C 3898 307 3898 351 3910 402 
L 4787 3887 
z
" transform="scale(0.015625)"/>
       <path id="CMMI12-62" d="M 1478 4257 
C 1485 4283 1498 4321 1498 4352 
C 1498 4416 1434 4416 1421 4416 
C 1414 4416 1184 4393 1069 4377 
C 960 4377 864 4358 749 4358 
C 595 4345 550 4339 550 4224 
C 550 4160 614 4160 678 4160 
C 1005 4160 1005 4103 1005 4040 
C 1005 3996 954 3811 928 3696 
L 774 3085 
C 710 2831 346 1387 320 1272 
C 288 1114 288 1005 288 922 
C 288 274 653 -64 1069 -64 
C 1811 -64 2579 888 2579 1814 
C 2579 2401 2246 2816 1766 2816 
C 1434 2816 1133 2542 1011 2414 
L 1478 4257 
z
M 1075 64 
C 870 64 646 217 646 715 
C 646 926 666 1047 781 1494 
C 800 1577 902 1986 928 2069 
C 941 2120 1318 2689 1754 2689 
C 2035 2689 2163 2408 2163 2076 
C 2163 1769 1984 1047 1824 715 
C 1664 370 1370 64 1075 64 
z
" transform="scale(0.015625)"/>
       <path id="CMMI12-6f" d="M 2918 1756 
C 2918 2363 2522 2816 1939 2816 
C 1094 2816 262 1897 262 996 
C 262 390 659 -64 1242 -64 
C 2093 -64 2918 856 2918 1756 
z
M 1248 64 
C 928 64 691 319 691 766 
C 691 1060 845 1712 1024 2031 
C 1312 2523 1670 2689 1933 2689 
C 2246 2689 2490 2433 2490 1986 
C 2490 1731 2355 1047 2112 658 
C 1850 230 1498 64 1248 64 
z
" transform="scale(0.015625)"/>
       <path id="CMMI12-78" d="M 3034 2606 
C 2829 2567 2752 2414 2752 2293 
C 2752 2139 2874 2088 2963 2088 
C 3155 2088 3290 2254 3290 2427 
C 3290 2695 2982 2816 2714 2816 
C 2323 2816 2106 2433 2048 2312 
C 1901 2816 1504 2816 1389 2816 
C 736 2816 390 1980 390 1839 
C 390 1814 416 1782 461 1782 
C 512 1782 525 1820 538 1846 
C 755 2555 1184 2689 1370 2689 
C 1658 2689 1715 2420 1715 2267 
C 1715 2127 1677 1980 1600 1673 
L 1382 798 
C 1286 415 1101 64 762 64 
C 730 64 570 64 435 147 
C 666 192 717 383 717 460 
C 717 588 621 664 499 664 
C 346 664 179 530 179 326 
C 179 57 480 -64 755 -64 
C 1062 -64 1280 179 1414 441 
C 1517 64 1837 -64 2074 -64 
C 2726 -64 3072 773 3072 913 
C 3072 945 3046 971 3008 971 
C 2950 971 2944 939 2925 888 
C 2752 326 2381 64 2093 64 
C 1869 64 1747 230 1747 492 
C 1747 632 1773 734 1875 1156 
L 2099 2024 
C 2195 2408 2413 2689 2707 2689 
C 2720 2689 2899 2689 3034 2606 
z
" transform="scale(0.015625)"/>
      </defs>
      <use xlink:href="#CMMI12-74" transform="scale(0.996264)"/>
      <use xlink:href="#CMMI12-55" transform="translate(35.22633 0)scale(0.996264)"/>
      <use xlink:href="#CMSY10-31" transform="translate(101.478449 -14.943915)scale(0.697382)"/>
      <use xlink:href="#CMMI12-3d" transform="translate(171.714956 0)scale(0.996264)"/>
      <use xlink:href="#CMMI12-48" transform="translate(220.489874 0)scale(0.996264)"/>
      <use xlink:href="#CMMI12-62" transform="translate(301.314711 -14.943915)scale(0.697382)"/>
      <use xlink:href="#CMMI12-6f" transform="translate(330.347698 -14.943915)scale(0.697382)"/>
      <use xlink:href="#CMMI12-78" transform="translate(363.17426 -14.943915)scale(0.697382)"/>
     </g>
    </g>
   </g>
   <g id="matplotlib.axis_2">
    <g id="ytick_1">
     <g id="line2d_15">
      <path d="M 45.875301 318.999588 
L 718.180182 318.999588 
" clip-path="url(#pe04b437fe7)" style="fill: none; stroke-dasharray: 0.8,1.32; stroke-dashoffset: 0; stroke: #b0b0b0; stroke-width: 0.8"/>
     </g>
     <g id="line2d_16">
      <defs>
       <path id="m808544b3ad" d="M 0 0 
L -3.5 0 
" style="stroke: #000000; stroke-width: 0.8"/>
      </defs>
      <g>
       <use xlink:href="#m808544b3ad" x="45.875301" y="318.999588" style="stroke: #000000; stroke-width: 0.8"/>
      </g>
     </g>
     <g id="text_9">
      <!-- $\mathdefault{3}$ -->
      <g transform="translate(33.893966 322.458837)scale(0.1 -0.1)">
       <use xlink:href="#CMR17-33" transform="scale(0.996264)"/>
      </g>
     </g>
    </g>
    <g id="ytick_2">
     <g id="line2d_17">
      <path d="M 45.875301 274.950968 
L 718.180182 274.950968 
" clip-path="url(#pe04b437fe7)" style="fill: none; stroke-dasharray: 0.8,1.32; stroke-dashoffset: 0; stroke: #b0b0b0; stroke-width: 0.8"/>
     </g>
     <g id="line2d_18">
      <g>
       <use xlink:href="#m808544b3ad" x="45.875301" y="274.950968" style="stroke: #000000; stroke-width: 0.8"/>
      </g>
     </g>
     <g id="text_10">
      <!-- $\mathdefault{4}$ -->
      <g transform="translate(33.893966 278.410217)scale(0.1 -0.1)">
       <defs>
        <path id="CMR17-34" d="M 2150 4122 
C 2150 4256 2144 4256 2029 4256 
L 128 1254 
L 128 1088 
L 1779 1088 
L 1779 457 
C 1779 224 1766 160 1318 160 
L 1197 160 
L 1197 0 
C 1402 0 1747 0 1965 0 
C 2182 0 2528 0 2733 0 
L 2733 160 
L 2611 160 
C 2163 160 2150 224 2150 457 
L 2150 1088 
L 2803 1088 
L 2803 1254 
L 2150 1254 
L 2150 4122 
z
M 1798 3703 
L 1798 1254 
L 256 1254 
L 1798 3703 
z
" transform="scale(0.015625)"/>
       </defs>
       <use xlink:href="#CMR17-34" transform="scale(0.996264)"/>
      </g>
     </g>
    </g>
    <g id="ytick_3">
     <g id="line2d_19">
      <path d="M 45.875301 230.902348 
L 718.180182 230.902348 
" clip-path="url(#pe04b437fe7)" style="fill: none; stroke-dasharray: 0.8,1.32; stroke-dashoffset: 0; stroke: #b0b0b0; stroke-width: 0.8"/>
     </g>
     <g id="line2d_20">
      <g>
       <use xlink:href="#m808544b3ad" x="45.875301" y="230.902348" style="stroke: #000000; stroke-width: 0.8"/>
      </g>
     </g>
     <g id="text_11">
      <!-- $\mathdefault{5}$ -->
      <g transform="translate(33.893966 234.361597)scale(0.1 -0.1)">
       <use xlink:href="#CMR17-35" transform="scale(0.996264)"/>
      </g>
     </g>
    </g>
    <g id="ytick_4">
     <g id="line2d_21">
      <path d="M 45.875301 186.853728 
L 718.180182 186.853728 
" clip-path="url(#pe04b437fe7)" style="fill: none; stroke-dasharray: 0.8,1.32; stroke-dashoffset: 0; stroke: #b0b0b0; stroke-width: 0.8"/>
     </g>
     <g id="line2d_22">
      <g>
       <use xlink:href="#m808544b3ad" x="45.875301" y="186.853728" style="stroke: #000000; stroke-width: 0.8"/>
      </g>
     </g>
     <g id="text_12">
      <!-- $\mathdefault{6}$ -->
      <g transform="translate(33.893966 190.312977)scale(0.1 -0.1)">
       <defs>
        <path id="CMR17-36" d="M 678 2176 
C 678 3690 1395 4032 1811 4032 
C 1946 4032 2272 4009 2400 3776 
C 2298 3776 2106 3776 2106 3553 
C 2106 3381 2246 3323 2336 3323 
C 2394 3323 2566 3348 2566 3560 
C 2566 3954 2246 4179 1805 4179 
C 1043 4179 243 3390 243 1984 
C 243 253 966 -128 1478 -128 
C 2099 -128 2688 427 2688 1283 
C 2688 2081 2170 2662 1517 2662 
C 1126 2662 838 2407 678 1960 
L 678 2176 
z
M 1478 25 
C 691 25 691 1200 691 1436 
C 691 1896 909 2560 1504 2560 
C 1613 2560 1926 2560 2138 2120 
C 2253 1870 2253 1609 2253 1289 
C 2253 944 2253 690 2118 434 
C 1978 171 1773 25 1478 25 
z
" transform="scale(0.015625)"/>
       </defs>
       <use xlink:href="#CMR17-36" transform="scale(0.996264)"/>
      </g>
     </g>
    </g>
    <g id="ytick_5">
     <g id="line2d_23">
      <path d="M 45.875301 142.805108 
L 718.180182 142.805108 
" clip-path="url(#pe04b437fe7)" style="fill: none; stroke-dasharray: 0.8,1.32; stroke-dashoffset: 0; stroke: #b0b0b0; stroke-width: 0.8"/>
     </g>
     <g id="line2d_24">
      <g>
       <use xlink:href="#m808544b3ad" x="45.875301" y="142.805108" style="stroke: #000000; stroke-width: 0.8"/>
      </g>
     </g>
     <g id="text_13">
      <!-- $\mathdefault{7}$ -->
      <g transform="translate(33.893966 146.264358)scale(0.1 -0.1)">
       <defs>
        <path id="CMR17-37" d="M 2886 3941 
L 2886 4081 
L 1382 4081 
C 634 4081 621 4165 595 4288 
L 480 4288 
L 294 3094 
L 410 3094 
C 429 3215 474 3540 550 3661 
C 589 3712 1062 3712 1171 3712 
L 2579 3712 
L 1869 2661 
C 1395 1954 1069 999 1069 165 
C 1069 89 1069 -128 1299 -128 
C 1530 -128 1530 89 1530 171 
L 1530 465 
C 1530 1508 1709 2196 2003 2636 
L 2886 3941 
z
" transform="scale(0.015625)"/>
       </defs>
       <use xlink:href="#CMR17-37" transform="scale(0.996264)"/>
      </g>
     </g>
    </g>
    <g id="ytick_6">
     <g id="line2d_25">
      <path d="M 45.875301 98.756489 
L 718.180182 98.756489 
" clip-path="url(#pe04b437fe7)" style="fill: none; stroke-dasharray: 0.8,1.32; stroke-dashoffset: 0; stroke: #b0b0b0; stroke-width: 0.8"/>
     </g>
     <g id="line2d_26">
      <g>
       <use xlink:href="#m808544b3ad" x="45.875301" y="98.756489" style="stroke: #000000; stroke-width: 0.8"/>
      </g>
     </g>
     <g id="text_14">
      <!-- $\mathdefault{8}$ -->
      <g transform="translate(33.893966 102.215738)scale(0.1 -0.1)">
       <defs>
        <path id="CMR17-38" d="M 1741 2264 
C 2144 2467 2554 2773 2554 3263 
C 2554 3841 1990 4179 1472 4179 
C 890 4179 378 3759 378 3180 
C 378 3021 416 2747 666 2505 
C 730 2442 998 2251 1171 2130 
C 883 1983 211 1634 211 934 
C 211 279 838 -128 1459 -128 
C 2144 -128 2720 362 2720 1010 
C 2720 1590 2330 1857 2074 2029 
L 1741 2264 
z
M 902 2822 
C 851 2854 595 3051 595 3351 
C 595 3739 998 4032 1459 4032 
C 1965 4032 2336 3676 2336 3262 
C 2336 2669 1670 2331 1638 2331 
C 1632 2331 1626 2331 1574 2370 
L 902 2822 
z
M 2080 1519 
C 2176 1449 2483 1240 2483 851 
C 2483 381 2010 25 1472 25 
C 890 25 448 438 448 940 
C 448 1443 838 1862 1280 2060 
L 2080 1519 
z
" transform="scale(0.015625)"/>
       </defs>
       <use xlink:href="#CMR17-38" transform="scale(0.996264)"/>
      </g>
     </g>
    </g>
    <g id="ytick_7">
     <g id="line2d_27">
      <path d="M 45.875301 54.707869 
L 718.180182 54.707869 
" clip-path="url(#pe04b437fe7)" style="fill: none; stroke-dasharray: 0.8,1.32; stroke-dashoffset: 0; stroke: #b0b0b0; stroke-width: 0.8"/>
     </g>
     <g id="line2d_28">
      <g>
       <use xlink:href="#m808544b3ad" x="45.875301" y="54.707869" style="stroke: #000000; stroke-width: 0.8"/>
      </g>
     </g>
     <g id="text_15">
      <!-- $\mathdefault{9}$ -->
      <g transform="translate(33.893966 58.167118)scale(0.1 -0.1)">
       <defs>
        <path id="CMR17-39" d="M 2253 1864 
C 2253 464 1670 31 1190 31 
C 1043 31 685 31 538 294 
C 704 268 826 357 826 518 
C 826 692 685 749 595 749 
C 538 749 365 723 365 506 
C 365 71 742 -128 1203 -128 
C 1939 -128 2688 674 2688 2073 
C 2688 3817 1971 4179 1485 4179 
C 851 4179 243 3628 243 2778 
C 243 1991 762 1408 1414 1408 
C 1952 1408 2189 1903 2253 2112 
L 2253 1864 
z
M 1427 1510 
C 1254 1510 1011 1542 813 1922 
C 678 2169 678 2461 678 2771 
C 678 3146 678 3405 858 3684 
C 947 3817 1114 4032 1485 4032 
C 2240 4032 2240 2885 2240 2632 
C 2240 2182 2035 1510 1427 1510 
z
" transform="scale(0.015625)"/>
       </defs>
       <use xlink:href="#CMR17-39" transform="scale(0.996264)"/>
      </g>
     </g>
    </g>
    <g id="ytick_8">
     <g id="line2d_29">
      <path d="M 45.875301 10.659249 
L 718.180182 10.659249 
" clip-path="url(#pe04b437fe7)" style="fill: none; stroke-dasharray: 0.8,1.32; stroke-dashoffset: 0; stroke: #b0b0b0; stroke-width: 0.8"/>
     </g>
     <g id="line2d_30">
      <g>
       <use xlink:href="#m808544b3ad" x="45.875301" y="10.659249" style="stroke: #000000; stroke-width: 0.8"/>
      </g>
     </g>
     <g id="text_16">
      <!-- $\mathdefault{10}$ -->
      <g transform="translate(28.91263 14.118498)scale(0.1 -0.1)">
       <use xlink:href="#CMR17-31" transform="scale(0.996264)"/>
       <use xlink:href="#CMR17-30" transform="translate(45.690477 0)scale(0.996264)"/>
      </g>
     </g>
    </g>
    <g id="text_17">
     <!-- $Re$ -->
     <g transform="translate(21.036997 182.153856)rotate(-90)scale(0.2 -0.2)">
      <defs>
       <path id="CMMI12-52" d="M 2355 3924 
C 2413 4160 2438 4160 2688 4160 
L 3149 4160 
C 3699 4160 4109 3995 4109 3499 
C 4109 3175 3942 2240 2656 2240 
L 1933 2240 
L 2355 3924 
z
M 3245 2169 
C 4038 2341 4659 2851 4659 3398 
C 4659 3894 4154 4352 3264 4352 
L 1530 4352 
C 1402 4352 1344 4352 1344 4226 
C 1344 4160 1389 4160 1510 4160 
C 1894 4160 1894 4112 1894 4045 
C 1894 4033 1894 3994 1869 3899 
L 1005 479 
C 947 256 934 192 493 192 
C 346 192 301 192 301 71 
C 301 7 371 7 390 7 
C 506 7 640 7 762 7 
L 1517 7 
C 1632 7 1766 7 1882 7 
C 1933 7 2003 7 2003 128 
C 2003 192 1946 192 1850 192 
C 1459 192 1459 243 1459 306 
C 1459 313 1459 357 1472 407 
L 1901 2112 
L 2669 2112 
C 3277 2112 3392 1731 3392 1522 
C 3392 1427 3328 1179 3283 1014 
C 3213 723 3194 652 3194 532 
C 3194 82 3565 -128 3994 -128 
C 4512 -128 4736 501 4736 591 
C 4736 635 4704 654 4666 654 
C 4614 654 4602 616 4589 565 
C 4435 114 4173 0 4013 0 
C 3853 0 3750 70 3750 356 
C 3750 509 3827 1088 3834 1120 
C 3866 1355 3866 1380 3866 1432 
C 3866 1896 3488 2093 3245 2169 
z
" transform="scale(0.015625)"/>
       <path id="CMMI12-65" d="M 1146 1479 
C 1318 1479 1754 1479 2061 1595 
C 2547 1783 2592 2158 2592 2274 
C 2592 2558 2349 2816 1926 2816 
C 1254 2816 288 2210 288 1073 
C 288 402 672 -64 1254 -64 
C 2125 -64 2675 609 2675 692 
C 2675 730 2637 762 2611 762 
C 2592 762 2586 756 2528 699 
C 2118 159 1510 64 1267 64 
C 902 64 710 350 710 822 
C 710 911 710 1071 806 1479 
L 1146 1479 
z
M 838 1600 
C 1114 2592 1722 2689 1926 2689 
C 2208 2689 2400 2522 2400 2277 
C 2400 1600 1376 1600 1107 1600 
L 838 1600 
z
" transform="scale(0.015625)"/>
      </defs>
      <use xlink:href="#CMMI12-52" transform="scale(0.996264)"/>
      <use xlink:href="#CMMI12-65" transform="translate(75.070962 0)scale(0.996264)"/>
     </g>
    </g>
   </g>
   <g id="line2d_31">
    <path d="M 74.431395 132.870295 
L 74.472277 20.958213 
L 74.513159 62.250226 
L 74.676687 168.749349 
L 75.821383 205.650155 
L 76.598142 216.208962 
L 77.57931 225.311169 
L 77.988131 227.15848 
L 79.337237 232.283801 
L 80.60458 236.241701 
L 81.626631 238.846032 
L 83.22103 240.787475 
L 84.897193 242.477576 
L 86.65512 243.935718 
L 87.758934 244.634285 
L 89.721271 244.719123 
L 90.620676 244.608517 
L 92.950951 243.653763 
L 94.831524 237.387935 
L 96.834744 231.474011 
L 98.919727 226.003657 
L 101.20912 220.629505 
L 104.193508 214.227038 
L 117.030463 187.744964 
L 120.301025 181.607097 
L 120.341907 181.533272 
L 120.832492 177.787333 
L 120.873374 177.972866 
L 121.077784 176.026489 
L 121.118666 176.137404 
L 121.159548 176.428521 
L 121.323076 174.610238 
L 121.363958 174.658163 
L 121.40484 174.929943 
L 121.445722 174.826341 
L 121.60925 173.528052 
L 121.691014 174.18649 
L 121.854542 172.741916 
L 121.936306 173.412424 
L 121.977188 173.195352 
L 122.099834 172.296717 
L 122.140716 172.494231 
L 122.22248 173.137517 
L 122.345126 172.191264 
L 122.386008 172.395297 
L 122.467772 173.210637 
L 122.508655 172.797946 
L 122.590419 172.425823 
L 122.631301 172.653202 
L 122.713065 173.537478 
L 122.753947 173.325604 
L 122.835711 173.001803 
L 123.244531 175.30026 
L 123.285413 175.093848 
L 123.326295 175.183839 
L 123.408059 176.185725 
L 123.489823 176.048382 
L 126.596857 171.053709 
L 129.826537 166.290423 
L 133.383273 161.445912 
L 136.858245 157.077566 
L 139.352048 154.265326 
L 141.273503 152.417751 
L 142.990548 151.069907 
L 144.707593 150.00719 
L 146.506402 149.155466 
L 148.550504 148.440689 
L 150.512841 147.98179 
L 152.148122 147.822819 
L 152.883998 147.712874 
L 153.824285 134.989386 
L 154.396633 128.242987 
L 154.723689 126.456992 
L 154.887217 126.318943 
L 155.009863 126.587376 
L 155.214274 127.793911 
L 155.500448 131.16601 
L 155.868386 138.083361 
L 155.95015 137.02311 
L 156.440734 129.84508 
L 157.503667 115.56879 
L 157.708077 113.447628 
L 157.994251 111.534597 
L 158.484835 109.288866 
L 158.689246 108.730197 
L 158.811892 109.067962 
L 158.852774 109.167028 
L 159.057184 108.625802 
L 159.098066 108.666107 
L 159.138948 108.574794 
L 159.343358 108.105984 
L 159.466004 108.452471 
L 159.629532 108.759578 
L 159.752178 109.219181 
L 160.855993 117.157712 
L 161.060403 118.801077 
L 161.223931 119.666192 
L 161.550987 123.588193 
L 161.796279 125.622623 
L 162.164218 130.205662 
L 163.268032 142.565264 
L 163.513324 145.248794 
L 163.717735 145.198402 
L 168.010347 144.267346 
L 170.667679 143.88474 
L 172.057667 143.904562 
L 173.243246 144.041994 
L 173.652066 132.47813 
L 173.897358 126.376779 
L 174.387943 118.166909 
L 174.633235 115.96765 
L 174.755881 115.792292 
L 174.960291 114.56523 
L 175.042055 114.6613 
L 175.450875 116.834835 
L 176.227634 124.222009 
L 177.454095 144.9464 
L 188.410477 146.971315 
L 191.353983 147.710583 
L 195.319539 148.975483 
L 198.017752 149.719552 
L 200.38891 150.131671 
L 202.637421 150.303329 
L 204.64064 150.238842 
L 206.562095 149.955565 
L 208.606197 149.423237 
L 211.631466 148.36541 
L 214.452326 147.466377 
L 216.087607 147.175216 
L 217.477596 147.150813 
L 218.785821 147.351895 
L 220.053163 147.76952 
L 221.361388 148.435007 
L 222.751377 149.395839 
L 224.345776 150.785133 
L 226.716933 153.201332 
L 228.638388 155.040009 
L 229.701321 155.774388 
L 230.559843 156.110523 
L 231.29572 156.163381 
L 231.990714 155.98353 
L 232.685709 155.565597 
L 233.462467 154.820735 
L 234.402754 153.581251 
L 234.72981 153.085704 
L 235.015984 149.401037 
L 235.75186 141.723671 
L 236.242445 138.074771 
L 237.182731 133.657532 
L 238.041254 132.066936 
L 238.327428 132.066848 
L 238.654484 131.696223 
L 239.226832 131.596188 
L 239.472125 131.921135 
L 239.799181 132.843337 
L 240.412411 135.555014 
L 240.657703 136.443034 
L 241.025642 137.943066 
L 241.516226 140.99101 
L 242.660922 148.956146 
L 243.519445 148.991957 
L 244.337085 148.797879 
L 245.23649 148.33876 
L 246.381187 147.477434 
L 251.164383 143.566709 
L 252.758782 142.717276 
L 254.475827 142.059145 
L 256.519929 141.521003 
L 258.931968 141.113333 
L 261.344007 140.930664 
L 263.551637 140.982465 
L 265.800148 141.265477 
L 268.416597 141.829652 
L 271.073929 142.540244 
L 271.278339 141.224204 
L 272.995384 128.984502 
L 273.036266 128.883498 
L 273.199794 127.512441 
L 273.240676 127.56433 
L 273.567732 125.32437 
L 273.976553 123.225629 
L 274.140081 122.033762 
L 274.180963 122.172779 
L 274.344491 120.964746 
L 274.385373 121.056587 
L 274.426255 121.065176 
L 274.630665 119.646282 
L 274.671547 119.721914 
L 275.080367 117.551726 
L 275.121249 117.648854 
L 275.162131 117.613174 
L 275.407424 115.96047 
L 275.489188 115.788857 
L 275.979772 112.51393 
L 276.020654 112.55745 
L 276.1433 112.98873 
L 276.225064 112.869402 
L 276.470356 110.672653 
L 276.55212 110.545749 
L 276.593002 110.592485 
L 276.674766 110.836514 
L 276.715648 110.706703 
L 276.797412 110.671949 
L 276.879176 110.9321 
L 276.920058 110.765684 
L 277.124469 109.686801 
L 277.206233 109.704641 
L 277.247115 109.806129 
L 277.287997 109.63685 
L 277.410643 109.480125 
L 277.533289 109.89198 
L 277.615053 110.225296 
L 277.655935 109.969638 
L 277.819463 109.486556 
L 277.860345 109.496291 
L 278.064755 108.9574 
L 278.105637 108.992992 
L 278.228283 109.403877 
L 278.350929 109.976773 
L 278.391811 109.949155 
L 278.800632 108.581445 
L 278.882396 108.635185 
L 279.250334 109.38269 
L 279.618272 107.694835 
L 279.740918 107.694614 
L 279.863564 107.832707 
L 279.904446 107.767603 
L 280.027092 107.763771 
L 280.108856 107.913977 
L 280.476795 105.791097 
L 280.885615 104.96523 
L 281.049143 104.918803 
L 281.457963 102.278044 
L 282.234722 99.248292 
L 282.725306 95.402891 
L 283.62471 90.809193 
L 284.033531 88.068488 
L 284.197059 87.085983 
L 284.564997 85.276774 
L 284.769407 84.494339 
L 285.096463 83.319738 
L 285.178227 83.177241 
L 285.587047 80.504855 
L 285.873222 79.020901 
L 286.24116 77.474354 
L 286.363806 76.92868 
L 286.731744 75.302977 
L 286.977036 74.389585 
L 287.385857 72.828502 
L 287.549385 72.200501 
L 287.958205 70.606425 
L 288.162615 69.850771 
L 288.571435 68.34237 
L 288.775845 67.621603 
L 289.184666 66.256536 
L 289.429958 65.490751 
L 289.838778 64.374603 
L 290.08407 63.775586 
L 290.6973 61.512676 
L 291.964643 57.452186 
L 292.291699 56.89202 
L 292.455227 56.67878 
L 292.741402 56.353834 
L 292.90493 56.433341 
L 292.986694 56.552185 
L 293.027576 56.469549 
L 293.599924 55.485591 
L 294.049626 55.624036 
L 294.254037 56.188387 
L 294.581093 57.18719 
L 294.744621 57.263129 
L 295.112559 57.923374 
L 295.357851 58.956931 
L 295.766671 60.886701 
L 296.011964 61.777276 
L 296.420784 64.430148 
L 296.625194 65.488504 
L 296.993132 67.54857 
L 297.933419 74.43914 
L 298.219593 76.466918 
L 298.955469 82.504927 
L 299.159879 83.771457 
L 300.38634 93.894843 
L 301.653683 104.791898 
L 302.021621 107.914065 
L 302.144267 108.420536 
L 302.593969 112.403588 
L 302.839262 114.383133 
L 302.921026 114.437004 
L 302.961908 114.553337 
L 303.00279 114.343533 
L 303.2072 114.014314 
L 303.288964 113.958196 
L 303.329846 114.042769 
L 303.370728 114.019952 
L 303.493374 113.6795 
L 303.534256 113.704432 
L 303.779548 113.509649 
L 303.902194 113.242979 
L 303.943076 113.287556 
L 304.065722 113.10286 
L 304.106604 113.144618 
L 304.147486 113.21884 
L 304.311014 112.827248 
L 304.351896 112.887991 
L 304.392778 112.790908 
L 304.474542 112.705762 
L 304.515424 112.759457 
L 304.556307 112.762364 
L 304.719835 112.443584 
L 304.760717 112.516925 
L 304.801599 112.402399 
L 304.883363 112.341832 
L 304.924245 112.404205 
L 305.006009 112.217659 
L 305.087773 112.084896 
L 305.128655 112.105907 
L 305.169537 112.174579 
L 305.210419 112.068378 
L 305.292183 112.025607 
L 305.333065 112.09331 
L 305.701003 111.773208 
L 305.782767 111.823468 
L 305.905413 111.600934 
L 305.946295 111.633398 
L 305.987177 111.721187 
L 306.028059 111.629037 
L 306.109823 111.601903 
L 306.191587 111.70925 
L 306.314234 111.500812 
L 306.355116 111.533628 
L 306.395998 111.620139 
L 306.43688 111.558163 
L 306.518644 111.529399 
L 306.600408 111.711937 
L 306.64129 111.607233 
L 306.723054 111.518739 
L 306.763936 111.548604 
L 306.8457 111.609391 
L 306.886582 111.566796 
L 306.968346 111.630138 
L 307.05011 111.764751 
L 307.090992 111.695022 
L 307.172756 111.695374 
L 307.25452 111.799065 
L 307.295402 111.751316 
L 307.377166 111.797259 
L 307.45893 112.039306 
L 307.540694 111.97429 
L 307.622458 112.050979 
L 307.66334 112.141939 
L 307.745104 112.076087 
L 307.86775 112.320204 
L 308.072161 112.584848 
L 308.235689 112.648763 
L 308.521863 113.261215 
L 308.562745 113.225535 
L 308.644509 113.275883 
L 308.767155 113.638007 
L 308.848919 112.227526 
L 309.339503 102.848429 
L 309.503031 99.28287 
L 310.034498 88.302165 
L 310.198026 84.488524 
L 310.811256 71.465506 
L 310.974784 67.594953 
L 311.465369 56.997296 
L 312.160363 45.362998 
L 312.569183 40.241818 
L 312.691829 38.609596 
L 313.100649 33.083873 
L 313.632116 29.265827 
L 313.836526 28.475683 
L 314.163582 26.376501 
L 314.32711 25.754095 
L 314.572402 25.08689 
L 314.695048 25.229255 
L 314.899459 26.089613 
L 315.349161 28.404368 
L 315.512689 28.330719 
L 315.676217 28.690375 
L 315.921509 29.915456 
L 318.578841 46.865937 
L 319.805301 53.244838 
L 320.255004 55.900353 
L 320.541178 56.98276 
L 320.99088 59.993747 
L 321.317936 62.155081 
L 321.563228 63.495172 
L 322.462633 71.107126 
L 322.707925 72.711068 
L 323.362037 78.649395 
L 323.975268 84.664058 
L 324.22056 86.791915 
L 324.874672 93.268735 
L 325.733195 102.22426 
L 326.346425 108.189589 
L 327.491122 120.105049 
L 327.532004 119.9163 
L 328.308762 118.519475 
L 328.349644 118.596207 
L 328.390526 118.776498 
L 328.431408 118.460053 
L 328.513172 118.137749 
L 328.554054 118.151536 
L 328.594937 118.288528 
L 328.635819 118.165544 
L 328.799347 117.918695 
L 328.881111 117.613439 
L 328.921993 117.634802 
L 328.962875 117.778709 
L 329.003757 117.740607 
L 329.126403 117.294659 
L 329.167285 117.379012 
L 329.412577 116.983235 
L 329.494341 116.805763 
L 329.535223 116.892891 
L 329.576105 117.103091 
L 329.616987 116.849988 
L 329.698751 116.571557 
L 329.739633 116.604108 
L 329.780515 116.638907 
L 329.862279 116.456854 
L 329.903161 116.539445 
L 329.944043 116.542925 
L 330.066689 116.1105 
L 330.107571 116.141069 
L 330.148453 116.290835 
L 330.189335 116.276387 
L 330.393746 115.877306 
L 330.434628 115.785289 
L 330.47551 115.806696 
L 330.557274 115.943732 
L 330.67992 115.5343 
L 330.720802 115.622177 
L 330.761684 115.689923 
L 330.802566 115.584075 
L 330.966094 115.419157 
L 331.047858 115.22847 
L 331.08874 115.300622 
L 331.129622 115.489326 
L 331.170504 115.367488 
L 331.252268 115.09051 
L 331.29315 115.115221 
L 331.334032 115.253798 
L 331.374914 115.102579 
L 331.415796 115.042188 
L 331.456678 115.092316 
L 331.538442 115.131431 
L 331.661088 114.828861 
L 331.742852 115.053245 
L 331.783734 114.965588 
L 331.947262 114.799569 
L 332.029027 114.658084 
L 332.069909 114.748032 
L 332.110791 114.949422 
L 332.151673 114.757987 
L 332.233437 114.542193 
L 332.274319 114.589897 
L 332.315201 114.745785 
L 332.356083 114.641522 
L 332.478729 114.649143 
L 332.519611 114.667819 
L 332.601375 114.410487 
L 332.642257 114.431807 
L 332.724021 114.709621 
L 332.764903 114.544791 
L 332.846667 114.420222 
L 332.887549 114.507086 
L 333.010195 114.375645 
L 333.051077 114.469424 
L 333.091959 114.666454 
L 333.132841 114.459425 
L 333.214605 114.294463 
L 333.255487 114.354678 
L 333.296369 114.514178 
L 333.378133 114.412249 
L 333.541661 114.31847 
L 333.582543 114.260678 
L 333.623425 114.294463 
L 333.705189 114.540959 
L 333.746072 114.379697 
L 333.827836 114.311422 
L 333.868718 114.410928 
L 333.9096 114.384366 
L 333.991364 114.315871 
L 334.073128 114.529463 
L 334.11401 114.359303 
L 334.195774 114.25874 
L 334.236656 114.334635 
L 334.277538 114.498364 
L 334.359302 114.407668 
L 334.604594 114.328601 
L 334.686358 114.464491 
L 334.72724 114.355955 
L 334.809004 114.361021 
L 334.849886 114.479952 
L 334.890768 114.383882 
L 334.972532 114.382384 
L 335.013414 114.496822 
L 335.054296 114.467574 
L 335.13606 114.310585 
L 335.176942 114.337851 
L 335.258706 114.513032 
L 335.34047 114.457355 
L 335.422234 114.516777 
L 335.463117 114.401017 
L 335.544881 114.365998 
L 335.626645 114.593818 
L 335.667527 114.47634 
L 335.749291 114.429604 
L 335.831055 114.49136 
L 335.871937 114.434318 
L 335.953701 114.512284 
L 335.994583 114.620026 
L 336.035465 114.499509 
L 336.117229 114.437885 
L 336.158111 114.500567 
L 336.198993 114.62681 
L 336.280757 114.560781 
L 336.362521 114.688786 
L 336.403403 114.581924 
L 336.485167 114.502593 
L 336.526049 114.55228 
L 336.607813 114.743142 
L 336.648695 114.687245 
L 336.893987 114.66641 
L 336.975751 114.906254 
L 337.057515 114.769395 
L 337.302808 114.929644 
L 337.34369 115.062451 
L 337.425454 114.974662 
L 337.507218 115.020032 
L 337.75251 115.386957 
L 337.834274 115.266792 
L 337.875156 115.289874 
L 338.16133 115.767537 
L 338.202212 115.702786 
L 338.283976 115.738905 
L 338.57015 116.30286 
L 338.651914 116.262732 
L 338.692796 116.325721 
L 339.019853 116.968391 
L 339.101617 117.062743 
L 339.469555 117.883148 
L 339.592201 118.295399 
L 339.755729 118.541587 
L 341.39101 124.093916 
L 341.59542 124.783541 
L 342.167768 127.33096 
L 342.290414 127.673791 
L 342.903645 130.471759 
L 343.067173 131.208737 
L 343.230701 131.890213 
L 343.271583 131.880478 
L 343.557757 128.31417 
L 344.007459 122.291754 
L 344.702454 113.002297 
L 344.743336 112.939395 
L 346.215089 92.93978 
L 346.419499 91.943841 
L 346.664791 88.857619 
L 346.746555 88.351588 
L 346.950965 86.741875 
L 347.032729 86.78588 
L 347.155375 85.164847 
L 347.400667 83.093725 
L 347.482432 83.105618 
L 348.136544 79.011739 
L 348.177426 79.018566 
L 348.25919 79.224758 
L 348.300072 79.015924 
L 348.913302 76.199411 
L 348.995066 76.320765 
L 349.07683 76.455642 
L 349.730943 74.517326 
L 349.853589 74.779063 
L 349.894471 74.898743 
L 349.935353 74.777125 
L 350.017117 74.696956 
L 350.057999 74.734442 
L 350.139763 74.826503 
L 350.303291 74.574325 
L 350.344173 74.609828 
L 350.589465 73.9972 
L 350.712111 74.234226 
L 350.793875 74.404738 
L 350.834757 74.335405 
L 350.916522 74.33448 
L 351.039168 74.662026 
L 351.243578 75.094011 
L 351.28446 75.169995 
L 351.325342 75.039214 
L 351.48887 74.786904 
L 351.611516 75.017234 
L 351.734162 75.357201 
L 351.775044 75.327468 
L 351.856808 75.396625 
L 352.020336 76.039162 
L 352.224746 76.65571 
L 352.797095 78.278021 
L 352.960623 79.016452 
L 353.246797 80.270737 
L 354.71855 89.668289 
L 355.822364 98.608794 
L 356.067657 100.340829 
L 356.680887 105.18816 
L 358.070876 113.2591 
L 358.397932 114.422777 
L 359.011162 115.920254 
L 359.17469 116.026895 
L 359.215572 115.834183 
L 359.706157 105.768633 
L 361.096145 83.357664 
L 361.218792 81.857941 
L 361.58673 77.425945 
L 362.19996 72.133811 
L 362.363488 71.241871 
L 362.527016 70.510179 
L 362.567898 70.55828 
L 362.81319 69.142954 
L 362.854072 69.134497 
L 363.058483 68.023811 
L 363.099365 68.104155 
L 363.262893 67.40343 
L 363.344657 67.645697 
L 363.385539 67.481528 
L 363.467303 67.348942 
L 363.508185 67.435013 
L 363.589949 67.554164 
L 363.753477 66.932726 
L 363.794359 66.982545 
L 363.835241 67.13209 
L 363.876123 67.064652 
L 363.957887 66.973692 
L 364.325825 67.870081 
L 364.366707 67.736482 
L 364.407589 67.70274 
L 364.448471 67.768725 
L 365.42964 72.016686 
L 365.715814 73.911305 
L 365.83846 74.586306 
L 366.369927 78.995881 
L 366.492573 79.614632 
L 367.882561 94.050202 
L 368.781966 105.141116 
L 369.109022 109.463959 
L 370.703421 133.120138 
L 371.439297 144.612996 
L 371.970764 150.590041 
L 375.486618 150.336409 
L 378.062185 149.935875 
L 380.474225 149.332409 
L 383.131556 148.426109 
L 386.810938 146.997524 
L 387.056231 144.039307 
L 387.996517 133.104193 
L 388.405337 131.078573 
L 388.691512 130.121793 
L 388.85504 130.0307 
L 389.018568 130.222444 
L 390.122382 132.82585 
L 391.144433 136.767761 
L 391.921191 139.413321 
L 392.738832 141.620024 
L 393.352062 142.111343 
L 393.883529 142.273618 
L 394.292349 142.188031 
L 394.864697 141.777454 
L 395.682338 140.874502 
L 396.74527 139.754169 
L 397.072326 139.433495 
L 397.603793 138.834742 
L 397.849085 138.554196 
L 398.666725 137.487295 
L 398.952899 137.299516 
L 399.607012 137.348498 
L 399.852304 137.800525 
L 400.097596 138.188196 
L 400.342888 138.876368 
L 400.506416 139.625679 
L 400.58818 139.56846 
L 400.751709 139.584934 
L 400.915237 139.830065 
L 401.446703 141.438852 
L 401.691995 142.857438 
L 401.732877 142.69763 
L 402.632282 124.020354 
L 403.368158 113.013882 
L 403.940506 107.351035 
L 404.431091 104.462767 
L 404.799029 103.394764 
L 405.044321 103.156858 
L 405.248731 103.222578 
L 405.494023 103.590208 
L 405.861962 104.663144 
L 406.189018 106.062745 
L 406.2299 105.638249 
L 406.393428 104.584562 
L 406.43431 104.612929 
L 406.475192 104.773046 
L 406.84313 101.255279 
L 406.884012 101.362097 
L 406.965776 101.742236 
L 407.211068 98.924798 
L 407.25195 98.900572 
L 407.415478 99.695033 
L 407.45636 100.13433 
L 407.497242 99.816299 
L 407.742535 97.877146 
L 407.824299 98.332521 
L 407.987827 100.131114 
L 408.028709 99.708688 
L 408.151355 99.191337 
L 408.396647 100.572129 
L 408.601057 102.876092 
L 408.641939 102.872524 
L 408.682821 102.8505 
L 408.764585 103.334197 
L 409.623108 115.748949 
L 410.031928 123.361123 
L 410.113692 123.929218 
L 410.358984 129.253683 
L 410.849568 138.254137 
L 411.135743 141.887664 
L 412.89367 152.999941 
L 413.997484 159.503103 
L 414.038366 159.373909 
L 414.937771 149.204624 
L 415.673647 143.198154 
L 416.286878 139.783241 
L 416.859226 137.766563 
L 417.34981 136.79049 
L 417.75863 136.39784 
L 418.167451 136.293225 
L 418.658035 136.425591 
L 419.557439 136.976067 
L 420.415962 137.394484 
L 421.029192 137.459324 
L 421.683305 137.289561 
L 422.133007 137.058173 
L 422.214771 136.309303 
L 422.623591 132.72141 
L 422.868883 131.083022 
L 423.277704 128.090535 
L 423.318586 128.11855 
L 423.563878 125.423611 
L 423.60476 125.44035 
L 423.645642 125.633723 
L 423.850052 123.242808 
L 423.890934 123.255846 
L 423.931816 123.460937 
L 423.972698 123.25338 
L 424.136226 121.504121 
L 424.177108 121.525925 
L 424.258872 121.957778 
L 424.504164 119.421458 
L 424.545046 119.627914 
L 424.585928 119.374018 
L 424.749457 117.394781 
L 424.790339 117.408568 
L 424.872103 117.80342 
L 425.035631 115.828104 
L 425.076513 115.887746 
L 425.158277 116.549444 
L 425.321805 114.686584 
L 425.403569 115.236751 
L 425.444451 115.552448 
L 425.607979 113.940841 
L 425.730625 114.432379 
L 425.935035 113.238926 
L 425.975917 113.266809 
L 426.057681 113.620784 
L 426.221209 112.611013 
L 426.262091 112.788265 
L 426.343855 113.426133 
L 426.384737 113.140874 
L 426.466502 112.368878 
L 426.507384 112.426846 
L 426.589148 113.536695 
L 426.63003 113.425164 
L 426.752676 112.416626 
L 426.875322 113.899699 
L 426.916204 113.194921 
L 426.997968 112.684442 
L 427.03885 112.926445 
L 427.120614 114.463786 
L 427.161496 113.752841 
L 427.24326 113.172457 
L 427.284142 113.390762 
L 427.365906 114.959025 
L 427.406788 114.426124 
L 427.488552 113.839044 
L 427.529434 114.066071 
L 427.611198 115.678383 
L 427.65208 115.188738 
L 427.733844 114.657952 
L 427.774726 114.926032 
L 427.85649 116.64754 
L 427.897372 116.028745 
L 427.979136 115.615878 
L 428.0609 116.69454 
L 428.101782 117.572297 
L 428.142664 116.944869 
L 428.183547 116.648465 
L 428.224429 116.709649 
L 428.347075 118.468951 
L 428.428839 117.75968 
L 428.510603 118.520312 
L 428.551485 119.512771 
L 428.633249 119.036826 
L 428.674131 118.992733 
L 429.042069 122.04354 
L 429.082951 121.632038 
L 429.123833 121.569577 
L 429.205597 122.595073 
L 429.328243 122.489048 
L 429.532653 122.516711 
L 429.655299 122.570186 
L 430.799996 118.568545 
L 431.576754 117.790778 
L 431.658519 117.7303 
L 431.862929 117.275453 
L 432.598805 115.081039 
L 434.479378 111.466454 
L 434.765552 111.037861 
L 435.133491 110.463423 
L 435.337901 110.198955 
L 435.664957 109.674732 
L 436.073777 109.222705 
L 436.359951 109.006118 
L 436.605243 108.932909 
L 436.850536 108.76319 
L 437.054946 108.856969 
L 437.177592 109.014047 
L 437.218474 108.952114 
L 437.913468 108.13488 
L 438.15876 108.107262 
L 438.812873 108.554355 
L 439.385221 109.438279 
L 439.998451 110.229568 
L 440.325508 111.350958 
L 440.5708 112.013405 
L 440.897856 112.915301 
L 442.042553 117.55274 
L 442.860193 121.926327 
L 442.941957 121.559358 
L 443.023721 122.009667 
L 443.064603 122.319681 
L 443.146367 122.097544 
L 443.596069 124.000444 
L 443.636952 123.872351 
L 443.677834 123.999563 
L 443.80048 124.680115 
L 443.841362 124.639326 
L 444.863412 130.482771 
L 445.067822 131.998617 
L 447.357216 151.048676 
L 447.64339 153.615212 
L 447.725154 154.21978 
L 448.011328 157.45819 
L 448.05221 157.393527 
L 448.133974 157.9999 
L 448.420148 161.043528 
L 448.542794 161.771475 
L 448.788087 164.277093 
L 449.319553 167.606023 
L 450.954834 168.784588 
L 452.549233 169.666177 
L 453.775693 170.181061 
L 455.410974 142.914261 
L 456.065087 133.666782 
L 456.678317 124.159416 
L 457.209783 118.712716 
L 457.495958 116.924474 
L 458.027424 111.01359 
L 458.272716 110.290356 
L 458.395362 110.341584 
L 458.477126 110.398451 
L 458.804182 107.557051 
L 459.131239 106.542831 
L 459.335649 106.404739 
L 459.499177 106.634717 
L 459.662705 107.033224 
L 459.703587 106.88434 
L 459.948879 106.419275 
L 460.030643 106.327918 
L 460.316817 105.669567 
L 460.521227 105.638909 
L 460.725637 105.950069 
L 461.011812 106.940943 
L 461.216222 107.861118 
L 461.257104 107.740865 
L 461.543278 107.306017 
L 461.706806 107.385613 
L 461.911216 107.833059 
L 462.033862 108.291649 
L 463.914435 61.289966 
L 464.282374 56.628829 
L 464.895604 50.906253 
L 465.508834 47.622516 
L 465.549716 47.642823 
L 465.672362 47.865004 
L 465.754126 47.746337 
L 465.876772 47.792896 
L 466.040301 48.256552 
L 466.203829 48.984588 
L 466.244711 48.862353 
L 466.449121 48.572161 
L 466.571767 48.638013 
L 466.776177 49.107043 
L 466.939705 49.339179 
L 467.144115 49.856442 
L 467.471171 51.547336 
L 467.634699 52.383952 
L 467.675582 52.375627 
L 467.83911 52.497113 
L 468.084402 53.110402 
L 468.697632 54.813365 
L 469.515273 58.358222 
L 469.801447 58.71898 
L 470.823497 60.305744 
L 471.150554 60.352347 
L 471.436728 60.147653 
L 471.763784 59.579426 
L 472.131722 58.428568 
L 472.70407 55.710636 
L 474.012295 47.717882 
L 474.421115 46.296609 
L 474.9117 45.470521 
L 475.238756 45.587867 
L 475.402284 45.629228 
L 475.565812 45.62359 
L 475.72934 45.863082 
L 476.179042 47.226431 
L 476.628745 49.668266 
L 477.160211 53.827601 
L 477.977852 62.354753 
L 479.245194 79.458392 
L 483.660453 149.104678 
L 483.783099 150.51093 
L 483.864863 150.463005 
L 484.600739 150.1718 
L 485.336616 150.115285 
L 488.525414 150.476396 
L 490.283341 151.132941 
L 491.550683 151.751956 
L 493.921841 153.27269 
L 494.371543 153.627194 
L 494.412425 153.52227 
L 495.107419 148.899808 
L 495.72065 146.177867 
L 496.292998 144.571458 
L 496.824464 143.698987 
L 497.315049 143.275504 
L 497.846515 143.090632 
L 498.582392 143.087592 
L 501.444133 143.348624 
L 503.161178 111.571774 
L 503.447352 109.078754 
L 503.529116 108.580652 
L 503.856173 104.661647 
L 504.060583 103.925991 
L 504.264993 103.517396 
L 504.592049 101.389935 
L 504.796459 100.630802 
L 504.878223 100.701676 
L 505.041751 101.487107 
L 505.082633 101.790293 
L 505.123515 101.5138 
L 505.368807 100.480331 
L 505.450572 100.557064 
L 505.81851 101.796284 
L 506.104684 103.862737 
L 506.186448 103.699933 
L 506.268212 103.727948 
L 506.390858 104.116369 
L 506.84056 107.113349 
L 507.739965 114.39855 
L 508.026139 116.825012 
L 508.802897 124.257909 
L 510.152004 136.016732 
L 510.356414 137.448312 
L 510.397296 137.298502 
L 510.601707 133.688189 
L 511.828167 117.872753 
L 511.991695 116.259164 
L 512.318752 112.61903 
L 512.604926 110.928928 
L 512.8911 108.061672 
L 513.013746 107.425962 
L 513.054628 107.51516 
L 513.177274 106.254313 
L 513.545212 104.357843 
L 513.667858 103.66302 
L 513.872268 102.18378 
L 513.91315 102.329581 
L 513.954032 102.115328 
L 514.076679 101.773775 
L 514.240207 100.390693 
L 514.281089 100.416109 
L 514.321971 100.586973 
L 514.362853 100.465619 
L 514.403735 100.436767 
L 514.444617 100.528697 
L 514.649027 99.046152 
L 514.689909 99.146143 
L 514.771673 99.453206 
L 514.812555 99.379292 
L 515.016965 98.174518 
L 515.057847 98.252088 
L 515.139611 98.823487 
L 515.180493 98.465371 
L 515.384903 97.891286 
L 515.507549 98.263937 
L 515.630195 97.755836 
L 515.671077 97.86283 
L 515.834606 98.701428 
L 515.957252 98.053913 
L 515.998134 98.113687 
L 516.447836 99.932102 
L 516.5296 99.73776 
L 516.570482 99.840173 
L 516.93842 102.29258 
L 517.020184 102.970884 
L 517.061066 102.937716 
L 517.14283 103.256364 
L 517.960471 110.951613 
L 519.513988 134.051679 
L 520.495156 150.581099 
L 521.680735 166.23686 
L 522.048673 169.633008 
L 523.356898 169.681726 
L 523.765718 169.654152 
L 524.051892 168.039241 
L 524.338067 166.324252 
L 524.542477 165.507106 
L 524.869533 163.814142 
L 525.073943 163.560157 
L 525.196589 163.504524 
L 525.523645 161.685228 
L 526.668342 141.967128 
L 527.894803 125.522809 
L 528.589797 118.362882 
L 528.794207 117.890372 
L 528.875971 117.928298 
L 529.284791 113.833186 
L 529.489202 113.21906 
L 529.570966 113.269892 
L 529.734494 113.85662 
L 529.816258 114.383089 
L 529.85714 114.37331 
L 530.143314 112.925212 
L 530.26596 112.889268 
L 530.388606 113.209105 
L 530.552134 114.017706 
L 530.797426 109.289307 
L 531.410657 98.798203 
L 531.983005 91.329319 
L 532.350943 87.323273 
L 532.759763 84.316514 
L 533.127702 81.272358 
L 533.372994 79.271362 
L 533.70005 77.709486 
L 533.781814 77.414932 
L 534.149752 74.677267 
L 534.844747 71.981755 
L 534.885629 72.017831 
L 535.049157 72.404534 
L 535.171803 72.285691 
L 535.294449 72.42092 
L 535.948561 73.752069 
L 536.071207 73.941214 
L 536.275617 74.844916 
L 537.379432 82.54576 
L 540.56823 111.027025 
L 541.467634 115.302824 
L 542.530567 119.314993 
L 543.5935 122.459668 
L 544.860842 124.782572 
L 546.209949 127.862539 
L 546.659652 128.654798 
L 547.313764 130.397185 
L 547.886112 131.811586 
L 548.213168 132.335148 
L 548.581107 133.402314 
L 549.398747 135.604216 
L 549.684921 136.267941 
L 550.216388 138.403066 
L 550.379916 138.798842 
L 550.829618 139.919836 
L 551.07491 140.966299 
L 552.424017 98.996994 
L 553.159893 82.508186 
L 553.773124 73.326912 
L 554.263708 68.933679 
L 554.631646 67.156978 
L 554.836056 66.870486 
L 554.999584 66.970476 
L 555.203994 67.472983 
L 555.531051 69.047853 
L 556.062517 73.00941 
L 556.716629 79.071072 
L 556.798393 78.470161 
L 556.839275 78.468575 
L 556.921039 79.215244 
L 556.961922 79.075345 
L 557.166332 76.477358 
L 557.370742 77.984481 
L 557.411624 77.364365 
L 557.575152 76.282619 
L 557.616034 76.368998 
L 557.73868 78.370567 
L 557.820444 79.269291 
L 557.861326 78.756786 
L 557.902208 78.502537 
L 557.94309 78.528834 
L 558.1475 80.971726 
L 558.760731 90.801925 
L 558.883377 93.092541 
L 559.128669 98.29944 
L 559.905427 112.293555 
L 561.131888 122.357299 
L 562.358349 130.654825 
L 563.789219 138.784703 
L 566.037731 150.07573 
L 566.937135 153.96051 
L 569.390057 154.402626 
L 569.512703 154.429759 
L 570.412107 148.34343 
L 570.452989 148.468748 
L 570.493871 148.824176 
L 570.534753 148.375629 
L 570.657399 147.278334 
L 570.698282 147.428496 
L 570.739164 147.826783 
L 570.780046 147.68292 
L 570.902692 146.55369 
L 570.943574 146.727286 
L 571.025338 147.328505 
L 571.147984 146.165401 
L 571.188866 146.360052 
L 571.27063 147.305908 
L 571.311512 146.600602 
L 571.393276 146.106376 
L 571.434158 146.318911 
L 571.515922 147.225167 
L 571.556804 146.875597 
L 571.638568 146.367849 
L 571.67945 146.594743 
L 571.802096 147.463646 
L 571.88386 146.940217 
L 571.924742 147.177727 
L 572.047388 148.007515 
L 572.08827 147.911973 
L 572.129152 147.812291 
L 572.578855 150.276327 
L 572.619737 150.19911 
L 573.600905 148.595211 
L 574.459428 147.600329 
L 575.195304 147.073508 
L 575.849417 146.868462 
L 576.462647 146.900485 
L 577.116759 147.16253 
L 577.852636 147.7112 
L 578.75204 148.684542 
L 579.937619 150.326939 
L 584.843462 157.571968 
L 586.396979 157.776574 
L 586.642271 156.032292 
L 588.154906 144.919927 
L 588.195788 144.953844 
L 588.972546 139.926928 
L 589.013428 139.942609 
L 589.05431 140.190382 
L 589.176956 138.91077 
L 589.217838 138.916937 
L 589.25872 139.166384 
L 589.422248 138.001783 
L 589.46313 138.24176 
L 589.504012 137.941172 
L 589.626659 137.205428 
L 589.667541 137.433115 
L 589.708423 137.324007 
L 589.831069 136.535096 
L 589.912833 136.845286 
L 590.035479 135.997042 
L 590.076361 136.191384 
L 590.117243 136.510296 
L 590.158125 135.984136 
L 590.239889 135.59664 
L 590.280771 135.769751 
L 590.321653 136.196802 
L 590.362535 135.773583 
L 590.444299 135.338075 
L 590.485181 135.486871 
L 590.526063 135.902249 
L 590.566945 135.712356 
L 590.648709 135.224385 
L 590.689591 135.345827 
L 590.771355 135.802347 
L 590.853119 135.257554 
L 590.894001 135.34869 
L 590.975765 135.820759 
L 591.016647 135.626901 
L 591.057529 135.438461 
L 591.098411 135.496385 
L 591.221057 135.989201 
L 591.261939 135.767152 
L 591.302822 135.789 
L 591.425468 136.401893 
L 591.46635 136.242569 
L 591.507232 136.225742 
L 591.67076 136.862906 
L 591.711642 136.804805 
L 592.243108 138.843772 
L 592.570164 140.467889 
L 593.183395 143.688768 
L 594.123681 139.505514 
L 594.287209 139.269546 
L 595.063968 135.003261 
L 595.431906 133.289197 
L 595.758962 132.158777 
L 596.1269 130.712397 
L 596.33131 130.020085 
L 596.740131 127.507728 
L 597.108069 125.641035 
L 597.516889 123.650082 
L 597.966591 122.02363 
L 598.33453 120.90898 
L 598.457176 120.713008 
L 598.825114 119.09008 
L 598.988642 118.484808 
L 599.35658 116.570191 
L 599.601872 116.107945 
L 599.683636 116.097065 
L 600.051575 114.699182 
L 600.255985 114.558006 
L 600.419513 114.647909 
L 600.705687 114.046558 
L 600.869215 114.113291 
L 601.073625 114.541972 
L 601.155389 114.396039 
L 601.318917 114.379257 
L 601.441563 114.527657 
L 601.727738 113.706106 
L 601.850384 113.702582 
L 602.013912 114.020437 
L 602.095676 114.316884 
L 602.136558 114.214383 
L 602.340968 113.985947 
L 602.463614 114.131527 
L 602.668024 114.837142 
L 602.749788 115.206358 
L 602.831552 115.164644 
L 602.954198 115.284456 
L 603.158608 115.961395 
L 604.712125 123.807335 
L 604.753007 123.778263 
L 604.957417 122.762194 
L 605.080064 122.687487 
L 605.897704 120.49391 
L 605.938586 120.531351 
L 606.02035 120.688385 
L 606.183878 120.196978 
L 606.22476 120.256444 
L 606.347406 119.863442 
L 606.388288 119.873926 
L 606.470052 120.136015 
L 606.510934 119.99528 
L 606.63358 119.650907 
L 606.674462 119.685398 
L 606.715344 119.79847 
L 606.756227 119.671698 
L 606.837991 119.55171 
L 606.878873 119.610955 
L 606.960637 119.867759 
L 607.001519 119.649498 
L 607.124165 119.437492 
L 607.205929 119.688877 
L 607.287693 119.565013 
L 607.369457 119.698039 
L 607.410339 119.892074 
L 607.451221 119.819217 
L 607.573867 119.509688 
L 607.614749 119.563383 
L 607.900923 120.17469 
L 608.064451 119.917225 
L 608.105333 120.020343 
L 608.268861 120.539368 
L 608.309743 120.510516 
L 608.432389 120.690763 
L 608.473272 120.594913 
L 608.555036 120.648697 
L 608.882092 121.523282 
L 609.127384 122.203701 
L 609.168266 122.313691 
L 609.209148 122.221233 
L 609.290912 122.278408 
L 609.699732 123.475032 
L 609.781496 123.63374 
L 609.822378 123.841165 
L 609.86326 123.738707 
L 609.945024 123.671049 
L 609.985906 123.747077 
L 610.517373 125.362912 
L 610.599137 125.408414 
L 611.089721 127.159788 
L 611.171485 127.926101 
L 611.253249 127.758364 
L 611.335013 127.899496 
L 611.498541 129.075462 
L 611.539423 129.345877 
L 611.621187 129.289142 
L 611.743833 129.795789 
L 612.030008 131.215388 
L 612.806766 135.272266 
L 612.929412 135.881238 
L 613.215586 137.440647 
L 613.624407 140.023526 
L 613.828817 141.091397 
L 614.155873 142.903029 
L 614.237637 143.119175 
L 615.423216 149.70484 
L 615.464098 149.695061 
L 615.545862 149.931603 
L 616.077328 152.520076 
L 616.240856 153.289385 
L 616.32262 153.257317 
L 620.860525 151.359791 
L 632.266609 146.45185 
L 632.757194 146.284641 
L 633.411306 142.140106 
L 633.779244 139.231136 
L 633.983654 138.047461 
L 634.310711 135.74852 
L 634.760413 132.426373 
L 635.087469 129.872302 
L 635.210115 129.430009 
L 635.496289 127.373732 
L 635.537171 127.213835 
L 635.864227 123.723423 
L 636.150402 122.241759 
L 636.395694 120.687768 
L 636.436576 120.678738 
L 636.845396 116.890557 
L 636.92716 117.04988 
L 636.968042 117.274352 
L 637.295098 114.080695 
L 637.33598 114.036779 
L 637.376862 114.090959 
L 637.417744 114.247463 
L 637.458626 114.027044 
L 637.703919 111.39831 
L 637.785683 111.283916 
L 637.867447 111.61754 
L 637.949211 112.336194 
L 637.990093 111.737705 
L 638.276267 109.294681 
L 638.317149 109.302125 
L 638.398913 109.682573 
L 638.480677 110.586098 
L 638.521559 110.050246 
L 638.725969 108.546118 
L 638.807733 108.80649 
L 639.053025 110.112707 
L 639.093907 109.831942 
L 639.298317 109.121746 
L 639.339199 109.198038 
L 639.461846 110.309252 
L 639.584492 111.711496 
L 639.625374 111.685684 
L 639.74802 111.263786 
L 639.829784 111.729776 
L 640.279486 115.729171 
L 641.015362 124.552374 
L 642.200941 142.349117 
L 642.323587 144.210392 
L 642.364469 144.205062 
L 648.292363 143.550103 
L 652.625857 143.34325 
L 672.617167 142.736965 
L 678.13624 142.102269 
L 687.62087 140.738523 
L 687.62087 140.738523 
" clip-path="url(#pe04b437fe7)" style="fill: none; stroke: #1f77b4; stroke-width: 1.5; stroke-linecap: square"/>
   </g>
   <g id="line2d_32">
    <path d="M 74.615582 -1 
L 74.799333 155.595947 
L 75.126389 202.268719 
L 75.535209 231.873268 
L 76.025793 252.359488 
L 76.598142 267.451382 
L 77.252254 279.161884 
L 78.029013 289.106432 
L 78.887535 297.345947 
L 79.868704 304.704048 
L 81.0134 311.597437 
L 81.708395 315.16423 
L 82.812209 308.952274 
L 84.488372 298.043897 
L 88.126872 274.122633 
L 89.762153 265.001045 
L 91.274788 257.79033 
L 92.787423 251.628589 
L 94.463586 245.737615 
L 96.303277 240.076927 
L 98.306496 234.621725 
L 100.59589 229.045699 
L 103.498513 222.584735 
L 108.813177 211.416957 
L 114.086958 200.792209 
L 117.929868 193.465602 
L 121.20043 187.716332 
L 124.348346 182.617793 
L 127.373615 178.150338 
L 130.889469 173.366261 
L 134.814144 168.396123 
L 137.880295 164.834572 
L 140.047043 162.635929 
L 141.845852 161.119467 
L 143.562897 159.963191 
L 145.320824 159.047773 
L 147.283161 158.280358 
L 149.49079 157.654779 
L 151.453127 157.317235 
L 155.991032 156.735661 
L 158.321307 155.870942 
L 161.510105 154.75268 
L 164.780667 153.88479 
L 169.114162 152.951268 
L 171.117381 152.712436 
L 172.548252 152.77428 
L 180.029662 153.485489 
L 187.797247 154.299023 
L 190.781634 154.821131 
L 194.215724 155.669067 
L 197.854224 156.524315 
L 200.634202 156.924938 
L 202.964477 157.050124 
L 204.926815 156.935289 
L 206.725624 156.607039 
L 208.565315 156.038723 
L 210.772944 155.103968 
L 215.065556 153.233443 
L 216.537309 152.877002 
L 217.804652 152.794499 
L 218.990231 152.932943 
L 220.216691 153.305463 
L 221.484034 153.933728 
L 222.833141 154.859938 
L 224.386658 156.213729 
L 226.635169 158.517956 
L 228.67927 160.508205 
L 229.742203 161.246151 
L 230.559843 161.561407 
L 231.254838 161.604355 
L 231.90895 161.424196 
L 232.563063 161.011064 
L 233.298939 160.261841 
L 234.157462 159.034734 
L 235.302158 156.967092 
L 237.387141 153.163758 
L 238.204782 152.131963 
L 238.899776 151.585716 
L 239.513007 151.366178 
L 240.126237 151.372257 
L 240.862113 151.618136 
L 241.925046 152.24323 
L 243.642091 153.239434 
L 244.582378 153.51672 
L 245.481782 153.550153 
L 246.503833 153.350524 
L 247.893822 152.823571 
L 251.409676 151.401681 
L 253.167603 150.988021 
L 255.211704 150.742538 
L 258.76844 150.58132 
L 263.101934 150.594138 
L 266.04544 150.829401 
L 269.234238 151.318738 
L 282.725306 153.882896 
L 285.546165 154.946538 
L 292.618756 157.678654 
L 296.093728 158.782732 
L 298.424003 159.296339 
L 300.508986 159.526185 
L 302.675733 159.53266 
L 305.578357 159.298013 
L 307.745104 158.927784 
L 309.584795 158.376868 
L 312.037717 157.380488 
L 315.308279 156.085415 
L 317.188852 155.58489 
L 318.824133 155.376012 
L 320.255004 155.413013 
L 321.563228 155.66594 
L 322.789689 156.128539 
L 323.975268 156.819661 
L 325.119964 157.755739 
L 326.223779 158.955667 
L 327.327594 160.501201 
L 328.431408 162.447401 
L 329.576105 164.943901 
L 330.761684 168.082585 
L 332.110791 172.324027 
L 333.786954 178.390755 
L 337.75251 193.049431 
L 338.938089 196.4384 
L 339.960139 198.716991 
L 340.941308 200.38335 
L 341.963358 201.700095 
L 342.249532 201.954652 
L 342.290414 201.915713 
L 347.155375 197.410773 
L 347.400667 197.230173 
L 348.095662 193.466087 
L 348.913302 187.703911 
L 349.935353 178.725965 
L 353.328561 147.197196 
L 354.023555 143.305016 
L 354.595904 141.230282 
L 355.045606 140.319181 
L 355.413544 140.017227 
L 355.699718 140.034803 
L 356.026774 140.296407 
L 356.435595 140.93335 
L 357.007943 142.268068 
L 358.029994 145.34134 
L 359.583511 149.917903 
L 360.564679 152.110203 
L 361.545848 153.755155 
L 362.731426 155.292496 
L 364.489353 157.186586 
L 366.04287 158.571123 
L 367.310213 159.415755 
L 368.536674 159.969534 
L 369.885781 160.330204 
L 371.480179 160.522476 
L 373.483399 160.53252 
L 375.977202 160.321042 
L 378.471006 159.892713 
L 381.169219 159.20071 
L 389.345624 156.918771 
L 391.103551 156.771252 
L 392.534422 156.869921 
L 393.72 157.173152 
L 394.742051 157.661563 
L 395.682338 158.361143 
L 396.581742 159.323253 
L 397.440265 160.58159 
L 398.298787 162.252794 
L 399.15731 164.424744 
L 400.056714 167.33508 
L 400.669944 169.740003 
L 401.160529 157.462639 
L 402.714046 120.80736 
L 403.531686 106.383331 
L 404.144917 99.097733 
L 404.635501 95.693039 
L 404.962557 94.60658 
L 405.207849 94.37854 
L 405.371377 94.488706 
L 405.616669 95.019536 
L 405.943726 96.344651 
L 406.43431 99.440299 
L 407.129304 105.47778 
L 408.396647 118.893403 
L 410.440748 140.189105 
L 411.871619 152.678915 
L 413.466018 164.599529 
L 413.874838 167.215048 
L 415.019535 153.180805 
L 415.837175 145.724783 
L 416.491288 141.617073 
L 417.022754 139.484944 
L 417.472456 138.446894 
L 417.840394 138.05006 
L 418.167451 137.985617 
L 418.494507 138.144236 
L 418.944209 138.641501 
L 419.639204 139.806719 
L 421.846833 143.738146 
L 422.909765 145.036964 
L 425.812389 148.305107 
L 427.24326 150.462565 
L 434.152322 161.416663 
L 437.177592 165.549569 
L 439.630513 168.540074 
L 442.001671 171.077847 
L 444.250182 173.16932 
L 446.253401 174.743441 
L 448.05221 175.884785 
L 449.810137 176.737258 
L 451.568064 177.339623 
L 453.407755 177.729321 
L 455.370092 177.916484 
L 457.373312 177.881861 
L 459.376531 177.620124 
L 461.829452 177.060795 
L 467.021469 175.819901 
L 468.779396 175.658904 
L 470.128503 175.752903 
L 471.2732 176.051729 
L 472.29525 176.542607 
L 473.276419 177.260335 
L 474.257587 178.266362 
L 475.238756 179.608964 
L 476.219924 181.337696 
L 476.874037 182.72928 
L 476.914919 182.620127 
L 477.528149 181.02843 
L 478.018734 180.268239 
L 478.427554 179.983069 
L 478.795492 179.989588 
L 479.16343 180.233661 
L 479.613132 180.831577 
L 480.185481 182.015472 
L 480.921357 184.101438 
L 482.025172 187.996085 
L 484.478093 196.831666 
L 485.41838 199.358823 
L 486.23602 200.950916 
L 486.931015 201.848275 
L 487.585127 202.337963 
L 488.198357 202.529971 
L 488.893352 202.506714 
L 489.833638 202.223261 
L 490.896571 201.753086 
L 494.126251 156.894676 
L 494.943891 149.452838 
L 495.598004 145.294472 
L 496.170352 142.894395 
L 496.701818 141.561131 
L 497.151521 140.983434 
L 497.560341 140.802438 
L 497.969161 140.871462 
L 498.500627 141.226098 
L 499.277386 142.064387 
L 500.790021 144.10234 
L 502.466184 146.672798 
L 503.733527 149.040058 
L 505.082633 152.070295 
L 507.249381 157.597868 
L 509.784066 163.886822 
L 511.460229 167.466037 
L 512.972864 170.197712 
L 514.362853 172.270331 
L 515.671077 173.830534 
L 516.856656 174.912896 
L 518.001353 175.666832 
L 519.105167 176.138946 
L 520.249864 176.385618 
L 521.435443 176.410505 
L 522.743668 176.208102 
L 524.21542 175.748499 
L 525.973347 174.951395 
L 528.344505 173.600071 
L 533.005056 170.901741 
L 535.212685 169.927473 
L 537.54296 169.146491 
L 540.649994 168.356435 
L 543.348208 167.883529 
L 545.106135 167.782394 
L 546.373477 167.924318 
L 547.354646 168.247679 
L 548.213168 168.757718 
L 549.030809 169.510774 
L 549.807567 170.533979 
L 550.420798 171.59511 
L 550.502562 169.862986 
L 553.650478 74.195022 
L 554.263708 63.710482 
L 554.71341 59.313857 
L 555.040466 57.887959 
L 555.244877 57.716522 
L 555.408405 57.952314 
L 555.653697 58.879582 
L 556.021635 61.405021 
L 556.553101 66.935766 
L 557.411624 78.686836 
L 559.905427 114.043606 
L 561.009242 126.076236 
L 562.072174 135.327635 
L 563.216871 143.333295 
L 564.565978 151.155978 
L 567.305074 165.328754 
L 568.000068 168.96717 
L 568.04095 168.797362 
L 569.226529 163.99157 
L 570.289461 160.582339 
L 571.27063 158.148212 
L 572.210916 156.371202 
L 573.110321 155.112689 
L 573.927961 154.318625 
L 574.663838 153.894128 
L 575.31795 153.760441 
L 575.931181 153.852943 
L 576.585293 154.187448 
L 577.280287 154.801706 
L 578.097928 155.833897 
L 579.119978 157.501446 
L 580.755259 160.666824 
L 583.249063 165.445879 
L 584.639052 167.628224 
L 585.865512 169.166401 
L 587.010209 170.268101 
L 588.154906 171.063179 
L 589.299602 171.58238 
L 590.485181 171.874334 
L 591.834288 171.96992 
L 593.469569 171.852002 
L 595.799844 171.436447 
L 602.422732 170.143136 
L 606.42917 169.710974 
L 610.435609 169.212344 
L 613.174704 168.63936 
L 615.954682 167.825429 
L 619.061716 166.679548 
L 623.640502 164.965352 
L 625.316665 164.594551 
L 626.62489 164.529844 
L 627.728705 164.688859 
L 628.791637 165.070144 
L 629.813688 165.676297 
L 630.876621 166.567929 
L 631.898671 167.663903 
L 632.062199 165.91438 
L 632.838958 158.018356 
L 633.49307 153.443731 
L 634.024536 151.126774 
L 634.433357 150.146075 
L 634.760413 149.819719 
L 635.046587 149.836722 
L 635.332761 150.107665 
L 635.700699 150.783899 
L 636.232166 152.298687 
L 636.968042 155.159865 
L 638.235385 161.169198 
L 640.810952 173.415331 
L 642.078295 178.453524 
L 644.081514 179.088573 
L 647.43384 180.16195 
L 660.311678 184.790535 
L 663.950178 185.767181 
L 667.138976 186.3895 
L 670.613948 186.83003 
L 673.720982 187.010453 
L 676.746251 186.962925 
L 683.410021 186.728498 
L 684.881774 186.985478 
L 686.149117 187.434465 
L 687.334695 188.096604 
L 687.62087 188.295175 
L 687.62087 188.295175 
" clip-path="url(#pe04b437fe7)" style="fill: none; stroke: #ff7f0e; stroke-width: 1.5; stroke-linecap: square"/>
   </g>
   <g id="patch_3">
    <path d="M 45.875301 329.668097 
L 45.875301 10.583023 
" style="fill: none; stroke: #000000; stroke-width: 0.8; stroke-linejoin: miter; stroke-linecap: square"/>
   </g>
   <g id="patch_4">
    <path d="M 718.180182 329.668097 
L 718.180182 10.583023 
" style="fill: none; stroke: #000000; stroke-width: 0.8; stroke-linejoin: miter; stroke-linecap: square"/>
   </g>
   <g id="patch_5">
    <path d="M 45.875301 329.668097 
L 718.180182 329.668097 
" style="fill: none; stroke: #000000; stroke-width: 0.8; stroke-linejoin: miter; stroke-linecap: square"/>
   </g>
   <g id="patch_6">
    <path d="M 45.875301 10.583023 
L 718.180182 10.583023 
" style="fill: none; stroke: #000000; stroke-width: 0.8; stroke-linejoin: miter; stroke-linecap: square"/>
   </g>
   <g id="legend_1">
    <g id="patch_7">
     <path d="M 624.052605 71.571597 
L 706.280182 71.571597 
Q 709.680182 71.571597 709.680182 68.171597 
L 709.680182 22.483023 
Q 709.680182 19.083023 706.280182 19.083023 
L 624.052605 19.083023 
Q 620.652605 19.083023 620.652605 22.483023 
L 620.652605 68.171597 
Q 620.652605 71.571597 624.052605 71.571597 
z
" style="fill: #ffffff; opacity: 0.8; stroke: #cccccc; stroke-linejoin: miter"/>
    </g>
    <g id="line2d_33">
     <path d="M 627.452605 31.833023 
L 644.452605 31.833023 
L 661.452605 31.833023 
" style="fill: none; stroke: #1f77b4; stroke-width: 1.5; stroke-linecap: square"/>
    </g>
    <g id="text_18">
     <!-- $Re_h$ -->
     <g transform="translate(675.052605 37.783023)scale(0.17 -0.17)">
      <defs>
       <path id="CMMI12-68" d="M 1798 4257 
C 1805 4283 1818 4321 1818 4352 
C 1818 4416 1754 4416 1741 4416 
C 1734 4416 1421 4388 1389 4380 
C 1280 4373 1184 4358 1069 4358 
C 909 4345 864 4339 864 4224 
C 864 4160 915 4160 1005 4160 
C 1318 4160 1325 4103 1325 4040 
C 1325 4002 1312 3951 1306 3932 
L 378 248 
C 352 152 352 140 352 101 
C 352 -38 461 -64 525 -64 
C 634 -64 717 19 749 89 
L 1037 1245 
C 1069 1386 1107 1520 1139 1660 
C 1210 1929 1210 1935 1331 2120 
C 1453 2305 1741 2689 2234 2689 
C 2490 2689 2579 2497 2579 2242 
C 2579 1884 2330 1188 2189 805 
C 2131 651 2099 568 2099 453 
C 2099 166 2298 -64 2605 -64 
C 3200 -64 3424 875 3424 913 
C 3424 945 3398 971 3360 971 
C 3302 971 3296 952 3264 843 
C 3117 332 2880 64 2624 64 
C 2560 64 2458 64 2458 269 
C 2458 436 2534 640 2560 710 
C 2675 1018 2963 1773 2963 2145 
C 2963 2528 2739 2816 2253 2816 
C 1888 2816 1568 2644 1306 2312 
L 1798 4257 
z
" transform="scale(0.015625)"/>
      </defs>
      <use xlink:href="#CMMI12-52" transform="scale(0.996264)"/>
      <use xlink:href="#CMMI12-65" transform="translate(75.070962 0)scale(0.996264)"/>
      <use xlink:href="#CMMI12-68" transform="translate(120.282963 -14.943915)scale(0.697382)"/>
     </g>
    </g>
    <g id="line2d_34">
     <path d="M 627.452605 55.52731 
L 644.452605 55.52731 
L 661.452605 55.52731 
" style="fill: none; stroke: #ff7f0e; stroke-width: 1.5; stroke-linecap: square"/>
    </g>
    <g id="text_19">
     <!-- $Re_{\omega}$ -->
     <g transform="translate(675.052605 61.47731)scale(0.17 -0.17)">
      <defs>
       <path id="CMMI12-21" d="M 3802 2395 
C 3802 2580 3750 2816 3526 2816 
C 3398 2816 3251 2657 3251 2529 
C 3251 2472 3277 2434 3328 2376 
C 3424 2268 3546 2096 3546 1797 
C 3546 1567 3405 1204 3302 1007 
C 3123 656 2829 357 2496 357 
C 2093 357 1939 615 1869 975 
C 1939 1143 2086 1560 2086 1728 
C 2086 1798 2061 1856 1978 1856 
C 1933 1856 1882 1831 1850 1779 
C 1760 1638 1677 1129 1683 994 
C 1562 756 1216 357 806 357 
C 378 357 262 733 262 1096 
C 262 1758 678 2338 794 2497 
C 858 2593 902 2657 902 2669 
C 902 2714 877 2784 819 2784 
C 717 2784 685 2701 634 2625 
C 307 2121 77 1414 77 803 
C 77 408 224 -64 704 -64 
C 1235 -64 1568 391 1702 634 
C 1754 275 1946 -64 2413 -64 
C 2899 -64 3206 363 3437 879 
C 3603 1249 3802 2045 3802 2395 
z
" transform="scale(0.015625)"/>
      </defs>
      <use xlink:href="#CMMI12-52" transform="scale(0.996264)"/>
      <use xlink:href="#CMMI12-65" transform="translate(75.070962 0)scale(0.996264)"/>
      <use xlink:href="#CMMI12-21" transform="translate(120.282963 -14.943915)scale(0.697382)"/>
     </g>
    </g>
   </g>
  </g>
 </g>
 <defs>
  <clipPath id="pe04b437fe7">
   <rect x="45.875301" y="10.583023" width="672.304882" height="319.085074"/>
  </clipPath>
 </defs>
</svg>
