<?xml version="1.0" encoding="utf-8" standalone="no"?>
<!DOCTYPE svg PUBLIC "-//W3C//DTD SVG 1.1//EN"
  "http://www.w3.org/Graphics/SVG/1.1/DTD/svg11.dtd">
<svg xmlns:xlink="http://www.w3.org/1999/xlink" width="725.380182pt" height="373.266031pt" viewBox="0 0 725.380182 373.266031" xmlns="http://www.w3.org/2000/svg" version="1.1">
 <metadata>
  <rdf:RDF xmlns:dc="http://purl.org/dc/elements/1.1/" xmlns:cc="http://creativecommons.org/ns#" xmlns:rdf="http://www.w3.org/1999/02/22-rdf-syntax-ns#">
   <cc:Work>
    <dc:type rdf:resource="http://purl.org/dc/dcmitype/StillImage"/>
    <dc:date>2022-05-03T22:25:11.125400</dc:date>
    <dc:format>image/svg+xml</dc:format>
    <dc:creator>
     <cc:Agent>
      <dc:title>Matplotlib v3.5.1, https://matplotlib.org/</dc:title>
     </cc:Agent>
    </dc:creator>
   </cc:Work>
  </rdf:RDF>
 </metadata>
 <defs>
  <style type="text/css">*{stroke-linejoin: round; stroke-linecap: butt}</style>
 </defs>
 <g id="figure_1">
  <g id="patch_1">
   <path d="M 0 373.266031 
L 725.380182 373.266031 
L 725.380182 0 
L 0 0 
z
" style="fill: #ffffff"/>
  </g>
  <g id="axes_1">
   <g id="patch_2">
    <path d="M 45.875301 326.285074 
L 718.180182 326.285074 
L 718.180182 7.2 
L 45.875301 7.2 
z
" style="fill: #ffffff"/>
   </g>
   <g id="matplotlib.axis_1">
    <g id="xtick_1">
     <g id="line2d_1">
      <path d="M 75.414269 326.285074 
L 75.414269 7.2 
" clip-path="url(#pbd71796672)" style="fill: none; stroke-dasharray: 0.8,1.32; stroke-dashoffset: 0; stroke: #b0b0b0; stroke-width: 0.8"/>
     </g>
     <g id="line2d_2">
      <defs>
       <path id="m67baddaf3a" d="M 0 0 
L 0 3.5 
" style="stroke: #000000; stroke-width: 0.8"/>
      </defs>
      <g>
       <use xlink:href="#m67baddaf3a" x="75.414269" y="326.285074" style="stroke: #000000; stroke-width: 0.8"/>
      </g>
     </g>
     <g id="text_1">
      <!-- $\mathdefault{0}$ -->
      <g transform="translate(72.923602 340.203572)scale(0.1 -0.1)">
       <defs>
        <path id="CMR17-30" d="M 2688 2025 
C 2688 2416 2682 3080 2413 3591 
C 2176 4039 1798 4198 1466 4198 
C 1158 4198 768 4058 525 3597 
C 269 3118 243 2524 243 2025 
C 243 1661 250 1106 448 619 
C 723 -39 1216 -128 1466 -128 
C 1760 -128 2208 -7 2470 600 
C 2662 1042 2688 1559 2688 2025 
z
M 1466 -26 
C 1056 -26 813 325 723 812 
C 653 1188 653 1738 653 2096 
C 653 2588 653 2997 736 3387 
C 858 3929 1216 4096 1466 4096 
C 1728 4096 2067 3923 2189 3400 
C 2272 3036 2278 2607 2278 2096 
C 2278 1680 2278 1169 2202 792 
C 2067 95 1690 -26 1466 -26 
z
" transform="scale(0.015625)"/>
       </defs>
       <use xlink:href="#CMR17-30" transform="scale(0.996264)"/>
      </g>
     </g>
    </g>
    <g id="xtick_2">
     <g id="line2d_3">
      <path d="M 177.448703 326.285074 
L 177.448703 7.2 
" clip-path="url(#pbd71796672)" style="fill: none; stroke-dasharray: 0.8,1.32; stroke-dashoffset: 0; stroke: #b0b0b0; stroke-width: 0.8"/>
     </g>
     <g id="line2d_4">
      <g>
       <use xlink:href="#m67baddaf3a" x="177.448703" y="326.285074" style="stroke: #000000; stroke-width: 0.8"/>
      </g>
     </g>
     <g id="text_2">
      <!-- $\mathdefault{10}$ -->
      <g transform="translate(172.467367 340.203572)scale(0.1 -0.1)">
       <defs>
        <path id="CMR17-31" d="M 1702 4058 
C 1702 4192 1696 4192 1606 4192 
C 1357 3916 979 3827 621 3827 
C 602 3827 570 3827 563 3808 
C 557 3795 557 3782 557 3648 
C 755 3648 1088 3686 1344 3839 
L 1344 461 
C 1344 236 1331 160 781 160 
L 589 160 
L 589 0 
C 896 0 1216 0 1523 0 
C 1830 0 2150 0 2458 0 
L 2458 160 
L 2266 160 
C 1715 160 1702 230 1702 458 
L 1702 4058 
z
" transform="scale(0.015625)"/>
       </defs>
       <use xlink:href="#CMR17-31" transform="scale(0.996264)"/>
       <use xlink:href="#CMR17-30" transform="translate(45.690477 0)scale(0.996264)"/>
      </g>
     </g>
    </g>
    <g id="xtick_3">
     <g id="line2d_5">
      <path d="M 279.483136 326.285074 
L 279.483136 7.2 
" clip-path="url(#pbd71796672)" style="fill: none; stroke-dasharray: 0.8,1.32; stroke-dashoffset: 0; stroke: #b0b0b0; stroke-width: 0.8"/>
     </g>
     <g id="line2d_6">
      <g>
       <use xlink:href="#m67baddaf3a" x="279.483136" y="326.285074" style="stroke: #000000; stroke-width: 0.8"/>
      </g>
     </g>
     <g id="text_3">
      <!-- $\mathdefault{20}$ -->
      <g transform="translate(274.501801 340.203572)scale(0.1 -0.1)">
       <defs>
        <path id="CMR17-32" d="M 2669 989 
L 2554 989 
C 2490 536 2438 459 2413 420 
C 2381 369 1920 369 1830 369 
L 602 369 
C 832 619 1280 1072 1824 1597 
C 2214 1967 2669 2402 2669 3035 
C 2669 3790 2067 4224 1395 4224 
C 691 4224 262 3604 262 3030 
C 262 2780 448 2748 525 2748 
C 589 2748 781 2787 781 3010 
C 781 3207 614 3264 525 3264 
C 486 3264 448 3258 422 3245 
C 544 3790 915 4058 1306 4058 
C 1862 4058 2227 3617 2227 3035 
C 2227 2479 1901 2000 1536 1584 
L 262 146 
L 262 0 
L 2515 0 
L 2669 989 
z
" transform="scale(0.015625)"/>
       </defs>
       <use xlink:href="#CMR17-32" transform="scale(0.996264)"/>
       <use xlink:href="#CMR17-30" transform="translate(45.690477 0)scale(0.996264)"/>
      </g>
     </g>
    </g>
    <g id="xtick_4">
     <g id="line2d_7">
      <path d="M 381.517569 326.285074 
L 381.517569 7.2 
" clip-path="url(#pbd71796672)" style="fill: none; stroke-dasharray: 0.8,1.32; stroke-dashoffset: 0; stroke: #b0b0b0; stroke-width: 0.8"/>
     </g>
     <g id="line2d_8">
      <g>
       <use xlink:href="#m67baddaf3a" x="381.517569" y="326.285074" style="stroke: #000000; stroke-width: 0.8"/>
      </g>
     </g>
     <g id="text_4">
      <!-- $\mathdefault{30}$ -->
      <g transform="translate(376.536234 340.203572)scale(0.1 -0.1)">
       <defs>
        <path id="CMR17-33" d="M 1414 2157 
C 1984 2157 2234 1662 2234 1090 
C 2234 320 1824 25 1453 25 
C 1114 25 563 194 390 693 
C 422 680 454 680 486 680 
C 640 680 755 782 755 948 
C 755 1133 614 1216 486 1216 
C 378 1216 211 1165 211 926 
C 211 335 787 -128 1466 -128 
C 2176 -128 2720 430 2720 1085 
C 2720 1707 2208 2157 1600 2227 
C 2086 2328 2554 2756 2554 3329 
C 2554 3820 2048 4179 1472 4179 
C 890 4179 378 3829 378 3329 
C 378 3110 544 3072 627 3072 
C 762 3072 877 3155 877 3321 
C 877 3486 762 3569 627 3569 
C 602 3569 570 3569 544 3557 
C 730 3959 1235 4032 1459 4032 
C 1683 4032 2106 3925 2106 3320 
C 2106 3143 2080 2828 1862 2550 
C 1670 2304 1453 2304 1242 2284 
C 1210 2284 1062 2269 1037 2269 
C 992 2263 966 2257 966 2208 
C 966 2163 973 2157 1101 2157 
L 1414 2157 
z
" transform="scale(0.015625)"/>
       </defs>
       <use xlink:href="#CMR17-33" transform="scale(0.996264)"/>
       <use xlink:href="#CMR17-30" transform="translate(45.690477 0)scale(0.996264)"/>
      </g>
     </g>
    </g>
    <g id="xtick_5">
     <g id="line2d_9">
      <path d="M 483.552003 326.285074 
L 483.552003 7.2 
" clip-path="url(#pbd71796672)" style="fill: none; stroke-dasharray: 0.8,1.32; stroke-dashoffset: 0; stroke: #b0b0b0; stroke-width: 0.8"/>
     </g>
     <g id="line2d_10">
      <g>
       <use xlink:href="#m67baddaf3a" x="483.552003" y="326.285074" style="stroke: #000000; stroke-width: 0.8"/>
      </g>
     </g>
     <g id="text_5">
      <!-- $\mathdefault{40}$ -->
      <g transform="translate(478.570668 340.203572)scale(0.1 -0.1)">
       <defs>
        <path id="CMR17-34" d="M 2150 4122 
C 2150 4256 2144 4256 2029 4256 
L 128 1254 
L 128 1088 
L 1779 1088 
L 1779 457 
C 1779 224 1766 160 1318 160 
L 1197 160 
L 1197 0 
C 1402 0 1747 0 1965 0 
C 2182 0 2528 0 2733 0 
L 2733 160 
L 2611 160 
C 2163 160 2150 224 2150 457 
L 2150 1088 
L 2803 1088 
L 2803 1254 
L 2150 1254 
L 2150 4122 
z
M 1798 3703 
L 1798 1254 
L 256 1254 
L 1798 3703 
z
" transform="scale(0.015625)"/>
       </defs>
       <use xlink:href="#CMR17-34" transform="scale(0.996264)"/>
       <use xlink:href="#CMR17-30" transform="translate(45.690477 0)scale(0.996264)"/>
      </g>
     </g>
    </g>
    <g id="xtick_6">
     <g id="line2d_11">
      <path d="M 585.586436 326.285074 
L 585.586436 7.2 
" clip-path="url(#pbd71796672)" style="fill: none; stroke-dasharray: 0.8,1.32; stroke-dashoffset: 0; stroke: #b0b0b0; stroke-width: 0.8"/>
     </g>
     <g id="line2d_12">
      <g>
       <use xlink:href="#m67baddaf3a" x="585.586436" y="326.285074" style="stroke: #000000; stroke-width: 0.8"/>
      </g>
     </g>
     <g id="text_6">
      <!-- $\mathdefault{50}$ -->
      <g transform="translate(580.605101 340.203572)scale(0.1 -0.1)">
       <defs>
        <path id="CMR17-35" d="M 730 3692 
C 794 3666 1056 3584 1325 3584 
C 1920 3584 2246 3911 2432 4100 
C 2432 4157 2432 4192 2394 4192 
C 2387 4192 2374 4192 2323 4163 
C 2099 4058 1837 3973 1517 3973 
C 1325 3973 1037 3999 723 4139 
C 653 4171 640 4171 634 4171 
C 602 4171 595 4164 595 4037 
L 595 2203 
C 595 2089 595 2057 659 2057 
C 691 2057 704 2070 736 2114 
C 941 2401 1222 2522 1542 2522 
C 1766 2522 2246 2382 2246 1289 
C 2246 1085 2246 715 2054 421 
C 1894 159 1645 25 1370 25 
C 947 25 518 320 403 814 
C 429 807 480 795 506 795 
C 589 795 749 840 749 1038 
C 749 1210 627 1280 506 1280 
C 358 1280 262 1190 262 1011 
C 262 454 704 -128 1382 -128 
C 2042 -128 2669 440 2669 1264 
C 2669 2030 2170 2624 1549 2624 
C 1222 2624 947 2503 730 2274 
L 730 3692 
z
" transform="scale(0.015625)"/>
       </defs>
       <use xlink:href="#CMR17-35" transform="scale(0.996264)"/>
       <use xlink:href="#CMR17-30" transform="translate(45.690477 0)scale(0.996264)"/>
      </g>
     </g>
    </g>
    <g id="xtick_7">
     <g id="line2d_13">
      <path d="M 687.62087 326.285074 
L 687.62087 7.2 
" clip-path="url(#pbd71796672)" style="fill: none; stroke-dasharray: 0.8,1.32; stroke-dashoffset: 0; stroke: #b0b0b0; stroke-width: 0.8"/>
     </g>
     <g id="line2d_14">
      <g>
       <use xlink:href="#m67baddaf3a" x="687.62087" y="326.285074" style="stroke: #000000; stroke-width: 0.8"/>
      </g>
     </g>
     <g id="text_7">
      <!-- $\mathdefault{60}$ -->
      <g transform="translate(682.639534 340.203572)scale(0.1 -0.1)">
       <defs>
        <path id="CMR17-36" d="M 678 2176 
C 678 3690 1395 4032 1811 4032 
C 1946 4032 2272 4009 2400 3776 
C 2298 3776 2106 3776 2106 3553 
C 2106 3381 2246 3323 2336 3323 
C 2394 3323 2566 3348 2566 3560 
C 2566 3954 2246 4179 1805 4179 
C 1043 4179 243 3390 243 1984 
C 243 253 966 -128 1478 -128 
C 2099 -128 2688 427 2688 1283 
C 2688 2081 2170 2662 1517 2662 
C 1126 2662 838 2407 678 1960 
L 678 2176 
z
M 1478 25 
C 691 25 691 1200 691 1436 
C 691 1896 909 2560 1504 2560 
C 1613 2560 1926 2560 2138 2120 
C 2253 1870 2253 1609 2253 1289 
C 2253 944 2253 690 2118 434 
C 1978 171 1773 25 1478 25 
z
" transform="scale(0.015625)"/>
       </defs>
       <use xlink:href="#CMR17-36" transform="scale(0.996264)"/>
       <use xlink:href="#CMR17-30" transform="translate(45.690477 0)scale(0.996264)"/>
      </g>
     </g>
    </g>
    <g id="text_8">
     <!-- $t U_{\infty} / H_{box}$ -->
     <g transform="translate(341.630715 361.084711)scale(0.2 -0.2)">
      <defs>
       <path id="CMMI12-74" d="M 1286 2566 
L 1875 2566 
C 1997 2566 2061 2566 2061 2681 
C 2061 2752 2022 2752 1894 2752 
L 1331 2752 
L 1568 3692 
C 1594 3781 1594 3794 1594 3840 
C 1594 3943 1510 4000 1427 4000 
C 1376 4000 1229 3981 1178 3775 
L 928 2752 
L 326 2752 
C 198 2752 141 2752 141 2630 
C 141 2566 186 2566 307 2566 
L 877 2566 
L 454 881 
C 403 658 384 594 384 511 
C 384 211 595 -64 954 -64 
C 1600 -64 1946 868 1946 912 
C 1946 951 1920 970 1882 970 
C 1869 970 1843 970 1830 944 
C 1824 938 1818 931 1773 829 
C 1638 511 1344 64 973 64 
C 781 64 768 224 768 364 
C 768 370 768 492 787 568 
L 1286 2566 
z
" transform="scale(0.015625)"/>
       <path id="CMMI12-55" d="M 3238 1474 
C 3014 581 2272 57 1670 57 
C 1210 57 896 363 896 891 
C 896 916 896 1107 966 1387 
L 1594 3887 
C 1651 4103 1664 4167 2118 4167 
C 2234 4167 2298 4167 2298 4282 
C 2298 4352 2240 4352 2202 4352 
C 2086 4352 1952 4352 1830 4352 
L 1075 4352 
C 954 4352 819 4352 698 4352 
C 653 4352 576 4352 576 4231 
C 576 4167 621 4167 742 4167 
C 1126 4167 1126 4116 1126 4046 
C 1126 4008 1082 3824 1050 3715 
L 493 1488 
C 474 1418 435 1246 435 1075 
C 435 374 941 -128 1638 -128 
C 2285 -128 3002 384 3328 1197 
C 3373 1305 3430 1530 3469 1702 
C 3533 1933 3667 2496 3712 2662 
L 3955 3623 
C 4038 3956 4090 4167 4653 4167 
C 4704 4173 4730 4224 4730 4282 
C 4730 4352 4672 4352 4646 4352 
C 4557 4352 4442 4352 4352 4352 
L 4051 4352 
C 3654 4352 3450 4352 3443 4352 
C 3405 4352 3328 4352 3328 4231 
C 3328 4167 3379 4167 3424 4167 
C 3808 4167 3834 4020 3834 3905 
C 3834 3848 3834 3828 3808 3739 
L 3238 1474 
z
" transform="scale(0.015625)"/>
       <path id="CMSY10-31" d="M 3251 1730 
C 2906 2166 2829 2262 2630 2422 
C 2272 2710 1914 2825 1587 2825 
C 838 2825 352 2122 352 1374 
C 352 639 826 -70 1562 -70 
C 2298 -70 2829 511 3142 1022 
C 3488 588 3565 492 3763 332 
C 4122 45 4480 -70 4806 -70 
C 5555 -70 6042 633 6042 1380 
C 6042 2115 5568 2825 4832 2825 
C 4096 2825 3565 2242 3251 1730 
z
M 3418 1514 
C 3680 1975 4154 2620 4877 2620 
C 5555 2620 5901 1955 5901 1380 
C 5901 753 5472 236 4909 236 
C 4538 236 4250 505 4115 638 
C 3955 811 3808 1009 3418 1514 
z
M 2976 1240 
C 2714 780 2240 134 1517 134 
C 838 134 493 799 493 1374 
C 493 2000 922 2518 1485 2518 
C 1856 2518 2144 2249 2278 2115 
C 2438 1943 2586 1744 2976 1240 
z
" transform="scale(0.015625)"/>
       <path id="CMMI12-3d" d="M 2746 4562 
C 2746 4569 2784 4666 2784 4678 
C 2784 4755 2720 4800 2669 4800 
C 2637 4800 2579 4800 2528 4659 
L 384 -1363 
C 384 -1370 346 -1465 346 -1478 
C 346 -1555 410 -1600 461 -1600 
C 499 -1600 557 -1593 602 -1459 
L 2746 4562 
z
" transform="scale(0.015625)"/>
       <path id="CMMI12-48" d="M 4787 3887 
C 4845 4103 4858 4167 5312 4167 
C 5427 4167 5491 4167 5491 4282 
C 5491 4352 5434 4352 5395 4352 
C 5280 4352 5146 4352 5024 4352 
L 4269 4352 
C 4147 4352 4013 4352 3891 4352 
C 3846 4352 3770 4352 3770 4231 
C 3770 4167 3814 4167 3936 4167 
C 4320 4167 4320 4116 4320 4046 
C 4320 4034 4320 3995 4294 3900 
L 3904 2361 
L 1971 2361 
L 2355 3887 
C 2413 4103 2426 4167 2880 4167 
C 2995 4167 3059 4167 3059 4282 
C 3059 4352 3002 4352 2963 4352 
C 2848 4352 2714 4352 2592 4352 
L 1837 4352 
C 1715 4352 1581 4352 1459 4352 
C 1414 4352 1338 4352 1338 4231 
C 1338 4167 1382 4167 1504 4167 
C 1888 4167 1888 4116 1888 4046 
C 1888 4034 1888 3995 1862 3899 
L 998 472 
C 941 249 928 185 486 185 
C 339 185 294 185 294 64 
C 294 0 365 0 384 0 
C 499 0 634 0 755 0 
L 1510 0 
C 1632 0 1766 0 1888 0 
C 1939 0 2010 0 2010 121 
C 2010 185 1952 185 1856 185 
C 1466 185 1466 236 1466 300 
C 1466 307 1466 351 1478 402 
L 1920 2176 
L 3859 2176 
C 3750 1753 3424 416 3411 376 
C 3341 185 3238 185 2861 185 
C 2784 185 2726 185 2726 64 
C 2726 0 2797 0 2816 0 
C 2931 0 3066 0 3187 0 
L 3942 0 
C 4064 0 4198 0 4320 0 
C 4371 0 4442 0 4442 121 
C 4442 185 4384 185 4288 185 
C 3898 185 3898 236 3898 300 
C 3898 307 3898 351 3910 402 
L 4787 3887 
z
" transform="scale(0.015625)"/>
       <path id="CMMI12-62" d="M 1478 4257 
C 1485 4283 1498 4321 1498 4352 
C 1498 4416 1434 4416 1421 4416 
C 1414 4416 1184 4393 1069 4377 
C 960 4377 864 4358 749 4358 
C 595 4345 550 4339 550 4224 
C 550 4160 614 4160 678 4160 
C 1005 4160 1005 4103 1005 4040 
C 1005 3996 954 3811 928 3696 
L 774 3085 
C 710 2831 346 1387 320 1272 
C 288 1114 288 1005 288 922 
C 288 274 653 -64 1069 -64 
C 1811 -64 2579 888 2579 1814 
C 2579 2401 2246 2816 1766 2816 
C 1434 2816 1133 2542 1011 2414 
L 1478 4257 
z
M 1075 64 
C 870 64 646 217 646 715 
C 646 926 666 1047 781 1494 
C 800 1577 902 1986 928 2069 
C 941 2120 1318 2689 1754 2689 
C 2035 2689 2163 2408 2163 2076 
C 2163 1769 1984 1047 1824 715 
C 1664 370 1370 64 1075 64 
z
" transform="scale(0.015625)"/>
       <path id="CMMI12-6f" d="M 2918 1756 
C 2918 2363 2522 2816 1939 2816 
C 1094 2816 262 1897 262 996 
C 262 390 659 -64 1242 -64 
C 2093 -64 2918 856 2918 1756 
z
M 1248 64 
C 928 64 691 319 691 766 
C 691 1060 845 1712 1024 2031 
C 1312 2523 1670 2689 1933 2689 
C 2246 2689 2490 2433 2490 1986 
C 2490 1731 2355 1047 2112 658 
C 1850 230 1498 64 1248 64 
z
" transform="scale(0.015625)"/>
       <path id="CMMI12-78" d="M 3034 2606 
C 2829 2567 2752 2414 2752 2293 
C 2752 2139 2874 2088 2963 2088 
C 3155 2088 3290 2254 3290 2427 
C 3290 2695 2982 2816 2714 2816 
C 2323 2816 2106 2433 2048 2312 
C 1901 2816 1504 2816 1389 2816 
C 736 2816 390 1980 390 1839 
C 390 1814 416 1782 461 1782 
C 512 1782 525 1820 538 1846 
C 755 2555 1184 2689 1370 2689 
C 1658 2689 1715 2420 1715 2267 
C 1715 2127 1677 1980 1600 1673 
L 1382 798 
C 1286 415 1101 64 762 64 
C 730 64 570 64 435 147 
C 666 192 717 383 717 460 
C 717 588 621 664 499 664 
C 346 664 179 530 179 326 
C 179 57 480 -64 755 -64 
C 1062 -64 1280 179 1414 441 
C 1517 64 1837 -64 2074 -64 
C 2726 -64 3072 773 3072 913 
C 3072 945 3046 971 3008 971 
C 2950 971 2944 939 2925 888 
C 2752 326 2381 64 2093 64 
C 1869 64 1747 230 1747 492 
C 1747 632 1773 734 1875 1156 
L 2099 2024 
C 2195 2408 2413 2689 2707 2689 
C 2720 2689 2899 2689 3034 2606 
z
" transform="scale(0.015625)"/>
      </defs>
      <use xlink:href="#CMMI12-74" transform="scale(0.996264)"/>
      <use xlink:href="#CMMI12-55" transform="translate(35.22633 0)scale(0.996264)"/>
      <use xlink:href="#CMSY10-31" transform="translate(101.478449 -14.943915)scale(0.697382)"/>
      <use xlink:href="#CMMI12-3d" transform="translate(171.714956 0)scale(0.996264)"/>
      <use xlink:href="#CMMI12-48" transform="translate(220.489874 0)scale(0.996264)"/>
      <use xlink:href="#CMMI12-62" transform="translate(301.314711 -14.943915)scale(0.697382)"/>
      <use xlink:href="#CMMI12-6f" transform="translate(330.347698 -14.943915)scale(0.697382)"/>
      <use xlink:href="#CMMI12-78" transform="translate(363.17426 -14.943915)scale(0.697382)"/>
     </g>
    </g>
   </g>
   <g id="matplotlib.axis_2">
    <g id="ytick_1">
     <g id="line2d_15">
      <path d="M 45.875301 311.411548 
L 718.180182 311.411548 
" clip-path="url(#pbd71796672)" style="fill: none; stroke-dasharray: 0.8,1.32; stroke-dashoffset: 0; stroke: #b0b0b0; stroke-width: 0.8"/>
     </g>
     <g id="line2d_16">
      <defs>
       <path id="m0bc43f21fb" d="M 0 0 
L -3.5 0 
" style="stroke: #000000; stroke-width: 0.8"/>
      </defs>
      <g>
       <use xlink:href="#m0bc43f21fb" x="45.875301" y="311.411548" style="stroke: #000000; stroke-width: 0.8"/>
      </g>
     </g>
     <g id="text_9">
      <!-- $\mathdefault{24}$ -->
      <g transform="translate(28.91263 314.870797)scale(0.1 -0.1)">
       <use xlink:href="#CMR17-32" transform="scale(0.996264)"/>
       <use xlink:href="#CMR17-34" transform="translate(45.690477 0)scale(0.996264)"/>
      </g>
     </g>
    </g>
    <g id="ytick_2">
     <g id="line2d_17">
      <path d="M 45.875301 274.99193 
L 718.180182 274.99193 
" clip-path="url(#pbd71796672)" style="fill: none; stroke-dasharray: 0.8,1.32; stroke-dashoffset: 0; stroke: #b0b0b0; stroke-width: 0.8"/>
     </g>
     <g id="line2d_18">
      <g>
       <use xlink:href="#m0bc43f21fb" x="45.875301" y="274.99193" style="stroke: #000000; stroke-width: 0.8"/>
      </g>
     </g>
     <g id="text_10">
      <!-- $\mathdefault{26}$ -->
      <g transform="translate(28.91263 278.451179)scale(0.1 -0.1)">
       <use xlink:href="#CMR17-32" transform="scale(0.996264)"/>
       <use xlink:href="#CMR17-36" transform="translate(45.690477 0)scale(0.996264)"/>
      </g>
     </g>
    </g>
    <g id="ytick_3">
     <g id="line2d_19">
      <path d="M 45.875301 238.572312 
L 718.180182 238.572312 
" clip-path="url(#pbd71796672)" style="fill: none; stroke-dasharray: 0.8,1.32; stroke-dashoffset: 0; stroke: #b0b0b0; stroke-width: 0.8"/>
     </g>
     <g id="line2d_20">
      <g>
       <use xlink:href="#m0bc43f21fb" x="45.875301" y="238.572312" style="stroke: #000000; stroke-width: 0.8"/>
      </g>
     </g>
     <g id="text_11">
      <!-- $\mathdefault{28}$ -->
      <g transform="translate(28.91263 242.031561)scale(0.1 -0.1)">
       <defs>
        <path id="CMR17-38" d="M 1741 2264 
C 2144 2467 2554 2773 2554 3263 
C 2554 3841 1990 4179 1472 4179 
C 890 4179 378 3759 378 3180 
C 378 3021 416 2747 666 2505 
C 730 2442 998 2251 1171 2130 
C 883 1983 211 1634 211 934 
C 211 279 838 -128 1459 -128 
C 2144 -128 2720 362 2720 1010 
C 2720 1590 2330 1857 2074 2029 
L 1741 2264 
z
M 902 2822 
C 851 2854 595 3051 595 3351 
C 595 3739 998 4032 1459 4032 
C 1965 4032 2336 3676 2336 3262 
C 2336 2669 1670 2331 1638 2331 
C 1632 2331 1626 2331 1574 2370 
L 902 2822 
z
M 2080 1519 
C 2176 1449 2483 1240 2483 851 
C 2483 381 2010 25 1472 25 
C 890 25 448 438 448 940 
C 448 1443 838 1862 1280 2060 
L 2080 1519 
z
" transform="scale(0.015625)"/>
       </defs>
       <use xlink:href="#CMR17-32" transform="scale(0.996264)"/>
       <use xlink:href="#CMR17-38" transform="translate(45.690477 0)scale(0.996264)"/>
      </g>
     </g>
    </g>
    <g id="ytick_4">
     <g id="line2d_21">
      <path d="M 45.875301 202.152694 
L 718.180182 202.152694 
" clip-path="url(#pbd71796672)" style="fill: none; stroke-dasharray: 0.8,1.32; stroke-dashoffset: 0; stroke: #b0b0b0; stroke-width: 0.8"/>
     </g>
     <g id="line2d_22">
      <g>
       <use xlink:href="#m0bc43f21fb" x="45.875301" y="202.152694" style="stroke: #000000; stroke-width: 0.8"/>
      </g>
     </g>
     <g id="text_12">
      <!-- $\mathdefault{30}$ -->
      <g transform="translate(28.91263 205.611943)scale(0.1 -0.1)">
       <use xlink:href="#CMR17-33" transform="scale(0.996264)"/>
       <use xlink:href="#CMR17-30" transform="translate(45.690477 0)scale(0.996264)"/>
      </g>
     </g>
    </g>
    <g id="ytick_5">
     <g id="line2d_23">
      <path d="M 45.875301 165.733076 
L 718.180182 165.733076 
" clip-path="url(#pbd71796672)" style="fill: none; stroke-dasharray: 0.8,1.32; stroke-dashoffset: 0; stroke: #b0b0b0; stroke-width: 0.8"/>
     </g>
     <g id="line2d_24">
      <g>
       <use xlink:href="#m0bc43f21fb" x="45.875301" y="165.733076" style="stroke: #000000; stroke-width: 0.8"/>
      </g>
     </g>
     <g id="text_13">
      <!-- $\mathdefault{32}$ -->
      <g transform="translate(28.91263 169.192325)scale(0.1 -0.1)">
       <use xlink:href="#CMR17-33" transform="scale(0.996264)"/>
       <use xlink:href="#CMR17-32" transform="translate(45.690477 0)scale(0.996264)"/>
      </g>
     </g>
    </g>
    <g id="ytick_6">
     <g id="line2d_25">
      <path d="M 45.875301 129.313458 
L 718.180182 129.313458 
" clip-path="url(#pbd71796672)" style="fill: none; stroke-dasharray: 0.8,1.32; stroke-dashoffset: 0; stroke: #b0b0b0; stroke-width: 0.8"/>
     </g>
     <g id="line2d_26">
      <g>
       <use xlink:href="#m0bc43f21fb" x="45.875301" y="129.313458" style="stroke: #000000; stroke-width: 0.8"/>
      </g>
     </g>
     <g id="text_14">
      <!-- $\mathdefault{34}$ -->
      <g transform="translate(28.91263 132.772708)scale(0.1 -0.1)">
       <use xlink:href="#CMR17-33" transform="scale(0.996264)"/>
       <use xlink:href="#CMR17-34" transform="translate(45.690477 0)scale(0.996264)"/>
      </g>
     </g>
    </g>
    <g id="ytick_7">
     <g id="line2d_27">
      <path d="M 45.875301 92.89384 
L 718.180182 92.89384 
" clip-path="url(#pbd71796672)" style="fill: none; stroke-dasharray: 0.8,1.32; stroke-dashoffset: 0; stroke: #b0b0b0; stroke-width: 0.8"/>
     </g>
     <g id="line2d_28">
      <g>
       <use xlink:href="#m0bc43f21fb" x="45.875301" y="92.89384" style="stroke: #000000; stroke-width: 0.8"/>
      </g>
     </g>
     <g id="text_15">
      <!-- $\mathdefault{36}$ -->
      <g transform="translate(28.91263 96.35309)scale(0.1 -0.1)">
       <use xlink:href="#CMR17-33" transform="scale(0.996264)"/>
       <use xlink:href="#CMR17-36" transform="translate(45.690477 0)scale(0.996264)"/>
      </g>
     </g>
    </g>
    <g id="ytick_8">
     <g id="line2d_29">
      <path d="M 45.875301 56.474223 
L 718.180182 56.474223 
" clip-path="url(#pbd71796672)" style="fill: none; stroke-dasharray: 0.8,1.32; stroke-dashoffset: 0; stroke: #b0b0b0; stroke-width: 0.8"/>
     </g>
     <g id="line2d_30">
      <g>
       <use xlink:href="#m0bc43f21fb" x="45.875301" y="56.474223" style="stroke: #000000; stroke-width: 0.8"/>
      </g>
     </g>
     <g id="text_16">
      <!-- $\mathdefault{38}$ -->
      <g transform="translate(28.91263 59.933472)scale(0.1 -0.1)">
       <use xlink:href="#CMR17-33" transform="scale(0.996264)"/>
       <use xlink:href="#CMR17-38" transform="translate(45.690477 0)scale(0.996264)"/>
      </g>
     </g>
    </g>
    <g id="ytick_9">
     <g id="line2d_31">
      <path d="M 45.875301 20.054605 
L 718.180182 20.054605 
" clip-path="url(#pbd71796672)" style="fill: none; stroke-dasharray: 0.8,1.32; stroke-dashoffset: 0; stroke: #b0b0b0; stroke-width: 0.8"/>
     </g>
     <g id="line2d_32">
      <g>
       <use xlink:href="#m0bc43f21fb" x="45.875301" y="20.054605" style="stroke: #000000; stroke-width: 0.8"/>
      </g>
     </g>
     <g id="text_17">
      <!-- $\mathdefault{40}$ -->
      <g transform="translate(28.91263 23.513854)scale(0.1 -0.1)">
       <use xlink:href="#CMR17-34" transform="scale(0.996264)"/>
       <use xlink:href="#CMR17-30" transform="translate(45.690477 0)scale(0.996264)"/>
      </g>
     </g>
    </g>
    <g id="text_18">
     <!-- $Re$ -->
     <g transform="translate(21.036997 178.770833)rotate(-90)scale(0.2 -0.2)">
      <defs>
       <path id="CMMI12-52" d="M 2355 3924 
C 2413 4160 2438 4160 2688 4160 
L 3149 4160 
C 3699 4160 4109 3995 4109 3499 
C 4109 3175 3942 2240 2656 2240 
L 1933 2240 
L 2355 3924 
z
M 3245 2169 
C 4038 2341 4659 2851 4659 3398 
C 4659 3894 4154 4352 3264 4352 
L 1530 4352 
C 1402 4352 1344 4352 1344 4226 
C 1344 4160 1389 4160 1510 4160 
C 1894 4160 1894 4112 1894 4045 
C 1894 4033 1894 3994 1869 3899 
L 1005 479 
C 947 256 934 192 493 192 
C 346 192 301 192 301 71 
C 301 7 371 7 390 7 
C 506 7 640 7 762 7 
L 1517 7 
C 1632 7 1766 7 1882 7 
C 1933 7 2003 7 2003 128 
C 2003 192 1946 192 1850 192 
C 1459 192 1459 243 1459 306 
C 1459 313 1459 357 1472 407 
L 1901 2112 
L 2669 2112 
C 3277 2112 3392 1731 3392 1522 
C 3392 1427 3328 1179 3283 1014 
C 3213 723 3194 652 3194 532 
C 3194 82 3565 -128 3994 -128 
C 4512 -128 4736 501 4736 591 
C 4736 635 4704 654 4666 654 
C 4614 654 4602 616 4589 565 
C 4435 114 4173 0 4013 0 
C 3853 0 3750 70 3750 356 
C 3750 509 3827 1088 3834 1120 
C 3866 1355 3866 1380 3866 1432 
C 3866 1896 3488 2093 3245 2169 
z
" transform="scale(0.015625)"/>
       <path id="CMMI12-65" d="M 1146 1479 
C 1318 1479 1754 1479 2061 1595 
C 2547 1783 2592 2158 2592 2274 
C 2592 2558 2349 2816 1926 2816 
C 1254 2816 288 2210 288 1073 
C 288 402 672 -64 1254 -64 
C 2125 -64 2675 609 2675 692 
C 2675 730 2637 762 2611 762 
C 2592 762 2586 756 2528 699 
C 2118 159 1510 64 1267 64 
C 902 64 710 350 710 822 
C 710 911 710 1071 806 1479 
L 1146 1479 
z
M 838 1600 
C 1114 2592 1722 2689 1926 2689 
C 2208 2689 2400 2522 2400 2277 
C 2400 1600 1376 1600 1107 1600 
L 838 1600 
z
" transform="scale(0.015625)"/>
      </defs>
      <use xlink:href="#CMMI12-52" transform="scale(0.996264)"/>
      <use xlink:href="#CMMI12-65" transform="translate(75.070962 0)scale(0.996264)"/>
     </g>
    </g>
   </g>
   <g id="line2d_33">
    <path d="M 75.448281 87.569839 
L 75.459989 -1 
M 75.561495 -1 
L 75.584327 47.518638 
L 75.65235 29.617304 
L 75.720373 26.010305 
L 75.754384 27.709098 
L 75.924442 52.802032 
L 76.298568 100.851709 
L 76.638683 124.525007 
L 76.876763 122.251877 
L 76.910775 122.273546 
L 77.114844 123.262703 
L 77.522981 124.967687 
L 78.101176 129.482992 
L 78.679371 136.033242 
L 79.427623 147.266691 
L 80.652037 169.766367 
L 81.298255 180.064014 
L 81.910462 183.703062 
L 82.760749 190.195405 
L 83.815104 200.031616 
L 85.073529 214.03423 
L 86.842126 236.548292 
L 88.610719 260.071541 
L 88.678746 259.861582 
L 90.141236 252.330551 
L 90.957511 249.172606 
L 91.671752 246.534187 
L 92.726115 239.350235 
L 93.54239 235.185288 
L 94.188605 232.915435 
L 94.698777 231.813924 
L 95.106915 231.38399 
L 95.413018 231.326265 
L 95.719122 231.494706 
L 96.093251 232.00367 
L 96.535397 233.026515 
L 97.079577 234.889014 
L 97.75981 238.099585 
L 98.576086 243.128953 
L 99.562422 250.680925 
L 100.820843 262.156928 
L 102.623455 280.872606 
L 103.133627 286.410937 
L 103.167635 286.074966 
L 106.058607 256.148784 
L 106.228668 256.19012 
L 106.432737 256.620236 
L 106.772848 258.033499 
L 107.555116 262.471412 
L 108.881563 269.898464 
L 109.833881 273.91919 
L 111.024287 277.927533 
L 112.588811 282.397131 
L 114.221362 286.411119 
L 116.057982 290.314392 
L 118.302739 294.554182 
L 118.574835 294.862474 
L 119.93529 294.43163 
L 121.295756 294.220942 
L 122.792255 294.211837 
L 124.52684 294.433633 
L 126.805616 294.97155 
L 133.675931 296.73517 
L 137.417197 297.54842 
L 138.845679 298.112196 
L 140.138108 298.871545 
L 141.39654 299.876362 
L 142.791003 301.293268 
L 144.389546 303.254464 
L 146.498261 306.21811 
L 146.634304 306.066605 
L 152.144163 300.088871 
L 153.572645 298.972427 
L 154.729032 298.337087 
L 155.749376 298.024607 
L 156.667686 297.972891 
L 157.551988 298.146248 
L 158.43629 298.544679 
L 159.422616 299.246303 
L 160.544995 300.339984 
L 161.905461 302.001629 
L 163.776089 304.669002 
L 166.565026 308.857076 
L 166.633053 308.767302 
L 169.149906 305.632119 
L 170.850473 303.851199 
L 172.244947 302.695969 
L 173.46936 301.959382 
L 174.591739 301.541103 
L 175.646091 301.386866 
L 176.666435 301.463711 
L 177.720829 301.775281 
L 178.843207 302.355992 
L 180.067621 303.259199 
L 181.462023 304.584508 
L 183.094574 306.449375 
L 185.407389 309.440154 
L 186.019595 310.211339 
L 186.053573 310.168911 
L 189.21664 306.389465 
L 190.917248 304.703965 
L 192.277673 303.650709 
L 193.468109 302.995521 
L 194.55651 302.642979 
L 195.576854 302.540457 
L 196.597199 302.66483 
L 197.617543 303.01373 
L 198.739922 303.645793 
L 199.930256 304.576678 
L 201.290783 305.925479 
L 202.957311 307.907799 
L 205.202069 310.952843 
L 205.304103 310.811535 
L 210.405825 303.914388 
L 212.004398 302.201209 
L 213.296766 301.120639 
L 214.453225 300.428666 
L 215.507546 300.051359 
L 216.493913 299.937912 
L 217.412223 300.05846 
L 218.296454 300.397163 
L 219.214763 300.994809 
L 220.167153 301.888728 
L 221.221475 303.197832 
L 222.445888 305.090559 
L 224.146496 308.174572 
L 225.813024 311.357283 
L 225.847002 311.29282 
L 228.261851 306.957065 
L 230.09847 304.095393 
L 231.662964 302.034407 
L 233.023491 300.593647 
L 234.213825 299.652564 
L 235.268249 299.097529 
L 236.220536 298.838221 
L 237.138846 298.816369 
L 238.023179 299.016131 
L 238.907409 299.440966 
L 239.825719 300.128568 
L 240.812086 301.151413 
L 241.934465 302.665377 
L 243.226935 304.818869 
L 244.995498 308.255424 
L 246.492037 311.285536 
L 246.526014 311.214882 
L 248.804749 306.741278 
L 250.539334 303.817876 
L 252.035874 301.726297 
L 253.294264 300.327237 
L 254.416643 299.391071 
L 255.436987 298.82074 
L 256.355297 298.557608 
L 257.205652 298.543222 
L 258.021928 298.752635 
L 258.838203 299.192402 
L 259.722433 299.935362 
L 260.674823 301.037784 
L 261.797202 302.696516 
L 263.293639 305.34841 
L 266.252637 310.985985 
L 266.320694 310.901491 
L 268.837578 306.361422 
L 271.048256 302.78975 
L 272.782841 300.392064 
L 274.075311 298.95786 
L 275.129633 298.091619 
L 276.047943 297.612519 
L 276.864218 297.433517 
L 277.612539 297.488328 
L 278.394735 297.771491 
L 279.24509 298.325797 
L 280.265434 299.27471 
L 281.727894 300.975689 
L 287.407844 308.180217 
L 289.074373 310.814995 
L 289.176407 310.667131 
L 291.455142 306.528588 
L 294.414141 301.228259 
L 295.774668 299.258321 
L 296.82899 298.099267 
L 297.7473 297.406202 
L 298.563575 297.052385 
L 299.379851 296.936025 
L 300.264183 297.044373 
L 301.318505 297.413122 
L 302.849021 298.206159 
L 304.88971 299.502697 
L 306.318192 300.659384 
L 307.610662 301.998716 
L 308.93711 303.708799 
L 310.467626 306.072068 
L 312.57627 309.786505 
L 313.188477 310.906408 
L 313.222556 310.845587 
L 315.739337 306.435353 
L 317.099865 304.48745 
L 318.188164 303.289245 
L 319.174531 302.510775 
L 320.160898 302.008549 
L 321.215219 301.719559 
L 322.50769 301.599921 
L 324.072183 301.675674 
L 325.432609 301.954466 
L 326.623044 302.432837 
L 327.745423 303.129181 
L 328.935859 304.140371 
L 330.262306 305.575122 
L 331.860778 307.653772 
L 334.071558 310.838849 
L 334.139615 310.737239 
L 336.656396 307.171576 
L 338.050901 305.583863 
L 339.207257 304.605268 
L 340.261681 304.006165 
L 341.316003 303.663638 
L 342.540416 303.512679 
L 344.10491 303.556018 
L 345.805518 303.81824 
L 347.131965 304.235244 
L 348.356379 304.850008 
L 349.580792 305.715156 
L 350.941217 306.966352 
L 352.471733 308.691367 
L 354.37641 311.171725 
L 354.512422 311.005287 
L 358.287696 306.122873 
L 359.614144 304.819597 
L 360.702545 304.049869 
L 361.688912 303.613197 
L 362.675177 303.415985 
L 363.763578 303.431099 
L 365.124003 303.679481 
L 367.198771 304.300618 
L 368.967334 305.042485 
L 370.429794 305.909636 
L 371.790321 306.980919 
L 373.286758 308.460831 
L 375.021343 310.513986 
L 375.837619 311.519896 
L 375.871698 311.4751 
L 381.993764 303.587157 
L 383.218177 302.514417 
L 384.238522 301.903114 
L 385.122752 301.616128 
L 385.973107 301.567143 
L 386.82336 301.738497 
L 387.775647 302.167338 
L 388.932106 302.953092 
L 390.632612 304.411151 
L 393.931793 307.573831 
L 396.074516 309.924535 
L 397.536976 311.716016 
L 397.605032 311.628245 
L 400.461997 307.742636 
L 403.250904 304.043677 
L 404.849477 302.279329 
L 406.07389 301.240823 
L 407.094235 300.649369 
L 408.012545 300.369484 
L 408.82882 300.342351 
L 409.645096 300.533008 
L 410.529326 300.981516 
L 411.481715 301.721198 
L 412.706129 302.984413 
L 414.508669 305.218938 
L 418.318022 310.365394 
L 419.27031 311.676865 
L 419.304287 311.626788 
L 425.868571 302.173712 
L 427.092984 300.961485 
L 428.113328 300.246204 
L 429.031638 299.868896 
L 429.847913 299.761094 
L 430.664189 299.869989 
L 431.548419 300.22162 
L 432.534786 300.865519 
L 433.759199 301.948274 
L 435.527762 303.843916 
L 437.77252 306.563186 
L 439.779231 309.324886 
L 441.173736 311.458711 
L 441.24169 311.352184 
L 446.2074 303.460963 
L 447.431813 302.054073 
L 448.452158 301.196027 
L 449.404445 300.669035 
L 450.356835 300.389333 
L 451.411156 300.316311 
L 452.737604 300.465632 
L 454.336177 300.875535 
L 455.73058 301.452239 
L 456.954993 302.196656 
L 458.145429 303.179258 
L 459.40382 304.504385 
L 460.866381 306.377993 
L 462.805035 309.269528 
L 464.029449 311.21907 
L 464.097404 311.125472 
L 466.750299 307.051573 
L 468.110826 305.372083 
L 469.233205 304.325201 
L 470.253549 303.66637 
L 471.307871 303.259199 
L 472.464227 303.061076 
L 474.028823 303.037221 
L 475.831363 303.223325 
L 477.157811 303.571679 
L 478.348247 304.115424 
L 479.504603 304.886791 
L 480.763096 305.997772 
L 482.259533 307.644485 
L 484.062175 309.974976 
L 484.980485 311.197765 
L 485.014462 311.150419 
L 488.109575 307.037188 
L 489.436023 305.65306 
L 490.524322 304.813588 
L 491.544666 304.299707 
L 492.56501 304.039853 
L 493.687389 303.993236 
L 495.183928 304.173331 
L 497.394708 304.676468 
L 498.959202 305.24425 
L 500.251672 305.94296 
L 501.57812 306.92192 
L 503.04058 308.305501 
L 504.741188 310.250308 
L 505.727452 311.465267 
L 505.795509 311.378042 
L 510.965288 304.908461 
L 512.223679 303.790197 
L 513.278 303.13865 
L 514.23039 302.807595 
L 515.1487 302.728201 
L 516.100987 302.879524 
L 517.189388 303.295436 
L 518.61787 304.103952 
L 520.99864 305.750665 
L 523.073306 307.433433 
L 524.739936 309.066489 
L 526.542477 311.159888 
L 527.018671 311.697806 
L 527.052649 311.654285 
L 529.637589 308.160733 
L 532.596588 304.225047 
L 534.127104 302.541186 
L 535.317438 301.5391 
L 536.337782 300.959482 
L 537.222115 300.698353 
L 538.072368 300.673588 
L 538.9567 300.883911 
L 539.87501 301.338974 
L 540.997389 302.166428 
L 542.493928 303.575867 
L 545.180801 306.455566 
L 547.731661 309.476938 
L 549.466247 311.781207 
L 549.568281 311.649368 
L 556.098485 302.627865 
L 557.356876 301.437307 
L 558.411299 300.738779 
L 559.329609 300.392246 
L 560.179862 300.308845 
L 560.996138 300.449971 
L 561.88047 300.840754 
L 562.866735 301.5391 
L 564.057171 302.672661 
L 565.757779 304.626209 
L 568.546686 308.193146 
L 570.961535 311.609489 
L 571.063569 311.45252 
L 576.811475 302.78283 
L 577.967831 301.569875 
L 578.988176 300.804698 
L 579.906485 300.382595 
L 580.824795 300.209238 
L 581.777185 300.263503 
L 582.899563 300.567971 
L 584.328046 301.205861 
L 585.960597 302.175715 
L 587.423056 303.294708 
L 588.817561 304.65061 
L 590.28002 306.404397 
L 592.014606 308.873829 
L 593.613179 311.329058 
L 593.681134 311.217431 
L 596.708189 306.458298 
L 598.102694 304.691582 
L 599.225073 303.606095 
L 600.279395 302.890086 
L 601.333716 302.450865 
L 602.490175 302.220693 
L 603.986612 302.168067 
L 605.619163 302.320847 
L 606.94561 302.658093 
L 608.102069 303.177619 
L 609.258425 303.943341 
L 610.482838 305.025732 
L 611.877343 306.566646 
L 613.645905 308.888033 
L 615.312434 311.228539 
L 615.380491 311.128932 
L 617.965329 307.528306 
L 619.359834 305.96809 
L 620.482212 305.032652 
L 621.502557 304.459225 
L 622.556879 304.127078 
L 623.747314 304.00052 
L 625.413843 304.073723 
L 627.454531 304.378556 
L 628.849036 304.801205 
L 630.107427 305.419428 
L 631.33184 306.269098 
L 632.692367 307.493525 
L 634.256861 309.213078 
L 636.025424 311.402625 
L 636.127458 311.269511 
L 640.276893 306.018349 
L 641.60334 304.749125 
L 642.691741 304.002523 
L 643.644029 303.602818 
L 644.562339 303.447852 
L 645.514626 303.507945 
L 646.671084 303.823156 
L 648.235578 304.508027 
L 650.58237 305.787631 
L 652.316956 306.963256 
L 653.847472 308.270356 
L 655.411966 309.902137 
L 656.874528 311.666303 
L 656.976562 311.547575 
L 659.629457 308.014872 
L 662.31633 304.541351 
L 663.812869 302.955095 
L 665.003203 302.008913 
L 665.98957 301.495943 
L 666.873902 301.272691 
L 667.724155 301.278336 
L 668.608488 301.507415 
L 669.594752 302.000901 
L 670.819166 302.881163 
L 672.621808 304.476524 
L 675.444795 307.27264 
L 677.451404 309.547592 
L 679.220069 311.777201 
L 679.288024 311.684695 
L 682.315079 307.374798 
L 684.831962 303.948804 
L 686.328399 302.266582 
L 687.518835 301.244283 
L 687.62087 301.172537 
L 687.62087 301.172537 
" clip-path="url(#pbd71796672)" style="fill: none; stroke: #1f77b4; stroke-width: 1.5; stroke-linecap: square"/>
   </g>
   <g id="line2d_34">
    <path d="M 76.176132 -1 
L 76.400602 19.654899 
L 76.638683 28.720653 
L 76.706706 29.134744 
L 76.80874 31.676105 
L 77.182866 42.586512 
L 78.339257 66.46813 
L 82.862783 149.514328 
L 85.379633 192.094142 
L 88.202582 243.456729 
L 88.270608 242.744179 
L 90.821469 217.102765 
L 91.841813 209.15473 
L 92.658089 204.388677 
L 93.338322 201.637903 
L 93.882502 200.278359 
L 94.29064 199.759379 
L 94.630751 199.65704 
L 94.936854 199.822021 
L 95.276976 200.290013 
L 95.719122 201.344725 
L 96.229294 203.181913 
L 96.8415 206.248991 
L 97.589749 211.23684 
L 98.440043 218.475421 
L 99.460388 229.177325 
L 100.684801 244.496691 
L 102.317352 267.973688 
L 102.827524 275.530758 
L 102.861532 275.033266 
L 105.344366 240.286766 
L 106.024599 232.193052 
L 106.058607 232.30923 
L 106.534772 240.949603 
L 107.351047 250.346593 
L 108.099296 256.541387 
L 108.983598 261.998321 
L 110.003942 266.899855 
L 111.228355 271.708519 
L 112.622829 276.294842 
L 114.153346 280.577607 
L 115.989966 285.043198 
L 118.064662 289.564694 
L 119.357102 289.175732 
L 120.717558 288.995819 
L 122.214066 289.031511 
L 123.914633 289.303383 
L 126.091375 289.880634 
L 133.301801 291.92687 
L 136.532895 292.763975 
L 137.927369 293.368905 
L 139.117764 294.12006 
L 140.308169 295.13726 
L 141.56659 296.516106 
L 142.995072 298.430868 
L 144.729658 301.15196 
L 145.954071 303.194554 
L 146.022097 303.104779 
L 151.395914 296.175947 
L 152.790378 294.832974 
L 153.946775 294.01244 
L 154.933101 293.575222 
L 155.817403 293.423352 
L 156.633678 293.506389 
L 157.449954 293.815592 
L 158.300237 294.379185 
L 159.252565 295.288401 
L 160.374944 296.690192 
L 161.769408 298.816187 
L 163.844115 302.439211 
L 166.054854 306.462304 
L 166.122881 306.375261 
L 168.537699 302.767534 
L 170.204258 300.654468 
L 171.564714 299.267608 
L 172.755119 298.359667 
L 173.809471 297.824117 
L 174.795807 297.568269 
L 175.714117 297.550059 
L 176.666435 297.756923 
L 177.652772 298.20889 
L 178.707093 298.946023 
L 179.897529 300.066655 
L 181.292034 301.712822 
L 182.958562 304.041492 
L 185.5434 308.083341 
L 185.645435 307.94695 
L 188.67249 303.611741 
L 190.339019 301.613942 
L 191.699546 300.325416 
L 192.855902 299.530194 
L 193.876246 299.087696 
L 194.828534 298.909968 
L 195.746844 298.960227 
L 196.699233 299.243207 
L 197.685498 299.776937 
L 198.739922 300.602934 
L 199.964335 301.861232 
L 201.392817 303.674018 
L 203.127402 306.259265 
L 204.759953 308.943208 
L 204.827908 308.83049 
L 209.92963 300.593283 
L 211.494226 298.584741 
L 212.752617 297.310782 
L 213.841018 296.4999 
L 214.827283 296.024077 
L 215.745593 295.821584 
L 216.595948 295.856911 
L 217.412223 296.10766 
L 218.228499 296.585486 
L 219.078752 297.337915 
L 220.031039 298.496787 
L 221.085463 300.156429 
L 222.343853 302.581976 
L 224.24853 306.818488 
L 225.370909 309.32088 
L 225.404886 309.243488 
L 227.649644 304.415886 
L 229.452286 301.042519 
L 231.050758 298.502068 
L 232.377205 296.788343 
L 233.533664 295.642946 
L 234.554008 294.935131 
L 235.472318 294.55928 
L 236.322571 294.442737 
L 237.172824 294.557823 
L 238.023179 294.913279 
L 238.873432 295.518027 
L 239.791742 296.459838 
L 240.778108 297.809003 
L 241.866408 299.687709 
L 243.158878 302.37748 
L 245.097532 306.987657 
L 246.049819 309.221454 
L 246.083899 309.136961 
L 248.226622 304.093026 
L 249.89315 300.709643 
L 251.35561 298.222365 
L 252.64808 296.455832 
L 253.736481 295.318811 
L 254.722746 294.591694 
L 255.607079 294.20601 
L 256.389377 294.09147 
L 257.171573 294.206192 
L 257.919893 294.543984 
L 258.702089 295.146 
L 259.552444 296.093275 
L 260.504731 297.502714 
L 261.661088 299.64619 
L 263.259661 303.136647 
L 265.810522 308.927548 
L 265.844499 308.850156 
L 268.293326 303.585336 
L 270.538083 299.271433 
L 272.238691 296.461841 
L 273.531161 294.727175 
L 274.585483 293.660808 
L 275.469816 293.067533 
L 276.218034 292.813506 
L 276.932275 292.801487 
L 277.646516 293.02128 
L 278.394735 293.493824 
L 279.279067 294.339852 
L 280.401446 295.759125 
L 282.71426 299.172007 
L 287.237753 306.056589 
L 288.632258 308.704842 
L 288.734292 308.50417 
L 290.910993 303.787829 
L 293.836014 297.505445 
L 295.162461 295.163846 
L 296.216783 293.721447 
L 297.101116 292.863765 
L 297.883312 292.394498 
L 298.631632 292.197104 
L 299.379851 292.224965 
L 300.264183 292.497384 
L 301.420539 293.11852 
L 303.359194 294.45166 
L 305.127756 295.903893 
L 306.386249 297.22556 
L 307.610662 298.84423 
L 308.93711 300.995537 
L 310.501604 303.994693 
L 312.712384 308.739987 
L 312.814418 308.52675 
L 315.229165 303.469522 
L 316.555613 301.186922 
L 317.644014 299.741974 
L 318.596302 298.833669 
L 319.514611 298.260606 
L 320.467001 297.929916 
L 321.623357 297.781506 
L 323.119896 297.827941 
L 324.514299 298.078326 
L 325.636677 298.497516 
L 326.691101 299.130307 
L 327.779401 300.057732 
L 328.935859 301.347351 
L 330.262306 303.173066 
L 331.928835 305.872124 
L 333.595363 308.822113 
L 333.66342 308.699925 
L 336.146224 304.46487 
L 337.472672 302.625679 
L 338.561073 301.476276 
L 339.54744 300.74843 
L 340.499727 300.31704 
L 341.520072 300.09925 
L 342.812542 300.06793 
L 344.47907 300.255855 
L 345.907552 300.620779 
L 347.131965 301.168895 
L 348.254344 301.9175 
L 349.4107 302.956005 
L 350.703171 304.425719 
L 352.233687 306.527313 
L 353.934295 309.189223 
L 354.036329 309.050282 
L 357.743546 303.279594 
L 359.001937 301.757982 
L 360.056361 300.810526 
L 360.974671 300.262957 
L 361.858901 299.980522 
L 362.777211 299.914421 
L 363.89959 300.073393 
L 365.464186 300.543934 
L 367.57283 301.40453 
L 369.035391 302.229616 
L 370.293782 303.185813 
L 371.586252 304.448299 
L 373.014734 306.171129 
L 374.749319 308.651487 
L 375.395503 309.604953 
L 375.429481 309.551416 
L 381.551547 300.136216 
L 382.741983 298.883746 
L 383.72835 298.159177 
L 384.578602 297.801355 
L 385.3609 297.707028 
L 386.143096 297.839413 
L 386.959372 298.204156 
L 387.911761 298.879011 
L 389.204129 300.095426 
L 391.550921 302.66046 
L 394.271874 305.877223 
L 396.210528 308.514732 
L 397.09486 309.808356 
L 397.128838 309.756276 
L 399.781733 305.47424 
L 402.774709 300.732223 
L 404.339305 298.663589 
L 405.529639 297.434063 
L 406.516006 296.71259 
L 407.366259 296.347301 
L 408.148557 296.245144 
L 408.896775 296.368971 
L 409.679073 296.732621 
L 410.529326 297.386717 
L 411.515693 298.441065 
L 412.808163 300.177917 
L 415.086898 303.69241 
L 418.794115 309.771208 
L 418.89615 309.602768 
L 425.358398 298.527744 
L 426.548732 297.099549 
L 427.535099 296.23786 
L 428.419431 295.754936 
L 429.201627 295.574841 
L 429.949948 295.625465 
L 430.732144 295.906442 
L 431.582499 296.454921 
L 432.602843 297.393455 
L 433.929291 298.935644 
L 435.969979 301.681501 
L 438.180657 305.011893 
L 440.119312 308.351207 
L 440.731518 309.468926 
L 440.765598 309.403006 
L 445.663251 300.081769 
L 446.853584 298.414661 
L 447.873929 297.354486 
L 448.792239 296.714593 
L 449.676571 296.367696 
L 450.594881 296.246419 
L 451.683282 296.334008 
L 453.179719 296.702211 
L 454.608201 297.263437 
L 455.798637 297.952678 
L 456.954993 298.886659 
L 458.111451 300.117824 
L 459.369842 301.793309 
L 460.832302 304.123254 
L 462.770956 307.656503 
L 463.587231 309.164093 
L 463.621311 309.097992 
L 466.104115 304.496009 
L 467.430562 302.471806 
L 468.518964 301.185466 
L 469.471251 300.375857 
L 470.389561 299.869443 
L 471.375928 299.581546 
L 472.566262 299.480299 
L 474.334926 299.579725 
L 475.865443 299.861612 
L 477.055777 300.30666 
L 478.144178 300.95584 
L 479.266557 301.895284 
L 480.49097 303.225875 
L 481.919452 305.130439 
L 483.756072 307.987558 
L 484.50429 309.22892 
L 484.572347 309.150982 
L 487.497368 304.458497 
L 488.823816 302.748596 
L 489.878138 301.721562 
L 490.830425 301.08604 
L 491.748735 300.736047 
L 492.701124 300.612221 
L 493.857481 300.700903 
L 495.6941 301.107163 
L 497.666732 301.750334 
L 498.959202 302.396054 
L 500.149638 303.233341 
L 501.374051 304.366901 
L 502.768454 305.981565 
L 504.401005 308.234665 
L 505.285337 309.549777 
L 505.353394 309.445435 
L 510.387059 301.875799 
L 511.611472 300.527727 
L 512.631816 299.715206 
L 513.516149 299.278352 
L 514.332424 299.108455 
L 515.182677 299.164905 
L 516.06701 299.451163 
L 517.155309 300.05409 
L 518.719905 301.210959 
L 521.304743 303.430917 
L 523.107386 305.258636 
L 524.739936 307.244779 
L 526.474522 309.720221 
L 526.576556 309.810906 
L 526.610534 309.759008 
L 529.161395 305.649782 
L 532.154371 300.906127 
L 533.65091 298.938375 
L 534.807266 297.759472 
L 535.793633 297.060215 
L 536.643886 296.72042 
L 537.426184 296.640479 
L 538.208482 296.787615 
L 539.024757 297.174027 
L 539.977045 297.891129 
L 541.16748 299.096436 
L 543.0041 301.318579 
L 546.167167 305.513573 
L 548.309891 308.725055 
L 549.024132 309.868085 
L 549.058109 309.811452 
L 552.391268 304.041674 
L 554.601946 300.443598 
L 556.064508 298.475846 
L 557.186886 297.316063 
L 558.139174 296.633195 
L 558.955449 296.30032 
L 559.737747 296.217465 
L 560.485966 296.360777 
L 561.268264 296.738812 
L 562.152494 297.425686 
L 563.206918 298.544133 
L 564.669377 300.460351 
L 567.254216 304.293516 
L 569.703042 308.275273 
L 570.519318 309.651934 
L 570.553397 309.589839 
L 576.403337 299.094433 
L 577.525716 297.701201 
L 578.478003 296.844247 
L 579.328358 296.354403 
L 580.144634 296.127873 
L 580.994887 296.12587 
L 581.947174 296.359138 
L 583.13761 296.901244 
L 584.736183 297.901144 
L 586.2667 299.117378 
L 587.627125 300.492764 
L 588.953573 302.165335 
L 590.382055 304.339769 
L 592.150617 307.471492 
L 593.136984 309.350016 
L 593.205041 309.222911 
L 596.198017 303.578234 
L 597.524465 301.544199 
L 598.612866 300.249117 
L 599.599131 299.404364 
L 600.55152 298.87719 
L 601.537785 298.58383 
L 602.762199 298.467834 
L 604.462806 298.559429 
L 605.857311 298.839678 
L 606.97969 299.282358 
L 608.067989 299.957214 
L 609.190368 300.932349 
L 610.380804 302.270042 
L 611.809286 304.238522 
L 613.577848 307.087083 
L 614.836341 309.268071 
L 614.904296 309.151164 
L 617.557191 304.724542 
L 618.883639 302.951271 
L 619.97204 301.858136 
L 620.924328 301.201672 
L 621.842638 300.824183 
L 622.862982 300.649369 
L 624.155452 300.670128 
L 626.298175 300.96367 
L 627.828692 301.378854 
L 629.019127 301.933342 
L 630.175484 302.726197 
L 631.399897 303.854477 
L 632.760322 305.431629 
L 634.358895 307.639204 
L 635.583309 309.472568 
L 635.651366 309.366222 
L 639.732743 303.158498 
L 641.025111 301.642168 
L 642.079535 300.72931 
L 642.997845 300.215247 
L 643.848098 299.984347 
L 644.698351 299.979066 
L 645.616661 300.192667 
L 646.807096 300.716381 
L 648.711773 301.842111 
L 650.956531 303.413618 
L 652.452968 304.729641 
L 653.915529 306.32136 
L 655.480023 308.368871 
L 656.46639 309.7479 
L 656.500367 309.696548 
L 659.119285 305.537974 
L 661.806158 301.381221 
L 663.23464 299.54458 
L 664.390996 298.396815 
L 665.343386 297.74454 
L 666.193639 297.419131 
L 666.975937 297.347202 
L 667.758133 297.493609 
L 668.608488 297.884209 
L 669.594752 298.594028 
L 670.887223 299.818637 
L 673.200037 302.380575 
L 675.750898 305.499005 
L 677.689552 308.236121 
L 678.777851 309.866081 
L 678.811931 309.811088 
L 681.668895 304.97784 
L 684.253733 300.759356 
L 685.750272 298.720404 
L 686.906629 297.490331 
L 687.62087 296.922003 
L 687.62087 296.922003 
" clip-path="url(#pbd71796672)" style="fill: none; stroke: #ff7f0e; stroke-width: 1.5; stroke-linecap: square"/>
   </g>
   <g id="patch_3">
    <path d="M 45.875301 326.285074 
L 45.875301 7.2 
" style="fill: none; stroke: #000000; stroke-width: 0.8; stroke-linejoin: miter; stroke-linecap: square"/>
   </g>
   <g id="patch_4">
    <path d="M 718.180182 326.285074 
L 718.180182 7.2 
" style="fill: none; stroke: #000000; stroke-width: 0.8; stroke-linejoin: miter; stroke-linecap: square"/>
   </g>
   <g id="patch_5">
    <path d="M 45.875301 326.285074 
L 718.180182 326.285074 
" style="fill: none; stroke: #000000; stroke-width: 0.8; stroke-linejoin: miter; stroke-linecap: square"/>
   </g>
   <g id="patch_6">
    <path d="M 45.875301 7.2 
L 718.180182 7.2 
" style="fill: none; stroke: #000000; stroke-width: 0.8; stroke-linejoin: miter; stroke-linecap: square"/>
   </g>
   <g id="legend_1">
    <g id="patch_7">
     <path d="M 624.052605 68.188574 
L 706.280182 68.188574 
Q 709.680182 68.188574 709.680182 64.788574 
L 709.680182 19.1 
Q 709.680182 15.7 706.280182 15.7 
L 624.052605 15.7 
Q 620.652605 15.7 620.652605 19.1 
L 620.652605 64.788574 
Q 620.652605 68.188574 624.052605 68.188574 
z
" style="fill: #ffffff; opacity: 0.8; stroke: #cccccc; stroke-linejoin: miter"/>
    </g>
    <g id="line2d_35">
     <path d="M 627.452605 28.45 
L 644.452605 28.45 
L 661.452605 28.45 
" style="fill: none; stroke: #1f77b4; stroke-width: 1.5; stroke-linecap: square"/>
    </g>
    <g id="text_19">
     <!-- $Re_h$ -->
     <g transform="translate(675.052605 34.4)scale(0.17 -0.17)">
      <defs>
       <path id="CMMI12-68" d="M 1798 4257 
C 1805 4283 1818 4321 1818 4352 
C 1818 4416 1754 4416 1741 4416 
C 1734 4416 1421 4388 1389 4380 
C 1280 4373 1184 4358 1069 4358 
C 909 4345 864 4339 864 4224 
C 864 4160 915 4160 1005 4160 
C 1318 4160 1325 4103 1325 4040 
C 1325 4002 1312 3951 1306 3932 
L 378 248 
C 352 152 352 140 352 101 
C 352 -38 461 -64 525 -64 
C 634 -64 717 19 749 89 
L 1037 1245 
C 1069 1386 1107 1520 1139 1660 
C 1210 1929 1210 1935 1331 2120 
C 1453 2305 1741 2689 2234 2689 
C 2490 2689 2579 2497 2579 2242 
C 2579 1884 2330 1188 2189 805 
C 2131 651 2099 568 2099 453 
C 2099 166 2298 -64 2605 -64 
C 3200 -64 3424 875 3424 913 
C 3424 945 3398 971 3360 971 
C 3302 971 3296 952 3264 843 
C 3117 332 2880 64 2624 64 
C 2560 64 2458 64 2458 269 
C 2458 436 2534 640 2560 710 
C 2675 1018 2963 1773 2963 2145 
C 2963 2528 2739 2816 2253 2816 
C 1888 2816 1568 2644 1306 2312 
L 1798 4257 
z
" transform="scale(0.015625)"/>
      </defs>
      <use xlink:href="#CMMI12-52" transform="scale(0.996264)"/>
      <use xlink:href="#CMMI12-65" transform="translate(75.070962 0)scale(0.996264)"/>
      <use xlink:href="#CMMI12-68" transform="translate(120.282963 -14.943915)scale(0.697382)"/>
     </g>
    </g>
    <g id="line2d_36">
     <path d="M 627.452605 52.144287 
L 644.452605 52.144287 
L 661.452605 52.144287 
" style="fill: none; stroke: #ff7f0e; stroke-width: 1.5; stroke-linecap: square"/>
    </g>
    <g id="text_20">
     <!-- $Re_{\omega}$ -->
     <g transform="translate(675.052605 58.094287)scale(0.17 -0.17)">
      <defs>
       <path id="CMMI12-21" d="M 3802 2395 
C 3802 2580 3750 2816 3526 2816 
C 3398 2816 3251 2657 3251 2529 
C 3251 2472 3277 2434 3328 2376 
C 3424 2268 3546 2096 3546 1797 
C 3546 1567 3405 1204 3302 1007 
C 3123 656 2829 357 2496 357 
C 2093 357 1939 615 1869 975 
C 1939 1143 2086 1560 2086 1728 
C 2086 1798 2061 1856 1978 1856 
C 1933 1856 1882 1831 1850 1779 
C 1760 1638 1677 1129 1683 994 
C 1562 756 1216 357 806 357 
C 378 357 262 733 262 1096 
C 262 1758 678 2338 794 2497 
C 858 2593 902 2657 902 2669 
C 902 2714 877 2784 819 2784 
C 717 2784 685 2701 634 2625 
C 307 2121 77 1414 77 803 
C 77 408 224 -64 704 -64 
C 1235 -64 1568 391 1702 634 
C 1754 275 1946 -64 2413 -64 
C 2899 -64 3206 363 3437 879 
C 3603 1249 3802 2045 3802 2395 
z
" transform="scale(0.015625)"/>
      </defs>
      <use xlink:href="#CMMI12-52" transform="scale(0.996264)"/>
      <use xlink:href="#CMMI12-65" transform="translate(75.070962 0)scale(0.996264)"/>
      <use xlink:href="#CMMI12-21" transform="translate(120.282963 -14.943915)scale(0.697382)"/>
     </g>
    </g>
   </g>
  </g>
 </g>
 <defs>
  <clipPath id="pbd71796672">
   <rect x="45.875301" y="7.2" width="672.304882" height="319.085074"/>
  </clipPath>
 </defs>
</svg>
