<?xml version="1.0" encoding="utf-8" standalone="no"?>
<!DOCTYPE svg PUBLIC "-//W3C//DTD SVG 1.1//EN"
  "http://www.w3.org/Graphics/SVG/1.1/DTD/svg11.dtd">
<svg xmlns:xlink="http://www.w3.org/1999/xlink" width="730.361518pt" height="373.266031pt" viewBox="0 0 730.361518 373.266031" xmlns="http://www.w3.org/2000/svg" version="1.1">
 <metadata>
  <rdf:RDF xmlns:dc="http://purl.org/dc/elements/1.1/" xmlns:cc="http://creativecommons.org/ns#" xmlns:rdf="http://www.w3.org/1999/02/22-rdf-syntax-ns#">
   <cc:Work>
    <dc:type rdf:resource="http://purl.org/dc/dcmitype/StillImage"/>
    <dc:date>2022-05-03T22:25:35.083215</dc:date>
    <dc:format>image/svg+xml</dc:format>
    <dc:creator>
     <cc:Agent>
      <dc:title>Matplotlib v3.5.1, https://matplotlib.org/</dc:title>
     </cc:Agent>
    </dc:creator>
   </cc:Work>
  </rdf:RDF>
 </metadata>
 <defs>
  <style type="text/css">*{stroke-linejoin: round; stroke-linecap: butt}</style>
 </defs>
 <g id="figure_1">
  <g id="patch_1">
   <path d="M 0 373.266031 
L 730.361518 373.266031 
L 730.361518 -0 
L 0 -0 
z
" style="fill: #ffffff"/>
  </g>
  <g id="axes_1">
   <g id="patch_2">
    <path d="M 50.856636 326.285074 
L 723.161518 326.285074 
L 723.161518 7.2 
L 50.856636 7.2 
z
" style="fill: #ffffff"/>
   </g>
   <g id="matplotlib.axis_1">
    <g id="xtick_1">
     <g id="line2d_1">
      <path d="M 75.24235 326.285074 
L 75.24235 7.2 
" clip-path="url(#pda1c593ec3)" style="fill: none; stroke-dasharray: 0.8,1.32; stroke-dashoffset: 0; stroke: #b0b0b0; stroke-width: 0.8"/>
     </g>
     <g id="line2d_2">
      <defs>
       <path id="m419298dc68" d="M 0 0 
L 0 3.5 
" style="stroke: #000000; stroke-width: 0.8"/>
      </defs>
      <g>
       <use xlink:href="#m419298dc68" x="75.24235" y="326.285074" style="stroke: #000000; stroke-width: 0.8"/>
      </g>
     </g>
     <g id="text_1">
      <!-- $\mathdefault{0}$ -->
      <g transform="translate(72.751683 340.203572)scale(0.1 -0.1)">
       <defs>
        <path id="CMR17-30" d="M 2688 2025 
C 2688 2416 2682 3080 2413 3591 
C 2176 4039 1798 4198 1466 4198 
C 1158 4198 768 4058 525 3597 
C 269 3118 243 2524 243 2025 
C 243 1661 250 1106 448 619 
C 723 -39 1216 -128 1466 -128 
C 1760 -128 2208 -7 2470 600 
C 2662 1042 2688 1559 2688 2025 
z
M 1466 -26 
C 1056 -26 813 325 723 812 
C 653 1188 653 1738 653 2096 
C 653 2588 653 2997 736 3387 
C 858 3929 1216 4096 1466 4096 
C 1728 4096 2067 3923 2189 3400 
C 2272 3036 2278 2607 2278 2096 
C 2278 1680 2278 1169 2202 792 
C 2067 95 1690 -26 1466 -26 
z
" transform="scale(0.015625)"/>
       </defs>
       <use xlink:href="#CMR17-30" transform="scale(0.996264)"/>
      </g>
     </g>
    </g>
    <g id="xtick_2">
     <g id="line2d_3">
      <path d="M 198.714321 326.285074 
L 198.714321 7.2 
" clip-path="url(#pda1c593ec3)" style="fill: none; stroke-dasharray: 0.8,1.32; stroke-dashoffset: 0; stroke: #b0b0b0; stroke-width: 0.8"/>
     </g>
     <g id="line2d_4">
      <g>
       <use xlink:href="#m419298dc68" x="198.714321" y="326.285074" style="stroke: #000000; stroke-width: 0.8"/>
      </g>
     </g>
     <g id="text_2">
      <!-- $\mathdefault{2}$ -->
      <g transform="translate(196.223654 340.203572)scale(0.1 -0.1)">
       <defs>
        <path id="CMR17-32" d="M 2669 989 
L 2554 989 
C 2490 536 2438 459 2413 420 
C 2381 369 1920 369 1830 369 
L 602 369 
C 832 619 1280 1072 1824 1597 
C 2214 1967 2669 2402 2669 3035 
C 2669 3790 2067 4224 1395 4224 
C 691 4224 262 3604 262 3030 
C 262 2780 448 2748 525 2748 
C 589 2748 781 2787 781 3010 
C 781 3207 614 3264 525 3264 
C 486 3264 448 3258 422 3245 
C 544 3790 915 4058 1306 4058 
C 1862 4058 2227 3617 2227 3035 
C 2227 2479 1901 2000 1536 1584 
L 262 146 
L 262 0 
L 2515 0 
L 2669 989 
z
" transform="scale(0.015625)"/>
       </defs>
       <use xlink:href="#CMR17-32" transform="scale(0.996264)"/>
      </g>
     </g>
    </g>
    <g id="xtick_3">
     <g id="line2d_5">
      <path d="M 322.186292 326.285074 
L 322.186292 7.2 
" clip-path="url(#pda1c593ec3)" style="fill: none; stroke-dasharray: 0.8,1.32; stroke-dashoffset: 0; stroke: #b0b0b0; stroke-width: 0.8"/>
     </g>
     <g id="line2d_6">
      <g>
       <use xlink:href="#m419298dc68" x="322.186292" y="326.285074" style="stroke: #000000; stroke-width: 0.8"/>
      </g>
     </g>
     <g id="text_3">
      <!-- $\mathdefault{4}$ -->
      <g transform="translate(319.695625 340.203572)scale(0.1 -0.1)">
       <defs>
        <path id="CMR17-34" d="M 2150 4122 
C 2150 4256 2144 4256 2029 4256 
L 128 1254 
L 128 1088 
L 1779 1088 
L 1779 457 
C 1779 224 1766 160 1318 160 
L 1197 160 
L 1197 0 
C 1402 0 1747 0 1965 0 
C 2182 0 2528 0 2733 0 
L 2733 160 
L 2611 160 
C 2163 160 2150 224 2150 457 
L 2150 1088 
L 2803 1088 
L 2803 1254 
L 2150 1254 
L 2150 4122 
z
M 1798 3703 
L 1798 1254 
L 256 1254 
L 1798 3703 
z
" transform="scale(0.015625)"/>
       </defs>
       <use xlink:href="#CMR17-34" transform="scale(0.996264)"/>
      </g>
     </g>
    </g>
    <g id="xtick_4">
     <g id="line2d_7">
      <path d="M 445.658263 326.285074 
L 445.658263 7.2 
" clip-path="url(#pda1c593ec3)" style="fill: none; stroke-dasharray: 0.8,1.32; stroke-dashoffset: 0; stroke: #b0b0b0; stroke-width: 0.8"/>
     </g>
     <g id="line2d_8">
      <g>
       <use xlink:href="#m419298dc68" x="445.658263" y="326.285074" style="stroke: #000000; stroke-width: 0.8"/>
      </g>
     </g>
     <g id="text_4">
      <!-- $\mathdefault{6}$ -->
      <g transform="translate(443.167595 340.203572)scale(0.1 -0.1)">
       <defs>
        <path id="CMR17-36" d="M 678 2176 
C 678 3690 1395 4032 1811 4032 
C 1946 4032 2272 4009 2400 3776 
C 2298 3776 2106 3776 2106 3553 
C 2106 3381 2246 3323 2336 3323 
C 2394 3323 2566 3348 2566 3560 
C 2566 3954 2246 4179 1805 4179 
C 1043 4179 243 3390 243 1984 
C 243 253 966 -128 1478 -128 
C 2099 -128 2688 427 2688 1283 
C 2688 2081 2170 2662 1517 2662 
C 1126 2662 838 2407 678 1960 
L 678 2176 
z
M 1478 25 
C 691 25 691 1200 691 1436 
C 691 1896 909 2560 1504 2560 
C 1613 2560 1926 2560 2138 2120 
C 2253 1870 2253 1609 2253 1289 
C 2253 944 2253 690 2118 434 
C 1978 171 1773 25 1478 25 
z
" transform="scale(0.015625)"/>
       </defs>
       <use xlink:href="#CMR17-36" transform="scale(0.996264)"/>
      </g>
     </g>
    </g>
    <g id="xtick_5">
     <g id="line2d_9">
      <path d="M 569.130234 326.285074 
L 569.130234 7.2 
" clip-path="url(#pda1c593ec3)" style="fill: none; stroke-dasharray: 0.8,1.32; stroke-dashoffset: 0; stroke: #b0b0b0; stroke-width: 0.8"/>
     </g>
     <g id="line2d_10">
      <g>
       <use xlink:href="#m419298dc68" x="569.130234" y="326.285074" style="stroke: #000000; stroke-width: 0.8"/>
      </g>
     </g>
     <g id="text_5">
      <!-- $\mathdefault{8}$ -->
      <g transform="translate(566.639566 340.203572)scale(0.1 -0.1)">
       <defs>
        <path id="CMR17-38" d="M 1741 2264 
C 2144 2467 2554 2773 2554 3263 
C 2554 3841 1990 4179 1472 4179 
C 890 4179 378 3759 378 3180 
C 378 3021 416 2747 666 2505 
C 730 2442 998 2251 1171 2130 
C 883 1983 211 1634 211 934 
C 211 279 838 -128 1459 -128 
C 2144 -128 2720 362 2720 1010 
C 2720 1590 2330 1857 2074 2029 
L 1741 2264 
z
M 902 2822 
C 851 2854 595 3051 595 3351 
C 595 3739 998 4032 1459 4032 
C 1965 4032 2336 3676 2336 3262 
C 2336 2669 1670 2331 1638 2331 
C 1632 2331 1626 2331 1574 2370 
L 902 2822 
z
M 2080 1519 
C 2176 1449 2483 1240 2483 851 
C 2483 381 2010 25 1472 25 
C 890 25 448 438 448 940 
C 448 1443 838 1862 1280 2060 
L 2080 1519 
z
" transform="scale(0.015625)"/>
       </defs>
       <use xlink:href="#CMR17-38" transform="scale(0.996264)"/>
      </g>
     </g>
    </g>
    <g id="xtick_6">
     <g id="line2d_11">
      <path d="M 692.602205 326.285074 
L 692.602205 7.2 
" clip-path="url(#pda1c593ec3)" style="fill: none; stroke-dasharray: 0.8,1.32; stroke-dashoffset: 0; stroke: #b0b0b0; stroke-width: 0.8"/>
     </g>
     <g id="line2d_12">
      <g>
       <use xlink:href="#m419298dc68" x="692.602205" y="326.285074" style="stroke: #000000; stroke-width: 0.8"/>
      </g>
     </g>
     <g id="text_6">
      <!-- $\mathdefault{10}$ -->
      <g transform="translate(687.62087 340.203572)scale(0.1 -0.1)">
       <defs>
        <path id="CMR17-31" d="M 1702 4058 
C 1702 4192 1696 4192 1606 4192 
C 1357 3916 979 3827 621 3827 
C 602 3827 570 3827 563 3808 
C 557 3795 557 3782 557 3648 
C 755 3648 1088 3686 1344 3839 
L 1344 461 
C 1344 236 1331 160 781 160 
L 589 160 
L 589 0 
C 896 0 1216 0 1523 0 
C 1830 0 2150 0 2458 0 
L 2458 160 
L 2266 160 
C 1715 160 1702 230 1702 458 
L 1702 4058 
z
" transform="scale(0.015625)"/>
       </defs>
       <use xlink:href="#CMR17-31" transform="scale(0.996264)"/>
       <use xlink:href="#CMR17-30" transform="translate(45.690477 0)scale(0.996264)"/>
      </g>
     </g>
    </g>
    <g id="text_7">
     <!-- $t U_{\infty} / H_{box}$ -->
     <g transform="translate(346.61205 361.084711)scale(0.2 -0.2)">
      <defs>
       <path id="CMMI12-74" d="M 1286 2566 
L 1875 2566 
C 1997 2566 2061 2566 2061 2681 
C 2061 2752 2022 2752 1894 2752 
L 1331 2752 
L 1568 3692 
C 1594 3781 1594 3794 1594 3840 
C 1594 3943 1510 4000 1427 4000 
C 1376 4000 1229 3981 1178 3775 
L 928 2752 
L 326 2752 
C 198 2752 141 2752 141 2630 
C 141 2566 186 2566 307 2566 
L 877 2566 
L 454 881 
C 403 658 384 594 384 511 
C 384 211 595 -64 954 -64 
C 1600 -64 1946 868 1946 912 
C 1946 951 1920 970 1882 970 
C 1869 970 1843 970 1830 944 
C 1824 938 1818 931 1773 829 
C 1638 511 1344 64 973 64 
C 781 64 768 224 768 364 
C 768 370 768 492 787 568 
L 1286 2566 
z
" transform="scale(0.015625)"/>
       <path id="CMMI12-55" d="M 3238 1474 
C 3014 581 2272 57 1670 57 
C 1210 57 896 363 896 891 
C 896 916 896 1107 966 1387 
L 1594 3887 
C 1651 4103 1664 4167 2118 4167 
C 2234 4167 2298 4167 2298 4282 
C 2298 4352 2240 4352 2202 4352 
C 2086 4352 1952 4352 1830 4352 
L 1075 4352 
C 954 4352 819 4352 698 4352 
C 653 4352 576 4352 576 4231 
C 576 4167 621 4167 742 4167 
C 1126 4167 1126 4116 1126 4046 
C 1126 4008 1082 3824 1050 3715 
L 493 1488 
C 474 1418 435 1246 435 1075 
C 435 374 941 -128 1638 -128 
C 2285 -128 3002 384 3328 1197 
C 3373 1305 3430 1530 3469 1702 
C 3533 1933 3667 2496 3712 2662 
L 3955 3623 
C 4038 3956 4090 4167 4653 4167 
C 4704 4173 4730 4224 4730 4282 
C 4730 4352 4672 4352 4646 4352 
C 4557 4352 4442 4352 4352 4352 
L 4051 4352 
C 3654 4352 3450 4352 3443 4352 
C 3405 4352 3328 4352 3328 4231 
C 3328 4167 3379 4167 3424 4167 
C 3808 4167 3834 4020 3834 3905 
C 3834 3848 3834 3828 3808 3739 
L 3238 1474 
z
" transform="scale(0.015625)"/>
       <path id="CMSY10-31" d="M 3251 1730 
C 2906 2166 2829 2262 2630 2422 
C 2272 2710 1914 2825 1587 2825 
C 838 2825 352 2122 352 1374 
C 352 639 826 -70 1562 -70 
C 2298 -70 2829 511 3142 1022 
C 3488 588 3565 492 3763 332 
C 4122 45 4480 -70 4806 -70 
C 5555 -70 6042 633 6042 1380 
C 6042 2115 5568 2825 4832 2825 
C 4096 2825 3565 2242 3251 1730 
z
M 3418 1514 
C 3680 1975 4154 2620 4877 2620 
C 5555 2620 5901 1955 5901 1380 
C 5901 753 5472 236 4909 236 
C 4538 236 4250 505 4115 638 
C 3955 811 3808 1009 3418 1514 
z
M 2976 1240 
C 2714 780 2240 134 1517 134 
C 838 134 493 799 493 1374 
C 493 2000 922 2518 1485 2518 
C 1856 2518 2144 2249 2278 2115 
C 2438 1943 2586 1744 2976 1240 
z
" transform="scale(0.015625)"/>
       <path id="CMMI12-3d" d="M 2746 4562 
C 2746 4569 2784 4666 2784 4678 
C 2784 4755 2720 4800 2669 4800 
C 2637 4800 2579 4800 2528 4659 
L 384 -1363 
C 384 -1370 346 -1465 346 -1478 
C 346 -1555 410 -1600 461 -1600 
C 499 -1600 557 -1593 602 -1459 
L 2746 4562 
z
" transform="scale(0.015625)"/>
       <path id="CMMI12-48" d="M 4787 3887 
C 4845 4103 4858 4167 5312 4167 
C 5427 4167 5491 4167 5491 4282 
C 5491 4352 5434 4352 5395 4352 
C 5280 4352 5146 4352 5024 4352 
L 4269 4352 
C 4147 4352 4013 4352 3891 4352 
C 3846 4352 3770 4352 3770 4231 
C 3770 4167 3814 4167 3936 4167 
C 4320 4167 4320 4116 4320 4046 
C 4320 4034 4320 3995 4294 3900 
L 3904 2361 
L 1971 2361 
L 2355 3887 
C 2413 4103 2426 4167 2880 4167 
C 2995 4167 3059 4167 3059 4282 
C 3059 4352 3002 4352 2963 4352 
C 2848 4352 2714 4352 2592 4352 
L 1837 4352 
C 1715 4352 1581 4352 1459 4352 
C 1414 4352 1338 4352 1338 4231 
C 1338 4167 1382 4167 1504 4167 
C 1888 4167 1888 4116 1888 4046 
C 1888 4034 1888 3995 1862 3899 
L 998 472 
C 941 249 928 185 486 185 
C 339 185 294 185 294 64 
C 294 0 365 0 384 0 
C 499 0 634 0 755 0 
L 1510 0 
C 1632 0 1766 0 1888 0 
C 1939 0 2010 0 2010 121 
C 2010 185 1952 185 1856 185 
C 1466 185 1466 236 1466 300 
C 1466 307 1466 351 1478 402 
L 1920 2176 
L 3859 2176 
C 3750 1753 3424 416 3411 376 
C 3341 185 3238 185 2861 185 
C 2784 185 2726 185 2726 64 
C 2726 0 2797 0 2816 0 
C 2931 0 3066 0 3187 0 
L 3942 0 
C 4064 0 4198 0 4320 0 
C 4371 0 4442 0 4442 121 
C 4442 185 4384 185 4288 185 
C 3898 185 3898 236 3898 300 
C 3898 307 3898 351 3910 402 
L 4787 3887 
z
" transform="scale(0.015625)"/>
       <path id="CMMI12-62" d="M 1478 4257 
C 1485 4283 1498 4321 1498 4352 
C 1498 4416 1434 4416 1421 4416 
C 1414 4416 1184 4393 1069 4377 
C 960 4377 864 4358 749 4358 
C 595 4345 550 4339 550 4224 
C 550 4160 614 4160 678 4160 
C 1005 4160 1005 4103 1005 4040 
C 1005 3996 954 3811 928 3696 
L 774 3085 
C 710 2831 346 1387 320 1272 
C 288 1114 288 1005 288 922 
C 288 274 653 -64 1069 -64 
C 1811 -64 2579 888 2579 1814 
C 2579 2401 2246 2816 1766 2816 
C 1434 2816 1133 2542 1011 2414 
L 1478 4257 
z
M 1075 64 
C 870 64 646 217 646 715 
C 646 926 666 1047 781 1494 
C 800 1577 902 1986 928 2069 
C 941 2120 1318 2689 1754 2689 
C 2035 2689 2163 2408 2163 2076 
C 2163 1769 1984 1047 1824 715 
C 1664 370 1370 64 1075 64 
z
" transform="scale(0.015625)"/>
       <path id="CMMI12-6f" d="M 2918 1756 
C 2918 2363 2522 2816 1939 2816 
C 1094 2816 262 1897 262 996 
C 262 390 659 -64 1242 -64 
C 2093 -64 2918 856 2918 1756 
z
M 1248 64 
C 928 64 691 319 691 766 
C 691 1060 845 1712 1024 2031 
C 1312 2523 1670 2689 1933 2689 
C 2246 2689 2490 2433 2490 1986 
C 2490 1731 2355 1047 2112 658 
C 1850 230 1498 64 1248 64 
z
" transform="scale(0.015625)"/>
       <path id="CMMI12-78" d="M 3034 2606 
C 2829 2567 2752 2414 2752 2293 
C 2752 2139 2874 2088 2963 2088 
C 3155 2088 3290 2254 3290 2427 
C 3290 2695 2982 2816 2714 2816 
C 2323 2816 2106 2433 2048 2312 
C 1901 2816 1504 2816 1389 2816 
C 736 2816 390 1980 390 1839 
C 390 1814 416 1782 461 1782 
C 512 1782 525 1820 538 1846 
C 755 2555 1184 2689 1370 2689 
C 1658 2689 1715 2420 1715 2267 
C 1715 2127 1677 1980 1600 1673 
L 1382 798 
C 1286 415 1101 64 762 64 
C 730 64 570 64 435 147 
C 666 192 717 383 717 460 
C 717 588 621 664 499 664 
C 346 664 179 530 179 326 
C 179 57 480 -64 755 -64 
C 1062 -64 1280 179 1414 441 
C 1517 64 1837 -64 2074 -64 
C 2726 -64 3072 773 3072 913 
C 3072 945 3046 971 3008 971 
C 2950 971 2944 939 2925 888 
C 2752 326 2381 64 2093 64 
C 1869 64 1747 230 1747 492 
C 1747 632 1773 734 1875 1156 
L 2099 2024 
C 2195 2408 2413 2689 2707 2689 
C 2720 2689 2899 2689 3034 2606 
z
" transform="scale(0.015625)"/>
      </defs>
      <use xlink:href="#CMMI12-74" transform="scale(0.996264)"/>
      <use xlink:href="#CMMI12-55" transform="translate(35.22633 0)scale(0.996264)"/>
      <use xlink:href="#CMSY10-31" transform="translate(101.478449 -14.943915)scale(0.697382)"/>
      <use xlink:href="#CMMI12-3d" transform="translate(171.714956 0)scale(0.996264)"/>
      <use xlink:href="#CMMI12-48" transform="translate(220.489874 0)scale(0.996264)"/>
      <use xlink:href="#CMMI12-62" transform="translate(301.314711 -14.943915)scale(0.697382)"/>
      <use xlink:href="#CMMI12-6f" transform="translate(330.347698 -14.943915)scale(0.697382)"/>
      <use xlink:href="#CMMI12-78" transform="translate(363.17426 -14.943915)scale(0.697382)"/>
     </g>
    </g>
   </g>
   <g id="matplotlib.axis_2">
    <g id="ytick_1">
     <g id="line2d_13">
      <path d="M 50.856636 322.590701 
L 723.161518 322.590701 
" clip-path="url(#pda1c593ec3)" style="fill: none; stroke-dasharray: 0.8,1.32; stroke-dashoffset: 0; stroke: #b0b0b0; stroke-width: 0.8"/>
     </g>
     <g id="line2d_14">
      <defs>
       <path id="mecb36fd73c" d="M 0 0 
L -3.5 0 
" style="stroke: #000000; stroke-width: 0.8"/>
      </defs>
      <g>
       <use xlink:href="#mecb36fd73c" x="50.856636" y="322.590701" style="stroke: #000000; stroke-width: 0.8"/>
      </g>
     </g>
     <g id="text_8">
      <!-- $\mathdefault{80}$ -->
      <g transform="translate(33.893966 326.049951)scale(0.1 -0.1)">
       <use xlink:href="#CMR17-38" transform="scale(0.996264)"/>
       <use xlink:href="#CMR17-30" transform="translate(45.690477 0)scale(0.996264)"/>
      </g>
     </g>
    </g>
    <g id="ytick_2">
     <g id="line2d_15">
      <path d="M 50.856636 273.478067 
L 723.161518 273.478067 
" clip-path="url(#pda1c593ec3)" style="fill: none; stroke-dasharray: 0.8,1.32; stroke-dashoffset: 0; stroke: #b0b0b0; stroke-width: 0.8"/>
     </g>
     <g id="line2d_16">
      <g>
       <use xlink:href="#mecb36fd73c" x="50.856636" y="273.478067" style="stroke: #000000; stroke-width: 0.8"/>
      </g>
     </g>
     <g id="text_9">
      <!-- $\mathdefault{100}$ -->
      <g transform="translate(28.91263 276.937316)scale(0.1 -0.1)">
       <use xlink:href="#CMR17-31" transform="scale(0.996264)"/>
       <use xlink:href="#CMR17-30" transform="translate(45.690477 0)scale(0.996264)"/>
       <use xlink:href="#CMR17-30" transform="translate(91.380954 0)scale(0.996264)"/>
      </g>
     </g>
    </g>
    <g id="ytick_3">
     <g id="line2d_17">
      <path d="M 50.856636 224.365433 
L 723.161518 224.365433 
" clip-path="url(#pda1c593ec3)" style="fill: none; stroke-dasharray: 0.8,1.32; stroke-dashoffset: 0; stroke: #b0b0b0; stroke-width: 0.8"/>
     </g>
     <g id="line2d_18">
      <g>
       <use xlink:href="#mecb36fd73c" x="50.856636" y="224.365433" style="stroke: #000000; stroke-width: 0.8"/>
      </g>
     </g>
     <g id="text_10">
      <!-- $\mathdefault{120}$ -->
      <g transform="translate(28.91263 227.824682)scale(0.1 -0.1)">
       <use xlink:href="#CMR17-31" transform="scale(0.996264)"/>
       <use xlink:href="#CMR17-32" transform="translate(45.690477 0)scale(0.996264)"/>
       <use xlink:href="#CMR17-30" transform="translate(91.380954 0)scale(0.996264)"/>
      </g>
     </g>
    </g>
    <g id="ytick_4">
     <g id="line2d_19">
      <path d="M 50.856636 175.252799 
L 723.161518 175.252799 
" clip-path="url(#pda1c593ec3)" style="fill: none; stroke-dasharray: 0.8,1.32; stroke-dashoffset: 0; stroke: #b0b0b0; stroke-width: 0.8"/>
     </g>
     <g id="line2d_20">
      <g>
       <use xlink:href="#mecb36fd73c" x="50.856636" y="175.252799" style="stroke: #000000; stroke-width: 0.8"/>
      </g>
     </g>
     <g id="text_11">
      <!-- $\mathdefault{140}$ -->
      <g transform="translate(28.91263 178.712048)scale(0.1 -0.1)">
       <use xlink:href="#CMR17-31" transform="scale(0.996264)"/>
       <use xlink:href="#CMR17-34" transform="translate(45.690477 0)scale(0.996264)"/>
       <use xlink:href="#CMR17-30" transform="translate(91.380954 0)scale(0.996264)"/>
      </g>
     </g>
    </g>
    <g id="ytick_5">
     <g id="line2d_21">
      <path d="M 50.856636 126.140165 
L 723.161518 126.140165 
" clip-path="url(#pda1c593ec3)" style="fill: none; stroke-dasharray: 0.8,1.32; stroke-dashoffset: 0; stroke: #b0b0b0; stroke-width: 0.8"/>
     </g>
     <g id="line2d_22">
      <g>
       <use xlink:href="#mecb36fd73c" x="50.856636" y="126.140165" style="stroke: #000000; stroke-width: 0.8"/>
      </g>
     </g>
     <g id="text_12">
      <!-- $\mathdefault{160}$ -->
      <g transform="translate(28.91263 129.599414)scale(0.1 -0.1)">
       <use xlink:href="#CMR17-31" transform="scale(0.996264)"/>
       <use xlink:href="#CMR17-36" transform="translate(45.690477 0)scale(0.996264)"/>
       <use xlink:href="#CMR17-30" transform="translate(91.380954 0)scale(0.996264)"/>
      </g>
     </g>
    </g>
    <g id="ytick_6">
     <g id="line2d_23">
      <path d="M 50.856636 77.02753 
L 723.161518 77.02753 
" clip-path="url(#pda1c593ec3)" style="fill: none; stroke-dasharray: 0.8,1.32; stroke-dashoffset: 0; stroke: #b0b0b0; stroke-width: 0.8"/>
     </g>
     <g id="line2d_24">
      <g>
       <use xlink:href="#mecb36fd73c" x="50.856636" y="77.02753" style="stroke: #000000; stroke-width: 0.8"/>
      </g>
     </g>
     <g id="text_13">
      <!-- $\mathdefault{180}$ -->
      <g transform="translate(28.91263 80.48678)scale(0.1 -0.1)">
       <use xlink:href="#CMR17-31" transform="scale(0.996264)"/>
       <use xlink:href="#CMR17-38" transform="translate(45.690477 0)scale(0.996264)"/>
       <use xlink:href="#CMR17-30" transform="translate(91.380954 0)scale(0.996264)"/>
      </g>
     </g>
    </g>
    <g id="ytick_7">
     <g id="line2d_25">
      <path d="M 50.856636 27.914896 
L 723.161518 27.914896 
" clip-path="url(#pda1c593ec3)" style="fill: none; stroke-dasharray: 0.8,1.32; stroke-dashoffset: 0; stroke: #b0b0b0; stroke-width: 0.8"/>
     </g>
     <g id="line2d_26">
      <g>
       <use xlink:href="#mecb36fd73c" x="50.856636" y="27.914896" style="stroke: #000000; stroke-width: 0.8"/>
      </g>
     </g>
     <g id="text_14">
      <!-- $\mathdefault{200}$ -->
      <g transform="translate(28.91263 31.374145)scale(0.1 -0.1)">
       <use xlink:href="#CMR17-32" transform="scale(0.996264)"/>
       <use xlink:href="#CMR17-30" transform="translate(45.690477 0)scale(0.996264)"/>
       <use xlink:href="#CMR17-30" transform="translate(91.380954 0)scale(0.996264)"/>
      </g>
     </g>
    </g>
    <g id="text_15">
     <!-- $Re$ -->
     <g transform="translate(21.036997 178.770833)rotate(-90)scale(0.2 -0.2)">
      <defs>
       <path id="CMMI12-52" d="M 2355 3924 
C 2413 4160 2438 4160 2688 4160 
L 3149 4160 
C 3699 4160 4109 3995 4109 3499 
C 4109 3175 3942 2240 2656 2240 
L 1933 2240 
L 2355 3924 
z
M 3245 2169 
C 4038 2341 4659 2851 4659 3398 
C 4659 3894 4154 4352 3264 4352 
L 1530 4352 
C 1402 4352 1344 4352 1344 4226 
C 1344 4160 1389 4160 1510 4160 
C 1894 4160 1894 4112 1894 4045 
C 1894 4033 1894 3994 1869 3899 
L 1005 479 
C 947 256 934 192 493 192 
C 346 192 301 192 301 71 
C 301 7 371 7 390 7 
C 506 7 640 7 762 7 
L 1517 7 
C 1632 7 1766 7 1882 7 
C 1933 7 2003 7 2003 128 
C 2003 192 1946 192 1850 192 
C 1459 192 1459 243 1459 306 
C 1459 313 1459 357 1472 407 
L 1901 2112 
L 2669 2112 
C 3277 2112 3392 1731 3392 1522 
C 3392 1427 3328 1179 3283 1014 
C 3213 723 3194 652 3194 532 
C 3194 82 3565 -128 3994 -128 
C 4512 -128 4736 501 4736 591 
C 4736 635 4704 654 4666 654 
C 4614 654 4602 616 4589 565 
C 4435 114 4173 0 4013 0 
C 3853 0 3750 70 3750 356 
C 3750 509 3827 1088 3834 1120 
C 3866 1355 3866 1380 3866 1432 
C 3866 1896 3488 2093 3245 2169 
z
" transform="scale(0.015625)"/>
       <path id="CMMI12-65" d="M 1146 1479 
C 1318 1479 1754 1479 2061 1595 
C 2547 1783 2592 2158 2592 2274 
C 2592 2558 2349 2816 1926 2816 
C 1254 2816 288 2210 288 1073 
C 288 402 672 -64 1254 -64 
C 2125 -64 2675 609 2675 692 
C 2675 730 2637 762 2611 762 
C 2592 762 2586 756 2528 699 
C 2118 159 1510 64 1267 64 
C 902 64 710 350 710 822 
C 710 911 710 1071 806 1479 
L 1146 1479 
z
M 838 1600 
C 1114 2592 1722 2689 1926 2689 
C 2208 2689 2400 2522 2400 2277 
C 2400 1600 1376 1600 1107 1600 
L 838 1600 
z
" transform="scale(0.015625)"/>
      </defs>
      <use xlink:href="#CMMI12-52" transform="scale(0.996264)"/>
      <use xlink:href="#CMMI12-65" transform="translate(75.070962 0)scale(0.996264)"/>
     </g>
    </g>
   </g>
   <g id="line2d_27">
    <path d="M 75.304086 221.093549 
L 75.365822 99.352169 
L 75.427558 100.799028 
L 75.674502 145.989281 
L 75.85971 195.471979 
L 75.921446 194.739955 
L 76.353598 173.59402 
L 76.662278 167.303182 
L 76.847486 166.26666 
L 76.909222 166.263713 
L 77.032694 166.678715 
L 77.279638 168.765511 
L 78.267414 180.993575 
L 79.193453 195.242623 
L 80.181229 208.766769 
L 80.798589 214.501406 
L 81.045533 216.022424 
L 81.354213 213.728373 
L 81.477685 213.661089 
L 81.601157 214.165476 
L 81.786365 216.127034 
L 82.033309 221.336166 
L 82.341989 227.404523 
L 82.650669 230.294065 
L 82.774141 230.0237 
L 82.897613 230.591933 
L 83.021085 231.973471 
L 83.082821 231.806243 
L 83.453236 230.416846 
L 84.502748 226.056872 
L 85.613996 222.78327 
L 86.046148 221.661291 
L 86.231356 221.569451 
L 86.416564 221.778916 
L 86.663508 222.52199 
L 87.033924 224.442785 
L 87.589547 228.683907 
L 88.021699 231.946214 
L 88.577323 235.413075 
L 89.071211 239.929472 
L 89.132947 240.648236 
L 89.194683 240.477815 
L 89.441627 239.89583 
L 89.565099 239.915475 
L 89.688571 240.135009 
L 89.750307 240.019103 
L 90.058987 239.660335 
L 90.244195 239.701344 
L 90.429403 240.012473 
L 90.676347 240.959855 
L 90.985027 243.13751 
L 91.293707 246.418234 
L 91.417179 246.137309 
L 91.725858 245.682772 
L 91.84933 245.705118 
L 92.034538 246.053572 
L 92.281482 247.261498 
L 92.590162 250.17093 
L 92.837106 253.615936 
L 92.898842 253.193076 
L 93.207522 251.70791 
L 93.39273 251.447613 
L 93.516202 251.561554 
L 93.70141 252.174971 
L 94.071826 254.47909 
L 94.133562 254.176556 
L 94.380506 253.521148 
L 94.503978 253.5349 
L 94.689186 253.979615 
L 94.93613 255.326283 
L 95.306546 258.7762 
L 95.430018 259.956131 
L 95.491754 259.719163 
L 95.676962 259.371936 
L 95.800434 259.443395 
L 95.985641 259.997386 
L 96.109113 260.556779 
L 96.664737 258.480297 
L 97.096889 257.657169 
L 97.405569 257.442301 
L 97.714249 257.482328 
L 98.084665 257.791492 
L 98.578553 258.54709 
L 99.134177 259.874359 
L 99.689801 261.850651 
L 100.368896 265.189328 
L 101.109728 269.735439 
L 101.2332 269.541444 
L 102.035768 268.480611 
L 102.46792 268.256412 
L 102.7766 268.315347 
L 103.147016 268.647594 
L 103.579168 269.406875 
L 104.073056 270.786695 
L 104.690415 273.273022 
L 105.307775 275.825185 
L 105.431247 275.834983 
L 105.678191 275.745671 
L 105.925135 275.88132 
L 106.233815 276.375369 
L 106.604231 277.440696 
L 106.789439 277.791777 
L 107.098119 277.915738 
L 107.406799 278.294691 
L 107.838951 279.253124 
L 108.332839 280.985449 
L 108.579783 281.771497 
L 108.888462 281.942482 
L 109.197142 282.409102 
L 109.567558 283.408986 
L 109.99971 285.026191 
L 110.123182 284.970792 
L 110.370126 285.05777 
L 110.61707 285.4297 
L 110.740542 285.657681 
L 111.54311 281.106733 
L 112.345678 277.833228 
L 113.086509 275.671266 
L 113.703869 274.479204 
L 114.136021 274.041389 
L 114.444701 273.965289 
L 114.753381 274.107642 
L 115.123797 274.585017 
L 115.555949 275.577264 
L 115.926365 276.800095 
L 115.988101 276.636869 
L 116.667197 274.908595 
L 117.161084 274.143175 
L 117.5315 273.891596 
L 117.654972 273.871754 
L 118.087124 270.12613 
L 118.334068 269.584663 
L 118.45754 269.760241 
L 118.519276 269.941221 
L 118.889692 265.699363 
L 119.136636 264.632636 
L 119.260108 264.620849 
L 119.445316 265.210446 
L 119.69226 266.989797 
L 119.939204 269.160821 
L 120.00094 268.984016 
L 120.124412 268.903716 
L 120.247884 269.16696 
L 120.494828 270.592209 
L 122.161699 283.598168 
L 122.655587 285.059367 
L 122.717323 285.281454 
L 122.779059 285.109584 
L 123.087739 284.547539 
L 123.272947 284.496192 
L 123.458155 284.646747 
L 123.766835 285.29717 
L 124.198987 286.864993 
L 124.260723 287.135038 
L 124.322459 287.118708 
L 124.569403 286.964618 
L 124.754611 286.985269 
L 125.125027 285.198822 
L 125.371971 284.723485 
L 125.557179 284.709881 
L 125.742386 284.958538 
L 126.051066 285.866606 
L 126.359746 287.254308 
L 126.421482 287.106308 
L 126.730162 286.599416 
L 126.977106 286.602903 
L 127.22405 286.870886 
L 127.656202 287.754251 
L 127.964882 288.524067 
L 128.026618 288.453885 
L 128.335298 288.097278 
L 128.582242 288.094798 
L 128.890922 288.387754 
L 129.261338 288.770759 
L 130.063905 289.246857 
L 130.866473 289.993345 
L 131.792513 291.18548 
L 131.915985 291.267621 
L 132.286401 291.240781 
L 132.595081 291.452628 
L 132.965497 292.048536 
L 133.212441 292.678922 
L 133.274177 292.567264 
L 133.768065 291.477086 
L 134.076745 291.184891 
L 134.44716 290.963393 
L 134.817576 290.22636 
L 135.06452 290.067333 
L 135.311464 290.192374 
L 135.558408 290.612827 
L 135.928824 291.815129 
L 135.99056 292.083333 
L 136.052296 291.873229 
L 136.546184 290.547482 
L 136.854864 290.202785 
L 137.101808 290.241879 
L 137.22528 290.370554 
L 137.53396 289.806962 
L 137.719168 289.735945 
L 137.904376 289.885395 
L 138.15132 290.452818 
L 138.336528 291.169445 
L 138.398263 291.015059 
L 138.892151 288.745073 
L 139.200831 288.188382 
L 139.386039 288.217284 
L 139.571247 288.530721 
L 139.632983 288.419162 
L 139.879927 287.943064 
L 140.065135 287.964649 
L 140.250343 288.32489 
L 140.497287 289.341448 
L 140.559023 288.99459 
L 140.929439 287.274764 
L 141.176383 286.855367 
L 141.299855 286.871377 
L 141.485063 287.180271 
L 141.546799 287.359213 
L 141.608535 287.216885 
L 141.855479 286.827888 
L 141.978951 286.896695 
L 142.164159 287.332005 
L 142.472839 288.933273 
L 142.658046 289.780417 
L 142.781518 289.578392 
L 142.966726 289.34658 
L 143.090198 289.400874 
L 143.275406 289.798613 
L 143.83103 285.397949 
L 144.201446 282.203983 
L 144.386654 281.827461 
L 144.510126 282.121007 
L 144.880542 278.535171 
L 145.06575 277.959374 
L 145.189222 278.124 
L 145.37443 279.062346 
L 145.68311 276.834032 
L 145.806582 276.631442 
L 145.930054 276.878503 
L 146.115262 278.158207 
L 146.176998 278.839325 
L 146.238734 278.758903 
L 146.485678 277.699445 
L 146.60915 277.787185 
L 146.794358 278.772213 
L 147.041301 281.330932 
L 147.103037 281.058946 
L 147.288245 280.815986 
L 147.411717 281.163826 
L 147.596925 282.498487 
L 147.843869 285.836697 
L 147.967341 285.635458 
L 148.090813 285.80055 
L 148.276021 286.768044 
L 148.522965 289.431987 
L 148.769909 291.907804 
L 148.893381 292.233716 
L 149.140325 293.891464 
L 149.263797 294.485211 
L 149.942893 294.580882 
L 150.621989 294.903994 
L 151.301084 295.473946 
L 152.103652 296.469337 
L 153.029692 298.010589 
L 154.387884 300.771309 
L 155.190452 302.307576 
L 155.375659 302.22659 
L 155.560867 302.380484 
L 155.807811 302.875343 
L 156.239963 301.537638 
L 156.548643 301.183339 
L 156.733851 301.227516 
L 156.857323 301.349143 
L 157.227739 300.384301 
L 157.474683 300.159905 
L 157.659891 300.215206 
L 157.968571 300.628808 
L 158.030307 300.448737 
L 158.400723 299.732945 
L 158.647667 299.600071 
L 158.894611 299.750282 
L 159.141555 300.198336 
L 159.388499 300.546913 
L 159.758914 300.877785 
L 160.005858 300.872137 
L 160.252802 301.117725 
L 160.561482 301.791329 
L 161.05537 303.363621 
L 161.178842 303.296754 
L 161.425786 303.322317 
L 161.487522 303.360969 
L 161.919674 302.632776 
L 162.166618 302.535484 
L 162.413562 302.700281 
L 162.59877 303.00392 
L 163.463074 300.175843 
L 163.710018 299.969815 
L 163.895225 300.014802 
L 164.142169 300.341941 
L 164.450849 301.168163 
L 164.512585 301.085237 
L 164.883001 300.098392 
L 165.191681 299.811009 
L 165.376889 299.875421 
L 165.623833 300.230849 
L 165.994249 301.301823 
L 166.179457 301.533881 
L 166.796817 302.056046 
L 167.475913 302.952622 
L 168.27848 304.422317 
L 169.698408 307.639539 
L 169.945352 307.982615 
L 170.315768 308.214746 
L 170.74792 308.757686 
L 171.241808 309.745636 
L 171.36528 310.053155 
L 171.427016 309.97121 
L 171.859168 309.484578 
L 172.229584 309.379526 
L 172.538263 309.51763 
L 172.908679 309.952744 
L 173.155623 310.402173 
L 173.217359 310.314164 
L 173.711247 309.365406 
L 174.081663 309.052706 
L 174.390343 309.043006 
L 174.699023 309.250777 
L 175.069439 309.771248 
L 175.439855 310.567634 
L 175.501591 310.514494 
L 175.995479 309.980394 
L 176.427631 309.833523 
L 176.798046 309.933221 
L 177.230198 310.310284 
L 177.724086 311.089799 
L 178.094502 311.781207 
L 178.835334 310.537872 
L 179.329222 310.117025 
L 179.699638 310.089203 
L 180.008318 310.279073 
L 180.378734 310.776117 
L 180.502206 310.894822 
L 181.057829 309.466504 
L 181.489981 308.914503 
L 181.798661 308.842283 
L 182.107341 309.040869 
L 182.477757 309.628158 
L 182.724701 310.11177 
L 182.786437 310.069509 
L 183.095117 310.041024 
L 183.589005 310.008143 
L 184.144629 308.297967 
L 184.576781 307.62122 
L 184.885461 307.50664 
L 185.132404 307.641921 
L 185.441084 308.098496 
L 185.8115 309.06987 
L 186.058444 309.825174 
L 186.12018 309.748411 
L 186.42886 309.526913 
L 186.675804 309.556528 
L 186.984484 309.871732 
L 187.293164 310.385328 
L 187.725316 309.544937 
L 188.033996 309.360912 
L 188.28094 309.37125 
L 189.330451 304.572283 
L 191.120795 295.299891 
L 191.861627 292.513658 
L 192.293779 291.04848 
L 192.540723 290.80304 
L 192.664195 290.87499 
L 192.787667 290.424259 
L 193.158083 289.082747 
L 193.405027 288.785076 
L 193.528498 288.848996 
L 193.65197 289.069119 
L 194.331066 287.410217 
L 194.516274 287.647234 
L 194.763218 288.322115 
L 195.071898 287.520916 
L 195.257106 287.445283 
L 195.442314 287.715132 
L 195.689258 288.660772 
L 195.81273 289.142959 
L 196.059674 288.692867 
L 196.244882 288.717791 
L 196.43009 289.083558 
L 196.677034 290.134347 
L 196.862242 291.080011 
L 196.923978 290.97238 
L 197.109186 290.842797 
L 197.294394 291.01975 
L 197.541338 291.758183 
L 197.850017 292.689309 
L 198.035225 292.880947 
L 198.282169 293.56069 
L 198.652585 294.909961 
L 198.714321 294.862715 
L 198.899529 294.873765 
L 199.084737 295.113926 
L 199.393417 296.002963 
L 199.516889 296.377545 
L 200.566401 292.104206 
L 200.998553 291.130278 
L 201.430705 290.674684 
L 201.801121 290.566072 
L 202.171536 290.698725 
L 202.603688 291.162888 
L 202.665424 291.067094 
L 203.03584 290.699535 
L 203.282784 290.700788 
L 203.591464 290.814753 
L 203.96188 290.563665 
L 204.208824 290.605656 
L 204.517504 290.934932 
L 204.88792 291.764936 
L 205.567016 293.620018 
L 205.628752 293.555533 
L 206.307847 291.421982 
L 206.493055 291.232481 
L 206.616527 291.170452 
L 207.295623 289.744565 
L 207.419095 289.763031 
L 207.727775 290.168407 
L 207.789511 290.105027 
L 208.098191 289.458926 
L 208.283399 289.438667 
L 208.468607 289.732827 
L 208.715551 290.606786 
L 208.777287 290.451639 
L 209.085967 290.055398 
L 209.271175 290.155441 
L 209.518119 290.714392 
L 209.765063 291.732055 
L 209.826799 291.624375 
L 210.073743 291.414762 
L 210.258951 291.50152 
L 210.505894 291.948003 
L 210.938046 293.377107 
L 211.061518 293.258623 
L 211.308462 293.227854 
L 211.555406 293.463545 
L 211.925822 294.251754 
L 212.296238 295.21996 
L 212.357974 295.17097 
L 212.666654 295.08851 
L 212.975334 295.24211 
L 213.469222 295.816286 
L 214.210054 296.755909 
L 214.703942 296.650292 
L 216.185605 296.747682 
L 216.926437 296.88564 
L 217.358589 297.190261 
L 217.852477 297.579773 
L 218.346365 297.606171 
L 218.716781 297.834692 
L 219.148932 298.410268 
L 219.64282 299.151206 
L 220.013236 299.117858 
L 220.321916 299.289851 
L 220.692332 299.780682 
L 221.124484 300.658178 
L 221.18622 300.602877 
L 221.556636 300.453943 
L 221.865316 300.598187 
L 222.173996 301.019303 
L 222.606148 301.900752 
L 222.667884 301.8358 
L 222.976564 301.676872 
L 223.223507 301.765889 
L 223.532187 302.174088 
L 223.902603 303.129624 
L 223.964339 303.329095 
L 224.026075 303.256899 
L 224.334755 303.084784 
L 224.581699 303.189909 
L 224.890379 303.645527 
L 225.199059 304.354002 
L 225.260795 304.323183 
L 225.507739 304.324289 
L 225.754683 304.528597 
L 226.248571 305.242842 
L 226.310307 305.166889 
L 226.618987 304.95902 
L 226.865931 305.005309 
L 227.174611 305.331785 
L 227.545026 305.934741 
L 227.606762 305.857585 
L 227.977178 305.620788 
L 228.224122 305.683923 
L 228.532802 306.010743 
L 228.841482 306.598277 
L 228.903218 306.535388 
L 229.273634 306.256011 
L 229.582314 306.302791 
L 229.890994 306.593931 
L 230.26141 307.110375 
L 230.323146 307.038646 
L 230.693562 306.797429 
L 231.002242 306.833969 
L 231.743073 307.121793 
L 232.236961 306.787189 
L 232.730849 306.704139 
L 233.224737 306.839396 
L 233.780361 307.02514 
L 234.335985 306.771571 
L 235.076817 306.688374 
L 235.262025 306.597958 
L 235.941121 305.984271 
L 236.55848 305.695145 
L 237.237576 305.418886 
L 237.854936 304.916808 
L 238.348824 304.760507 
L 238.780976 304.67871 
L 239.398336 304.09616 
L 239.892224 303.925273 
L 240.324375 303.879598 
L 240.879999 303.271928 
L 241.373887 303.04655 
L 241.929511 302.905105 
L 242.485135 302.290633 
L 242.917287 302.081536 
L 243.472911 301.959982 
L 244.090271 301.205587 
L 244.584158 300.923018 
L 245.078046 300.780493 
L 245.695406 299.89342 
L 246.189294 299.529839 
L 246.683182 299.34439 
L 247.238806 298.460756 
L 247.670958 298.150487 
L 247.979638 298.180544 
L 248.10311 298.147024 
L 248.843941 297.156594 
L 249.152621 297.14962 
L 249.276093 297.184024 
L 249.646509 296.725926 
L 250.078661 296.576574 
L 250.325605 296.611493 
L 250.449077 296.616945 
L 250.819493 296.186742 
L 251.066437 296.168252 
L 251.313381 296.38334 
L 251.560325 296.594697 
L 251.930741 296.157496 
L 252.177685 296.159853 
L 252.424629 296.411654 
L 252.733309 296.890379 
L 253.041988 296.566604 
L 253.288932 296.587281 
L 253.535876 296.8643 
L 253.906292 297.58299 
L 253.968028 297.502396 
L 254.276708 297.33502 
L 254.523652 297.488399 
L 254.832332 298.036496 
L 255.079276 298.607013 
L 255.141012 298.539041 
L 255.387956 298.424658 
L 255.6349 298.56237 
L 255.94358 299.079059 
L 256.25226 299.889467 
L 256.313996 299.83117 
L 256.56094 299.752271 
L 256.807884 299.916012 
L 257.116564 300.443163 
L 257.486979 301.316066 
L 257.548715 301.279182 
L 257.795659 301.277365 
L 258.042603 301.498888 
L 258.413019 302.205889 
L 258.783435 302.886835 
L 259.030379 302.931503 
L 259.339059 303.257317 
L 259.771211 304.121429 
L 260.018155 304.58321 
L 260.326835 304.668323 
L 260.697251 305.072593 
L 261.252875 306.075891 
L 261.438082 306.2691 
L 261.808498 306.436967 
L 262.364122 306.99 
L 263.16669 307.796675 
L 264.154466 308.090933 
L 265.389186 308.413505 
L 266.006545 308.313094 
L 266.438697 308.455668 
L 266.747377 308.598365 
L 267.241265 308.362207 
L 267.611681 308.389366 
L 267.982097 308.645218 
L 268.105569 308.71567 
L 268.599457 308.439412 
L 268.969873 308.483564 
L 269.340289 308.776668 
L 269.463761 308.829906 
L 269.895912 308.578179 
L 270.266328 308.61219 
L 270.636744 308.89417 
L 270.821952 308.977686 
L 271.254104 308.753143 
L 271.62452 308.81306 
L 272.180144 308.990308 
L 272.488824 308.987926 
L 272.85924 308.986502 
L 273.044448 308.977882 
L 273.414864 308.901954 
L 273.78528 309.039322 
L 274.032224 309.15071 
L 274.464375 308.835873 
L 274.834791 308.793096 
L 275.205207 308.968895 
L 275.328679 309.037775 
L 275.822567 308.652364 
L 276.192983 308.610888 
L 276.378191 308.56843 
L 276.810343 308.33986 
L 277.180759 308.266461 
L 277.736383 307.50389 
L 278.168535 307.248578 
L 278.662422 307.04395 
L 279.15631 306.415627 
L 279.588462 306.204492 
L 279.958878 306.168542 
L 280.452766 305.500389 
L 280.884918 305.271917 
L 281.378806 305.136955 
L 281.872694 304.569164 
L 282.24311 304.436928 
L 282.675261 304.380964 
L 283.169149 303.819828 
L 283.539565 303.695843 
L 283.909981 303.653238 
L 284.712549 303.028132 
L 284.959493 302.908666 
L 285.391645 302.474363 
L 285.762061 302.39038 
L 285.947269 302.409264 
L 286.502893 301.638638 
L 286.873308 301.463723 
L 287.243724 301.444667 
L 287.737612 300.786828 
L 288.108028 300.628145 
L 288.54018 300.547576 
L 288.972332 300.025877 
L 289.342748 299.896711 
L 289.7749 299.849538 
L 290.207052 299.369094 
L 290.577468 299.275068 
L 291.00962 299.249578 
L 291.441771 298.815251 
L 291.812187 298.755824 
L 292.182603 298.827873 
L 292.614755 298.382028 
L 292.985171 298.308335 
L 293.417323 298.385736 
L 293.849475 297.983356 
L 294.219891 297.944115 
L 294.652043 298.004524 
L 295.084195 297.648212 
L 295.392874 297.630531 
L 295.886762 297.679791 
L 296.257178 297.397516 
L 296.565858 297.384182 
L 296.812802 297.363727 
L 297.183218 297.16541 
L 297.862314 297.046926 
L 298.23273 296.773172 
L 298.54141 296.76912 
L 298.911826 296.799275 
L 299.343978 296.429899 
L 299.652657 296.41794 
L 300.023073 296.516706 
L 300.455225 296.138244 
L 300.763905 296.126604 
L 301.196057 296.181905 
L 301.566473 295.886443 
L 301.875153 295.881164 
L 301.936889 295.90626 
L 302.554249 293.080614 
L 302.924665 292.355834 
L 303.295081 290.767826 
L 303.542025 290.380843 
L 303.665497 290.329201 
L 304.097648 289.041419 
L 304.344592 288.640562 
L 304.468064 288.585408 
L 304.776744 287.761789 
L 304.961952 287.710909 
L 305.085424 287.74735 
L 305.332368 287.423452 
L 305.641048 286.823173 
L 305.76452 286.849227 
L 305.949728 287.199622 
L 306.0732 287.531451 
L 306.38188 286.783466 
L 306.567088 286.78101 
L 306.752296 287.148102 
L 306.937504 287.90704 
L 306.99924 287.82404 
L 307.246184 287.453092 
L 307.369656 287.495132 
L 307.554864 287.864926 
L 307.863544 289.136648 
L 307.987016 288.952992 
L 308.172223 288.956405 
L 308.357431 289.317457 
L 308.604375 290.389512 
L 308.727847 291.186904 
L 308.789583 291.112671 
L 308.974791 291.108766 
L 309.159999 291.451622 
L 309.406943 292.480016 
L 309.715623 293.847581 
L 309.900831 294.050466 
L 310.024303 294.241268 
L 310.332983 294.094544 
L 310.641663 294.193506 
L 310.826871 294.234835 
L 311.444231 293.891906 
L 311.876383 293.858362 
L 312.185063 293.74361 
L 312.67895 293.753383 
L 313.049366 293.424255 
L 313.358046 293.421284 
L 313.666726 293.482945 
L 314.037142 293.109811 
L 314.345822 293.073959 
L 314.716238 293.142545 
L 315.086654 292.787608 
L 315.395334 292.771573 
L 315.76575 292.827659 
L 316.136166 292.495339 
L 316.444846 292.503712 
L 316.753525 292.632682 
L 317.123941 292.265467 
L 317.432621 292.250561 
L 317.803037 292.383804 
L 318.173453 292.050354 
L 318.482133 292.069336 
L 318.852549 292.177113 
L 319.222965 291.884156 
L 319.531645 291.941569 
L 319.778589 292.182295 
L 319.840325 292.095316 
L 320.210741 291.782051 
L 320.519421 291.826498 
L 320.889836 291.971086 
L 321.260252 291.708874 
L 321.568932 291.798504 
L 321.815876 292.052048 
L 321.877612 291.966567 
L 322.248028 291.692445 
L 322.494972 291.736033 
L 322.927124 291.925485 
L 323.235804 291.719433 
L 323.482748 291.759926 
L 323.9149 291.999645 
L 324.22358 291.791677 
L 324.470524 291.832318 
L 324.964412 292.053571 
L 325.273091 291.906184 
L 325.520035 291.996428 
L 325.828715 292.118105 
L 326.384339 292.105974 
L 326.693019 292.187181 
L 327.001699 292.144257 
L 327.619059 292.29324 
L 327.927739 292.211566 
L 328.236419 292.414033 
L 328.421627 292.586172 
L 328.730307 292.353501 
L 328.977251 292.373343 
L 329.28593 292.653702 
L 329.409402 292.747065 
L 329.718082 292.536716 
L 329.965026 292.574778 
L 330.273706 292.877533 
L 330.397178 292.959551 
L 330.705858 292.773292 
L 330.952802 292.830385 
L 331.261482 293.1561 
L 331.384954 293.219676 
L 331.693634 293.058759 
L 331.940578 293.13562 
L 332.249258 293.484713 
L 332.310994 293.583576 
L 332.37273 293.522382 
L 332.68141 293.387985 
L 332.928354 293.485253 
L 333.29877 293.917984 
L 333.360506 293.79481 
L 333.792657 292.957047 
L 334.039601 292.65994 
L 334.533489 291.16748 
L 334.965641 290.513914 
L 335.583001 290.066621 
L 336.015153 289.850329 
L 337.002929 289.566777 
L 338.05244 288.059608 
L 338.422856 287.840468 
L 338.731536 287.869223 
L 339.163688 287.956128 
L 339.534104 287.806359 
L 340.027992 287.757418 
L 340.398408 287.511953 
L 340.707088 287.556302 
L 340.954032 287.60264 
L 341.324448 287.332324 
L 341.694864 287.348408 
L 342.250487 287.660642 
L 343.176527 288.19042 
L 344.349511 288.544178 
L 344.658191 288.652717 
L 345.028607 288.700234 
L 345.152079 288.714427 
L 345.707703 288.368355 
L 346.016383 288.386674 
L 346.325062 288.656008 
L 346.448534 288.796814 
L 346.51027 288.750525 
L 346.81895 288.644196 
L 347.065894 288.74581 
L 347.374574 289.14652 
L 347.621518 289.442546 
L 347.868462 289.466612 
L 348.177142 289.777691 
L 348.856238 290.709947 
L 349.164918 291.137448 
L 349.967486 292.491606 
L 352.313453 296.449004 
L 352.498661 296.550888 
L 353.116021 295.967332 
L 353.362965 296.104331 
L 353.486437 296.241159 
L 353.856853 295.749394 
L 354.103797 295.694143 
L 354.350741 295.852629 
L 354.474213 296.005861 
L 354.535949 295.898157 
L 354.906364 295.525809 
L 355.153308 295.532268 
L 355.58546 295.659764 
L 355.955876 295.363517 
L 356.264556 295.421469 
L 356.573236 295.553607 
L 356.943652 295.221016 
L 357.252332 295.214828 
L 357.684484 295.310745 
L 358.0549 295.038268 
L 358.36358 295.051848 
L 358.795732 295.145579 
L 359.166147 294.933634 
L 359.474827 294.994803 
L 359.906979 295.155942 
L 360.215659 295.042369 
L 360.524339 295.156777 
L 361.018227 295.471908 
L 361.326907 295.480748 
L 361.635587 295.719853 
L 362.129475 296.175938 
L 362.438155 296.310531 
L 362.808571 296.745988 
L 363.240722 297.24927 
L 363.611138 297.529457 
L 363.981554 297.789411 
L 364.290234 297.953692 
L 364.598914 298.166006 
L 364.907594 298.063066 
L 365.216274 298.201981 
L 365.58669 298.455771 
L 365.89537 298.375766 
L 366.20405 298.536045 
L 366.51273 298.684881 
L 367.13009 298.847542 
L 367.377034 298.942845 
L 367.685713 299.003917 
L 368.241337 299.260015 
L 368.550017 299.238307 
L 368.858697 299.460542 
L 369.105641 299.636733 
L 369.414321 299.531239 
L 369.723001 299.668411 
L 370.155153 299.930132 
L 370.463833 299.884555 
L 370.772513 300.07968 
L 371.081193 300.329663 
L 371.389873 300.245067 
L 371.698553 300.399452 
L 372.130704 300.684502 
L 372.439384 300.653979 
L 372.748064 300.860325 
L 373.056744 301.134374 
L 373.365424 301.060361 
L 373.674104 301.221426 
L 374.106256 301.540069 
L 374.414936 301.514137 
L 374.723616 301.720975 
L 375.094032 302.000303 
L 375.402712 301.972849 
L 375.711392 302.176004 
L 376.081807 302.47925 
L 376.390487 302.447793 
L 376.699167 302.644661 
L 377.131319 302.948914 
L 377.439999 302.956379 
L 377.748679 303.189345 
L 378.057359 303.484241 
L 378.366039 303.437584 
L 378.674719 303.614365 
L 379.168607 303.955968 
L 379.477287 303.986885 
L 379.785967 304.237408 
L 380.094647 304.505097 
L 380.403326 304.477888 
L 380.712006 304.668077 
L 381.144158 305.014959 
L 381.452838 305.014935 
L 381.761518 305.22855 
L 382.131934 305.552694 
L 382.440614 305.533982 
L 382.749294 305.725791 
L 383.181446 306.069039 
L 383.490126 306.071544 
L 383.798806 306.280347 
L 384.230958 306.587325 
L 384.539637 306.607707 
L 384.910053 306.898208 
L 385.218733 307.122407 
L 385.527413 307.117324 
L 385.897829 307.372587 
L 386.268245 307.635315 
L 386.576925 307.642559 
L 386.947341 307.90649 
L 387.256021 308.164995 
L 387.626437 308.161581 
L 388.182061 308.314297 
L 388.552477 307.990399 
L 389.231572 307.398715 
L 390.528028 306.224776 
L 390.836708 306.058726 
L 391.392332 305.347035 
L 391.824484 305.120183 
L 392.133164 305.038214 
L 392.627052 304.454388 
L 393.059203 304.238612 
L 393.614827 304.040884 
L 394.108715 303.644594 
L 394.540867 303.54357 
L 394.973019 303.485101 
L 395.466907 303.13068 
L 395.899059 303.045396 
L 396.454683 303.000261 
L 396.948571 302.748068 
L 397.380722 302.766043 
L 397.751138 302.818127 
L 398.245026 302.603947 
L 398.80065 302.461716 
L 399.232802 302.315017 
L 399.664954 302.394015 
L 399.788426 302.356026 
L 400.282314 302.083549 
L 400.714466 302.079669 
L 401.208354 302.093396 
L 401.702241 301.936997 
L 402.196129 302.016952 
L 402.443073 302.028297 
L 402.998697 301.830496 
L 403.554321 301.882531 
L 403.739529 301.861364 
L 404.295153 301.607549 
L 404.912513 301.579236 
L 405.097721 301.470697 
L 405.71508 301.130248 
L 406.517648 300.7815 
L 407.196744 300.362888 
L 407.752368 300.040071 
L 408.431464 299.50489 
L 409.11056 299.049002 
L 409.789656 298.495847 
L 410.468751 298.021075 
L 411.086111 297.520985 
L 411.641735 297.108464 
L 412.320831 296.49873 
L 412.691247 296.155114 
L 413.370343 295.449979 
L 414.111175 294.796609 
L 414.666798 294.340844 
L 415.160686 293.980382 
L 415.71631 293.514156 
L 416.395406 293.085795 
L 416.889294 292.774765 
L 417.136238 292.655593 
L 417.630126 292.162085 
L 418.556165 291.459701 
L 418.988317 291.268456 
L 419.173525 291.20984 
L 419.667413 290.737401 
L 420.099565 290.626406 
L 420.223037 290.583703 
L 420.716925 290.140953 
L 420.840397 290.090318 
L 421.334285 288.233786 
L 421.519493 288.30387 
L 421.889909 286.500601 
L 422.013381 286.390344 
L 422.136853 286.578887 
L 422.198589 286.795204 
L 422.260325 286.671661 
L 422.569005 285.332777 
L 422.692476 285.246216 
L 422.815948 285.463514 
L 422.93942 285.722215 
L 423.124628 285.215815 
L 423.309836 284.795288 
L 423.433308 284.870308 
L 423.55678 285.264559 
L 423.618516 285.171122 
L 423.741988 285.118842 
L 423.86546 285.227381 
L 424.050668 285.019536 
L 424.17414 285.251323 
L 424.235876 285.447111 
L 424.297612 285.35252 
L 424.421084 285.387292 
L 424.914972 286.283597 
L 425.038444 286.241238 
L 425.161916 286.504923 
L 425.470596 287.458347 
L 425.594068 287.507288 
L 426.087956 287.291217 
L 426.520108 286.922233 
L 427.137467 286.614764 
L 427.569619 286.312181 
L 428.063507 286.117228 
L 428.495659 285.774913 
L 428.804339 285.766662 
L 428.927811 285.754065 
L 429.359963 285.31431 
L 429.730379 285.251201 
L 429.915587 285.270109 
L 430.347739 284.845358 
L 430.718155 284.799119 
L 430.903363 284.835757 
L 431.335514 284.427164 
L 431.644194 284.382251 
L 431.952874 284.367566 
L 432.32329 284.05796 
L 432.63197 284.027633 
L 432.94065 284.028394 
L 433.311066 283.737647 
L 433.496274 283.6877 
L 434.237106 281.540201 
L 435.039674 279.311199 
L 435.718769 277.569493 
L 436.274393 276.450388 
L 436.397865 276.123789 
L 437.076961 274.108035 
L 437.632585 273.125193 
L 438.064737 272.734993 
L 438.311681 272.505146 
L 438.990777 271.228463 
L 439.916816 270.070142 
L 440.16376 269.837839 
L 440.966328 268.359303 
L 441.460216 267.802366 
L 441.768896 267.70635 
L 442.01584 267.685723 
L 442.571464 266.77321 
L 442.880144 266.593949 
L 443.127088 266.680633 
L 443.435768 267.03228 
L 443.497504 266.935282 
L 444.300071 265.996985 
L 444.547015 266.078512 
L 444.793959 266.33488 
L 444.855695 266.22806 
L 445.226111 265.849156 
L 445.473055 265.884272 
L 445.719999 266.179193 
L 445.966943 266.722624 
L 446.028679 266.667864 
L 446.275623 266.59444 
L 446.522567 266.767317 
L 446.831247 267.341935 
L 447.201663 268.010112 
L 447.633815 268.02018 
L 447.880759 268.358812 
L 448.251174 268.895613 
L 448.498118 268.963143 
L 448.745062 269.280165 
L 449.485894 270.464025 
L 449.794574 271.026119 
L 450.288462 271.997812 
L 450.597142 272.488202 
L 451.584918 274.43294 
L 451.893598 274.88232 
L 452.078806 275.081865 
L 452.325749 275.185812 
L 452.634429 275.663309 
L 453.066581 276.853554 
L 453.436997 277.731 
L 454.795189 281.359786 
L 455.412549 283.111805 
L 456.215117 285.629908 
L 456.276853 285.526845 
L 456.585532 285.271091 
L 456.955948 285.315293 
L 457.017684 285.325901 
L 457.3881 284.596063 
L 457.881988 284.154319 
L 458.31414 283.774826 
L 459.301916 282.039382 
L 461.215731 278.596046 
L 461.339203 278.51194 
L 461.771355 277.762997 
L 462.018299 277.65269 
L 462.141771 277.694608 
L 462.512187 277.1886 
L 462.759131 277.106361 
L 463.129547 277.10894 
L 463.438227 276.908094 
L 463.685171 276.956028 
L 464.055587 277.115496 
L 464.364267 277.012433 
L 464.672947 277.147297 
L 465.105098 277.43684 
L 465.475514 277.457099 
L 466.031138 277.604314 
L 466.339818 277.816997 
L 466.648498 278.076852 
L 467.018914 278.047556 
L 467.327594 278.253559 
L 468.00669 278.872304 
L 468.31537 279.086951 
L 468.685786 279.637651 
L 469.056202 280.144076 
L 469.426617 280.462719 
L 469.858769 281.226273 
L 470.229185 281.812727 
L 470.599601 282.205039 
L 471.031753 283.048032 
L 471.402169 283.680726 
L 471.772585 284.104887 
L 472.204737 284.990216 
L 472.575153 285.705934 
L 472.945569 286.14866 
L 473.377721 287.066379 
L 473.809872 287.967448 
L 474.180288 288.47601 
L 474.61244 289.479504 
L 475.044592 290.415591 
L 475.415008 290.986991 
L 475.908896 292.252403 
L 476.217576 292.927432 
L 476.526256 293.114207 
L 476.896672 293.070669 
L 477.575768 293.137756 
L 477.946183 293.182891 
L 478.316599 293.278734 
L 478.687015 293.217663 
L 479.057431 293.395598 
L 479.180903 293.404389 
L 479.551319 293.314587 
L 479.921735 293.463447 
L 480.106943 293.515359 
L 480.477359 293.434888 
L 480.847775 293.59583 
L 481.032983 293.643346 
L 481.403399 293.572231 
L 481.773815 293.745403 
L 481.959023 293.787811 
L 482.329438 293.726077 
L 482.699854 293.911649 
L 482.885062 293.948115 
L 483.255478 293.895884 
L 483.625894 294.093955 
L 483.811102 294.123594 
L 484.181518 294.080965 
L 484.551934 294.29156 
L 484.675406 294.34271 
L 485.045822 294.268722 
L 485.416238 294.447959 
L 485.601446 294.545079 
L 485.971862 294.480177 
L 486.342277 294.671127 
L 486.527485 294.760438 
L 486.897901 294.704425 
L 487.268317 294.906622 
L 487.453525 294.987977 
L 487.823941 294.940534 
L 488.194357 295.15329 
L 488.379565 295.226885 
L 488.749981 295.18757 
L 489.120397 295.410075 
L 489.305605 295.476426 
L 489.676021 295.444675 
L 490.046437 295.676045 
L 490.231645 295.735864 
L 490.60206 295.711136 
L 490.972476 295.950511 
L 491.157684 296.004535 
L 491.5281 295.986314 
L 491.898516 296.232933 
L 492.083724 296.281874 
L 492.45414 296.269743 
L 494.244484 296.841217 
L 495.479203 297.314393 
L 495.664411 297.334014 
L 496.096563 297.455887 
L 499.924194 298.783868 
L 500.109402 298.789049 
L 500.479818 298.798528 
L 500.850234 299.074393 
L 500.973706 299.106955 
L 501.344122 299.071569 
L 501.714538 299.299501 
L 501.899746 299.401312 
L 502.270162 299.364183 
L 502.640578 299.585484 
L 502.825786 299.696135 
L 503.196202 299.655028 
L 503.566617 299.866973 
L 503.813561 299.965125 
L 504.183977 299.959624 
L 504.554393 300.199932 
L 504.739601 300.25764 
L 505.110017 300.242341 
L 505.480433 300.46708 
L 505.665641 300.548215 
L 506.036057 300.520564 
L 506.468209 300.549835 
L 507.085569 300.423223 
L 507.764664 300.357191 
L 508.382024 300.132304 
L 508.937648 300.169924 
L 509.3698 300.230898 
L 509.925424 300.098441 
L 510.419312 300.195684 
L 510.9132 300.301031 
L 511.654032 300.110646 
L 512.209655 299.894132 
L 512.703543 299.953804 
L 513.012223 299.989632 
L 513.506111 299.865942 
L 513.938263 299.968194 
L 514.555623 300.157081 
L 514.987775 300.219651 
L 515.234719 300.233869 
L 515.728607 300.083167 
L 516.160758 300.182031 
L 516.345966 300.193793 
L 516.839854 300.055025 
L 517.272006 300.172061 
L 517.642422 300.272054 
L 518.074574 300.232813 
L 518.506726 300.424131 
L 518.75367 300.497064 
L 519.185822 300.44719 
L 520.605749 300.63205 
L 521.037901 300.456251 
L 521.470053 300.529134 
L 521.655261 300.52356 
L 522.087413 300.298747 
L 523.013453 300.030052 
L 523.569077 299.750011 
L 523.877757 299.639975 
L 524.371645 299.165497 
L 524.74206 299.060544 
L 524.865532 298.998023 
L 525.35942 298.426794 
L 525.791572 298.256742 
L 525.915044 298.182729 
L 526.532404 297.492967 
L 527.088028 297.059548 
L 527.643652 296.578981 
L 527.890596 296.376023 
L 528.384484 295.797132 
L 528.940107 295.331397 
L 529.372259 294.799261 
L 529.742675 294.643845 
L 529.866147 294.503309 
L 530.360035 293.806769 
L 530.730451 293.617341 
L 530.853923 293.571568 
L 531.347811 292.813589 
L 531.718227 292.582243 
L 531.903435 292.496616 
L 532.397323 291.736671 
L 532.767739 291.503951 
L 532.952946 291.386817 
L 533.446834 290.622576 
L 533.81725 290.387965 
L 534.002458 290.247355 
L 534.496346 289.48552 
L 534.866762 289.25695 
L 535.05197 289.116954 
L 535.545858 288.372161 
L 535.916274 288.160854 
L 536.101482 288.059461 
L 536.59537 287.344258 
L 536.965786 287.15682 
L 537.150994 287.133663 
L 537.644881 286.44918 
L 538.015297 286.284629 
L 538.200505 286.108609 
L 538.817865 285.617384 
L 539.003073 285.444925 
L 539.435225 284.965414 
L 539.805641 284.876324 
L 539.867377 284.876569 
L 540.361265 284.202474 
L 540.731681 284.047941 
L 540.978625 283.981811 
L 541.410777 283.456453 
L 541.781192 283.343052 
L 542.028136 283.291214 
L 542.460288 282.813004 
L 542.768968 282.736265 
L 543.077648 282.685434 
L 543.5098 282.265545 
L 543.81848 282.233941 
L 544.065424 282.25366 
L 544.497576 281.838388 
L 544.806256 281.812211 
L 545.0532 281.799786 
L 546.349655 281.236218 
L 546.596599 281.250363 
L 547.152223 280.825145 
L 547.460903 280.895917 
L 547.584375 280.922609 
L 547.954791 280.572338 
L 548.263471 280.53597 
L 548.633887 280.597336 
L 549.004303 280.344161 
L 549.312983 280.387724 
L 549.621663 280.460803 
L 549.992078 280.25318 
L 550.300758 280.332104 
L 550.609438 280.427628 
L 550.979854 280.266612 
L 551.288534 280.38129 
L 551.597214 280.488945 
L 551.905894 280.370878 
L 552.214574 280.477895 
L 552.58499 280.634613 
L 552.89367 280.555959 
L 554.807485 280.982232 
L 554.930957 280.994068 
L 555.301373 280.875265 
L 555.610053 281.012977 
L 555.918733 281.153144 
L 556.227413 281.077584 
L 556.536093 281.223252 
L 556.844773 281.403643 
L 557.153453 281.335671 
L 557.462133 281.492979 
L 557.770813 281.700431 
L 558.079493 281.644049 
L 558.388172 281.814691 
L 558.696852 282.039087 
L 559.005532 281.996285 
L 559.314212 282.179917 
L 559.622892 282.414185 
L 559.931572 282.384815 
L 560.240252 282.579768 
L 560.548932 282.819266 
L 560.857612 282.801634 
L 561.166292 283.005869 
L 561.474972 283.247405 
L 561.783652 283.239523 
L 562.092332 283.451665 
L 562.401012 283.692636 
L 562.709691 283.693348 
L 564.500035 284.560751 
L 564.685243 284.703398 
L 564.993923 284.64407 
L 565.302603 284.800789 
L 565.673019 285.021722 
L 565.981699 285.019168 
L 566.290379 285.232022 
L 566.537323 285.404776 
L 566.846003 285.373663 
L 567.154682 285.556804 
L 567.463362 285.772531 
L 567.772042 285.756226 
L 568.080722 285.950957 
L 568.389402 286.148538 
L 568.698082 286.145885 
L 569.006762 286.350489 
L 569.315442 286.527466 
L 569.624122 286.537018 
L 569.994538 286.817059 
L 570.179746 286.923388 
L 570.488426 286.903276 
L 570.797106 287.085975 
L 571.105786 287.286526 
L 571.414465 287.278472 
L 571.723145 287.472 
L 572.031825 287.635496 
L 572.340505 287.640776 
L 572.710921 287.912909 
L 572.896129 287.988616 
L 573.204809 287.968554 
L 573.513489 288.151744 
L 573.822169 288.302323 
L 574.130849 288.300432 
L 574.439529 288.503267 
L 574.686473 288.624747 
L 574.995153 288.602278 
L 575.303833 288.786795 
L 575.550776 288.939609 
L 575.859456 288.898378 
L 576.168136 289.06627 
L 576.476816 289.223406 
L 576.785496 289.207076 
L 577.094176 289.401194 
L 577.34112 289.535369 
L 577.6498 289.502415 
L 577.95848 289.68143 
L 578.205424 289.854209 
L 578.514104 289.804433 
L 578.822784 289.967904 
L 579.131464 290.150824 
L 579.440144 290.126661 
L 579.748823 290.31626 
L 579.995767 290.482212 
L 580.304447 290.439926 
L 580.613127 290.612606 
L 580.921807 290.774358 
L 581.353959 290.824723 
L 581.909583 291.063681 
L 582.341735 291.213523 
L 582.526943 291.249646 
L 582.835623 291.3352 
L 583.267775 291.529858 
L 583.576455 291.518955 
L 585.18159 291.995397 
L 585.49027 292.084462 
L 585.922422 292.271631 
L 586.231102 292.265614 
L 586.539782 292.471715 
L 586.72499 292.553488 
L 587.03367 292.495069 
L 587.34235 292.650142 
L 587.589294 292.809561 
L 587.897974 292.742252 
L 588.206653 292.889369 
L 588.515333 293.03516 
L 588.824013 293.002844 
L 589.132693 293.185396 
L 589.379637 293.293763 
L 589.688317 293.25408 
L 589.996997 293.429486 
L 590.243941 293.55433 
L 590.552621 293.507624 
L 590.861301 293.676129 
L 591.108245 293.815634 
L 591.416925 293.762175 
L 591.725605 293.923952 
L 591.972549 294.075759 
L 592.281229 294.015768 
L 592.589908 294.171258 
L 592.836852 294.332446 
L 593.145532 294.266242 
L 593.454212 294.416134 
L 593.762892 294.55193 
L 594.071572 294.523322 
L 594.380252 294.712406 
L 594.56546 294.827354 
L 594.87414 294.750935 
L 595.18282 294.893238 
L 595.4915 295.029919 
L 595.80018 294.994116 
L 596.10886 295.179786 
L 596.294068 295.291738 
L 596.602747 295.210776 
L 596.911427 295.352835 
L 597.158371 295.514194 
L 597.467051 295.434091 
L 597.775731 295.579293 
L 598.022675 295.733138 
L 598.331355 295.656203 
L 598.640035 295.806537 
L 598.886979 295.951567 
L 599.195659 295.879936 
L 599.504339 296.036924 
L 599.751283 296.172696 
L 600.059963 296.108089 
L 600.368643 296.272567 
L 600.615587 296.399572 
L 600.924266 296.342921 
L 601.232946 296.515036 
L 601.47989 296.634625 
L 601.78857 296.586151 
L 602.09725 296.765388 
L 602.344194 296.879648 
L 602.652874 296.838811 
L 602.961554 297.02426 
L 603.208498 297.13577 
L 603.517178 297.101564 
L 603.825858 297.292194 
L 604.072802 297.403655 
L 604.381482 297.3749 
L 604.690162 297.569754 
L 604.937106 297.683745 
L 605.245785 297.659434 
L 605.554465 297.8578 
L 605.801409 297.976554 
L 606.110089 297.955976 
L 606.418769 298.157411 
L 606.665713 298.282771 
L 606.974393 298.265558 
L 607.468281 298.555592 
L 607.653489 298.571038 
L 607.962169 298.645788 
L 608.517793 298.908319 
L 608.826473 298.985672 
L 609.382096 299.144256 
L 609.999456 299.32639 
L 610.184664 299.350235 
L 610.55508 299.419925 
L 610.987232 299.565618 
L 611.357648 299.553831 
L 612.09848 299.697363 
L 612.468896 299.793378 
L 612.777576 299.911224 
L 613.147992 299.850741 
L 613.518408 300.011831 
L 613.703615 300.047757 
L 614.074031 299.979638 
L 614.444447 300.132181 
L 614.629655 300.169728 
L 615.000071 300.093211 
L 615.370487 300.238338 
L 615.555695 300.278488 
L 615.926111 300.193302 
L 616.296527 300.332266 
L 616.481735 300.375092 
L 616.852151 300.281336 
L 617.222567 300.415242 
L 617.407775 300.460229 
L 617.778191 300.358149 
L 618.148606 300.487831 
L 618.333814 300.534193 
L 618.70423 300.424082 
L 619.074646 300.550154 
L 619.259854 300.597106 
L 619.63027 300.479432 
L 620.000686 300.602165 
L 620.185894 300.649264 
L 620.55631 300.524444 
L 620.926726 300.64396 
L 621.111934 300.691157 
L 621.48235 300.559756 
L 621.852766 300.676055 
L 622.037973 300.723743 
L 622.408389 300.586252 
L 622.778805 300.699187 
L 622.964013 300.748177 
L 623.334429 300.605161 
L 623.704845 300.714559 
L 623.890053 300.765906 
L 624.260469 300.617832 
L 624.630885 300.723399 
L 624.816093 300.77843 
L 625.186509 300.62569 
L 625.556925 300.726985 
L 625.742133 300.787246 
L 626.112549 300.630085 
L 626.482964 300.726444 
L 626.668172 300.793802 
L 627.038588 300.632222 
L 627.409004 300.722638 
L 627.655948 300.754438 
L 628.026364 300.629668 
L 628.39678 300.754119 
L 628.581988 300.759644 
L 628.952404 300.628907 
L 629.32282 300.743904 
L 629.508028 300.766127 
L 629.878444 300.628244 
L 630.24886 300.732092 
L 630.434068 300.774845 
L 630.804483 300.628465 
L 631.174899 300.719691 
L 631.421843 300.744198 
L 631.792259 300.627409 
L 632.162675 300.743241 
L 632.347883 300.758662 
L 632.718299 300.630429 
L 633.088715 300.731405 
L 633.273923 300.778332 
L 633.644339 300.638042 
L 634.014755 300.724038 
L 634.261699 300.763475 
L 634.632115 300.648429 
L 635.00253 300.756575 
L 635.187738 300.796135 
L 635.558154 300.668295 
L 635.92857 300.761683 
L 636.113778 300.770916 
L 637.533706 300.737151 
L 637.965858 300.693023 
L 639.138841 300.374626 
L 639.509257 300.243618 
L 639.756201 300.171889 
L 640.867449 299.872597 
L 641.361337 299.768699 
L 641.670017 299.665047 
L 642.163905 299.646899 
L 642.596057 299.550491 
L 642.904737 299.566649 
L 643.151681 299.502017 
L 643.46036 299.504055 
L 643.76904 299.574434 
L 643.954248 299.520631 
L 644.201192 299.485687 
L 644.3864 299.590444 
L 645.868064 293.495346 
L 645.9298 293.379612 
L 646.423688 290.995267 
L 647.041048 288.846049 
L 647.411464 287.770163 
L 647.596671 287.570569 
L 648.028823 285.744341 
L 648.275767 285.371797 
L 648.399239 285.396721 
L 648.893127 283.640134 
L 649.078335 283.501047 
L 649.263543 283.507702 
L 649.633959 282.265594 
L 649.819167 282.111356 
L 649.942639 282.202386 
L 650.004375 282.309157 
L 650.066111 282.206291 
L 650.189583 281.9 
L 650.498263 281.25218 
L 650.621735 281.256649 
L 650.806943 281.404699 
L 651.362567 280.915071 
L 651.856454 281.295497 
L 652.041662 281.107076 
L 652.165134 281.183692 
L 652.473814 281.481904 
L 652.84423 281.883596 
L 653.029438 282.188512 
L 653.399854 282.86273 
L 653.585062 283.178549 
L 653.77027 283.483195 
L 654.38763 285.043258 
L 654.69631 285.724867 
L 654.943254 286.566781 
L 655.190198 287.424926 
L 655.62235 288.666788 
L 656.239709 290.968009 
L 656.486653 292.004826 
L 656.857069 293.723498 
L 657.104013 294.433127 
L 657.412693 296.155065 
L 657.597901 297.022099 
L 657.844845 297.674094 
L 658.153525 299.265712 
L 658.462205 300.704319 
L 658.709149 301.52504 
L 659.696925 305.538991 
L 660.067341 305.61433 
L 660.499492 305.966959 
L 660.6847 306.00399 
L 661.055116 306.085026 
L 661.363796 306.206285 
L 661.549004 305.947265 
L 664.635803 293.885226 
L 667.043507 286.082235 
L 667.599131 284.951687 
L 667.969547 284.247584 
L 668.586907 282.618837 
L 669.080794 281.85791 
L 669.45121 281.638966 
L 669.75989 281.698565 
L 669.945098 281.768673 
L 670.438986 281.027367 
L 670.809402 280.812769 
L 671.118082 280.864239 
L 671.488498 281.195455 
L 671.673706 281.464764 
L 671.735442 281.361603 
L 672.167594 280.871164 
L 672.53801 280.771195 
L 672.84669 280.904094 
L 673.217105 281.300777 
L 673.772729 282.29187 
L 673.896201 282.185172 
L 674.266617 282.038915 
L 674.637033 282.132106 
L 675.069185 282.50163 
L 675.624809 283.309459 
L 676.056961 283.889749 
L 676.365641 283.837002 
L 676.797793 283.911555 
L 677.29168 284.259469 
L 677.90904 285.024079 
L 678.5264 285.855384 
L 678.958552 285.854426 
L 679.390704 286.068779 
L 679.575912 286.222599 
L 679.884592 285.531535 
L 680.193272 283.703023 
L 680.810632 280.216173 
L 682.847919 272.049135 
L 683.341807 270.902846 
L 683.527015 270.496439 
L 684.020903 269.309387 
L 684.391319 268.91845 
L 684.514791 268.668467 
L 685.008679 267.603951 
L 685.317359 267.353967 
L 686.490342 267.085812 
L 686.799022 266.872172 
L 687.045966 266.939457 
L 688.033742 267.773389 
L 688.774574 268.757606 
L 689.14499 269.16917 
L 689.885822 269.790691 
L 690.379709 270.072843 
L 690.750125 270.599576 
L 691.182277 271.285434 
L 691.490957 271.551379 
L 691.799637 272.141958 
L 692.416997 273.425271 
L 692.602205 273.670687 
L 692.602205 273.670687 
" clip-path="url(#pda1c593ec3)" style="fill: none; stroke: #1f77b4; stroke-width: 1.5; stroke-linecap: square"/>
   </g>
   <g id="line2d_28">
    <path d="M 75.304086 41.956935 
L 75.311406 -1 
M 77.959698 -1 
L 78.452622 53.189486 
L 78.761302 66.395136 
L 78.94651 67.921311 
L 79.069981 67.734192 
L 79.193453 67.497469 
L 79.255189 67.586118 
L 79.378661 68.557074 
L 79.563869 72.804581 
L 79.810813 84.647356 
L 79.996021 94.234879 
L 80.181229 89.70964 
L 80.242965 90.039186 
L 80.366437 93.575541 
L 80.613381 112.010705 
L 80.736853 124.018253 
L 80.798589 123.33215 
L 81.045533 120.158491 
L 81.662893 95.713906 
L 82.774141 61.448266 
L 83.082821 57.830384 
L 83.206293 57.683783 
L 83.329764 58.252262 
L 83.576708 61.291106 
L 83.70018 63.115886 
L 84.687956 23.740568 
L 84.873164 21.751015 
L 84.9349 21.703867 
L 85.058372 22.526258 
L 85.24358 25.943515 
L 85.55226 36.834733 
L 85.984412 61.914836 
L 86.416564 99.993826 
L 86.848716 147.023839 
L 86.910452 145.834577 
L 87.527811 118.278214 
L 87.959963 107.211664 
L 88.268643 103.946165 
L 88.330379 103.705759 
L 88.886003 87.772147 
L 88.947739 87.614495 
L 89.071211 88.405454 
L 89.194683 90.656532 
L 89.256419 89.640146 
L 90.058987 53.789151 
L 90.429403 44.852125 
L 90.676347 43.066144 
L 90.799819 43.497598 
L 90.985027 45.740081 
L 91.293707 53.204956 
L 91.84933 73.762277 
L 92.281482 90.217956 
L 92.898842 69.899568 
L 93.207522 65.518721 
L 93.330994 65.282735 
L 93.454466 65.973013 
L 93.639674 68.754016 
L 93.948354 77.792951 
L 94.442242 101.254547 
L 94.997866 130.58805 
L 95.059602 130.235667 
L 95.491754 128.361284 
L 95.615226 128.308979 
L 95.738698 128.606356 
L 95.923906 129.843012 
L 96.170849 133.215576 
L 96.541265 142.368944 
L 97.282097 163.497444 
L 97.837721 174.394556 
L 97.899457 173.955489 
L 98.331609 167.506263 
L 98.640289 165.703584 
L 98.763761 165.674362 
L 98.887233 166.03313 
L 99.134177 167.84956 
L 99.504593 172.943032 
L 99.998481 182.761875 
L 100.060217 182.445099 
L 100.801048 175.068872 
L 101.2332 172.652039 
L 101.480144 172.222795 
L 101.603616 172.298428 
L 103.39396 155.489629 
L 103.640904 152.973589 
L 104.32 141.064021 
L 104.999095 132.994569 
L 106.172079 122.288015 
L 106.974647 116.337037 
L 107.345063 113.7655 
L 108.147631 106.613472 
L 109.320614 98.163398 
L 109.876238 95.568778 
L 110.184918 94.893233 
L 110.370126 94.799674 
L 110.555334 94.952169 
L 110.802278 95.542011 
L 111.172694 97.242782 
L 111.604846 100.41644 
L 112.16047 106.354158 
L 112.654358 111.385502 
L 113.148245 115.993003 
L 113.703869 123.491275 
L 114.382965 135.94673 
L 115.185533 154.976157 
L 115.617685 164.202702 
L 116.481989 178.312025 
L 117.654972 198.459255 
L 118.272332 205.911361 
L 118.951428 216.845061 
L 119.260108 220.950877 
L 119.753996 225.426512 
L 120.371356 233.349362 
L 120.803508 238.415575 
L 121.23566 238.560458 
L 121.606075 238.441605 
L 122.038227 238.015062 
L 122.593851 237.053928 
L 124.013779 234.339227 
L 124.384195 234.160457 
L 124.692875 234.272434 
L 125.063291 234.686944 
L 125.68065 235.820955 
L 128.582242 242.114248 
L 129.446546 244.779836 
L 129.940433 239.81725 
L 131.113417 223.091697 
L 135.187992 171.92198 
L 136.546184 159.31845 
L 141.608535 116.394254 
L 142.164159 113.930273 
L 142.349367 112.749359 
L 142.843254 109.937416 
L 143.21367 108.858657 
L 143.460614 108.703461 
L 143.645822 108.906541 
L 143.892766 109.623095 
L 144.201446 111.258791 
L 144.633598 114.948378 
L 145.189222 122.00439 
L 145.868318 133.697371 
L 146.856093 154.877686 
L 148.646437 193.752055 
L 151.36282 239.513488 
L 152.227124 250.313357 
L 153.029692 255.346911 
L 153.955732 255.849578 
L 154.7583 256.055606 
L 155.560867 256.041854 
L 156.548643 255.781312 
L 159.388499 254.854556 
L 160.252802 254.888935 
L 161.05537 255.142848 
L 161.425786 255.331686 
L 161.67273 254.052793 
L 162.351826 250.881344 
L 162.90745 249.197763 
L 163.339602 248.484648 
L 163.710018 248.272972 
L 163.833489 248.279602 
L 164.697793 244.946819 
L 165.315153 243.405174 
L 165.747305 242.833748 
L 166.055985 242.706792 
L 166.364665 242.818032 
L 166.426401 242.868127 
L 166.611609 242.382403 
L 167.537649 239.986689 
L 168.834104 236.869755 
L 169.636672 233.094467 
L 170.377504 230.595616 
L 171.241808 228.474687 
L 171.98264 226.67299 
L 172.785207 223.204902 
L 173.526039 220.936634 
L 174.205135 219.520963 
L 174.945967 218.474864 
L 175.748535 217.732526 
L 176.365895 217.224456 
L 177.35367 214.846422 
L 178.58839 212.495892 
L 180.74915 208.45957 
L 181.551717 206.514464 
L 183.527269 197.404561 
L 186.12018 185.394558 
L 186.922748 182.747141 
L 187.478372 181.592994 
L 187.848788 181.217037 
L 188.157468 181.179466 
L 188.466148 181.416434 
L 188.836564 182.090014 
L 189.268716 183.444786 
L 189.762603 185.770024 
L 190.379963 189.831884 
L 191.182531 196.847133 
L 192.293779 208.916317 
L 195.010162 239.677525 
L 196.306618 247.120053 
L 197.04745 250.582494 
L 197.788281 252.007251 
L 198.405641 253.706549 
L 199.023001 256.096124 
L 199.702097 259.72874 
L 200.504665 264.197498 
L 200.689873 264.437414 
L 202.1098 264.627234 
L 203.529728 264.60145 
L 204.826184 264.360307 
L 206.369583 263.815893 
L 208.900759 262.906327 
L 210.258951 262.679918 
L 211.678878 262.664447 
L 213.160542 262.866546 
L 214.703942 263.304631 
L 218.469837 264.476704 
L 220.074972 264.654737 
L 227.48329 265.116641 
L 229.02669 265.446678 
L 230.323146 265.962361 
L 234.212513 267.72796 
L 235.447233 267.910659 
L 236.743688 267.881683 
L 237.916672 267.649871 
L 239.089656 267.193123 
L 240.447847 266.410759 
L 245.63367 263.159994 
L 247.48575 262.332692 
L 248.658734 262.046856 
L 249.646509 262.035069 
L 250.757757 262.25141 
L 252.548101 262.859179 
L 254.214972 263.631721 
L 257.116564 265.086437 
L 261.561554 266.667864 
L 264.030994 268.027056 
L 265.697865 269.229579 
L 271.501048 273.691044 
L 273.538336 274.82309 
L 275.699095 275.759275 
L 281.440542 277.887964 
L 283.909981 278.590913 
L 285.762061 278.894331 
L 287.490668 278.954494 
L 288.787124 278.857816 
L 289.281012 276.961283 
L 291.873923 267.33555 
L 302.801193 228.152754 
L 303.480289 226.73389 
L 305.14716 224.253211 
L 305.45584 224.230864 
L 305.76452 224.42093 
L 306.134936 224.93735 
L 306.567088 225.945386 
L 307.122712 227.88509 
L 307.801808 231.213453 
L 308.604375 236.407114 
L 309.592151 244.414438 
L 310.826871 256.384906 
L 312.308535 272.642416 
L 312.432006 272.598951 
L 315.395334 271.452417 
L 319.963797 269.337872 
L 327.557323 266.526911 
L 329.779818 265.925281 
L 331.75537 265.620782 
L 334.101337 265.515681 
L 336.941193 265.581001 
L 339.90452 265.936331 
L 342.682639 266.478043 
L 346.448534 267.445071 
L 354.474213 269.503627 
L 357.12886 269.881058 
L 359.227883 269.965041 
L 361.820795 269.825561 
L 367.623977 269.451813 
L 371.636817 269.481772 
L 373.241952 269.730282 
L 375.217504 270.298024 
L 380.032911 271.94649 
L 388.305533 275.478916 
L 392.50358 277.009732 
L 396.084267 278.139961 
L 398.738914 278.745471 
L 401.084882 279.054856 
L 403.183905 279.113374 
L 405.159457 278.951106 
L 407.073272 278.576352 
L 408.987088 277.977202 
L 410.900903 277.142361 
L 412.814719 276.064289 
L 414.975478 274.578829 
L 419.914357 270.781538 
L 423.371572 268.275075 
L 425.470596 267.0588 
L 429.668643 264.907913 
L 431.70593 264.173433 
L 433.311066 263.804843 
L 435.039674 263.654313 
L 436.830017 263.711774 
L 438.682097 264.013326 
L 441.336744 264.6955 
L 444.855695 265.617099 
L 449.485894 266.553677 
L 452.943109 267.02172 
L 456.832476 267.344636 
L 463.932115 267.793525 
L 468.93273 268.541265 
L 470.970017 269.045161 
L 477.452296 271.093158 
L 481.526871 272.417971 
L 484.490198 273.046367 
L 486.959637 273.376159 
L 488.996925 273.421588 
L 491.21942 273.251412 
L 493.441916 272.870544 
L 495.787883 272.235518 
L 499.924194 270.820091 
L 503.504881 269.737895 
L 507.085569 268.840852 
L 509.184592 268.592834 
L 516.345966 268.071748 
L 519.926654 268.352918 
L 523.569077 268.737716 
L 528.261012 269.465074 
L 534.311138 270.561759 
L 538.385713 271.516754 
L 542.336816 272.682934 
L 551.96763 275.595215 
L 556.597829 276.716088 
L 559.993308 277.314869 
L 562.956635 277.614702 
L 566.228643 277.713786 
L 570.673634 277.611706 
L 573.575225 277.343035 
L 577.6498 276.920617 
L 582.279999 276.916394 
L 584.193814 277.065647 
L 589.194429 277.884084 
L 593.083796 278.691079 
L 596.047124 279.440857 
L 599.442603 280.565217 
L 610.802024 284.506628 
L 615.185279 285.74881 
L 618.642494 286.49429 
L 621.914502 286.973114 
L 625.433453 287.257722 
L 629.075876 287.332569 
L 632.162675 287.189357 
L 633.953019 282.232542 
L 636.113778 276.937119 
L 639.817937 268.573434 
L 643.151681 261.443016 
L 644.571608 258.91568 
L 645.559384 257.579325 
L 646.300216 256.905991 
L 646.732368 256.493445 
L 647.4732 255.681368 
L 648.028823 255.365573 
L 648.522711 255.328984 
L 648.954863 255.505299 
L 649.448751 255.964747 
L 650.004375 256.832568 
L 650.621735 258.256834 
L 651.300831 260.401337 
L 652.165134 263.948006 
L 652.967702 267.868668 
L 653.893742 273.583537 
L 654.69631 279.22535 
L 654.758046 279.194508 
L 665.500107 273.946454 
L 667.969547 273.119054 
L 671.118082 272.305012 
L 673.217105 271.961224 
L 675.439601 271.848264 
L 679.328968 271.876995 
L 681.30452 272.137292 
L 692.108317 273.87254 
L 692.602205 273.908883 
L 692.602205 273.908883 
" clip-path="url(#pda1c593ec3)" style="fill: none; stroke: #ff7f0e; stroke-width: 1.5; stroke-linecap: square"/>
   </g>
   <g id="patch_3">
    <path d="M 50.856636 326.285074 
L 50.856636 7.2 
" style="fill: none; stroke: #000000; stroke-width: 0.8; stroke-linejoin: miter; stroke-linecap: square"/>
   </g>
   <g id="patch_4">
    <path d="M 723.161518 326.285074 
L 723.161518 7.2 
" style="fill: none; stroke: #000000; stroke-width: 0.8; stroke-linejoin: miter; stroke-linecap: square"/>
   </g>
   <g id="patch_5">
    <path d="M 50.856636 326.285074 
L 723.161518 326.285074 
" style="fill: none; stroke: #000000; stroke-width: 0.8; stroke-linejoin: miter; stroke-linecap: square"/>
   </g>
   <g id="patch_6">
    <path d="M 50.856636 7.2 
L 723.161518 7.2 
" style="fill: none; stroke: #000000; stroke-width: 0.8; stroke-linejoin: miter; stroke-linecap: square"/>
   </g>
   <g id="legend_1">
    <g id="patch_7">
     <path d="M 629.033941 68.188574 
L 711.261518 68.188574 
Q 714.661518 68.188574 714.661518 64.788574 
L 714.661518 19.1 
Q 714.661518 15.7 711.261518 15.7 
L 629.033941 15.7 
Q 625.633941 15.7 625.633941 19.1 
L 625.633941 64.788574 
Q 625.633941 68.188574 629.033941 68.188574 
z
" style="fill: #ffffff; opacity: 0.8; stroke: #cccccc; stroke-linejoin: miter"/>
    </g>
    <g id="line2d_29">
     <path d="M 632.433941 28.45 
L 649.433941 28.45 
L 666.433941 28.45 
" style="fill: none; stroke: #1f77b4; stroke-width: 1.5; stroke-linecap: square"/>
    </g>
    <g id="text_16">
     <!-- $Re_h$ -->
     <g transform="translate(680.033941 34.4)scale(0.17 -0.17)">
      <defs>
       <path id="CMMI12-68" d="M 1798 4257 
C 1805 4283 1818 4321 1818 4352 
C 1818 4416 1754 4416 1741 4416 
C 1734 4416 1421 4388 1389 4380 
C 1280 4373 1184 4358 1069 4358 
C 909 4345 864 4339 864 4224 
C 864 4160 915 4160 1005 4160 
C 1318 4160 1325 4103 1325 4040 
C 1325 4002 1312 3951 1306 3932 
L 378 248 
C 352 152 352 140 352 101 
C 352 -38 461 -64 525 -64 
C 634 -64 717 19 749 89 
L 1037 1245 
C 1069 1386 1107 1520 1139 1660 
C 1210 1929 1210 1935 1331 2120 
C 1453 2305 1741 2689 2234 2689 
C 2490 2689 2579 2497 2579 2242 
C 2579 1884 2330 1188 2189 805 
C 2131 651 2099 568 2099 453 
C 2099 166 2298 -64 2605 -64 
C 3200 -64 3424 875 3424 913 
C 3424 945 3398 971 3360 971 
C 3302 971 3296 952 3264 843 
C 3117 332 2880 64 2624 64 
C 2560 64 2458 64 2458 269 
C 2458 436 2534 640 2560 710 
C 2675 1018 2963 1773 2963 2145 
C 2963 2528 2739 2816 2253 2816 
C 1888 2816 1568 2644 1306 2312 
L 1798 4257 
z
" transform="scale(0.015625)"/>
      </defs>
      <use xlink:href="#CMMI12-52" transform="scale(0.996264)"/>
      <use xlink:href="#CMMI12-65" transform="translate(75.070962 0)scale(0.996264)"/>
      <use xlink:href="#CMMI12-68" transform="translate(120.282963 -14.943915)scale(0.697382)"/>
     </g>
    </g>
    <g id="line2d_30">
     <path d="M 632.433941 52.144287 
L 649.433941 52.144287 
L 666.433941 52.144287 
" style="fill: none; stroke: #ff7f0e; stroke-width: 1.5; stroke-linecap: square"/>
    </g>
    <g id="text_17">
     <!-- $Re_{\omega}$ -->
     <g transform="translate(680.033941 58.094287)scale(0.17 -0.17)">
      <defs>
       <path id="CMMI12-21" d="M 3802 2395 
C 3802 2580 3750 2816 3526 2816 
C 3398 2816 3251 2657 3251 2529 
C 3251 2472 3277 2434 3328 2376 
C 3424 2268 3546 2096 3546 1797 
C 3546 1567 3405 1204 3302 1007 
C 3123 656 2829 357 2496 357 
C 2093 357 1939 615 1869 975 
C 1939 1143 2086 1560 2086 1728 
C 2086 1798 2061 1856 1978 1856 
C 1933 1856 1882 1831 1850 1779 
C 1760 1638 1677 1129 1683 994 
C 1562 756 1216 357 806 357 
C 378 357 262 733 262 1096 
C 262 1758 678 2338 794 2497 
C 858 2593 902 2657 902 2669 
C 902 2714 877 2784 819 2784 
C 717 2784 685 2701 634 2625 
C 307 2121 77 1414 77 803 
C 77 408 224 -64 704 -64 
C 1235 -64 1568 391 1702 634 
C 1754 275 1946 -64 2413 -64 
C 2899 -64 3206 363 3437 879 
C 3603 1249 3802 2045 3802 2395 
z
" transform="scale(0.015625)"/>
      </defs>
      <use xlink:href="#CMMI12-52" transform="scale(0.996264)"/>
      <use xlink:href="#CMMI12-65" transform="translate(75.070962 0)scale(0.996264)"/>
      <use xlink:href="#CMMI12-21" transform="translate(120.282963 -14.943915)scale(0.697382)"/>
     </g>
    </g>
   </g>
  </g>
 </g>
 <defs>
  <clipPath id="pda1c593ec3">
   <rect x="50.856636" y="7.2" width="672.304882" height="319.085074"/>
  </clipPath>
 </defs>
</svg>
