<?xml version="1.0" encoding="utf-8" standalone="no"?>
<!DOCTYPE svg PUBLIC "-//W3C//DTD SVG 1.1//EN"
  "http://www.w3.org/Graphics/SVG/1.1/DTD/svg11.dtd">
<svg xmlns:xlink="http://www.w3.org/1999/xlink" width="725.380182pt" height="373.266031pt" viewBox="0 0 725.380182 373.266031" xmlns="http://www.w3.org/2000/svg" version="1.1">
 <metadata>
  <rdf:RDF xmlns:dc="http://purl.org/dc/elements/1.1/" xmlns:cc="http://creativecommons.org/ns#" xmlns:rdf="http://www.w3.org/1999/02/22-rdf-syntax-ns#">
   <cc:Work>
    <dc:type rdf:resource="http://purl.org/dc/dcmitype/StillImage"/>
    <dc:date>2022-05-03T22:30:02.371703</dc:date>
    <dc:format>image/svg+xml</dc:format>
    <dc:creator>
     <cc:Agent>
      <dc:title>Matplotlib v3.5.1, https://matplotlib.org/</dc:title>
     </cc:Agent>
    </dc:creator>
   </cc:Work>
  </rdf:RDF>
 </metadata>
 <defs>
  <style type="text/css">*{stroke-linejoin: round; stroke-linecap: butt}</style>
 </defs>
 <g id="figure_1">
  <g id="patch_1">
   <path d="M 0 373.266031 
L 725.380182 373.266031 
L 725.380182 0 
L 0 0 
z
" style="fill: #ffffff"/>
  </g>
  <g id="axes_1">
   <g id="patch_2">
    <path d="M 45.875301 326.285074 
L 718.180182 326.285074 
L 718.180182 7.2 
L 45.875301 7.2 
z
" style="fill: #ffffff"/>
   </g>
   <g id="matplotlib.axis_1">
    <g id="xtick_1">
     <g id="line2d_1">
      <path d="M 75.209855 326.285074 
L 75.209855 7.2 
" clip-path="url(#pb755cb374f)" style="fill: none; stroke-dasharray: 0.8,1.32; stroke-dashoffset: 0; stroke: #b0b0b0; stroke-width: 0.8"/>
     </g>
     <g id="line2d_2">
      <defs>
       <path id="m257c98f65d" d="M 0 0 
L 0 3.5 
" style="stroke: #000000; stroke-width: 0.8"/>
      </defs>
      <g>
       <use xlink:href="#m257c98f65d" x="75.209855" y="326.285074" style="stroke: #000000; stroke-width: 0.8"/>
      </g>
     </g>
     <g id="text_1">
      <!-- $\mathdefault{0}$ -->
      <g transform="translate(72.719187 340.203572)scale(0.1 -0.1)">
       <defs>
        <path id="CMR17-30" d="M 2688 2025 
C 2688 2416 2682 3080 2413 3591 
C 2176 4039 1798 4198 1466 4198 
C 1158 4198 768 4058 525 3597 
C 269 3118 243 2524 243 2025 
C 243 1661 250 1106 448 619 
C 723 -39 1216 -128 1466 -128 
C 1760 -128 2208 -7 2470 600 
C 2662 1042 2688 1559 2688 2025 
z
M 1466 -26 
C 1056 -26 813 325 723 812 
C 653 1188 653 1738 653 2096 
C 653 2588 653 2997 736 3387 
C 858 3929 1216 4096 1466 4096 
C 1728 4096 2067 3923 2189 3400 
C 2272 3036 2278 2607 2278 2096 
C 2278 1680 2278 1169 2202 792 
C 2067 95 1690 -26 1466 -26 
z
" transform="scale(0.015625)"/>
       </defs>
       <use xlink:href="#CMR17-30" transform="scale(0.996264)"/>
      </g>
     </g>
    </g>
    <g id="xtick_2">
     <g id="line2d_3">
      <path d="M 197.685718 326.285074 
L 197.685718 7.2 
" clip-path="url(#pb755cb374f)" style="fill: none; stroke-dasharray: 0.8,1.32; stroke-dashoffset: 0; stroke: #b0b0b0; stroke-width: 0.8"/>
     </g>
     <g id="line2d_4">
      <g>
       <use xlink:href="#m257c98f65d" x="197.685718" y="326.285074" style="stroke: #000000; stroke-width: 0.8"/>
      </g>
     </g>
     <g id="text_2">
      <!-- $\mathdefault{10}$ -->
      <g transform="translate(192.704383 340.203572)scale(0.1 -0.1)">
       <defs>
        <path id="CMR17-31" d="M 1702 4058 
C 1702 4192 1696 4192 1606 4192 
C 1357 3916 979 3827 621 3827 
C 602 3827 570 3827 563 3808 
C 557 3795 557 3782 557 3648 
C 755 3648 1088 3686 1344 3839 
L 1344 461 
C 1344 236 1331 160 781 160 
L 589 160 
L 589 0 
C 896 0 1216 0 1523 0 
C 1830 0 2150 0 2458 0 
L 2458 160 
L 2266 160 
C 1715 160 1702 230 1702 458 
L 1702 4058 
z
" transform="scale(0.015625)"/>
       </defs>
       <use xlink:href="#CMR17-31" transform="scale(0.996264)"/>
       <use xlink:href="#CMR17-30" transform="translate(45.690477 0)scale(0.996264)"/>
      </g>
     </g>
    </g>
    <g id="xtick_3">
     <g id="line2d_5">
      <path d="M 320.161582 326.285074 
L 320.161582 7.2 
" clip-path="url(#pb755cb374f)" style="fill: none; stroke-dasharray: 0.8,1.32; stroke-dashoffset: 0; stroke: #b0b0b0; stroke-width: 0.8"/>
     </g>
     <g id="line2d_6">
      <g>
       <use xlink:href="#m257c98f65d" x="320.161582" y="326.285074" style="stroke: #000000; stroke-width: 0.8"/>
      </g>
     </g>
     <g id="text_3">
      <!-- $\mathdefault{20}$ -->
      <g transform="translate(315.180247 340.203572)scale(0.1 -0.1)">
       <defs>
        <path id="CMR17-32" d="M 2669 989 
L 2554 989 
C 2490 536 2438 459 2413 420 
C 2381 369 1920 369 1830 369 
L 602 369 
C 832 619 1280 1072 1824 1597 
C 2214 1967 2669 2402 2669 3035 
C 2669 3790 2067 4224 1395 4224 
C 691 4224 262 3604 262 3030 
C 262 2780 448 2748 525 2748 
C 589 2748 781 2787 781 3010 
C 781 3207 614 3264 525 3264 
C 486 3264 448 3258 422 3245 
C 544 3790 915 4058 1306 4058 
C 1862 4058 2227 3617 2227 3035 
C 2227 2479 1901 2000 1536 1584 
L 262 146 
L 262 0 
L 2515 0 
L 2669 989 
z
" transform="scale(0.015625)"/>
       </defs>
       <use xlink:href="#CMR17-32" transform="scale(0.996264)"/>
       <use xlink:href="#CMR17-30" transform="translate(45.690477 0)scale(0.996264)"/>
      </g>
     </g>
    </g>
    <g id="xtick_4">
     <g id="line2d_7">
      <path d="M 442.637445 326.285074 
L 442.637445 7.2 
" clip-path="url(#pb755cb374f)" style="fill: none; stroke-dasharray: 0.8,1.32; stroke-dashoffset: 0; stroke: #b0b0b0; stroke-width: 0.8"/>
     </g>
     <g id="line2d_8">
      <g>
       <use xlink:href="#m257c98f65d" x="442.637445" y="326.285074" style="stroke: #000000; stroke-width: 0.8"/>
      </g>
     </g>
     <g id="text_4">
      <!-- $\mathdefault{30}$ -->
      <g transform="translate(437.65611 340.203572)scale(0.1 -0.1)">
       <defs>
        <path id="CMR17-33" d="M 1414 2157 
C 1984 2157 2234 1662 2234 1090 
C 2234 320 1824 25 1453 25 
C 1114 25 563 194 390 693 
C 422 680 454 680 486 680 
C 640 680 755 782 755 948 
C 755 1133 614 1216 486 1216 
C 378 1216 211 1165 211 926 
C 211 335 787 -128 1466 -128 
C 2176 -128 2720 430 2720 1085 
C 2720 1707 2208 2157 1600 2227 
C 2086 2328 2554 2756 2554 3329 
C 2554 3820 2048 4179 1472 4179 
C 890 4179 378 3829 378 3329 
C 378 3110 544 3072 627 3072 
C 762 3072 877 3155 877 3321 
C 877 3486 762 3569 627 3569 
C 602 3569 570 3569 544 3557 
C 730 3959 1235 4032 1459 4032 
C 1683 4032 2106 3925 2106 3320 
C 2106 3143 2080 2828 1862 2550 
C 1670 2304 1453 2304 1242 2284 
C 1210 2284 1062 2269 1037 2269 
C 992 2263 966 2257 966 2208 
C 966 2163 973 2157 1101 2157 
L 1414 2157 
z
" transform="scale(0.015625)"/>
       </defs>
       <use xlink:href="#CMR17-33" transform="scale(0.996264)"/>
       <use xlink:href="#CMR17-30" transform="translate(45.690477 0)scale(0.996264)"/>
      </g>
     </g>
    </g>
    <g id="xtick_5">
     <g id="line2d_9">
      <path d="M 565.113309 326.285074 
L 565.113309 7.2 
" clip-path="url(#pb755cb374f)" style="fill: none; stroke-dasharray: 0.8,1.32; stroke-dashoffset: 0; stroke: #b0b0b0; stroke-width: 0.8"/>
     </g>
     <g id="line2d_10">
      <g>
       <use xlink:href="#m257c98f65d" x="565.113309" y="326.285074" style="stroke: #000000; stroke-width: 0.8"/>
      </g>
     </g>
     <g id="text_5">
      <!-- $\mathdefault{40}$ -->
      <g transform="translate(560.131973 340.203572)scale(0.1 -0.1)">
       <defs>
        <path id="CMR17-34" d="M 2150 4122 
C 2150 4256 2144 4256 2029 4256 
L 128 1254 
L 128 1088 
L 1779 1088 
L 1779 457 
C 1779 224 1766 160 1318 160 
L 1197 160 
L 1197 0 
C 1402 0 1747 0 1965 0 
C 2182 0 2528 0 2733 0 
L 2733 160 
L 2611 160 
C 2163 160 2150 224 2150 457 
L 2150 1088 
L 2803 1088 
L 2803 1254 
L 2150 1254 
L 2150 4122 
z
M 1798 3703 
L 1798 1254 
L 256 1254 
L 1798 3703 
z
" transform="scale(0.015625)"/>
       </defs>
       <use xlink:href="#CMR17-34" transform="scale(0.996264)"/>
       <use xlink:href="#CMR17-30" transform="translate(45.690477 0)scale(0.996264)"/>
      </g>
     </g>
    </g>
    <g id="xtick_6">
     <g id="line2d_11">
      <path d="M 687.589172 326.285074 
L 687.589172 7.2 
" clip-path="url(#pb755cb374f)" style="fill: none; stroke-dasharray: 0.8,1.32; stroke-dashoffset: 0; stroke: #b0b0b0; stroke-width: 0.8"/>
     </g>
     <g id="line2d_12">
      <g>
       <use xlink:href="#m257c98f65d" x="687.589172" y="326.285074" style="stroke: #000000; stroke-width: 0.8"/>
      </g>
     </g>
     <g id="text_6">
      <!-- $\mathdefault{50}$ -->
      <g transform="translate(682.607837 340.203572)scale(0.1 -0.1)">
       <defs>
        <path id="CMR17-35" d="M 730 3692 
C 794 3666 1056 3584 1325 3584 
C 1920 3584 2246 3911 2432 4100 
C 2432 4157 2432 4192 2394 4192 
C 2387 4192 2374 4192 2323 4163 
C 2099 4058 1837 3973 1517 3973 
C 1325 3973 1037 3999 723 4139 
C 653 4171 640 4171 634 4171 
C 602 4171 595 4164 595 4037 
L 595 2203 
C 595 2089 595 2057 659 2057 
C 691 2057 704 2070 736 2114 
C 941 2401 1222 2522 1542 2522 
C 1766 2522 2246 2382 2246 1289 
C 2246 1085 2246 715 2054 421 
C 1894 159 1645 25 1370 25 
C 947 25 518 320 403 814 
C 429 807 480 795 506 795 
C 589 795 749 840 749 1038 
C 749 1210 627 1280 506 1280 
C 358 1280 262 1190 262 1011 
C 262 454 704 -128 1382 -128 
C 2042 -128 2669 440 2669 1264 
C 2669 2030 2170 2624 1549 2624 
C 1222 2624 947 2503 730 2274 
L 730 3692 
z
" transform="scale(0.015625)"/>
       </defs>
       <use xlink:href="#CMR17-35" transform="scale(0.996264)"/>
       <use xlink:href="#CMR17-30" transform="translate(45.690477 0)scale(0.996264)"/>
      </g>
     </g>
    </g>
    <g id="text_7">
     <!-- $t U_{\infty} / H_{box}$ -->
     <g transform="translate(341.630715 361.084711)scale(0.2 -0.2)">
      <defs>
       <path id="CMMI12-74" d="M 1286 2566 
L 1875 2566 
C 1997 2566 2061 2566 2061 2681 
C 2061 2752 2022 2752 1894 2752 
L 1331 2752 
L 1568 3692 
C 1594 3781 1594 3794 1594 3840 
C 1594 3943 1510 4000 1427 4000 
C 1376 4000 1229 3981 1178 3775 
L 928 2752 
L 326 2752 
C 198 2752 141 2752 141 2630 
C 141 2566 186 2566 307 2566 
L 877 2566 
L 454 881 
C 403 658 384 594 384 511 
C 384 211 595 -64 954 -64 
C 1600 -64 1946 868 1946 912 
C 1946 951 1920 970 1882 970 
C 1869 970 1843 970 1830 944 
C 1824 938 1818 931 1773 829 
C 1638 511 1344 64 973 64 
C 781 64 768 224 768 364 
C 768 370 768 492 787 568 
L 1286 2566 
z
" transform="scale(0.015625)"/>
       <path id="CMMI12-55" d="M 3238 1474 
C 3014 581 2272 57 1670 57 
C 1210 57 896 363 896 891 
C 896 916 896 1107 966 1387 
L 1594 3887 
C 1651 4103 1664 4167 2118 4167 
C 2234 4167 2298 4167 2298 4282 
C 2298 4352 2240 4352 2202 4352 
C 2086 4352 1952 4352 1830 4352 
L 1075 4352 
C 954 4352 819 4352 698 4352 
C 653 4352 576 4352 576 4231 
C 576 4167 621 4167 742 4167 
C 1126 4167 1126 4116 1126 4046 
C 1126 4008 1082 3824 1050 3715 
L 493 1488 
C 474 1418 435 1246 435 1075 
C 435 374 941 -128 1638 -128 
C 2285 -128 3002 384 3328 1197 
C 3373 1305 3430 1530 3469 1702 
C 3533 1933 3667 2496 3712 2662 
L 3955 3623 
C 4038 3956 4090 4167 4653 4167 
C 4704 4173 4730 4224 4730 4282 
C 4730 4352 4672 4352 4646 4352 
C 4557 4352 4442 4352 4352 4352 
L 4051 4352 
C 3654 4352 3450 4352 3443 4352 
C 3405 4352 3328 4352 3328 4231 
C 3328 4167 3379 4167 3424 4167 
C 3808 4167 3834 4020 3834 3905 
C 3834 3848 3834 3828 3808 3739 
L 3238 1474 
z
" transform="scale(0.015625)"/>
       <path id="CMSY10-31" d="M 3251 1730 
C 2906 2166 2829 2262 2630 2422 
C 2272 2710 1914 2825 1587 2825 
C 838 2825 352 2122 352 1374 
C 352 639 826 -70 1562 -70 
C 2298 -70 2829 511 3142 1022 
C 3488 588 3565 492 3763 332 
C 4122 45 4480 -70 4806 -70 
C 5555 -70 6042 633 6042 1380 
C 6042 2115 5568 2825 4832 2825 
C 4096 2825 3565 2242 3251 1730 
z
M 3418 1514 
C 3680 1975 4154 2620 4877 2620 
C 5555 2620 5901 1955 5901 1380 
C 5901 753 5472 236 4909 236 
C 4538 236 4250 505 4115 638 
C 3955 811 3808 1009 3418 1514 
z
M 2976 1240 
C 2714 780 2240 134 1517 134 
C 838 134 493 799 493 1374 
C 493 2000 922 2518 1485 2518 
C 1856 2518 2144 2249 2278 2115 
C 2438 1943 2586 1744 2976 1240 
z
" transform="scale(0.015625)"/>
       <path id="CMMI12-3d" d="M 2746 4562 
C 2746 4569 2784 4666 2784 4678 
C 2784 4755 2720 4800 2669 4800 
C 2637 4800 2579 4800 2528 4659 
L 384 -1363 
C 384 -1370 346 -1465 346 -1478 
C 346 -1555 410 -1600 461 -1600 
C 499 -1600 557 -1593 602 -1459 
L 2746 4562 
z
" transform="scale(0.015625)"/>
       <path id="CMMI12-48" d="M 4787 3887 
C 4845 4103 4858 4167 5312 4167 
C 5427 4167 5491 4167 5491 4282 
C 5491 4352 5434 4352 5395 4352 
C 5280 4352 5146 4352 5024 4352 
L 4269 4352 
C 4147 4352 4013 4352 3891 4352 
C 3846 4352 3770 4352 3770 4231 
C 3770 4167 3814 4167 3936 4167 
C 4320 4167 4320 4116 4320 4046 
C 4320 4034 4320 3995 4294 3900 
L 3904 2361 
L 1971 2361 
L 2355 3887 
C 2413 4103 2426 4167 2880 4167 
C 2995 4167 3059 4167 3059 4282 
C 3059 4352 3002 4352 2963 4352 
C 2848 4352 2714 4352 2592 4352 
L 1837 4352 
C 1715 4352 1581 4352 1459 4352 
C 1414 4352 1338 4352 1338 4231 
C 1338 4167 1382 4167 1504 4167 
C 1888 4167 1888 4116 1888 4046 
C 1888 4034 1888 3995 1862 3899 
L 998 472 
C 941 249 928 185 486 185 
C 339 185 294 185 294 64 
C 294 0 365 0 384 0 
C 499 0 634 0 755 0 
L 1510 0 
C 1632 0 1766 0 1888 0 
C 1939 0 2010 0 2010 121 
C 2010 185 1952 185 1856 185 
C 1466 185 1466 236 1466 300 
C 1466 307 1466 351 1478 402 
L 1920 2176 
L 3859 2176 
C 3750 1753 3424 416 3411 376 
C 3341 185 3238 185 2861 185 
C 2784 185 2726 185 2726 64 
C 2726 0 2797 0 2816 0 
C 2931 0 3066 0 3187 0 
L 3942 0 
C 4064 0 4198 0 4320 0 
C 4371 0 4442 0 4442 121 
C 4442 185 4384 185 4288 185 
C 3898 185 3898 236 3898 300 
C 3898 307 3898 351 3910 402 
L 4787 3887 
z
" transform="scale(0.015625)"/>
       <path id="CMMI12-62" d="M 1478 4257 
C 1485 4283 1498 4321 1498 4352 
C 1498 4416 1434 4416 1421 4416 
C 1414 4416 1184 4393 1069 4377 
C 960 4377 864 4358 749 4358 
C 595 4345 550 4339 550 4224 
C 550 4160 614 4160 678 4160 
C 1005 4160 1005 4103 1005 4040 
C 1005 3996 954 3811 928 3696 
L 774 3085 
C 710 2831 346 1387 320 1272 
C 288 1114 288 1005 288 922 
C 288 274 653 -64 1069 -64 
C 1811 -64 2579 888 2579 1814 
C 2579 2401 2246 2816 1766 2816 
C 1434 2816 1133 2542 1011 2414 
L 1478 4257 
z
M 1075 64 
C 870 64 646 217 646 715 
C 646 926 666 1047 781 1494 
C 800 1577 902 1986 928 2069 
C 941 2120 1318 2689 1754 2689 
C 2035 2689 2163 2408 2163 2076 
C 2163 1769 1984 1047 1824 715 
C 1664 370 1370 64 1075 64 
z
" transform="scale(0.015625)"/>
       <path id="CMMI12-6f" d="M 2918 1756 
C 2918 2363 2522 2816 1939 2816 
C 1094 2816 262 1897 262 996 
C 262 390 659 -64 1242 -64 
C 2093 -64 2918 856 2918 1756 
z
M 1248 64 
C 928 64 691 319 691 766 
C 691 1060 845 1712 1024 2031 
C 1312 2523 1670 2689 1933 2689 
C 2246 2689 2490 2433 2490 1986 
C 2490 1731 2355 1047 2112 658 
C 1850 230 1498 64 1248 64 
z
" transform="scale(0.015625)"/>
       <path id="CMMI12-78" d="M 3034 2606 
C 2829 2567 2752 2414 2752 2293 
C 2752 2139 2874 2088 2963 2088 
C 3155 2088 3290 2254 3290 2427 
C 3290 2695 2982 2816 2714 2816 
C 2323 2816 2106 2433 2048 2312 
C 1901 2816 1504 2816 1389 2816 
C 736 2816 390 1980 390 1839 
C 390 1814 416 1782 461 1782 
C 512 1782 525 1820 538 1846 
C 755 2555 1184 2689 1370 2689 
C 1658 2689 1715 2420 1715 2267 
C 1715 2127 1677 1980 1600 1673 
L 1382 798 
C 1286 415 1101 64 762 64 
C 730 64 570 64 435 147 
C 666 192 717 383 717 460 
C 717 588 621 664 499 664 
C 346 664 179 530 179 326 
C 179 57 480 -64 755 -64 
C 1062 -64 1280 179 1414 441 
C 1517 64 1837 -64 2074 -64 
C 2726 -64 3072 773 3072 913 
C 3072 945 3046 971 3008 971 
C 2950 971 2944 939 2925 888 
C 2752 326 2381 64 2093 64 
C 1869 64 1747 230 1747 492 
C 1747 632 1773 734 1875 1156 
L 2099 2024 
C 2195 2408 2413 2689 2707 2689 
C 2720 2689 2899 2689 3034 2606 
z
" transform="scale(0.015625)"/>
      </defs>
      <use xlink:href="#CMMI12-74" transform="scale(0.996264)"/>
      <use xlink:href="#CMMI12-55" transform="translate(35.22633 0)scale(0.996264)"/>
      <use xlink:href="#CMSY10-31" transform="translate(101.478449 -14.943915)scale(0.697382)"/>
      <use xlink:href="#CMMI12-3d" transform="translate(171.714956 0)scale(0.996264)"/>
      <use xlink:href="#CMMI12-48" transform="translate(220.489874 0)scale(0.996264)"/>
      <use xlink:href="#CMMI12-62" transform="translate(301.314711 -14.943915)scale(0.697382)"/>
      <use xlink:href="#CMMI12-6f" transform="translate(330.347698 -14.943915)scale(0.697382)"/>
      <use xlink:href="#CMMI12-78" transform="translate(363.17426 -14.943915)scale(0.697382)"/>
     </g>
    </g>
   </g>
   <g id="matplotlib.axis_2">
    <g id="ytick_1">
     <g id="line2d_13">
      <path d="M 45.875301 306.392363 
L 718.180182 306.392363 
" clip-path="url(#pb755cb374f)" style="fill: none; stroke-dasharray: 0.8,1.32; stroke-dashoffset: 0; stroke: #b0b0b0; stroke-width: 0.8"/>
     </g>
     <g id="line2d_14">
      <defs>
       <path id="m156aee21ba" d="M 0 0 
L -3.5 0 
" style="stroke: #000000; stroke-width: 0.8"/>
      </defs>
      <g>
       <use xlink:href="#m156aee21ba" x="45.875301" y="306.392363" style="stroke: #000000; stroke-width: 0.8"/>
      </g>
     </g>
     <g id="text_8">
      <!-- $\mathdefault{32}$ -->
      <g transform="translate(28.91263 309.851612)scale(0.1 -0.1)">
       <use xlink:href="#CMR17-33" transform="scale(0.996264)"/>
       <use xlink:href="#CMR17-32" transform="translate(45.690477 0)scale(0.996264)"/>
      </g>
     </g>
    </g>
    <g id="ytick_2">
     <g id="line2d_15">
      <path d="M 45.875301 268.452108 
L 718.180182 268.452108 
" clip-path="url(#pb755cb374f)" style="fill: none; stroke-dasharray: 0.8,1.32; stroke-dashoffset: 0; stroke: #b0b0b0; stroke-width: 0.8"/>
     </g>
     <g id="line2d_16">
      <g>
       <use xlink:href="#m156aee21ba" x="45.875301" y="268.452108" style="stroke: #000000; stroke-width: 0.8"/>
      </g>
     </g>
     <g id="text_9">
      <!-- $\mathdefault{34}$ -->
      <g transform="translate(28.91263 271.911357)scale(0.1 -0.1)">
       <use xlink:href="#CMR17-33" transform="scale(0.996264)"/>
       <use xlink:href="#CMR17-34" transform="translate(45.690477 0)scale(0.996264)"/>
      </g>
     </g>
    </g>
    <g id="ytick_3">
     <g id="line2d_17">
      <path d="M 45.875301 230.511853 
L 718.180182 230.511853 
" clip-path="url(#pb755cb374f)" style="fill: none; stroke-dasharray: 0.8,1.32; stroke-dashoffset: 0; stroke: #b0b0b0; stroke-width: 0.8"/>
     </g>
     <g id="line2d_18">
      <g>
       <use xlink:href="#m156aee21ba" x="45.875301" y="230.511853" style="stroke: #000000; stroke-width: 0.8"/>
      </g>
     </g>
     <g id="text_10">
      <!-- $\mathdefault{36}$ -->
      <g transform="translate(28.91263 233.971103)scale(0.1 -0.1)">
       <defs>
        <path id="CMR17-36" d="M 678 2176 
C 678 3690 1395 4032 1811 4032 
C 1946 4032 2272 4009 2400 3776 
C 2298 3776 2106 3776 2106 3553 
C 2106 3381 2246 3323 2336 3323 
C 2394 3323 2566 3348 2566 3560 
C 2566 3954 2246 4179 1805 4179 
C 1043 4179 243 3390 243 1984 
C 243 253 966 -128 1478 -128 
C 2099 -128 2688 427 2688 1283 
C 2688 2081 2170 2662 1517 2662 
C 1126 2662 838 2407 678 1960 
L 678 2176 
z
M 1478 25 
C 691 25 691 1200 691 1436 
C 691 1896 909 2560 1504 2560 
C 1613 2560 1926 2560 2138 2120 
C 2253 1870 2253 1609 2253 1289 
C 2253 944 2253 690 2118 434 
C 1978 171 1773 25 1478 25 
z
" transform="scale(0.015625)"/>
       </defs>
       <use xlink:href="#CMR17-33" transform="scale(0.996264)"/>
       <use xlink:href="#CMR17-36" transform="translate(45.690477 0)scale(0.996264)"/>
      </g>
     </g>
    </g>
    <g id="ytick_4">
     <g id="line2d_19">
      <path d="M 45.875301 192.571599 
L 718.180182 192.571599 
" clip-path="url(#pb755cb374f)" style="fill: none; stroke-dasharray: 0.8,1.32; stroke-dashoffset: 0; stroke: #b0b0b0; stroke-width: 0.8"/>
     </g>
     <g id="line2d_20">
      <g>
       <use xlink:href="#m156aee21ba" x="45.875301" y="192.571599" style="stroke: #000000; stroke-width: 0.8"/>
      </g>
     </g>
     <g id="text_11">
      <!-- $\mathdefault{38}$ -->
      <g transform="translate(28.91263 196.030848)scale(0.1 -0.1)">
       <defs>
        <path id="CMR17-38" d="M 1741 2264 
C 2144 2467 2554 2773 2554 3263 
C 2554 3841 1990 4179 1472 4179 
C 890 4179 378 3759 378 3180 
C 378 3021 416 2747 666 2505 
C 730 2442 998 2251 1171 2130 
C 883 1983 211 1634 211 934 
C 211 279 838 -128 1459 -128 
C 2144 -128 2720 362 2720 1010 
C 2720 1590 2330 1857 2074 2029 
L 1741 2264 
z
M 902 2822 
C 851 2854 595 3051 595 3351 
C 595 3739 998 4032 1459 4032 
C 1965 4032 2336 3676 2336 3262 
C 2336 2669 1670 2331 1638 2331 
C 1632 2331 1626 2331 1574 2370 
L 902 2822 
z
M 2080 1519 
C 2176 1449 2483 1240 2483 851 
C 2483 381 2010 25 1472 25 
C 890 25 448 438 448 940 
C 448 1443 838 1862 1280 2060 
L 2080 1519 
z
" transform="scale(0.015625)"/>
       </defs>
       <use xlink:href="#CMR17-33" transform="scale(0.996264)"/>
       <use xlink:href="#CMR17-38" transform="translate(45.690477 0)scale(0.996264)"/>
      </g>
     </g>
    </g>
    <g id="ytick_5">
     <g id="line2d_21">
      <path d="M 45.875301 154.631344 
L 718.180182 154.631344 
" clip-path="url(#pb755cb374f)" style="fill: none; stroke-dasharray: 0.8,1.32; stroke-dashoffset: 0; stroke: #b0b0b0; stroke-width: 0.8"/>
     </g>
     <g id="line2d_22">
      <g>
       <use xlink:href="#m156aee21ba" x="45.875301" y="154.631344" style="stroke: #000000; stroke-width: 0.8"/>
      </g>
     </g>
     <g id="text_12">
      <!-- $\mathdefault{40}$ -->
      <g transform="translate(28.91263 158.090593)scale(0.1 -0.1)">
       <use xlink:href="#CMR17-34" transform="scale(0.996264)"/>
       <use xlink:href="#CMR17-30" transform="translate(45.690477 0)scale(0.996264)"/>
      </g>
     </g>
    </g>
    <g id="ytick_6">
     <g id="line2d_23">
      <path d="M 45.875301 116.691089 
L 718.180182 116.691089 
" clip-path="url(#pb755cb374f)" style="fill: none; stroke-dasharray: 0.8,1.32; stroke-dashoffset: 0; stroke: #b0b0b0; stroke-width: 0.8"/>
     </g>
     <g id="line2d_24">
      <g>
       <use xlink:href="#m156aee21ba" x="45.875301" y="116.691089" style="stroke: #000000; stroke-width: 0.8"/>
      </g>
     </g>
     <g id="text_13">
      <!-- $\mathdefault{42}$ -->
      <g transform="translate(28.91263 120.150338)scale(0.1 -0.1)">
       <use xlink:href="#CMR17-34" transform="scale(0.996264)"/>
       <use xlink:href="#CMR17-32" transform="translate(45.690477 0)scale(0.996264)"/>
      </g>
     </g>
    </g>
    <g id="ytick_7">
     <g id="line2d_25">
      <path d="M 45.875301 78.750834 
L 718.180182 78.750834 
" clip-path="url(#pb755cb374f)" style="fill: none; stroke-dasharray: 0.8,1.32; stroke-dashoffset: 0; stroke: #b0b0b0; stroke-width: 0.8"/>
     </g>
     <g id="line2d_26">
      <g>
       <use xlink:href="#m156aee21ba" x="45.875301" y="78.750834" style="stroke: #000000; stroke-width: 0.8"/>
      </g>
     </g>
     <g id="text_14">
      <!-- $\mathdefault{44}$ -->
      <g transform="translate(28.91263 82.210083)scale(0.1 -0.1)">
       <use xlink:href="#CMR17-34" transform="scale(0.996264)"/>
       <use xlink:href="#CMR17-34" transform="translate(45.690477 0)scale(0.996264)"/>
      </g>
     </g>
    </g>
    <g id="ytick_8">
     <g id="line2d_27">
      <path d="M 45.875301 40.810579 
L 718.180182 40.810579 
" clip-path="url(#pb755cb374f)" style="fill: none; stroke-dasharray: 0.8,1.32; stroke-dashoffset: 0; stroke: #b0b0b0; stroke-width: 0.8"/>
     </g>
     <g id="line2d_28">
      <g>
       <use xlink:href="#m156aee21ba" x="45.875301" y="40.810579" style="stroke: #000000; stroke-width: 0.8"/>
      </g>
     </g>
     <g id="text_15">
      <!-- $\mathdefault{46}$ -->
      <g transform="translate(28.91263 44.269829)scale(0.1 -0.1)">
       <use xlink:href="#CMR17-34" transform="scale(0.996264)"/>
       <use xlink:href="#CMR17-36" transform="translate(45.690477 0)scale(0.996264)"/>
      </g>
     </g>
    </g>
    <g id="text_16">
     <!-- $Re$ -->
     <g transform="translate(21.036997 178.770833)rotate(-90)scale(0.2 -0.2)">
      <defs>
       <path id="CMMI12-52" d="M 2355 3924 
C 2413 4160 2438 4160 2688 4160 
L 3149 4160 
C 3699 4160 4109 3995 4109 3499 
C 4109 3175 3942 2240 2656 2240 
L 1933 2240 
L 2355 3924 
z
M 3245 2169 
C 4038 2341 4659 2851 4659 3398 
C 4659 3894 4154 4352 3264 4352 
L 1530 4352 
C 1402 4352 1344 4352 1344 4226 
C 1344 4160 1389 4160 1510 4160 
C 1894 4160 1894 4112 1894 4045 
C 1894 4033 1894 3994 1869 3899 
L 1005 479 
C 947 256 934 192 493 192 
C 346 192 301 192 301 71 
C 301 7 371 7 390 7 
C 506 7 640 7 762 7 
L 1517 7 
C 1632 7 1766 7 1882 7 
C 1933 7 2003 7 2003 128 
C 2003 192 1946 192 1850 192 
C 1459 192 1459 243 1459 306 
C 1459 313 1459 357 1472 407 
L 1901 2112 
L 2669 2112 
C 3277 2112 3392 1731 3392 1522 
C 3392 1427 3328 1179 3283 1014 
C 3213 723 3194 652 3194 532 
C 3194 82 3565 -128 3994 -128 
C 4512 -128 4736 501 4736 591 
C 4736 635 4704 654 4666 654 
C 4614 654 4602 616 4589 565 
C 4435 114 4173 0 4013 0 
C 3853 0 3750 70 3750 356 
C 3750 509 3827 1088 3834 1120 
C 3866 1355 3866 1380 3866 1432 
C 3866 1896 3488 2093 3245 2169 
z
" transform="scale(0.015625)"/>
       <path id="CMMI12-65" d="M 1146 1479 
C 1318 1479 1754 1479 2061 1595 
C 2547 1783 2592 2158 2592 2274 
C 2592 2558 2349 2816 1926 2816 
C 1254 2816 288 2210 288 1073 
C 288 402 672 -64 1254 -64 
C 2125 -64 2675 609 2675 692 
C 2675 730 2637 762 2611 762 
C 2592 762 2586 756 2528 699 
C 2118 159 1510 64 1267 64 
C 902 64 710 350 710 822 
C 710 911 710 1071 806 1479 
L 1146 1479 
z
M 838 1600 
C 1114 2592 1722 2689 1926 2689 
C 2208 2689 2400 2522 2400 2277 
C 2400 1600 1376 1600 1107 1600 
L 838 1600 
z
" transform="scale(0.015625)"/>
      </defs>
      <use xlink:href="#CMMI12-52" transform="scale(0.996264)"/>
      <use xlink:href="#CMMI12-65" transform="translate(75.070962 0)scale(0.996264)"/>
     </g>
    </g>
   </g>
   <g id="line2d_29">
    <path d="M 75.222103 173.558409 
L 75.229351 -1 
M 75.306752 -1 
L 75.381321 145.358556 
L 75.467054 121.563566 
L 75.638521 103.175253 
L 75.650768 103.323978 
L 75.724254 107.214562 
L 75.94471 135.832137 
L 76.373376 182.368516 
L 76.96126 220.131589 
L 77.022498 222.443858 
L 77.108231 222.212233 
L 77.193964 222.137111 
L 77.230707 222.189658 
L 77.340935 222.708302 
L 77.659372 225.842167 
L 79.067845 239.922175 
L 80.966221 263.172722 
L 82.680883 283.20271 
L 83.856651 294.387497 
L 84.958934 302.81251 
L 86.048969 309.492841 
L 86.55112 311.63969 
L 87.236985 311.780069 
L 87.9015 311.691668 
L 88.586126 311.364623 
L 89.283413 310.779774 
L 90.039077 309.847772 
L 90.863963 308.460676 
L 91.741948 306.545452 
L 92.713404 303.882046 
L 93.793219 300.232383 
L 94.929865 295.585081 
L 96.180176 289.50212 
L 97.544152 281.724937 
L 99.135458 271.301611 
L 102.759305 246.89787 
L 103.566932 243.278939 
L 104.213033 241.274555 
L 104.805293 240.07128 
L 105.397552 239.340361 
L 106.043654 238.910688 
L 106.797439 238.701637 
L 107.766591 238.686081 
L 108.897268 238.887923 
L 109.974104 239.301472 
L 110.997098 239.939058 
L 112.127775 240.919055 
L 113.689187 242.595825 
L 117.565796 246.843426 
L 119.934834 248.992551 
L 132.318444 259.455336 
L 134.687483 260.982621 
L 136.787313 262.098064 
L 137.541098 262.257413 
L 138.348724 262.19576 
L 139.264035 261.889582 
L 140.448554 261.232267 
L 144.432846 258.800676 
L 145.45584 258.542493 
L 146.37115 258.539268 
L 147.232619 258.755907 
L 148.094087 259.196014 
L 149.009398 259.90948 
L 150.032391 260.994951 
L 151.216911 262.593564 
L 152.670639 264.956862 
L 154.985836 269.221916 
L 155.362728 269.928553 
L 155.41657 269.899339 
L 158.054817 266.757317 
L 159.400862 265.509462 
L 160.423856 264.841903 
L 161.339166 264.499113 
L 162.146793 264.420577 
L 162.95442 264.563611 
L 163.815888 264.95857 
L 164.78504 265.674882 
L 165.96956 266.852737 
L 170.06333 271.197844 
L 170.398047 271.363833 
L 171.246056 270.929986 
L 171.948993 270.797006 
L 172.595096 270.881233 
L 173.24419 271.183048 
L 173.751202 271.403481 
L 176.920402 269.46682 
L 178.858715 268.460265 
L 180.31245 267.948262 
L 181.604659 267.724983 
L 182.843025 267.743953 
L 184.02755 267.988099 
L 185.212075 268.453246 
L 186.558125 269.235385 
L 188.065702 270.38782 
L 189.996541 272.167787 
L 190.96271 273.029221 
L 192.44038 272.333965 
L 193.633883 272.010335 
L 194.656885 271.955322 
L 195.623054 272.118085 
L 196.589223 272.498436 
L 197.669059 273.167892 
L 198.976229 274.25507 
L 203.181906 278.033161 
L 205.130697 264.993664 
L 205.292223 264.258762 
L 205.669119 262.530393 
L 205.884488 261.795301 
L 205.938331 261.719041 
L 206.207542 260.703001 
L 206.261384 260.723109 
L 206.530596 259.876852 
L 206.584438 259.933003 
L 206.853649 259.250079 
L 206.907491 259.278913 
L 206.961334 259.262789 
L 207.176703 258.789484 
L 207.284387 258.88756 
L 207.445914 258.571517 
L 207.607441 258.795175 
L 207.661283 258.663712 
L 207.768968 258.663143 
L 207.876652 259.029456 
L 207.984337 258.922465 
L 208.092021 259.061516 
L 208.199706 259.561948 
L 208.30739 259.472978 
L 208.415075 259.760186 
L 208.522759 260.253409 
L 208.576602 260.232542 
L 208.684286 260.476687 
L 209.168867 262.41183 
L 209.276551 262.751964 
L 210.730292 270.677494 
L 211.167314 273.217973 
L 211.56336 275.810621 
L 211.733864 276.434738 
L 211.847533 276.380673 
L 214.518754 275.240568 
L 215.825947 274.68057 
L 221.854892 270.24801 
L 222.285638 266.838319 
L 222.393325 266.413389 
L 222.662541 264.199195 
L 222.716384 264.429303 
L 222.9856 262.254378 
L 223.039444 262.135435 
L 223.093287 262.191587 
L 223.200973 261.090371 
L 223.254817 261.201725 
L 223.524033 259.389889 
L 223.577876 259.463113 
L 223.63172 259.544305 
L 223.793249 258.729159 
L 223.954779 257.932983 
L 224.008622 257.813281 
L 224.116309 257.269597 
L 224.170152 257.545613 
L 224.277839 256.738624 
L 224.331682 257.083121 
L 224.439369 256.338544 
L 224.493212 256.435481 
L 224.654742 255.919114 
L 224.708585 256.007705 
L 224.816271 255.532882 
L 224.870115 255.999547 
L 224.977801 255.275078 
L 225.031644 255.82654 
L 225.085488 255.326108 
L 225.139331 255.143615 
L 225.193174 255.456243 
L 225.247017 255.323832 
L 225.300861 255.136786 
L 225.354704 255.211339 
L 225.408547 255.442205 
L 225.462391 255.251745 
L 225.516234 255.08974 
L 225.570077 255.678573 
L 225.62392 255.391555 
L 225.677764 255.088792 
L 225.731607 255.692231 
L 225.78545 255.50917 
L 225.839293 255.206217 
L 225.893137 255.788789 
L 225.94698 255.740226 
L 226.000823 255.43898 
L 226.10851 256.081878 
L 226.162353 255.784237 
L 226.216196 255.901092 
L 226.270039 256.358842 
L 226.323883 256.238571 
L 226.377726 256.123612 
L 226.485413 256.798759 
L 226.539256 256.452934 
L 226.646942 257.297104 
L 226.700786 256.885832 
L 226.916159 257.854447 
L 227.077688 258.251871 
L 227.185375 258.356965 
L 227.562278 256.538489 
L 227.616121 256.49315 
L 228.046867 254.46088 
L 228.369927 252.788664 
L 229.877538 243.010891 
L 230.577501 236.014708 
L 231.766304 223.178192 
L 232.633464 214.239657 
L 233.194568 209.889807 
L 234.010719 206.194996 
L 234.112738 205.844048 
L 234.214757 205.61451 
L 234.265766 205.664591 
L 234.418794 205.366191 
L 234.469804 205.441882 
L 234.520813 205.555702 
L 234.571823 205.426705 
L 234.622832 205.415134 
L 234.724851 205.760769 
L 234.775861 205.686217 
L 234.877879 203.752971 
L 235.872567 183.882901 
L 235.969217 182.109763 
L 236.549118 172.307329 
L 236.790743 169.078044 
L 237.322319 161.942431 
L 237.370644 161.794654 
L 237.612269 158.554366 
L 238.959059 149.333177 
L 239.004843 149.38174 
L 239.32533 148.23917 
L 239.371114 148.623884 
L 239.416898 148.506459 
L 239.462681 148.005268 
L 239.508465 148.02329 
L 239.554249 148.234427 
L 239.600033 148.18207 
L 239.645817 147.834157 
L 239.737384 147.947219 
L 239.783168 148.051934 
L 239.92052 147.855594 
L 239.966303 148.103154 
L 240.012087 148.055539 
L 240.057871 147.911745 
L 240.103655 147.944564 
L 240.195223 148.379359 
L 240.241006 148.031067 
L 240.28679 148.197056 
L 240.332574 148.691038 
L 240.378358 148.52486 
L 240.424142 148.302909 
L 240.469926 148.595049 
L 240.515709 148.944858 
L 240.561493 148.813395 
L 240.607277 148.710767 
L 240.698845 149.237567 
L 240.744629 149.228841 
L 240.790412 149.236998 
L 240.927764 149.755642 
L 241.248251 150.775665 
L 241.522954 152.003033 
L 241.568737 151.861515 
L 241.84344 153.462594 
L 241.889224 153.396578 
L 241.935008 153.373814 
L 242.163927 154.673837 
L 242.575982 156.368438 
L 242.850685 157.916401 
L 242.942252 158.041224 
L 243.222297 159.905798 
L 243.269861 159.768075 
L 243.31768 159.945256 
L 243.510736 161.043057 
L 243.800701 162.667469 
L 244.235649 165.574641 
L 244.283977 165.520956 
L 244.332304 165.656023 
L 244.573942 167.54374 
L 244.62227 167.628537 
L 244.912235 169.983868 
L 244.960562 169.902486 
L 245.057217 170.788012 
L 245.347183 172.829766 
L 245.975441 178.077662 
L 246.023768 178.067419 
L 246.168751 177.351486 
L 246.217078 177.433627 
L 246.362061 176.759618 
L 246.410389 176.859021 
L 246.652026 175.922846 
L 246.748681 175.830841 
L 246.893664 175.282983 
L 246.941992 175.36114 
L 247.086974 174.79621 
L 247.135302 174.86621 
L 247.280284 174.458731 
L 247.328612 174.498568 
L 247.37694 174.564585 
L 247.57025 174.215155 
L 248.101853 173.535645 
L 248.198508 173.599764 
L 248.246835 173.506621 
L 248.391818 173.499412 
L 248.488473 173.59559 
L 248.536801 173.562393 
L 248.681783 173.690251 
L 248.778438 173.79269 
L 248.826766 173.710739 
L 248.923421 173.711119 
L 249.406696 174.808351 
L 249.600007 175.61534 
L 249.696662 175.889838 
L 250.856523 183.987995 
L 251.146488 186.985275 
L 251.194816 186.924192 
L 251.484781 188.013077 
L 251.581436 188.128036 
L 251.919729 189.428628 
L 251.968056 189.413452 
L 252.016384 189.405864 
L 252.306349 190.613123 
L 252.499659 191.185262 
L 252.741297 192.349269 
L 252.88628 192.630027 
L 253.07959 193.516121 
L 253.176245 193.926824 
L 253.949486 197.284727 
L 254.046141 197.885131 
L 254.242136 198.897946 
L 254.493173 200.010355 
L 254.748237 201.618073 
L 256.176598 210.259725 
L 256.431663 212.184244 
L 257.043818 216.849188 
L 258.166102 225.913494 
L 258.31914 227.296606 
L 262.078543 263.629143 
L 262.132391 262.929145 
L 262.778563 257.009707 
L 263.963212 250.493468 
L 264.124756 250.272845 
L 264.232451 249.897806 
L 264.286299 249.949784 
L 264.340146 250.096992 
L 264.501689 249.610029 
L 264.609385 249.802576 
L 264.71708 249.515368 
L 264.824775 249.881681 
L 264.878623 249.791194 
L 264.932471 249.662007 
L 264.986319 249.693687 
L 265.094014 250.242873 
L 265.147862 250.045014 
L 265.201709 250.004987 
L 265.309405 250.414932 
L 265.363252 250.658887 
L 265.4171 250.54279 
L 265.470948 250.584904 
L 268.9172 263.274212 
L 269.294133 264.451688 
L 269.509524 265.037296 
L 269.940306 266.235828 
L 270.048001 266.178728 
L 270.155696 266.45683 
L 270.209544 266.718808 
L 270.263392 266.659431 
L 270.371087 266.746694 
L 270.478782 267.159863 
L 270.586478 267.122113 
L 270.694173 267.347667 
L 270.801869 267.578154 
L 270.855716 267.558425 
L 270.963412 267.757043 
L 271.071107 267.998912 
L 271.124955 267.96818 
L 271.23265 268.137583 
L 271.340345 268.391214 
L 271.394193 268.348911 
L 271.501889 268.485306 
L 271.609584 268.752216 
L 271.663432 268.696633 
L 271.771127 268.79414 
L 271.878822 269.078502 
L 271.93267 269.006984 
L 272.040365 269.056876 
L 272.148061 269.32701 
L 272.201908 269.273515 
L 272.309604 269.264788 
L 272.417299 269.446712 
L 272.578842 267.762165 
L 273.440405 258.600352 
L 275.163531 242.091219 
L 275.217379 241.876857 
L 275.540465 239.0173 
L 275.917399 236.399422 
L 276.025094 235.973543 
L 276.239635 234.865118 
L 276.655686 232.784095 
L 276.808731 232.458947 
L 276.961776 231.926266 
L 277.012791 232.026049 
L 277.216851 231.342176 
L 277.267866 231.483693 
L 277.420911 230.88879 
L 277.471926 230.934887 
L 277.522941 231.11757 
L 277.675986 230.48245 
L 277.778016 230.509577 
L 277.931061 230.008955 
L 277.982076 230.104944 
L 278.033091 230.054484 
L 278.13512 229.691206 
L 278.186135 229.703347 
L 278.23715 229.849227 
L 278.288165 229.754756 
L 278.390195 229.4979 
L 278.44121 229.563347 
L 278.492225 229.762533 
L 278.54324 229.610203 
L 278.64527 229.466979 
L 278.7473 229.823048 
L 278.798315 229.623672 
L 278.84933 229.54855 
L 278.900345 229.600908 
L 279.002375 229.93611 
L 279.05339 229.799904 
L 279.104405 229.788333 
L 279.920644 231.870494 
L 280.226734 232.887672 
L 282.369363 216.84141 
L 282.420378 216.808402 
L 282.726468 214.755455 
L 283.644737 210.645767 
L 283.695752 210.694141 
L 284.256917 208.828429 
L 284.307932 208.882873 
L 284.358947 208.994417 
L 284.460977 208.403308 
L 284.511992 208.456994 
L 284.563007 208.655042 
L 284.665036 208.055965 
L 284.716051 208.105667 
L 284.767066 208.379026 
L 284.869096 207.776535 
L 284.920111 207.818269 
L 284.971126 208.081575 
L 285.073156 207.554964 
L 285.124171 207.583609 
L 285.175186 207.8306 
L 285.226201 207.594232 
L 285.328231 207.389734 
L 285.379246 207.613771 
L 285.430261 207.475669 
L 285.532291 207.224694 
L 285.583306 207.418948 
L 285.634321 207.386889 
L 285.736351 207.076917 
L 285.838381 207.317458 
L 285.940411 206.934831 
L 285.991426 207.046375 
L 286.042441 207.257133 
L 286.144471 206.788002 
L 286.195486 206.84643 
L 286.2465 207.083936 
L 286.297515 206.812853 
L 286.399545 206.62391 
L 286.45056 206.793503 
L 286.501575 206.688409 
L 286.603605 206.3699 
L 286.65462 206.463992 
L 286.705635 206.539683 
L 286.807665 206.077001 
L 286.85868 206.087814 
L 286.909695 206.243559 
L 287.06274 205.6589 
L 287.113755 205.717328 
L 287.16477 205.667816 
L 287.317815 205.126977 
L 287.36883 205.200961 
L 287.57289 204.427738 
L 287.623905 204.402888 
L 287.827965 203.517172 
L 288.134054 202.092516 
L 288.593189 199.256292 
L 288.948683 196.472616 
L 290.645892 180.763643 
L 292.09581 170.499097 
L 292.192471 170.056144 
L 292.337463 169.598964 
L 292.385793 169.62704 
L 292.820769 168.543466 
L 292.91743 168.626745 
L 292.965761 168.673222 
L 293.062422 168.516529 
L 293.110753 168.584252 
L 293.545728 169.704817 
L 293.642389 169.846334 
L 294.125695 172.554889 
L 294.802324 178.193949 
L 295.33396 184.201789 
L 295.575613 186.702241 
L 295.817266 185.224848 
L 296.88054 179.756898 
L 296.92887 179.729961 
L 297.363846 177.809615 
L 297.412176 177.906172 
L 297.557168 177.042652 
L 297.605499 177.136934 
L 297.798821 176.375093 
L 297.895483 176.181219 
L 297.992144 175.72328 
L 298.040474 175.762927 
L 298.088805 175.701844 
L 298.185466 175.175802 
L 298.233797 175.210707 
L 298.668772 174.124667 
L 298.717103 174.372038 
L 298.765433 174.116131 
L 298.862095 173.789465 
L 298.910425 174.139085 
L 298.958756 173.905752 
L 299.055417 173.545509 
L 299.103748 173.88792 
L 299.152078 173.590468 
L 299.200409 173.64017 
L 299.345401 173.363206 
L 299.393731 173.549683 
L 299.442062 173.325456 
L 299.490393 173.494859 
L 299.538723 173.223207 
L 299.587054 173.53242 
L 299.732046 173.169521 
L 299.780376 173.562582 
L 299.828707 173.437759 
L 299.925368 173.201771 
L 299.973699 173.652691 
L 300.022029 173.393559 
L 300.07036 173.441743 
L 300.11869 173.319575 
L 300.167021 173.651173 
L 300.263682 173.568653 
L 300.312013 173.521417 
L 300.457005 173.767839 
L 300.650327 174.038163 
L 300.698658 174.155399 
L 300.746988 174.010088 
L 300.795319 174.044613 
L 300.84365 174.378298 
L 300.940311 174.270548 
L 301.278625 174.98667 
L 301.326956 174.993689 
L 301.471947 175.41236 
L 301.520278 175.450679 
L 301.66527 175.906342 
L 301.761931 176.153333 
L 301.810262 175.994173 
L 301.955253 176.519077 
L 302.003584 176.484551 
L 302.051915 176.950647 
L 302.148576 176.935471 
L 302.196906 177.027097 
L 302.341898 177.399101 
L 302.583551 178.247635 
L 302.631882 178.184464 
L 302.970196 179.274867 
L 303.018527 179.144542 
L 303.163519 179.678551 
L 303.211849 179.675516 
L 303.30851 180.142181 
L 303.356841 180.112778 
L 303.888478 181.625266 
L 303.936808 181.561906 
L 304.0818 182.02895 
L 304.130131 182.082825 
L 304.323453 182.617973 
L 304.468445 182.884313 
L 304.613437 183.224258 
L 305.435057 184.893819 
L 305.483388 184.796692 
L 305.62838 185.215552 
L 305.67671 185.1152 
L 305.725041 185.466906 
L 305.821702 185.43295 
L 305.870033 185.442625 
L 305.918363 185.679562 
L 306.015024 185.659643 
L 306.256677 186.121755 
L 306.305008 185.99807 
L 306.353339 186.142053 
L 306.401669 186.139587 
L 306.546661 186.367229 
L 306.739983 186.519369 
L 306.788314 186.65216 
L 306.836645 186.486171 
L 307.126628 186.850018 
L 307.174959 186.776414 
L 307.22329 186.684978 
L 307.27162 186.957769 
L 307.319951 186.892512 
L 307.416612 186.799368 
L 307.464943 186.986793 
L 307.513273 186.937091 
L 307.561604 186.795195 
L 307.609934 186.923812 
L 307.706596 186.933108 
L 307.754926 186.820615 
L 307.803257 187.056983 
L 307.851587 186.887769 
L 308.09324 186.797471 
L 308.141571 186.905411 
L 308.189902 186.783433 
L 308.334894 186.820425 
L 308.383224 186.666008 
L 308.479885 186.711726 
L 308.624877 186.577038 
L 308.673208 186.635466 
L 308.721538 186.404031 
L 308.8182 186.459613 
L 308.914861 186.217934 
L 308.963191 186.330047 
L 309.011522 186.345982 
L 309.108183 186.047772 
L 309.156514 186.135793 
L 309.398167 185.613925 
L 309.881473 184.815662 
L 310.268118 183.964093 
L 310.316448 183.930326 
L 310.558101 183.146101 
L 310.606432 183.179488 
L 310.848085 182.39773 
L 311.23473 181.150823 
L 311.28306 181.155186 
L 311.669705 179.691451 
L 311.766367 179.502129 
L 312.00802 178.46048 
L 312.104681 178.344003 
L 312.346334 177.25986 
L 312.491326 176.839293 
L 312.82964 175.518023 
L 312.87797 175.53889 
L 313.409607 173.615699 
L 313.65126 172.820661 
L 313.699591 172.884969 
L 313.989574 171.841233 
L 314.037905 171.870068 
L 314.279558 171.111263 
L 314.327889 171.218633 
L 314.376219 171.126818 
L 314.472881 170.725979 
L 314.521211 170.815518 
L 314.811195 170.207715 
L 314.859525 170.179829 
L 314.907856 169.946876 
L 314.956187 170.027499 
L 315.004517 170.148529 
L 315.101178 169.726823 
L 315.149509 169.913868 
L 315.391162 169.571647 
L 315.487823 169.770644 
L 315.584484 169.51265 
L 315.632815 169.834383 
L 315.681146 169.737636 
L 315.729476 169.524222 
L 315.777807 169.627419 
L 315.971129 169.916524 
L 316.01946 169.695901 
L 316.067791 169.820345 
L 316.116121 170.094843 
L 316.164452 170.009667 
L 316.212782 169.900968 
L 316.406105 170.30636 
L 316.599427 170.924217 
L 316.647758 170.841887 
L 316.696088 170.873757 
L 316.889411 171.531071 
L 317.904354 176.333739 
L 318.290998 179.138093 
L 318.532651 175.156642 
L 319.112619 165.980981 
L 319.836052 156.149523 
L 320.299268 151.029675 
L 321.39817 144.243302 
L 321.627107 143.630567 
L 321.672895 143.696583 
L 321.718683 143.783276 
L 321.810258 143.725797 
L 321.901833 143.578968 
L 322.084983 144.090592 
L 322.130771 144.043547 
L 322.313921 144.636932 
L 323.321247 152.302192 
L 323.733335 156.136434 
L 324.856413 161.913976 
L 325.339738 165.795453 
L 326.016392 172.366326 
L 326.451384 175.134827 
L 327.176371 187.313459 
L 329.392869 247.969682 
L 330.038284 267.262302 
L 332.354071 268.799262 
L 335.262269 271.001693 
L 335.694909 271.348278 
L 336.256207 267.889075 
L 336.423173 266.958969 
L 336.478232 266.99691 
L 336.695488 265.605641 
L 337.180292 263.541691 
L 337.449627 262.472724 
L 337.503494 262.509526 
L 337.772829 261.518716 
L 337.880563 261.518527 
L 338.096031 260.854762 
L 338.203765 261.031374 
L 338.3115 260.520319 
L 338.365367 260.677581 
L 338.580835 260.320373 
L 338.634702 260.192135 
L 338.688569 260.342189 
L 338.742436 260.420156 
L 338.85017 260.210916 
L 338.904037 260.308612 
L 338.957904 260.166905 
L 339.011771 260.299127 
L 339.065638 260.522974 
L 339.119505 260.283382 
L 339.173372 260.225712 
L 339.334973 260.546308 
L 339.550442 260.739613 
L 339.604309 261.050154 
L 339.658176 260.941835 
L 339.712043 260.933108 
L 339.927511 261.570884 
L 340.250713 262.274676 
L 340.520048 263.354645 
L 340.573915 263.302288 
L 341.166453 265.801981 
L 341.274187 265.223582 
L 341.328054 265.564665 
L 341.435788 264.554696 
L 341.489655 264.796185 
L 341.812857 263.430526 
L 341.866724 263.830606 
L 341.974459 262.810961 
L 342.028326 263.248792 
L 342.13606 262.306735 
L 342.189927 262.584268 
L 342.459262 261.417985 
L 342.513129 261.485519 
L 342.566996 261.751859 
L 342.67473 260.994761 
L 342.728597 261.481535 
L 342.836331 260.593923 
L 342.890198 261.091699 
L 342.997932 260.189479 
L 343.051799 260.660318 
L 343.105667 260.190238 
L 343.159534 259.877421 
L 343.213401 260.202569 
L 343.321135 259.556446 
L 343.375002 259.870781 
L 343.428869 259.79547 
L 343.482736 259.311921 
L 343.536603 259.496501 
L 343.59047 259.599319 
L 343.644337 259.073277 
L 343.698204 259.244577 
L 343.752071 259.514902 
L 343.805938 258.879592 
L 343.859805 258.953007 
L 343.913672 259.351 
L 343.967539 258.723658 
L 344.021406 258.765582 
L 344.075273 259.283466 
L 344.183007 258.55729 
L 344.236874 259.202084 
L 344.344609 258.422792 
L 344.398476 259.086367 
L 344.50621 258.299675 
L 344.560077 258.977099 
L 344.613944 258.345773 
L 344.667811 258.210136 
L 344.721678 258.833684 
L 344.775545 258.284879 
L 344.829412 258.174473 
L 344.883279 258.786069 
L 344.937146 258.278239 
L 344.991013 258.124581 
L 345.04488 258.730866 
L 345.098747 258.308402 
L 345.152614 258.173334 
L 345.206481 258.712465 
L 345.260348 258.248835 
L 345.637418 254.923752 
L 346.176088 250.23206 
L 346.930227 243.415903 
L 347.307296 240.17277 
L 349.542828 219.224438 
L 350.308333 211.554436 
L 350.81867 206.422068 
L 352.275818 191.051333 
L 353.049386 182.545886 
L 357.656507 126.19057 
L 358.297773 122.421775 
L 358.389382 122.22164 
L 358.480992 121.823457 
L 358.526796 121.964974 
L 358.847429 122.259201 
L 359.44289 127.52436 
L 360.12996 141.629218 
L 361.146826 163.243592 
L 362.306971 172.139633 
L 362.355321 172.132614 
L 362.645421 173.831579 
L 363.612421 186.65235 
L 364.047571 195.386007 
L 365.303386 233.592223 
L 365.824006 249.69217 
L 365.877602 249.008676 
L 366.200881 244.894435 
L 366.631919 238.72478 
L 367.216658 230.775348 
L 367.779 222.940306 
L 368.136312 218.25127 
L 372.242784 161.646876 
L 373.094169 152.935604 
L 373.643947 148.65158 
L 373.918836 146.671099 
L 373.964651 146.577766 
L 374.285355 144.505279 
L 374.606059 142.890922 
L 374.835133 141.902578 
L 374.880948 142.07274 
L 375.110022 141.013638 
L 375.384911 140.244209 
L 375.430726 140.344751 
L 375.56817 139.833316 
L 375.613985 139.950552 
L 375.6598 139.771474 
L 375.705615 139.506651 
L 375.75143 139.588602 
L 375.797244 139.705458 
L 375.888874 139.261936 
L 375.934689 139.517654 
L 375.980504 139.393589 
L 376.026319 139.11321 
L 376.072133 139.187953 
L 376.117948 139.409714 
L 376.163763 139.134457 
L 376.209578 139.031259 
L 376.301208 139.316381 
L 376.347022 139.039986 
L 376.438652 139.159687 
L 376.484467 139.206164 
L 376.530282 139.119091 
L 376.576097 139.131801 
L 376.713541 139.252072 
L 376.759356 139.226842 
L 376.805171 139.559767 
L 376.850986 139.50741 
L 376.896801 139.327193 
L 376.942615 139.516705 
L 376.98843 139.776975 
L 377.034245 139.565079 
L 377.08006 139.59581 
L 377.125875 140.010118 
L 377.17169 139.93272 
L 377.217504 139.809604 
L 377.446579 140.538057 
L 377.721468 141.195182 
L 377.904727 141.645722 
L 378.133801 142.729865 
L 378.225431 142.743713 
L 378.454505 144.058533 
L 378.50032 143.926121 
L 378.546135 144.108993 
L 378.775209 145.428935 
L 378.821024 145.409396 
L 379.279172 147.961447 
L 379.370802 148.321879 
L 379.599876 149.817484 
L 379.645691 149.872308 
L 380.01221 152.363844 
L 382.899841 174.854448 
L 383.238367 178.00937 
L 383.721974 182.352201 
L 383.915417 183.908321 
L 384.930994 192.908318 
L 384.979354 192.543143 
L 385.462962 190.320603 
L 385.511323 190.264641 
L 385.94657 188.508387 
L 385.99493 188.463048 
L 386.236734 187.508472 
L 386.526899 186.806767 
L 386.62362 186.507418 
L 387.058867 185.814819 
L 387.300671 185.533871 
L 387.349032 185.627204 
L 387.445753 185.348533 
L 387.494114 185.436554 
L 387.639196 185.288777 
L 387.687557 185.467476 
L 387.735918 185.284793 
L 387.784279 185.240403 
L 387.881 185.389319 
L 387.929361 185.283086 
L 387.977722 185.33791 
L 388.026082 185.557394 
L 388.074443 185.408668 
L 388.122804 185.405633 
L 388.219526 185.609182 
L 388.267886 185.551513 
L 388.703133 186.269343 
L 389.331823 187.615842 
L 389.525266 188.375027 
L 389.573627 188.388306 
L 389.76707 189.054158 
L 390.153956 190.882498 
L 390.250678 191.255261 
L 390.589203 193.07886 
L 391.314615 197.634915 
L 391.657171 200.490678 
L 391.807896 201.755227 
L 392.011819 203.507308 
L 393.288017 218.33398 
L 393.594304 219.435765 
L 393.951639 220.921505 
L 394.002687 220.972156 
L 394.360023 222.380119 
L 394.411071 222.399089 
L 394.462118 222.55673 
L 394.564214 222.307084 
L 394.615262 222.441392 
L 394.717358 222.198385 
L 394.768406 222.316948 
L 394.819454 222.155702 
L 395.023645 221.967329 
L 395.074693 222.059144 
L 395.125741 221.950255 
L 395.329933 221.718441 
L 395.380981 221.790337 
L 395.432029 221.720907 
L 395.63622 221.454566 
L 395.738316 221.47088 
L 395.942508 221.181017 
L 396.044604 221.206057 
L 396.248795 220.822671 
L 396.350891 220.823999 
L 396.555083 220.346521 
L 396.657179 220.349366 
L 396.86137 219.850452 
L 396.963466 219.84533 
L 397.167658 219.3246 
L 397.269753 219.302405 
L 397.524993 218.517421 
L 397.576041 218.553654 
L 397.780233 217.765256 
L 398.035472 217.21626 
L 398.290712 216.122443 
L 398.34176 216.137998 
L 398.596999 214.815591 
L 398.648047 214.826783 
L 398.903287 213.409904 
L 399.005382 212.905868 
L 399.566909 209.339484 
L 399.771101 207.859435 
L 400.179484 204.022157 
L 400.383676 202.088911 
L 401.430167 187.787902 
L 402.20396 171.169691 
L 402.542494 159.240516 
L 402.968607 144.564656 
L 403.289612 139.320554 
L 403.472898 138.822209 
L 403.51872 138.858631 
L 403.656184 139.963641 
L 403.931113 144.064603 
L 404.948365 168.78837 
L 405.238334 175.35469 
L 405.286705 174.649571 
L 405.383447 173.408735 
L 405.722042 167.779918 
L 405.818783 166.06464 
L 406.493429 155.502073 
L 406.540527 155.253185 
L 407.047154 147.130745 
L 407.322108 143.790864 
L 407.642887 138.660963 
L 407.734538 137.728201 
L 408.055318 133.185046 
L 408.146969 131.798519 
L 408.605225 125.75255 
L 408.65105 125.593201 
L 408.926004 121.445382 
L 409.606635 112.940505 
L 409.998084 107.887053 
L 412.516088 79.236659 
L 412.559502 79.178611 
L 412.776571 77.407559 
L 412.99364 76.012686 
L 413.037054 76.028431 
L 413.080468 76.161222 
L 413.254123 75.553609 
L 413.297537 75.292011 
L 413.340951 75.38762 
L 413.514607 75.877619 
L 413.55802 75.78125 
L 413.601434 75.772334 
L 413.688262 76.337455 
L 413.77509 77.106503 
L 413.818504 76.81019 
L 413.861917 76.825366 
L 414.078987 78.272408 
L 414.122401 78.191215 
L 414.296056 75.913662 
L 414.33947 76.272577 
L 414.469711 79.463162 
L 414.860436 97.968522 
L 416.203527 163.487168 
L 417.147542 151.829266 
L 417.743476 144.678097 
L 419.347915 127.143629 
L 422.147875 100.314557 
L 422.191305 100.21781 
L 422.49531 97.292806 
L 422.799316 94.661839 
L 422.929604 93.888616 
L 423.103321 92.462632 
L 423.146751 92.404773 
L 423.320468 90.715863 
L 423.363898 90.7686 
L 423.537615 89.09809 
L 423.581044 89.143998 
L 423.754762 87.35208 
L 423.798191 87.360426 
L 424.102197 84.998646 
L 424.406202 82.791851 
L 424.449632 82.753341 
L 424.493061 82.862609 
L 424.666779 81.381422 
L 424.710208 81.532803 
L 424.883925 80.096385 
L 424.927355 80.170179 
L 425.101072 78.714981 
L 425.144502 78.909424 
L 425.318219 77.526882 
L 425.361648 77.744279 
L 425.535366 76.451275 
L 425.578795 76.534364 
L 425.709083 75.226943 
L 425.752513 75.258244 
L 425.795942 75.409626 
L 425.92623 74.184914 
L 425.96966 74.258329 
L 426.013089 74.43551 
L 426.143377 73.326137 
L 426.186806 73.428006 
L 426.230236 73.289524 
L 426.359838 72.28259 
L 426.402582 72.431126 
L 426.445097 72.300801 
L 426.571271 71.415086 
L 426.612872 71.59018 
L 426.654244 71.550343 
L 426.777676 70.712243 
L 426.81882 70.896443 
L 426.859964 70.834979 
L 426.983395 69.929345 
L 427.024539 70.086039 
L 427.065683 70.075036 
L 427.189114 69.201082 
L 427.230258 69.379022 
L 427.271402 69.455282 
L 427.394833 68.636342 
L 427.477121 68.97382 
L 427.600552 68.153552 
L 427.641696 68.340408 
L 427.68284 68.336993 
L 427.806272 67.568134 
L 427.888559 67.796534 
L 427.970847 67.116265 
L 428.011991 67.143772 
L 428.053134 67.420167 
L 428.094278 67.39285 
L 428.176566 66.800602 
L 428.21771 66.878949 
L 428.258854 67.210926 
L 428.299997 67.072065 
L 428.382285 66.482284 
L 428.423429 66.557974 
L 428.464573 66.88464 
L 428.505717 66.620576 
L 428.588004 66.144046 
L 428.629148 66.283666 
L 428.670292 66.678435 
L 428.711436 66.308138 
L 428.793723 65.960415 
L 428.834867 66.170984 
L 428.876011 66.620196 
L 428.917155 66.135889 
L 428.958299 65.904643 
L 428.999442 65.931581 
L 429.08173 66.466159 
L 429.164018 65.788546 
L 429.205161 65.831039 
L 429.287449 66.191661 
L 429.369737 65.673967 
L 429.410881 65.802963 
L 429.452024 66.194507 
L 429.493168 66.056973 
L 429.575456 65.713804 
L 429.6166 65.936134 
L 429.657744 66.424425 
L 429.698887 66.064372 
L 429.740031 65.855131 
L 429.781175 65.909575 
L 429.863463 66.588706 
L 429.904606 66.170984 
L 429.94575 65.998735 
L 429.986894 66.088084 
L 430.069182 66.504668 
L 430.151469 66.108762 
L 430.192613 66.306431 
L 430.233757 66.771578 
L 430.274901 66.555508 
L 430.316045 66.334506 
L 430.357189 66.377948 
L 430.439476 67.125181 
L 430.48062 66.755264 
L 430.521764 66.647703 
L 430.562908 66.808001 
L 430.645195 67.36079 
L 430.686339 67.106401 
L 430.727483 67.117973 
L 430.809771 67.827835 
L 430.892058 67.410113 
L 430.933202 67.485045 
L 431.01549 68.188457 
L 431.056634 67.864068 
L 431.097777 67.802035 
L 431.385784 69.254578 
L 431.426928 68.931137 
L 431.468072 68.870623 
L 431.756079 70.476254 
L 431.797222 70.211621 
L 431.838366 70.117909 
L 431.87951 70.289019 
L 431.961798 70.964925 
L 432.002941 70.755874 
L 432.044085 70.80899 
L 432.332092 72.42866 
L 432.373236 72.257739 
L 432.41438 72.348416 
L 432.705817 74.179982 
L 432.748333 74.053641 
L 432.791078 74.199331 
L 433.050978 76.030138 
L 433.09441 75.805342 
L 433.137841 75.863581 
L 433.615582 78.999722 
L 433.659013 78.951728 
L 433.9196 80.802833 
L 434.136755 82.558328 
L 434.180186 82.43692 
L 434.223617 82.586784 
L 434.701359 86.232463 
L 434.74479 86.319536 
L 436.221446 98.951933 
L 436.438601 101.26534 
L 436.525463 101.670542 
L 437.741532 114.000176 
L 437.958688 116.124641 
L 439.364173 131.176678 
L 439.730927 135.010731 
L 440.235214 140.478491 
L 440.556123 143.684252 
L 441.06041 149.02624 
L 441.243787 150.705666 
L 441.748073 155.616462 
L 442.068983 158.382117 
L 443.310617 168.755362 
L 444.520421 177.754601 
L 444.617205 177.208261 
L 445.972186 167.098891 
L 446.601284 164.077329 
L 447.327166 162.233812 
L 447.472343 162.157552 
L 447.569127 162.077498 
L 447.665911 162.22243 
L 447.714303 162.155276 
L 447.762696 162.142186 
L 448.004656 162.602402 
L 448.053049 162.598797 
L 448.924107 166.171441 
L 449.988735 174.992171 
L 451.924421 198.461823 
L 452.369632 203.761887 
L 452.880177 209.968533 
L 453.850725 212.990475 
L 454.157214 210.159183 
L 454.208295 210.007043 
L 454.770191 204.78893 
L 454.872354 203.975491 
L 455.536144 197.751771 
L 455.586688 197.563208 
L 456.126552 192.115367 
L 456.223341 191.195885 
L 457.094445 182.731793 
L 457.481602 178.649422 
L 457.723575 176.379457 
L 458.207522 171.072943 
L 458.788257 164.63562 
L 461.071794 129.874569 
L 461.759539 117.081494 
L 461.985168 113.147849 
L 464.420041 73.262966 
L 464.506915 72.139365 
L 464.887568 67.459625 
L 465.257943 63.091373 
L 466.410222 52.369837 
L 466.451375 52.625933 
L 466.657139 50.750547 
L 466.698292 50.707484 
L 467.397889 46.875329 
L 467.439042 47.1227 
L 467.480195 46.818039 
L 467.644806 46.186334 
L 467.727112 46.274925 
L 467.891723 45.510239 
L 467.932876 45.862893 
L 467.974029 45.588206 
L 468.13864 45.324901 
L 468.220946 45.498667 
L 468.262098 45.162706 
L 468.344404 45.350131 
L 468.385557 45.165551 
L 468.42671 45.701837 
L 468.509015 45.32509 
L 468.673626 45.905766 
L 468.755932 45.656309 
L 468.920543 46.574842 
L 468.961696 46.096416 
L 469.002849 46.339992 
L 469.16746 47.040749 
L 469.208613 46.939827 
L 469.414377 48.005949 
L 469.45553 47.787223 
L 469.620141 49.008899 
L 469.661294 48.751664 
L 469.702447 48.914618 
L 469.867058 50.080142 
L 469.908211 49.880008 
L 469.949363 50.026078 
L 470.113975 51.069435 
L 470.155128 50.776536 
L 470.19628 51.200328 
L 470.937031 53.532326 
L 470.978184 53.006285 
L 471.019336 53.030566 
L 471.060489 53.731702 
L 471.142795 53.490023 
L 471.307406 54.48254 
L 471.348559 53.914005 
L 471.389712 54.055333 
L 471.554323 55.198852 
L 471.718934 56.599037 
L 471.924698 52.607532 
L 471.965851 53.003818 
L 472.336226 65.287545 
L 472.624296 73.182153 
L 472.961751 78.261025 
L 473.17872 78.957419 
L 473.2656 79.683026 
L 473.309039 79.391835 
L 473.439358 79.040318 
L 473.482798 79.084139 
L 473.613117 79.446658 
L 473.830315 78.392299 
L 473.917194 78.565686 
L 473.960634 78.775685 
L 474.004073 78.453762 
L 474.177832 77.664036 
L 474.264711 77.844062 
L 474.35159 78.363654 
L 474.39503 78.033763 
L 474.525349 77.701027 
L 474.612228 78.033763 
L 474.742547 79.160209 
L 474.829426 79.034058 
L 474.916306 79.418203 
L 475.307262 83.613826 
L 475.958857 96.720287 
L 476.653891 118.208509 
L 479.610376 233.135422 
L 479.661475 233.019704 
L 479.712574 233.04797 
L 479.814772 233.275042 
L 479.865871 233.255124 
L 479.916969 233.241844 
L 480.019167 232.970192 
L 480.070266 233.056317 
L 480.274662 233.518808 
L 480.376859 233.497941 
L 481.45022 236.804055 
L 483.381768 248.77098 
L 483.867211 252.498421 
L 484.136901 254.16286 
L 484.514467 256.195888 
L 485.755042 256.028382 
L 486.887741 249.937833 
L 486.995618 249.583471 
L 487.319246 248.048788 
L 487.373184 247.994912 
L 487.696812 246.873399 
L 487.804688 246.778548 
L 488.02044 246.33275 
L 488.236193 246.259905 
L 488.344069 246.140583 
L 488.505883 246.478251 
L 488.613759 246.626977 
L 488.667697 246.583345 
L 488.775573 246.740228 
L 489.584644 249.994364 
L 489.746458 251.122138 
L 489.800396 251.020458 
L 490.070086 250.130759 
L 490.717343 247.43757 
L 490.771281 247.397353 
L 492.119732 242.530378 
L 492.659112 240.880546 
L 492.71305 240.921521 
L 493.036679 239.927486 
L 493.144555 240.021958 
L 493.414245 239.492501 
L 493.522121 239.484534 
L 493.629997 239.218762 
L 493.683935 239.265429 
L 493.791811 239.536133 
L 493.845749 239.51868 
L 494.007563 239.154643 
L 494.061502 239.199603 
L 494.169378 239.362556 
L 494.223316 239.342827 
L 494.493006 239.837189 
L 494.600882 239.69681 
L 494.816634 240.427918 
L 494.870572 240.63621 
L 494.92451 240.539083 
L 494.978448 240.54743 
L 495.248139 241.46805 
L 495.463891 242.354714 
L 495.571767 242.508752 
L 496.59659 247.968923 
L 496.920218 249.949215 
L 498.754111 263.657219 
L 498.861988 263.508303 
L 501.235262 260.105632 
L 502.206146 255.142477 
L 502.314023 254.884673 
L 502.529775 254.123971 
L 502.637651 254.145218 
L 502.745527 253.533621 
L 503.123093 247.840685 
L 503.554598 241.662494 
L 503.608536 241.320463 
L 503.932164 236.963783 
L 504.765378 227.262271 
L 504.816478 227.320699 
L 505.02088 224.975232 
L 505.276382 222.543831 
L 505.327482 222.77925 
L 505.531884 220.845815 
L 505.736286 219.129587 
L 505.787386 218.866661 
L 505.838486 219.237907 
L 505.940687 217.925174 
L 505.991788 218.05436 
L 506.451691 215.648379 
L 506.502792 215.876779 
L 506.553892 215.872796 
L 506.604993 215.165969 
L 506.656093 215.207893 
L 506.707194 215.880384 
L 506.809394 214.761336 
L 506.860495 215.337079 
L 506.911595 214.951986 
L 506.962696 214.509413 
L 507.013796 214.826404 
L 507.064896 215.0512 
L 507.115997 214.360118 
L 507.167097 214.462556 
L 507.218198 215.327974 
L 507.269298 214.444345 
L 507.320399 214.308898 
L 507.371499 214.965834 
L 507.422599 214.768355 
L 507.4737 214.374725 
L 507.5248 214.798138 
L 507.575901 215.243936 
L 507.627001 214.586431 
L 507.678101 214.75849 
L 507.729202 215.731848 
L 507.780302 214.951417 
L 507.831403 214.870983 
L 507.882503 215.615371 
L 507.933604 215.545182 
L 507.984704 215.191009 
L 508.086905 216.367916 
L 508.138005 215.720086 
L 508.189106 215.928378 
L 508.240206 216.969269 
L 508.291307 216.395043 
L 508.342407 216.368865 
L 508.444608 217.198049 
L 508.495708 216.89889 
L 508.597909 218.210105 
L 508.649009 217.607424 
L 508.70011 217.871868 
L 508.75121 218.958287 
L 508.802311 218.518749 
L 508.853411 218.469996 
L 508.955612 219.631537 
L 509.006712 219.259722 
L 509.262215 221.363699 
L 509.313315 221.286301 
L 509.364415 221.20454 
L 509.619917 223.52876 
L 509.671018 223.220306 
L 509.722118 223.302636 
L 509.97762 225.601246 
L 510.028721 225.308917 
L 510.079821 225.450623 
L 510.335323 227.553652 
L 510.386424 227.443815 
L 510.437524 227.551375 
L 510.693026 229.369472 
L 510.846328 229.90424 
L 510.999629 230.554157 
L 511.255131 232.024911 
L 511.510633 233.162739 
L 511.561733 233.093688 
L 511.868336 234.708994 
L 511.919436 234.54642 
L 511.970537 234.638615 
L 512.481541 236.387092 
L 512.532641 236.195683 
L 512.583742 236.241401 
L 512.685943 236.762321 
L 512.737327 236.66728 
L 512.788995 236.643568 
L 512.840948 236.828147 
L 513.266505 232.840057 
L 513.426631 231.35849 
L 516.499567 204.558632 
L 517.112969 201.773249 
L 517.164085 201.897124 
L 517.419669 201.123901 
L 517.470786 201.231841 
L 517.624136 200.623469 
L 517.72637 200.799322 
L 517.777487 200.632195 
L 517.828604 200.659133 
L 517.981954 201.108725 
L 518.084187 200.745257 
L 518.135304 200.769539 
L 518.237538 201.243223 
L 518.288655 201.101706 
L 518.339771 201.166963 
L 518.595355 202.141648 
L 518.646472 202.189074 
L 519.464341 206.887974 
L 519.668808 208.702088 
L 519.771041 209.402085 
L 520.128859 212.788632 
L 520.844494 220.605843 
L 522.921843 249.716262 
L 523.029759 249.237646 
L 523.677259 246.086138 
L 523.839134 245.301154 
L 524.162884 243.783165 
L 526.510079 233.592033 
L 526.765675 232.722632 
L 527.123511 231.439493 
L 527.532465 230.145161 
L 527.583585 230.090717 
L 527.890301 229.227196 
L 529.219403 226.74818 
L 529.321642 226.672869 
L 529.526119 226.396095 
L 529.832835 226.181353 
L 530.19067 226.086502 
L 530.241789 226.177559 
L 530.292909 226.114957 
L 530.497386 226.148155 
L 530.701863 226.330837 
L 530.95746 226.49417 
L 531.213056 226.879264 
L 531.315295 227.011485 
L 532.542159 229.816788 
L 533.308949 232.395018 
L 534.968913 240.925125 
L 535.616433 245.111833 
L 536.048113 248.120305 
L 536.317913 247.178438 
L 536.911473 238.944834 
L 537.548782 230.604238 
L 539.696258 207.971927 
L 540.769854 200.544553 
L 541.076596 198.990331 
L 541.621474 196.694756 
L 542.687024 194.128667 
L 542.735459 194.22788 
L 542.832327 193.92322 
L 542.880761 193.966851 
L 542.929195 193.947692 
L 543.026063 193.781324 
L 543.074497 193.919047 
L 543.122932 193.73257 
L 543.171366 193.668831 
L 543.2198 193.753248 
L 543.655707 193.677936 
L 543.897877 194.009534 
L 543.994746 193.943898 
L 544.236916 194.470698 
L 544.28535 194.371674 
L 544.333784 194.424601 
L 544.575955 195.025385 
L 544.624389 194.995601 
L 545.447769 197.350553 
L 545.883676 199.078921 
L 546.127462 200.097807 
L 546.479688 201.812706 
L 546.633065 202.522948 
L 547.04207 204.472318 
L 547.604451 207.327512 
L 547.706702 207.616807 
L 548.064581 209.123224 
L 550.927612 199.166753 
L 551.472507 196.94592 
L 552.005296 194.819559 
L 552.974004 190.644423 
L 553.361487 187.979879 
L 557.079539 155.911827 
L 557.767833 149.414748 
L 558.318467 144.614547 
L 559.190305 136.411295 
L 560.383346 125.696208 
L 560.612777 123.947352 
L 562.531562 108.51743 
L 562.748921 107.144941 
L 563.096696 104.708798 
L 563.966134 100.158813 
L 564.009606 100.094314 
L 564.270437 99.018329 
L 564.531268 98.069253 
L 564.7921 96.793322 
L 565.400706 95.034222 
L 565.618066 94.25474 
L 565.835425 93.839484 
L 566.052784 93.804768 
L 566.357088 93.062278 
L 566.444031 93.159974 
L 566.530975 92.992088 
L 566.574447 93.074798 
L 566.617919 93.242873 
L 566.704863 93.145936 
L 566.791806 93.500488 
L 566.922222 93.431816 
L 567.052638 93.290299 
L 567.139581 93.438645 
L 567.183053 93.392168 
L 567.400413 93.853522 
L 567.661244 94.788559 
L 567.704716 94.790836 
L 568.095963 95.999802 
L 568.48721 98.252315 
L 568.574154 98.458141 
L 569.443591 104.658337 
L 570.79267 119.947501 
L 573.598245 167.633848 
L 574.80923 188.194431 
L 574.906109 187.611669 
L 575.390502 184.455609 
L 575.53582 183.529867 
L 576.020214 180.760418 
L 576.407729 178.585113 
L 576.843683 176.281381 
L 578.490622 169.711647 
L 578.829698 168.802408 
L 578.975016 168.42661 
L 579.217213 167.944579 
L 579.992243 166.545532 
L 580.089122 166.466047 
L 580.96103 164.702964 
L 581.445424 162.341373 
L 583.493931 145.500832 
L 583.539822 145.488501 
L 583.769276 144.144088 
L 584.687094 141.504774 
L 584.732985 141.693527 
L 584.778876 141.578758 
L 584.96244 141.188922 
L 585.054221 141.342011 
L 585.146003 141.049112 
L 585.191894 141.307106 
L 585.283676 141.214152 
L 585.329567 141.119112 
L 585.375458 141.318867 
L 585.421349 141.046836 
L 585.51313 141.343908 
L 585.559021 141.32323 
L 585.604912 141.145101 
L 585.650803 141.391902 
L 585.696694 141.290602 
L 585.742585 141.345994 
L 585.788476 141.404422 
L 585.834367 141.675126 
L 585.926148 141.562444 
L 586.109712 141.949055 
L 586.155603 141.898974 
L 586.201494 141.966318 
L 586.247385 142.069325 
L 588.450148 126.889999 
L 588.954947 124.530304 
L 589.322075 122.944402 
L 589.413856 122.810093 
L 589.59742 122.097386 
L 589.643311 122.093781 
L 590.010438 121.151345 
L 590.10222 121.191183 
L 590.285783 120.748989 
L 590.331674 120.867173 
L 590.377565 120.747282 
L 590.515238 120.643894 
L 590.652911 120.620182 
L 590.698801 120.574843 
L 590.744692 120.628718 
L 590.790583 120.675954 
L 590.836474 120.553407 
L 590.882365 120.720344 
L 590.928256 120.752024 
L 590.974147 120.611645 
L 591.020038 120.896387 
L 591.065929 120.785222 
L 591.11182 120.748989 
L 591.295383 121.101833 
L 591.341274 121.074516 
L 591.570728 121.604542 
L 591.66251 121.708308 
L 591.891965 122.393889 
L 591.937856 122.434295 
L 592.121419 123.207897 
L 592.16731 123.195756 
L 594.278291 134.029406 
L 595.104327 139.17069 
L 596.297491 146.514216 
L 596.939963 150.448431 
L 597.123527 151.443983 
L 597.720108 154.858226 
L 600.026127 165.653936 
L 600.510532 168.630539 
L 601.527781 167.896964 
L 602.399709 168.487884 
L 602.738792 169.193952 
L 603.271637 170.727687 
L 603.949803 173.721742 
L 604.821731 177.865387 
L 605.160815 178.22544 
L 605.548338 178.795682 
L 606.226504 180.224322 
L 608.406325 186.698827 
L 611.022109 196.868143 
L 611.797156 199.53686 
L 612.093451 201.870376 
L 612.654288 209.01794 
L 613.72806 228.422484 
L 614.823143 248.541442 
L 614.985063 250.548861 
L 615.039036 250.436558 
L 616.820156 236.981995 
L 617.497665 224.954175 
L 618.366922 208.755014 
L 622.565979 140.960332 
L 624.49127 115.173289 
L 625.016696 108.269301 
L 626.929977 83.641143 
L 628.752865 61.67734 
L 628.835256 61.218263 
L 629.082428 58.004344 
L 629.453187 61.60146 
L 630.029922 73.493832 
L 633.879047 133.060222 
L 634.29217 142.118458 
L 634.888903 159.886448 
L 635.359426 176.651868 
L 635.456342 175.202171 
L 635.989377 169.463517 
L 636.13475 169.240808 
L 636.280123 169.685468 
L 636.473954 171.276682 
L 636.813158 176.816149 
L 637.200819 186.913948 
L 637.588481 198.996401 
L 637.636939 198.323151 
L 640.253655 166.941059 
L 640.544402 163.734918 
L 641.027449 158.028514 
L 641.354165 154.342618 
L 641.905073 148.224563 
L 645.157847 114.016491 
L 646.419863 95.770074 
L 648.941318 60.917207 
L 650.053842 50.658162 
L 650.877934 47.164434 
L 651.042752 46.801725 
L 651.083957 46.825438 
L 651.166366 46.949123 
L 651.207571 46.889177 
L 651.331185 46.33487 
L 651.372389 46.36693 
L 651.619617 47.52278 
L 652.155277 54.271023 
L 652.938164 65.465295 
L 653.102983 66.968298 
L 653.144187 66.752987 
L 653.844666 60.291572 
L 654.256712 54.888311 
L 654.95719 44.663033 
L 655.82227 26.041007 
L 656.103114 21.786008 
L 656.142368 21.703867 
L 656.181404 21.799856 
L 656.298514 22.873375 
L 656.493698 27.875229 
L 656.813802 44.414714 
L 657.267544 82.318736 
L 657.393912 91.036268 
L 657.436493 90.981065 
L 657.82659 89.515243 
L 658.131068 88.458607 
L 658.479044 87.217392 
L 659.044503 85.533224 
L 659.348981 84.656425 
L 660.088428 82.736079 
L 660.175422 82.657922 
L 661.132354 80.60156 
L 661.219347 80.516953 
L 661.393335 80.102645 
L 661.480329 80.081399 
L 661.654316 79.783758 
L 661.871801 79.47113 
L 662.045788 79.155657 
L 662.089285 79.212377 
L 662.263273 78.834113 
L 662.350266 78.929912 
L 662.393763 78.808503 
L 662.654745 78.405768 
L 662.698242 78.441242 
L 662.741738 78.38509 
L 662.872229 78.093899 
L 662.915726 78.111731 
L 662.959223 78.18837 
L 663.00272 78.110213 
L 663.13321 77.926962 
L 663.176707 77.986338 
L 663.220204 77.897937 
L 663.742167 77.349321 
L 663.785664 77.399592 
L 663.829161 77.513223 
L 663.872657 77.405093 
L 664.090142 77.167398 
L 664.220633 77.183522 
L 664.351123 76.94374 
L 664.438117 77.108021 
L 664.481614 76.966883 
L 664.568608 76.842629 
L 664.612105 76.882087 
L 664.655601 76.989648 
L 664.699098 76.965555 
L 664.96008 76.712873 
L 665.047073 76.831816 
L 665.177564 76.574391 
L 665.264558 76.75309 
L 665.308055 76.659567 
L 665.395049 76.542332 
L 665.438545 76.593551 
L 665.482042 76.718185 
L 665.569036 76.637562 
L 665.786521 76.495665 
L 665.830017 76.576288 
L 665.873514 76.61954 
L 666.004005 76.423389 
L 666.090999 76.643632 
L 666.134496 76.500598 
L 666.221489 76.449758 
L 666.308483 76.623334 
L 666.35198 76.59431 
L 666.569464 76.482197 
L 666.656458 76.67038 
L 666.699955 76.571356 
L 666.786949 76.46759 
L 666.830446 76.536451 
L 666.873943 76.685367 
L 666.91744 76.628456 
L 667.004433 76.548213 
L 667.091427 76.801654 
L 667.178421 76.703578 
L 667.830874 77.034417 
L 667.874371 77.227723 
L 667.961365 77.119024 
L 669.135781 78.516174 
L 669.179278 78.704737 
L 669.266271 78.650862 
L 669.353265 78.851186 
L 669.396762 79.081863 
L 669.483756 78.996308 
L 671.006147 82.83055 
L 671.267128 83.764639 
L 671.354122 83.892877 
L 671.963078 86.483058 
L 672.050072 86.629697 
L 673.180991 92.176562 
L 673.485469 93.883115 
L 674.268413 98.914562 
L 675.399332 107.219873 
L 675.834301 110.654794 
L 676.970295 120.790723 
L 677.611634 126.650975 
L 679.310434 142.952005 
L 680.228705 151.335664 
L 681.146975 158.630247 
L 682.673609 167.629675 
L 683.352116 170.03964 
L 683.739833 170.918905 
L 684.030622 171.222238 
L 684.127551 170.666982 
L 684.660663 167.314961 
L 685.726887 159.873169 
L 687.574955 141.035264 
L 687.62087 140.729276 
L 687.62087 140.729276 
" clip-path="url(#pb755cb374f)" style="fill: none; stroke: #1f77b4; stroke-width: 1.5; stroke-linecap: square"/>
   </g>
   <g id="line2d_30">
    <path d="M 76.057596 -1 
L 76.287643 74.304426 
L 76.65507 107.149305 
L 77.806343 143.269945 
L 79.937423 190.463259 
L 81.198925 212.692454 
L 82.301208 228.425139 
L 83.30551 239.744045 
L 84.260821 248.107026 
L 85.17939 254.287683 
L 86.061217 258.801056 
L 86.9063 262.027875 
L 87.677882 264.152149 
L 88.393419 265.496373 
L 89.01335 266.211546 
L 89.534508 266.502358 
L 89.998426 266.529675 
L 90.460233 266.343768 
L 90.957037 265.909163 
L 91.538977 265.092499 
L 92.216132 263.724183 
L 92.997566 261.582266 
L 93.850051 258.549133 
L 94.816201 254.227358 
L 95.896015 248.279654 
L 97.089494 240.359057 
L 98.45347 229.729715 
L 102.59778 195.964596 
L 103.351565 192.265231 
L 103.997666 190.123504 
L 104.589926 188.881719 
L 105.182185 188.156681 
L 105.774445 187.772915 
L 106.52823 187.566141 
L 107.497382 187.540531 
L 108.520376 187.723213 
L 109.435686 188.10034 
L 110.350997 188.712695 
L 111.427832 189.727597 
L 112.773877 191.339868 
L 118.211897 198.213125 
L 120.850144 200.886395 
L 127.634209 207.686617 
L 130.649349 210.51677 
L 132.964546 212.389122 
L 135.172059 213.895539 
L 137.433414 215.176592 
L 139.587085 216.210085 
L 141.686915 216.902684 
L 145.078947 217.745147 
L 148.686347 218.722868 
L 151.432278 219.708176 
L 155.255044 221.347954 
L 158.485552 222.638302 
L 160.26233 223.118057 
L 161.7699 223.295807 
L 163.223629 223.233205 
L 165.3773 222.863477 
L 167.046395 222.67112 
L 168.177073 222.751933 
L 169.253908 223.050333 
L 170.341513 223.594776 
L 171.518257 224.441033 
L 172.056677 224.749677 
L 173.637536 223.187487 
L 176.920402 219.793352 
L 178.266453 218.75341 
L 179.343294 218.183737 
L 180.31245 217.905635 
L 181.227765 217.86428 
L 182.143079 218.044875 
L 183.058394 218.446283 
L 184.081392 219.144763 
L 185.212075 220.195139 
L 186.558125 221.762831 
L 188.334912 224.194042 
L 190.451208 227.271756 
L 190.508042 227.226796 
L 191.815212 226.342599 
L 192.838214 225.903251 
L 193.74755 225.742574 
L 194.600052 225.809538 
L 195.452554 226.095039 
L 196.36189 226.633221 
L 197.441726 227.54815 
L 198.919396 229.138037 
L 201.93157 232.441305 
L 203.181906 233.442548 
L 204.148075 233.988698 
L 205.130697 233.730515 
L 206.745965 233.113606 
L 208.630444 232.142526 
L 214.007244 229.195516 
L 215.087099 228.645762 
L 221.531832 222.834074 
L 223.30866 221.590961 
L 224.708585 220.869338 
L 225.94698 220.478553 
L 226.970002 220.384651 
L 227.831494 220.516114 
L 228.639143 220.862508 
L 229.392949 221.423076 
L 230.200598 222.318276 
L 231.051888 223.623041 
L 231.766304 224.876777 
L 231.817313 224.784582 
L 233.143559 222.142992 
L 234.928889 218.635226 
L 235.775917 217.449213 
L 236.452467 216.851085 
L 237.080693 216.583986 
L 237.708919 216.572983 
L 238.409653 216.806505 
L 239.371114 217.392303 
L 241.431386 218.697827 
L 242.484414 219.055983 
L 243.752374 219.22937 
L 246.990319 219.551862 
L 248.536801 220.008284 
L 250.373247 220.811479 
L 256.941792 223.911198 
L 267.032531 227.583435 
L 267.51716 227.589316 
L 268.755657 226.57688 
L 269.83261 225.974199 
L 270.855716 225.652845 
L 271.878822 225.567669 
L 272.955776 225.705202 
L 273.601948 225.771788 
L 278.288165 222.806377 
L 279.46151 222.422422 
L 280.532824 222.301772 
L 281.604138 222.41085 
L 282.828498 222.780388 
L 286.144471 223.95426 
L 287.06274 223.943447 
L 287.929994 223.716943 
L 288.948683 223.216322 
L 291.805826 221.643319 
L 292.579116 221.545054 
L 293.352406 221.677275 
L 294.174026 222.053643 
L 295.188969 222.776784 
L 296.88054 224.302551 
L 299.055417 226.192166 
L 299.877037 226.713275 
L 301.181964 226.180973 
L 302.341898 225.94195 
L 303.501833 225.932085 
L 304.661767 226.143602 
L 305.918363 226.604766 
L 306.788314 226.898234 
L 308.334894 226.001895 
L 310.268118 224.607781 
L 313.071293 222.278818 
L 316.937741 219.099235 
L 319.064288 217.6484 
L 320.757144 216.747888 
L 322.268133 216.193391 
L 323.595973 215.945451 
L 324.808081 215.947917 
L 325.96806 216.170058 
L 327.224703 216.645828 
L 328.670666 217.454335 
L 330.361417 218.666526 
L 332.569494 220.53755 
L 335.262269 223.115211 
L 339.334973 227.188666 
L 339.38884 227.133084 
L 341.381921 225.244418 
L 342.728597 224.249245 
L 343.859805 223.677486 
L 344.829412 223.42708 
L 345.745152 223.421958 
L 346.607024 223.635372 
L 347.522764 224.096725 
L 348.522154 224.865774 
L 349.644895 226.024849 
L 350.359367 226.810402 
L 351.886349 224.482767 
L 354.499825 219.988744 
L 356.786218 216.23228 
L 358.251968 214.239847 
L 359.44289 212.975678 
L 360.496397 212.171345 
L 361.436671 211.727064 
L 362.306971 211.555574 
L 363.128921 211.610208 
L 363.999221 211.897795 
L 364.895071 212.43446 
L 365.877602 213.291341 
L 366.954347 214.527624 
L 368.289446 216.42236 
L 370.066341 219.373543 
L 373.185798 224.612713 
L 374.560244 222.496595 
L 375.613985 221.255569 
L 376.484467 220.566195 
L 377.17169 220.283161 
L 377.813097 220.25793 
L 378.40869 220.462428 
L 379.004283 220.902915 
L 379.645691 221.654511 
L 380.378729 222.874859 
L 380.974576 224.149462 
L 381.0209 224.080601 
L 381.980987 221.405054 
L 383.190006 217.294417 
L 387.397393 202.215442 
L 388.654772 198.960737 
L 389.863792 196.430692 
L 390.976089 194.585657 
L 391.909723 193.426013 
L 392.72649 192.74233 
L 393.390112 192.447913 
L 394.002687 192.406748 
L 394.564214 192.579566 
L 395.176789 193.011706 
L 395.840412 193.77753 
L 396.606131 195.045493 
L 397.473945 196.944972 
L 398.648047 200.117915 
L 402.252322 210.254982 
L 406.955503 221.987816 
L 407.001328 221.926733 
L 408.742702 217.332168 
L 409.998084 214.619819 
L 410.996603 212.95557 
L 411.86488 211.914299 
L 412.602915 211.349559 
L 413.254123 211.10731 
L 413.861917 211.104465 
L 414.469711 211.321862 
L 415.120919 211.804083 
L 415.8361 212.633457 
L 416.631844 213.929496 
L 417.514271 215.832579 
L 418.476934 218.449508 
L 419.027027 220.193053 
L 419.072868 220.048121 
L 420.310578 215.278272 
L 421.80044 208.593009 
L 424.015338 197.490363 
L 426.230236 186.736577 
L 427.394833 182.126836 
L 428.299997 179.394 
L 429.040586 177.8191 
L 429.657744 176.991054 
L 430.192613 176.626448 
L 430.686339 176.564984 
L 431.180065 176.741027 
L 431.756079 177.199915 
L 432.53804 178.145196 
L 433.745875 180.001044 
L 435.396255 182.922823 
L 436.655756 185.607665 
L 437.784963 188.547086 
L 439.043264 192.487751 
L 440.510279 197.874887 
L 442.826696 207.385561 
L 445.197911 216.859622 
L 445.439872 217.724849 
L 445.488264 217.653901 
L 446.794852 212.733998 
L 447.811088 209.701434 
L 448.682147 207.727972 
L 449.504813 206.381472 
L 450.32748 205.460283 
L 451.295323 204.740556 
L 452.880177 203.894868 
L 453.952888 203.524002 
L 454.668028 203.494029 
L 455.332087 203.690939 
L 455.981368 204.121561 
L 456.707288 204.884349 
L 457.529997 206.091798 
L 458.49789 207.929055 
L 459.696303 210.730374 
L 461.071794 214.467868 
L 461.163493 214.293912 
L 464.463478 204.339338 
L 465.463708 202.107882 
L 466.245611 200.8513 
L 466.904056 200.161926 
L 467.521348 199.823878 
L 468.097487 199.760328 
L 468.714779 199.926127 
L 469.45553 200.371925 
L 470.566656 201.344334 
L 472.212768 203.092621 
L 473.439358 204.691613 
L 474.525349 206.482772 
L 475.654779 208.792006 
L 477.055721 212.214407 
L 478.218682 215.19063 
L 478.267086 215.080983 
L 480.172464 211.029343 
L 481.24554 209.261327 
L 482.141193 208.197103 
L 482.950264 207.553636 
L 483.813273 207.142553 
L 484.99991 206.853449 
L 487.912564 206.45242 
L 488.883449 206.543667 
L 489.746458 206.847947 
L 490.609467 207.396563 
L 491.526413 208.250409 
L 492.605174 209.58325 
L 493.899687 211.568094 
L 495.625705 214.664588 
L 497.189908 217.635121 
L 497.243846 217.54691 
L 502.799465 208.614446 
L 503.77035 207.596888 
L 504.509875 207.113719 
L 505.12308 206.957784 
L 505.685185 207.036321 
L 506.24729 207.340602 
L 506.860495 207.930003 
L 507.627001 209.012629 
L 508.649009 210.91059 
L 512.123838 217.758806 
L 513.426631 219.759775 
L 513.584216 219.607065 
L 515.579465 217.302385 
L 517.57302 215.320765 
L 519.259874 213.935377 
L 520.640027 213.065976 
L 521.815713 212.572183 
L 522.867884 212.367116 
L 523.839134 212.406384 
L 524.756425 212.662481 
L 525.727675 213.174675 
L 526.765675 213.994563 
L 527.890301 215.179058 
L 529.219403 216.922792 
L 530.95746 219.612377 
L 531.110818 219.799802 
L 534.280216 213.759144 
L 536.209993 210.363491 
L 537.497091 208.52263 
L 538.520414 207.419707 
L 539.389516 206.782121 
L 540.156371 206.471011 
L 540.872101 206.404995 
L 541.57304 206.555428 
L 542.299552 206.9354 
L 543.122932 207.636725 
L 544.04318 208.743442 
L 545.10873 210.409968 
L 546.377706 212.837006 
L 548.166832 216.796262 
L 548.780338 218.211812 
L 548.831464 218.090024 
L 551.129424 212.892589 
L 552.392779 210.534602 
L 553.409922 209.053414 
L 554.281759 208.143986 
L 555.056725 207.64621 
L 555.73482 207.465046 
L 556.36448 207.515316 
L 557.033398 207.801576 
L 557.767833 208.386804 
L 558.547898 209.307424 
L 559.465622 210.754655 
L 560.566891 212.940773 
L 561.922955 216.16247 
L 562.705449 218.13081 
L 562.748921 218.007125 
L 564.7921 211.837281 
L 568.226379 201.40371 
L 569.356648 198.693069 
L 570.226085 197.14928 
L 570.881788 196.385543 
L 571.430028 196.046547 
L 571.934796 195.991723 
L 572.393676 196.159798 
L 572.944332 196.627981 
L 573.598245 197.523181 
L 574.470154 199.155561 
L 577.86091 205.940796 
L 579.798485 209.583629 
L 581.00947 212.378878 
L 582.300768 215.882091 
L 582.392549 215.594504 
L 584.274076 209.300785 
L 587.991239 196.763617 
L 589.551529 192.333713 
L 590.744692 189.566541 
L 591.708401 187.847278 
L 592.488546 186.86804 
L 593.131019 186.383922 
L 593.68171 186.227988 
L 594.18651 186.312784 
L 594.691309 186.628447 
L 595.242 187.245546 
L 595.884473 188.329309 
L 596.618727 190.029032 
L 597.582436 192.891625 
L 601.527781 205.438087 
L 604.434208 213.397574 
L 604.870172 214.743694 
L 604.918612 214.604832 
L 609.03605 202.704302 
L 609.859538 201.18802 
L 610.537704 200.375719 
L 611.070549 200.037103 
L 611.603394 199.962171 
L 612.143775 200.137265 
L 612.756552 200.598998 
L 613.574664 201.530431 
L 615.470823 204.167089 
L 617.804461 207.611874 
L 618.980246 209.779781 
L 620.1526 212.435598 
L 620.24949 212.165653 
L 621.877513 206.892717 
L 625.712434 194.193165 
L 626.799526 191.506236 
L 627.712683 189.809738 
L 628.505693 188.7605 
L 629.329601 188.035462 
L 630.238189 187.536927 
L 631.713236 187.019991 
L 633.017778 186.756116 
L 633.879047 186.803921 
L 634.613487 187.061346 
L 635.359426 187.563485 
L 636.13475 188.362886 
L 637.006989 189.600308 
L 637.976143 191.371169 
L 639.139128 193.98051 
L 640.592859 197.824047 
L 644.84325 209.477586 
L 645.767471 211.194004 
L 646.593834 212.280802 
L 646.767805 212.4153 
L 646.811298 212.366168 
L 647.637661 211.618934 
L 648.488067 211.159857 
L 649.559387 210.857473 
L 651.784435 210.515632 
L 652.938164 210.517718 
L 653.844666 210.73872 
L 654.709962 211.188882 
L 655.616464 211.931562 
L 655.943933 212.166223 
L 656.978411 211.100101 
L 658.174565 209.50737 
L 659.653459 207.123963 
L 663.872657 200.024013 
L 664.699098 199.188189 
L 665.351552 198.8196 
L 665.917011 198.739735 
L 666.482471 198.894721 
L 667.091427 199.319273 
L 667.787377 200.097807 
L 668.744309 201.539916 
L 671.876085 206.512935 
L 676.26927 212.625679 
L 676.356264 212.509582 
L 677.978943 210.145904 
L 680.136878 206.544236 
L 682.964398 201.878912 
L 684.176016 200.282386 
L 685.096846 199.400465 
L 685.823052 198.9909 
L 686.427084 198.89548 
L 686.978062 199.037566 
L 687.52904 199.423988 
L 687.62087 199.513527 
L 687.62087 199.513527 
" clip-path="url(#pb755cb374f)" style="fill: none; stroke: #ff7f0e; stroke-width: 1.5; stroke-linecap: square"/>
   </g>
   <g id="patch_3">
    <path d="M 45.875301 326.285074 
L 45.875301 7.2 
" style="fill: none; stroke: #000000; stroke-width: 0.8; stroke-linejoin: miter; stroke-linecap: square"/>
   </g>
   <g id="patch_4">
    <path d="M 718.180182 326.285074 
L 718.180182 7.2 
" style="fill: none; stroke: #000000; stroke-width: 0.8; stroke-linejoin: miter; stroke-linecap: square"/>
   </g>
   <g id="patch_5">
    <path d="M 45.875301 326.285074 
L 718.180182 326.285074 
" style="fill: none; stroke: #000000; stroke-width: 0.8; stroke-linejoin: miter; stroke-linecap: square"/>
   </g>
   <g id="patch_6">
    <path d="M 45.875301 7.2 
L 718.180182 7.2 
" style="fill: none; stroke: #000000; stroke-width: 0.8; stroke-linejoin: miter; stroke-linecap: square"/>
   </g>
   <g id="legend_1">
    <g id="patch_7">
     <path d="M 624.052605 317.785074 
L 706.280182 317.785074 
Q 709.680182 317.785074 709.680182 314.385074 
L 709.680182 268.6965 
Q 709.680182 265.2965 706.280182 265.2965 
L 624.052605 265.2965 
Q 620.652605 265.2965 620.652605 268.6965 
L 620.652605 314.385074 
Q 620.652605 317.785074 624.052605 317.785074 
z
" style="fill: #ffffff; opacity: 0.8; stroke: #cccccc; stroke-linejoin: miter"/>
    </g>
    <g id="line2d_31">
     <path d="M 627.452605 278.0465 
L 644.452605 278.0465 
L 661.452605 278.0465 
" style="fill: none; stroke: #1f77b4; stroke-width: 1.5; stroke-linecap: square"/>
    </g>
    <g id="text_17">
     <!-- $Re_h$ -->
     <g transform="translate(675.052605 283.9965)scale(0.17 -0.17)">
      <defs>
       <path id="CMMI12-68" d="M 1798 4257 
C 1805 4283 1818 4321 1818 4352 
C 1818 4416 1754 4416 1741 4416 
C 1734 4416 1421 4388 1389 4380 
C 1280 4373 1184 4358 1069 4358 
C 909 4345 864 4339 864 4224 
C 864 4160 915 4160 1005 4160 
C 1318 4160 1325 4103 1325 4040 
C 1325 4002 1312 3951 1306 3932 
L 378 248 
C 352 152 352 140 352 101 
C 352 -38 461 -64 525 -64 
C 634 -64 717 19 749 89 
L 1037 1245 
C 1069 1386 1107 1520 1139 1660 
C 1210 1929 1210 1935 1331 2120 
C 1453 2305 1741 2689 2234 2689 
C 2490 2689 2579 2497 2579 2242 
C 2579 1884 2330 1188 2189 805 
C 2131 651 2099 568 2099 453 
C 2099 166 2298 -64 2605 -64 
C 3200 -64 3424 875 3424 913 
C 3424 945 3398 971 3360 971 
C 3302 971 3296 952 3264 843 
C 3117 332 2880 64 2624 64 
C 2560 64 2458 64 2458 269 
C 2458 436 2534 640 2560 710 
C 2675 1018 2963 1773 2963 2145 
C 2963 2528 2739 2816 2253 2816 
C 1888 2816 1568 2644 1306 2312 
L 1798 4257 
z
" transform="scale(0.015625)"/>
      </defs>
      <use xlink:href="#CMMI12-52" transform="scale(0.996264)"/>
      <use xlink:href="#CMMI12-65" transform="translate(75.070962 0)scale(0.996264)"/>
      <use xlink:href="#CMMI12-68" transform="translate(120.282963 -14.943915)scale(0.697382)"/>
     </g>
    </g>
    <g id="line2d_32">
     <path d="M 627.452605 301.740787 
L 644.452605 301.740787 
L 661.452605 301.740787 
" style="fill: none; stroke: #ff7f0e; stroke-width: 1.5; stroke-linecap: square"/>
    </g>
    <g id="text_18">
     <!-- $Re_{\omega}$ -->
     <g transform="translate(675.052605 307.690787)scale(0.17 -0.17)">
      <defs>
       <path id="CMMI12-21" d="M 3802 2395 
C 3802 2580 3750 2816 3526 2816 
C 3398 2816 3251 2657 3251 2529 
C 3251 2472 3277 2434 3328 2376 
C 3424 2268 3546 2096 3546 1797 
C 3546 1567 3405 1204 3302 1007 
C 3123 656 2829 357 2496 357 
C 2093 357 1939 615 1869 975 
C 1939 1143 2086 1560 2086 1728 
C 2086 1798 2061 1856 1978 1856 
C 1933 1856 1882 1831 1850 1779 
C 1760 1638 1677 1129 1683 994 
C 1562 756 1216 357 806 357 
C 378 357 262 733 262 1096 
C 262 1758 678 2338 794 2497 
C 858 2593 902 2657 902 2669 
C 902 2714 877 2784 819 2784 
C 717 2784 685 2701 634 2625 
C 307 2121 77 1414 77 803 
C 77 408 224 -64 704 -64 
C 1235 -64 1568 391 1702 634 
C 1754 275 1946 -64 2413 -64 
C 2899 -64 3206 363 3437 879 
C 3603 1249 3802 2045 3802 2395 
z
" transform="scale(0.015625)"/>
      </defs>
      <use xlink:href="#CMMI12-52" transform="scale(0.996264)"/>
      <use xlink:href="#CMMI12-65" transform="translate(75.070962 0)scale(0.996264)"/>
      <use xlink:href="#CMMI12-21" transform="translate(120.282963 -14.943915)scale(0.697382)"/>
     </g>
    </g>
   </g>
  </g>
 </g>
 <defs>
  <clipPath id="pb755cb374f">
   <rect x="45.875301" y="7.2" width="672.304882" height="319.085074"/>
  </clipPath>
 </defs>
</svg>
