<?xml version="1.0" encoding="utf-8" standalone="no"?>
<!DOCTYPE svg PUBLIC "-//W3C//DTD SVG 1.1//EN"
  "http://www.w3.org/Graphics/SVG/1.1/DTD/svg11.dtd">
<svg xmlns:xlink="http://www.w3.org/1999/xlink" width="725.380182pt" height="373.266031pt" viewBox="0 0 725.380182 373.266031" xmlns="http://www.w3.org/2000/svg" version="1.1">
 <metadata>
  <rdf:RDF xmlns:dc="http://purl.org/dc/elements/1.1/" xmlns:cc="http://creativecommons.org/ns#" xmlns:rdf="http://www.w3.org/1999/02/22-rdf-syntax-ns#">
   <cc:Work>
    <dc:type rdf:resource="http://purl.org/dc/dcmitype/StillImage"/>
    <dc:date>2022-05-03T22:29:54.236151</dc:date>
    <dc:format>image/svg+xml</dc:format>
    <dc:creator>
     <cc:Agent>
      <dc:title>Matplotlib v3.5.1, https://matplotlib.org/</dc:title>
     </cc:Agent>
    </dc:creator>
   </cc:Work>
  </rdf:RDF>
 </metadata>
 <defs>
  <style type="text/css">*{stroke-linejoin: round; stroke-linecap: butt}</style>
 </defs>
 <g id="figure_1">
  <g id="patch_1">
   <path d="M 0 373.266031 
L 725.380182 373.266031 
L 725.380182 -0 
L 0 -0 
z
" style="fill: #ffffff"/>
  </g>
  <g id="axes_1">
   <g id="patch_2">
    <path d="M 45.875301 326.285074 
L 718.180182 326.285074 
L 718.180182 7.2 
L 45.875301 7.2 
z
" style="fill: #ffffff"/>
   </g>
   <g id="matplotlib.axis_1">
    <g id="xtick_1">
     <g id="line2d_1">
      <path d="M 75.209799 326.285074 
L 75.209799 7.2 
" clip-path="url(#pf43ca25a93)" style="fill: none; stroke-dasharray: 0.8,1.32; stroke-dashoffset: 0; stroke: #b0b0b0; stroke-width: 0.8"/>
     </g>
     <g id="line2d_2">
      <defs>
       <path id="maa97e95a98" d="M 0 0 
L 0 3.5 
" style="stroke: #000000; stroke-width: 0.8"/>
      </defs>
      <g>
       <use xlink:href="#maa97e95a98" x="75.209799" y="326.285074" style="stroke: #000000; stroke-width: 0.8"/>
      </g>
     </g>
     <g id="text_1">
      <!-- $\mathdefault{0}$ -->
      <g transform="translate(72.719131 340.203572)scale(0.1 -0.1)">
       <defs>
        <path id="CMR17-30" d="M 2688 2025 
C 2688 2416 2682 3080 2413 3591 
C 2176 4039 1798 4198 1466 4198 
C 1158 4198 768 4058 525 3597 
C 269 3118 243 2524 243 2025 
C 243 1661 250 1106 448 619 
C 723 -39 1216 -128 1466 -128 
C 1760 -128 2208 -7 2470 600 
C 2662 1042 2688 1559 2688 2025 
z
M 1466 -26 
C 1056 -26 813 325 723 812 
C 653 1188 653 1738 653 2096 
C 653 2588 653 2997 736 3387 
C 858 3929 1216 4096 1466 4096 
C 1728 4096 2067 3923 2189 3400 
C 2272 3036 2278 2607 2278 2096 
C 2278 1680 2278 1169 2202 792 
C 2067 95 1690 -26 1466 -26 
z
" transform="scale(0.015625)"/>
       </defs>
       <use xlink:href="#CMR17-30" transform="scale(0.996264)"/>
      </g>
     </g>
    </g>
    <g id="xtick_2">
     <g id="line2d_3">
      <path d="M 197.691308 326.285074 
L 197.691308 7.2 
" clip-path="url(#pf43ca25a93)" style="fill: none; stroke-dasharray: 0.8,1.32; stroke-dashoffset: 0; stroke: #b0b0b0; stroke-width: 0.8"/>
     </g>
     <g id="line2d_4">
      <g>
       <use xlink:href="#maa97e95a98" x="197.691308" y="326.285074" style="stroke: #000000; stroke-width: 0.8"/>
      </g>
     </g>
     <g id="text_2">
      <!-- $\mathdefault{10}$ -->
      <g transform="translate(192.709972 340.203572)scale(0.1 -0.1)">
       <defs>
        <path id="CMR17-31" d="M 1702 4058 
C 1702 4192 1696 4192 1606 4192 
C 1357 3916 979 3827 621 3827 
C 602 3827 570 3827 563 3808 
C 557 3795 557 3782 557 3648 
C 755 3648 1088 3686 1344 3839 
L 1344 461 
C 1344 236 1331 160 781 160 
L 589 160 
L 589 0 
C 896 0 1216 0 1523 0 
C 1830 0 2150 0 2458 0 
L 2458 160 
L 2266 160 
C 1715 160 1702 230 1702 458 
L 1702 4058 
z
" transform="scale(0.015625)"/>
       </defs>
       <use xlink:href="#CMR17-31" transform="scale(0.996264)"/>
       <use xlink:href="#CMR17-30" transform="translate(45.690477 0)scale(0.996264)"/>
      </g>
     </g>
    </g>
    <g id="xtick_3">
     <g id="line2d_5">
      <path d="M 320.172816 326.285074 
L 320.172816 7.2 
" clip-path="url(#pf43ca25a93)" style="fill: none; stroke-dasharray: 0.8,1.32; stroke-dashoffset: 0; stroke: #b0b0b0; stroke-width: 0.8"/>
     </g>
     <g id="line2d_6">
      <g>
       <use xlink:href="#maa97e95a98" x="320.172816" y="326.285074" style="stroke: #000000; stroke-width: 0.8"/>
      </g>
     </g>
     <g id="text_3">
      <!-- $\mathdefault{20}$ -->
      <g transform="translate(315.191481 340.203572)scale(0.1 -0.1)">
       <defs>
        <path id="CMR17-32" d="M 2669 989 
L 2554 989 
C 2490 536 2438 459 2413 420 
C 2381 369 1920 369 1830 369 
L 602 369 
C 832 619 1280 1072 1824 1597 
C 2214 1967 2669 2402 2669 3035 
C 2669 3790 2067 4224 1395 4224 
C 691 4224 262 3604 262 3030 
C 262 2780 448 2748 525 2748 
C 589 2748 781 2787 781 3010 
C 781 3207 614 3264 525 3264 
C 486 3264 448 3258 422 3245 
C 544 3790 915 4058 1306 4058 
C 1862 4058 2227 3617 2227 3035 
C 2227 2479 1901 2000 1536 1584 
L 262 146 
L 262 0 
L 2515 0 
L 2669 989 
z
" transform="scale(0.015625)"/>
       </defs>
       <use xlink:href="#CMR17-32" transform="scale(0.996264)"/>
       <use xlink:href="#CMR17-30" transform="translate(45.690477 0)scale(0.996264)"/>
      </g>
     </g>
    </g>
    <g id="xtick_4">
     <g id="line2d_7">
      <path d="M 442.654325 326.285074 
L 442.654325 7.2 
" clip-path="url(#pf43ca25a93)" style="fill: none; stroke-dasharray: 0.8,1.32; stroke-dashoffset: 0; stroke: #b0b0b0; stroke-width: 0.8"/>
     </g>
     <g id="line2d_8">
      <g>
       <use xlink:href="#maa97e95a98" x="442.654325" y="326.285074" style="stroke: #000000; stroke-width: 0.8"/>
      </g>
     </g>
     <g id="text_4">
      <!-- $\mathdefault{30}$ -->
      <g transform="translate(437.67299 340.203572)scale(0.1 -0.1)">
       <defs>
        <path id="CMR17-33" d="M 1414 2157 
C 1984 2157 2234 1662 2234 1090 
C 2234 320 1824 25 1453 25 
C 1114 25 563 194 390 693 
C 422 680 454 680 486 680 
C 640 680 755 782 755 948 
C 755 1133 614 1216 486 1216 
C 378 1216 211 1165 211 926 
C 211 335 787 -128 1466 -128 
C 2176 -128 2720 430 2720 1085 
C 2720 1707 2208 2157 1600 2227 
C 2086 2328 2554 2756 2554 3329 
C 2554 3820 2048 4179 1472 4179 
C 890 4179 378 3829 378 3329 
C 378 3110 544 3072 627 3072 
C 762 3072 877 3155 877 3321 
C 877 3486 762 3569 627 3569 
C 602 3569 570 3569 544 3557 
C 730 3959 1235 4032 1459 4032 
C 1683 4032 2106 3925 2106 3320 
C 2106 3143 2080 2828 1862 2550 
C 1670 2304 1453 2304 1242 2284 
C 1210 2284 1062 2269 1037 2269 
C 992 2263 966 2257 966 2208 
C 966 2163 973 2157 1101 2157 
L 1414 2157 
z
" transform="scale(0.015625)"/>
       </defs>
       <use xlink:href="#CMR17-33" transform="scale(0.996264)"/>
       <use xlink:href="#CMR17-30" transform="translate(45.690477 0)scale(0.996264)"/>
      </g>
     </g>
    </g>
    <g id="xtick_5">
     <g id="line2d_9">
      <path d="M 565.135834 326.285074 
L 565.135834 7.2 
" clip-path="url(#pf43ca25a93)" style="fill: none; stroke-dasharray: 0.8,1.32; stroke-dashoffset: 0; stroke: #b0b0b0; stroke-width: 0.8"/>
     </g>
     <g id="line2d_10">
      <g>
       <use xlink:href="#maa97e95a98" x="565.135834" y="326.285074" style="stroke: #000000; stroke-width: 0.8"/>
      </g>
     </g>
     <g id="text_5">
      <!-- $\mathdefault{40}$ -->
      <g transform="translate(560.154499 340.203572)scale(0.1 -0.1)">
       <defs>
        <path id="CMR17-34" d="M 2150 4122 
C 2150 4256 2144 4256 2029 4256 
L 128 1254 
L 128 1088 
L 1779 1088 
L 1779 457 
C 1779 224 1766 160 1318 160 
L 1197 160 
L 1197 0 
C 1402 0 1747 0 1965 0 
C 2182 0 2528 0 2733 0 
L 2733 160 
L 2611 160 
C 2163 160 2150 224 2150 457 
L 2150 1088 
L 2803 1088 
L 2803 1254 
L 2150 1254 
L 2150 4122 
z
M 1798 3703 
L 1798 1254 
L 256 1254 
L 1798 3703 
z
" transform="scale(0.015625)"/>
       </defs>
       <use xlink:href="#CMR17-34" transform="scale(0.996264)"/>
       <use xlink:href="#CMR17-30" transform="translate(45.690477 0)scale(0.996264)"/>
      </g>
     </g>
    </g>
    <g id="xtick_6">
     <g id="line2d_11">
      <path d="M 687.617343 326.285074 
L 687.617343 7.2 
" clip-path="url(#pf43ca25a93)" style="fill: none; stroke-dasharray: 0.8,1.32; stroke-dashoffset: 0; stroke: #b0b0b0; stroke-width: 0.8"/>
     </g>
     <g id="line2d_12">
      <g>
       <use xlink:href="#maa97e95a98" x="687.617343" y="326.285074" style="stroke: #000000; stroke-width: 0.8"/>
      </g>
     </g>
     <g id="text_6">
      <!-- $\mathdefault{50}$ -->
      <g transform="translate(682.636008 340.203572)scale(0.1 -0.1)">
       <defs>
        <path id="CMR17-35" d="M 730 3692 
C 794 3666 1056 3584 1325 3584 
C 1920 3584 2246 3911 2432 4100 
C 2432 4157 2432 4192 2394 4192 
C 2387 4192 2374 4192 2323 4163 
C 2099 4058 1837 3973 1517 3973 
C 1325 3973 1037 3999 723 4139 
C 653 4171 640 4171 634 4171 
C 602 4171 595 4164 595 4037 
L 595 2203 
C 595 2089 595 2057 659 2057 
C 691 2057 704 2070 736 2114 
C 941 2401 1222 2522 1542 2522 
C 1766 2522 2246 2382 2246 1289 
C 2246 1085 2246 715 2054 421 
C 1894 159 1645 25 1370 25 
C 947 25 518 320 403 814 
C 429 807 480 795 506 795 
C 589 795 749 840 749 1038 
C 749 1210 627 1280 506 1280 
C 358 1280 262 1190 262 1011 
C 262 454 704 -128 1382 -128 
C 2042 -128 2669 440 2669 1264 
C 2669 2030 2170 2624 1549 2624 
C 1222 2624 947 2503 730 2274 
L 730 3692 
z
" transform="scale(0.015625)"/>
       </defs>
       <use xlink:href="#CMR17-35" transform="scale(0.996264)"/>
       <use xlink:href="#CMR17-30" transform="translate(45.690477 0)scale(0.996264)"/>
      </g>
     </g>
    </g>
    <g id="text_7">
     <!-- $t U_{\infty} / H_{box}$ -->
     <g transform="translate(341.630715 361.084711)scale(0.2 -0.2)">
      <defs>
       <path id="CMMI12-74" d="M 1286 2566 
L 1875 2566 
C 1997 2566 2061 2566 2061 2681 
C 2061 2752 2022 2752 1894 2752 
L 1331 2752 
L 1568 3692 
C 1594 3781 1594 3794 1594 3840 
C 1594 3943 1510 4000 1427 4000 
C 1376 4000 1229 3981 1178 3775 
L 928 2752 
L 326 2752 
C 198 2752 141 2752 141 2630 
C 141 2566 186 2566 307 2566 
L 877 2566 
L 454 881 
C 403 658 384 594 384 511 
C 384 211 595 -64 954 -64 
C 1600 -64 1946 868 1946 912 
C 1946 951 1920 970 1882 970 
C 1869 970 1843 970 1830 944 
C 1824 938 1818 931 1773 829 
C 1638 511 1344 64 973 64 
C 781 64 768 224 768 364 
C 768 370 768 492 787 568 
L 1286 2566 
z
" transform="scale(0.015625)"/>
       <path id="CMMI12-55" d="M 3238 1474 
C 3014 581 2272 57 1670 57 
C 1210 57 896 363 896 891 
C 896 916 896 1107 966 1387 
L 1594 3887 
C 1651 4103 1664 4167 2118 4167 
C 2234 4167 2298 4167 2298 4282 
C 2298 4352 2240 4352 2202 4352 
C 2086 4352 1952 4352 1830 4352 
L 1075 4352 
C 954 4352 819 4352 698 4352 
C 653 4352 576 4352 576 4231 
C 576 4167 621 4167 742 4167 
C 1126 4167 1126 4116 1126 4046 
C 1126 4008 1082 3824 1050 3715 
L 493 1488 
C 474 1418 435 1246 435 1075 
C 435 374 941 -128 1638 -128 
C 2285 -128 3002 384 3328 1197 
C 3373 1305 3430 1530 3469 1702 
C 3533 1933 3667 2496 3712 2662 
L 3955 3623 
C 4038 3956 4090 4167 4653 4167 
C 4704 4173 4730 4224 4730 4282 
C 4730 4352 4672 4352 4646 4352 
C 4557 4352 4442 4352 4352 4352 
L 4051 4352 
C 3654 4352 3450 4352 3443 4352 
C 3405 4352 3328 4352 3328 4231 
C 3328 4167 3379 4167 3424 4167 
C 3808 4167 3834 4020 3834 3905 
C 3834 3848 3834 3828 3808 3739 
L 3238 1474 
z
" transform="scale(0.015625)"/>
       <path id="CMSY10-31" d="M 3251 1730 
C 2906 2166 2829 2262 2630 2422 
C 2272 2710 1914 2825 1587 2825 
C 838 2825 352 2122 352 1374 
C 352 639 826 -70 1562 -70 
C 2298 -70 2829 511 3142 1022 
C 3488 588 3565 492 3763 332 
C 4122 45 4480 -70 4806 -70 
C 5555 -70 6042 633 6042 1380 
C 6042 2115 5568 2825 4832 2825 
C 4096 2825 3565 2242 3251 1730 
z
M 3418 1514 
C 3680 1975 4154 2620 4877 2620 
C 5555 2620 5901 1955 5901 1380 
C 5901 753 5472 236 4909 236 
C 4538 236 4250 505 4115 638 
C 3955 811 3808 1009 3418 1514 
z
M 2976 1240 
C 2714 780 2240 134 1517 134 
C 838 134 493 799 493 1374 
C 493 2000 922 2518 1485 2518 
C 1856 2518 2144 2249 2278 2115 
C 2438 1943 2586 1744 2976 1240 
z
" transform="scale(0.015625)"/>
       <path id="CMMI12-3d" d="M 2746 4562 
C 2746 4569 2784 4666 2784 4678 
C 2784 4755 2720 4800 2669 4800 
C 2637 4800 2579 4800 2528 4659 
L 384 -1363 
C 384 -1370 346 -1465 346 -1478 
C 346 -1555 410 -1600 461 -1600 
C 499 -1600 557 -1593 602 -1459 
L 2746 4562 
z
" transform="scale(0.015625)"/>
       <path id="CMMI12-48" d="M 4787 3887 
C 4845 4103 4858 4167 5312 4167 
C 5427 4167 5491 4167 5491 4282 
C 5491 4352 5434 4352 5395 4352 
C 5280 4352 5146 4352 5024 4352 
L 4269 4352 
C 4147 4352 4013 4352 3891 4352 
C 3846 4352 3770 4352 3770 4231 
C 3770 4167 3814 4167 3936 4167 
C 4320 4167 4320 4116 4320 4046 
C 4320 4034 4320 3995 4294 3900 
L 3904 2361 
L 1971 2361 
L 2355 3887 
C 2413 4103 2426 4167 2880 4167 
C 2995 4167 3059 4167 3059 4282 
C 3059 4352 3002 4352 2963 4352 
C 2848 4352 2714 4352 2592 4352 
L 1837 4352 
C 1715 4352 1581 4352 1459 4352 
C 1414 4352 1338 4352 1338 4231 
C 1338 4167 1382 4167 1504 4167 
C 1888 4167 1888 4116 1888 4046 
C 1888 4034 1888 3995 1862 3899 
L 998 472 
C 941 249 928 185 486 185 
C 339 185 294 185 294 64 
C 294 0 365 0 384 0 
C 499 0 634 0 755 0 
L 1510 0 
C 1632 0 1766 0 1888 0 
C 1939 0 2010 0 2010 121 
C 2010 185 1952 185 1856 185 
C 1466 185 1466 236 1466 300 
C 1466 307 1466 351 1478 402 
L 1920 2176 
L 3859 2176 
C 3750 1753 3424 416 3411 376 
C 3341 185 3238 185 2861 185 
C 2784 185 2726 185 2726 64 
C 2726 0 2797 0 2816 0 
C 2931 0 3066 0 3187 0 
L 3942 0 
C 4064 0 4198 0 4320 0 
C 4371 0 4442 0 4442 121 
C 4442 185 4384 185 4288 185 
C 3898 185 3898 236 3898 300 
C 3898 307 3898 351 3910 402 
L 4787 3887 
z
" transform="scale(0.015625)"/>
       <path id="CMMI12-62" d="M 1478 4257 
C 1485 4283 1498 4321 1498 4352 
C 1498 4416 1434 4416 1421 4416 
C 1414 4416 1184 4393 1069 4377 
C 960 4377 864 4358 749 4358 
C 595 4345 550 4339 550 4224 
C 550 4160 614 4160 678 4160 
C 1005 4160 1005 4103 1005 4040 
C 1005 3996 954 3811 928 3696 
L 774 3085 
C 710 2831 346 1387 320 1272 
C 288 1114 288 1005 288 922 
C 288 274 653 -64 1069 -64 
C 1811 -64 2579 888 2579 1814 
C 2579 2401 2246 2816 1766 2816 
C 1434 2816 1133 2542 1011 2414 
L 1478 4257 
z
M 1075 64 
C 870 64 646 217 646 715 
C 646 926 666 1047 781 1494 
C 800 1577 902 1986 928 2069 
C 941 2120 1318 2689 1754 2689 
C 2035 2689 2163 2408 2163 2076 
C 2163 1769 1984 1047 1824 715 
C 1664 370 1370 64 1075 64 
z
" transform="scale(0.015625)"/>
       <path id="CMMI12-6f" d="M 2918 1756 
C 2918 2363 2522 2816 1939 2816 
C 1094 2816 262 1897 262 996 
C 262 390 659 -64 1242 -64 
C 2093 -64 2918 856 2918 1756 
z
M 1248 64 
C 928 64 691 319 691 766 
C 691 1060 845 1712 1024 2031 
C 1312 2523 1670 2689 1933 2689 
C 2246 2689 2490 2433 2490 1986 
C 2490 1731 2355 1047 2112 658 
C 1850 230 1498 64 1248 64 
z
" transform="scale(0.015625)"/>
       <path id="CMMI12-78" d="M 3034 2606 
C 2829 2567 2752 2414 2752 2293 
C 2752 2139 2874 2088 2963 2088 
C 3155 2088 3290 2254 3290 2427 
C 3290 2695 2982 2816 2714 2816 
C 2323 2816 2106 2433 2048 2312 
C 1901 2816 1504 2816 1389 2816 
C 736 2816 390 1980 390 1839 
C 390 1814 416 1782 461 1782 
C 512 1782 525 1820 538 1846 
C 755 2555 1184 2689 1370 2689 
C 1658 2689 1715 2420 1715 2267 
C 1715 2127 1677 1980 1600 1673 
L 1382 798 
C 1286 415 1101 64 762 64 
C 730 64 570 64 435 147 
C 666 192 717 383 717 460 
C 717 588 621 664 499 664 
C 346 664 179 530 179 326 
C 179 57 480 -64 755 -64 
C 1062 -64 1280 179 1414 441 
C 1517 64 1837 -64 2074 -64 
C 2726 -64 3072 773 3072 913 
C 3072 945 3046 971 3008 971 
C 2950 971 2944 939 2925 888 
C 2752 326 2381 64 2093 64 
C 1869 64 1747 230 1747 492 
C 1747 632 1773 734 1875 1156 
L 2099 2024 
C 2195 2408 2413 2689 2707 2689 
C 2720 2689 2899 2689 3034 2606 
z
" transform="scale(0.015625)"/>
      </defs>
      <use xlink:href="#CMMI12-74" transform="scale(0.996264)"/>
      <use xlink:href="#CMMI12-55" transform="translate(35.22633 0)scale(0.996264)"/>
      <use xlink:href="#CMSY10-31" transform="translate(101.478449 -14.943915)scale(0.697382)"/>
      <use xlink:href="#CMMI12-3d" transform="translate(171.714956 0)scale(0.996264)"/>
      <use xlink:href="#CMMI12-48" transform="translate(220.489874 0)scale(0.996264)"/>
      <use xlink:href="#CMMI12-62" transform="translate(301.314711 -14.943915)scale(0.697382)"/>
      <use xlink:href="#CMMI12-6f" transform="translate(330.347698 -14.943915)scale(0.697382)"/>
      <use xlink:href="#CMMI12-78" transform="translate(363.17426 -14.943915)scale(0.697382)"/>
     </g>
    </g>
   </g>
   <g id="matplotlib.axis_2">
    <g id="ytick_1">
     <g id="line2d_13">
      <path d="M 45.875301 294.924614 
L 718.180182 294.924614 
" clip-path="url(#pf43ca25a93)" style="fill: none; stroke-dasharray: 0.8,1.32; stroke-dashoffset: 0; stroke: #b0b0b0; stroke-width: 0.8"/>
     </g>
     <g id="line2d_14">
      <defs>
       <path id="m9485b2289d" d="M 0 0 
L -3.5 0 
" style="stroke: #000000; stroke-width: 0.8"/>
      </defs>
      <g>
       <use xlink:href="#m9485b2289d" x="45.875301" y="294.924614" style="stroke: #000000; stroke-width: 0.8"/>
      </g>
     </g>
     <g id="text_8">
      <!-- $\mathdefault{30}$ -->
      <g transform="translate(28.91263 298.383863)scale(0.1 -0.1)">
       <use xlink:href="#CMR17-33" transform="scale(0.996264)"/>
       <use xlink:href="#CMR17-30" transform="translate(45.690477 0)scale(0.996264)"/>
      </g>
     </g>
    </g>
    <g id="ytick_2">
     <g id="line2d_15">
      <path d="M 45.875301 245.084003 
L 718.180182 245.084003 
" clip-path="url(#pf43ca25a93)" style="fill: none; stroke-dasharray: 0.8,1.32; stroke-dashoffset: 0; stroke: #b0b0b0; stroke-width: 0.8"/>
     </g>
     <g id="line2d_16">
      <g>
       <use xlink:href="#m9485b2289d" x="45.875301" y="245.084003" style="stroke: #000000; stroke-width: 0.8"/>
      </g>
     </g>
     <g id="text_9">
      <!-- $\mathdefault{32}$ -->
      <g transform="translate(28.91263 248.543252)scale(0.1 -0.1)">
       <use xlink:href="#CMR17-33" transform="scale(0.996264)"/>
       <use xlink:href="#CMR17-32" transform="translate(45.690477 0)scale(0.996264)"/>
      </g>
     </g>
    </g>
    <g id="ytick_3">
     <g id="line2d_17">
      <path d="M 45.875301 195.243392 
L 718.180182 195.243392 
" clip-path="url(#pf43ca25a93)" style="fill: none; stroke-dasharray: 0.8,1.32; stroke-dashoffset: 0; stroke: #b0b0b0; stroke-width: 0.8"/>
     </g>
     <g id="line2d_18">
      <g>
       <use xlink:href="#m9485b2289d" x="45.875301" y="195.243392" style="stroke: #000000; stroke-width: 0.8"/>
      </g>
     </g>
     <g id="text_10">
      <!-- $\mathdefault{34}$ -->
      <g transform="translate(28.91263 198.702641)scale(0.1 -0.1)">
       <use xlink:href="#CMR17-33" transform="scale(0.996264)"/>
       <use xlink:href="#CMR17-34" transform="translate(45.690477 0)scale(0.996264)"/>
      </g>
     </g>
    </g>
    <g id="ytick_4">
     <g id="line2d_19">
      <path d="M 45.875301 145.402781 
L 718.180182 145.402781 
" clip-path="url(#pf43ca25a93)" style="fill: none; stroke-dasharray: 0.8,1.32; stroke-dashoffset: 0; stroke: #b0b0b0; stroke-width: 0.8"/>
     </g>
     <g id="line2d_20">
      <g>
       <use xlink:href="#m9485b2289d" x="45.875301" y="145.402781" style="stroke: #000000; stroke-width: 0.8"/>
      </g>
     </g>
     <g id="text_11">
      <!-- $\mathdefault{36}$ -->
      <g transform="translate(28.91263 148.86203)scale(0.1 -0.1)">
       <defs>
        <path id="CMR17-36" d="M 678 2176 
C 678 3690 1395 4032 1811 4032 
C 1946 4032 2272 4009 2400 3776 
C 2298 3776 2106 3776 2106 3553 
C 2106 3381 2246 3323 2336 3323 
C 2394 3323 2566 3348 2566 3560 
C 2566 3954 2246 4179 1805 4179 
C 1043 4179 243 3390 243 1984 
C 243 253 966 -128 1478 -128 
C 2099 -128 2688 427 2688 1283 
C 2688 2081 2170 2662 1517 2662 
C 1126 2662 838 2407 678 1960 
L 678 2176 
z
M 1478 25 
C 691 25 691 1200 691 1436 
C 691 1896 909 2560 1504 2560 
C 1613 2560 1926 2560 2138 2120 
C 2253 1870 2253 1609 2253 1289 
C 2253 944 2253 690 2118 434 
C 1978 171 1773 25 1478 25 
z
" transform="scale(0.015625)"/>
       </defs>
       <use xlink:href="#CMR17-33" transform="scale(0.996264)"/>
       <use xlink:href="#CMR17-36" transform="translate(45.690477 0)scale(0.996264)"/>
      </g>
     </g>
    </g>
    <g id="ytick_5">
     <g id="line2d_21">
      <path d="M 45.875301 95.56217 
L 718.180182 95.56217 
" clip-path="url(#pf43ca25a93)" style="fill: none; stroke-dasharray: 0.8,1.32; stroke-dashoffset: 0; stroke: #b0b0b0; stroke-width: 0.8"/>
     </g>
     <g id="line2d_22">
      <g>
       <use xlink:href="#m9485b2289d" x="45.875301" y="95.56217" style="stroke: #000000; stroke-width: 0.8"/>
      </g>
     </g>
     <g id="text_12">
      <!-- $\mathdefault{38}$ -->
      <g transform="translate(28.91263 99.021419)scale(0.1 -0.1)">
       <defs>
        <path id="CMR17-38" d="M 1741 2264 
C 2144 2467 2554 2773 2554 3263 
C 2554 3841 1990 4179 1472 4179 
C 890 4179 378 3759 378 3180 
C 378 3021 416 2747 666 2505 
C 730 2442 998 2251 1171 2130 
C 883 1983 211 1634 211 934 
C 211 279 838 -128 1459 -128 
C 2144 -128 2720 362 2720 1010 
C 2720 1590 2330 1857 2074 2029 
L 1741 2264 
z
M 902 2822 
C 851 2854 595 3051 595 3351 
C 595 3739 998 4032 1459 4032 
C 1965 4032 2336 3676 2336 3262 
C 2336 2669 1670 2331 1638 2331 
C 1632 2331 1626 2331 1574 2370 
L 902 2822 
z
M 2080 1519 
C 2176 1449 2483 1240 2483 851 
C 2483 381 2010 25 1472 25 
C 890 25 448 438 448 940 
C 448 1443 838 1862 1280 2060 
L 2080 1519 
z
" transform="scale(0.015625)"/>
       </defs>
       <use xlink:href="#CMR17-33" transform="scale(0.996264)"/>
       <use xlink:href="#CMR17-38" transform="translate(45.690477 0)scale(0.996264)"/>
      </g>
     </g>
    </g>
    <g id="ytick_6">
     <g id="line2d_23">
      <path d="M 45.875301 45.721559 
L 718.180182 45.721559 
" clip-path="url(#pf43ca25a93)" style="fill: none; stroke-dasharray: 0.8,1.32; stroke-dashoffset: 0; stroke: #b0b0b0; stroke-width: 0.8"/>
     </g>
     <g id="line2d_24">
      <g>
       <use xlink:href="#m9485b2289d" x="45.875301" y="45.721559" style="stroke: #000000; stroke-width: 0.8"/>
      </g>
     </g>
     <g id="text_13">
      <!-- $\mathdefault{40}$ -->
      <g transform="translate(28.91263 49.180808)scale(0.1 -0.1)">
       <use xlink:href="#CMR17-34" transform="scale(0.996264)"/>
       <use xlink:href="#CMR17-30" transform="translate(45.690477 0)scale(0.996264)"/>
      </g>
     </g>
    </g>
    <g id="text_14">
     <!-- $Re$ -->
     <g transform="translate(21.036997 178.770833)rotate(-90)scale(0.2 -0.2)">
      <defs>
       <path id="CMMI12-52" d="M 2355 3924 
C 2413 4160 2438 4160 2688 4160 
L 3149 4160 
C 3699 4160 4109 3995 4109 3499 
C 4109 3175 3942 2240 2656 2240 
L 1933 2240 
L 2355 3924 
z
M 3245 2169 
C 4038 2341 4659 2851 4659 3398 
C 4659 3894 4154 4352 3264 4352 
L 1530 4352 
C 1402 4352 1344 4352 1344 4226 
C 1344 4160 1389 4160 1510 4160 
C 1894 4160 1894 4112 1894 4045 
C 1894 4033 1894 3994 1869 3899 
L 1005 479 
C 947 256 934 192 493 192 
C 346 192 301 192 301 71 
C 301 7 371 7 390 7 
C 506 7 640 7 762 7 
L 1517 7 
C 1632 7 1766 7 1882 7 
C 1933 7 2003 7 2003 128 
C 2003 192 1946 192 1850 192 
C 1459 192 1459 243 1459 306 
C 1459 313 1459 357 1472 407 
L 1901 2112 
L 2669 2112 
C 3277 2112 3392 1731 3392 1522 
C 3392 1427 3328 1179 3283 1014 
C 3213 723 3194 652 3194 532 
C 3194 82 3565 -128 3994 -128 
C 4512 -128 4736 501 4736 591 
C 4736 635 4704 654 4666 654 
C 4614 654 4602 616 4589 565 
C 4435 114 4173 0 4013 0 
C 3853 0 3750 70 3750 356 
C 3750 509 3827 1088 3834 1120 
C 3866 1355 3866 1380 3866 1432 
C 3866 1896 3488 2093 3245 2169 
z
" transform="scale(0.015625)"/>
       <path id="CMMI12-65" d="M 1146 1479 
C 1318 1479 1754 1479 2061 1595 
C 2547 1783 2592 2158 2592 2274 
C 2592 2558 2349 2816 1926 2816 
C 1254 2816 288 2210 288 1073 
C 288 402 672 -64 1254 -64 
C 2125 -64 2675 609 2675 692 
C 2675 730 2637 762 2611 762 
C 2592 762 2586 756 2528 699 
C 2118 159 1510 64 1267 64 
C 902 64 710 350 710 822 
C 710 911 710 1071 806 1479 
L 1146 1479 
z
M 838 1600 
C 1114 2592 1722 2689 1926 2689 
C 2208 2689 2400 2522 2400 2277 
C 2400 1600 1376 1600 1107 1600 
L 838 1600 
z
" transform="scale(0.015625)"/>
      </defs>
      <use xlink:href="#CMMI12-52" transform="scale(0.996264)"/>
      <use xlink:href="#CMMI12-65" transform="translate(75.070962 0)scale(0.996264)"/>
     </g>
    </g>
   </g>
   <g id="line2d_25">
    <path d="M 75.222047 124.224259 
L 75.226222 -1 
M 75.326443 -1 
L 75.356776 94.899041 
L 75.454762 61.06225 
L 75.577243 46.027082 
L 75.613988 47.109122 
L 75.724221 60.619914 
L 76.446862 169.292383 
L 76.740817 188.413484 
L 77.047021 189.353478 
L 77.25524 192.391761 
L 80.207044 247.599209 
L 81.738063 275.665454 
L 82.877141 292.564163 
L 83.832497 303.818422 
L 84.861341 306.905549 
L 85.779953 309.006829 
L 86.612827 310.396137 
L 87.347716 311.225733 
L 87.994541 311.648382 
L 88.575213 311.780709 
L 89.143784 311.682273 
L 89.733471 311.339868 
L 90.359126 310.705647 
L 91.052239 309.674694 
L 91.813598 308.139104 
L 92.694758 305.827746 
L 93.651151 302.660375 
L 94.713811 298.322996 
L 95.882736 292.548463 
L 97.157927 285.062652 
L 98.582453 275.318813 
L 100.495548 260.494471 
L 102.408363 246.037205 
L 103.314433 240.80718 
L 104.019155 237.919914 
L 104.623202 236.265953 
L 105.212677 235.255185 
L 105.784933 234.688498 
L 106.404876 234.374502 
L 107.167884 234.239683 
L 108.169331 234.300488 
L 109.170778 234.576356 
L 110.076849 235.048347 
L 111.030608 235.808665 
L 112.110211 236.975932 
L 113.620332 238.9875 
L 117.798332 244.735119 
L 120.063513 247.343278 
L 130.130984 258.195573 
L 132.647851 260.582938 
L 134.96337 262.47713 
L 136.876189 263.782705 
L 137.580912 263.980822 
L 138.285635 263.955652 
L 139.091033 263.698724 
L 140.09778 263.119327 
L 141.6079 261.958788 
L 143.621394 260.464816 
L 144.728816 259.929527 
L 145.634889 259.736644 
L 146.440286 259.786734 
L 147.245684 260.065094 
L 148.051082 260.582439 
L 148.906817 261.396337 
L 149.863226 262.617681 
L 150.970648 264.4097 
L 154.896962 271.669733 
L 155.551347 272.905281 
L 157.816528 269.718722 
L 159.074962 268.309977 
L 160.081709 267.493339 
L 160.937444 267.068697 
L 161.692504 266.927149 
L 162.447565 267.021348 
L 163.152288 267.327868 
L 163.957685 267.931687 
L 164.863758 268.905572 
L 166.021517 270.506453 
L 169.897493 276.252328 
L 170.602216 276.074397 
L 171.256602 276.132461 
L 173.068746 276.534425 
L 174.679542 274.288358 
L 177.095735 271.014329 
L 178.404506 269.600101 
L 179.46159 268.755054 
L 180.418 268.262628 
L 181.273735 268.061522 
L 182.12947 268.096161 
L 182.985205 268.36829 
L 183.84094 268.871681 
L 184.847687 269.741399 
L 186.005446 271.06691 
L 187.465229 273.115858 
L 189.680073 276.430259 
L 191.397416 278.958922 
L 192.78701 277.279792 
L 193.894436 276.263292 
L 194.850849 275.661218 
L 195.756925 275.342736 
L 196.663001 275.265733 
L 197.619415 275.420239 
L 198.777178 275.855845 
L 203.508908 277.938685 
L 205.019034 278.226265 
L 206.277473 278.270872 
L 206.831186 274.685588 
L 207.032536 273.446052 
L 207.535912 270.789298 
L 207.686924 270.092776 
L 208.089625 268.34661 
L 208.542663 267.070441 
L 208.593 267.100595 
L 208.844688 266.458897 
L 208.895026 266.526929 
L 208.945363 266.460392 
L 209.096376 266.119482 
L 209.247388 266.297413 
L 209.297726 266.150383 
L 209.398401 266.089578 
L 209.549414 266.434973 
L 209.650089 266.321835 
L 209.750764 266.54238 
L 209.851439 266.886778 
L 209.901777 266.847903 
L 210.002452 267.027578 
L 211.210553 272.851703 
L 211.613253 275.815724 
L 211.814603 277.351811 
L 211.965616 277.305709 
L 215.287894 276.171087 
L 219.163886 274.594878 
L 222.536501 273.040349 
L 224.600341 272.177359 
L 225.758105 271.924916 
L 226.66418 271.953575 
L 227.419244 272.19281 
L 228.123969 272.63988 
L 228.879033 273.39023 
L 229.734771 274.588648 
L 230.741522 276.41431 
L 231.295235 277.525506 
L 231.345573 277.428566 
L 233.409412 273.69376 
L 234.114138 272.391923 
L 234.164475 272.232682 
L 234.466501 269.403978 
L 234.718188 267.495831 
L 237.637766 240.937015 
L 237.990129 237.790577 
L 238.538281 233.494067 
L 238.634984 233.106557 
L 238.969074 230.645427 
L 239.064453 230.198357 
L 239.350589 228.460415 
L 239.445968 228.343539 
L 239.589036 227.711061 
L 239.636726 227.766883 
L 239.732104 227.216393 
L 239.779794 227.262745 
L 239.827483 227.262745 
L 240.161309 226.049375 
L 240.208998 226.142577 
L 240.256688 226.249236 
L 240.352066 225.84453 
L 240.399756 226.001279 
L 240.447445 226.212853 
L 240.495134 225.947451 
L 240.542824 225.925023 
L 240.638203 226.459314 
L 240.733581 226.294342 
L 240.876649 226.835611 
L 240.924339 226.577935 
L 240.972028 226.580178 
L 241.258165 227.756665 
L 241.305854 227.629821 
L 241.353543 227.772614 
L 241.687369 229.840501 
L 241.830437 230.586865 
L 242.068884 232.441184 
L 242.116573 232.425734 
L 242.211952 233.252839 
L 242.450399 235.624753 
L 242.641952 237.175046 
L 242.887023 239.932976 
L 242.986907 240.487951 
L 243.59098 247.661261 
L 243.893016 246.29812 
L 243.943355 246.194203 
L 244.195052 244.869688 
L 245.805912 238.770444 
L 246.258967 237.118477 
L 246.359645 236.99238 
L 246.611342 235.974385 
L 246.907816 235.071273 
L 246.956301 235.127095 
L 247.100166 234.444777 
L 247.147857 234.460477 
L 248.673948 228.413565 
L 248.721638 228.418798 
L 249.007781 227.316573 
L 250.152349 223.203975 
L 250.629253 221.977896 
L 250.724633 221.873729 
L 250.772324 222.0078 
L 250.867704 221.634494 
L 250.915395 221.663402 
L 250.963085 221.837594 
L 251.010775 221.779032 
L 251.058466 221.678354 
L 251.106156 221.726948 
L 251.201537 222.090785 
L 251.249227 222.013033 
L 251.392298 221.98587 
L 251.439989 222.206166 
L 251.487679 222.046177 
L 251.535369 221.977148 
L 251.58306 222.072344 
L 251.67844 222.37687 
L 251.726131 222.345221 
L 251.964582 223.238863 
L 252.298415 225.020167 
L 252.441486 225.495646 
L 253.01377 230.153251 
L 253.204532 231.84534 
L 253.442983 234.348585 
L 254.580944 250.402993 
L 255.487079 266.632342 
L 256.09117 276.230148 
L 262.306867 279.214853 
L 264.211992 278.420145 
L 265.823742 277.978059 
L 267.887722 277.690478 
L 269.196587 277.700945 
L 270.455112 277.936193 
L 271.713636 278.406688 
L 273.16933 278.973376 
L 275.178777 277.544445 
L 278.04822 275.51992 
L 279.40743 274.838599 
L 280.514934 274.523855 
L 281.471415 274.473267 
L 282.377555 274.646961 
L 283.233354 275.030734 
L 284.139493 275.686138 
L 285.095974 276.666005 
L 286.153138 278.091695 
L 286.813446 279.12215 
L 286.865745 279.025459 
L 288.401719 275.934095 
L 291.120162 270.395807 
L 291.321528 269.940762 
L 291.72426 267.900287 
L 291.824943 267.637378 
L 292.177334 265.723748 
L 292.278017 265.532609 
L 292.529725 264.133832 
L 292.831774 262.51775 
L 292.932457 262.380689 
L 293.083482 261.374407 
L 293.133823 261.415276 
L 293.435873 259.618522 
L 293.939288 257.325854 
L 293.989629 257.374449 
L 294.34202 255.546793 
L 294.442703 255.454837 
L 294.644069 254.502383 
L 295.298509 252.078634 
L 295.348851 252.168098 
L 295.499876 251.424227 
L 295.550217 251.637794 
L 295.701242 250.866511 
L 295.751583 251.082321 
L 295.902608 250.410469 
L 295.952949 250.628771 
L 296.103974 250.061336 
L 296.154316 250.286864 
L 296.204657 250.07878 
L 296.30534 249.823098 
L 296.355682 250.061336 
L 296.406023 249.926517 
L 296.456365 249.689026 
L 296.506706 249.699742 
L 296.557048 249.955674 
L 296.607389 249.881909 
L 296.657731 249.663358 
L 296.708072 249.695007 
L 296.808756 249.873437 
L 296.95978 249.774752 
L 297.110805 250.002524 
L 297.161146 249.849015 
L 297.211488 249.952185 
L 297.261829 250.298577 
L 297.312171 250.164007 
L 297.362512 250.038658 
L 297.412854 250.170736 
L 297.463196 250.55401 
L 297.513537 250.438131 
L 297.563879 250.345926 
L 298.721734 254.330433 
L 298.973442 255.717497 
L 299.023783 255.646475 
L 299.124466 256.263501 
L 299.376174 257.835474 
L 299.426515 257.887558 
L 300.181638 262.81505 
L 300.483688 265.280665 
L 300.685054 265.897193 
L 301.54086 266.244333 
L 302.447008 266.872574 
L 303.453838 267.857923 
L 304.662035 269.37532 
L 306.222623 271.728544 
L 308.487992 275.603403 
L 310.098921 278.371052 
L 311.810533 275.531383 
L 313.069072 273.848515 
L 314.126244 272.782424 
L 315.082733 272.131007 
L 315.938539 271.81751 
L 316.744004 271.760692 
L 317.549469 271.934386 
L 318.354933 272.113065 
L 319.210739 272.469425 
L 320.116887 273.104145 
L 320.569961 273.436582 
L 321.174059 270.269211 
L 321.476109 268.582356 
L 321.52645 268.501365 
L 321.828499 266.973252 
L 322.986355 262.225934 
L 323.087038 262.048003 
L 323.338745 261.290924 
L 324.194551 259.152014 
L 324.244893 259.14703 
L 324.345576 258.802382 
L 324.395918 258.831539 
L 325.201382 257.866126 
L 325.251724 257.932165 
L 325.402748 257.903008 
L 325.553773 257.780899 
L 325.604115 257.899021 
L 325.704798 257.695422 
L 325.805481 257.860145 
L 325.855822 257.754982 
L 326.610945 258.328647 
L 326.812311 258.697218 
L 326.862653 258.638656 
L 326.912994 258.711174 
L 327.064019 258.894089 
L 327.668118 260.33199 
L 327.718459 260.2976 
L 327.819142 260.543813 
L 328.07085 261.323819 
L 328.171533 261.518446 
L 328.372899 262.252598 
L 328.423241 262.240387 
L 328.674948 262.989741 
L 329.077681 264.550001 
L 329.228705 265.039436 
L 329.681779 266.867091 
L 329.782462 266.765666 
L 330.990659 264.989595 
L 331.99749 263.725638 
L 332.853296 262.985505 
L 333.558077 262.625655 
L 334.212517 262.531207 
L 334.816616 262.663534 
L 335.420714 263.019147 
L 336.075154 263.668321 
L 336.779936 264.688558 
L 337.5854 266.277726 
L 338.441206 268.4747 
L 339.397696 271.548869 
L 340.555551 276.083119 
L 340.656234 276.51424 
L 340.706576 276.475115 
L 344.633215 258.114831 
L 345.690388 254.570665 
L 346.596535 252.257562 
L 347.351658 250.881961 
L 347.955757 250.174225 
L 348.459172 249.871443 
L 349.868735 249.544987 
L 350.321809 249.760049 
L 350.825224 250.259701 
L 351.127274 250.685839 
L 351.630689 245.844072 
L 352.033421 241.633538 
L 352.385812 238.031806 
L 354.461814 218.218169 
L 354.604897 217.117938 
L 355.701865 208.652261 
L 356.131113 205.677026 
L 356.417278 203.960017 
L 356.512667 203.33651 
L 357.084998 200.291997 
L 357.705023 197.386289 
L 357.752717 197.447593 
L 357.943494 196.661357 
L 358.038883 196.031123 
L 358.086577 196.161705 
L 358.372743 195.181839 
L 358.420437 195.215481 
L 358.611214 194.548365 
L 358.658908 194.33405 
L 358.706602 194.429993 
L 358.754297 194.450428 
L 358.849685 194.029773 
L 358.897379 194.284957 
L 358.945074 194.042483 
L 358.992768 193.842123 
L 359.088156 193.881497 
L 359.278933 193.537348 
L 359.326628 193.632045 
L 359.374322 193.841874 
L 359.46971 193.435424 
L 359.517405 193.709298 
L 359.565099 193.627061 
L 359.612793 193.450625 
L 359.660487 193.591674 
L 359.708182 193.786551 
L 359.755876 193.677151 
L 359.80357 193.691355 
L 359.898959 193.662199 
L 359.994347 194.128707 
L 360.089736 193.816705 
L 360.185124 194.166835 
L 360.232818 194.055192 
L 360.47129 194.886782 
L 360.518984 194.769159 
L 360.805149 195.755006 
L 360.852844 195.763728 
L 361.091315 196.968625 
L 361.139009 196.99504 
L 361.520563 199.366955 
L 361.615952 199.80007 
L 361.854423 201.446056 
L 361.949811 202.253723 
L 362.808308 210.647879 
L 364.477607 235.980865 
L 364.817038 242.740248 
L 365.016836 246.234324 
L 365.772048 261.270987 
L 365.973438 261.104271 
L 367.710436 224.010396 
L 368.712105 212.567241 
L 369.570679 205.6536 
L 372.03973 177.810891 
L 373.53097 167.178393 
L 374.615509 163.347145 
L 374.660698 163.490686 
L 374.705887 163.381286 
L 374.796266 163.074766 
L 374.841455 163.221298 
L 374.931833 162.829551 
L 374.977022 162.930727 
L 375.022211 162.999258 
L 375.112589 162.687754 
L 375.157779 162.878893 
L 375.202968 162.820081 
L 375.248157 162.603025 
L 375.293346 162.676789 
L 375.338535 162.753544 
L 375.383724 162.668815 
L 375.428913 162.584086 
L 375.474102 162.789429 
L 375.519291 162.753544 
L 375.564481 162.637664 
L 375.60967 162.698719 
L 375.790426 162.948421 
L 375.835615 162.895589 
L 375.971183 163.045361 
L 376.423074 163.909098 
L 376.468263 163.868478 
L 376.739398 164.668918 
L 376.784587 164.657953 
L 377.010532 165.474592 
L 377.417234 166.769202 
L 377.64318 167.898839 
L 377.688369 167.903325 
L 378.049882 169.532614 
L 378.366206 171.149693 
L 378.863286 173.712996 
L 381.945188 194.46239 
L 382.326544 197.510891 
L 382.517347 198.85584 
L 382.851253 201.737873 
L 382.946655 202.286867 
L 383.18516 204.198255 
L 383.805271 209.219945 
L 384.139177 212.036438 
L 384.329981 213.370921 
L 384.711588 216.63249 
L 384.85469 217.744933 
L 385.188596 220.282069 
L 385.283998 220.923019 
L 385.761007 213.394595 
L 385.999511 210.030852 
L 386.428819 203.194216 
L 386.715024 199.031528 
L 387.474473 187.891653 
L 387.883701 182.639698 
L 388.200036 178.291354 
L 389.194234 166.305435 
L 389.239425 166.236904 
L 389.646142 161.836975 
L 389.781714 160.764654 
L 390.233622 157.075701 
L 390.278813 157.005177 
L 390.595149 154.951993 
L 390.911484 153.113373 
L 391.047057 152.613721 
L 391.22782 151.728801 
L 391.318202 151.743504 
L 391.408583 151.17856 
L 391.453774 151.420038 
L 391.724919 150.576236 
L 391.77011 150.848366 
L 391.8153 150.661215 
L 391.860491 150.365411 
L 391.905682 150.725509 
L 391.950873 150.445903 
L 391.996064 150.350957 
L 392.041254 150.4626 
L 392.176827 150.395813 
L 392.267208 150.339244 
L 392.35759 150.836155 
L 392.402781 150.467833 
L 392.447972 150.623585 
L 392.493162 150.898705 
L 392.538353 150.780832 
L 392.583544 150.695356 
L 392.673926 151.269021 
L 392.719116 150.951287 
L 392.94507 152.104848 
L 393.035452 151.874584 
L 393.080643 152.465943 
L 393.171024 152.409374 
L 393.396978 153.717192 
L 393.442169 153.575395 
L 394.662321 161.384173 
L 394.843084 163.160492 
L 394.978657 164.217362 
L 395.972854 173.688823 
L 396.018045 173.552758 
L 397.012243 160.969997 
L 397.554532 154.960466 
L 398.54873 148.097663 
L 398.593921 148.254162 
L 398.774684 147.301958 
L 398.819875 147.283766 
L 398.865066 147.518764 
L 398.955447 146.95706 
L 399.000638 147.034812 
L 399.09102 147.037055 
L 399.13621 147.268066 
L 399.181401 147.054748 
L 399.226592 146.874076 
L 399.271783 146.970019 
L 399.452546 147.569103 
L 399.497737 147.371984 
L 399.542928 147.468924 
L 399.723691 148.290546 
L 399.859263 148.89287 
L 400.040026 150.029236 
L 400.085217 150.058891 
L 400.717888 155.419498 
L 400.943842 157.82032 
L 401.305369 162.071226 
L 401.621705 166.290483 
L 401.757277 167.905319 
L 403.211723 108.797593 
L 404.380111 70.691954 
L 405.069674 55.236879 
L 405.596987 48.431393 
L 405.637549 48.406224 
L 406.164862 45.646051 
L 406.245987 46.022596 
L 406.327112 45.43996 
L 406.367674 45.613903 
L 406.529924 46.291486 
L 406.692174 47.161454 
L 406.894987 48.378562 
L 406.976112 49.22984 
L 407.26005 52.266877 
L 407.787362 60.228416 
L 410.769836 123.106584 
L 412.054319 142.160899 
L 412.530294 147.523997 
L 412.980828 151.954579 
L 413.297201 154.801973 
L 413.794359 159.082284 
L 413.884752 159.543061 
L 414.155929 161.689447 
L 414.246321 162.093405 
L 414.517498 164.016505 
L 414.96946 166.637623 
L 415.240638 168.06132 
L 415.33103 168.484965 
L 415.557011 169.767364 
L 415.647403 169.878508 
L 415.963777 171.244639 
L 416.415738 173.136838 
L 416.460935 173.111669 
L 416.506131 173.112666 
L 416.777308 174.217632 
L 416.822504 174.18075 
L 416.8677 174.199938 
L 417.138878 175.017823 
L 417.184074 174.989912 
L 417.455251 175.892276 
L 417.545643 175.6974 
L 417.81682 176.401149 
L 417.907213 176.351558 
L 418.133194 176.855197 
L 418.223586 176.719631 
L 418.313978 177.109135 
L 418.359175 176.896814 
L 418.404371 176.874136 
L 418.494763 177.224018 
L 418.539959 177.034872 
L 418.585156 177.034374 
L 418.675548 177.32021 
L 418.720744 177.17642 
L 418.76594 177.191123 
L 418.811137 177.388242 
L 418.901529 177.29205 
L 418.946725 177.32943 
L 418.991921 177.537266 
L 419.037118 177.331424 
L 419.082314 177.301769 
L 419.172706 177.499885 
L 419.263098 177.305009 
L 419.353491 177.464 
L 419.398687 177.306753 
L 419.443883 177.324696 
L 419.489079 177.51409 
L 419.534276 177.443067 
L 419.579472 177.309743 
L 419.624668 177.345379 
L 419.669864 177.546735 
L 419.71506 177.369801 
L 419.760257 177.302267 
L 419.805453 177.356344 
L 419.850649 177.406933 
L 419.941041 177.216292 
L 419.986238 177.363571 
L 420.031434 177.238721 
L 420.121826 177.099665 
L 420.167022 177.272114 
L 420.212219 177.087205 
L 420.257415 176.968584 
L 420.302611 177.008457 
L 420.347807 177.200343 
L 420.393003 176.958367 
L 420.438199 176.864168 
L 420.483396 176.921983 
L 420.528592 176.978553 
L 420.754573 176.56986 
L 420.799769 176.573099 
L 420.844965 176.714646 
L 420.935358 176.33511 
L 420.980554 176.367008 
L 421.02575 176.444012 
L 421.116142 176.135997 
L 421.161339 176.193314 
L 421.206535 176.209512 
L 421.296927 175.954328 
L 421.342123 176.027344 
L 421.658497 175.481091 
L 421.703693 175.470874 
L 421.794085 175.173326 
L 421.839281 175.21569 
L 422.246047 174.518669 
L 422.652813 173.726453 
L 422.698009 173.765328 
L 423.014382 173.172973 
L 423.240363 172.703225 
L 423.466344 172.205816 
L 423.737521 171.831263 
L 423.963502 171.278282 
L 424.370268 170.619389 
L 424.415464 170.607427 
L 424.686641 170.047219 
L 425.003015 169.679395 
L 425.364584 169.204414 
L 425.680958 169.027978 
L 425.906939 168.858022 
L 425.997331 168.89914 
L 426.042527 168.865498 
L 426.313704 168.977639 
L 426.404097 168.948233 
L 426.630078 169.232823 
L 426.72047 169.269456 
L 426.810862 169.414492 
L 426.856059 169.370882 
L 427.036843 169.585944 
L 428.076356 172.297522 
L 428.528318 174.137139 
L 428.573514 174.103497 
L 429.387045 166.346304 
L 429.56783 165.06565 
L 429.929399 162.268844 
L 430.019792 161.757479 
L 430.562146 158.791464 
L 430.697735 157.980308 
L 431.149697 153.218536 
L 431.46607 150.64701 
L 431.827639 147.622931 
L 431.872836 147.564368 
L 432.324798 145.14361 
L 432.595737 144.112408 
L 432.68494 144.291335 
L 432.860493 143.85199 
L 432.946842 144.167731 
L 432.98966 143.894853 
L 433.032478 143.833799 
L 433.203987 144.537299 
L 433.247281 144.488953 
L 433.290812 144.329214 
L 433.334582 144.409208 
L 433.602193 145.578968 
L 434.370537 151.471125 
L 434.73211 155.96924 
L 434.822504 156.881821 
L 435.184077 162.560162 
L 435.54565 168.496179 
L 436.63037 189.998415 
L 437.136575 196.517318 
L 437.661111 201.632211 
L 437.708819 201.345627 
L 437.756527 201.506363 
L 437.947359 202.424178 
L 437.995067 202.12962 
L 438.042775 202.276151 
L 438.233607 203.059397 
L 438.281315 202.935792 
L 438.329023 203.065128 
L 438.519854 203.707574 
L 438.567562 203.670941 
L 438.806102 204.370952 
L 438.85381 204.313137 
L 439.044642 204.982746 
L 439.235474 205.377733 
L 439.283182 205.282039 
L 439.474014 205.898816 
L 439.664846 206.377037 
L 439.712554 206.236486 
L 439.951093 207.029451 
L 439.998801 206.855008 
L 440.046509 207.072313 
L 440.237341 207.545799 
L 440.285049 207.453843 
L 440.523589 207.978665 
L 440.571297 207.96471 
L 440.666713 208.187248 
L 440.714421 207.961968 
L 441.66858 191.18512 
L 442.131857 184.102022 
L 442.629038 177.39522 
L 443.939789 163.439849 
L 443.984987 163.284346 
L 444.210979 161.321872 
L 444.843755 157.70145 
L 444.888954 157.792659 
L 445.160144 156.486585 
L 445.205342 156.552126 
L 445.25054 156.611934 
L 445.340937 156.052972 
L 445.386135 156.285977 
L 445.612127 155.691877 
L 445.657325 155.56279 
L 445.702523 155.791807 
L 445.747722 155.626087 
L 445.79292 155.508214 
L 445.883316 155.554815 
L 445.973713 155.512451 
L 446.018911 155.686145 
L 446.06411 155.488776 
L 446.109308 155.659231 
L 446.154506 155.703839 
L 446.199705 155.632317 
L 446.244903 155.614375 
L 446.3353 155.963259 
L 446.380498 155.759909 
L 446.651688 156.589008 
L 446.696886 156.381422 
L 446.742084 156.548138 
L 446.787283 157.018135 
L 446.877679 156.83846 
L 447.103671 157.996756 
L 447.194067 157.86094 
L 447.465257 159.128138 
L 447.510456 159.068329 
L 447.781645 160.465112 
L 447.826844 160.394588 
L 448.278827 162.519791 
L 448.324025 162.530507 
L 448.595215 163.935015 
L 448.640413 163.879443 
L 448.911603 165.306629 
L 448.956801 165.176794 
L 449.408785 167.05753 
L 449.453983 166.969063 
L 449.725173 168.181186 
L 449.770371 168.005498 
L 449.815569 168.157512 
L 450.041561 169.041186 
L 450.086759 168.943748 
L 450.131958 169.004055 
L 450.312751 169.525886 
L 450.538742 170.265521 
L 450.583941 170.110766 
L 450.629139 170.204466 
L 450.85513 170.883046 
L 450.945527 170.818253 
L 451.035924 171.248627 
L 451.081122 171.074434 
L 451.352312 171.868145 
L 451.39751 171.646355 
L 451.442708 171.726349 
L 451.533105 172.008945 
L 451.578303 171.904778 
L 451.6687 172.384993 
L 451.713898 172.181643 
L 451.759097 172.211049 
L 451.849493 172.552208 
L 451.894692 172.403683 
L 452.165881 173.067809 
L 452.21108 172.885891 
L 452.256278 173.016473 
L 452.301476 173.41445 
L 452.346675 173.183439 
L 452.391873 173.144813 
L 452.48227 173.426911 
L 452.527468 173.35215 
L 452.889054 170.801307 
L 453.115046 169.574979 
L 453.476632 167.085939 
L 453.702624 165.810518 
L 454.019012 163.748861 
L 454.516194 160.559062 
L 454.787383 158.844046 
L 456.233729 150.277193 
L 457.75739 141.899983 
L 458.999164 135.492474 
L 459.213262 134.507374 
L 459.64146 132.391142 
L 459.855559 131.49127 
L 460.369397 129.087208 
L 461.482711 124.566664 
L 463.195502 119.731876 
L 463.281142 119.741595 
L 463.495241 119.206556 
L 463.53806 119.240946 
L 463.58088 119.167182 
L 463.66652 119.009187 
L 463.70934 119.137277 
L 463.752159 118.967819 
L 463.966258 118.7707 
L 464.009078 118.857173 
L 464.094718 118.60797 
L 464.137537 118.688214 
L 464.265997 118.610462 
L 464.308816 118.790387 
L 464.351636 118.668028 
L 464.694194 118.625664 
L 464.908293 119.050306 
L 464.993933 118.981276 
L 465.036753 119.14899 
L 465.122392 119.054044 
L 465.50777 119.954663 
L 465.55059 119.916037 
L 465.59341 120.022447 
L 465.807509 120.57817 
L 465.893148 120.816657 
L 466.107247 121.583455 
L 466.192887 121.879009 
L 466.878003 124.873184 
L 467.391841 128.019871 
L 467.60594 129.441824 
L 468.205417 134.213315 
L 468.462335 136.52243 
L 468.976173 141.336036 
L 469.988391 152.701191 
L 470.621181 160.567285 
L 471.977158 179.250786 
L 472.022357 179.231847 
L 472.519548 176.183096 
L 472.564748 176.214994 
L 472.609947 176.226209 
L 472.790744 175.267026 
L 472.835943 175.331071 
L 472.881142 175.499283 
L 472.971541 174.674421 
L 473.01674 174.751176 
L 473.061939 175.170834 
L 473.107138 174.718032 
L 473.152338 174.46833 
L 473.197537 174.564024 
L 473.287935 174.766377 
L 473.333135 174.664702 
L 473.378334 174.6966 
L 473.423533 174.4464 
L 473.468732 174.563277 
L 473.513932 175.052961 
L 473.559131 174.844876 
L 473.60433 174.623584 
L 473.649529 174.776594 
L 473.739928 175.40957 
L 473.785127 175.222668 
L 474.372717 178.079781 
L 474.643912 180.618163 
L 474.689112 180.492066 
L 474.824709 181.790414 
L 476.340149 202.719484 
L 476.72184 207.428674 
L 476.960397 208.953547 
L 477.819201 214.99398 
L 478.15318 217.335243 
L 478.439448 214.322876 
L 479.441387 202.42667 
L 480.628898 188.428685 
L 481.037211 184.256777 
L 482.709639 170.410308 
L 482.80004 170.271751 
L 483.026044 169.029972 
L 483.794457 166.654568 
L 483.884858 166.768454 
L 483.930059 166.613201 
L 483.97526 166.629399 
L 484.02046 166.814557 
L 484.065661 166.573079 
L 484.156063 166.34456 
L 484.382066 166.881592 
L 484.472468 166.596255 
L 484.517668 166.676 
L 484.743672 167.376011 
L 484.879274 167.627208 
L 485.060077 168.198132 
L 485.286081 169.663695 
L 485.331282 169.548813 
L 485.376483 169.611113 
L 485.82849 172.715436 
L 486.4161 177.441073 
L 486.822906 181.674036 
L 487.274914 187.399477 
L 487.455717 189.586483 
L 487.728428 193.357673 
L 488.152563 199.703628 
L 488.438836 204.292703 
L 488.677396 206.92628 
L 488.77282 207.407741 
L 489.67935 212.637765 
L 489.774775 212.938304 
L 490.061047 214.352282 
L 490.776729 217.496976 
L 491.015289 218.488804 
L 491.25385 219.462689 
L 491.49241 220.506601 
L 491.540123 220.496882 
L 491.969532 222.505209 
L 492.017244 222.411758 
L 492.064956 222.530379 
L 492.303516 223.826235 
L 492.351228 223.696649 
L 492.39894 223.799321 
L 492.637501 225.035866 
L 492.685213 224.970824 
L 492.732925 225.050071 
L 492.971486 226.213351 
L 493.06691 226.280636 
L 493.353183 227.411519 
L 493.448607 227.725017 
L 493.782592 228.86213 
L 493.878016 228.636601 
L 493.925728 228.740021 
L 494.259713 227.175275 
L 494.307425 227.381116 
L 494.450561 226.498938 
L 494.498273 226.594632 
L 494.593697 225.818364 
L 494.641409 225.857987 
L 494.689122 225.806652 
L 494.87997 224.872638 
L 496.168197 218.245582 
L 496.45447 216.433875 
L 496.502182 216.297063 
L 496.740742 214.494079 
L 496.979303 212.965218 
L 497.265575 210.669809 
L 497.313287 210.617227 
L 497.551848 208.503985 
L 498.458378 200.929209 
L 498.792363 197.772055 
L 499.966339 185.546652 
L 500.23755 182.293306 
L 500.734771 175.984731 
L 502.36204 150.876526 
L 503.295826 136.176786 
L 504.66621 119.087686 
L 505.094454 115.830851 
L 505.180103 115.402222 
L 505.308577 114.646888 
L 505.351401 114.813604 
L 505.394226 114.552689 
L 505.693997 113.545909 
L 505.865295 113.390406 
L 505.908119 113.66104 
L 505.950944 113.462425 
L 505.993768 113.32038 
L 506.036593 113.425793 
L 506.207891 114.069484 
L 506.250715 113.829003 
L 506.293539 113.850185 
L 506.507662 114.987797 
L 506.550486 114.907056 
L 506.721784 116.201416 
L 507.321327 121.09402 
L 508.006518 129.16795 
L 508.520412 137.322123 
L 509.122334 147.513282 
L 509.751621 159.891197 
L 509.796825 159.989383 
L 510.113253 157.002685 
L 510.29407 156.201746 
L 510.339274 156.254577 
L 510.384478 156.150909 
L 510.474886 155.941827 
L 510.52009 155.988179 
L 510.791314 156.442227 
L 510.836518 156.530943 
L 510.881722 156.399115 
L 511.107742 156.088359 
L 511.469374 153.27062 
L 511.514578 153.18938 
L 511.87621 148.979592 
L 511.966619 147.93593 
L 512.590911 139.691296 
L 513.362 129.554464 
L 514.090026 121.347709 
L 514.175676 120.836593 
L 514.432627 118.540685 
L 514.475452 118.431534 
L 514.689577 116.623317 
L 514.860878 115.673106 
L 515.117828 114.072724 
L 515.160653 114.3147 
L 515.374778 113.102576 
L 515.417604 112.959035 
L 515.460429 113.215964 
L 515.503254 112.969502 
L 515.674554 112.537135 
L 515.760204 112.434712 
L 515.803029 112.209931 
L 515.845854 112.402066 
L 515.888679 112.550093 
L 515.974329 112.141649 
L 516.017155 112.581243 
L 516.05998 112.348737 
L 516.102805 112.159592 
L 516.14563 112.393843 
L 516.188455 112.677436 
L 516.23128 112.449664 
L 516.274105 112.489288 
L 516.445405 113.121765 
L 516.48823 113.044512 
L 516.531055 113.118774 
L 516.745181 114.45226 
L 516.788006 114.129044 
L 516.830831 114.218757 
L 517.044956 115.67809 
L 517.130607 115.991089 
L 517.344732 117.502755 
L 517.387557 117.571036 
L 517.772983 121.027483 
L 517.858633 121.486515 
L 518.115583 123.81756 
L 518.543834 128.35181 
L 518.629484 129.153994 
L 518.972085 133.019383 
L 519.057735 133.586818 
L 519.571636 138.929732 
L 519.957061 142.515265 
L 520.214012 144.714233 
L 520.47596 146.647052 
L 520.92658 149.871739 
L 520.971785 149.954724 
L 521.243014 151.830974 
L 521.288219 151.779389 
L 521.740267 154.210115 
L 521.785472 154.162767 
L 522.056701 155.616867 
L 522.101906 155.531888 
L 523.006003 158.991076 
L 523.051207 158.893638 
L 523.322436 160.03424 
L 523.367641 160.002093 
L 523.774485 161.529209 
L 523.81969 161.387163 
L 523.864894 161.58528 
L 523.910099 162.129539 
L 524.000509 161.924694 
L 524.226533 163.099687 
L 524.271738 162.954152 
L 524.316943 163.008478 
L 524.542967 163.979374 
L 524.588172 163.826612 
L 524.633377 164.000805 
L 524.678581 164.50594 
L 524.768991 164.328009 
L 524.995015 165.53141 
L 525.04022 165.352732 
L 525.085425 165.413537 
L 525.221039 165.861604 
L 525.673088 157.484394 
L 526.079931 150.516926 
L 527.439654 132.966303 
L 527.568133 131.693623 
L 527.953568 128.77371 
L 527.996394 128.717141 
L 528.253351 127.230147 
L 528.296177 127.491062 
L 528.339003 127.296684 
L 528.424655 126.505464 
L 528.467482 126.820955 
L 528.767265 125.944259 
L 528.810091 126.086554 
L 528.852917 125.744398 
L 528.895743 125.894667 
L 528.981395 126.097768 
L 529.024221 125.729695 
L 529.067048 125.858782 
L 529.109874 126.43494 
L 529.1527 126.365661 
L 529.195526 125.985128 
L 529.238352 126.093532 
L 529.281178 126.566021 
L 529.366831 126.490512 
L 529.409657 126.57873 
L 529.623787 127.597223 
L 529.666614 127.457171 
L 529.966397 129.492661 
L 530.009223 129.305011 
L 532.375368 147.177605 
L 532.420574 147.080416 
L 532.510985 147.409364 
L 532.556191 147.962346 
L 532.646602 147.953624 
L 532.917836 149.234029 
L 532.963042 149.217083 
L 533.008247 149.240259 
L 533.234275 150.225608 
L 533.324687 150.308842 
L 533.369892 150.42198 
L 533.415098 150.899204 
L 533.505509 150.836155 
L 533.776743 151.752724 
L 533.821949 151.676219 
L 534.093182 153.031385 
L 534.138388 152.799128 
L 534.183594 152.994254 
L 534.228799 153.612028 
L 534.319211 153.49889 
L 534.590444 154.980402 
L 534.680856 155.404296 
L 534.861678 156.663519 
L 534.906884 156.609941 
L 534.952089 156.718095 
L 535.178117 158.648671 
L 535.223323 158.626492 
L 535.268529 158.752589 
L 535.539763 160.977474 
L 535.765791 162.862445 
L 535.991819 164.437409 
L 536.037024 164.437658 
L 536.669903 166.833247 
L 536.941137 167.987556 
L 537.031548 168.41768 
L 537.257576 169.703568 
L 538.071278 150.853101 
L 538.874276 139.143299 
L 538.917104 139.256686 
L 539.174067 136.996913 
L 539.216894 137.057718 
L 539.431031 135.773575 
L 539.473858 136.0629 
L 539.516685 135.855314 
L 539.559513 135.37809 
L 539.60234 135.422199 
L 539.645167 136.024522 
L 539.687994 135.400518 
L 539.730822 135.17798 
L 539.773649 135.489733 
L 539.816476 135.827154 
L 539.859303 135.344447 
L 539.902131 135.372358 
L 539.944958 135.942036 
L 540.030612 135.656948 
L 540.416058 137.526968 
L 540.458885 137.500303 
L 540.715849 139.569436 
L 540.758676 139.41169 
L 541.444626 145.1623 
L 541.488167 144.617293 
L 541.934532 139.856269 
L 542.241031 137.287234 
L 542.669409 134.029403 
L 542.712247 134.147276 
L 542.969273 132.619661 
L 543.012111 132.845439 
L 543.054949 132.781892 
L 543.2263 132.009612 
L 543.269138 131.916659 
L 543.354813 132.201498 
L 543.440489 131.579986 
L 543.483327 131.81324 
L 543.526164 131.972481 
L 543.569002 131.901956 
L 543.61184 131.748946 
L 543.654678 131.906691 
L 543.697515 131.911426 
L 543.740353 131.766639 
L 543.826029 132.490076 
L 543.868866 132.355007 
L 543.911704 132.12898 
L 543.954542 132.31663 
L 544.125893 133.072712 
L 544.340082 134.257174 
L 544.425758 134.3429 
L 544.682784 136.2974 
L 544.725622 136.277962 
L 547.285212 159.308561 
L 547.556525 161.038778 
L 547.782618 162.297751 
L 548.189587 164.065349 
L 548.370462 164.630541 
L 549.500929 156.511506 
L 549.727023 152.012643 
L 551.596478 115.12461 
L 551.639317 115.159249 
L 551.939192 112.305376 
L 552.196228 110.718451 
L 552.239068 111.109201 
L 552.281907 110.671102 
L 552.324746 110.188645 
L 552.367586 110.214064 
L 552.410425 110.76879 
L 552.453264 110.304524 
L 552.496104 109.979813 
L 552.538943 110.18067 
L 552.7103 110.558711 
L 552.75314 110.170453 
L 552.795979 110.313994 
L 552.838818 110.863238 
L 552.881658 110.758822 
L 552.924497 110.532794 
L 552.967336 110.850777 
L 553.010176 111.630285 
L 553.095855 111.294857 
L 553.310051 113.062455 
L 553.352891 112.915425 
L 553.995481 118.669773 
L 555.066464 131.775361 
L 555.109304 132.117268 
L 555.152143 131.86632 
L 555.709054 122.14142 
L 556.951395 104.270322 
L 556.994235 104.110582 
L 557.29411 100.367303 
L 557.379789 99.877121 
L 557.636825 96.778281 
L 557.936024 94.315158 
L 557.978187 94.471657 
L 558.185621 92.473049 
L 558.632281 88.803534 
L 558.672866 88.810761 
L 558.713451 89.034047 
L 558.835206 87.463569 
L 558.875791 87.539078 
L 558.916376 87.692338 
L 559.038131 86.323216 
L 559.078716 86.474233 
L 559.119301 86.528809 
L 559.241056 85.385714 
L 559.281641 85.618968 
L 559.52515 83.939838 
L 559.565735 83.780846 
L 559.60632 83.936848 
L 559.646905 83.972484 
L 559.76866 82.855805 
L 559.809245 83.105257 
L 559.84983 82.969441 
L 559.931 82.109192 
L 559.971585 82.140592 
L 560.01217 82.489476 
L 560.052755 82.160777 
L 560.133925 81.504377 
L 560.17451 81.640192 
L 560.215095 81.828839 
L 560.458605 80.637897 
L 560.49919 80.694467 
L 560.539775 80.942673 
L 560.58036 80.607744 
L 560.66153 80.024609 
L 560.702115 80.194814 
L 560.7427 80.604504 
L 560.783285 79.982244 
L 560.864455 79.635603 
L 560.945625 80.076692 
L 561.026795 79.374936 
L 561.06738 79.477857 
L 561.107965 79.889541 
L 561.14855 79.576542 
L 561.22972 79.326591 
L 561.270305 79.557851 
L 561.31089 79.332821 
L 561.351475 79.056206 
L 561.39206 79.079631 
L 561.432645 79.406336 
L 561.47323 79.360732 
L 561.5544 78.7766 
L 561.594985 78.931355 
L 561.63557 79.387397 
L 561.676155 79.056704 
L 561.757325 78.746197 
L 561.838495 79.450196 
L 561.879079 79.000633 
L 561.919664 78.839897 
L 561.960249 78.972972 
L 562.000834 79.4021 
L 562.041419 79.122245 
L 562.082004 79.034027 
L 562.122589 79.186788 
L 562.163174 79.46465 
L 562.203759 79.208967 
L 562.244344 78.97671 
L 562.284929 79.031784 
L 562.366099 79.554113 
L 562.406684 79.187287 
L 562.447269 79.103554 
L 562.528439 79.795342 
L 562.609609 79.442221 
L 562.650194 79.51125 
L 562.731364 80.202291 
L 562.812534 79.981995 
L 562.893704 80.519028 
L 562.934289 80.236431 
L 562.974874 80.229454 
L 563.056044 81.044597 
L 563.137214 80.567871 
L 563.380724 81.513348 
L 563.421309 82.094739 
L 563.502479 81.941479 
L 564.760613 88.54212 
L 565.044708 90.97185 
L 565.125878 91.5191 
L 565.328803 93.259534 
L 565.613574 95.306986 
L 566.24986 101.589395 
L 566.33554 102.218633 
L 566.763939 107.214157 
L 566.849619 107.799286 
L 567.363699 113.375204 
L 570.326322 148.585852 
L 570.371067 148.710204 
L 571.001537 142.890565 
L 571.390682 138.481914 
L 571.733416 134.974381 
L 573.232878 113.473141 
L 574.00403 103.28273 
L 575.561001 89.337576 
L 575.601589 89.298451 
L 575.926291 87.437901 
L 575.966879 87.496464 
L 576.210405 86.313995 
L 576.778634 84.394135 
L 576.819222 84.524219 
L 576.85981 84.348282 
L 576.940985 84.038772 
L 576.981573 84.127986 
L 577.022161 84.207482 
L 577.103336 83.822962 
L 577.143924 83.872055 
L 577.184512 84.082631 
L 577.2251 83.893985 
L 577.306275 83.754431 
L 577.346863 83.923141 
L 577.387451 83.694124 
L 577.428038 83.577497 
L 577.468626 83.618864 
L 577.509214 83.817978 
L 577.549802 83.579989 
L 577.630977 83.421496 
L 577.712153 83.598928 
L 577.793328 83.359195 
L 577.833916 83.466851 
L 577.874504 83.724028 
L 577.915092 83.51395 
L 577.95568 83.429969 
L 577.996267 83.494263 
L 578.077443 83.755428 
L 578.118031 83.632321 
L 578.158618 83.654251 
L 578.402145 84.179073 
L 578.483321 83.996407 
L 578.523908 84.106555 
L 578.564496 84.347036 
L 578.645672 84.176581 
L 578.726847 84.427279 
L 578.929786 84.896528 
L 579.051549 84.981507 
L 579.295076 85.773723 
L 579.376252 85.663575 
L 580.431534 88.30139 
L 580.472121 88.261767 
L 580.553297 88.461129 
L 580.796824 89.353774 
L 580.918587 89.557124 
L 580.959175 89.781905 
L 581.04035 89.729573 
L 581.121526 89.981517 
L 581.162114 90.215768 
L 581.243289 90.140508 
L 582.582686 94.240895 
L 582.785625 95.120084 
L 582.826438 95.015917 
L 582.867477 95.041336 
L 584.532038 101.907378 
L 584.789095 103.09184 
L 584.831938 103.087355 
L 584.917624 103.459415 
L 585.174682 104.878875 
L 585.217525 104.891834 
L 585.43174 105.922787 
L 585.945855 108.150662 
L 586.031541 108.434006 
L 586.459971 110.622009 
L 586.631343 111.221093 
L 586.845557 112.13517 
L 586.931243 111.10646 
L 589.214336 67.655166 
L 589.37669 65.607464 
L 589.66081 61.532994 
L 589.863752 59.380877 
L 590.107283 56.748047 
L 590.716111 52.336405 
L 590.756699 52.419888 
L 590.797288 52.401696 
L 590.959642 51.587051 
L 591.00023 51.459459 
L 591.040819 51.61247 
L 591.081407 51.595275 
L 591.162584 50.957564 
L 591.203173 51.06846 
L 591.243761 51.443012 
L 591.28435 51.358781 
L 591.446704 51.067214 
L 592.09612 54.111727 
L 593.273186 68.723001 
L 595.508956 122.045228 
L 596.237312 140.292872 
L 596.537938 146.841181 
L 596.581496 145.0372 
L 598.123981 64.08284 
L 599.205311 30.894725 
L 599.436347 27.795386 
L 599.628877 25.174518 
L 599.859913 22.563867 
L 599.898419 22.864156 
L 599.936925 23.151238 
L 600.013937 21.975249 
L 600.052443 22.454217 
L 600.206467 21.740749 
L 600.244973 21.753209 
L 600.283479 22.285507 
L 600.321985 22.200279 
L 600.360491 21.703867 
L 600.398997 22.074183 
L 600.437503 23.213788 
L 600.514515 22.322389 
L 600.707045 24.258946 
L 600.745551 24.099954 
L 600.976588 27.312929 
L 601.015094 26.939374 
L 601.0536 27.425071 
L 601.24613 30.591196 
L 601.323142 31.699152 
L 601.669696 38.20086 
L 601.746708 39.519643 
L 602.213275 50.011091 
L 602.293497 51.51254 
L 602.618454 59.572016 
L 602.902978 65.7059 
L 603.268795 73.89521 
L 604.691415 95.510087 
L 605.62064 105.761553 
L 605.70645 106.288617 
L 606.006783 109.249399 
L 606.650355 115.610556 
L 607.165212 120.524342 
L 607.551355 124.344624 
L 607.59426 124.447047 
L 608.366546 131.762403 
L 608.881404 136.463369 
L 609.095928 138.894096 
L 609.138832 138.786689 
L 609.482071 133.866673 
L 609.954023 129.094933 
L 610.254357 126.856093 
L 610.340166 125.80022 
L 610.383071 125.89691 
L 610.425976 125.970924 
L 610.597595 124.750576 
L 610.6405 124.647905 
L 610.812119 123.863663 
L 610.855024 124.016424 
L 610.897928 123.975306 
L 610.983738 123.367001 
L 611.026643 123.760243 
L 611.069547 123.872883 
L 611.155357 123.241403 
L 611.198262 123.601252 
L 611.326976 123.474657 
L 611.5415 124.307244 
L 611.584405 123.966334 
L 611.62731 124.10215 
L 611.713119 124.995792 
L 611.756024 124.695752 
L 611.798929 124.7745 
L 612.013453 126.226606 
L 612.142167 126.973468 
L 613.343501 137.145687 
L 613.42931 137.864638 
L 613.729644 140.095504 
L 613.772549 140.204655 
L 614.072882 142.404121 
L 614.158692 142.372721 
L 614.459025 144.107174 
L 614.544835 143.870182 
L 614.845168 145.195943 
L 614.888073 145.058382 
L 614.930978 144.949231 
L 614.973883 145.115948 
L 615.059692 145.61261 
L 615.102597 145.451625 
L 615.145502 145.498475 
L 615.274216 146.012581 
L 615.317121 145.96274 
L 615.578125 146.899495 
L 615.62246 146.82598 
L 616.119203 148.763284 
L 616.164491 148.750824 
L 617.523144 157.652856 
L 617.794875 159.862041 
L 617.885452 160.586474 
L 617.93074 160.267743 
L 619.049849 138.106863 
L 619.307287 134.259916 
L 619.650538 130.566228 
L 619.693444 130.575947 
L 619.736351 130.380821 
L 619.907976 129.085962 
L 620.079601 128.20478 
L 620.379946 127.173079 
L 620.422852 127.771665 
L 620.465758 127.275751 
L 620.508665 126.986426 
L 620.551571 127.319611 
L 620.594477 127.770419 
L 620.637384 127.198249 
L 620.68029 127.230894 
L 620.723196 127.911219 
L 620.809009 127.533427 
L 621.023541 128.902548 
L 621.066447 128.682253 
L 621.109353 129.006715 
L 621.49551 131.592945 
L 621.538417 131.63506 
L 621.795855 134.405949 
L 621.838761 134.35536 
L 622.43945 140.851087 
L 622.99747 146.853143 
L 623.040854 146.124224 
L 623.967526 134.19911 
L 624.310905 130.461812 
L 625.298118 122.29468 
L 626.499943 116.355922 
L 626.542866 116.592665 
L 626.585788 116.308324 
L 626.671633 115.698275 
L 626.714555 115.792474 
L 626.757477 116.150579 
L 626.8004 115.591367 
L 626.886244 115.245473 
L 626.929167 115.479724 
L 626.972089 115.308522 
L 627.229623 114.61175 
L 627.272545 114.836531 
L 627.315467 114.779713 
L 627.401312 114.211281 
L 627.444234 114.333141 
L 627.487157 114.737348 
L 627.530079 114.301991 
L 627.615924 114.0331 
L 627.701768 114.442541 
L 627.787613 113.951113 
L 627.830535 114.108858 
L 627.873458 114.345352 
L 627.91638 114.08643 
L 628.002225 114.122315 
L 628.045147 114.371269 
L 628.088069 114.006934 
L 628.130992 113.906755 
L 628.173914 114.078954 
L 628.216836 114.528765 
L 628.259759 114.122066 
L 628.302681 113.919215 
L 628.345603 113.983509 
L 628.431448 114.42111 
L 628.47437 114.12406 
L 628.517292 114.088424 
L 628.603137 114.759527 
L 628.646059 114.509826 
L 628.688982 114.382732 
L 628.731904 114.51805 
L 628.774826 114.921011 
L 628.817749 114.648134 
L 628.860671 114.621967 
L 628.946516 115.211582 
L 628.989438 114.911292 
L 629.03236 114.796908 
L 629.075283 114.941944 
L 629.118205 115.350637 
L 629.20405 115.149779 
L 629.246972 115.209588 
L 629.332817 115.93751 
L 629.418661 115.65292 
L 629.676195 116.829159 
L 629.76204 116.55977 
L 630.062496 117.830457 
L 630.105418 117.693146 
L 630.148341 117.794073 
L 630.405875 119.171418 
L 630.448797 119.036849 
L 630.491719 119.133539 
L 630.749253 120.520604 
L 630.835098 120.519607 
L 632.294457 128.425823 
L 632.594913 130.582675 
L 633.024136 133.424089 
L 633.28167 135.435157 
L 633.496282 136.996913 
L 635.231061 151.21619 
L 636.726196 163.576911 
L 636.907424 160.88178 
L 638.291687 135.015998 
L 638.892621 122.301409 
L 639.751099 103.846427 
L 640.305723 91.384281 
L 640.592648 85.523773 
L 641.20265 72.656173 
L 643.068829 40.800048 
L 643.416857 36.490579 
L 643.493912 35.971988 
L 643.763602 33.087463 
L 644.572673 27.774204 
L 644.6112 27.830026 
L 644.649727 28.072251 
L 644.688254 27.827783 
L 644.842363 27.145714 
L 644.88089 27.180353 
L 644.919417 27.577583 
L 644.957944 27.552414 
L 645.034999 26.979496 
L 645.073526 27.308942 
L 645.15058 27.11581 
L 645.227634 27.578081 
L 645.266162 27.314674 
L 645.304689 27.171631 
L 645.343216 27.45348 
L 645.535852 28.266629 
L 645.574379 28.026896 
L 645.612906 28.221524 
L 645.767015 29.014239 
L 645.998178 30.810494 
L 646.036705 30.754424 
L 646.961357 41.401873 
L 648.689758 72.78526 
L 648.771095 73.368146 
L 649.299785 81.910328 
L 650.717565 116.366887 
L 650.975144 121.702075 
L 651.018074 122.579768 
L 652.112834 70.303945 
L 652.438238 59.33627 
L 653.007695 45.832704 
L 653.04837 45.961043 
L 653.250464 42.603032 
L 653.640317 39.490486 
L 653.678853 39.718756 
L 653.717389 40.416275 
L 653.755925 39.478026 
L 653.79446 39.249008 
L 653.871532 40.193986 
L 653.910068 39.531355 
L 653.948604 39.596896 
L 653.98714 40.447426 
L 654.064212 40.144395 
L 654.84264 48.358127 
L 655.167843 53.600612 
L 655.411906 58.417707 
L 655.615292 62.492925 
L 655.859355 67.833595 
L 656.225449 75.691715 
L 656.550867 82.603362 
L 657.07967 92.275182 
L 657.161024 93.279221 
L 657.570056 99.410613 
L 657.696156 100.621241 
L 657.953101 103.681206 
L 658.038976 104.484636 
L 658.253662 106.90988 
L 658.2966 106.934302 
L 658.683035 110.281847 
L 658.897722 112.468354 
L 658.940659 112.398827 
L 659.026534 113.091611 
L 659.24122 114.850985 
L 659.284158 114.820831 
L 659.455907 115.986354 
L 659.498844 115.876455 
L 659.88528 114.738594 
L 659.928217 114.944187 
L 659.971154 114.764511 
L 660.057029 114.437557 
L 660.099966 114.659597 
L 660.185841 114.006436 
L 660.228778 114.087925 
L 660.271716 114.098641 
L 660.35759 113.550643 
L 660.400527 113.677737 
L 660.443465 113.65481 
L 660.529339 113.219203 
L 660.572277 113.393895 
L 660.615214 113.331843 
L 660.701089 113.013611 
L 660.744026 113.236398 
L 660.786963 113.110551 
L 660.8299 112.903712 
L 660.872838 112.935361 
L 660.915775 113.07317 
L 661.00165 112.51994 
L 661.044587 112.605416 
L 661.087524 112.694631 
L 661.173399 112.256033 
L 661.216336 112.384871 
L 661.259273 112.441939 
L 661.345148 112.118224 
L 661.388085 112.288679 
L 661.431023 112.317088 
L 661.516897 112.106761 
L 661.559835 112.316341 
L 661.602772 112.087323 
L 661.645709 111.910389 
L 661.688646 111.932568 
L 661.731584 112.128691 
L 661.774521 111.822919 
L 661.817458 111.692087 
L 661.860396 111.747659 
L 661.903333 111.963469 
L 661.94627 111.686106 
L 661.989208 111.598885 
L 662.032145 111.684611 
L 662.075082 111.910389 
L 662.118019 111.677384 
L 662.160957 111.630534 
L 662.203894 111.742426 
L 662.246831 111.826906 
L 662.332706 111.527364 
L 662.375643 111.59116 
L 662.418581 111.602623 
L 662.504455 111.358902 
L 662.547392 111.429427 
L 662.59033 111.507178 
L 662.676204 111.311056 
L 662.719142 111.384321 
L 662.762079 111.540322 
L 662.805016 111.403261 
L 662.890891 111.455842 
L 662.933828 111.501197 
L 663.06264 111.200409 
L 663.105577 111.243272 
L 663.277327 111.044907 
L 663.320264 111.111195 
L 663.363201 111.014753 
L 663.449076 110.964663 
L 663.492013 111.005034 
L 663.53495 111.08777 
L 663.577888 110.946721 
L 664.007261 110.240479 
L 664.307822 110.095692 
L 664.522508 109.688245 
L 664.565445 109.682015 
L 664.608383 109.82431 
L 664.65132 109.67105 
L 664.737195 109.569375 
L 664.780132 109.745064 
L 664.823069 109.667561 
L 664.866007 109.56464 
L 664.908944 109.603516 
L 664.951881 109.815837 
L 664.994818 109.621459 
L 665.037756 109.544953 
L 665.080693 109.635663 
L 665.12363 109.641893 
L 665.209505 109.399917 
L 665.252442 109.532244 
L 665.29538 109.584078 
L 665.381254 109.395182 
L 665.467129 109.652609 
L 665.510066 109.500346 
L 665.553003 109.518787 
L 665.638878 109.805121 
L 665.681815 109.707434 
L 665.76769 109.937199 
L 665.810627 109.706686 
L 665.853564 109.649868 
L 665.939439 109.927979 
L 665.982376 109.722386 
L 666.025314 109.699459 
L 666.111188 110.02143 
L 666.154126 109.839013 
L 666.197063 109.847984 
L 666.282937 110.206588 
L 666.325875 110.045104 
L 666.368812 110.081986 
L 666.411749 110.34016 
L 666.497624 110.249949 
L 666.583499 110.548993 
L 666.626436 110.313994 
L 666.669373 110.276115 
L 666.755248 110.605312 
L 666.798185 110.387509 
L 666.841122 110.372557 
L 666.926997 110.732157 
L 666.969934 110.527561 
L 667.012872 110.530302 
L 667.098746 110.923296 
L 667.141683 110.727671 
L 667.184621 110.742125 
L 667.270495 110.991328 
L 667.313433 110.911583 
L 667.399307 111.24726 
L 667.442245 110.971143 
L 667.485182 110.901366 
L 667.571056 111.281151 
L 667.613994 111.007526 
L 667.656931 110.942235 
L 667.742806 111.376098 
L 667.785743 111.10023 
L 667.82868 111.033693 
L 667.914555 111.533594 
L 667.957492 111.250748 
L 668.000429 111.177483 
L 668.043367 111.321522 
L 668.086304 111.508424 
L 668.129241 111.347688 
L 668.215116 111.508424 
L 668.258053 111.443881 
L 668.300991 111.274672 
L 668.343928 111.316538 
L 668.386865 111.569977 
L 668.429802 111.445874 
L 668.47274 111.263458 
L 668.515677 111.289873 
L 668.601552 111.521134 
L 668.687426 111.327005 
L 668.773301 111.677135 
L 668.816238 111.455344 
L 668.859175 111.436654 
L 668.902113 111.618074 
L 668.987987 111.502942 
L 669.073862 111.776567 
L 669.116799 111.544808 
L 669.159737 111.41597 
L 669.202674 111.480763 
L 669.245611 111.731212 
L 669.288548 111.575958 
L 669.331486 111.417964 
L 669.374423 111.449612 
L 669.460298 111.708285 
L 669.546172 111.513159 
L 669.632047 111.832638 
L 669.674984 111.72548 
L 669.717921 111.681122 
L 669.760859 111.808216 
L 669.803796 111.756132 
L 669.846733 111.632029 
L 669.889671 111.679128 
L 669.932608 111.88497 
L 669.975545 111.793014 
L 670.06142 111.632527 
L 670.147294 111.95076 
L 670.190232 111.745167 
L 670.233169 111.702055 
L 670.276106 111.809462 
L 670.319044 112.052933 
L 670.361981 111.986396 
L 670.404918 111.894938 
L 670.447856 111.950261 
L 670.490793 112.137911 
L 670.53373 112.018294 
L 670.576667 111.999105 
L 670.662542 112.272481 
L 670.705479 112.057917 
L 670.748417 111.987143 
L 670.791354 112.0477 
L 670.877229 112.231612 
L 670.920166 112.108007 
L 670.963103 112.112991 
L 671.048978 112.456642 
L 671.134852 112.316341 
L 671.392476 112.772631 
L 671.435413 112.631084 
L 671.478351 112.571026 
L 671.521288 112.613889 
L 671.607163 112.843904 
L 671.6501 112.727276 
L 671.735974 112.792568 
L 671.821849 113.034045 
L 671.864786 112.963272 
L 672.12241 108.95509 
L 672.508846 102.617856 
L 672.59472 101.467784 
L 672.98093 96.585149 
L 673.023416 96.577922 
L 673.232454 94.219215 
L 673.314488 93.841921 
L 673.436522 92.491739 
L 673.4772 92.517906 
L 673.517878 92.490244 
L 673.68059 91.397489 
L 673.924658 90.453009 
L 673.965336 90.70271 
L 674.006014 90.796909 
L 674.08737 90.251653 
L 674.128048 90.366037 
L 674.250082 90.78744 
L 674.29076 90.759778 
L 674.372116 90.570633 
L 674.90093 93.433727 
L 675.185676 96.275389 
L 676.287376 113.033547 
L 676.888509 125.698046 
L 677.060261 129.356846 
L 677.103199 129.242711 
L 677.189075 129.460265 
L 677.53258 129.859987 
L 677.575518 129.816127 
L 677.618456 129.75582 
L 677.661394 129.841545 
L 677.704332 130.066327 
L 677.790209 129.935246 
L 678.047837 130.464553 
L 678.133713 130.3093 
L 678.391342 130.784779 
L 678.43428 130.675877 
L 678.477218 130.710517 
L 678.563094 130.95648 
L 678.606032 130.86876 
L 678.992475 131.372151 
L 679.035413 131.596184 
L 679.121289 131.499743 
L 679.378917 131.98519 
L 679.464793 131.968743 
L 679.679484 132.384663 
L 679.76536 132.383417 
L 680.022988 132.825752 
L 680.065926 132.758966 
L 680.108864 132.82625 
L 680.194741 133.025115 
L 680.237679 132.977268 
L 680.495307 133.53299 
L 680.538245 133.375494 
L 681.783449 108.246356 
L 682.341418 95.538496 
L 682.919057 85.547696 
L 683.488562 78.361926 
L 683.529241 78.747194 
L 683.691957 77.107438 
L 683.854672 75.920733 
L 684.139425 74.510244 
L 684.180104 75.208261 
L 684.220783 74.407572 
L 684.261462 74.109276 
L 684.302141 74.51747 
L 684.34282 74.590985 
L 684.383499 74.06118 
L 684.424178 74.196995 
L 684.464857 74.655031 
L 684.505536 74.352 
L 684.546215 74.23313 
L 684.586894 74.808789 
L 684.668252 74.610922 
L 684.70893 74.931397 
L 684.749609 74.647305 
L 684.790288 74.635593 
L 684.830967 75.350805 
L 684.912325 74.983979 
L 685.156399 76.688029 
L 685.197078 76.574143 
L 685.400473 78.48254 
L 685.441152 78.348718 
L 685.807262 82.493713 
L 685.847941 82.285379 
L 686.051336 84.736291 
L 687.62087 106.277652 
L 687.62087 106.277652 
" clip-path="url(#pf43ca25a93)" style="fill: none; stroke: #1f77b4; stroke-width: 1.5; stroke-linecap: square"/>
   </g>
   <g id="line2d_26">
    <path d="M 76.060794 -1 
L 76.226395 33.725173 
L 76.422366 49.831665 
L 76.606088 59.79904 
L 77.108262 85.680272 
L 77.647181 109.10212 
L 78.969981 155.652752 
L 80.145803 188.76187 
L 81.186896 212.356913 
L 82.166748 229.812591 
L 83.109856 242.826722 
L 84.040715 252.725815 
L 84.959327 260.234552 
L 85.86569 265.890714 
L 86.72306 269.917835 
L 87.523573 272.669286 
L 88.241789 274.382557 
L 88.832764 275.301867 
L 89.342967 275.750183 
L 89.807953 275.886248 
L 90.236448 275.78557 
L 90.697072 275.437683 
L 91.236239 274.716988 
L 91.863532 273.454026 
L 92.588492 271.423271 
L 93.385486 268.477441 
L 94.288747 264.235009 
L 95.298273 258.347088 
L 96.414066 250.435639 
L 97.689257 239.659351 
L 99.237116 224.485626 
L 102.056002 196.496136 
L 102.911735 190.377952 
L 103.616457 186.82631 
L 104.220504 184.814493 
L 104.773948 183.655699 
L 105.308053 182.988583 
L 105.927997 182.574656 
L 106.643316 182.369313 
L 107.549387 182.336667 
L 108.503146 182.519582 
L 109.36153 182.907342 
L 110.219913 183.540069 
L 111.173672 184.531897 
L 112.361898 186.124305 
L 114.22438 189.07462 
L 117.043272 193.488255 
L 119.157441 196.345617 
L 122.681055 200.6349 
L 130.433008 209.791866 
L 132.798863 212.187455 
L 135.064044 214.169118 
L 137.178213 215.736854 
L 139.443394 217.162545 
L 141.255539 217.965228 
L 143.621394 218.751215 
L 148.554455 220.328919 
L 150.869973 221.350652 
L 153.437178 222.743198 
L 159.930697 226.41371 
L 161.39048 226.899656 
L 162.699251 227.107741 
L 164.159035 227.098769 
L 167.279951 226.97666 
L 168.337035 227.204431 
L 169.343782 227.642032 
L 170.400867 228.353756 
L 171.508288 229.370504 
L 172.162674 229.983046 
L 173.521782 228.639343 
L 177.397759 224.536214 
L 178.605855 223.64008 
L 179.66294 223.128715 
L 180.619349 222.917142 
L 181.525422 222.951781 
L 182.431494 223.219176 
L 183.337566 223.713595 
L 184.394651 224.558643 
L 185.602747 225.830575 
L 187.112868 227.764391 
L 190.68682 232.725525 
L 190.737157 232.664969 
L 192.333972 230.921046 
L 193.542073 229.919748 
L 194.548824 229.355552 
L 195.4549 229.078438 
L 196.360976 229.01863 
L 197.367727 229.180362 
L 198.575828 229.610487 
L 202.602832 231.227815 
L 204.062621 231.464308 
L 205.623085 231.48873 
L 207.284224 231.287125 
L 209.197051 230.848777 
L 210.405152 230.537024 
L 212.871692 229.641887 
L 215.438907 228.481099 
L 218.408822 226.872493 
L 223.039877 224.311932 
L 224.348653 223.84966 
L 225.305067 223.739014 
L 226.06013 223.870842 
L 226.764856 224.234429 
L 227.419244 224.827284 
L 228.123969 225.776498 
L 228.92937 227.268227 
L 229.885784 229.545445 
L 230.640847 231.619064 
L 230.691184 231.590156 
L 233.45975 225.315223 
L 234.718188 223.137936 
L 236.12764 221.156024 
L 237.436416 219.679496 
L 238.391241 218.915439 
L 239.112142 218.598453 
L 239.732104 218.547367 
L 240.352066 218.72131 
L 241.019718 219.159409 
L 241.782748 219.942654 
L 242.936833 221.496435 
L 244.648107 223.770912 
L 245.654894 224.713398 
L 246.661417 225.346623 
L 248.197044 226.00726 
L 250.629253 227.09229 
L 252.727628 228.312887 
L 256.292533 230.698258 
L 260.420482 233.456438 
L 260.672187 233.305919 
L 262.997657 231.859794 
L 264.665899 231.086517 
L 266.075447 230.671095 
L 267.384312 230.521823 
L 268.542155 230.609791 
L 269.699997 230.928024 
L 270.857839 231.489478 
L 272.066023 232.327299 
L 272.850503 232.890747 
L 275.380142 230.562193 
L 277.293104 228.938636 
L 278.551631 228.151901 
L 279.558453 227.769873 
L 280.464593 227.661968 
L 281.270051 227.784576 
L 282.075508 228.136451 
L 282.880966 228.735037 
L 283.736765 229.654596 
L 284.693246 231.033935 
L 285.750409 232.981706 
L 286.002114 233.507524 
L 286.052455 233.469147 
L 287.288332 230.60082 
L 289.509233 224.692215 
L 291.019479 220.998029 
L 291.975968 219.19355 
L 292.781433 218.11176 
L 293.486214 217.505947 
L 294.190996 217.179989 
L 295.046802 217.040685 
L 297.261829 216.79821 
L 298.9231 216.530815 
L 299.728565 216.649685 
L 300.483688 216.997573 
L 301.289152 217.636779 
L 302.1953 218.672217 
L 303.252472 220.249673 
L 304.561352 222.637287 
L 306.373648 226.467787 
L 309.293457 232.972485 
L 309.343798 232.857104 
L 311.256777 228.75273 
L 312.565657 226.422183 
L 313.67317 224.878869 
L 314.579318 223.960804 
L 315.384783 223.428258 
L 316.139906 223.181796 
L 316.844687 223.175316 
L 317.549469 223.38365 
L 318.304592 223.840439 
L 319.160398 224.639384 
L 320.116887 225.865962 
L 321.174059 227.598172 
L 322.432598 230.114625 
L 323.338745 232.184007 
L 323.389087 232.130927 
L 325.251724 227.382362 
L 329.178364 217.209146 
L 330.386561 214.7844 
L 331.34305 213.343758 
L 332.098173 212.569234 
L 332.752613 212.189449 
L 333.30637 212.096496 
L 333.860127 212.225833 
L 334.413883 212.588423 
L 335.017982 213.261521 
L 335.672422 214.330851 
L 336.427545 216.019949 
L 337.283351 218.542881 
L 338.23984 222.140875 
L 339.297013 227.047683 
L 340.102477 231.371605 
L 340.152819 231.348678 
L 342.116139 219.350548 
L 343.878092 209.126993 
L 345.035948 203.630072 
L 346.042778 199.857636 
L 346.898585 197.46728 
L 347.603366 196.122331 
L 348.157123 195.498825 
L 348.610197 195.291488 
L 349.012929 195.345565 
L 349.415661 195.627912 
L 349.919077 196.301508 
L 350.523175 197.561728 
L 351.227957 199.586503 
L 352.234787 203.230848 
L 355.98803 217.490995 
L 359.422016 230.100919 
L 359.517405 229.783434 
L 361.806729 220.719171 
L 363.094473 216.489697 
L 364.096053 213.889761 
L 364.966489 212.208139 
L 365.721701 211.21033 
L 366.376218 210.702454 
L 366.930041 210.530006 
L 367.471943 210.585578 
L 368.044325 210.879139 
L 368.664406 211.460032 
L 369.379884 212.457342 
L 370.19076 213.994178 
L 371.090005 216.187414 
L 372.130108 219.351545 
L 373.214647 223.393369 
L 373.937672 226.530586 
L 373.982862 226.374087 
L 375.383724 218.946839 
L 377.507612 206.227017 
L 379.224799 196.537254 
L 380.399716 191.166181 
L 381.393876 187.616034 
L 382.231142 185.411086 
L 382.898954 184.232853 
L 383.423664 183.718 
L 383.852972 183.592402 
L 384.234579 183.720492 
L 384.616186 184.084328 
L 385.093195 184.881031 
L 385.665605 186.340613 
L 386.333417 188.712029 
L 387.192033 192.692799 
L 388.380799 199.432246 
L 391.137438 215.396692 
L 392.538353 221.933538 
L 393.442169 225.480943 
L 395.430565 217.535851 
L 397.735296 209.200009 
L 399.000638 205.333125 
L 399.859263 203.343987 
L 400.537125 202.294842 
L 401.079415 201.841541 
L 401.531323 201.740614 
L 401.983231 201.889388 
L 402.478903 202.324497 
L 403.083283 203.192969 
L 403.89201 204.790112 
L 407.138362 211.682072 
L 409.491664 215.765014 
L 410.29886 217.846857 
L 411.155181 220.696244 
L 411.668974 222.702329 
L 411.71179 222.645511 
L 413.297201 215.965374 
L 416.958093 200.373985 
L 418.359175 195.412352 
L 419.353491 192.628255 
L 420.07663 191.171913 
L 420.66418 190.449722 
L 421.116142 190.225439 
L 421.477712 190.274034 
L 421.884478 190.583295 
L 422.336439 191.248169 
L 422.878794 192.481973 
L 423.556737 194.630353 
L 424.505857 198.50222 
L 428.25714 214.736304 
L 430.110184 222.416992 
L 430.878519 226.061586 
L 430.923716 225.95418 
L 432.279601 219.105831 
L 435.636044 201.584862 
L 436.539977 198.297625 
L 437.279447 196.405177 
L 437.899651 195.371482 
L 438.472146 194.831459 
L 438.996934 194.63434 
L 439.56943 194.675957 
L 440.237341 194.963288 
L 441.286917 195.694948 
L 442.945426 197.131853 
L 443.984987 198.304104 
L 444.843755 199.62812 
L 445.657325 201.30401 
L 446.561291 203.712558 
L 447.600852 207.14832 
L 449.137595 213.105021 
L 452.301476 225.563429 
L 452.346675 225.663111 
L 452.391873 225.508355 
L 454.019012 220.349603 
L 455.284565 217.031963 
L 456.369324 214.784151 
L 457.27329 213.385873 
L 458.057128 212.561758 
L 458.699425 212.190446 
L 459.256082 212.118675 
L 459.76992 212.28614 
L 460.283757 212.704552 
L 460.840414 213.472097 
L 461.439891 214.694687 
L 462.125008 216.614298 
L 462.938583 219.58455 
L 464.051898 224.594279 
L 464.180357 225.217536 
L 464.223177 225.107139 
L 467.049282 212.029211 
L 468.547975 206.405197 
L 470.304786 200.682249 
L 471.705962 196.793684 
L 472.655146 194.767913 
L 473.333135 193.801752 
L 473.830326 193.429692 
L 474.237119 193.373372 
L 474.643912 193.561271 
L 475.095905 194.070144 
L 475.593096 194.997179 
L 476.197015 196.611268 
L 477.008108 199.509998 
L 478.200892 204.735536 
L 480.536237 215.013667 
L 482.16723 221.012234 
L 483.297248 225.004467 
L 483.342449 224.873884 
L 485.738088 215.659352 
L 487.961966 207.374846 
L 489.297654 203.204931 
L 490.34732 200.594031 
L 491.158426 199.095822 
L 491.826395 198.291395 
L 492.351228 197.990108 
L 492.780637 197.994594 
L 493.210046 198.249528 
L 493.639455 198.773852 
L 494.164288 199.796581 
L 494.784546 201.54499 
L 495.54794 204.43425 
L 496.597606 209.408841 
L 499.41262 223.26478 
L 500.147146 225.988819 
L 501.4128 222.331515 
L 505.736821 210.992527 
L 507.235678 207.612835 
L 508.263465 205.787423 
L 509.078558 204.748993 
L 509.751621 204.21221 
L 510.339274 203.999141 
L 510.881722 204.019825 
L 511.469374 204.278249 
L 512.102231 204.826994 
L 512.805274 205.761256 
L 513.576125 207.17673 
L 514.389802 209.14668 
L 515.246303 211.824865 
L 516.14563 215.412143 
L 517.130607 220.30998 
L 518.201233 226.605846 
L 518.286884 226.229798 
L 520.655351 211.584384 
L 521.695062 206.578393 
L 522.599159 203.223372 
L 523.412846 200.982538 
L 524.136123 199.592484 
L 524.768991 198.829424 
L 525.311449 198.504712 
L 525.808702 198.46808 
L 526.305955 198.675666 
L 526.83985 199.166845 
L 527.439654 200.042794 
L 528.124872 201.467238 
L 528.895743 203.628826 
L 529.70944 206.593096 
L 530.651615 210.939446 
L 531.765095 217.25176 
L 533.415098 227.96475 
L 533.505509 227.545092 
L 535.087706 217.865298 
L 536.172641 212.547055 
L 537.12196 208.91193 
L 538.026072 206.293803 
L 538.787908 204.702642 
L 539.473858 203.749191 
L 540.07344 203.282433 
L 540.587367 203.151353 
L 541.101294 203.264989 
L 541.620219 203.620602 
L 542.197956 204.293699 
L 542.883598 205.446014 
L 543.697515 207.265695 
L 544.725622 210.148227 
L 546.154745 214.892804 
L 549.003524 225.215043 
L 549.093961 224.883354 
L 551.639317 213.736502 
L 554.081159 203.115717 
L 555.109304 199.655034 
L 555.923251 197.659416 
L 556.608681 196.539746 
L 557.165592 196.008196 
L 557.679664 195.811326 
L 558.144585 195.870636 
L 558.632281 196.168434 
L 559.200471 196.809384 
L 559.84983 197.911609 
L 560.620945 199.692913 
L 561.594985 202.571706 
L 562.893704 207.201899 
L 565.99282 219.436025 
L 567.363699 224.849961 
L 567.406539 224.705922 
L 569.762737 215.761276 
L 572.204675 206.53229 
L 573.27572 203.343488 
L 574.218239 201.205824 
L 575.071694 199.798325 
L 575.804527 198.975457 
L 576.453932 198.556297 
L 576.981573 198.458361 
L 577.468626 198.59293 
L 577.95568 198.978697 
L 578.442733 199.650299 
L 579.010962 200.835509 
L 579.660366 202.752877 
L 580.431534 205.795397 
L 581.40564 210.642895 
L 584.189294 226.283626 
L 584.27498 226.000781 
L 585.346054 221.505158 
L 586.331442 218.279722 
L 587.273987 215.934223 
L 588.118447 214.392653 
L 588.889628 213.415777 
L 589.620221 212.831645 
L 590.310226 212.548052 
L 591.040819 212.489988 
L 591.812 212.655209 
L 592.664359 213.070133 
L 593.557306 213.751703 
L 594.450253 214.711135 
L 595.337579 215.999514 
L 596.194468 217.646248 
L 597.072577 219.846213 
L 597.96141 222.723013 
L 598.894057 226.511896 
L 598.933632 226.690824 
L 598.972992 226.676121 
L 600.167961 220.165442 
L 603.228148 202.913114 
L 604.20366 198.961751 
L 605.063556 196.35409 
L 605.792259 194.777632 
L 606.435831 193.871529 
L 606.993593 193.45536 
L 607.465546 193.369634 
L 607.937498 193.525386 
L 608.452356 193.964482 
L 609.053023 194.818999 
L 609.739499 196.218025 
L 610.597595 198.531626 
L 611.670214 202.140834 
L 613.128977 207.906645 
L 615.534028 218.422017 
L 617.206125 226.312035 
L 617.251414 226.106692 
L 619.478913 214.865391 
L 621.195166 206.681065 
L 622.224918 202.765088 
L 623.084475 200.282527 
L 623.838759 198.715538 
L 624.525516 197.779282 
L 625.126429 197.325484 
L 625.641497 197.196895 
L 626.156565 197.29857 
L 626.714555 197.65792 
L 627.315467 198.326034 
L 628.002225 199.444956 
L 628.731904 201.068264 
L 629.547428 203.472326 
L 630.405875 206.7638 
L 631.350166 211.337673 
L 632.509069 218.140169 
L 633.710894 225.946454 
L 633.753816 225.792945 
L 635.321675 216.528323 
L 636.318432 211.86075 
L 637.179267 208.805272 
L 637.945913 206.854012 
L 638.592154 205.772969 
L 639.150164 205.251636 
L 639.622327 205.107597 
L 640.051566 205.210268 
L 640.511314 205.565133 
L 641.039983 206.274864 
L 641.649985 207.481256 
L 642.381987 209.438496 
L 643.301276 212.590666 
L 644.495618 217.55828 
L 646.38345 226.326738 
L 646.460504 225.95094 
L 648.527084 216.414188 
L 649.951158 210.857459 
L 651.146864 207.041661 
L 652.194185 204.390889 
L 653.170183 202.510402 
L 654.025676 201.308994 
L 654.84264 200.532976 
L 655.574615 200.131261 
L 656.266127 200.004666 
L 656.916961 200.113069 
L 657.570056 200.45049 
L 658.253662 201.055555 
L 659.026534 202.050124 
L 659.88528 203.53064 
L 660.8299 205.627683 
L 661.731584 208.171548 
L 662.633267 211.381782 
L 663.620825 215.764516 
L 664.866007 222.205917 
L 664.908944 221.959704 
L 667.485182 207.782044 
L 668.515677 203.465099 
L 669.460298 200.423327 
L 670.319044 198.362417 
L 671.091915 197.054849 
L 671.735974 196.365803 
L 672.294159 196.070746 
L 672.809407 196.050062 
L 673.314488 196.262134 
L 673.88398 196.764527 
L 674.534828 197.657173 
L 675.349066 199.193759 
L 676.287376 201.449794 
L 677.403766 204.733044 
L 678.477218 208.58373 
L 679.507731 213.130191 
L 680.624121 219.14994 
L 681.611697 225.295536 
L 681.654635 225.063777 
L 684.586894 206.864727 
L 685.603867 202.162016 
L 686.498804 198.982684 
L 687.278033 196.942957 
L 687.62087 196.257898 
L 687.62087 196.257898 
" clip-path="url(#pf43ca25a93)" style="fill: none; stroke: #ff7f0e; stroke-width: 1.5; stroke-linecap: square"/>
   </g>
   <g id="patch_3">
    <path d="M 45.875301 326.285074 
L 45.875301 7.2 
" style="fill: none; stroke: #000000; stroke-width: 0.8; stroke-linejoin: miter; stroke-linecap: square"/>
   </g>
   <g id="patch_4">
    <path d="M 718.180182 326.285074 
L 718.180182 7.2 
" style="fill: none; stroke: #000000; stroke-width: 0.8; stroke-linejoin: miter; stroke-linecap: square"/>
   </g>
   <g id="patch_5">
    <path d="M 45.875301 326.285074 
L 718.180182 326.285074 
" style="fill: none; stroke: #000000; stroke-width: 0.8; stroke-linejoin: miter; stroke-linecap: square"/>
   </g>
   <g id="patch_6">
    <path d="M 45.875301 7.2 
L 718.180182 7.2 
" style="fill: none; stroke: #000000; stroke-width: 0.8; stroke-linejoin: miter; stroke-linecap: square"/>
   </g>
   <g id="legend_1">
    <g id="patch_7">
     <path d="M 624.052605 317.785074 
L 706.280182 317.785074 
Q 709.680182 317.785074 709.680182 314.385074 
L 709.680182 268.6965 
Q 709.680182 265.2965 706.280182 265.2965 
L 624.052605 265.2965 
Q 620.652605 265.2965 620.652605 268.6965 
L 620.652605 314.385074 
Q 620.652605 317.785074 624.052605 317.785074 
z
" style="fill: #ffffff; opacity: 0.8; stroke: #cccccc; stroke-linejoin: miter"/>
    </g>
    <g id="line2d_27">
     <path d="M 627.452605 278.0465 
L 644.452605 278.0465 
L 661.452605 278.0465 
" style="fill: none; stroke: #1f77b4; stroke-width: 1.5; stroke-linecap: square"/>
    </g>
    <g id="text_15">
     <!-- $Re_h$ -->
     <g transform="translate(675.052605 283.9965)scale(0.17 -0.17)">
      <defs>
       <path id="CMMI12-68" d="M 1798 4257 
C 1805 4283 1818 4321 1818 4352 
C 1818 4416 1754 4416 1741 4416 
C 1734 4416 1421 4388 1389 4380 
C 1280 4373 1184 4358 1069 4358 
C 909 4345 864 4339 864 4224 
C 864 4160 915 4160 1005 4160 
C 1318 4160 1325 4103 1325 4040 
C 1325 4002 1312 3951 1306 3932 
L 378 248 
C 352 152 352 140 352 101 
C 352 -38 461 -64 525 -64 
C 634 -64 717 19 749 89 
L 1037 1245 
C 1069 1386 1107 1520 1139 1660 
C 1210 1929 1210 1935 1331 2120 
C 1453 2305 1741 2689 2234 2689 
C 2490 2689 2579 2497 2579 2242 
C 2579 1884 2330 1188 2189 805 
C 2131 651 2099 568 2099 453 
C 2099 166 2298 -64 2605 -64 
C 3200 -64 3424 875 3424 913 
C 3424 945 3398 971 3360 971 
C 3302 971 3296 952 3264 843 
C 3117 332 2880 64 2624 64 
C 2560 64 2458 64 2458 269 
C 2458 436 2534 640 2560 710 
C 2675 1018 2963 1773 2963 2145 
C 2963 2528 2739 2816 2253 2816 
C 1888 2816 1568 2644 1306 2312 
L 1798 4257 
z
" transform="scale(0.015625)"/>
      </defs>
      <use xlink:href="#CMMI12-52" transform="scale(0.996264)"/>
      <use xlink:href="#CMMI12-65" transform="translate(75.070962 0)scale(0.996264)"/>
      <use xlink:href="#CMMI12-68" transform="translate(120.282963 -14.943915)scale(0.697382)"/>
     </g>
    </g>
    <g id="line2d_28">
     <path d="M 627.452605 301.740787 
L 644.452605 301.740787 
L 661.452605 301.740787 
" style="fill: none; stroke: #ff7f0e; stroke-width: 1.5; stroke-linecap: square"/>
    </g>
    <g id="text_16">
     <!-- $Re_{\omega}$ -->
     <g transform="translate(675.052605 307.690787)scale(0.17 -0.17)">
      <defs>
       <path id="CMMI12-21" d="M 3802 2395 
C 3802 2580 3750 2816 3526 2816 
C 3398 2816 3251 2657 3251 2529 
C 3251 2472 3277 2434 3328 2376 
C 3424 2268 3546 2096 3546 1797 
C 3546 1567 3405 1204 3302 1007 
C 3123 656 2829 357 2496 357 
C 2093 357 1939 615 1869 975 
C 1939 1143 2086 1560 2086 1728 
C 2086 1798 2061 1856 1978 1856 
C 1933 1856 1882 1831 1850 1779 
C 1760 1638 1677 1129 1683 994 
C 1562 756 1216 357 806 357 
C 378 357 262 733 262 1096 
C 262 1758 678 2338 794 2497 
C 858 2593 902 2657 902 2669 
C 902 2714 877 2784 819 2784 
C 717 2784 685 2701 634 2625 
C 307 2121 77 1414 77 803 
C 77 408 224 -64 704 -64 
C 1235 -64 1568 391 1702 634 
C 1754 275 1946 -64 2413 -64 
C 2899 -64 3206 363 3437 879 
C 3603 1249 3802 2045 3802 2395 
z
" transform="scale(0.015625)"/>
      </defs>
      <use xlink:href="#CMMI12-52" transform="scale(0.996264)"/>
      <use xlink:href="#CMMI12-65" transform="translate(75.070962 0)scale(0.996264)"/>
      <use xlink:href="#CMMI12-21" transform="translate(120.282963 -14.943915)scale(0.697382)"/>
     </g>
    </g>
   </g>
  </g>
 </g>
 <defs>
  <clipPath id="pf43ca25a93">
   <rect x="45.875301" y="7.2" width="672.304882" height="319.085074"/>
  </clipPath>
 </defs>
</svg>
