<?xml version="1.0" encoding="utf-8" standalone="no"?>
<!DOCTYPE svg PUBLIC "-//W3C//DTD SVG 1.1//EN"
  "http://www.w3.org/Graphics/SVG/1.1/DTD/svg11.dtd">
<svg xmlns:xlink="http://www.w3.org/1999/xlink" width="725.380182pt" height="373.266031pt" viewBox="0 0 725.380182 373.266031" xmlns="http://www.w3.org/2000/svg" version="1.1">
 <metadata>
  <rdf:RDF xmlns:dc="http://purl.org/dc/elements/1.1/" xmlns:cc="http://creativecommons.org/ns#" xmlns:rdf="http://www.w3.org/1999/02/22-rdf-syntax-ns#">
   <cc:Work>
    <dc:type rdf:resource="http://purl.org/dc/dcmitype/StillImage"/>
    <dc:date>2022-05-03T22:25:27.108636</dc:date>
    <dc:format>image/svg+xml</dc:format>
    <dc:creator>
     <cc:Agent>
      <dc:title>Matplotlib v3.5.1, https://matplotlib.org/</dc:title>
     </cc:Agent>
    </dc:creator>
   </cc:Work>
  </rdf:RDF>
 </metadata>
 <defs>
  <style type="text/css">*{stroke-linejoin: round; stroke-linecap: butt}</style>
 </defs>
 <g id="figure_1">
  <g id="patch_1">
   <path d="M 0 373.266031 
L 725.380182 373.266031 
L 725.380182 0 
L 0 0 
z
" style="fill: #ffffff"/>
  </g>
  <g id="axes_1">
   <g id="patch_2">
    <path d="M 45.875301 326.285074 
L 718.180182 326.285074 
L 718.180182 7.2 
L 45.875301 7.2 
z
" style="fill: #ffffff"/>
   </g>
   <g id="matplotlib.axis_1">
    <g id="xtick_1">
     <g id="line2d_1">
      <path d="M 75.414269 326.285074 
L 75.414269 7.2 
" clip-path="url(#pe1629a32cd)" style="fill: none; stroke-dasharray: 0.8,1.32; stroke-dashoffset: 0; stroke: #b0b0b0; stroke-width: 0.8"/>
     </g>
     <g id="line2d_2">
      <defs>
       <path id="m6d396f49b7" d="M 0 0 
L 0 3.5 
" style="stroke: #000000; stroke-width: 0.8"/>
      </defs>
      <g>
       <use xlink:href="#m6d396f49b7" x="75.414269" y="326.285074" style="stroke: #000000; stroke-width: 0.8"/>
      </g>
     </g>
     <g id="text_1">
      <!-- $\mathdefault{0}$ -->
      <g transform="translate(72.923602 340.203572)scale(0.1 -0.1)">
       <defs>
        <path id="CMR17-30" d="M 2688 2025 
C 2688 2416 2682 3080 2413 3591 
C 2176 4039 1798 4198 1466 4198 
C 1158 4198 768 4058 525 3597 
C 269 3118 243 2524 243 2025 
C 243 1661 250 1106 448 619 
C 723 -39 1216 -128 1466 -128 
C 1760 -128 2208 -7 2470 600 
C 2662 1042 2688 1559 2688 2025 
z
M 1466 -26 
C 1056 -26 813 325 723 812 
C 653 1188 653 1738 653 2096 
C 653 2588 653 2997 736 3387 
C 858 3929 1216 4096 1466 4096 
C 1728 4096 2067 3923 2189 3400 
C 2272 3036 2278 2607 2278 2096 
C 2278 1680 2278 1169 2202 792 
C 2067 95 1690 -26 1466 -26 
z
" transform="scale(0.015625)"/>
       </defs>
       <use xlink:href="#CMR17-30" transform="scale(0.996264)"/>
      </g>
     </g>
    </g>
    <g id="xtick_2">
     <g id="line2d_3">
      <path d="M 177.448703 326.285074 
L 177.448703 7.2 
" clip-path="url(#pe1629a32cd)" style="fill: none; stroke-dasharray: 0.8,1.32; stroke-dashoffset: 0; stroke: #b0b0b0; stroke-width: 0.8"/>
     </g>
     <g id="line2d_4">
      <g>
       <use xlink:href="#m6d396f49b7" x="177.448703" y="326.285074" style="stroke: #000000; stroke-width: 0.8"/>
      </g>
     </g>
     <g id="text_2">
      <!-- $\mathdefault{10}$ -->
      <g transform="translate(172.467367 340.203572)scale(0.1 -0.1)">
       <defs>
        <path id="CMR17-31" d="M 1702 4058 
C 1702 4192 1696 4192 1606 4192 
C 1357 3916 979 3827 621 3827 
C 602 3827 570 3827 563 3808 
C 557 3795 557 3782 557 3648 
C 755 3648 1088 3686 1344 3839 
L 1344 461 
C 1344 236 1331 160 781 160 
L 589 160 
L 589 0 
C 896 0 1216 0 1523 0 
C 1830 0 2150 0 2458 0 
L 2458 160 
L 2266 160 
C 1715 160 1702 230 1702 458 
L 1702 4058 
z
" transform="scale(0.015625)"/>
       </defs>
       <use xlink:href="#CMR17-31" transform="scale(0.996264)"/>
       <use xlink:href="#CMR17-30" transform="translate(45.690477 0)scale(0.996264)"/>
      </g>
     </g>
    </g>
    <g id="xtick_3">
     <g id="line2d_5">
      <path d="M 279.483136 326.285074 
L 279.483136 7.2 
" clip-path="url(#pe1629a32cd)" style="fill: none; stroke-dasharray: 0.8,1.32; stroke-dashoffset: 0; stroke: #b0b0b0; stroke-width: 0.8"/>
     </g>
     <g id="line2d_6">
      <g>
       <use xlink:href="#m6d396f49b7" x="279.483136" y="326.285074" style="stroke: #000000; stroke-width: 0.8"/>
      </g>
     </g>
     <g id="text_3">
      <!-- $\mathdefault{20}$ -->
      <g transform="translate(274.501801 340.203572)scale(0.1 -0.1)">
       <defs>
        <path id="CMR17-32" d="M 2669 989 
L 2554 989 
C 2490 536 2438 459 2413 420 
C 2381 369 1920 369 1830 369 
L 602 369 
C 832 619 1280 1072 1824 1597 
C 2214 1967 2669 2402 2669 3035 
C 2669 3790 2067 4224 1395 4224 
C 691 4224 262 3604 262 3030 
C 262 2780 448 2748 525 2748 
C 589 2748 781 2787 781 3010 
C 781 3207 614 3264 525 3264 
C 486 3264 448 3258 422 3245 
C 544 3790 915 4058 1306 4058 
C 1862 4058 2227 3617 2227 3035 
C 2227 2479 1901 2000 1536 1584 
L 262 146 
L 262 0 
L 2515 0 
L 2669 989 
z
" transform="scale(0.015625)"/>
       </defs>
       <use xlink:href="#CMR17-32" transform="scale(0.996264)"/>
       <use xlink:href="#CMR17-30" transform="translate(45.690477 0)scale(0.996264)"/>
      </g>
     </g>
    </g>
    <g id="xtick_4">
     <g id="line2d_7">
      <path d="M 381.517569 326.285074 
L 381.517569 7.2 
" clip-path="url(#pe1629a32cd)" style="fill: none; stroke-dasharray: 0.8,1.32; stroke-dashoffset: 0; stroke: #b0b0b0; stroke-width: 0.8"/>
     </g>
     <g id="line2d_8">
      <g>
       <use xlink:href="#m6d396f49b7" x="381.517569" y="326.285074" style="stroke: #000000; stroke-width: 0.8"/>
      </g>
     </g>
     <g id="text_4">
      <!-- $\mathdefault{30}$ -->
      <g transform="translate(376.536234 340.203572)scale(0.1 -0.1)">
       <defs>
        <path id="CMR17-33" d="M 1414 2157 
C 1984 2157 2234 1662 2234 1090 
C 2234 320 1824 25 1453 25 
C 1114 25 563 194 390 693 
C 422 680 454 680 486 680 
C 640 680 755 782 755 948 
C 755 1133 614 1216 486 1216 
C 378 1216 211 1165 211 926 
C 211 335 787 -128 1466 -128 
C 2176 -128 2720 430 2720 1085 
C 2720 1707 2208 2157 1600 2227 
C 2086 2328 2554 2756 2554 3329 
C 2554 3820 2048 4179 1472 4179 
C 890 4179 378 3829 378 3329 
C 378 3110 544 3072 627 3072 
C 762 3072 877 3155 877 3321 
C 877 3486 762 3569 627 3569 
C 602 3569 570 3569 544 3557 
C 730 3959 1235 4032 1459 4032 
C 1683 4032 2106 3925 2106 3320 
C 2106 3143 2080 2828 1862 2550 
C 1670 2304 1453 2304 1242 2284 
C 1210 2284 1062 2269 1037 2269 
C 992 2263 966 2257 966 2208 
C 966 2163 973 2157 1101 2157 
L 1414 2157 
z
" transform="scale(0.015625)"/>
       </defs>
       <use xlink:href="#CMR17-33" transform="scale(0.996264)"/>
       <use xlink:href="#CMR17-30" transform="translate(45.690477 0)scale(0.996264)"/>
      </g>
     </g>
    </g>
    <g id="xtick_5">
     <g id="line2d_9">
      <path d="M 483.552003 326.285074 
L 483.552003 7.2 
" clip-path="url(#pe1629a32cd)" style="fill: none; stroke-dasharray: 0.8,1.32; stroke-dashoffset: 0; stroke: #b0b0b0; stroke-width: 0.8"/>
     </g>
     <g id="line2d_10">
      <g>
       <use xlink:href="#m6d396f49b7" x="483.552003" y="326.285074" style="stroke: #000000; stroke-width: 0.8"/>
      </g>
     </g>
     <g id="text_5">
      <!-- $\mathdefault{40}$ -->
      <g transform="translate(478.570668 340.203572)scale(0.1 -0.1)">
       <defs>
        <path id="CMR17-34" d="M 2150 4122 
C 2150 4256 2144 4256 2029 4256 
L 128 1254 
L 128 1088 
L 1779 1088 
L 1779 457 
C 1779 224 1766 160 1318 160 
L 1197 160 
L 1197 0 
C 1402 0 1747 0 1965 0 
C 2182 0 2528 0 2733 0 
L 2733 160 
L 2611 160 
C 2163 160 2150 224 2150 457 
L 2150 1088 
L 2803 1088 
L 2803 1254 
L 2150 1254 
L 2150 4122 
z
M 1798 3703 
L 1798 1254 
L 256 1254 
L 1798 3703 
z
" transform="scale(0.015625)"/>
       </defs>
       <use xlink:href="#CMR17-34" transform="scale(0.996264)"/>
       <use xlink:href="#CMR17-30" transform="translate(45.690477 0)scale(0.996264)"/>
      </g>
     </g>
    </g>
    <g id="xtick_6">
     <g id="line2d_11">
      <path d="M 585.586436 326.285074 
L 585.586436 7.2 
" clip-path="url(#pe1629a32cd)" style="fill: none; stroke-dasharray: 0.8,1.32; stroke-dashoffset: 0; stroke: #b0b0b0; stroke-width: 0.8"/>
     </g>
     <g id="line2d_12">
      <g>
       <use xlink:href="#m6d396f49b7" x="585.586436" y="326.285074" style="stroke: #000000; stroke-width: 0.8"/>
      </g>
     </g>
     <g id="text_6">
      <!-- $\mathdefault{50}$ -->
      <g transform="translate(580.605101 340.203572)scale(0.1 -0.1)">
       <defs>
        <path id="CMR17-35" d="M 730 3692 
C 794 3666 1056 3584 1325 3584 
C 1920 3584 2246 3911 2432 4100 
C 2432 4157 2432 4192 2394 4192 
C 2387 4192 2374 4192 2323 4163 
C 2099 4058 1837 3973 1517 3973 
C 1325 3973 1037 3999 723 4139 
C 653 4171 640 4171 634 4171 
C 602 4171 595 4164 595 4037 
L 595 2203 
C 595 2089 595 2057 659 2057 
C 691 2057 704 2070 736 2114 
C 941 2401 1222 2522 1542 2522 
C 1766 2522 2246 2382 2246 1289 
C 2246 1085 2246 715 2054 421 
C 1894 159 1645 25 1370 25 
C 947 25 518 320 403 814 
C 429 807 480 795 506 795 
C 589 795 749 840 749 1038 
C 749 1210 627 1280 506 1280 
C 358 1280 262 1190 262 1011 
C 262 454 704 -128 1382 -128 
C 2042 -128 2669 440 2669 1264 
C 2669 2030 2170 2624 1549 2624 
C 1222 2624 947 2503 730 2274 
L 730 3692 
z
" transform="scale(0.015625)"/>
       </defs>
       <use xlink:href="#CMR17-35" transform="scale(0.996264)"/>
       <use xlink:href="#CMR17-30" transform="translate(45.690477 0)scale(0.996264)"/>
      </g>
     </g>
    </g>
    <g id="xtick_7">
     <g id="line2d_13">
      <path d="M 687.62087 326.285074 
L 687.62087 7.2 
" clip-path="url(#pe1629a32cd)" style="fill: none; stroke-dasharray: 0.8,1.32; stroke-dashoffset: 0; stroke: #b0b0b0; stroke-width: 0.8"/>
     </g>
     <g id="line2d_14">
      <g>
       <use xlink:href="#m6d396f49b7" x="687.62087" y="326.285074" style="stroke: #000000; stroke-width: 0.8"/>
      </g>
     </g>
     <g id="text_7">
      <!-- $\mathdefault{60}$ -->
      <g transform="translate(682.639534 340.203572)scale(0.1 -0.1)">
       <defs>
        <path id="CMR17-36" d="M 678 2176 
C 678 3690 1395 4032 1811 4032 
C 1946 4032 2272 4009 2400 3776 
C 2298 3776 2106 3776 2106 3553 
C 2106 3381 2246 3323 2336 3323 
C 2394 3323 2566 3348 2566 3560 
C 2566 3954 2246 4179 1805 4179 
C 1043 4179 243 3390 243 1984 
C 243 253 966 -128 1478 -128 
C 2099 -128 2688 427 2688 1283 
C 2688 2081 2170 2662 1517 2662 
C 1126 2662 838 2407 678 1960 
L 678 2176 
z
M 1478 25 
C 691 25 691 1200 691 1436 
C 691 1896 909 2560 1504 2560 
C 1613 2560 1926 2560 2138 2120 
C 2253 1870 2253 1609 2253 1289 
C 2253 944 2253 690 2118 434 
C 1978 171 1773 25 1478 25 
z
" transform="scale(0.015625)"/>
       </defs>
       <use xlink:href="#CMR17-36" transform="scale(0.996264)"/>
       <use xlink:href="#CMR17-30" transform="translate(45.690477 0)scale(0.996264)"/>
      </g>
     </g>
    </g>
    <g id="text_8">
     <!-- $t U_{\infty} / H_{box}$ -->
     <g transform="translate(341.630715 361.084711)scale(0.2 -0.2)">
      <defs>
       <path id="CMMI12-74" d="M 1286 2566 
L 1875 2566 
C 1997 2566 2061 2566 2061 2681 
C 2061 2752 2022 2752 1894 2752 
L 1331 2752 
L 1568 3692 
C 1594 3781 1594 3794 1594 3840 
C 1594 3943 1510 4000 1427 4000 
C 1376 4000 1229 3981 1178 3775 
L 928 2752 
L 326 2752 
C 198 2752 141 2752 141 2630 
C 141 2566 186 2566 307 2566 
L 877 2566 
L 454 881 
C 403 658 384 594 384 511 
C 384 211 595 -64 954 -64 
C 1600 -64 1946 868 1946 912 
C 1946 951 1920 970 1882 970 
C 1869 970 1843 970 1830 944 
C 1824 938 1818 931 1773 829 
C 1638 511 1344 64 973 64 
C 781 64 768 224 768 364 
C 768 370 768 492 787 568 
L 1286 2566 
z
" transform="scale(0.015625)"/>
       <path id="CMMI12-55" d="M 3238 1474 
C 3014 581 2272 57 1670 57 
C 1210 57 896 363 896 891 
C 896 916 896 1107 966 1387 
L 1594 3887 
C 1651 4103 1664 4167 2118 4167 
C 2234 4167 2298 4167 2298 4282 
C 2298 4352 2240 4352 2202 4352 
C 2086 4352 1952 4352 1830 4352 
L 1075 4352 
C 954 4352 819 4352 698 4352 
C 653 4352 576 4352 576 4231 
C 576 4167 621 4167 742 4167 
C 1126 4167 1126 4116 1126 4046 
C 1126 4008 1082 3824 1050 3715 
L 493 1488 
C 474 1418 435 1246 435 1075 
C 435 374 941 -128 1638 -128 
C 2285 -128 3002 384 3328 1197 
C 3373 1305 3430 1530 3469 1702 
C 3533 1933 3667 2496 3712 2662 
L 3955 3623 
C 4038 3956 4090 4167 4653 4167 
C 4704 4173 4730 4224 4730 4282 
C 4730 4352 4672 4352 4646 4352 
C 4557 4352 4442 4352 4352 4352 
L 4051 4352 
C 3654 4352 3450 4352 3443 4352 
C 3405 4352 3328 4352 3328 4231 
C 3328 4167 3379 4167 3424 4167 
C 3808 4167 3834 4020 3834 3905 
C 3834 3848 3834 3828 3808 3739 
L 3238 1474 
z
" transform="scale(0.015625)"/>
       <path id="CMSY10-31" d="M 3251 1730 
C 2906 2166 2829 2262 2630 2422 
C 2272 2710 1914 2825 1587 2825 
C 838 2825 352 2122 352 1374 
C 352 639 826 -70 1562 -70 
C 2298 -70 2829 511 3142 1022 
C 3488 588 3565 492 3763 332 
C 4122 45 4480 -70 4806 -70 
C 5555 -70 6042 633 6042 1380 
C 6042 2115 5568 2825 4832 2825 
C 4096 2825 3565 2242 3251 1730 
z
M 3418 1514 
C 3680 1975 4154 2620 4877 2620 
C 5555 2620 5901 1955 5901 1380 
C 5901 753 5472 236 4909 236 
C 4538 236 4250 505 4115 638 
C 3955 811 3808 1009 3418 1514 
z
M 2976 1240 
C 2714 780 2240 134 1517 134 
C 838 134 493 799 493 1374 
C 493 2000 922 2518 1485 2518 
C 1856 2518 2144 2249 2278 2115 
C 2438 1943 2586 1744 2976 1240 
z
" transform="scale(0.015625)"/>
       <path id="CMMI12-3d" d="M 2746 4562 
C 2746 4569 2784 4666 2784 4678 
C 2784 4755 2720 4800 2669 4800 
C 2637 4800 2579 4800 2528 4659 
L 384 -1363 
C 384 -1370 346 -1465 346 -1478 
C 346 -1555 410 -1600 461 -1600 
C 499 -1600 557 -1593 602 -1459 
L 2746 4562 
z
" transform="scale(0.015625)"/>
       <path id="CMMI12-48" d="M 4787 3887 
C 4845 4103 4858 4167 5312 4167 
C 5427 4167 5491 4167 5491 4282 
C 5491 4352 5434 4352 5395 4352 
C 5280 4352 5146 4352 5024 4352 
L 4269 4352 
C 4147 4352 4013 4352 3891 4352 
C 3846 4352 3770 4352 3770 4231 
C 3770 4167 3814 4167 3936 4167 
C 4320 4167 4320 4116 4320 4046 
C 4320 4034 4320 3995 4294 3900 
L 3904 2361 
L 1971 2361 
L 2355 3887 
C 2413 4103 2426 4167 2880 4167 
C 2995 4167 3059 4167 3059 4282 
C 3059 4352 3002 4352 2963 4352 
C 2848 4352 2714 4352 2592 4352 
L 1837 4352 
C 1715 4352 1581 4352 1459 4352 
C 1414 4352 1338 4352 1338 4231 
C 1338 4167 1382 4167 1504 4167 
C 1888 4167 1888 4116 1888 4046 
C 1888 4034 1888 3995 1862 3899 
L 998 472 
C 941 249 928 185 486 185 
C 339 185 294 185 294 64 
C 294 0 365 0 384 0 
C 499 0 634 0 755 0 
L 1510 0 
C 1632 0 1766 0 1888 0 
C 1939 0 2010 0 2010 121 
C 2010 185 1952 185 1856 185 
C 1466 185 1466 236 1466 300 
C 1466 307 1466 351 1478 402 
L 1920 2176 
L 3859 2176 
C 3750 1753 3424 416 3411 376 
C 3341 185 3238 185 2861 185 
C 2784 185 2726 185 2726 64 
C 2726 0 2797 0 2816 0 
C 2931 0 3066 0 3187 0 
L 3942 0 
C 4064 0 4198 0 4320 0 
C 4371 0 4442 0 4442 121 
C 4442 185 4384 185 4288 185 
C 3898 185 3898 236 3898 300 
C 3898 307 3898 351 3910 402 
L 4787 3887 
z
" transform="scale(0.015625)"/>
       <path id="CMMI12-62" d="M 1478 4257 
C 1485 4283 1498 4321 1498 4352 
C 1498 4416 1434 4416 1421 4416 
C 1414 4416 1184 4393 1069 4377 
C 960 4377 864 4358 749 4358 
C 595 4345 550 4339 550 4224 
C 550 4160 614 4160 678 4160 
C 1005 4160 1005 4103 1005 4040 
C 1005 3996 954 3811 928 3696 
L 774 3085 
C 710 2831 346 1387 320 1272 
C 288 1114 288 1005 288 922 
C 288 274 653 -64 1069 -64 
C 1811 -64 2579 888 2579 1814 
C 2579 2401 2246 2816 1766 2816 
C 1434 2816 1133 2542 1011 2414 
L 1478 4257 
z
M 1075 64 
C 870 64 646 217 646 715 
C 646 926 666 1047 781 1494 
C 800 1577 902 1986 928 2069 
C 941 2120 1318 2689 1754 2689 
C 2035 2689 2163 2408 2163 2076 
C 2163 1769 1984 1047 1824 715 
C 1664 370 1370 64 1075 64 
z
" transform="scale(0.015625)"/>
       <path id="CMMI12-6f" d="M 2918 1756 
C 2918 2363 2522 2816 1939 2816 
C 1094 2816 262 1897 262 996 
C 262 390 659 -64 1242 -64 
C 2093 -64 2918 856 2918 1756 
z
M 1248 64 
C 928 64 691 319 691 766 
C 691 1060 845 1712 1024 2031 
C 1312 2523 1670 2689 1933 2689 
C 2246 2689 2490 2433 2490 1986 
C 2490 1731 2355 1047 2112 658 
C 1850 230 1498 64 1248 64 
z
" transform="scale(0.015625)"/>
       <path id="CMMI12-78" d="M 3034 2606 
C 2829 2567 2752 2414 2752 2293 
C 2752 2139 2874 2088 2963 2088 
C 3155 2088 3290 2254 3290 2427 
C 3290 2695 2982 2816 2714 2816 
C 2323 2816 2106 2433 2048 2312 
C 1901 2816 1504 2816 1389 2816 
C 736 2816 390 1980 390 1839 
C 390 1814 416 1782 461 1782 
C 512 1782 525 1820 538 1846 
C 755 2555 1184 2689 1370 2689 
C 1658 2689 1715 2420 1715 2267 
C 1715 2127 1677 1980 1600 1673 
L 1382 798 
C 1286 415 1101 64 762 64 
C 730 64 570 64 435 147 
C 666 192 717 383 717 460 
C 717 588 621 664 499 664 
C 346 664 179 530 179 326 
C 179 57 480 -64 755 -64 
C 1062 -64 1280 179 1414 441 
C 1517 64 1837 -64 2074 -64 
C 2726 -64 3072 773 3072 913 
C 3072 945 3046 971 3008 971 
C 2950 971 2944 939 2925 888 
C 2752 326 2381 64 2093 64 
C 1869 64 1747 230 1747 492 
C 1747 632 1773 734 1875 1156 
L 2099 2024 
C 2195 2408 2413 2689 2707 2689 
C 2720 2689 2899 2689 3034 2606 
z
" transform="scale(0.015625)"/>
      </defs>
      <use xlink:href="#CMMI12-74" transform="scale(0.996264)"/>
      <use xlink:href="#CMMI12-55" transform="translate(35.22633 0)scale(0.996264)"/>
      <use xlink:href="#CMSY10-31" transform="translate(101.478449 -14.943915)scale(0.697382)"/>
      <use xlink:href="#CMMI12-3d" transform="translate(171.714956 0)scale(0.996264)"/>
      <use xlink:href="#CMMI12-48" transform="translate(220.489874 0)scale(0.996264)"/>
      <use xlink:href="#CMMI12-62" transform="translate(301.314711 -14.943915)scale(0.697382)"/>
      <use xlink:href="#CMMI12-6f" transform="translate(330.347698 -14.943915)scale(0.697382)"/>
      <use xlink:href="#CMMI12-78" transform="translate(363.17426 -14.943915)scale(0.697382)"/>
     </g>
    </g>
   </g>
   <g id="matplotlib.axis_2">
    <g id="ytick_1">
     <g id="line2d_15">
      <path d="M 45.875301 316.853057 
L 718.180182 316.853057 
" clip-path="url(#pe1629a32cd)" style="fill: none; stroke-dasharray: 0.8,1.32; stroke-dashoffset: 0; stroke: #b0b0b0; stroke-width: 0.8"/>
     </g>
     <g id="line2d_16">
      <defs>
       <path id="m30c8a2d384" d="M 0 0 
L -3.5 0 
" style="stroke: #000000; stroke-width: 0.8"/>
      </defs>
      <g>
       <use xlink:href="#m30c8a2d384" x="45.875301" y="316.853057" style="stroke: #000000; stroke-width: 0.8"/>
      </g>
     </g>
     <g id="text_9">
      <!-- $\mathdefault{24}$ -->
      <g transform="translate(28.91263 320.312306)scale(0.1 -0.1)">
       <use xlink:href="#CMR17-32" transform="scale(0.996264)"/>
       <use xlink:href="#CMR17-34" transform="translate(45.690477 0)scale(0.996264)"/>
      </g>
     </g>
    </g>
    <g id="ytick_2">
     <g id="line2d_17">
      <path d="M 45.875301 277.569887 
L 718.180182 277.569887 
" clip-path="url(#pe1629a32cd)" style="fill: none; stroke-dasharray: 0.8,1.32; stroke-dashoffset: 0; stroke: #b0b0b0; stroke-width: 0.8"/>
     </g>
     <g id="line2d_18">
      <g>
       <use xlink:href="#m30c8a2d384" x="45.875301" y="277.569887" style="stroke: #000000; stroke-width: 0.8"/>
      </g>
     </g>
     <g id="text_10">
      <!-- $\mathdefault{26}$ -->
      <g transform="translate(28.91263 281.029136)scale(0.1 -0.1)">
       <use xlink:href="#CMR17-32" transform="scale(0.996264)"/>
       <use xlink:href="#CMR17-36" transform="translate(45.690477 0)scale(0.996264)"/>
      </g>
     </g>
    </g>
    <g id="ytick_3">
     <g id="line2d_19">
      <path d="M 45.875301 238.286716 
L 718.180182 238.286716 
" clip-path="url(#pe1629a32cd)" style="fill: none; stroke-dasharray: 0.8,1.32; stroke-dashoffset: 0; stroke: #b0b0b0; stroke-width: 0.8"/>
     </g>
     <g id="line2d_20">
      <g>
       <use xlink:href="#m30c8a2d384" x="45.875301" y="238.286716" style="stroke: #000000; stroke-width: 0.8"/>
      </g>
     </g>
     <g id="text_11">
      <!-- $\mathdefault{28}$ -->
      <g transform="translate(28.91263 241.745966)scale(0.1 -0.1)">
       <defs>
        <path id="CMR17-38" d="M 1741 2264 
C 2144 2467 2554 2773 2554 3263 
C 2554 3841 1990 4179 1472 4179 
C 890 4179 378 3759 378 3180 
C 378 3021 416 2747 666 2505 
C 730 2442 998 2251 1171 2130 
C 883 1983 211 1634 211 934 
C 211 279 838 -128 1459 -128 
C 2144 -128 2720 362 2720 1010 
C 2720 1590 2330 1857 2074 2029 
L 1741 2264 
z
M 902 2822 
C 851 2854 595 3051 595 3351 
C 595 3739 998 4032 1459 4032 
C 1965 4032 2336 3676 2336 3262 
C 2336 2669 1670 2331 1638 2331 
C 1632 2331 1626 2331 1574 2370 
L 902 2822 
z
M 2080 1519 
C 2176 1449 2483 1240 2483 851 
C 2483 381 2010 25 1472 25 
C 890 25 448 438 448 940 
C 448 1443 838 1862 1280 2060 
L 2080 1519 
z
" transform="scale(0.015625)"/>
       </defs>
       <use xlink:href="#CMR17-32" transform="scale(0.996264)"/>
       <use xlink:href="#CMR17-38" transform="translate(45.690477 0)scale(0.996264)"/>
      </g>
     </g>
    </g>
    <g id="ytick_4">
     <g id="line2d_21">
      <path d="M 45.875301 199.003546 
L 718.180182 199.003546 
" clip-path="url(#pe1629a32cd)" style="fill: none; stroke-dasharray: 0.8,1.32; stroke-dashoffset: 0; stroke: #b0b0b0; stroke-width: 0.8"/>
     </g>
     <g id="line2d_22">
      <g>
       <use xlink:href="#m30c8a2d384" x="45.875301" y="199.003546" style="stroke: #000000; stroke-width: 0.8"/>
      </g>
     </g>
     <g id="text_12">
      <!-- $\mathdefault{30}$ -->
      <g transform="translate(28.91263 202.462795)scale(0.1 -0.1)">
       <use xlink:href="#CMR17-33" transform="scale(0.996264)"/>
       <use xlink:href="#CMR17-30" transform="translate(45.690477 0)scale(0.996264)"/>
      </g>
     </g>
    </g>
    <g id="ytick_5">
     <g id="line2d_23">
      <path d="M 45.875301 159.720376 
L 718.180182 159.720376 
" clip-path="url(#pe1629a32cd)" style="fill: none; stroke-dasharray: 0.8,1.32; stroke-dashoffset: 0; stroke: #b0b0b0; stroke-width: 0.8"/>
     </g>
     <g id="line2d_24">
      <g>
       <use xlink:href="#m30c8a2d384" x="45.875301" y="159.720376" style="stroke: #000000; stroke-width: 0.8"/>
      </g>
     </g>
     <g id="text_13">
      <!-- $\mathdefault{32}$ -->
      <g transform="translate(28.91263 163.179625)scale(0.1 -0.1)">
       <use xlink:href="#CMR17-33" transform="scale(0.996264)"/>
       <use xlink:href="#CMR17-32" transform="translate(45.690477 0)scale(0.996264)"/>
      </g>
     </g>
    </g>
    <g id="ytick_6">
     <g id="line2d_25">
      <path d="M 45.875301 120.437205 
L 718.180182 120.437205 
" clip-path="url(#pe1629a32cd)" style="fill: none; stroke-dasharray: 0.8,1.32; stroke-dashoffset: 0; stroke: #b0b0b0; stroke-width: 0.8"/>
     </g>
     <g id="line2d_26">
      <g>
       <use xlink:href="#m30c8a2d384" x="45.875301" y="120.437205" style="stroke: #000000; stroke-width: 0.8"/>
      </g>
     </g>
     <g id="text_14">
      <!-- $\mathdefault{34}$ -->
      <g transform="translate(28.91263 123.896455)scale(0.1 -0.1)">
       <use xlink:href="#CMR17-33" transform="scale(0.996264)"/>
       <use xlink:href="#CMR17-34" transform="translate(45.690477 0)scale(0.996264)"/>
      </g>
     </g>
    </g>
    <g id="ytick_7">
     <g id="line2d_27">
      <path d="M 45.875301 81.154035 
L 718.180182 81.154035 
" clip-path="url(#pe1629a32cd)" style="fill: none; stroke-dasharray: 0.8,1.32; stroke-dashoffset: 0; stroke: #b0b0b0; stroke-width: 0.8"/>
     </g>
     <g id="line2d_28">
      <g>
       <use xlink:href="#m30c8a2d384" x="45.875301" y="81.154035" style="stroke: #000000; stroke-width: 0.8"/>
      </g>
     </g>
     <g id="text_15">
      <!-- $\mathdefault{36}$ -->
      <g transform="translate(28.91263 84.613284)scale(0.1 -0.1)">
       <use xlink:href="#CMR17-33" transform="scale(0.996264)"/>
       <use xlink:href="#CMR17-36" transform="translate(45.690477 0)scale(0.996264)"/>
      </g>
     </g>
    </g>
    <g id="ytick_8">
     <g id="line2d_29">
      <path d="M 45.875301 41.870865 
L 718.180182 41.870865 
" clip-path="url(#pe1629a32cd)" style="fill: none; stroke-dasharray: 0.8,1.32; stroke-dashoffset: 0; stroke: #b0b0b0; stroke-width: 0.8"/>
     </g>
     <g id="line2d_30">
      <g>
       <use xlink:href="#m30c8a2d384" x="45.875301" y="41.870865" style="stroke: #000000; stroke-width: 0.8"/>
      </g>
     </g>
     <g id="text_16">
      <!-- $\mathdefault{38}$ -->
      <g transform="translate(28.91263 45.330114)scale(0.1 -0.1)">
       <use xlink:href="#CMR17-33" transform="scale(0.996264)"/>
       <use xlink:href="#CMR17-38" transform="translate(45.690477 0)scale(0.996264)"/>
      </g>
     </g>
    </g>
    <g id="text_17">
     <!-- $Re$ -->
     <g transform="translate(21.036997 178.770833)rotate(-90)scale(0.2 -0.2)">
      <defs>
       <path id="CMMI12-52" d="M 2355 3924 
C 2413 4160 2438 4160 2688 4160 
L 3149 4160 
C 3699 4160 4109 3995 4109 3499 
C 4109 3175 3942 2240 2656 2240 
L 1933 2240 
L 2355 3924 
z
M 3245 2169 
C 4038 2341 4659 2851 4659 3398 
C 4659 3894 4154 4352 3264 4352 
L 1530 4352 
C 1402 4352 1344 4352 1344 4226 
C 1344 4160 1389 4160 1510 4160 
C 1894 4160 1894 4112 1894 4045 
C 1894 4033 1894 3994 1869 3899 
L 1005 479 
C 947 256 934 192 493 192 
C 346 192 301 192 301 71 
C 301 7 371 7 390 7 
C 506 7 640 7 762 7 
L 1517 7 
C 1632 7 1766 7 1882 7 
C 1933 7 2003 7 2003 128 
C 2003 192 1946 192 1850 192 
C 1459 192 1459 243 1459 306 
C 1459 313 1459 357 1472 407 
L 1901 2112 
L 2669 2112 
C 3277 2112 3392 1731 3392 1522 
C 3392 1427 3328 1179 3283 1014 
C 3213 723 3194 652 3194 532 
C 3194 82 3565 -128 3994 -128 
C 4512 -128 4736 501 4736 591 
C 4736 635 4704 654 4666 654 
C 4614 654 4602 616 4589 565 
C 4435 114 4173 0 4013 0 
C 3853 0 3750 70 3750 356 
C 3750 509 3827 1088 3834 1120 
C 3866 1355 3866 1380 3866 1432 
C 3866 1896 3488 2093 3245 2169 
z
" transform="scale(0.015625)"/>
       <path id="CMMI12-65" d="M 1146 1479 
C 1318 1479 1754 1479 2061 1595 
C 2547 1783 2592 2158 2592 2274 
C 2592 2558 2349 2816 1926 2816 
C 1254 2816 288 2210 288 1073 
C 288 402 672 -64 1254 -64 
C 2125 -64 2675 609 2675 692 
C 2675 730 2637 762 2611 762 
C 2592 762 2586 756 2528 699 
C 2118 159 1510 64 1267 64 
C 902 64 710 350 710 822 
C 710 911 710 1071 806 1479 
L 1146 1479 
z
M 838 1600 
C 1114 2592 1722 2689 1926 2689 
C 2208 2689 2400 2522 2400 2277 
C 2400 1600 1376 1600 1107 1600 
L 838 1600 
z
" transform="scale(0.015625)"/>
      </defs>
      <use xlink:href="#CMMI12-52" transform="scale(0.996264)"/>
      <use xlink:href="#CMMI12-65" transform="translate(75.070962 0)scale(0.996264)"/>
     </g>
    </g>
   </g>
   <g id="line2d_31">
    <path d="M 75.448281 75.930159 
L 75.457725 -1 
M 75.568755 -1 
L 75.584327 34.937974 
L 75.65235 16.659908 
L 75.720373 13.595428 
L 75.754384 15.796464 
L 75.958453 51.606806 
L 76.332579 104.770291 
L 76.672694 132.455106 
L 76.774728 132.43075 
L 76.876763 132.957537 
L 77.114844 136.783522 
L 81.842439 214.363069 
L 82.998829 227.711098 
L 84.189231 238.926836 
L 85.243586 246.964762 
L 87.114221 254.509095 
L 89.086883 261.56062 
L 91.297633 268.632966 
L 93.712441 275.604353 
L 95.072907 279.030239 
L 96.229294 279.90645 
L 97.385681 280.498447 
L 98.542078 280.8408 
L 99.800499 280.975148 
L 101.297007 280.89285 
L 105.548435 280.486073 
L 106.73884 280.704487 
L 107.997262 281.174314 
L 109.49377 281.987672 
L 111.364398 283.271839 
L 113.303052 284.874396 
L 115.139672 286.672976 
L 117.146353 288.950221 
L 119.93529 292.505937 
L 122.826273 296.130203 
L 125.649219 298.318865 
L 127.247761 299.292498 
L 128.574209 299.852283 
L 129.764614 300.107231 
L 130.818967 300.103892 
L 131.805303 299.885281 
L 132.825647 299.426846 
L 133.88 298.698536 
L 135.002378 297.642408 
L 136.2608 296.132953 
L 137.7233 293.997127 
L 139.457885 291.047943 
L 142.178797 285.934845 
L 145.103787 280.593512 
L 146.736338 278.05032 
L 148.096794 276.312433 
L 149.321207 275.101136 
L 150.409578 274.329418 
L 151.395914 273.885322 
L 152.38224 273.682424 
L 153.368576 273.712672 
L 154.354913 273.961138 
L 155.477291 274.485176 
L 156.735713 275.337424 
L 158.232221 276.64359 
L 160.102849 278.590071 
L 164.150218 283.243752 
L 166.462992 285.698753 
L 168.095543 287.130625 
L 169.456009 288.04003 
L 170.612396 288.558372 
L 171.666748 288.795053 
L 172.653084 288.793285 
L 173.639421 288.564853 
L 174.625747 288.107204 
L 175.714117 287.344718 
L 176.938531 286.190775 
L 178.367013 284.512009 
L 180.203632 281.980012 
L 185.441366 274.510906 
L 186.869848 272.948025 
L 188.128341 271.89013 
L 189.25072 271.233708 
L 190.305041 270.879767 
L 191.291408 270.783523 
L 192.277673 270.912175 
L 193.26404 271.257867 
L 194.352441 271.876773 
L 195.576854 272.845104 
L 196.971257 274.256351 
L 198.56983 276.208725 
L 200.576542 279.048505 
L 203.841643 284.154925 
L 206.664528 288.420881 
L 208.263102 290.445732 
L 209.453537 291.618727 
L 210.439802 292.300879 
L 211.324135 292.645393 
L 212.106433 292.714335 
L 212.854651 292.557791 
L 213.60287 292.175959 
L 214.419145 291.50186 
L 215.303477 290.479515 
L 216.357799 288.902099 
L 217.650269 286.537645 
L 219.452912 282.730124 
L 226.799391 266.734017 
L 228.227873 264.378795 
L 229.418207 262.817485 
L 230.506608 261.746037 
L 231.458895 261.100614 
L 232.377205 260.739405 
L 233.261538 260.630787 
L 234.14587 260.747851 
L 235.098158 261.110042 
L 236.118502 261.74309 
L 237.342915 262.787237 
L 238.805375 264.351689 
L 240.710051 266.737356 
L 247.648393 275.738309 
L 249.042897 277.01678 
L 250.165276 277.768267 
L 251.151541 278.180544 
L 252.035874 278.325891 
L 252.886126 278.246932 
L 253.736481 277.94072 
L 254.620712 277.373471 
L 255.573101 276.476833 
L 256.627423 275.148276 
L 257.817859 273.255809 
L 259.246341 270.52229 
L 261.423041 265.780811 
L 263.735856 260.90243 
L 265.266372 258.195624 
L 267.443073 254.871678 
L 270.129946 251.059836 
L 271.422416 249.614019 
L 272.578772 248.641957 
L 273.667173 248.005176 
L 274.721495 247.636307 
L 275.775919 247.502352 
L 276.830241 247.594471 
L 277.884563 247.90304 
L 279.041021 248.479128 
L 280.299412 249.370463 
L 281.727894 250.674861 
L 283.530536 252.653161 
L 289.686579 259.672867 
L 291.115062 260.812668 
L 292.305497 261.496588 
L 293.393797 261.879403 
L 294.414141 262.011198 
L 295.400508 261.922811 
L 296.420852 261.609724 
L 297.543231 261.020476 
L 298.835701 260.069824 
L 300.706298 258.370434 
L 302.951056 256.393115 
L 304.209446 255.583882 
L 305.535894 255.010741 
L 308.052777 253.994681 
L 309.345248 253.133005 
L 312.440258 250.945325 
L 313.664671 250.42502 
L 314.821028 250.174982 
L 315.977486 250.148663 
L 317.201899 250.342721 
L 318.562324 250.791335 
L 320.126818 251.55991 
L 321.861403 252.666714 
L 323.936172 254.258271 
L 327.541354 257.36066 
L 329.922124 259.252341 
L 331.520697 260.245223 
L 332.813167 260.801669 
L 333.969524 261.069777 
L 335.057925 261.098454 
L 336.112247 260.90518 
L 337.166568 260.490154 
L 338.323027 259.787378 
L 339.615395 258.725161 
L 341.179991 257.131443 
L 346.417724 251.534769 
L 347.540103 250.791728 
L 348.52647 250.393986 
L 349.44478 250.25787 
L 350.397067 250.348614 
L 351.519446 250.700591 
L 354.886582 251.926815 
L 356.21303 252.039754 
L 359.512109 252.205922 
L 360.872636 252.557703 
L 362.505187 253.231213 
L 364.715865 254.426796 
L 369.715553 257.212562 
L 371.450138 257.884697 
L 372.9127 258.228818 
L 374.273125 258.325258 
L 375.599572 258.186589 
L 376.892043 257.822237 
L 378.286445 257.184868 
L 379.851041 256.21477 
L 382.197833 254.465687 
L 384.510546 252.825418 
L 385.871073 252.128731 
L 387.027429 251.782646 
L 388.183785 251.679528 
L 389.57829 251.796002 
L 391.516944 251.942332 
L 392.605345 251.784414 
L 393.795679 251.379797 
L 396.040436 250.31542 
L 397.672987 249.671568 
L 398.965458 249.395211 
L 400.223848 249.352393 
L 401.516318 249.532506 
L 402.9448 249.968353 
L 404.543374 250.695091 
L 406.856086 252.008917 
L 410.223223 253.881153 
L 411.889853 254.539343 
L 413.352313 254.881892 
L 414.780795 254.984421 
L 416.277334 254.858322 
L 417.97784 254.480614 
L 423.28363 253.127309 
L 424.440088 253.185645 
L 425.562467 253.462787 
L 426.854835 254.023555 
L 429.983925 255.491174 
L 431.00427 255.651449 
L 432.092671 255.586632 
L 433.385039 255.264903 
L 438.044646 253.874475 
L 439.371093 253.852476 
L 440.765598 254.055374 
L 442.330092 254.520094 
L 444.302723 255.353683 
L 449.064364 257.457689 
L 450.662938 257.879591 
L 452.09142 258.032795 
L 453.485822 257.946372 
L 454.84635 257.634267 
L 456.308809 257.070554 
L 458.043395 256.156631 
L 460.934336 254.324464 
L 463.213173 252.99571 
L 464.641655 252.409605 
L 465.900046 252.131284 
L 467.056402 252.099661 
L 468.246838 252.295291 
L 469.505229 252.736638 
L 470.865756 253.451592 
L 472.396272 254.506541 
L 474.130858 255.975535 
L 477.191891 258.956342 
L 479.470626 261.501106 
L 483.347934 266.244942 
L 486.170921 269.531372 
L 488.00754 271.354896 
L 488.823816 271.946501 
L 490.116184 272.626886 
L 491.340597 273.027967 
L 492.56501 273.191778 
L 493.789424 273.130889 
L 495.115871 272.835676 
L 496.578433 272.275105 
L 498.44903 271.288508 
L 503.550752 268.435764 
L 505.21728 267.879514 
L 509.536806 266.649558 
L 510.863254 265.907892 
L 512.39377 264.788322 
L 514.876574 262.651317 
L 516.713194 261.211785 
L 518.175653 260.346181 
L 519.604135 259.760272 
L 521.100674 259.398278 
L 522.597213 259.265108 
L 524.195685 259.346228 
L 526.032305 259.680331 
L 527.903004 260.255633 
L 529.705544 261.036583 
L 531.44013 262.027697 
L 533.10676 263.241547 
L 534.773288 264.751788 
L 536.473896 266.605365 
L 540.623229 271.306971 
L 541.575618 271.956125 
L 542.425871 272.284533 
L 543.276124 272.373116 
L 544.126479 272.239357 
L 545.078766 271.858507 
L 546.167167 271.179497 
L 547.799718 269.853887 
L 552.187199 266.193677 
L 554.840094 264.292568 
L 556.982817 263.001527 
L 558.785358 262.167349 
L 560.451988 261.65215 
L 561.982505 261.409183 
L 563.615056 261.377364 
L 565.451675 261.570244 
L 568.206605 262.128458 
L 572.390017 262.990724 
L 573.206292 262.005698 
L 573.342304 261.979182 
L 573.478316 261.927328 
L 573.580351 261.977022 
L 573.61443 261.939899 
L 573.750442 261.972111 
L 573.818499 262.070516 
L 573.886454 262.019447 
L 573.988488 262.079747 
L 574.328671 262.503613 
L 574.464683 262.566466 
L 575.042912 263.406536 
L 577.763762 263.64145 
L 580.042599 263.623183 
L 582.287357 263.384734 
L 586.062631 262.948887 
L 587.491113 263.041399 
L 588.681447 263.333469 
L 589.871882 263.862417 
L 591.164353 264.697578 
L 593.5791 266.493604 
L 593.613179 266.414449 
L 593.749191 266.188767 
L 593.783168 266.228246 
L 594.361398 265.680246 
L 594.395375 265.735635 
L 594.429454 265.806541 
L 594.463432 265.693602 
L 594.531489 265.596573 
L 594.565466 265.615036 
L 594.633523 265.76883 
L 594.667501 265.660015 
L 594.735558 265.576735 
L 594.769535 265.605019 
L 594.837592 265.779436 
L 594.87157 265.676907 
L 594.939627 265.611697 
L 594.973604 265.651766 
L 595.041661 265.839539 
L 595.109616 265.698906 
L 595.177673 265.756652 
L 595.24573 265.950121 
L 595.313685 265.832272 
L 595.381742 265.920659 
L 595.449799 266.111968 
L 595.517754 266.021224 
L 595.585811 266.145359 
L 595.653868 266.325865 
L 595.721823 266.26694 
L 595.993948 266.779389 
L 596.027926 266.97443 
L 596.12996 266.931219 
L 596.334029 267.185774 
L 597.286419 266.91688 
L 598.476752 266.334704 
L 601.265762 264.616261 
L 603.612553 263.333469 
L 605.789254 262.385174 
L 608.170023 261.581637 
L 611.333091 260.766118 
L 615.448548 259.930172 
L 623.849349 258.537584 
L 627.182508 258.109986 
L 629.427265 258.052633 
L 632.284229 258.229211 
L 635.617286 258.388504 
L 639.324605 258.25612 
L 641.025111 258.343328 
L 642.317581 258.629113 
L 643.473937 259.107779 
L 644.630396 259.831964 
L 645.820729 260.854898 
L 647.079222 262.249254 
L 648.507704 263.946483 
L 650.072198 266.195445 
L 652.350933 269.915365 
L 654.969851 274.083309 
L 656.46639 276.05886 
L 657.758758 277.412951 
L 658.26893 277.732716 
L 659.289275 278.160706 
L 660.309619 278.349069 
L 661.364043 278.316463 
L 662.554376 278.047767 
L 663.982859 277.480714 
L 665.751523 276.52574 
L 668.030258 275.026302 
L 670.513062 273.125585 
L 672.723842 271.175569 
L 674.900543 268.962944 
L 677.009289 266.501657 
L 679.458115 263.284169 
L 686.634503 253.598903 
L 687.62087 252.457531 
L 687.62087 252.457531 
" clip-path="url(#pe1629a32cd)" style="fill: none; stroke: #1f77b4; stroke-width: 1.5; stroke-linecap: square"/>
   </g>
   <g id="line2d_32">
    <path d="M 76.211477 -1 
L 76.468625 24.41146 
L 76.706706 34.9804 
L 76.876763 42.335977 
L 77.2849 59.827005 
L 78.033153 84.579331 
L 79.223555 116.709625 
L 80.277911 139.409995 
L 81.298255 156.928914 
L 82.3186 170.824746 
L 83.406966 182.645838 
L 84.563357 192.824303 
L 85.85579 202.235569 
L 87.284272 211.00534 
L 88.882815 219.419992 
L 90.6174 227.365406 
L 92.522046 235.056265 
L 94.596743 242.515157 
L 96.773474 249.530542 
L 99.018232 256.017568 
L 101.262989 261.817336 
L 103.745834 267.592944 
L 107.419073 275.534429 
L 109.391736 279.374163 
L 110.820218 281.699137 
L 112.078639 283.347066 
L 113.269044 284.554631 
L 114.425431 285.419254 
L 115.54781 285.994163 
L 116.738215 286.351836 
L 117.962628 286.489916 
L 119.357102 286.422349 
L 121.22773 286.084318 
L 125.275099 285.285494 
L 126.635555 285.291976 
L 127.791942 285.516087 
L 128.846304 285.941916 
L 129.900657 286.61464 
L 130.955009 287.561561 
L 132.04338 288.844942 
L 133.199767 290.556117 
L 134.492206 292.880699 
L 135.954696 295.987212 
L 137.7233 300.289505 
L 139.593928 305.175546 
L 139.661954 305.031769 
L 144.185477 295.723622 
L 145.715994 293.158824 
L 146.974415 291.460416 
L 148.062786 290.341238 
L 149.049122 289.630017 
L 149.967432 289.235221 
L 150.851724 289.099301 
L 151.702017 289.189063 
L 152.586309 289.501757 
L 153.572645 290.095915 
L 154.661016 291.021426 
L 155.919437 292.392213 
L 157.51798 294.494648 
L 159.762738 297.875161 
L 164.966494 305.849252 
L 166.667061 307.990381 
L 168.027527 309.36706 
L 168.537699 309.707056 
L 169.626059 309.032956 
L 170.578388 308.689229 
L 171.462679 308.59711 
L 172.312973 308.727923 
L 173.163257 309.080686 
L 174.081566 309.711966 
L 174.285635 309.789943 
L 175.339988 308.756599 
L 176.530393 307.252643 
L 177.958875 305.065749 
L 179.965586 301.537924 
L 183.910849 294.517629 
L 185.407389 292.337609 
L 186.631802 290.915558 
L 187.720203 289.975119 
L 188.706468 289.408852 
L 189.624778 289.135441 
L 190.50911 289.10539 
L 191.393443 289.300627 
L 192.34573 289.753759 
L 193.366074 290.503085 
L 194.488453 291.615977 
L 195.780923 293.228944 
L 197.27736 295.468871 
L 199.046025 298.516655 
L 201.528829 303.280133 
L 205.712241 311.362056 
L 205.746218 311.409785 
L 205.780298 311.352038 
L 207.344792 308.926696 
L 208.535227 307.474004 
L 209.487515 306.640415 
L 210.30379 306.20555 
L 211.018031 306.063345 
L 211.698295 306.152125 
L 212.378456 306.470712 
L 213.092697 307.058781 
L 213.874995 307.999023 
L 214.793305 309.480195 
L 215.881707 311.704605 
L 215.915684 311.781207 
L 215.983741 311.670036 
L 217.344166 308.383409 
L 219.520867 302.438294 
L 224.520554 288.702344 
L 226.221162 284.702532 
L 227.54761 282.114753 
L 228.669988 280.375491 
L 229.656355 279.221351 
L 230.574665 278.474185 
L 231.390941 278.077818 
L 232.173136 277.931881 
L 232.955434 278.008287 
L 233.77171 278.31391 
L 234.69002 278.913568 
L 235.710364 279.862453 
L 236.934777 281.329483 
L 238.431316 283.489075 
L 240.53996 286.957582 
L 245.981864 296.086402 
L 247.512381 298.128538 
L 248.736794 299.41624 
L 249.757139 300.189922 
L 250.641369 300.602002 
L 251.457644 300.743815 
L 252.239942 300.647178 
L 253.02224 300.310325 
L 253.804436 299.725399 
L 254.654791 298.805583 
L 255.607079 297.429886 
L 256.6614 295.504225 
L 257.885814 292.795847 
L 259.45041 288.767947 
L 263.46373 278.129672 
L 264.892212 275.159275 
L 266.898923 271.579007 
L 269.653853 266.973055 
L 270.844187 265.428637 
L 271.932588 264.373884 
L 272.952932 263.69291 
L 273.90522 263.31481 
L 274.82353 263.174569 
L 275.775919 263.25176 
L 276.762184 263.559741 
L 277.816608 264.13406 
L 278.938986 265.009486 
L 280.197377 266.291492 
L 281.693916 268.164121 
L 283.768582 271.181265 
L 287.985972 277.395077 
L 289.550568 279.250028 
L 290.808958 280.41772 
L 291.89736 281.145048 
L 292.883624 281.551236 
L 293.801934 281.698155 
L 294.686267 281.622535 
L 295.604577 281.318876 
L 296.590943 280.747306 
L 297.679243 279.850078 
L 299.00569 278.457294 
L 303.087068 273.963692 
L 304.209446 273.203562 
L 305.501917 272.621386 
L 307.202525 271.846133 
L 308.222869 271.110359 
L 309.787363 269.647453 
L 311.521948 268.116981 
L 312.644327 267.419116 
L 313.664671 267.030212 
L 314.685016 266.872294 
L 315.739337 266.934558 
L 316.895796 267.238806 
L 318.120209 267.792895 
L 319.514611 268.666946 
L 321.147162 269.958576 
L 323.051839 271.748907 
L 325.772791 274.62522 
L 328.833824 277.790265 
L 330.466375 279.158302 
L 331.758743 279.962036 
L 332.881122 280.406525 
L 333.901467 280.575442 
L 334.853856 280.512982 
L 335.840121 280.214037 
L 336.860465 279.652681 
L 337.914889 278.813396 
L 339.139302 277.54121 
L 340.669819 275.595908 
L 345.805518 268.747476 
L 346.893919 267.821179 
L 347.812229 267.316783 
L 348.662482 267.100136 
L 349.478757 267.121938 
L 350.36309 267.374726 
L 351.519446 267.962402 
L 353.696147 269.108685 
L 354.784548 269.384845 
L 356.042939 269.459287 
L 358.559822 269.551406 
L 359.784235 269.851137 
L 361.110683 270.417404 
L 362.709256 271.363539 
L 365.124003 273.085909 
L 368.627253 275.533251 
L 370.327759 276.446192 
L 371.756241 276.972193 
L 373.014734 277.207696 
L 374.17109 277.207696 
L 375.293469 276.994585 
L 376.449825 276.551078 
L 377.708318 275.821786 
L 379.170778 274.69868 
L 381.279523 272.749842 
L 383.830384 270.436849 
L 385.088775 269.581851 
L 386.143096 269.115559 
L 387.163441 268.911876 
L 388.217865 268.939178 
L 391.721013 269.262086 
L 392.70738 268.95548 
L 393.96577 268.307897 
L 397.09486 266.585723 
L 398.285194 266.250245 
L 399.407573 266.165 
L 400.564031 266.306027 
L 401.788444 266.685895 
L 403.114892 267.329943 
L 404.815398 268.417301 
L 410.563406 272.32578 
L 411.923831 272.876334 
L 413.216301 273.164672 
L 414.474691 273.217901 
L 415.801139 273.047608 
L 417.331656 272.61569 
L 419.712425 271.672501 
L 421.685159 270.993098 
L 422.875492 270.810235 
L 423.929916 270.872696 
L 424.950261 271.164766 
L 426.03856 271.712963 
L 428.011294 273.024038 
L 429.235707 273.685174 
L 430.187994 273.949353 
L 431.106304 273.969584 
L 432.092671 273.768062 
L 433.385039 273.26013 
L 436.616163 271.872059 
L 437.840577 271.656984 
L 438.996933 271.668769 
L 440.255426 271.908789 
L 441.615851 272.398257 
L 443.384414 273.29411 
L 448.826318 276.243098 
L 450.288778 276.682676 
L 451.547168 276.834702 
L 452.771581 276.755154 
L 453.995995 276.446781 
L 455.322442 275.87305 
L 456.818981 274.975037 
L 458.791613 273.509971 
L 462.53291 270.671369 
L 463.893335 269.945416 
L 465.049793 269.573405 
L 466.104115 269.462626 
L 467.158437 269.578511 
L 468.246838 269.927935 
L 469.403194 270.530146 
L 470.729642 271.475103 
L 472.260158 272.851192 
L 473.926789 274.647219 
L 475.831363 277.028172 
L 478.1102 280.245856 
L 485.252611 290.664342 
L 486.817105 292.410087 
L 488.17753 293.610777 
L 489.401943 294.402725 
L 490.558401 294.878248 
L 491.612723 295.079574 
L 492.701124 295.063075 
L 493.823503 294.824627 
L 495.047916 294.336926 
L 496.442319 293.539478 
L 498.244961 292.233902 
L 502.360316 289.159011 
L 503.856855 288.390633 
L 505.353394 287.878184 
L 508.448405 286.904157 
L 509.672818 286.196864 
L 510.999265 285.152324 
L 512.665794 283.520501 
L 516.236999 279.929823 
L 517.563447 278.999991 
L 518.855917 278.36655 
L 520.148387 277.979414 
L 521.474835 277.807157 
L 522.903317 277.848601 
L 524.501788 278.1336 
L 526.236373 278.685136 
L 527.970959 279.469425 
L 529.705544 280.501983 
L 531.372175 281.76749 
L 532.902691 283.209182 
L 534.433208 284.95748 
L 536.133714 287.263009 
L 540.011022 292.703532 
L 540.929332 293.510212 
L 541.71163 293.922096 
L 542.459848 294.072354 
L 543.208169 293.997323 
L 544.024444 293.684236 
L 544.942754 293.084579 
L 546.065133 292.070287 
L 548.071742 289.882607 
L 550.928706 286.882552 
L 553.44559 284.570541 
L 555.62229 282.849741 
L 557.45891 281.682442 
L 558.989427 280.973774 
L 560.451988 280.550105 
L 561.846391 280.377848 
L 563.376907 280.425184 
L 565.111493 280.716665 
L 567.492364 281.364838 
L 572.253903 282.6547 
L 575.144947 283.193076 
L 577.525716 283.428186 
L 579.46437 283.408937 
L 581.471081 283.161453 
L 585.756528 282.527423 
L 586.980941 282.625631 
L 588.06924 282.928897 
L 589.089584 283.435453 
L 590.211963 284.250383 
L 591.708502 285.64415 
L 593.375031 287.127286 
L 594.259363 287.62245 
L 595.007582 287.801385 
L 595.78988 287.748942 
L 596.606155 287.466889 
L 597.626499 286.866838 
L 599.327107 285.553798 
L 601.911946 283.603782 
L 603.884577 282.399753 
L 605.925266 281.417084 
L 608.170023 280.57996 
L 611.129022 279.724372 
L 615.210399 278.779219 
L 624.223509 277.07433 
L 626.74029 276.747297 
L 628.713024 276.707228 
L 631.093794 276.89893 
L 634.869068 277.203964 
L 637.21586 277.122059 
L 639.834777 277.050563 
L 641.127145 277.247372 
L 642.215547 277.631954 
L 643.269869 278.239468 
L 644.324292 279.105073 
L 645.446671 280.327762 
L 646.637005 281.968423 
L 647.997532 284.248419 
L 649.698038 287.574721 
L 654.085518 296.380633 
L 655.377989 298.34872 
L 656.500367 299.66942 
L 657.520712 300.535417 
L 658.472999 301.05592 
L 659.391309 301.304975 
L 660.309619 301.324616 
L 661.295986 301.120737 
L 662.418365 300.659159 
L 663.812869 299.83657 
L 665.615409 298.497996 
L 667.894247 296.519499 
L 670.308993 294.136975 
L 672.485796 291.694544 
L 674.560462 289.043715 
L 676.703185 285.932881 
L 679.322103 281.689709 
L 684.899917 272.520035 
L 687.04264 269.495231 
L 687.62087 268.751404 
L 687.62087 268.751404 
" clip-path="url(#pe1629a32cd)" style="fill: none; stroke: #ff7f0e; stroke-width: 1.5; stroke-linecap: square"/>
   </g>
   <g id="patch_3">
    <path d="M 45.875301 326.285074 
L 45.875301 7.2 
" style="fill: none; stroke: #000000; stroke-width: 0.8; stroke-linejoin: miter; stroke-linecap: square"/>
   </g>
   <g id="patch_4">
    <path d="M 718.180182 326.285074 
L 718.180182 7.2 
" style="fill: none; stroke: #000000; stroke-width: 0.8; stroke-linejoin: miter; stroke-linecap: square"/>
   </g>
   <g id="patch_5">
    <path d="M 45.875301 326.285074 
L 718.180182 326.285074 
" style="fill: none; stroke: #000000; stroke-width: 0.8; stroke-linejoin: miter; stroke-linecap: square"/>
   </g>
   <g id="patch_6">
    <path d="M 45.875301 7.2 
L 718.180182 7.2 
" style="fill: none; stroke: #000000; stroke-width: 0.8; stroke-linejoin: miter; stroke-linecap: square"/>
   </g>
   <g id="legend_1">
    <g id="patch_7">
     <path d="M 624.052605 68.188574 
L 706.280182 68.188574 
Q 709.680182 68.188574 709.680182 64.788574 
L 709.680182 19.1 
Q 709.680182 15.7 706.280182 15.7 
L 624.052605 15.7 
Q 620.652605 15.7 620.652605 19.1 
L 620.652605 64.788574 
Q 620.652605 68.188574 624.052605 68.188574 
z
" style="fill: #ffffff; opacity: 0.8; stroke: #cccccc; stroke-linejoin: miter"/>
    </g>
    <g id="line2d_33">
     <path d="M 627.452605 28.45 
L 644.452605 28.45 
L 661.452605 28.45 
" style="fill: none; stroke: #1f77b4; stroke-width: 1.5; stroke-linecap: square"/>
    </g>
    <g id="text_18">
     <!-- $Re_h$ -->
     <g transform="translate(675.052605 34.4)scale(0.17 -0.17)">
      <defs>
       <path id="CMMI12-68" d="M 1798 4257 
C 1805 4283 1818 4321 1818 4352 
C 1818 4416 1754 4416 1741 4416 
C 1734 4416 1421 4388 1389 4380 
C 1280 4373 1184 4358 1069 4358 
C 909 4345 864 4339 864 4224 
C 864 4160 915 4160 1005 4160 
C 1318 4160 1325 4103 1325 4040 
C 1325 4002 1312 3951 1306 3932 
L 378 248 
C 352 152 352 140 352 101 
C 352 -38 461 -64 525 -64 
C 634 -64 717 19 749 89 
L 1037 1245 
C 1069 1386 1107 1520 1139 1660 
C 1210 1929 1210 1935 1331 2120 
C 1453 2305 1741 2689 2234 2689 
C 2490 2689 2579 2497 2579 2242 
C 2579 1884 2330 1188 2189 805 
C 2131 651 2099 568 2099 453 
C 2099 166 2298 -64 2605 -64 
C 3200 -64 3424 875 3424 913 
C 3424 945 3398 971 3360 971 
C 3302 971 3296 952 3264 843 
C 3117 332 2880 64 2624 64 
C 2560 64 2458 64 2458 269 
C 2458 436 2534 640 2560 710 
C 2675 1018 2963 1773 2963 2145 
C 2963 2528 2739 2816 2253 2816 
C 1888 2816 1568 2644 1306 2312 
L 1798 4257 
z
" transform="scale(0.015625)"/>
      </defs>
      <use xlink:href="#CMMI12-52" transform="scale(0.996264)"/>
      <use xlink:href="#CMMI12-65" transform="translate(75.070962 0)scale(0.996264)"/>
      <use xlink:href="#CMMI12-68" transform="translate(120.282963 -14.943915)scale(0.697382)"/>
     </g>
    </g>
    <g id="line2d_34">
     <path d="M 627.452605 52.144287 
L 644.452605 52.144287 
L 661.452605 52.144287 
" style="fill: none; stroke: #ff7f0e; stroke-width: 1.5; stroke-linecap: square"/>
    </g>
    <g id="text_19">
     <!-- $Re_{\omega}$ -->
     <g transform="translate(675.052605 58.094287)scale(0.17 -0.17)">
      <defs>
       <path id="CMMI12-21" d="M 3802 2395 
C 3802 2580 3750 2816 3526 2816 
C 3398 2816 3251 2657 3251 2529 
C 3251 2472 3277 2434 3328 2376 
C 3424 2268 3546 2096 3546 1797 
C 3546 1567 3405 1204 3302 1007 
C 3123 656 2829 357 2496 357 
C 2093 357 1939 615 1869 975 
C 1939 1143 2086 1560 2086 1728 
C 2086 1798 2061 1856 1978 1856 
C 1933 1856 1882 1831 1850 1779 
C 1760 1638 1677 1129 1683 994 
C 1562 756 1216 357 806 357 
C 378 357 262 733 262 1096 
C 262 1758 678 2338 794 2497 
C 858 2593 902 2657 902 2669 
C 902 2714 877 2784 819 2784 
C 717 2784 685 2701 634 2625 
C 307 2121 77 1414 77 803 
C 77 408 224 -64 704 -64 
C 1235 -64 1568 391 1702 634 
C 1754 275 1946 -64 2413 -64 
C 2899 -64 3206 363 3437 879 
C 3603 1249 3802 2045 3802 2395 
z
" transform="scale(0.015625)"/>
      </defs>
      <use xlink:href="#CMMI12-52" transform="scale(0.996264)"/>
      <use xlink:href="#CMMI12-65" transform="translate(75.070962 0)scale(0.996264)"/>
      <use xlink:href="#CMMI12-21" transform="translate(120.282963 -14.943915)scale(0.697382)"/>
     </g>
    </g>
   </g>
  </g>
 </g>
 <defs>
  <clipPath id="pe1629a32cd">
   <rect x="45.875301" y="7.2" width="672.304882" height="319.085074"/>
  </clipPath>
 </defs>
</svg>
