<?xml version="1.0" encoding="utf-8" standalone="no"?>
<!DOCTYPE svg PUBLIC "-//W3C//DTD SVG 1.1//EN"
  "http://www.w3.org/Graphics/SVG/1.1/DTD/svg11.dtd">
<svg xmlns:xlink="http://www.w3.org/1999/xlink" width="728.39952pt" height="543.680635pt" viewBox="0 0 728.39952 543.680635" xmlns="http://www.w3.org/2000/svg" version="1.1">
 <metadata>
  <rdf:RDF xmlns:dc="http://purl.org/dc/elements/1.1/" xmlns:cc="http://creativecommons.org/ns#" xmlns:rdf="http://www.w3.org/1999/02/22-rdf-syntax-ns#">
   <cc:Work>
    <dc:type rdf:resource="http://purl.org/dc/dcmitype/StillImage"/>
    <dc:date>2022-03-12T01:28:25.577066</dc:date>
    <dc:format>image/svg+xml</dc:format>
    <dc:creator>
     <cc:Agent>
      <dc:title>Matplotlib v3.5.1, https://matplotlib.org/</dc:title>
     </cc:Agent>
    </dc:creator>
   </cc:Work>
  </rdf:RDF>
 </metadata>
 <defs>
  <style type="text/css">*{stroke-linejoin: round; stroke-linecap: butt}</style>
 </defs>
 <g id="figure_1">
  <g id="patch_1">
   <path d="M 0 543.680635 
L 728.39952 543.680635 
L 728.39952 -0 
L 0 -0 
z
" style="fill: #ffffff"/>
  </g>
  <g id="axes_1">
   <g id="patch_2">
    <path d="M 47.866567 230.329931 
L 359.470716 230.329931 
L 359.470716 23.550058 
L 47.866567 23.550058 
z
" style="fill: #ffffff"/>
   </g>
   <g id="matplotlib.axis_1">
    <g id="xtick_1">
     <g id="line2d_1">
      <path d="M 62.030392 230.329931 
L 62.030392 23.550058 
" clip-path="url(#p02e5878bf1)" style="fill: none; stroke-dasharray: 0.8,1.32; stroke-dashoffset: 0; stroke: #b0b0b0; stroke-width: 0.8"/>
     </g>
     <g id="line2d_2">
      <defs>
       <path id="md29201f5ed" d="M 0 0 
L 0 3.5 
" style="stroke: #000000; stroke-width: 0.8"/>
      </defs>
      <g>
       <use xlink:href="#md29201f5ed" x="62.030392" y="230.329931" style="stroke: #000000; stroke-width: 0.8"/>
      </g>
     </g>
    </g>
    <g id="xtick_2">
     <g id="line2d_3">
      <path d="M 118.685692 230.329931 
L 118.685692 23.550058 
" clip-path="url(#p02e5878bf1)" style="fill: none; stroke-dasharray: 0.8,1.32; stroke-dashoffset: 0; stroke: #b0b0b0; stroke-width: 0.8"/>
     </g>
     <g id="line2d_4">
      <g>
       <use xlink:href="#md29201f5ed" x="118.685692" y="230.329931" style="stroke: #000000; stroke-width: 0.8"/>
      </g>
     </g>
    </g>
    <g id="xtick_3">
     <g id="line2d_5">
      <path d="M 175.340992 230.329931 
L 175.340992 23.550058 
" clip-path="url(#p02e5878bf1)" style="fill: none; stroke-dasharray: 0.8,1.32; stroke-dashoffset: 0; stroke: #b0b0b0; stroke-width: 0.8"/>
     </g>
     <g id="line2d_6">
      <g>
       <use xlink:href="#md29201f5ed" x="175.340992" y="230.329931" style="stroke: #000000; stroke-width: 0.8"/>
      </g>
     </g>
    </g>
    <g id="xtick_4">
     <g id="line2d_7">
      <path d="M 231.996291 230.329931 
L 231.996291 23.550058 
" clip-path="url(#p02e5878bf1)" style="fill: none; stroke-dasharray: 0.8,1.32; stroke-dashoffset: 0; stroke: #b0b0b0; stroke-width: 0.8"/>
     </g>
     <g id="line2d_8">
      <g>
       <use xlink:href="#md29201f5ed" x="231.996291" y="230.329931" style="stroke: #000000; stroke-width: 0.8"/>
      </g>
     </g>
    </g>
    <g id="xtick_5">
     <g id="line2d_9">
      <path d="M 288.651591 230.329931 
L 288.651591 23.550058 
" clip-path="url(#p02e5878bf1)" style="fill: none; stroke-dasharray: 0.8,1.32; stroke-dashoffset: 0; stroke: #b0b0b0; stroke-width: 0.8"/>
     </g>
     <g id="line2d_10">
      <g>
       <use xlink:href="#md29201f5ed" x="288.651591" y="230.329931" style="stroke: #000000; stroke-width: 0.8"/>
      </g>
     </g>
    </g>
    <g id="xtick_6">
     <g id="line2d_11">
      <path d="M 345.306891 230.329931 
L 345.306891 23.550058 
" clip-path="url(#p02e5878bf1)" style="fill: none; stroke-dasharray: 0.8,1.32; stroke-dashoffset: 0; stroke: #b0b0b0; stroke-width: 0.8"/>
     </g>
     <g id="line2d_12">
      <g>
       <use xlink:href="#md29201f5ed" x="345.306891" y="230.329931" style="stroke: #000000; stroke-width: 0.8"/>
      </g>
     </g>
    </g>
   </g>
   <g id="matplotlib.axis_2">
    <g id="ytick_1">
     <g id="line2d_13">
      <path d="M 47.866567 220.930846 
L 359.470716 220.930846 
" clip-path="url(#p02e5878bf1)" style="fill: none; stroke-dasharray: 0.8,1.32; stroke-dashoffset: 0; stroke: #b0b0b0; stroke-width: 0.8"/>
     </g>
     <g id="line2d_14">
      <defs>
       <path id="m864b4c1a4b" d="M 0 0 
L -3.5 0 
" style="stroke: #000000; stroke-width: 0.8"/>
      </defs>
      <g>
       <use xlink:href="#m864b4c1a4b" x="47.866567" y="220.930846" style="stroke: #000000; stroke-width: 0.8"/>
      </g>
     </g>
     <g id="text_1">
      <!-- $\mathdefault{0.0}$ -->
      <g transform="translate(28.136488 223.974987)scale(0.1 -0.1)">
       <defs>
        <path id="CMR17-30" d="M 2688 2025 
C 2688 2416 2682 3080 2413 3591 
C 2176 4039 1798 4198 1466 4198 
C 1158 4198 768 4058 525 3597 
C 269 3118 243 2524 243 2025 
C 243 1661 250 1106 448 619 
C 723 -39 1216 -128 1466 -128 
C 1760 -128 2208 -7 2470 600 
C 2662 1042 2688 1559 2688 2025 
z
M 1466 -26 
C 1056 -26 813 325 723 812 
C 653 1188 653 1738 653 2096 
C 653 2588 653 2997 736 3387 
C 858 3929 1216 4096 1466 4096 
C 1728 4096 2067 3923 2189 3400 
C 2272 3036 2278 2607 2278 2096 
C 2278 1680 2278 1169 2202 792 
C 2067 95 1690 -26 1466 -26 
z
" transform="scale(0.015625)"/>
        <path id="CMMI12-3a" d="M 1178 307 
C 1178 492 1024 619 870 619 
C 685 619 557 466 557 313 
C 557 128 710 0 864 0 
C 1050 0 1178 153 1178 307 
z
" transform="scale(0.015625)"/>
       </defs>
       <use xlink:href="#CMR17-30" transform="scale(0.996264)"/>
       <use xlink:href="#CMMI12-3a" transform="translate(45.690477 0)scale(0.996264)"/>
       <use xlink:href="#CMR17-30" transform="translate(72.787654 0)scale(0.996264)"/>
      </g>
     </g>
    </g>
    <g id="ytick_2">
     <g id="line2d_15">
      <path d="M 47.866567 183.334505 
L 359.470716 183.334505 
" clip-path="url(#p02e5878bf1)" style="fill: none; stroke-dasharray: 0.8,1.32; stroke-dashoffset: 0; stroke: #b0b0b0; stroke-width: 0.8"/>
     </g>
     <g id="line2d_16">
      <g>
       <use xlink:href="#m864b4c1a4b" x="47.866567" y="183.334505" style="stroke: #000000; stroke-width: 0.8"/>
      </g>
     </g>
     <g id="text_2">
      <!-- $\mathdefault{0.2}$ -->
      <g transform="translate(28.136488 186.378647)scale(0.1 -0.1)">
       <defs>
        <path id="CMR17-32" d="M 2669 989 
L 2554 989 
C 2490 536 2438 459 2413 420 
C 2381 369 1920 369 1830 369 
L 602 369 
C 832 619 1280 1072 1824 1597 
C 2214 1967 2669 2402 2669 3035 
C 2669 3790 2067 4224 1395 4224 
C 691 4224 262 3604 262 3030 
C 262 2780 448 2748 525 2748 
C 589 2748 781 2787 781 3010 
C 781 3207 614 3264 525 3264 
C 486 3264 448 3258 422 3245 
C 544 3790 915 4058 1306 4058 
C 1862 4058 2227 3617 2227 3035 
C 2227 2479 1901 2000 1536 1584 
L 262 146 
L 262 0 
L 2515 0 
L 2669 989 
z
" transform="scale(0.015625)"/>
       </defs>
       <use xlink:href="#CMR17-30" transform="scale(0.996264)"/>
       <use xlink:href="#CMMI12-3a" transform="translate(45.690477 0)scale(0.996264)"/>
       <use xlink:href="#CMR17-32" transform="translate(72.787654 0)scale(0.996264)"/>
      </g>
     </g>
    </g>
    <g id="ytick_3">
     <g id="line2d_17">
      <path d="M 47.866567 145.738164 
L 359.470716 145.738164 
" clip-path="url(#p02e5878bf1)" style="fill: none; stroke-dasharray: 0.8,1.32; stroke-dashoffset: 0; stroke: #b0b0b0; stroke-width: 0.8"/>
     </g>
     <g id="line2d_18">
      <g>
       <use xlink:href="#m864b4c1a4b" x="47.866567" y="145.738164" style="stroke: #000000; stroke-width: 0.8"/>
      </g>
     </g>
     <g id="text_3">
      <!-- $\mathdefault{0.4}$ -->
      <g transform="translate(28.136488 148.782306)scale(0.1 -0.1)">
       <defs>
        <path id="CMR17-34" d="M 2150 4122 
C 2150 4256 2144 4256 2029 4256 
L 128 1254 
L 128 1088 
L 1779 1088 
L 1779 457 
C 1779 224 1766 160 1318 160 
L 1197 160 
L 1197 0 
C 1402 0 1747 0 1965 0 
C 2182 0 2528 0 2733 0 
L 2733 160 
L 2611 160 
C 2163 160 2150 224 2150 457 
L 2150 1088 
L 2803 1088 
L 2803 1254 
L 2150 1254 
L 2150 4122 
z
M 1798 3703 
L 1798 1254 
L 256 1254 
L 1798 3703 
z
" transform="scale(0.015625)"/>
       </defs>
       <use xlink:href="#CMR17-30" transform="scale(0.996264)"/>
       <use xlink:href="#CMMI12-3a" transform="translate(45.690477 0)scale(0.996264)"/>
       <use xlink:href="#CMR17-34" transform="translate(72.787654 0)scale(0.996264)"/>
      </g>
     </g>
    </g>
    <g id="ytick_4">
     <g id="line2d_19">
      <path d="M 47.866567 108.141824 
L 359.470716 108.141824 
" clip-path="url(#p02e5878bf1)" style="fill: none; stroke-dasharray: 0.8,1.32; stroke-dashoffset: 0; stroke: #b0b0b0; stroke-width: 0.8"/>
     </g>
     <g id="line2d_20">
      <g>
       <use xlink:href="#m864b4c1a4b" x="47.866567" y="108.141824" style="stroke: #000000; stroke-width: 0.8"/>
      </g>
     </g>
     <g id="text_4">
      <!-- $\mathdefault{0.6}$ -->
      <g transform="translate(28.136488 111.185966)scale(0.1 -0.1)">
       <defs>
        <path id="CMR17-36" d="M 678 2176 
C 678 3690 1395 4032 1811 4032 
C 1946 4032 2272 4009 2400 3776 
C 2298 3776 2106 3776 2106 3553 
C 2106 3381 2246 3323 2336 3323 
C 2394 3323 2566 3348 2566 3560 
C 2566 3954 2246 4179 1805 4179 
C 1043 4179 243 3390 243 1984 
C 243 253 966 -128 1478 -128 
C 2099 -128 2688 427 2688 1283 
C 2688 2081 2170 2662 1517 2662 
C 1126 2662 838 2407 678 1960 
L 678 2176 
z
M 1478 25 
C 691 25 691 1200 691 1436 
C 691 1896 909 2560 1504 2560 
C 1613 2560 1926 2560 2138 2120 
C 2253 1870 2253 1609 2253 1289 
C 2253 944 2253 690 2118 434 
C 1978 171 1773 25 1478 25 
z
" transform="scale(0.015625)"/>
       </defs>
       <use xlink:href="#CMR17-30" transform="scale(0.996264)"/>
       <use xlink:href="#CMMI12-3a" transform="translate(45.690477 0)scale(0.996264)"/>
       <use xlink:href="#CMR17-36" transform="translate(72.787654 0)scale(0.996264)"/>
      </g>
     </g>
    </g>
    <g id="ytick_5">
     <g id="line2d_21">
      <path d="M 47.866567 70.545483 
L 359.470716 70.545483 
" clip-path="url(#p02e5878bf1)" style="fill: none; stroke-dasharray: 0.8,1.32; stroke-dashoffset: 0; stroke: #b0b0b0; stroke-width: 0.8"/>
     </g>
     <g id="line2d_22">
      <g>
       <use xlink:href="#m864b4c1a4b" x="47.866567" y="70.545483" style="stroke: #000000; stroke-width: 0.8"/>
      </g>
     </g>
     <g id="text_5">
      <!-- $\mathdefault{0.8}$ -->
      <g transform="translate(28.136488 73.589625)scale(0.1 -0.1)">
       <defs>
        <path id="CMR17-38" d="M 1741 2264 
C 2144 2467 2554 2773 2554 3263 
C 2554 3841 1990 4179 1472 4179 
C 890 4179 378 3759 378 3180 
C 378 3021 416 2747 666 2505 
C 730 2442 998 2251 1171 2130 
C 883 1983 211 1634 211 934 
C 211 279 838 -128 1459 -128 
C 2144 -128 2720 362 2720 1010 
C 2720 1590 2330 1857 2074 2029 
L 1741 2264 
z
M 902 2822 
C 851 2854 595 3051 595 3351 
C 595 3739 998 4032 1459 4032 
C 1965 4032 2336 3676 2336 3262 
C 2336 2669 1670 2331 1638 2331 
C 1632 2331 1626 2331 1574 2370 
L 902 2822 
z
M 2080 1519 
C 2176 1449 2483 1240 2483 851 
C 2483 381 2010 25 1472 25 
C 890 25 448 438 448 940 
C 448 1443 838 1862 1280 2060 
L 2080 1519 
z
" transform="scale(0.015625)"/>
       </defs>
       <use xlink:href="#CMR17-30" transform="scale(0.996264)"/>
       <use xlink:href="#CMMI12-3a" transform="translate(45.690477 0)scale(0.996264)"/>
       <use xlink:href="#CMR17-38" transform="translate(72.787654 0)scale(0.996264)"/>
      </g>
     </g>
    </g>
    <g id="ytick_6">
     <g id="line2d_23">
      <path d="M 47.866567 32.949143 
L 359.470716 32.949143 
" clip-path="url(#p02e5878bf1)" style="fill: none; stroke-dasharray: 0.8,1.32; stroke-dashoffset: 0; stroke: #b0b0b0; stroke-width: 0.8"/>
     </g>
     <g id="line2d_24">
      <g>
       <use xlink:href="#m864b4c1a4b" x="47.866567" y="32.949143" style="stroke: #000000; stroke-width: 0.8"/>
      </g>
     </g>
     <g id="text_6">
      <!-- $\mathdefault{1.0}$ -->
      <g transform="translate(28.136488 35.993284)scale(0.1 -0.1)">
       <defs>
        <path id="CMR17-31" d="M 1702 4058 
C 1702 4192 1696 4192 1606 4192 
C 1357 3916 979 3827 621 3827 
C 602 3827 570 3827 563 3808 
C 557 3795 557 3782 557 3648 
C 755 3648 1088 3686 1344 3839 
L 1344 461 
C 1344 236 1331 160 781 160 
L 589 160 
L 589 0 
C 896 0 1216 0 1523 0 
C 1830 0 2150 0 2458 0 
L 2458 160 
L 2266 160 
C 1715 160 1702 230 1702 458 
L 1702 4058 
z
" transform="scale(0.015625)"/>
       </defs>
       <use xlink:href="#CMR17-31" transform="scale(0.996264)"/>
       <use xlink:href="#CMMI12-3a" transform="translate(45.690477 0)scale(0.996264)"/>
       <use xlink:href="#CMR17-30" transform="translate(72.787654 0)scale(0.996264)"/>
      </g>
     </g>
    </g>
    <g id="text_7">
     <!-- $\omega^* h / (c\,\pi) $ -->
     <g transform="translate(19.902366 160.524068)rotate(-90)scale(0.17 -0.17)">
      <defs>
       <path id="CMMI12-21" d="M 3802 2395 
C 3802 2580 3750 2816 3526 2816 
C 3398 2816 3251 2657 3251 2529 
C 3251 2472 3277 2434 3328 2376 
C 3424 2268 3546 2096 3546 1797 
C 3546 1567 3405 1204 3302 1007 
C 3123 656 2829 357 2496 357 
C 2093 357 1939 615 1869 975 
C 1939 1143 2086 1560 2086 1728 
C 2086 1798 2061 1856 1978 1856 
C 1933 1856 1882 1831 1850 1779 
C 1760 1638 1677 1129 1683 994 
C 1562 756 1216 357 806 357 
C 378 357 262 733 262 1096 
C 262 1758 678 2338 794 2497 
C 858 2593 902 2657 902 2669 
C 902 2714 877 2784 819 2784 
C 717 2784 685 2701 634 2625 
C 307 2121 77 1414 77 803 
C 77 408 224 -64 704 -64 
C 1235 -64 1568 391 1702 634 
C 1754 275 1946 -64 2413 -64 
C 2899 -64 3206 363 3437 879 
C 3603 1249 3802 2045 3802 2395 
z
" transform="scale(0.015625)"/>
       <path id="CMSY10-3" d="M 1760 2719 
C 1766 2808 1766 2962 1600 2962 
C 1498 2962 1414 2879 1434 2795 
L 1434 2712 
L 1523 1720 
L 704 2316 
C 646 2348 634 2360 589 2360 
C 499 2360 416 2271 416 2181 
C 416 2079 480 2053 544 2021 
L 1453 1586 
L 570 1158 
C 467 1107 416 1081 416 985 
C 416 889 499 806 589 806 
C 634 806 646 806 806 928 
L 1523 1446 
L 1427 371 
C 1427 236 1542 204 1594 204 
C 1670 204 1766 248 1766 371 
L 1670 1446 
L 2490 851 
C 2547 819 2560 806 2605 806 
C 2694 806 2778 896 2778 985 
C 2778 1081 2720 1113 2643 1152 
C 2259 1343 2246 1343 1741 1580 
L 2624 2008 
C 2726 2060 2778 2085 2778 2181 
C 2778 2277 2694 2360 2605 2360 
C 2560 2360 2547 2360 2387 2239 
L 1670 1720 
L 1760 2719 
z
" transform="scale(0.015625)"/>
       <path id="CMMI12-68" d="M 1798 4257 
C 1805 4283 1818 4321 1818 4352 
C 1818 4416 1754 4416 1741 4416 
C 1734 4416 1421 4388 1389 4380 
C 1280 4373 1184 4358 1069 4358 
C 909 4345 864 4339 864 4224 
C 864 4160 915 4160 1005 4160 
C 1318 4160 1325 4103 1325 4040 
C 1325 4002 1312 3951 1306 3932 
L 378 248 
C 352 152 352 140 352 101 
C 352 -38 461 -64 525 -64 
C 634 -64 717 19 749 89 
L 1037 1245 
C 1069 1386 1107 1520 1139 1660 
C 1210 1929 1210 1935 1331 2120 
C 1453 2305 1741 2689 2234 2689 
C 2490 2689 2579 2497 2579 2242 
C 2579 1884 2330 1188 2189 805 
C 2131 651 2099 568 2099 453 
C 2099 166 2298 -64 2605 -64 
C 3200 -64 3424 875 3424 913 
C 3424 945 3398 971 3360 971 
C 3302 971 3296 952 3264 843 
C 3117 332 2880 64 2624 64 
C 2560 64 2458 64 2458 269 
C 2458 436 2534 640 2560 710 
C 2675 1018 2963 1773 2963 2145 
C 2963 2528 2739 2816 2253 2816 
C 1888 2816 1568 2644 1306 2312 
L 1798 4257 
z
" transform="scale(0.015625)"/>
       <path id="CMMI12-3d" d="M 2746 4562 
C 2746 4569 2784 4666 2784 4678 
C 2784 4755 2720 4800 2669 4800 
C 2637 4800 2579 4800 2528 4659 
L 384 -1363 
C 384 -1370 346 -1465 346 -1478 
C 346 -1555 410 -1600 461 -1600 
C 499 -1600 557 -1593 602 -1459 
L 2746 4562 
z
" transform="scale(0.015625)"/>
       <path id="CMR17-28" d="M 1958 -1561 
C 1958 -1555 1958 -1542 1939 -1523 
C 1645 -1224 858 -407 858 1581 
C 858 3569 1632 4379 1946 4697 
C 1946 4704 1958 4717 1958 4736 
C 1958 4755 1939 4768 1914 4768 
C 1843 4768 1299 4296 986 3594 
C 666 2887 576 2199 576 1588 
C 576 1128 621 351 1005 -471 
C 1312 -1135 1837 -1600 1914 -1600 
C 1946 -1600 1958 -1587 1958 -1561 
z
" transform="scale(0.015625)"/>
       <path id="CMMI12-63" d="M 2502 2431 
C 2381 2431 2323 2431 2234 2355 
C 2195 2323 2125 2227 2125 2125 
C 2125 1997 2221 1920 2342 1920 
C 2496 1920 2669 2044 2669 2292 
C 2669 2588 2374 2816 1933 2816 
C 1094 2816 256 1903 256 996 
C 256 441 602 -64 1254 -64 
C 2125 -64 2675 622 2675 706 
C 2675 744 2637 776 2611 776 
C 2592 776 2586 770 2528 713 
C 2118 162 1510 64 1267 64 
C 826 64 685 446 685 764 
C 685 988 794 1605 1024 2039 
C 1190 2338 1536 2682 1939 2682 
C 2022 2682 2374 2682 2502 2431 
z
" transform="scale(0.015625)"/>
       <path id="CMMI12-19" d="M 1658 2408 
L 2381 2408 
C 2208 1692 2099 1226 2099 716 
C 2099 626 2099 -64 2362 -64 
C 2496 -64 2611 57 2611 166 
C 2611 197 2611 210 2566 306 
C 2394 747 2394 1296 2394 1341 
C 2394 1379 2394 1832 2528 2408 
L 3245 2408 
C 3328 2408 3539 2408 3539 2612 
C 3539 2752 3418 2752 3302 2752 
L 1197 2752 
C 1050 2752 832 2752 538 2440 
C 371 2254 166 1916 166 1878 
C 166 1840 198 1827 237 1827 
C 282 1827 288 1846 320 1884 
C 653 2408 986 2408 1146 2408 
L 1510 2408 
C 1370 1929 1210 1373 685 256 
C 634 154 634 140 634 102 
C 634 -32 749 -64 806 -64 
C 992 -64 1043 102 1120 370 
C 1222 696 1222 709 1286 964 
L 1658 2408 
z
" transform="scale(0.015625)"/>
       <path id="CMR17-29" d="M 1683 1581 
C 1683 2040 1638 2817 1254 3639 
C 947 4303 422 4768 346 4768 
C 326 4768 301 4761 301 4729 
C 301 4717 307 4710 314 4697 
C 621 4378 1402 3568 1402 1584 
C 1402 -407 627 -1217 314 -1537 
C 307 -1549 301 -1556 301 -1568 
C 301 -1600 326 -1600 346 -1600 
C 416 -1600 960 -1128 1274 -426 
C 1594 281 1683 969 1683 1581 
z
" transform="scale(0.015625)"/>
      </defs>
      <use xlink:href="#CMMI12-21" transform="scale(0.996264)"/>
      <use xlink:href="#CMSY10-3" transform="translate(64.318346 36.153639)scale(0.697382)"/>
      <use xlink:href="#CMMI12-68" transform="translate(99.685688 0)scale(0.996264)"/>
      <use xlink:href="#CMMI12-3d" transform="translate(155.840312 0)scale(0.996264)"/>
      <use xlink:href="#CMR17-28" transform="translate(204.615231 0)scale(0.996264)"/>
      <use xlink:href="#CMMI12-63" transform="translate(239.895999 0)scale(0.996264)"/>
      <use xlink:href="#CMMI12-19" transform="translate(298.483637 0)scale(0.996264)"/>
      <use xlink:href="#CMR17-29" transform="translate(357.394238 0)scale(0.996264)"/>
     </g>
    </g>
   </g>
   <g id="line2d_25">
    <path d="M 62.030392 220.930846 
L 83.329377 206.927951 
L 94.688836 199.729497 
L 103.918396 194.123093 
L 112.43799 189.195735 
L 120.247617 184.926652 
L 127.347279 181.279084 
L 134.446941 177.877209 
L 140.836636 175.043044 
L 147.226332 172.439211 
L 153.616027 170.07878 
L 160.005723 167.973599 
L 165.685452 166.325183 
L 171.365181 164.893352 
L 177.04491 163.683785 
L 182.72464 162.701279 
L 188.404369 161.949732 
L 194.084098 161.432125 
L 199.763828 161.150509 
L 205.443557 161.106003 
L 211.123286 161.298783 
L 216.803016 161.728084 
L 222.482745 162.392204 
L 228.162474 163.288508 
L 233.842204 164.413441 
L 239.521933 165.762541 
L 245.201662 167.330459 
L 250.881391 169.110973 
L 257.271087 171.359348 
L 263.660782 173.856544 
L 270.050478 176.590029 
L 277.150139 179.887635 
L 284.249801 183.439556 
L 292.059429 187.61409 
L 299.869057 192.038389 
L 308.388651 197.110735 
L 318.328177 203.293747 
L 330.397602 211.082092 
L 345.306891 220.930846 
L 345.306891 220.930846 
" clip-path="url(#p02e5878bf1)" style="fill: none; stroke: #1f77b4; stroke-width: 1.5; stroke-linecap: square"/>
   </g>
   <g id="line2d_26">
    <path d="M 62.030392 220.930846 
L 114.567888 186.195697 
L 129.477178 176.610217 
L 140.836636 169.563762 
L 150.066196 164.089901 
L 157.875824 159.693443 
L 164.975486 155.928642 
L 171.365181 152.763804 
L 177.754877 149.842667 
L 183.434606 147.476241 
L 189.114335 145.349743 
L 194.084098 143.703379 
L 199.053862 142.2724 
L 204.023625 141.07103 
L 208.993388 140.112906 
L 213.963151 139.410919 
L 218.222948 139.022191 
L 222.482745 138.837396 
L 226.742542 138.862821 
L 231.002339 139.104042 
L 235.262136 139.565862 
L 239.521933 140.252254 
L 243.78173 141.166303 
L 248.041527 142.310165 
L 252.301324 143.685019 
L 256.561121 145.291032 
L 260.820918 147.127332 
L 265.080715 149.191985 
L 269.340512 151.481978 
L 273.600309 153.993214 
L 278.570072 157.195642 
L 283.539835 160.682028 
L 288.509598 164.440334 
L 293.479361 168.456613 
L 299.15909 173.342213 
L 304.83882 178.51777 
L 311.228515 184.650555 
L 318.328177 191.79687 
L 326.137805 199.983972 
L 336.077331 210.751466 
L 345.306891 220.930846 
L 345.306891 220.930846 
" clip-path="url(#p02e5878bf1)" style="fill: none; stroke: #ff7f0e; stroke-width: 1.5; stroke-linecap: square"/>
   </g>
   <g id="line2d_27">
    <path d="M 62.030392 220.930846 
L 139.416704 169.704443 
L 155.035959 159.644037 
L 166.395418 152.590487 
L 175.624978 147.129336 
L 183.434606 142.774547 
L 189.824301 139.444735 
L 196.213997 136.370893 
L 201.893726 133.891169 
L 206.863489 131.944825 
L 211.833252 130.232222 
L 216.803016 128.777917 
L 221.062813 127.755674 
L 225.32261 126.95677 
L 229.582407 126.396326 
L 233.842204 126.088973 
L 237.392034 126.036265 
L 240.941865 126.17663 
L 244.491696 126.517179 
L 248.041527 127.064448 
L 251.591358 127.824315 
L 255.141188 128.801933 
L 258.691019 130.001657 
L 262.24085 131.426979 
L 265.790681 133.080468 
L 269.340512 134.963715 
L 272.890342 137.077282 
L 276.440173 139.420664 
L 279.990004 141.992253 
L 284.249801 145.37546 
L 288.509598 149.076374 
L 292.769395 153.085695 
L 297.029192 157.391733 
L 301.998955 162.77161 
L 306.968718 168.509954 
L 311.938481 174.57654 
L 317.618211 181.86797 
L 324.007906 190.460028 
L 331.107568 200.387039 
L 341.047094 214.716947 
L 345.306891 220.930846 
L 345.306891 220.930846 
" clip-path="url(#p02e5878bf1)" style="fill: none; stroke: #2ca02c; stroke-width: 1.5; stroke-linecap: square"/>
   </g>
   <g id="line2d_28">
    <path d="M 62.030392 220.930846 
L 135.866873 172.065647 
L 155.035959 159.652785 
L 168.525317 151.161814 
L 179.884775 144.273457 
L 189.114335 138.931891 
L 196.923963 134.651016 
L 204.023625 130.999868 
L 210.41332 127.953046 
L 216.093049 125.471007 
L 221.772779 123.237632 
L 226.742542 121.517568 
L 231.712305 120.045731 
L 235.972102 119.00511 
L 240.231899 118.190475 
L 244.491696 117.624024 
L 248.041527 117.358395 
L 251.591358 117.295404 
L 255.141188 117.449536 
L 258.691019 117.835581 
L 262.24085 118.468503 
L 265.790681 119.363278 
L 269.340512 120.534704 
L 272.890342 121.997182 
L 275.730207 123.385991 
L 278.570072 124.976514 
L 281.409936 126.77489 
L 284.249801 128.786667 
L 287.799632 131.608777 
L 291.349463 134.77943 
L 294.899294 138.303837 
L 298.449124 142.184447 
L 301.998955 146.420584 
L 305.548786 151.008114 
L 309.098617 155.939147 
L 313.358414 162.292798 
L 317.618211 169.095341 
L 321.878008 176.309601 
L 326.847771 185.185093 
L 332.5275 195.826501 
L 339.627162 209.653516 
L 345.306891 220.930846 
L 345.306891 220.930846 
" clip-path="url(#p02e5878bf1)" style="fill: none; stroke-dasharray: 5.55,2.4; stroke-dashoffset: 0; stroke: #ff7f0e; stroke-width: 1.5"/>
   </g>
   <g id="line2d_29">
    <path d="M 62.030392 220.930846 
L 171.365181 148.507718 
L 190.534268 136.092307 
L 203.313659 128.070212 
L 213.253185 122.087515 
L 221.062813 117.626316 
L 228.162474 113.824821 
L 233.842204 111.010552 
L 239.521933 108.450207 
L 244.491696 106.463883 
L 248.751493 104.986256 
L 253.01129 103.751087 
L 256.561121 102.933763 
L 260.110952 102.334505 
L 263.660782 101.979329 
L 266.500647 101.889778 
L 269.340512 101.989802 
L 272.180376 102.29559 
L 275.020241 102.824076 
L 277.860106 103.592836 
L 280.69997 104.619957 
L 283.539835 105.923866 
L 286.3797 107.523111 
L 289.219564 109.436105 
L 292.059429 111.680806 
L 294.899294 114.274357 
L 297.739158 117.232668 
L 300.579023 120.569955 
L 303.418887 124.29823 
L 306.258752 128.426765 
L 309.098617 132.961541 
L 311.938481 137.904687 
L 314.778346 143.253951 
L 317.618211 149.002215 
L 321.168042 156.729233 
L 324.717872 165.023423 
L 328.267703 173.83427 
L 332.5275 184.997748 
L 337.497263 198.66209 
L 345.306891 220.930846 
L 345.306891 220.930846 
" clip-path="url(#p02e5878bf1)" style="fill: none; stroke-dasharray: 5.55,2.4; stroke-dashoffset: 0; stroke: #2ca02c; stroke-width: 1.5"/>
   </g>
   <g id="line2d_30">
    <path d="M 62.030392 220.930846 
L 345.306891 32.949143 
L 345.306891 32.949143 
" clip-path="url(#p02e5878bf1)" style="fill: none; stroke: #808080; stroke-width: 1.5; stroke-linecap: square"/>
   </g>
   <g id="patch_3">
    <path d="M 47.866567 230.329931 
L 47.866567 23.550058 
" style="fill: none; stroke: #000000; stroke-width: 0.8; stroke-linejoin: miter; stroke-linecap: square"/>
   </g>
   <g id="patch_4">
    <path d="M 359.470716 230.329931 
L 359.470716 23.550058 
" style="fill: none; stroke: #000000; stroke-width: 0.8; stroke-linejoin: miter; stroke-linecap: square"/>
   </g>
   <g id="patch_5">
    <path d="M 47.866567 230.329931 
L 359.470716 230.329931 
" style="fill: none; stroke: #000000; stroke-width: 0.8; stroke-linejoin: miter; stroke-linecap: square"/>
   </g>
   <g id="patch_6">
    <path d="M 47.866567 23.550058 
L 359.470716 23.550058 
" style="fill: none; stroke: #000000; stroke-width: 0.8; stroke-linejoin: miter; stroke-linecap: square"/>
   </g>
   <g id="text_8">
    <!-- Circular frequency -->
    <g transform="translate(125.231595 17.550058)scale(0.17 -0.17)">
     <defs>
      <path id="CMTT12-43" d="M 3034 3731 
C 3034 3833 3034 3974 2854 3974 
C 2739 3974 2707 3904 2682 3859 
C 2662 3808 2611 3693 2592 3648 
C 2330 3878 2035 3974 1766 3974 
C 941 3974 256 3097 256 1958 
C 256 794 960 -64 1766 -64 
C 2515 -64 3034 526 3034 1086 
C 3034 1282 2899 1282 2822 1282 
C 2733 1282 2630 1250 2618 1143 
C 2566 327 1920 327 1811 327 
C 1216 327 672 1015 672 1968 
C 672 2922 1222 3603 1805 3603 
C 2150 3603 2528 3328 2618 2739 
C 2637 2598 2694 2560 2822 2560 
C 3034 2560 3034 2675 3034 2803 
L 3034 3731 
z
" transform="scale(0.015625)"/>
      <path id="CMTT12-69" d="M 1933 3616 
C 1933 3776 1805 3904 1645 3904 
C 1485 3904 1357 3776 1357 3616 
C 1357 3456 1485 3328 1645 3328 
C 1805 3328 1933 3456 1933 3616 
z
M 832 2752 
C 742 2752 576 2752 576 2567 
C 576 2381 742 2381 832 2381 
L 1517 2381 
L 1517 371 
L 787 371 
C 698 371 525 371 525 186 
C 525 0 698 0 787 0 
L 2566 0 
C 2656 0 2822 0 2822 186 
C 2822 371 2656 371 2566 371 
L 1933 371 
L 1933 2491 
C 1933 2688 1894 2752 1677 2752 
L 832 2752 
z
" transform="scale(0.015625)"/>
      <path id="CMTT12-72" d="M 1382 1212 
C 1382 1976 1920 2432 2464 2432 
C 2496 2432 2534 2432 2566 2425 
C 2586 2185 2765 2165 2810 2165 
C 2957 2165 3059 2275 3059 2418 
C 3059 2698 2790 2803 2470 2803 
C 2042 2803 1677 2607 1382 2241 
L 1382 2491 
C 1382 2688 1344 2752 1126 2752 
L 480 2752 
C 390 2752 224 2752 224 2567 
C 224 2381 390 2381 480 2381 
L 966 2381 
L 966 371 
L 480 371 
C 390 371 224 371 224 186 
C 224 0 390 0 480 0 
L 2054 0 
C 2144 0 2310 0 2310 186 
C 2310 371 2144 371 2054 371 
L 1382 371 
L 1382 1212 
z
" transform="scale(0.015625)"/>
      <path id="CMTT12-63" d="M 2918 702 
C 2918 868 2758 868 2707 868 
C 2560 868 2534 817 2502 728 
C 2362 377 2048 339 1894 339 
C 1350 339 890 792 890 1385 
C 890 1711 1075 2445 1914 2445 
C 2086 2445 2221 2432 2278 2426 
C 2323 2413 2330 2405 2330 2373 
C 2349 2107 2547 2107 2586 2107 
C 2726 2107 2848 2203 2848 2375 
C 2848 2816 2202 2816 1920 2816 
C 826 2816 474 1922 474 1385 
C 474 607 1069 -32 1837 -32 
C 2694 -32 2918 600 2918 702 
z
" transform="scale(0.015625)"/>
      <path id="CMTT12-75" d="M 2675 2491 
C 2675 2688 2637 2752 2419 2752 
L 1997 2752 
C 1907 2752 1741 2752 1741 2567 
C 1741 2381 1907 2381 1997 2381 
L 2259 2381 
L 2259 1000 
C 2259 479 1824 339 1536 339 
C 1030 339 1030 568 1030 766 
L 1030 2491 
C 1030 2688 992 2752 774 2752 
L 352 2752 
C 262 2752 96 2752 96 2567 
C 96 2381 262 2381 352 2381 
L 614 2381 
L 614 732 
C 614 146 998 -32 1491 -32 
C 1882 -32 2125 127 2253 235 
C 2253 0 2406 0 2515 0 
L 2938 0 
C 3027 0 3194 0 3194 186 
C 3194 371 3027 371 2938 371 
L 2675 371 
L 2675 2491 
z
" transform="scale(0.015625)"/>
      <path id="CMTT12-6c" d="M 1856 3642 
C 1856 3840 1818 3904 1600 3904 
L 659 3904 
C 570 3904 403 3904 403 3719 
C 403 3533 570 3533 659 3533 
L 1440 3533 
L 1440 371 
L 659 371 
C 570 371 403 371 403 186 
C 403 0 570 0 659 0 
L 2637 0 
C 2726 0 2893 0 2893 186 
C 2893 371 2726 371 2637 371 
L 1856 371 
L 1856 3642 
z
" transform="scale(0.015625)"/>
      <path id="CMTT12-61" d="M 2650 1816 
C 2650 2303 2285 2816 1421 2816 
C 1152 2816 531 2816 531 2380 
C 531 2210 653 2115 794 2115 
C 832 2115 1043 2115 1050 2388 
C 1050 2419 1056 2426 1190 2438 
C 1267 2445 1350 2445 1427 2445 
C 1574 2445 1792 2445 2003 2282 
C 2234 2100 2234 1916 2234 1728 
C 1856 1728 1485 1728 1088 1599 
C 768 1489 358 1256 358 816 
C 358 356 762 -32 1357 -32 
C 1562 -32 1958 0 2291 226 
C 2419 0 2739 0 2982 0 
C 3136 0 3290 0 3290 183 
C 3290 365 3123 365 3034 365 
C 2867 365 2739 378 2650 417 
L 2650 1816 
z
M 2234 851 
C 2234 704 2234 569 1971 448 
C 1747 339 1446 339 1427 339 
C 1050 339 774 544 774 806 
C 774 1184 1459 1401 2234 1401 
L 2234 851 
z
" transform="scale(0.015625)"/>
      <path id="CMTT12-66" d="M 1581 2381 
L 2355 2381 
C 2445 2381 2611 2381 2611 2567 
C 2611 2752 2445 2752 2355 2752 
L 1581 2752 
L 1581 3077 
C 1581 3584 2029 3584 2234 3584 
C 2234 3571 2285 3330 2496 3330 
C 2598 3330 2746 3407 2746 3588 
C 2746 3955 2259 3955 2163 3955 
C 1677 3955 1165 3677 1165 3101 
L 1165 2752 
L 531 2752 
C 442 2752 269 2752 269 2567 
C 269 2381 435 2381 525 2381 
L 1165 2381 
L 1165 371 
L 557 371 
C 467 371 301 371 301 186 
C 301 0 467 0 557 0 
L 2189 0 
C 2278 0 2445 0 2445 186 
C 2445 371 2278 371 2189 371 
L 1581 371 
L 1581 2381 
z
" transform="scale(0.015625)"/>
      <path id="CMTT12-65" d="M 2662 1248 
C 2797 1248 2918 1248 2918 1482 
C 2918 2221 2496 2816 1696 2816 
C 954 2816 358 2177 358 1398 
C 358 594 1005 -32 1792 -32 
C 2618 -32 2918 541 2918 709 
C 2918 748 2906 891 2707 891 
C 2586 891 2547 845 2509 748 
C 2349 371 1933 339 1811 339 
C 1280 339 858 748 787 1248 
L 2662 1248 
z
M 794 1600 
C 877 2132 1293 2445 1696 2445 
C 2336 2445 2470 1913 2496 1600 
L 794 1600 
z
" transform="scale(0.015625)"/>
      <path id="CMTT12-71" d="M 2803 2553 
C 2803 2669 2803 2816 2598 2816 
C 2387 2816 2387 2675 2387 2553 
L 2387 2432 
C 2266 2560 2029 2816 1587 2816 
C 890 2816 262 2211 262 1388 
C 262 604 826 -32 1523 -32 
C 1990 -32 2253 243 2387 384 
L 2387 -1037 
L 2099 -1037 
C 2010 -1037 1837 -1037 1837 -1222 
C 1837 -1408 2010 -1408 2099 -1408 
L 3091 -1408 
C 3181 -1408 3354 -1408 3354 -1222 
C 3354 -1037 3181 -1037 3091 -1037 
L 2803 -1037 
L 2803 2553 
z
M 2387 1234 
C 2387 873 2074 339 1562 339 
C 1075 339 678 809 678 1388 
C 678 1994 1126 2445 1626 2445 
C 2112 2445 2387 1923 2387 1523 
L 2387 1234 
z
" transform="scale(0.015625)"/>
      <path id="CMTT12-6e" d="M 2675 1879 
C 2675 2507 2381 2803 1856 2803 
C 1421 2803 1139 2560 1030 2438 
C 1030 2666 1030 2752 774 2752 
L 352 2752 
C 262 2752 96 2752 96 2567 
C 96 2381 262 2381 352 2381 
L 614 2381 
L 614 371 
L 352 371 
C 262 371 96 371 96 186 
C 96 0 262 0 352 0 
L 1293 0 
C 1382 0 1549 0 1549 186 
C 1549 371 1382 371 1293 371 
L 1030 371 
L 1030 1533 
C 1030 2155 1466 2432 1811 2432 
C 2182 2432 2259 2219 2259 1854 
L 2259 371 
L 1997 371 
C 1907 371 1741 371 1741 186 
C 1741 0 1907 0 1997 0 
L 2938 0 
C 3027 0 3194 0 3194 186 
C 3194 371 3027 371 2938 371 
L 2675 371 
L 2675 1879 
z
" transform="scale(0.015625)"/>
      <path id="CMTT12-79" d="M 2714 2381 
L 2880 2381 
C 2970 2381 3142 2381 3142 2567 
C 3142 2752 2970 2752 2880 2752 
L 2176 2752 
C 2086 2752 1914 2752 1914 2567 
C 1914 2381 2086 2381 2176 2381 
L 2336 2381 
C 2157 1860 1792 801 1702 439 
L 1696 439 
C 1664 579 1638 648 1574 820 
L 979 2381 
L 1126 2381 
C 1216 2381 1389 2381 1389 2567 
C 1389 2752 1216 2752 1126 2752 
L 422 2752 
C 333 2752 160 2752 160 2567 
C 160 2381 333 2381 422 2381 
L 595 2381 
L 1491 94 
C 1517 30 1517 17 1517 11 
C 1517 -2 1350 -555 1254 -732 
C 1216 -796 1056 -1095 749 -1063 
C 755 -1043 774 -1005 774 -935 
C 774 -787 672 -685 525 -685 
C 365 -685 269 -794 269 -941 
C 269 -1184 474 -1440 794 -1440 
C 1414 -1440 1690 -620 1709 -569 
L 2714 2381 
z
" transform="scale(0.015625)"/>
     </defs>
     <use xlink:href="#CMTT12-43" transform="scale(0.996264)"/>
     <use xlink:href="#CMTT12-69" transform="translate(51.266111 0)scale(0.996264)"/>
     <use xlink:href="#CMTT12-72" transform="translate(102.532222 0)scale(0.996264)"/>
     <use xlink:href="#CMTT12-63" transform="translate(153.798333 0)scale(0.996264)"/>
     <use xlink:href="#CMTT12-75" transform="translate(205.064443 0)scale(0.996264)"/>
     <use xlink:href="#CMTT12-6c" transform="translate(256.330554 0)scale(0.996264)"/>
     <use xlink:href="#CMTT12-61" transform="translate(307.596665 0)scale(0.996264)"/>
     <use xlink:href="#CMTT12-72" transform="translate(358.862776 0)scale(0.996264)"/>
     <use xlink:href="#CMTT12-66" transform="translate(461.394998 0)scale(0.996264)"/>
     <use xlink:href="#CMTT12-72" transform="translate(512.661108 0)scale(0.996264)"/>
     <use xlink:href="#CMTT12-65" transform="translate(563.927219 0)scale(0.996264)"/>
     <use xlink:href="#CMTT12-71" transform="translate(615.19333 0)scale(0.996264)"/>
     <use xlink:href="#CMTT12-75" transform="translate(666.459441 0)scale(0.996264)"/>
     <use xlink:href="#CMTT12-65" transform="translate(717.725552 0)scale(0.996264)"/>
     <use xlink:href="#CMTT12-6e" transform="translate(768.991663 0)scale(0.996264)"/>
     <use xlink:href="#CMTT12-63" transform="translate(820.257774 0)scale(0.996264)"/>
     <use xlink:href="#CMTT12-79" transform="translate(871.523884 0)scale(0.996264)"/>
    </g>
   </g>
  </g>
  <g id="axes_2">
   <g id="patch_7">
    <path d="M 409.595371 468.960822 
L 721.19952 468.960822 
L 721.19952 23.550058 
L 409.595371 23.550058 
z
" style="fill: #ffffff"/>
   </g>
   <g id="matplotlib.axis_3">
    <g id="xtick_7">
     <g id="line2d_31">
      <path d="M 423.759196 468.960822 
L 423.759196 23.550058 
" clip-path="url(#p92da112f6d)" style="fill: none; stroke-dasharray: 0.8,1.32; stroke-dashoffset: 0; stroke: #b0b0b0; stroke-width: 0.8"/>
     </g>
     <g id="line2d_32">
      <g>
       <use xlink:href="#md29201f5ed" x="423.759196" y="468.960822" style="stroke: #000000; stroke-width: 0.8"/>
      </g>
     </g>
     <g id="text_9">
      <!-- $\mathdefault{0.0}$ -->
      <g transform="translate(417.394157 482.049105)scale(0.1 -0.1)">
       <use xlink:href="#CMR17-30" transform="scale(0.996264)"/>
       <use xlink:href="#CMMI12-3a" transform="translate(45.690477 0)scale(0.996264)"/>
       <use xlink:href="#CMR17-30" transform="translate(72.787654 0)scale(0.996264)"/>
      </g>
     </g>
    </g>
    <g id="xtick_8">
     <g id="line2d_33">
      <path d="M 480.414496 468.960822 
L 480.414496 23.550058 
" clip-path="url(#p92da112f6d)" style="fill: none; stroke-dasharray: 0.8,1.32; stroke-dashoffset: 0; stroke: #b0b0b0; stroke-width: 0.8"/>
     </g>
     <g id="line2d_34">
      <g>
       <use xlink:href="#md29201f5ed" x="480.414496" y="468.960822" style="stroke: #000000; stroke-width: 0.8"/>
      </g>
     </g>
     <g id="text_10">
      <!-- $\mathdefault{0.2}$ -->
      <g transform="translate(474.049456 482.049105)scale(0.1 -0.1)">
       <use xlink:href="#CMR17-30" transform="scale(0.996264)"/>
       <use xlink:href="#CMMI12-3a" transform="translate(45.690477 0)scale(0.996264)"/>
       <use xlink:href="#CMR17-32" transform="translate(72.787654 0)scale(0.996264)"/>
      </g>
     </g>
    </g>
    <g id="xtick_9">
     <g id="line2d_35">
      <path d="M 537.069796 468.960822 
L 537.069796 23.550058 
" clip-path="url(#p92da112f6d)" style="fill: none; stroke-dasharray: 0.8,1.32; stroke-dashoffset: 0; stroke: #b0b0b0; stroke-width: 0.8"/>
     </g>
     <g id="line2d_36">
      <g>
       <use xlink:href="#md29201f5ed" x="537.069796" y="468.960822" style="stroke: #000000; stroke-width: 0.8"/>
      </g>
     </g>
     <g id="text_11">
      <!-- $\mathdefault{0.4}$ -->
      <g transform="translate(530.704756 482.049105)scale(0.1 -0.1)">
       <use xlink:href="#CMR17-30" transform="scale(0.996264)"/>
       <use xlink:href="#CMMI12-3a" transform="translate(45.690477 0)scale(0.996264)"/>
       <use xlink:href="#CMR17-34" transform="translate(72.787654 0)scale(0.996264)"/>
      </g>
     </g>
    </g>
    <g id="xtick_10">
     <g id="line2d_37">
      <path d="M 593.725095 468.960822 
L 593.725095 23.550058 
" clip-path="url(#p92da112f6d)" style="fill: none; stroke-dasharray: 0.8,1.32; stroke-dashoffset: 0; stroke: #b0b0b0; stroke-width: 0.8"/>
     </g>
     <g id="line2d_38">
      <g>
       <use xlink:href="#md29201f5ed" x="593.725095" y="468.960822" style="stroke: #000000; stroke-width: 0.8"/>
      </g>
     </g>
     <g id="text_12">
      <!-- $\mathdefault{0.6}$ -->
      <g transform="translate(587.360056 482.049105)scale(0.1 -0.1)">
       <use xlink:href="#CMR17-30" transform="scale(0.996264)"/>
       <use xlink:href="#CMMI12-3a" transform="translate(45.690477 0)scale(0.996264)"/>
       <use xlink:href="#CMR17-36" transform="translate(72.787654 0)scale(0.996264)"/>
      </g>
     </g>
    </g>
    <g id="xtick_11">
     <g id="line2d_39">
      <path d="M 650.380395 468.960822 
L 650.380395 23.550058 
" clip-path="url(#p92da112f6d)" style="fill: none; stroke-dasharray: 0.8,1.32; stroke-dashoffset: 0; stroke: #b0b0b0; stroke-width: 0.8"/>
     </g>
     <g id="line2d_40">
      <g>
       <use xlink:href="#md29201f5ed" x="650.380395" y="468.960822" style="stroke: #000000; stroke-width: 0.8"/>
      </g>
     </g>
     <g id="text_13">
      <!-- $\mathdefault{0.8}$ -->
      <g transform="translate(644.015356 482.049105)scale(0.1 -0.1)">
       <use xlink:href="#CMR17-30" transform="scale(0.996264)"/>
       <use xlink:href="#CMMI12-3a" transform="translate(45.690477 0)scale(0.996264)"/>
       <use xlink:href="#CMR17-38" transform="translate(72.787654 0)scale(0.996264)"/>
      </g>
     </g>
    </g>
    <g id="xtick_12">
     <g id="line2d_41">
      <path d="M 707.035695 468.960822 
L 707.035695 23.550058 
" clip-path="url(#p92da112f6d)" style="fill: none; stroke-dasharray: 0.8,1.32; stroke-dashoffset: 0; stroke: #b0b0b0; stroke-width: 0.8"/>
     </g>
     <g id="line2d_42">
      <g>
       <use xlink:href="#md29201f5ed" x="707.035695" y="468.960822" style="stroke: #000000; stroke-width: 0.8"/>
      </g>
     </g>
     <g id="text_14">
      <!-- $\mathdefault{1.0}$ -->
      <g transform="translate(700.670656 482.049105)scale(0.1 -0.1)">
       <use xlink:href="#CMR17-31" transform="scale(0.996264)"/>
       <use xlink:href="#CMMI12-3a" transform="translate(45.690477 0)scale(0.996264)"/>
       <use xlink:href="#CMR17-30" transform="translate(72.787654 0)scale(0.996264)"/>
      </g>
     </g>
    </g>
    <g id="text_15">
     <!-- $kh\: / \: \pi$ -->
     <g transform="translate(543.414498 500.965398)scale(0.17 -0.17)">
      <defs>
       <path id="CMMI12-6b" d="M 1798 4257 
C 1805 4283 1818 4321 1818 4352 
C 1818 4416 1754 4416 1741 4416 
C 1734 4416 1504 4393 1389 4377 
C 1280 4377 1184 4358 1069 4358 
C 915 4345 870 4339 870 4224 
C 870 4160 934 4160 998 4160 
C 1325 4160 1325 4103 1325 4040 
C 1325 4015 1325 4002 1293 3888 
L 378 248 
C 352 152 352 140 352 101 
C 352 -38 461 -64 525 -64 
C 704 -64 742 77 794 275 
L 1094 1469 
C 1555 1418 1830 1226 1830 920 
C 1830 881 1830 856 1811 760 
C 1786 664 1786 588 1786 556 
C 1786 185 2029 -64 2355 -64 
C 2650 -64 2803 204 2854 294 
C 2989 530 3072 888 3072 913 
C 3072 945 3046 971 3008 971 
C 2950 971 2944 945 2918 843 
C 2829 511 2694 64 2368 64 
C 2240 64 2157 128 2157 370 
C 2157 492 2182 632 2208 728 
C 2234 843 2234 849 2234 926 
C 2234 1303 1894 1514 1306 1590 
C 1536 1731 1766 1980 1856 2076 
C 2221 2484 2470 2689 2765 2689 
C 2912 2689 2950 2650 2995 2612 
C 2758 2586 2669 2420 2669 2293 
C 2669 2139 2790 2088 2880 2088 
C 3053 2088 3206 2235 3206 2440 
C 3206 2625 3059 2816 2771 2816 
C 2419 2816 2131 2567 1677 2056 
C 1613 1980 1376 1737 1139 1648 
L 1798 4257 
z
" transform="scale(0.015625)"/>
      </defs>
      <use xlink:href="#CMMI12-6b" transform="scale(0.996264)"/>
      <use xlink:href="#CMMI12-68" transform="translate(54.079201 0)scale(0.996264)"/>
      <use xlink:href="#CMMI12-3d" transform="translate(132.373032 0)scale(0.996264)"/>
      <use xlink:href="#CMMI12-19" transform="translate(203.287157 0)scale(0.996264)"/>
     </g>
    </g>
   </g>
   <g id="matplotlib.axis_4">
    <g id="ytick_7">
     <g id="line2d_43">
      <path d="M 409.595371 423.407448 
L 721.19952 423.407448 
" clip-path="url(#p92da112f6d)" style="fill: none; stroke-dasharray: 0.8,1.32; stroke-dashoffset: 0; stroke: #b0b0b0; stroke-width: 0.8"/>
     </g>
     <g id="line2d_44">
      <g>
       <use xlink:href="#m864b4c1a4b" x="409.595371" y="423.407448" style="stroke: #000000; stroke-width: 0.8"/>
      </g>
     </g>
     <g id="text_16">
      <!-- $\mathdefault{−4}$ -->
      <g transform="translate(389.865292 426.45159)scale(0.1 -0.1)">
       <defs>
        <path id="CMSY10-0" d="M 4218 1472 
C 4326 1472 4442 1472 4442 1600 
C 4442 1728 4326 1728 4218 1728 
L 755 1728 
C 646 1728 531 1728 531 1600 
C 531 1472 646 1472 755 1472 
L 4218 1472 
z
" transform="scale(0.015625)"/>
       </defs>
       <use xlink:href="#CMSY10-0" transform="scale(0.996264)"/>
       <use xlink:href="#CMR17-34" transform="translate(77.487468 0)scale(0.996264)"/>
      </g>
     </g>
    </g>
    <g id="ytick_8">
     <g id="line2d_45">
      <path d="M 409.595371 347.485159 
L 721.19952 347.485159 
" clip-path="url(#p92da112f6d)" style="fill: none; stroke-dasharray: 0.8,1.32; stroke-dashoffset: 0; stroke: #b0b0b0; stroke-width: 0.8"/>
     </g>
     <g id="line2d_46">
      <g>
       <use xlink:href="#m864b4c1a4b" x="409.595371" y="347.485159" style="stroke: #000000; stroke-width: 0.8"/>
      </g>
     </g>
     <g id="text_17">
      <!-- $\mathdefault{−3}$ -->
      <g transform="translate(389.865292 350.5293)scale(0.1 -0.1)">
       <defs>
        <path id="CMR17-33" d="M 1414 2157 
C 1984 2157 2234 1662 2234 1090 
C 2234 320 1824 25 1453 25 
C 1114 25 563 194 390 693 
C 422 680 454 680 486 680 
C 640 680 755 782 755 948 
C 755 1133 614 1216 486 1216 
C 378 1216 211 1165 211 926 
C 211 335 787 -128 1466 -128 
C 2176 -128 2720 430 2720 1085 
C 2720 1707 2208 2157 1600 2227 
C 2086 2328 2554 2756 2554 3329 
C 2554 3820 2048 4179 1472 4179 
C 890 4179 378 3829 378 3329 
C 378 3110 544 3072 627 3072 
C 762 3072 877 3155 877 3321 
C 877 3486 762 3569 627 3569 
C 602 3569 570 3569 544 3557 
C 730 3959 1235 4032 1459 4032 
C 1683 4032 2106 3925 2106 3320 
C 2106 3143 2080 2828 1862 2550 
C 1670 2304 1453 2304 1242 2284 
C 1210 2284 1062 2269 1037 2269 
C 992 2263 966 2257 966 2208 
C 966 2163 973 2157 1101 2157 
L 1414 2157 
z
" transform="scale(0.015625)"/>
       </defs>
       <use xlink:href="#CMSY10-0" transform="scale(0.996264)"/>
       <use xlink:href="#CMR17-33" transform="translate(77.487468 0)scale(0.996264)"/>
      </g>
     </g>
    </g>
    <g id="ytick_9">
     <g id="line2d_47">
      <path d="M 409.595371 271.562869 
L 721.19952 271.562869 
" clip-path="url(#p92da112f6d)" style="fill: none; stroke-dasharray: 0.8,1.32; stroke-dashoffset: 0; stroke: #b0b0b0; stroke-width: 0.8"/>
     </g>
     <g id="line2d_48">
      <g>
       <use xlink:href="#m864b4c1a4b" x="409.595371" y="271.562869" style="stroke: #000000; stroke-width: 0.8"/>
      </g>
     </g>
     <g id="text_18">
      <!-- $\mathdefault{−2}$ -->
      <g transform="translate(389.865292 274.607011)scale(0.1 -0.1)">
       <use xlink:href="#CMSY10-0" transform="scale(0.996264)"/>
       <use xlink:href="#CMR17-32" transform="translate(77.487468 0)scale(0.996264)"/>
      </g>
     </g>
    </g>
    <g id="ytick_10">
     <g id="line2d_49">
      <path d="M 409.595371 195.64058 
L 721.19952 195.64058 
" clip-path="url(#p92da112f6d)" style="fill: none; stroke-dasharray: 0.8,1.32; stroke-dashoffset: 0; stroke: #b0b0b0; stroke-width: 0.8"/>
     </g>
     <g id="line2d_50">
      <g>
       <use xlink:href="#m864b4c1a4b" x="409.595371" y="195.64058" style="stroke: #000000; stroke-width: 0.8"/>
      </g>
     </g>
     <g id="text_19">
      <!-- $\mathdefault{−1}$ -->
      <g transform="translate(389.865292 198.684722)scale(0.1 -0.1)">
       <use xlink:href="#CMSY10-0" transform="scale(0.996264)"/>
       <use xlink:href="#CMR17-31" transform="translate(77.487468 0)scale(0.996264)"/>
      </g>
     </g>
    </g>
    <g id="ytick_11">
     <g id="line2d_51">
      <path d="M 409.595371 119.718291 
L 721.19952 119.718291 
" clip-path="url(#p92da112f6d)" style="fill: none; stroke-dasharray: 0.8,1.32; stroke-dashoffset: 0; stroke: #b0b0b0; stroke-width: 0.8"/>
     </g>
     <g id="line2d_52">
      <g>
       <use xlink:href="#m864b4c1a4b" x="409.595371" y="119.718291" style="stroke: #000000; stroke-width: 0.8"/>
      </g>
     </g>
     <g id="text_20">
      <!-- $\mathdefault{0}$ -->
      <g transform="translate(397.614036 122.762432)scale(0.1 -0.1)">
       <use xlink:href="#CMR17-30" transform="scale(0.996264)"/>
      </g>
     </g>
    </g>
    <g id="ytick_12">
     <g id="line2d_53">
      <path d="M 409.595371 43.796001 
L 721.19952 43.796001 
" clip-path="url(#p92da112f6d)" style="fill: none; stroke-dasharray: 0.8,1.32; stroke-dashoffset: 0; stroke: #b0b0b0; stroke-width: 0.8"/>
     </g>
     <g id="line2d_54">
      <g>
       <use xlink:href="#m864b4c1a4b" x="409.595371" y="43.796001" style="stroke: #000000; stroke-width: 0.8"/>
      </g>
     </g>
     <g id="text_21">
      <!-- $\mathdefault{1}$ -->
      <g transform="translate(397.614036 46.840143)scale(0.1 -0.1)">
       <use xlink:href="#CMR17-31" transform="scale(0.996264)"/>
      </g>
     </g>
    </g>
    <g id="text_22">
     <!-- $c_g^* \: / \: c$ -->
     <g transform="translate(379.373082 264.591206)rotate(-90)scale(0.17 -0.17)">
      <defs>
       <path id="CMMI12-67" d="M 2163 811 
C 2138 709 2125 683 2042 588 
C 1779 249 1510 128 1312 128 
C 1101 128 902 294 902 734 
C 902 1073 1094 1788 1235 2076 
C 1421 2433 1709 2689 1978 2689 
C 2400 2689 2483 2165 2483 2127 
L 2464 2037 
L 2163 811 
z
M 2560 2395 
C 2477 2580 2298 2816 1978 2816 
C 1280 2816 486 1941 486 990 
C 486 326 890 0 1299 0 
C 1638 0 1939 268 2054 396 
L 1914 -171 
C 1824 -516 1786 -674 1555 -894 
C 1293 -1152 1050 -1152 909 -1152 
C 717 -1152 557 -1139 397 -1089 
C 602 -1033 653 -858 653 -789 
C 653 -689 576 -588 435 -588 
C 282 -588 115 -714 115 -922 
C 115 -1180 378 -1280 922 -1280 
C 1747 -1280 2176 -753 2259 -410 
L 2970 2435 
C 2989 2511 2989 2524 2989 2536 
C 2989 2625 2918 2695 2822 2695 
C 2669 2695 2579 2567 2560 2395 
z
" transform="scale(0.015625)"/>
      </defs>
      <use xlink:href="#CMMI12-63" transform="scale(0.996264)"/>
      <use xlink:href="#CMSY10-3" transform="translate(41.983234 36.153639)scale(0.697382)"/>
      <use xlink:href="#CMMI12-67" transform="translate(41.983234 -24.62935)scale(0.697382)"/>
      <use xlink:href="#CMMI12-3d" transform="translate(99.820254 0)scale(0.996264)"/>
      <use xlink:href="#CMMI12-63" transform="translate(170.73438 0)scale(0.996264)"/>
     </g>
    </g>
   </g>
   <g id="line2d_55">
    <path d="M 423.759196 43.796001 
L 428.728959 43.911288 
L 433.698722 44.256798 
L 438.668485 44.831482 
L 443.638249 45.633595 
L 448.608012 46.660701 
L 453.577775 47.90968 
L 458.547538 49.37674 
L 463.517301 51.057425 
L 469.19703 53.233212 
L 474.87676 55.672702 
L 480.556489 58.366219 
L 486.236218 61.303079 
L 491.915948 64.471634 
L 498.305643 68.297523 
L 504.695339 72.381518 
L 511.795 77.19703 
L 518.894662 82.276016 
L 526.70429 88.129607 
L 535.223884 94.783857 
L 545.16341 102.823992 
L 558.652767 114.044611 
L 587.76138 138.356111 
L 598.410872 146.8985 
L 606.930466 153.465302 
L 614.740094 159.221797 
L 621.839756 164.199082 
L 628.939417 168.900754 
L 635.329113 172.872491 
L 641.718808 176.577423 
L 647.398537 179.631645 
L 653.078267 182.44823 
L 658.757996 185.016007 
L 664.437725 187.32479 
L 670.117455 189.365423 
L 675.087218 190.92462 
L 680.056981 192.267566 
L 685.026744 193.390182 
L 689.996507 194.289058 
L 694.96627 194.961466 
L 699.936033 195.405363 
L 704.905797 195.619401 
L 707.035695 195.64058 
L 707.035695 195.64058 
" clip-path="url(#p92da112f6d)" style="fill: none; stroke: #1f77b4; stroke-width: 1.5; stroke-linecap: square"/>
   </g>
   <g id="line2d_56">
    <path d="M 423.759196 43.796001 
L 451.447876 43.906754 
L 461.387403 44.168742 
L 469.19703 44.578037 
L 476.296692 45.173878 
L 482.686388 45.944892 
L 488.366117 46.856356 
L 493.33588 47.855928 
L 498.305643 49.067396 
L 503.275406 50.512451 
L 508.245169 52.21184 
L 512.504966 53.885667 
L 516.764763 55.771945 
L 521.02456 57.880897 
L 525.284357 60.221536 
L 529.544154 62.801523 
L 533.803951 65.627033 
L 538.063748 68.702636 
L 542.323545 72.031191 
L 546.583342 75.61375 
L 551.553105 80.113219 
L 556.522869 84.952534 
L 561.492632 90.123322 
L 566.462395 95.613466 
L 571.432158 101.407092 
L 577.111887 108.374689 
L 582.791617 115.677921 
L 589.181312 124.244 
L 596.99094 135.121839 
L 606.930466 149.407108 
L 628.939417 181.227746 
L 636.039079 191.057842 
L 642.428774 199.532356 
L 648.108504 206.687989 
L 653.078267 212.604052 
L 658.04803 218.153871 
L 662.307827 222.589024 
L 666.567624 226.70204 
L 670.827421 230.470787 
L 674.377252 233.333633 
L 677.927082 235.932346 
L 681.476913 238.257043 
L 685.026744 240.298846 
L 688.576575 242.049933 
L 692.126406 243.503572 
L 694.96627 244.448519 
L 697.806135 245.197159 
L 700.646 245.74764 
L 703.485864 246.098598 
L 706.325729 246.249164 
L 707.035695 246.25544 
L 707.035695 246.25544 
" clip-path="url(#p92da112f6d)" style="fill: none; stroke: #ff7f0e; stroke-width: 1.5; stroke-linecap: square"/>
   </g>
   <g id="line2d_57">
    <path d="M 423.759196 43.796001 
L 474.166794 43.903136 
L 486.236218 44.168361 
L 494.755812 44.57 
L 501.855474 45.122776 
L 508.245169 45.855011 
L 513.924899 46.745446 
L 518.894662 47.749914 
L 523.864425 49.001895 
L 528.124222 50.300237 
L 532.384019 51.831884 
L 536.643816 53.621137 
L 540.903613 55.692117 
L 544.453444 57.650141 
L 548.003275 59.833251 
L 551.553105 62.253851 
L 555.102936 64.923479 
L 558.652767 67.852621 
L 562.202598 71.050521 
L 565.752429 74.525002 
L 569.302259 78.28229 
L 572.85209 82.326843 
L 576.401921 86.661201 
L 580.661718 92.245487 
L 584.921515 98.244291 
L 589.181312 104.649436 
L 593.441109 111.447733 
L 598.410872 119.851211 
L 603.380635 128.726502 
L 609.060365 139.385708 
L 615.45006 151.930875 
L 622.549722 166.384857 
L 636.039079 194.50791 
L 645.268639 213.461568 
L 651.658334 226.053215 
L 656.628097 235.386026 
L 660.887894 242.980905 
L 665.147691 250.137395 
L 668.697522 255.723699 
L 672.247353 260.932242 
L 675.797184 265.732465 
L 679.347015 270.09591 
L 682.186879 273.254555 
L 685.026744 276.104713 
L 687.866609 278.635323 
L 690.706473 280.836515 
L 693.546338 282.699668 
L 695.676236 283.870737 
L 697.806135 284.844914 
L 699.936033 285.620033 
L 702.065932 286.194371 
L 704.19583 286.566647 
L 706.325729 286.736031 
L 707.035695 286.747327 
L 707.035695 286.747327 
" clip-path="url(#p92da112f6d)" style="fill: none; stroke: #2ca02c; stroke-width: 1.5; stroke-linecap: square"/>
   </g>
   <g id="line2d_58">
    <path d="M 423.759196 43.796001 
L 466.357166 43.90502 
L 481.266455 44.169283 
L 492.625914 44.586352 
L 501.855474 45.139315 
L 509.665102 45.813872 
L 516.764763 46.639266 
L 523.154459 47.596093 
L 528.834188 48.651314 
L 534.513917 49.933855 
L 539.483681 51.272198 
L 544.453444 52.841913 
L 548.713241 54.395315 
L 552.973038 56.16351 
L 557.232835 58.170054 
L 561.492632 60.440386 
L 565.752429 63.00185 
L 569.302259 65.379832 
L 572.85209 67.998152 
L 576.401921 70.875534 
L 579.951752 74.03146 
L 583.501583 77.486061 
L 587.051414 81.259979 
L 590.601244 85.374173 
L 594.151075 89.84969 
L 597.700906 94.707366 
L 601.250737 99.967474 
L 604.800568 105.649297 
L 608.350398 111.770623 
L 611.900229 118.34716 
L 615.45006 125.391873 
L 618.999891 132.914223 
L 622.549722 140.919338 
L 626.099552 149.407099 
L 630.359349 160.220094 
L 634.619146 171.693728 
L 638.878943 183.785608 
L 643.848707 198.589793 
L 649.528436 216.256024 
L 658.04803 243.640894 
L 667.27759 273.1615 
L 672.247353 288.305508 
L 676.50715 300.515291 
L 680.056981 309.967121 
L 682.896846 316.957959 
L 685.73671 323.368842 
L 688.576575 329.136055 
L 690.706473 333.003249 
L 692.836372 336.452078 
L 694.96627 339.461747 
L 697.096169 342.013822 
L 699.226067 344.092459 
L 700.646 345.208631 
L 702.065932 346.105386 
L 703.485864 346.78019 
L 704.905797 347.231129 
L 706.325729 347.45692 
L 707.035695 347.485159 
L 707.035695 347.485159 
" clip-path="url(#p92da112f6d)" style="fill: none; stroke-dasharray: 5.55,2.4; stroke-dashoffset: 0; stroke: #ff7f0e; stroke-width: 1.5"/>
   </g>
   <g id="line2d_59">
    <path d="M 423.759196 43.796001 
L 500.435542 43.902895 
L 516.764763 44.155196 
L 528.124222 44.545383 
L 536.643816 45.040771 
L 543.743478 45.650922 
L 550.133173 46.409375 
L 555.812902 47.299894 
L 560.782666 48.288527 
L 565.752429 49.516545 
L 570.012226 50.797278 
L 574.272023 52.327046 
L 577.821853 53.822242 
L 581.371684 55.546971 
L 584.921515 57.531902 
L 588.471346 59.811124 
L 591.311211 61.87163 
L 594.151075 64.165672 
L 596.99094 66.716007 
L 599.830804 69.547081 
L 602.670669 72.685062 
L 605.510534 76.15783 
L 608.350398 79.99494 
L 611.190263 84.227542 
L 614.030128 88.88824 
L 616.869992 94.010892 
L 619.709857 99.63032 
L 622.549722 105.781932 
L 625.389586 112.501229 
L 628.229451 119.823185 
L 631.069316 127.781475 
L 633.90918 136.407551 
L 636.749045 145.729532 
L 639.58891 155.770918 
L 642.428774 166.549105 
L 645.268639 178.073723 
L 648.81847 193.528127 
L 652.368301 210.122057 
L 655.918131 227.794964 
L 660.177928 250.280658 
L 665.147691 277.930605 
L 673.667285 327.075104 
L 679.347015 359.18876 
L 682.896846 378.131401 
L 685.73671 392.298341 
L 688.576575 405.336123 
L 690.706473 414.236319 
L 692.836372 422.281705 
L 694.96627 429.386616 
L 697.096169 435.473107 
L 698.516101 438.930721 
L 699.936033 441.887415 
L 701.355966 444.327941 
L 702.775898 446.239585 
L 704.19583 447.612311 
L 704.905797 448.094203 
L 705.615763 448.438869 
L 706.325729 448.645853 
L 707.035695 448.714878 
L 707.035695 448.714878 
" clip-path="url(#p92da112f6d)" style="fill: none; stroke-dasharray: 5.55,2.4; stroke-dashoffset: 0; stroke: #2ca02c; stroke-width: 1.5"/>
   </g>
   <g id="line2d_60">
    <path d="M 423.759196 43.796001 
L 707.035695 43.796001 
L 707.035695 43.796001 
" clip-path="url(#p92da112f6d)" style="fill: none; stroke: #808080; stroke-width: 1.5; stroke-linecap: square"/>
   </g>
   <g id="patch_8">
    <path d="M 409.595371 468.960822 
L 409.595371 23.550058 
" style="fill: none; stroke: #000000; stroke-width: 0.8; stroke-linejoin: miter; stroke-linecap: square"/>
   </g>
   <g id="patch_9">
    <path d="M 721.19952 468.960822 
L 721.19952 23.550058 
" style="fill: none; stroke: #000000; stroke-width: 0.8; stroke-linejoin: miter; stroke-linecap: square"/>
   </g>
   <g id="patch_10">
    <path d="M 409.595371 468.960822 
L 721.19952 468.960822 
" style="fill: none; stroke: #000000; stroke-width: 0.8; stroke-linejoin: miter; stroke-linecap: square"/>
   </g>
   <g id="patch_11">
    <path d="M 409.595371 23.550058 
L 721.19952 23.550058 
" style="fill: none; stroke: #000000; stroke-width: 0.8; stroke-linejoin: miter; stroke-linecap: square"/>
   </g>
   <g id="text_23">
    <!-- Group velocity -->
    <g transform="translate(504.390853 17.550058)scale(0.17 -0.17)">
     <defs>
      <path id="CMTT12-47" d="M 2816 1357 
C 2944 1357 3110 1357 3110 1542 
C 3110 1728 2938 1728 2848 1728 
L 2131 1728 
C 2042 1728 1869 1728 1869 1542 
C 1869 1357 2042 1357 2131 1357 
L 2394 1357 
C 2362 971 2189 307 1664 307 
C 1146 307 653 1000 653 1952 
C 653 2930 1165 3603 1670 3603 
C 1978 3603 2317 3360 2400 2720 
C 2419 2560 2541 2560 2605 2560 
C 2816 2560 2816 2675 2816 2803 
L 2816 3731 
C 2816 3833 2816 3974 2637 3974 
C 2528 3974 2490 3904 2470 3872 
L 2387 3667 
C 2176 3859 1920 3974 1638 3974 
C 883 3974 237 3116 237 1958 
C 237 782 890 -64 1638 -64 
C 1914 -64 2182 51 2400 288 
C 2400 122 2400 0 2611 0 
C 2816 0 2816 134 2816 254 
L 2816 1357 
z
" transform="scale(0.015625)"/>
      <path id="CMTT12-6f" d="M 2918 1385 
C 2918 2183 2336 2816 1645 2816 
C 954 2816 371 2183 371 1385 
C 371 581 960 -32 1645 -32 
C 2330 -32 2918 581 2918 1385 
z
M 1645 339 
C 1184 339 787 824 787 1430 
C 787 2023 1197 2445 1645 2445 
C 2093 2445 2502 2023 2502 1430 
C 2502 818 2106 339 1645 339 
z
" transform="scale(0.015625)"/>
      <path id="CMTT12-70" d="M 1293 -1408 
C 1382 -1408 1549 -1408 1549 -1222 
C 1549 -1037 1382 -1037 1293 -1037 
L 1030 -1037 
L 1030 326 
C 1184 153 1421 -32 1779 -32 
C 2458 -32 3053 579 3053 1395 
C 3053 2186 2515 2816 1850 2816 
C 1382 2816 1088 2533 1030 2469 
C 1030 2664 1030 2752 774 2752 
L 352 2752 
C 262 2752 96 2752 96 2567 
C 96 2381 262 2381 352 2381 
L 614 2381 
L 614 -1037 
L 352 -1037 
C 262 -1037 96 -1037 96 -1222 
C 96 -1408 262 -1408 352 -1408 
L 1293 -1408 
z
M 1030 1717 
C 1030 2084 1389 2445 1805 2445 
C 2266 2445 2637 1974 2637 1395 
C 2637 777 2202 339 1747 339 
C 1267 339 1030 886 1030 1208 
L 1030 1717 
z
" transform="scale(0.015625)"/>
      <path id="CMTT12-76" d="M 2714 2381 
L 2880 2381 
C 2970 2381 3142 2381 3142 2567 
C 3142 2752 2970 2752 2880 2752 
L 2176 2752 
C 2086 2752 1914 2752 1914 2567 
C 1914 2381 2086 2381 2176 2381 
L 2336 2381 
L 1645 325 
L 954 2381 
L 1114 2381 
C 1203 2381 1376 2381 1376 2567 
C 1376 2752 1203 2752 1114 2752 
L 410 2752 
C 320 2752 147 2752 147 2567 
C 147 2381 320 2381 410 2381 
L 576 2381 
L 1312 185 
C 1382 -32 1523 -32 1645 -32 
C 1766 -32 1907 -32 1978 185 
L 2714 2381 
z
" transform="scale(0.015625)"/>
      <path id="CMTT12-74" d="M 1382 2381 
L 2419 2381 
C 2509 2381 2675 2381 2675 2567 
C 2675 2752 2509 2752 2419 2752 
L 1382 2752 
L 1382 3285 
C 1382 3402 1382 3552 1178 3552 
C 966 3552 966 3402 966 3285 
L 966 2752 
L 422 2752 
C 333 2752 160 2752 160 2567 
C 160 2381 326 2381 416 2381 
L 966 2381 
L 966 776 
C 966 184 1376 -32 1837 -32 
C 2182 -32 2816 139 2816 790 
C 2816 918 2816 1058 2605 1058 
C 2400 1058 2400 918 2400 785 
C 2394 403 2029 339 1882 339 
C 1382 339 1382 657 1382 809 
L 1382 2381 
z
" transform="scale(0.015625)"/>
     </defs>
     <use xlink:href="#CMTT12-47" transform="scale(0.996264)"/>
     <use xlink:href="#CMTT12-72" transform="translate(51.266111 0)scale(0.996264)"/>
     <use xlink:href="#CMTT12-6f" transform="translate(102.532222 0)scale(0.996264)"/>
     <use xlink:href="#CMTT12-75" transform="translate(153.798333 0)scale(0.996264)"/>
     <use xlink:href="#CMTT12-70" transform="translate(205.064443 0)scale(0.996264)"/>
     <use xlink:href="#CMTT12-76" transform="translate(307.596665 0)scale(0.996264)"/>
     <use xlink:href="#CMTT12-65" transform="translate(358.862776 0)scale(0.996264)"/>
     <use xlink:href="#CMTT12-6c" transform="translate(410.128887 0)scale(0.996264)"/>
     <use xlink:href="#CMTT12-6f" transform="translate(461.394998 0)scale(0.996264)"/>
     <use xlink:href="#CMTT12-63" transform="translate(512.661108 0)scale(0.996264)"/>
     <use xlink:href="#CMTT12-69" transform="translate(563.927219 0)scale(0.996264)"/>
     <use xlink:href="#CMTT12-74" transform="translate(615.19333 0)scale(0.996264)"/>
     <use xlink:href="#CMTT12-79" transform="translate(666.459441 0)scale(0.996264)"/>
    </g>
   </g>
  </g>
  <g id="axes_3">
   <g id="patch_12">
    <path d="M 47.866567 468.960822 
L 359.470716 468.960822 
L 359.470716 262.180948 
L 47.866567 262.180948 
z
" style="fill: #ffffff"/>
   </g>
   <g id="matplotlib.axis_5">
    <g id="xtick_13">
     <g id="line2d_61">
      <path d="M 62.030392 468.960822 
L 62.030392 262.180948 
" clip-path="url(#p01cc477838)" style="fill: none; stroke-dasharray: 0.8,1.32; stroke-dashoffset: 0; stroke: #b0b0b0; stroke-width: 0.8"/>
     </g>
     <g id="line2d_62">
      <g>
       <use xlink:href="#md29201f5ed" x="62.030392" y="468.960822" style="stroke: #000000; stroke-width: 0.8"/>
      </g>
     </g>
     <g id="text_24">
      <!-- $\mathdefault{0.0}$ -->
      <g transform="translate(55.665353 482.049105)scale(0.1 -0.1)">
       <use xlink:href="#CMR17-30" transform="scale(0.996264)"/>
       <use xlink:href="#CMMI12-3a" transform="translate(45.690477 0)scale(0.996264)"/>
       <use xlink:href="#CMR17-30" transform="translate(72.787654 0)scale(0.996264)"/>
      </g>
     </g>
    </g>
    <g id="xtick_14">
     <g id="line2d_63">
      <path d="M 118.685692 468.960822 
L 118.685692 262.180948 
" clip-path="url(#p01cc477838)" style="fill: none; stroke-dasharray: 0.8,1.32; stroke-dashoffset: 0; stroke: #b0b0b0; stroke-width: 0.8"/>
     </g>
     <g id="line2d_64">
      <g>
       <use xlink:href="#md29201f5ed" x="118.685692" y="468.960822" style="stroke: #000000; stroke-width: 0.8"/>
      </g>
     </g>
     <g id="text_25">
      <!-- $\mathdefault{0.2}$ -->
      <g transform="translate(112.320652 482.049105)scale(0.1 -0.1)">
       <use xlink:href="#CMR17-30" transform="scale(0.996264)"/>
       <use xlink:href="#CMMI12-3a" transform="translate(45.690477 0)scale(0.996264)"/>
       <use xlink:href="#CMR17-32" transform="translate(72.787654 0)scale(0.996264)"/>
      </g>
     </g>
    </g>
    <g id="xtick_15">
     <g id="line2d_65">
      <path d="M 175.340992 468.960822 
L 175.340992 262.180948 
" clip-path="url(#p01cc477838)" style="fill: none; stroke-dasharray: 0.8,1.32; stroke-dashoffset: 0; stroke: #b0b0b0; stroke-width: 0.8"/>
     </g>
     <g id="line2d_66">
      <g>
       <use xlink:href="#md29201f5ed" x="175.340992" y="468.960822" style="stroke: #000000; stroke-width: 0.8"/>
      </g>
     </g>
     <g id="text_26">
      <!-- $\mathdefault{0.4}$ -->
      <g transform="translate(168.975952 482.049105)scale(0.1 -0.1)">
       <use xlink:href="#CMR17-30" transform="scale(0.996264)"/>
       <use xlink:href="#CMMI12-3a" transform="translate(45.690477 0)scale(0.996264)"/>
       <use xlink:href="#CMR17-34" transform="translate(72.787654 0)scale(0.996264)"/>
      </g>
     </g>
    </g>
    <g id="xtick_16">
     <g id="line2d_67">
      <path d="M 231.996291 468.960822 
L 231.996291 262.180948 
" clip-path="url(#p01cc477838)" style="fill: none; stroke-dasharray: 0.8,1.32; stroke-dashoffset: 0; stroke: #b0b0b0; stroke-width: 0.8"/>
     </g>
     <g id="line2d_68">
      <g>
       <use xlink:href="#md29201f5ed" x="231.996291" y="468.960822" style="stroke: #000000; stroke-width: 0.8"/>
      </g>
     </g>
     <g id="text_27">
      <!-- $\mathdefault{0.6}$ -->
      <g transform="translate(225.631252 482.049105)scale(0.1 -0.1)">
       <use xlink:href="#CMR17-30" transform="scale(0.996264)"/>
       <use xlink:href="#CMMI12-3a" transform="translate(45.690477 0)scale(0.996264)"/>
       <use xlink:href="#CMR17-36" transform="translate(72.787654 0)scale(0.996264)"/>
      </g>
     </g>
    </g>
    <g id="xtick_17">
     <g id="line2d_69">
      <path d="M 288.651591 468.960822 
L 288.651591 262.180948 
" clip-path="url(#p01cc477838)" style="fill: none; stroke-dasharray: 0.8,1.32; stroke-dashoffset: 0; stroke: #b0b0b0; stroke-width: 0.8"/>
     </g>
     <g id="line2d_70">
      <g>
       <use xlink:href="#md29201f5ed" x="288.651591" y="468.960822" style="stroke: #000000; stroke-width: 0.8"/>
      </g>
     </g>
     <g id="text_28">
      <!-- $\mathdefault{0.8}$ -->
      <g transform="translate(282.286552 482.049105)scale(0.1 -0.1)">
       <use xlink:href="#CMR17-30" transform="scale(0.996264)"/>
       <use xlink:href="#CMMI12-3a" transform="translate(45.690477 0)scale(0.996264)"/>
       <use xlink:href="#CMR17-38" transform="translate(72.787654 0)scale(0.996264)"/>
      </g>
     </g>
    </g>
    <g id="xtick_18">
     <g id="line2d_71">
      <path d="M 345.306891 468.960822 
L 345.306891 262.180948 
" clip-path="url(#p01cc477838)" style="fill: none; stroke-dasharray: 0.8,1.32; stroke-dashoffset: 0; stroke: #b0b0b0; stroke-width: 0.8"/>
     </g>
     <g id="line2d_72">
      <g>
       <use xlink:href="#md29201f5ed" x="345.306891" y="468.960822" style="stroke: #000000; stroke-width: 0.8"/>
      </g>
     </g>
     <g id="text_29">
      <!-- $\mathdefault{1.0}$ -->
      <g transform="translate(338.941852 482.049105)scale(0.1 -0.1)">
       <use xlink:href="#CMR17-31" transform="scale(0.996264)"/>
       <use xlink:href="#CMMI12-3a" transform="translate(45.690477 0)scale(0.996264)"/>
       <use xlink:href="#CMR17-30" transform="translate(72.787654 0)scale(0.996264)"/>
      </g>
     </g>
    </g>
    <g id="text_30">
     <!-- $kh \: / \: \pi$ -->
     <g transform="translate(181.685694 500.965398)scale(0.17 -0.17)">
      <use xlink:href="#CMMI12-6b" transform="scale(0.996264)"/>
      <use xlink:href="#CMMI12-68" transform="translate(54.079201 0)scale(0.996264)"/>
      <use xlink:href="#CMMI12-3d" transform="translate(132.373032 0)scale(0.996264)"/>
      <use xlink:href="#CMMI12-19" transform="translate(203.287157 0)scale(0.996264)"/>
     </g>
    </g>
   </g>
   <g id="matplotlib.axis_6">
    <g id="ytick_13">
     <g id="line2d_73">
      <path d="M 47.866567 459.561736 
L 359.470716 459.561736 
" clip-path="url(#p01cc477838)" style="fill: none; stroke-dasharray: 0.8,1.32; stroke-dashoffset: 0; stroke: #b0b0b0; stroke-width: 0.8"/>
     </g>
     <g id="line2d_74">
      <g>
       <use xlink:href="#m864b4c1a4b" x="47.866567" y="459.561736" style="stroke: #000000; stroke-width: 0.8"/>
      </g>
     </g>
     <g id="text_31">
      <!-- $\mathdefault{0.0}$ -->
      <g transform="translate(28.136488 462.605878)scale(0.1 -0.1)">
       <use xlink:href="#CMR17-30" transform="scale(0.996264)"/>
       <use xlink:href="#CMMI12-3a" transform="translate(45.690477 0)scale(0.996264)"/>
       <use xlink:href="#CMR17-30" transform="translate(72.787654 0)scale(0.996264)"/>
      </g>
     </g>
    </g>
    <g id="ytick_14">
     <g id="line2d_75">
      <path d="M 47.866567 421.965396 
L 359.470716 421.965396 
" clip-path="url(#p01cc477838)" style="fill: none; stroke-dasharray: 0.8,1.32; stroke-dashoffset: 0; stroke: #b0b0b0; stroke-width: 0.8"/>
     </g>
     <g id="line2d_76">
      <g>
       <use xlink:href="#m864b4c1a4b" x="47.866567" y="421.965396" style="stroke: #000000; stroke-width: 0.8"/>
      </g>
     </g>
     <g id="text_32">
      <!-- $\mathdefault{0.2}$ -->
      <g transform="translate(28.136488 425.009538)scale(0.1 -0.1)">
       <use xlink:href="#CMR17-30" transform="scale(0.996264)"/>
       <use xlink:href="#CMMI12-3a" transform="translate(45.690477 0)scale(0.996264)"/>
       <use xlink:href="#CMR17-32" transform="translate(72.787654 0)scale(0.996264)"/>
      </g>
     </g>
    </g>
    <g id="ytick_15">
     <g id="line2d_77">
      <path d="M 47.866567 384.369055 
L 359.470716 384.369055 
" clip-path="url(#p01cc477838)" style="fill: none; stroke-dasharray: 0.8,1.32; stroke-dashoffset: 0; stroke: #b0b0b0; stroke-width: 0.8"/>
     </g>
     <g id="line2d_78">
      <g>
       <use xlink:href="#m864b4c1a4b" x="47.866567" y="384.369055" style="stroke: #000000; stroke-width: 0.8"/>
      </g>
     </g>
     <g id="text_33">
      <!-- $\mathdefault{0.4}$ -->
      <g transform="translate(28.136488 387.413197)scale(0.1 -0.1)">
       <use xlink:href="#CMR17-30" transform="scale(0.996264)"/>
       <use xlink:href="#CMMI12-3a" transform="translate(45.690477 0)scale(0.996264)"/>
       <use xlink:href="#CMR17-34" transform="translate(72.787654 0)scale(0.996264)"/>
      </g>
     </g>
    </g>
    <g id="ytick_16">
     <g id="line2d_79">
      <path d="M 47.866567 346.772715 
L 359.470716 346.772715 
" clip-path="url(#p01cc477838)" style="fill: none; stroke-dasharray: 0.8,1.32; stroke-dashoffset: 0; stroke: #b0b0b0; stroke-width: 0.8"/>
     </g>
     <g id="line2d_80">
      <g>
       <use xlink:href="#m864b4c1a4b" x="47.866567" y="346.772715" style="stroke: #000000; stroke-width: 0.8"/>
      </g>
     </g>
     <g id="text_34">
      <!-- $\mathdefault{0.6}$ -->
      <g transform="translate(28.136488 349.816856)scale(0.1 -0.1)">
       <use xlink:href="#CMR17-30" transform="scale(0.996264)"/>
       <use xlink:href="#CMMI12-3a" transform="translate(45.690477 0)scale(0.996264)"/>
       <use xlink:href="#CMR17-36" transform="translate(72.787654 0)scale(0.996264)"/>
      </g>
     </g>
    </g>
    <g id="ytick_17">
     <g id="line2d_81">
      <path d="M 47.866567 309.176374 
L 359.470716 309.176374 
" clip-path="url(#p01cc477838)" style="fill: none; stroke-dasharray: 0.8,1.32; stroke-dashoffset: 0; stroke: #b0b0b0; stroke-width: 0.8"/>
     </g>
     <g id="line2d_82">
      <g>
       <use xlink:href="#m864b4c1a4b" x="47.866567" y="309.176374" style="stroke: #000000; stroke-width: 0.8"/>
      </g>
     </g>
     <g id="text_35">
      <!-- $\mathdefault{0.8}$ -->
      <g transform="translate(28.136488 312.220516)scale(0.1 -0.1)">
       <use xlink:href="#CMR17-30" transform="scale(0.996264)"/>
       <use xlink:href="#CMMI12-3a" transform="translate(45.690477 0)scale(0.996264)"/>
       <use xlink:href="#CMR17-38" transform="translate(72.787654 0)scale(0.996264)"/>
      </g>
     </g>
    </g>
    <g id="ytick_18">
     <g id="line2d_83">
      <path d="M 47.866567 271.580033 
L 359.470716 271.580033 
" clip-path="url(#p01cc477838)" style="fill: none; stroke-dasharray: 0.8,1.32; stroke-dashoffset: 0; stroke: #b0b0b0; stroke-width: 0.8"/>
     </g>
     <g id="line2d_84">
      <g>
       <use xlink:href="#m864b4c1a4b" x="47.866567" y="271.580033" style="stroke: #000000; stroke-width: 0.8"/>
      </g>
     </g>
     <g id="text_36">
      <!-- $\mathdefault{1.0}$ -->
      <g transform="translate(28.136488 274.624175)scale(0.1 -0.1)">
       <use xlink:href="#CMR17-31" transform="scale(0.996264)"/>
       <use xlink:href="#CMMI12-3a" transform="translate(45.690477 0)scale(0.996264)"/>
       <use xlink:href="#CMR17-30" transform="translate(72.787654 0)scale(0.996264)"/>
      </g>
     </g>
    </g>
    <g id="text_37">
     <!-- $c^* / \: c$ -->
     <g transform="translate(19.902366 381.94867)rotate(-90)scale(0.17 -0.17)">
      <use xlink:href="#CMMI12-63" transform="scale(0.996264)"/>
      <use xlink:href="#CMSY10-3" transform="translate(41.983234 36.153639)scale(0.697382)"/>
      <use xlink:href="#CMMI12-3d" transform="translate(77.350576 0)scale(0.996264)"/>
      <use xlink:href="#CMMI12-63" transform="translate(148.264701 0)scale(0.996264)"/>
     </g>
    </g>
   </g>
   <g id="line2d_85">
    <path d="M 62.030392 271.580033 
L 67.710121 271.704317 
L 73.389851 272.07687 
L 79.06958 272.696808 
L 84.749309 273.562654 
L 90.429039 274.672351 
L 96.108768 276.023261 
L 101.788497 277.612177 
L 107.468227 279.435329 
L 113.147956 281.488397 
L 118.827685 283.766522 
L 124.507414 286.264318 
L 130.89711 289.329558 
L 137.286805 292.656209 
L 143.676501 296.234378 
L 150.066196 300.053449 
L 157.165858 304.565632 
L 164.26552 309.344824 
L 172.075147 314.88961 
L 179.884775 320.712234 
L 188.404369 327.351263 
L 197.633929 334.842948 
L 207.573455 343.208789 
L 218.932914 353.075473 
L 232.422271 365.098747 
L 255.851155 386.348807 
L 275.730207 404.253504 
L 288.509598 415.475162 
L 299.15909 424.554711 
L 309.098617 432.747119 
L 318.328177 440.068101 
L 326.847771 446.549785 
L 335.367365 452.739873 
L 343.176993 458.137765 
L 345.306891 459.561736 
L 345.306891 459.561736 
" clip-path="url(#p01cc477838)" style="fill: none; stroke: #1f77b4; stroke-width: 1.5; stroke-linecap: square"/>
   </g>
   <g id="line2d_86">
    <path d="M 62.030392 271.580033 
L 94.688836 271.686191 
L 106.75826 271.94845 
L 115.98782 272.349936 
L 124.507414 272.943982 
L 131.607076 273.649234 
L 138.706738 274.585977 
L 145.096433 275.658786 
L 150.776162 276.818527 
L 156.455892 278.192183 
L 162.135621 279.798096 
L 167.81535 281.653566 
L 172.785113 283.494422 
L 177.754877 285.548342 
L 182.72464 287.824009 
L 187.694403 290.328944 
L 192.664166 293.069399 
L 197.633929 296.050259 
L 202.603692 299.274964 
L 207.573455 302.745437 
L 212.543219 306.462025 
L 218.222948 311.009222 
L 223.902677 315.871646 
L 229.582407 321.041953 
L 235.262136 326.509981 
L 240.941865 332.262797 
L 247.331561 339.055565 
L 253.721256 346.162756 
L 260.820918 354.39173 
L 268.630545 363.79348 
L 277.860106 375.285671 
L 289.219564 389.82127 
L 320.458075 430.040792 
L 329.687635 441.424555 
L 337.497263 450.697191 
L 344.596925 458.774556 
L 345.306891 459.561736 
L 345.306891 459.561736 
" clip-path="url(#p01cc477838)" style="fill: none; stroke: #ff7f0e; stroke-width: 1.5; stroke-linecap: square"/>
   </g>
   <g id="line2d_87">
    <path d="M 62.030392 271.580033 
L 122.377516 271.690622 
L 136.576839 271.955352 
L 146.516365 272.345782 
L 155.035959 272.894281 
L 162.135621 273.557332 
L 168.525317 274.35679 
L 174.915012 275.388478 
L 180.594741 276.533879 
L 186.274471 277.925616 
L 191.244234 279.369608 
L 196.213997 281.04628 
L 201.18376 282.975817 
L 206.153523 285.177679 
L 210.41332 287.295708 
L 214.673117 289.638088 
L 218.932914 292.214622 
L 223.192711 295.034006 
L 227.452508 298.103675 
L 231.712305 301.429651 
L 235.972102 305.016415 
L 240.231899 308.866774 
L 244.491696 312.981764 
L 249.461459 318.115831 
L 254.431222 323.604213 
L 259.400985 329.438554 
L 264.370749 335.606748 
L 270.050478 343.044418 
L 275.730207 350.867797 
L 282.119903 360.085643 
L 288.509598 369.687335 
L 296.319226 381.845212 
L 306.258752 397.784591 
L 331.817534 439.05128 
L 339.627162 451.112355 
L 345.306891 459.561736 
L 345.306891 459.561736 
" clip-path="url(#p01cc477838)" style="fill: none; stroke: #2ca02c; stroke-width: 1.5; stroke-linecap: square"/>
   </g>
   <g id="line2d_88">
    <path d="M 62.030392 271.580033 
L 112.43799 271.685893 
L 130.187144 271.944896 
L 143.676501 272.353801 
L 155.035959 272.920925 
L 164.26552 273.589324 
L 172.785113 274.420463 
L 180.594741 275.406638 
L 187.694403 276.528364 
L 194.084098 277.754571 
L 200.473794 279.219407 
L 206.153523 280.750897 
L 211.833252 282.527381 
L 216.803016 284.306735 
L 221.772779 286.319103 
L 226.742542 288.588039 
L 231.002339 290.755909 
L 235.262136 293.146995 
L 239.521933 295.778271 
L 243.78173 298.667127 
L 248.041527 301.831173 
L 252.301324 305.288007 
L 256.561121 309.054922 
L 260.820918 313.148549 
L 265.080715 317.584443 
L 269.340512 322.376598 
L 273.600309 327.536899 
L 277.860106 333.074513 
L 282.119903 338.995238 
L 286.3797 345.300812 
L 290.639497 351.988217 
L 294.899294 359.049003 
L 299.869057 367.738787 
L 304.83882 376.882372 
L 310.518549 387.826522 
L 316.908245 400.657594 
L 325.427839 418.341462 
L 341.75706 452.412461 
L 345.306891 459.561736 
L 345.306891 459.561736 
" clip-path="url(#p01cc477838)" style="fill: none; stroke-dasharray: 5.55,2.4; stroke-dashoffset: 0; stroke: #ff7f0e; stroke-width: 1.5"/>
   </g>
   <g id="line2d_89">
    <path d="M 62.030392 271.580033 
L 152.906061 271.685979 
L 172.075147 271.934308 
L 185.564504 272.324535 
L 196.213997 272.856548 
L 204.733591 273.496944 
L 211.833252 274.231037 
L 218.222948 275.09342 
L 223.902677 276.059662 
L 229.582407 277.254952 
L 234.55217 278.525219 
L 239.521933 280.042638 
L 243.78173 281.571102 
L 248.041527 283.340476 
L 252.301324 285.382954 
L 255.851155 287.319036 
L 259.400985 289.491356 
L 262.950816 291.923467 
L 266.500647 294.640258 
L 270.050478 297.667777 
L 273.600309 301.032965 
L 277.150139 304.763291 
L 280.69997 308.886267 
L 284.249801 313.42884 
L 287.799632 318.416624 
L 291.349463 323.872994 
L 294.899294 329.81802 
L 298.449124 336.267267 
L 301.998955 343.23048 
L 305.548786 350.710201 
L 309.098617 358.700379 
L 312.648448 367.185071 
L 316.908245 377.980664 
L 321.168042 389.3797 
L 326.137805 403.313695 
L 332.5275 421.931013 
L 345.306891 459.561736 
L 345.306891 459.561736 
" clip-path="url(#p01cc477838)" style="fill: none; stroke-dasharray: 5.55,2.4; stroke-dashoffset: 0; stroke: #2ca02c; stroke-width: 1.5"/>
   </g>
   <g id="line2d_90">
    <path d="M 62.030392 271.580033 
L 345.306891 271.580033 
L 345.306891 271.580033 
" clip-path="url(#p01cc477838)" style="fill: none; stroke: #808080; stroke-width: 1.5; stroke-linecap: square"/>
   </g>
   <g id="patch_13">
    <path d="M 47.866567 468.960822 
L 47.866567 262.180948 
" style="fill: none; stroke: #000000; stroke-width: 0.8; stroke-linejoin: miter; stroke-linecap: square"/>
   </g>
   <g id="patch_14">
    <path d="M 359.470716 468.960822 
L 359.470716 262.180948 
" style="fill: none; stroke: #000000; stroke-width: 0.8; stroke-linejoin: miter; stroke-linecap: square"/>
   </g>
   <g id="patch_15">
    <path d="M 47.866567 468.960822 
L 359.470716 468.960822 
" style="fill: none; stroke: #000000; stroke-width: 0.8; stroke-linejoin: miter; stroke-linecap: square"/>
   </g>
   <g id="patch_16">
    <path d="M 47.866567 262.180948 
L 359.470716 262.180948 
" style="fill: none; stroke: #000000; stroke-width: 0.8; stroke-linejoin: miter; stroke-linecap: square"/>
   </g>
   <g id="text_38">
    <!-- Phase velocity -->
    <g transform="translate(142.662049 256.180948)scale(0.17 -0.17)">
     <defs>
      <path id="CMTT12-50" d="M 1030 1600 
L 1824 1600 
C 2566 1600 3014 2184 3014 2750 
C 3014 3340 2554 3904 1824 3904 
L 442 3904 
C 352 3904 179 3904 179 3719 
C 179 3533 352 3533 442 3533 
L 614 3533 
L 614 371 
L 442 371 
C 352 371 179 371 179 186 
C 179 0 352 0 442 0 
L 1203 0 
C 1293 0 1466 0 1466 186 
C 1466 371 1293 371 1203 371 
L 1030 371 
L 1030 1600 
z
M 1030 3533 
L 1709 3533 
C 2323 3533 2598 3090 2598 2755 
C 2598 2395 2310 1971 1709 1971 
L 1030 1971 
L 1030 3533 
z
" transform="scale(0.015625)"/>
      <path id="CMTT12-68" d="M 2675 1879 
C 2675 2507 2381 2803 1856 2803 
C 1421 2803 1139 2560 1030 2438 
L 1030 3644 
C 1030 3841 992 3904 774 3904 
L 352 3904 
C 262 3904 96 3904 96 3719 
C 96 3533 262 3533 352 3533 
L 614 3533 
L 614 371 
L 352 371 
C 262 371 96 371 96 186 
C 96 0 262 0 352 0 
L 1293 0 
C 1382 0 1549 0 1549 186 
C 1549 371 1382 371 1293 371 
L 1030 371 
L 1030 1533 
C 1030 2155 1466 2432 1811 2432 
C 2182 2432 2259 2219 2259 1854 
L 2259 371 
L 1997 371 
C 1907 371 1741 371 1741 186 
C 1741 0 1907 0 1997 0 
L 2938 0 
C 3027 0 3194 0 3194 186 
C 3194 371 3027 371 2938 371 
L 2675 371 
L 2675 1879 
z
" transform="scale(0.015625)"/>
      <path id="CMTT12-73" d="M 2688 2573 
C 2688 2675 2688 2816 2509 2816 
C 2355 2816 2317 2669 2317 2662 
C 2061 2816 1766 2816 1638 2816 
C 595 2816 454 2286 454 2069 
C 454 1807 608 1629 826 1507 
C 1030 1392 1216 1361 1741 1278 
C 1990 1233 2502 1150 2502 799 
C 2502 562 2285 339 1690 339 
C 1280 339 1011 499 877 960 
C 845 1049 826 1120 666 1120 
C 454 1120 454 998 454 870 
L 454 211 
C 454 108 454 -32 634 -32 
C 710 -32 768 -32 864 230 
C 1158 -32 1491 -32 1690 -32 
C 2874 -32 2874 734 2874 798 
C 2874 1461 2080 1596 1773 1640 
C 1210 1736 826 1800 826 2068 
C 826 2241 1024 2445 1626 2445 
C 2234 2445 2259 2157 2272 1990 
C 2285 1862 2400 1843 2477 1843 
C 2688 1843 2688 1958 2688 2086 
L 2688 2573 
z
" transform="scale(0.015625)"/>
     </defs>
     <use xlink:href="#CMTT12-50" transform="scale(0.996264)"/>
     <use xlink:href="#CMTT12-68" transform="translate(51.266111 0)scale(0.996264)"/>
     <use xlink:href="#CMTT12-61" transform="translate(102.532222 0)scale(0.996264)"/>
     <use xlink:href="#CMTT12-73" transform="translate(153.798333 0)scale(0.996264)"/>
     <use xlink:href="#CMTT12-65" transform="translate(205.064443 0)scale(0.996264)"/>
     <use xlink:href="#CMTT12-76" transform="translate(307.596665 0)scale(0.996264)"/>
     <use xlink:href="#CMTT12-65" transform="translate(358.862776 0)scale(0.996264)"/>
     <use xlink:href="#CMTT12-6c" transform="translate(410.128887 0)scale(0.996264)"/>
     <use xlink:href="#CMTT12-6f" transform="translate(461.394998 0)scale(0.996264)"/>
     <use xlink:href="#CMTT12-63" transform="translate(512.661108 0)scale(0.996264)"/>
     <use xlink:href="#CMTT12-69" transform="translate(563.927219 0)scale(0.996264)"/>
     <use xlink:href="#CMTT12-74" transform="translate(615.19333 0)scale(0.996264)"/>
     <use xlink:href="#CMTT12-79" transform="translate(666.459441 0)scale(0.996264)"/>
    </g>
   </g>
  </g>
  <g id="legend_1">
   <g id="patch_17">
    <path d="M 86.69976 536.480635 
L 641.69976 536.480635 
Q 644.69976 536.480635 644.69976 533.480635 
L 644.69976 513.65976 
Q 644.69976 510.65976 641.69976 510.65976 
L 86.69976 510.65976 
Q 83.69976 510.65976 83.69976 513.65976 
L 83.69976 533.480635 
Q 83.69976 536.480635 86.69976 536.480635 
z
" style="fill: #f5deb3; opacity: 0.25; stroke: #cccccc; stroke-linejoin: miter"/>
   </g>
   <g id="line2d_91">
    <path d="M 89.69976 521.90976 
L 104.69976 521.90976 
L 119.69976 521.90976 
" style="fill: none; stroke: #1f77b4; stroke-width: 1.5; stroke-linecap: square"/>
   </g>
   <g id="text_39">
    <!-- E2 -->
    <g transform="translate(131.69976 527.15976)scale(0.15 -0.15)">
     <defs>
      <path id="CMTT12-45" d="M 1030 1856 
L 1875 1856 
C 1875 1624 1875 1498 2086 1498 
C 2291 1498 2291 1645 2291 1760 
L 2291 2298 
C 2291 2413 2291 2560 2086 2560 
C 1875 2560 1875 2443 1875 2227 
L 1030 2227 
L 1030 3533 
L 2598 3533 
L 2598 3222 
C 2598 3107 2598 2961 2803 2961 
C 3014 2961 3014 3101 3014 3223 
L 3014 3643 
C 3014 3840 2976 3904 2758 3904 
L 442 3904 
C 352 3904 179 3904 179 3719 
C 179 3533 352 3533 442 3533 
L 614 3533 
L 614 371 
L 442 371 
C 352 371 179 371 179 186 
C 179 0 352 0 442 0 
L 2899 0 
C 3110 0 3155 58 3155 262 
L 3155 781 
C 3155 896 3155 1043 2950 1043 
C 2739 1043 2739 902 2739 781 
L 2739 371 
L 1030 371 
L 1030 1856 
z
" transform="scale(0.015625)"/>
      <path id="CMTT12-32" d="M 2227 1403 
C 2317 1479 2963 2026 2963 2734 
C 2963 3459 2362 3968 1562 3968 
C 819 3968 326 3413 326 2879 
C 326 2611 550 2592 589 2592 
C 704 2592 845 2680 845 2852 
C 845 2973 800 3011 768 3037 
C 858 3374 1152 3597 1523 3597 
C 2067 3597 2547 3285 2547 2732 
C 2547 2234 2170 1852 1824 1554 
L 416 337 
C 346 280 326 261 326 185 
C 326 0 499 0 589 0 
L 2822 0 
C 2963 38 2963 165 2963 261 
L 2963 396 
C 2963 510 2963 657 2758 657 
C 2547 657 2547 524 2547 371 
L 1005 371 
L 2227 1403 
z
" transform="scale(0.015625)"/>
     </defs>
     <use xlink:href="#CMTT12-45" transform="scale(0.996264)"/>
     <use xlink:href="#CMTT12-32" transform="translate(51.266111 0)scale(0.996264)"/>
    </g>
   </g>
   <g id="line2d_92">
    <path d="M 183.409847 521.90976 
L 198.409847 521.90976 
L 213.409847 521.90976 
" style="fill: none; stroke: #ff7f0e; stroke-width: 1.5; stroke-linecap: square"/>
   </g>
   <g id="text_40">
    <!-- E4 -->
    <g transform="translate(225.409847 527.15976)scale(0.15 -0.15)">
     <defs>
      <path id="CMTT12-34" d="M 243 1547 
C 186 1464 186 1451 186 1337 
C 186 1114 269 1088 442 1088 
L 2010 1088 
L 2010 371 
L 1626 371 
C 1536 371 1370 371 1370 186 
C 1370 0 1536 0 1626 0 
L 2752 0 
C 2842 0 3008 0 3008 186 
C 3008 371 2842 371 2752 371 
L 2368 371 
L 2368 1088 
L 2848 1088 
C 2938 1088 3104 1088 3104 1274 
C 3104 1459 2938 1459 2848 1459 
L 2368 1459 
L 2368 3739 
C 2368 3949 2323 4000 2106 4000 
L 1958 4000 
C 1805 4000 1773 3994 1696 3873 
L 243 1547 
z
M 614 1459 
L 2010 3688 
L 2010 1459 
L 614 1459 
z
" transform="scale(0.015625)"/>
     </defs>
     <use xlink:href="#CMTT12-45" transform="scale(0.996264)"/>
     <use xlink:href="#CMTT12-34" transform="translate(51.266111 0)scale(0.996264)"/>
    </g>
   </g>
   <g id="line2d_93">
    <path d="M 277.119934 521.90976 
L 292.119934 521.90976 
L 307.119934 521.90976 
" style="fill: none; stroke: #2ca02c; stroke-width: 1.5; stroke-linecap: square"/>
   </g>
   <g id="text_41">
    <!-- E6 -->
    <g transform="translate(319.119934 527.15976)scale(0.15 -0.15)">
     <defs>
      <path id="CMTT12-36" d="M 762 2144 
C 826 2997 1382 3648 2010 3648 
C 2138 3648 2285 3629 2381 3524 
C 2355 3491 2330 3459 2330 3361 
C 2330 3238 2419 3100 2586 3100 
C 2752 3100 2848 3223 2848 3372 
C 2848 3715 2586 4019 2016 4019 
C 1178 4019 339 3234 339 1936 
C 339 386 1050 -64 1658 -64 
C 2342 -64 2950 480 2950 1248 
C 2950 1997 2394 2560 1728 2560 
C 1402 2560 1037 2439 762 2144 
z
M 1658 307 
C 973 307 832 1178 832 1184 
C 832 1191 838 1223 838 1242 
C 838 1280 813 1363 813 1440 
C 813 1811 1158 2183 1683 2183 
C 2182 2183 2534 1754 2534 1248 
C 2534 691 2118 307 1658 307 
z
" transform="scale(0.015625)"/>
     </defs>
     <use xlink:href="#CMTT12-45" transform="scale(0.996264)"/>
     <use xlink:href="#CMTT12-36" transform="translate(51.266111 0)scale(0.996264)"/>
    </g>
   </g>
   <g id="line2d_94">
    <path d="M 370.830022 521.90976 
L 385.830022 521.90976 
L 400.830022 521.90976 
" style="fill: none; stroke-dasharray: 5.55,2.4; stroke-dashoffset: 0; stroke: #ff7f0e; stroke-width: 1.5"/>
   </g>
   <g id="text_42">
    <!-- I4 -->
    <g transform="translate(412.830022 527.15976)scale(0.15 -0.15)">
     <defs>
      <path id="CMTT12-49" d="M 1856 3533 
L 2509 3533 
C 2598 3533 2765 3533 2765 3719 
C 2765 3904 2598 3904 2509 3904 
L 787 3904 
C 698 3904 531 3904 531 3719 
C 531 3533 698 3533 787 3533 
L 1440 3533 
L 1440 371 
L 787 371 
C 698 371 531 371 531 186 
C 531 0 698 0 787 0 
L 2509 0 
C 2598 0 2765 0 2765 186 
C 2765 371 2598 371 2509 371 
L 1856 371 
L 1856 3533 
z
" transform="scale(0.015625)"/>
     </defs>
     <use xlink:href="#CMTT12-49" transform="scale(0.996264)"/>
     <use xlink:href="#CMTT12-34" transform="translate(51.266111 0)scale(0.996264)"/>
    </g>
   </g>
   <g id="line2d_95">
    <path d="M 464.540109 521.90976 
L 479.540109 521.90976 
L 494.540109 521.90976 
" style="fill: none; stroke-dasharray: 5.55,2.4; stroke-dashoffset: 0; stroke: #2ca02c; stroke-width: 1.5"/>
   </g>
   <g id="text_43">
    <!-- I6 -->
    <g transform="translate(506.540109 527.15976)scale(0.15 -0.15)">
     <use xlink:href="#CMTT12-49" transform="scale(0.996264)"/>
     <use xlink:href="#CMTT12-36" transform="translate(51.266111 0)scale(0.996264)"/>
    </g>
   </g>
   <g id="line2d_96">
    <path d="M 558.250196 521.90976 
L 573.250196 521.90976 
L 588.250196 521.90976 
" style="fill: none; stroke: #808080; stroke-width: 1.5; stroke-linecap: square"/>
   </g>
   <g id="text_44">
    <!-- Exact -->
    <g transform="translate(600.250196 527.15976)scale(0.15 -0.15)">
     <defs>
      <path id="CMTT12-78" d="M 1805 1418 
L 2541 2381 
L 2765 2381 
C 2854 2381 3021 2381 3021 2567 
C 3021 2752 2854 2752 2765 2752 
L 2054 2752 
C 1965 2752 1798 2752 1798 2567 
C 1798 2381 1952 2381 2106 2381 
L 1626 1724 
L 1133 2381 
C 1280 2381 1434 2381 1434 2567 
C 1434 2752 1267 2752 1178 2752 
L 467 2752 
C 378 2752 211 2752 211 2567 
C 211 2381 378 2381 467 2381 
L 691 2381 
L 1453 1417 
L 653 371 
L 435 371 
C 346 371 173 371 173 186 
C 173 0 346 0 435 0 
L 1139 0 
C 1229 0 1395 0 1395 186 
C 1395 371 1248 371 1075 371 
L 1626 1175 
L 2202 371 
C 2042 371 1888 371 1888 186 
C 1888 0 2054 0 2144 0 
L 2854 0 
C 2944 0 3110 0 3110 186 
C 3110 371 2944 371 2854 371 
L 2630 371 
L 1805 1418 
z
" transform="scale(0.015625)"/>
     </defs>
     <use xlink:href="#CMTT12-45" transform="scale(0.996264)"/>
     <use xlink:href="#CMTT12-78" transform="translate(51.266111 0)scale(0.996264)"/>
     <use xlink:href="#CMTT12-61" transform="translate(102.532222 0)scale(0.996264)"/>
     <use xlink:href="#CMTT12-63" transform="translate(153.798333 0)scale(0.996264)"/>
     <use xlink:href="#CMTT12-74" transform="translate(205.064443 0)scale(0.996264)"/>
    </g>
   </g>
  </g>
 </g>
 <defs>
  <clipPath id="p02e5878bf1">
   <rect x="47.866567" y="23.550058" width="311.604149" height="206.779873"/>
  </clipPath>
  <clipPath id="p92da112f6d">
   <rect x="409.595371" y="23.550058" width="311.604149" height="445.410764"/>
  </clipPath>
  <clipPath id="p01cc477838">
   <rect x="47.866567" y="262.180948" width="311.604149" height="206.779873"/>
  </clipPath>
 </defs>
</svg>
