<?xml version="1.0" encoding="utf-8" standalone="no"?>
<!DOCTYPE svg PUBLIC "-//W3C//DTD SVG 1.1//EN"
  "http://www.w3.org/Graphics/SVG/1.1/DTD/svg11.dtd">
<svg xmlns:xlink="http://www.w3.org/1999/xlink" width="728.39952pt" height="543.680635pt" viewBox="0 0 728.39952 543.680635" xmlns="http://www.w3.org/2000/svg" version="1.1">
 <metadata>
  <rdf:RDF xmlns:dc="http://purl.org/dc/elements/1.1/" xmlns:cc="http://creativecommons.org/ns#" xmlns:rdf="http://www.w3.org/1999/02/22-rdf-syntax-ns#">
   <cc:Work>
    <dc:type rdf:resource="http://purl.org/dc/dcmitype/StillImage"/>
    <dc:date>2023-03-18T02:05:56.516511</dc:date>
    <dc:format>image/svg+xml</dc:format>
    <dc:creator>
     <cc:Agent>
      <dc:title>Matplotlib v3.5.1, https://matplotlib.org/</dc:title>
     </cc:Agent>
    </dc:creator>
   </cc:Work>
  </rdf:RDF>
 </metadata>
 <defs>
  <style type="text/css">*{stroke-linejoin: round; stroke-linecap: butt}</style>
 </defs>
 <g id="figure_1">
  <g id="patch_1">
   <path d="M 0 543.680635 
L 728.39952 543.680635 
L 728.39952 -0 
L 0 -0 
z
" style="fill: #ffffff"/>
  </g>
  <g id="axes_1">
   <g id="patch_2">
    <path d="M 47.866567 230.329931 
L 359.470716 230.329931 
L 359.470716 23.550058 
L 47.866567 23.550058 
z
" style="fill: #ffffff"/>
   </g>
   <g id="matplotlib.axis_1">
    <g id="xtick_1">
     <g id="line2d_1">
      <path d="M 62.030392 230.329931 
L 62.030392 23.550058 
" clip-path="url(#pd22bc15ac1)" style="fill: none; stroke-dasharray: 0.8,1.32; stroke-dashoffset: 0; stroke: #b0b0b0; stroke-width: 0.8"/>
     </g>
     <g id="line2d_2">
      <defs>
       <path id="m361b5fa4fe" d="M 0 0 
L 0 3.5 
" style="stroke: #000000; stroke-width: 0.8"/>
      </defs>
      <g>
       <use xlink:href="#m361b5fa4fe" x="62.030392" y="230.329931" style="stroke: #000000; stroke-width: 0.8"/>
      </g>
     </g>
    </g>
    <g id="xtick_2">
     <g id="line2d_3">
      <path d="M 118.685692 230.329931 
L 118.685692 23.550058 
" clip-path="url(#pd22bc15ac1)" style="fill: none; stroke-dasharray: 0.8,1.32; stroke-dashoffset: 0; stroke: #b0b0b0; stroke-width: 0.8"/>
     </g>
     <g id="line2d_4">
      <g>
       <use xlink:href="#m361b5fa4fe" x="118.685692" y="230.329931" style="stroke: #000000; stroke-width: 0.8"/>
      </g>
     </g>
    </g>
    <g id="xtick_3">
     <g id="line2d_5">
      <path d="M 175.340992 230.329931 
L 175.340992 23.550058 
" clip-path="url(#pd22bc15ac1)" style="fill: none; stroke-dasharray: 0.8,1.32; stroke-dashoffset: 0; stroke: #b0b0b0; stroke-width: 0.8"/>
     </g>
     <g id="line2d_6">
      <g>
       <use xlink:href="#m361b5fa4fe" x="175.340992" y="230.329931" style="stroke: #000000; stroke-width: 0.8"/>
      </g>
     </g>
    </g>
    <g id="xtick_4">
     <g id="line2d_7">
      <path d="M 231.996291 230.329931 
L 231.996291 23.550058 
" clip-path="url(#pd22bc15ac1)" style="fill: none; stroke-dasharray: 0.8,1.32; stroke-dashoffset: 0; stroke: #b0b0b0; stroke-width: 0.8"/>
     </g>
     <g id="line2d_8">
      <g>
       <use xlink:href="#m361b5fa4fe" x="231.996291" y="230.329931" style="stroke: #000000; stroke-width: 0.8"/>
      </g>
     </g>
    </g>
    <g id="xtick_5">
     <g id="line2d_9">
      <path d="M 288.651591 230.329931 
L 288.651591 23.550058 
" clip-path="url(#pd22bc15ac1)" style="fill: none; stroke-dasharray: 0.8,1.32; stroke-dashoffset: 0; stroke: #b0b0b0; stroke-width: 0.8"/>
     </g>
     <g id="line2d_10">
      <g>
       <use xlink:href="#m361b5fa4fe" x="288.651591" y="230.329931" style="stroke: #000000; stroke-width: 0.8"/>
      </g>
     </g>
    </g>
    <g id="xtick_6">
     <g id="line2d_11">
      <path d="M 345.306891 230.329931 
L 345.306891 23.550058 
" clip-path="url(#pd22bc15ac1)" style="fill: none; stroke-dasharray: 0.8,1.32; stroke-dashoffset: 0; stroke: #b0b0b0; stroke-width: 0.8"/>
     </g>
     <g id="line2d_12">
      <g>
       <use xlink:href="#m361b5fa4fe" x="345.306891" y="230.329931" style="stroke: #000000; stroke-width: 0.8"/>
      </g>
     </g>
    </g>
   </g>
   <g id="matplotlib.axis_2">
    <g id="ytick_1">
     <g id="line2d_13">
      <path d="M 47.866567 220.930846 
L 359.470716 220.930846 
" clip-path="url(#pd22bc15ac1)" style="fill: none; stroke-dasharray: 0.8,1.32; stroke-dashoffset: 0; stroke: #b0b0b0; stroke-width: 0.8"/>
     </g>
     <g id="line2d_14">
      <defs>
       <path id="m96747122b2" d="M 0 0 
L -3.5 0 
" style="stroke: #000000; stroke-width: 0.8"/>
      </defs>
      <g>
       <use xlink:href="#m96747122b2" x="47.866567" y="220.930846" style="stroke: #000000; stroke-width: 0.8"/>
      </g>
     </g>
     <g id="text_1">
      <!-- $\mathdefault{0.0}$ -->
      <g transform="translate(28.136488 223.974987)scale(0.1 -0.1)">
       <defs>
        <path id="CMR17-30" d="M 2688 2038 
C 2688 2430 2682 3099 2413 3613 
C 2176 4063 1798 4224 1466 4224 
C 1158 4224 768 4082 525 3620 
C 269 3137 243 2539 243 2038 
C 243 1671 250 1112 448 623 
C 723 -39 1216 -128 1466 -128 
C 1760 -128 2208 -7 2470 604 
C 2662 1048 2688 1568 2688 2038 
z
M 1466 -26 
C 1056 -26 813 328 723 816 
C 653 1196 653 1749 653 2109 
C 653 2604 653 3015 736 3407 
C 858 3954 1216 4121 1466 4121 
C 1728 4121 2067 3947 2189 3420 
C 2272 3054 2278 2623 2278 2109 
C 2278 1691 2278 1176 2202 797 
C 2067 96 1690 -26 1466 -26 
z
" transform="scale(0.015625)"/>
        <path id="CMMI12-3a" d="M 1178 307 
C 1178 492 1024 620 870 620 
C 685 620 557 467 557 313 
C 557 128 710 0 864 0 
C 1050 0 1178 153 1178 307 
z
" transform="scale(0.015625)"/>
       </defs>
       <use xlink:href="#CMR17-30" transform="scale(0.996264)"/>
       <use xlink:href="#CMMI12-3a" transform="translate(45.690477 0)scale(0.996264)"/>
       <use xlink:href="#CMR17-30" transform="translate(72.787654 0)scale(0.996264)"/>
      </g>
     </g>
    </g>
    <g id="ytick_2">
     <g id="line2d_15">
      <path d="M 47.866567 183.334505 
L 359.470716 183.334505 
" clip-path="url(#pd22bc15ac1)" style="fill: none; stroke-dasharray: 0.8,1.32; stroke-dashoffset: 0; stroke: #b0b0b0; stroke-width: 0.8"/>
     </g>
     <g id="line2d_16">
      <g>
       <use xlink:href="#m96747122b2" x="47.866567" y="183.334505" style="stroke: #000000; stroke-width: 0.8"/>
      </g>
     </g>
     <g id="text_2">
      <!-- $\mathdefault{0.2}$ -->
      <g transform="translate(28.136488 186.378647)scale(0.1 -0.1)">
       <defs>
        <path id="CMR17-32" d="M 2669 990 
L 2554 990 
C 2490 537 2438 460 2413 422 
C 2381 371 1920 371 1830 371 
L 602 371 
C 832 620 1280 1073 1824 1596 
C 2214 1966 2669 2400 2669 3033 
C 2669 3788 2067 4224 1395 4224 
C 691 4224 262 3603 262 3027 
C 262 2777 448 2745 525 2745 
C 589 2745 781 2783 781 3007 
C 781 3206 614 3264 525 3264 
C 486 3264 448 3257 422 3244 
C 544 3788 915 4057 1306 4057 
C 1862 4057 2227 3616 2227 3033 
C 2227 2477 1901 1998 1536 1583 
L 262 147 
L 262 0 
L 2515 0 
L 2669 990 
z
" transform="scale(0.015625)"/>
       </defs>
       <use xlink:href="#CMR17-30" transform="scale(0.996264)"/>
       <use xlink:href="#CMMI12-3a" transform="translate(45.690477 0)scale(0.996264)"/>
       <use xlink:href="#CMR17-32" transform="translate(72.787654 0)scale(0.996264)"/>
      </g>
     </g>
    </g>
    <g id="ytick_3">
     <g id="line2d_17">
      <path d="M 47.866567 145.738164 
L 359.470716 145.738164 
" clip-path="url(#pd22bc15ac1)" style="fill: none; stroke-dasharray: 0.8,1.32; stroke-dashoffset: 0; stroke: #b0b0b0; stroke-width: 0.8"/>
     </g>
     <g id="line2d_18">
      <g>
       <use xlink:href="#m96747122b2" x="47.866567" y="145.738164" style="stroke: #000000; stroke-width: 0.8"/>
      </g>
     </g>
     <g id="text_3">
      <!-- $\mathdefault{0.4}$ -->
      <g transform="translate(28.136488 148.782306)scale(0.1 -0.1)">
       <defs>
        <path id="CMR17-34" d="M 2150 4147 
C 2150 4281 2144 4288 2029 4288 
L 128 1254 
L 128 1088 
L 1779 1088 
L 1779 460 
C 1779 230 1766 166 1318 166 
L 1197 166 
L 1197 0 
C 1402 12 1747 12 1965 12 
C 2182 12 2528 12 2733 0 
L 2733 166 
L 2611 166 
C 2163 166 2150 230 2150 460 
L 2150 1088 
L 2803 1088 
L 2803 1254 
L 2150 1254 
L 2150 4147 
z
M 1798 3723 
L 1798 1254 
L 256 1254 
L 1798 3723 
z
" transform="scale(0.015625)"/>
       </defs>
       <use xlink:href="#CMR17-30" transform="scale(0.996264)"/>
       <use xlink:href="#CMMI12-3a" transform="translate(45.690477 0)scale(0.996264)"/>
       <use xlink:href="#CMR17-34" transform="translate(72.787654 0)scale(0.996264)"/>
      </g>
     </g>
    </g>
    <g id="ytick_4">
     <g id="line2d_19">
      <path d="M 47.866567 108.141824 
L 359.470716 108.141824 
" clip-path="url(#pd22bc15ac1)" style="fill: none; stroke-dasharray: 0.8,1.32; stroke-dashoffset: 0; stroke: #b0b0b0; stroke-width: 0.8"/>
     </g>
     <g id="line2d_20">
      <g>
       <use xlink:href="#m96747122b2" x="47.866567" y="108.141824" style="stroke: #000000; stroke-width: 0.8"/>
      </g>
     </g>
     <g id="text_4">
      <!-- $\mathdefault{0.6}$ -->
      <g transform="translate(28.136488 111.185966)scale(0.1 -0.1)">
       <defs>
        <path id="CMR17-36" d="M 678 2198 
C 678 3712 1395 4076 1811 4076 
C 1946 4076 2272 4049 2400 3782 
C 2298 3782 2106 3782 2106 3558 
C 2106 3385 2246 3328 2336 3328 
C 2394 3328 2566 3353 2566 3571 
C 2566 3987 2246 4224 1805 4224 
C 1043 4224 243 3411 243 2011 
C 243 257 966 -128 1478 -128 
C 2099 -128 2688 431 2688 1295 
C 2688 2101 2170 2688 1517 2688 
C 1126 2688 838 2430 678 1979 
L 678 2198 
z
M 1478 25 
C 691 25 691 1212 691 1450 
C 691 1914 909 2585 1504 2585 
C 1613 2585 1926 2585 2138 2140 
C 2253 1889 2253 1624 2253 1302 
C 2253 954 2253 696 2118 438 
C 1978 173 1773 25 1478 25 
z
" transform="scale(0.015625)"/>
       </defs>
       <use xlink:href="#CMR17-30" transform="scale(0.996264)"/>
       <use xlink:href="#CMMI12-3a" transform="translate(45.690477 0)scale(0.996264)"/>
       <use xlink:href="#CMR17-36" transform="translate(72.787654 0)scale(0.996264)"/>
      </g>
     </g>
    </g>
    <g id="ytick_5">
     <g id="line2d_21">
      <path d="M 47.866567 70.545483 
L 359.470716 70.545483 
" clip-path="url(#pd22bc15ac1)" style="fill: none; stroke-dasharray: 0.8,1.32; stroke-dashoffset: 0; stroke: #b0b0b0; stroke-width: 0.8"/>
     </g>
     <g id="line2d_22">
      <g>
       <use xlink:href="#m96747122b2" x="47.866567" y="70.545483" style="stroke: #000000; stroke-width: 0.8"/>
      </g>
     </g>
     <g id="text_5">
      <!-- $\mathdefault{0.8}$ -->
      <g transform="translate(28.136488 73.589625)scale(0.1 -0.1)">
       <defs>
        <path id="CMR17-38" d="M 1741 2289 
C 2144 2494 2554 2803 2554 3298 
C 2554 3884 1990 4224 1472 4224 
C 890 4224 378 3800 378 3215 
C 378 3054 416 2777 666 2533 
C 730 2469 998 2276 1171 2154 
C 883 2006 211 1652 211 945 
C 211 282 838 -128 1459 -128 
C 2144 -128 2720 366 2720 1022 
C 2720 1607 2330 1877 2074 2051 
L 1741 2289 
z
M 902 2855 
C 851 2887 595 3086 595 3388 
C 595 3781 998 4076 1459 4076 
C 1965 4076 2336 3716 2336 3298 
C 2336 2700 1670 2359 1638 2359 
C 1632 2359 1626 2359 1574 2398 
L 902 2855 
z
M 2080 1536 
C 2176 1466 2483 1253 2483 861 
C 2483 385 2010 25 1472 25 
C 890 25 448 443 448 951 
C 448 1459 838 1884 1280 2083 
L 2080 1536 
z
" transform="scale(0.015625)"/>
       </defs>
       <use xlink:href="#CMR17-30" transform="scale(0.996264)"/>
       <use xlink:href="#CMMI12-3a" transform="translate(45.690477 0)scale(0.996264)"/>
       <use xlink:href="#CMR17-38" transform="translate(72.787654 0)scale(0.996264)"/>
      </g>
     </g>
    </g>
    <g id="ytick_6">
     <g id="line2d_23">
      <path d="M 47.866567 32.949143 
L 359.470716 32.949143 
" clip-path="url(#pd22bc15ac1)" style="fill: none; stroke-dasharray: 0.8,1.32; stroke-dashoffset: 0; stroke: #b0b0b0; stroke-width: 0.8"/>
     </g>
     <g id="line2d_24">
      <g>
       <use xlink:href="#m96747122b2" x="47.866567" y="32.949143" style="stroke: #000000; stroke-width: 0.8"/>
      </g>
     </g>
     <g id="text_6">
      <!-- $\mathdefault{1.0}$ -->
      <g transform="translate(28.136488 35.993284)scale(0.1 -0.1)">
       <defs>
        <path id="CMR17-31" d="M 1702 4083 
C 1702 4217 1696 4224 1606 4224 
C 1357 3927 979 3833 621 3820 
C 602 3820 570 3820 563 3808 
C 557 3795 557 3782 557 3648 
C 755 3648 1088 3686 1344 3839 
L 1344 467 
C 1344 243 1331 166 781 166 
L 589 166 
L 589 0 
C 896 6 1216 12 1523 12 
C 1830 12 2150 6 2458 0 
L 2458 166 
L 2266 166 
C 1715 166 1702 236 1702 467 
L 1702 4083 
z
" transform="scale(0.015625)"/>
       </defs>
       <use xlink:href="#CMR17-31" transform="scale(0.996264)"/>
       <use xlink:href="#CMMI12-3a" transform="translate(45.690477 0)scale(0.996264)"/>
       <use xlink:href="#CMR17-30" transform="translate(72.787654 0)scale(0.996264)"/>
      </g>
     </g>
    </g>
    <g id="text_7">
     <!-- $\omega^* h / (c\,\pi) $ -->
     <g transform="translate(19.902366 160.524068)rotate(-90)scale(0.17 -0.17)">
      <defs>
       <path id="CMMI12-21" d="M 3802 2406 
C 3802 2592 3750 2828 3526 2828 
C 3398 2828 3251 2668 3251 2540 
C 3251 2483 3277 2444 3328 2387 
C 3424 2278 3546 2105 3546 1804 
C 3546 1574 3405 1209 3302 1011 
C 3123 659 2829 358 2496 358 
C 2093 358 1939 614 1869 972 
C 1939 1139 2086 1555 2086 1721 
C 2086 1792 2061 1849 1978 1849 
C 1933 1849 1882 1824 1850 1772 
C 1760 1632 1677 1126 1683 992 
C 1562 755 1216 358 806 358 
C 378 358 262 736 262 1100 
C 262 1766 678 2348 794 2508 
C 858 2604 902 2668 902 2681 
C 902 2726 877 2796 819 2796 
C 717 2796 685 2713 634 2636 
C 307 2131 77 1420 77 806 
C 77 409 224 -64 704 -64 
C 1235 -64 1568 390 1702 633 
C 1754 275 1946 -64 2413 -64 
C 2899 -64 3206 364 3437 883 
C 3603 1254 3802 2054 3802 2406 
z
" transform="scale(0.015625)"/>
       <path id="CMSY10-3" d="M 1760 2762 
C 1766 2853 1766 3008 1600 3008 
C 1498 3008 1414 2924 1434 2840 
L 1434 2755 
L 1523 1740 
L 704 2349 
C 646 2382 634 2395 589 2395 
C 499 2395 416 2303 416 2212 
C 416 2107 480 2081 544 2048 
L 1453 1603 
L 570 1164 
C 467 1112 416 1085 416 987 
C 416 889 499 804 589 804 
C 634 804 646 804 806 928 
L 1523 1459 
L 1427 359 
C 1427 224 1542 192 1594 192 
C 1670 192 1766 236 1766 359 
L 1670 1459 
L 2490 850 
C 2547 817 2560 804 2605 804 
C 2694 804 2778 896 2778 987 
C 2778 1085 2720 1118 2643 1157 
C 2259 1354 2246 1354 1741 1596 
L 2624 2035 
C 2726 2087 2778 2113 2778 2212 
C 2778 2310 2694 2395 2605 2395 
C 2560 2395 2547 2395 2387 2271 
L 1670 1740 
L 1760 2762 
z
" transform="scale(0.015625)"/>
       <path id="CMMI12-68" d="M 1798 4255 
C 1805 4281 1818 4319 1818 4351 
C 1818 4416 1754 4416 1741 4416 
C 1734 4416 1421 4390 1389 4383 
C 1280 4377 1184 4364 1069 4358 
C 909 4345 864 4339 864 4223 
C 864 4159 915 4159 1005 4159 
C 1318 4159 1325 4103 1325 4040 
C 1325 4002 1312 3951 1306 3932 
L 378 249 
C 352 153 352 140 352 102 
C 352 -39 461 -64 525 -64 
C 634 -64 717 19 749 89 
L 1037 1245 
C 1069 1385 1107 1519 1139 1660 
C 1210 1928 1210 1934 1331 2119 
C 1453 2305 1741 2687 2234 2687 
C 2490 2687 2579 2496 2579 2241 
C 2579 1883 2330 1187 2189 804 
C 2131 651 2099 568 2099 453 
C 2099 166 2298 -64 2605 -64 
C 3200 -64 3424 874 3424 913 
C 3424 945 3398 970 3360 970 
C 3302 970 3296 951 3264 842 
C 3117 332 2880 64 2624 64 
C 2560 64 2458 70 2458 274 
C 2458 440 2534 645 2560 715 
C 2675 1021 2963 1775 2963 2145 
C 2963 2528 2739 2816 2253 2816 
C 1888 2816 1568 2643 1306 2311 
L 1798 4255 
z
" transform="scale(0.015625)"/>
       <path id="CMMI12-3d" d="M 2746 4563 
C 2746 4569 2784 4665 2784 4678 
C 2784 4755 2720 4800 2669 4800 
C 2637 4800 2579 4800 2528 4659 
L 384 -1364 
C 384 -1370 346 -1466 346 -1479 
C 346 -1556 410 -1600 461 -1600 
C 499 -1600 557 -1594 602 -1460 
L 2746 4563 
z
" transform="scale(0.015625)"/>
       <path id="CMR17-28" d="M 1958 -1562 
C 1958 -1556 1958 -1543 1939 -1524 
C 1645 -1223 858 -403 858 1596 
C 858 3595 1632 4408 1946 4729 
C 1946 4735 1958 4748 1958 4767 
C 1958 4787 1939 4800 1914 4800 
C 1843 4800 1299 4325 986 3620 
C 666 2909 576 2218 576 1603 
C 576 1141 621 360 1005 -467 
C 1312 -1133 1837 -1600 1914 -1600 
C 1946 -1600 1958 -1588 1958 -1562 
z
" transform="scale(0.015625)"/>
       <path id="CMMI12-63" d="M 2502 2432 
C 2381 2432 2323 2432 2234 2355 
C 2195 2323 2125 2227 2125 2124 
C 2125 1996 2221 1919 2342 1919 
C 2496 1919 2669 2047 2669 2303 
C 2669 2591 2374 2816 1933 2816 
C 1094 2816 256 1932 256 1011 
C 256 446 602 -64 1254 -64 
C 2125 -64 2675 622 2675 706 
C 2675 745 2637 777 2611 777 
C 2592 777 2586 771 2528 712 
C 2118 161 1510 64 1267 64 
C 826 64 685 453 685 777 
C 685 1004 794 1634 1024 2073 
C 1190 2374 1536 2687 1939 2687 
C 2022 2687 2374 2676 2502 2432 
z
" transform="scale(0.015625)"/>
       <path id="CMMI12-19" d="M 1658 2406 
L 2381 2406 
C 2208 1691 2099 1225 2099 715 
C 2099 625 2099 -64 2362 -64 
C 2496 -64 2611 57 2611 166 
C 2611 198 2611 210 2566 306 
C 2394 746 2394 1295 2394 1340 
C 2394 1378 2394 1832 2528 2406 
L 3245 2406 
C 3328 2406 3539 2406 3539 2611 
C 3539 2752 3418 2752 3302 2752 
L 1197 2752 
C 1050 2752 832 2752 538 2438 
C 371 2253 166 1915 166 1876 
C 166 1838 198 1825 237 1825 
C 282 1825 288 1844 320 1883 
C 653 2406 986 2406 1146 2406 
L 1510 2406 
C 1370 1927 1210 1372 685 255 
C 634 153 634 140 634 102 
C 634 -32 749 -64 806 -64 
C 992 -64 1043 102 1120 370 
C 1222 695 1222 708 1286 964 
L 1658 2406 
z
" transform="scale(0.015625)"/>
       <path id="CMR17-29" d="M 1683 1596 
C 1683 2057 1638 2839 1254 3665 
C 947 4332 422 4800 346 4800 
C 326 4800 301 4793 301 4761 
C 301 4748 307 4742 314 4729 
C 621 4408 1402 3595 1402 1603 
C 1402 -396 627 -1210 314 -1530 
C 307 -1543 301 -1549 301 -1562 
C 301 -1594 326 -1600 346 -1600 
C 416 -1600 960 -1127 1274 -422 
C 1594 289 1683 981 1683 1596 
z
" transform="scale(0.015625)"/>
      </defs>
      <use xlink:href="#CMMI12-21" transform="scale(0.996264)"/>
      <use xlink:href="#CMSY10-3" transform="translate(64.318346 36.153639)scale(0.697382)"/>
      <use xlink:href="#CMMI12-68" transform="translate(99.685688 0)scale(0.996264)"/>
      <use xlink:href="#CMMI12-3d" transform="translate(155.840312 0)scale(0.996264)"/>
      <use xlink:href="#CMR17-28" transform="translate(204.615231 0)scale(0.996264)"/>
      <use xlink:href="#CMMI12-63" transform="translate(239.895999 0)scale(0.996264)"/>
      <use xlink:href="#CMMI12-19" transform="translate(298.483637 0)scale(0.996264)"/>
      <use xlink:href="#CMR17-29" transform="translate(357.394238 0)scale(0.996264)"/>
     </g>
    </g>
   </g>
   <g id="line2d_25">
    <path d="M 62.030392 220.930846 
L 345.306891 32.949143 
L 345.306891 32.949143 
" clip-path="url(#pd22bc15ac1)" style="fill: none; stroke: #808080; stroke-width: 1.5; stroke-linecap: square"/>
   </g>
   <g id="line2d_26">
    <path d="M 62.030392 220.930846 
L 83.329377 206.927951 
L 94.688836 199.729497 
L 103.918396 194.123093 
L 112.43799 189.195735 
L 120.247617 184.926652 
L 127.347279 181.279084 
L 134.446941 177.877209 
L 140.836636 175.043044 
L 147.226332 172.439211 
L 153.616027 170.07878 
L 160.005723 167.973599 
L 165.685452 166.325183 
L 171.365181 164.893352 
L 177.04491 163.683785 
L 182.72464 162.701279 
L 188.404369 161.949732 
L 194.084098 161.432125 
L 199.763828 161.150509 
L 205.443557 161.106003 
L 211.123286 161.298783 
L 216.803016 161.728084 
L 222.482745 162.392204 
L 228.162474 163.288508 
L 233.842204 164.413441 
L 239.521933 165.762541 
L 245.201662 167.330459 
L 250.881391 169.110973 
L 257.271087 171.359348 
L 263.660782 173.856544 
L 270.050478 176.590029 
L 277.150139 179.887635 
L 284.249801 183.439556 
L 292.059429 187.61409 
L 299.869057 192.038389 
L 308.388651 197.110735 
L 318.328177 203.293747 
L 330.397602 211.082092 
L 345.306891 220.930846 
L 345.306891 220.930846 
" clip-path="url(#pd22bc15ac1)" style="fill: none; stroke: #1f77b4; stroke-width: 1.5; stroke-linecap: square"/>
   </g>
   <g id="line2d_27">
    <path d="M 203.668642 161.094411 
" clip-path="url(#pd22bc15ac1)" style="fill: none; stroke: #1f77b4; stroke-width: 1.5; stroke-linecap: square"/>
    <defs>
     <path id="mdac3946887" d="M 0 3 
C 0.795609 3 1.55874 2.683901 2.12132 2.12132 
C 2.683901 1.55874 3 0.795609 3 0 
C 3 -0.795609 2.683901 -1.55874 2.12132 -2.12132 
C 1.55874 -2.683901 0.795609 -3 0 -3 
C -0.795609 -3 -1.55874 -2.683901 -2.12132 -2.12132 
C -2.683901 -1.55874 -3 -0.795609 -3 0 
C -3 0.795609 -2.683901 1.55874 -2.12132 2.12132 
C -1.55874 2.683901 -0.795609 3 0 3 
z
" style="stroke: #1f77b4"/>
    </defs>
    <g clip-path="url(#pd22bc15ac1)">
     <use xlink:href="#mdac3946887" x="203.668642" y="161.094411" style="fill: #1f77b4; stroke: #1f77b4"/>
    </g>
   </g>
   <g id="line2d_28">
    <path d="M 62.030392 220.930846 
L 114.567888 186.195697 
L 129.477178 176.610217 
L 140.836636 169.563762 
L 150.066196 164.089901 
L 157.875824 159.693443 
L 164.975486 155.928642 
L 171.365181 152.763804 
L 177.754877 149.842667 
L 183.434606 147.476241 
L 189.114335 145.349743 
L 194.084098 143.703379 
L 199.053862 142.2724 
L 204.023625 141.07103 
L 208.993388 140.112906 
L 213.963151 139.410919 
L 218.222948 139.022191 
L 222.482745 138.837396 
L 226.742542 138.862821 
L 231.002339 139.104042 
L 235.262136 139.565862 
L 239.521933 140.252254 
L 243.78173 141.166303 
L 248.041527 142.310165 
L 252.301324 143.685019 
L 256.561121 145.291032 
L 260.820918 147.127332 
L 265.080715 149.191985 
L 269.340512 151.481978 
L 273.600309 153.993214 
L 278.570072 157.195642 
L 283.539835 160.682028 
L 288.509598 164.440334 
L 293.479361 168.456613 
L 299.15909 173.342213 
L 304.83882 178.51777 
L 311.228515 184.650555 
L 318.328177 191.79687 
L 326.137805 199.983972 
L 336.077331 210.751466 
L 345.306891 220.930846 
L 345.306891 220.930846 
" clip-path="url(#pd22bc15ac1)" style="fill: none; stroke: #ff7f0e; stroke-width: 1.5; stroke-linecap: square"/>
   </g>
   <g id="line2d_29">
    <path d="M 224.10842 138.821975 
" clip-path="url(#pd22bc15ac1)" style="fill: none; stroke: #ff7f0e; stroke-width: 1.5; stroke-linecap: square"/>
    <defs>
     <path id="m5531dc4b19" d="M 0 3 
C 0.795609 3 1.55874 2.683901 2.12132 2.12132 
C 2.683901 1.55874 3 0.795609 3 0 
C 3 -0.795609 2.683901 -1.55874 2.12132 -2.12132 
C 1.55874 -2.683901 0.795609 -3 0 -3 
C -0.795609 -3 -1.55874 -2.683901 -2.12132 -2.12132 
C -2.683901 -1.55874 -3 -0.795609 -3 0 
C -3 0.795609 -2.683901 1.55874 -2.12132 2.12132 
C -1.55874 2.683901 -0.795609 3 0 3 
z
" style="stroke: #ff7f0e"/>
    </defs>
    <g clip-path="url(#pd22bc15ac1)">
     <use xlink:href="#m5531dc4b19" x="224.10842" y="138.821975" style="fill: #ff7f0e; stroke: #ff7f0e"/>
    </g>
   </g>
   <g id="line2d_30">
    <path d="M 62.030392 220.930846 
L 139.416704 169.704443 
L 155.035959 159.644037 
L 166.395418 152.590487 
L 175.624978 147.129336 
L 183.434606 142.774547 
L 189.824301 139.444735 
L 196.213997 136.370893 
L 201.893726 133.891169 
L 206.863489 131.944825 
L 211.833252 130.232222 
L 216.803016 128.777917 
L 221.062813 127.755674 
L 225.32261 126.95677 
L 229.582407 126.396326 
L 233.842204 126.088973 
L 237.392034 126.036265 
L 240.941865 126.17663 
L 244.491696 126.517179 
L 248.041527 127.064448 
L 251.591358 127.824315 
L 255.141188 128.801933 
L 258.691019 130.001657 
L 262.24085 131.426979 
L 265.790681 133.080468 
L 269.340512 134.963715 
L 272.890342 137.077282 
L 276.440173 139.420664 
L 279.990004 141.992253 
L 284.249801 145.37546 
L 288.509598 149.076374 
L 292.769395 153.085695 
L 297.029192 157.391733 
L 301.998955 162.77161 
L 306.968718 168.509954 
L 311.938481 174.57654 
L 317.618211 181.86797 
L 324.007906 190.460028 
L 331.107568 200.387039 
L 341.047094 214.716947 
L 345.306891 220.930846 
L 345.306891 220.930846 
" clip-path="url(#pd22bc15ac1)" style="fill: none; stroke: #2ca02c; stroke-width: 1.5; stroke-linecap: square"/>
   </g>
   <g id="line2d_31">
    <path d="M 236.605638 126.031553 
" clip-path="url(#pd22bc15ac1)" style="fill: none; stroke: #2ca02c; stroke-width: 1.5; stroke-linecap: square"/>
    <defs>
     <path id="mfba2f741a1" d="M 0 3 
C 0.795609 3 1.55874 2.683901 2.12132 2.12132 
C 2.683901 1.55874 3 0.795609 3 0 
C 3 -0.795609 2.683901 -1.55874 2.12132 -2.12132 
C 1.55874 -2.683901 0.795609 -3 0 -3 
C -0.795609 -3 -1.55874 -2.683901 -2.12132 -2.12132 
C -2.683901 -1.55874 -3 -0.795609 -3 0 
C -3 0.795609 -2.683901 1.55874 -2.12132 2.12132 
C -1.55874 2.683901 -0.795609 3 0 3 
z
" style="stroke: #2ca02c"/>
    </defs>
    <g clip-path="url(#pd22bc15ac1)">
     <use xlink:href="#mfba2f741a1" x="236.605638" y="126.031553" style="fill: #2ca02c; stroke: #2ca02c"/>
    </g>
   </g>
   <g id="line2d_32">
    <path d="M 62.030392 220.930846 
L 135.866873 172.065647 
L 155.035959 159.652785 
L 168.525317 151.161814 
L 179.884775 144.273457 
L 189.114335 138.931891 
L 196.923963 134.651016 
L 204.023625 130.999868 
L 210.41332 127.953046 
L 216.093049 125.471007 
L 221.772779 123.237632 
L 226.742542 121.517568 
L 231.712305 120.045731 
L 235.972102 119.00511 
L 240.231899 118.190475 
L 244.491696 117.624024 
L 248.041527 117.358395 
L 251.591358 117.295404 
L 255.141188 117.449536 
L 258.691019 117.835581 
L 262.24085 118.468503 
L 265.790681 119.363278 
L 269.340512 120.534704 
L 272.890342 121.997182 
L 275.730207 123.385991 
L 278.570072 124.976514 
L 281.409936 126.77489 
L 284.249801 128.786667 
L 287.799632 131.608777 
L 291.349463 134.77943 
L 294.899294 138.303837 
L 298.449124 142.184447 
L 301.998955 146.420584 
L 305.548786 151.008114 
L 309.098617 155.939147 
L 313.358414 162.292798 
L 317.618211 169.095341 
L 321.878008 176.309601 
L 326.847771 185.185093 
L 332.5275 195.826501 
L 339.627162 209.653516 
L 345.306891 220.930846 
L 345.306891 220.930846 
" clip-path="url(#pd22bc15ac1)" style="fill: none; stroke-dasharray: 5.55,2.4; stroke-dashoffset: 0; stroke: #ff7f0e; stroke-width: 1.5"/>
   </g>
   <g id="line2d_33">
    <path d="M 250.881391 117.291101 
" clip-path="url(#pd22bc15ac1)" style="fill: none; stroke: #ff7f0e; stroke-width: 1.5; stroke-linecap: square"/>
    <g clip-path="url(#pd22bc15ac1)">
     <use xlink:href="#m5531dc4b19" x="250.881391" y="117.291101" style="fill: #ff7f0e; stroke: #ff7f0e"/>
    </g>
   </g>
   <g id="line2d_34">
    <path d="M 62.030392 220.930846 
L 171.365181 148.507718 
L 190.534268 136.092307 
L 203.313659 128.070212 
L 213.253185 122.087515 
L 221.062813 117.626316 
L 228.162474 113.824821 
L 233.842204 111.010552 
L 239.521933 108.450207 
L 244.491696 106.463883 
L 248.751493 104.986256 
L 253.01129 103.751087 
L 256.561121 102.933763 
L 260.110952 102.334505 
L 263.660782 101.979329 
L 266.500647 101.889778 
L 269.340512 101.989802 
L 272.180376 102.29559 
L 275.020241 102.824076 
L 277.860106 103.592836 
L 280.69997 104.619957 
L 283.539835 105.923866 
L 286.3797 107.523111 
L 289.219564 109.436105 
L 292.059429 111.680806 
L 294.899294 114.274357 
L 297.739158 117.232668 
L 300.579023 120.569955 
L 303.418887 124.29823 
L 306.258752 128.426765 
L 309.098617 132.961541 
L 311.938481 137.904687 
L 314.778346 143.253951 
L 317.618211 149.002215 
L 321.168042 156.729233 
L 324.717872 165.023423 
L 328.267703 173.83427 
L 332.5275 184.997748 
L 337.497263 198.66209 
L 345.306891 220.930846 
L 345.306891 220.930846 
" clip-path="url(#pd22bc15ac1)" style="fill: none; stroke-dasharray: 5.55,2.4; stroke-dashoffset: 0; stroke: #2ca02c; stroke-width: 1.5"/>
   </g>
   <g id="line2d_35">
    <path d="M 266.461607 101.889761 
" clip-path="url(#pd22bc15ac1)" style="fill: none; stroke: #2ca02c; stroke-width: 1.5; stroke-linecap: square"/>
    <g clip-path="url(#pd22bc15ac1)">
     <use xlink:href="#mfba2f741a1" x="266.461607" y="101.889761" style="fill: #2ca02c; stroke: #2ca02c"/>
    </g>
   </g>
   <g id="patch_3">
    <path d="M 47.866567 230.329931 
L 47.866567 23.550058 
" style="fill: none; stroke: #000000; stroke-width: 0.8; stroke-linejoin: miter; stroke-linecap: square"/>
   </g>
   <g id="patch_4">
    <path d="M 359.470716 230.329931 
L 359.470716 23.550058 
" style="fill: none; stroke: #000000; stroke-width: 0.8; stroke-linejoin: miter; stroke-linecap: square"/>
   </g>
   <g id="patch_5">
    <path d="M 47.866567 230.329931 
L 359.470716 230.329931 
" style="fill: none; stroke: #000000; stroke-width: 0.8; stroke-linejoin: miter; stroke-linecap: square"/>
   </g>
   <g id="patch_6">
    <path d="M 47.866567 23.550058 
L 359.470716 23.550058 
" style="fill: none; stroke: #000000; stroke-width: 0.8; stroke-linejoin: miter; stroke-linecap: square"/>
   </g>
   <g id="text_8">
    <!-- Circular frequency -->
    <g transform="translate(125.231595 17.550058)scale(0.17 -0.17)">
     <defs>
      <path id="CMTT12-43" d="M 3034 3724 
C 3034 3827 3034 3968 2854 3968 
C 2739 3968 2707 3897 2682 3852 
C 2662 3801 2611 3686 2592 3641 
C 2330 3871 2035 3968 1766 3968 
C 941 3968 256 3089 256 1955 
C 256 795 960 -64 1766 -64 
C 2515 -64 3034 529 3034 1086 
C 3034 1283 2899 1283 2822 1283 
C 2733 1283 2630 1251 2618 1143 
C 2566 351 1920 307 1811 307 
C 1216 307 672 998 672 1955 
C 672 2912 1222 3596 1805 3596 
C 2150 3596 2528 3324 2618 2740 
C 2637 2601 2694 2563 2822 2563 
C 3034 2563 3034 2677 3034 2804 
L 3034 3724 
z
" transform="scale(0.015625)"/>
      <path id="CMTT12-69" d="M 1933 3615 
C 1933 3775 1805 3904 1645 3904 
C 1485 3904 1357 3775 1357 3615 
C 1357 3455 1485 3327 1645 3327 
C 1805 3327 1933 3455 1933 3615 
z
M 832 2752 
C 742 2752 576 2752 576 2566 
C 576 2380 742 2380 832 2380 
L 1517 2380 
L 1517 371 
L 787 371 
C 698 371 525 371 525 185 
C 525 0 698 0 787 0 
L 2566 0 
C 2656 0 2822 0 2822 185 
C 2822 371 2656 371 2566 371 
L 1933 371 
L 1933 2489 
C 1933 2687 1894 2752 1677 2752 
L 832 2752 
z
" transform="scale(0.015625)"/>
      <path id="CMTT12-72" d="M 1382 1206 
C 1382 1966 1920 2419 2464 2419 
C 2496 2419 2534 2419 2566 2412 
C 2586 2183 2765 2163 2810 2163 
C 2957 2163 3059 2272 3059 2412 
C 3059 2687 2790 2790 2470 2790 
C 2042 2790 1677 2598 1382 2240 
L 1382 2489 
C 1382 2687 1344 2752 1126 2752 
L 480 2752 
C 390 2752 224 2752 224 2566 
C 224 2380 390 2380 480 2380 
L 966 2380 
L 966 371 
L 480 371 
C 390 371 224 371 224 185 
C 224 0 390 0 480 0 
L 2054 0 
C 2144 0 2310 0 2310 185 
C 2310 371 2144 371 2054 371 
L 1382 371 
L 1382 1206 
z
" transform="scale(0.015625)"/>
      <path id="CMTT12-63" d="M 2918 676 
C 2918 844 2758 844 2707 844 
C 2560 844 2534 793 2502 702 
C 2362 346 2048 307 1894 307 
C 1350 307 890 767 890 1369 
C 890 1699 1075 2444 1914 2444 
C 2086 2444 2221 2431 2278 2425 
C 2323 2412 2330 2405 2330 2373 
C 2349 2107 2547 2101 2586 2101 
C 2726 2101 2848 2198 2848 2373 
C 2848 2816 2202 2816 1920 2816 
C 826 2816 474 1913 474 1369 
C 474 579 1069 -64 1837 -64 
C 2694 -64 2918 572 2918 676 
z
" transform="scale(0.015625)"/>
      <path id="CMTT12-75" d="M 2675 2489 
C 2675 2687 2637 2752 2419 2752 
L 1997 2752 
C 1907 2752 1741 2752 1741 2566 
C 1741 2380 1907 2380 1997 2380 
L 2259 2380 
L 2259 979 
C 2259 449 1824 307 1536 307 
C 1030 307 1030 539 1030 740 
L 1030 2489 
C 1030 2687 992 2752 774 2752 
L 352 2752 
C 262 2752 96 2752 96 2566 
C 96 2380 262 2380 352 2380 
L 614 2380 
L 614 707 
C 614 115 998 -64 1491 -64 
C 1882 -64 2125 96 2253 204 
C 2253 -26 2406 -26 2515 -26 
L 2938 -26 
C 3027 -26 3194 -26 3194 160 
C 3194 345 3027 345 2938 345 
L 2675 345 
L 2675 2489 
z
" transform="scale(0.015625)"/>
      <path id="CMTT12-6c" d="M 1856 3641 
C 1856 3839 1818 3904 1600 3904 
L 659 3904 
C 570 3904 403 3904 403 3718 
C 403 3532 570 3532 659 3532 
L 1440 3532 
L 1440 371 
L 659 371 
C 570 371 403 371 403 185 
C 403 0 570 0 659 0 
L 2637 0 
C 2726 0 2893 0 2893 185 
C 2893 371 2726 371 2637 371 
L 1856 371 
L 1856 3641 
z
" transform="scale(0.015625)"/>
      <path id="CMTT12-61" d="M 2650 1829 
C 2650 2306 2285 2816 1421 2816 
C 1152 2816 531 2816 531 2375 
C 531 2206 653 2112 794 2112 
C 832 2112 1043 2124 1050 2388 
C 1050 2419 1056 2425 1190 2438 
C 1267 2444 1350 2444 1427 2444 
C 1574 2444 1792 2444 2003 2287 
C 2234 2112 2234 1936 2234 1753 
C 1856 1740 1485 1715 1088 1587 
C 768 1478 358 1242 358 791 
C 358 320 762 -64 1357 -64 
C 1562 -64 1958 -32 2291 198 
C 2419 -13 2739 -26 2982 -26 
C 3136 -26 3290 -26 3290 160 
C 3290 347 3123 347 3034 347 
C 2867 347 2739 360 2650 400 
L 2650 1829 
z
M 2234 837 
C 2234 685 2234 545 1971 419 
C 1747 307 1446 307 1427 307 
C 1050 307 774 519 774 791 
C 774 1182 1459 1408 2234 1408 
L 2234 837 
z
" transform="scale(0.015625)"/>
      <path id="CMTT12-66" d="M 1581 2380 
L 2355 2380 
C 2445 2380 2611 2380 2611 2566 
C 2611 2752 2445 2752 2355 2752 
L 1581 2752 
L 1581 3081 
C 1581 3596 2029 3596 2234 3596 
C 2234 3583 2285 3339 2496 3339 
C 2598 3339 2746 3418 2746 3603 
C 2746 3968 2259 3968 2163 3968 
C 1677 3968 1165 3692 1165 3108 
L 1165 2752 
L 531 2752 
C 442 2752 269 2752 269 2566 
C 269 2380 435 2380 525 2380 
L 1165 2380 
L 1165 371 
L 557 371 
C 467 371 301 371 301 185 
C 301 0 467 0 557 0 
L 2189 0 
C 2278 0 2445 0 2445 185 
C 2445 371 2278 371 2189 371 
L 1581 371 
L 1581 2380 
z
" transform="scale(0.015625)"/>
      <path id="CMTT12-65" d="M 2662 1216 
C 2797 1216 2918 1216 2918 1452 
C 2918 2210 2496 2816 1696 2816 
C 954 2816 358 2171 358 1382 
C 358 566 1005 -64 1792 -64 
C 2618 -64 2918 508 2918 677 
C 2918 716 2906 858 2707 858 
C 2586 858 2547 813 2509 716 
C 2349 339 1933 307 1811 307 
C 1280 307 858 716 787 1216 
L 2662 1216 
z
M 794 1568 
C 877 2120 1293 2444 1696 2444 
C 2336 2444 2470 1892 2496 1568 
L 794 1568 
z
" transform="scale(0.015625)"/>
      <path id="CMTT12-71" d="M 2803 2553 
C 2803 2668 2803 2816 2598 2816 
C 2387 2816 2387 2675 2387 2553 
L 2387 2431 
C 2266 2559 2029 2816 1587 2816 
C 890 2816 262 2209 262 1372 
C 262 575 826 -64 1523 -64 
C 1990 -64 2253 211 2387 352 
L 2387 -1037 
L 2099 -1037 
C 2010 -1037 1837 -1037 1837 -1223 
C 1837 -1408 2010 -1408 2099 -1408 
L 3091 -1408 
C 3181 -1408 3354 -1408 3354 -1223 
C 3354 -1037 3181 -1037 3091 -1037 
L 2803 -1037 
L 2803 2553 
z
M 2387 1215 
C 2387 849 2074 307 1562 307 
C 1075 307 678 784 678 1372 
C 678 1987 1126 2444 1626 2444 
C 2112 2444 2387 1915 2387 1510 
L 2387 1215 
z
" transform="scale(0.015625)"/>
      <path id="CMTT12-6e" d="M 2675 1889 
C 2675 2521 2381 2816 1856 2816 
C 1421 2816 1139 2572 1030 2451 
C 1030 2687 1030 2777 774 2777 
L 352 2777 
C 262 2777 96 2777 96 2591 
C 96 2406 262 2406 352 2406 
L 614 2406 
L 614 371 
L 352 371 
C 262 371 96 371 96 185 
C 96 0 262 0 352 0 
L 1293 0 
C 1382 0 1549 0 1549 185 
C 1549 371 1382 371 1293 371 
L 1030 371 
L 1030 1540 
C 1030 2167 1466 2444 1811 2444 
C 2182 2444 2259 2231 2259 1863 
L 2259 371 
L 1997 371 
C 1907 371 1741 371 1741 185 
C 1741 0 1907 0 1997 0 
L 2938 0 
C 3027 0 3194 0 3194 185 
C 3194 371 3027 371 2938 371 
L 2675 371 
L 2675 1889 
z
" transform="scale(0.015625)"/>
      <path id="CMTT12-79" d="M 2714 2380 
L 2880 2380 
C 2970 2380 3142 2380 3142 2566 
C 3142 2752 2970 2752 2880 2752 
L 2176 2752 
C 2086 2752 1914 2752 1914 2566 
C 1914 2380 2086 2380 2176 2380 
L 2336 2380 
C 2157 1854 1792 783 1702 418 
L 1696 418 
C 1664 559 1638 629 1574 803 
L 979 2380 
L 1126 2380 
C 1216 2380 1389 2380 1389 2566 
C 1389 2752 1216 2752 1126 2752 
L 422 2752 
C 333 2752 160 2752 160 2566 
C 160 2380 333 2380 422 2380 
L 595 2380 
L 1491 72 
C 1517 7 1517 -5 1517 -12 
C 1517 -25 1350 -583 1254 -762 
C 1216 -826 1056 -1127 749 -1095 
C 755 -1076 774 -1037 774 -967 
C 774 -820 672 -717 525 -717 
C 365 -717 269 -826 269 -973 
C 269 -1216 474 -1472 794 -1472 
C 1414 -1472 1690 -647 1709 -595 
L 2714 2380 
z
" transform="scale(0.015625)"/>
     </defs>
     <use xlink:href="#CMTT12-43" transform="scale(0.996264)"/>
     <use xlink:href="#CMTT12-69" transform="translate(51.266111 0)scale(0.996264)"/>
     <use xlink:href="#CMTT12-72" transform="translate(102.532222 0)scale(0.996264)"/>
     <use xlink:href="#CMTT12-63" transform="translate(153.798333 0)scale(0.996264)"/>
     <use xlink:href="#CMTT12-75" transform="translate(205.064443 0)scale(0.996264)"/>
     <use xlink:href="#CMTT12-6c" transform="translate(256.330554 0)scale(0.996264)"/>
     <use xlink:href="#CMTT12-61" transform="translate(307.596665 0)scale(0.996264)"/>
     <use xlink:href="#CMTT12-72" transform="translate(358.862776 0)scale(0.996264)"/>
     <use xlink:href="#CMTT12-66" transform="translate(461.394998 0)scale(0.996264)"/>
     <use xlink:href="#CMTT12-72" transform="translate(512.661108 0)scale(0.996264)"/>
     <use xlink:href="#CMTT12-65" transform="translate(563.927219 0)scale(0.996264)"/>
     <use xlink:href="#CMTT12-71" transform="translate(615.19333 0)scale(0.996264)"/>
     <use xlink:href="#CMTT12-75" transform="translate(666.459441 0)scale(0.996264)"/>
     <use xlink:href="#CMTT12-65" transform="translate(717.725552 0)scale(0.996264)"/>
     <use xlink:href="#CMTT12-6e" transform="translate(768.991663 0)scale(0.996264)"/>
     <use xlink:href="#CMTT12-63" transform="translate(820.257774 0)scale(0.996264)"/>
     <use xlink:href="#CMTT12-79" transform="translate(871.523884 0)scale(0.996264)"/>
    </g>
   </g>
  </g>
  <g id="axes_2">
   <g id="patch_7">
    <path d="M 409.595371 468.960822 
L 721.19952 468.960822 
L 721.19952 23.550058 
L 409.595371 23.550058 
z
" style="fill: #ffffff"/>
   </g>
   <g id="matplotlib.axis_3">
    <g id="xtick_7">
     <g id="line2d_36">
      <path d="M 423.759196 468.960822 
L 423.759196 23.550058 
" clip-path="url(#p2e50a4342b)" style="fill: none; stroke-dasharray: 0.8,1.32; stroke-dashoffset: 0; stroke: #b0b0b0; stroke-width: 0.8"/>
     </g>
     <g id="line2d_37">
      <g>
       <use xlink:href="#m361b5fa4fe" x="423.759196" y="468.960822" style="stroke: #000000; stroke-width: 0.8"/>
      </g>
     </g>
     <g id="text_9">
      <!-- $\mathdefault{0.0}$ -->
      <g transform="translate(417.394157 482.049105)scale(0.1 -0.1)">
       <use xlink:href="#CMR17-30" transform="scale(0.996264)"/>
       <use xlink:href="#CMMI12-3a" transform="translate(45.690477 0)scale(0.996264)"/>
       <use xlink:href="#CMR17-30" transform="translate(72.787654 0)scale(0.996264)"/>
      </g>
     </g>
    </g>
    <g id="xtick_8">
     <g id="line2d_38">
      <path d="M 480.414496 468.960822 
L 480.414496 23.550058 
" clip-path="url(#p2e50a4342b)" style="fill: none; stroke-dasharray: 0.8,1.32; stroke-dashoffset: 0; stroke: #b0b0b0; stroke-width: 0.8"/>
     </g>
     <g id="line2d_39">
      <g>
       <use xlink:href="#m361b5fa4fe" x="480.414496" y="468.960822" style="stroke: #000000; stroke-width: 0.8"/>
      </g>
     </g>
     <g id="text_10">
      <!-- $\mathdefault{0.2}$ -->
      <g transform="translate(474.049456 482.049105)scale(0.1 -0.1)">
       <use xlink:href="#CMR17-30" transform="scale(0.996264)"/>
       <use xlink:href="#CMMI12-3a" transform="translate(45.690477 0)scale(0.996264)"/>
       <use xlink:href="#CMR17-32" transform="translate(72.787654 0)scale(0.996264)"/>
      </g>
     </g>
    </g>
    <g id="xtick_9">
     <g id="line2d_40">
      <path d="M 537.069796 468.960822 
L 537.069796 23.550058 
" clip-path="url(#p2e50a4342b)" style="fill: none; stroke-dasharray: 0.8,1.32; stroke-dashoffset: 0; stroke: #b0b0b0; stroke-width: 0.8"/>
     </g>
     <g id="line2d_41">
      <g>
       <use xlink:href="#m361b5fa4fe" x="537.069796" y="468.960822" style="stroke: #000000; stroke-width: 0.8"/>
      </g>
     </g>
     <g id="text_11">
      <!-- $\mathdefault{0.4}$ -->
      <g transform="translate(530.704756 482.049105)scale(0.1 -0.1)">
       <use xlink:href="#CMR17-30" transform="scale(0.996264)"/>
       <use xlink:href="#CMMI12-3a" transform="translate(45.690477 0)scale(0.996264)"/>
       <use xlink:href="#CMR17-34" transform="translate(72.787654 0)scale(0.996264)"/>
      </g>
     </g>
    </g>
    <g id="xtick_10">
     <g id="line2d_42">
      <path d="M 593.725095 468.960822 
L 593.725095 23.550058 
" clip-path="url(#p2e50a4342b)" style="fill: none; stroke-dasharray: 0.8,1.32; stroke-dashoffset: 0; stroke: #b0b0b0; stroke-width: 0.8"/>
     </g>
     <g id="line2d_43">
      <g>
       <use xlink:href="#m361b5fa4fe" x="593.725095" y="468.960822" style="stroke: #000000; stroke-width: 0.8"/>
      </g>
     </g>
     <g id="text_12">
      <!-- $\mathdefault{0.6}$ -->
      <g transform="translate(587.360056 482.049105)scale(0.1 -0.1)">
       <use xlink:href="#CMR17-30" transform="scale(0.996264)"/>
       <use xlink:href="#CMMI12-3a" transform="translate(45.690477 0)scale(0.996264)"/>
       <use xlink:href="#CMR17-36" transform="translate(72.787654 0)scale(0.996264)"/>
      </g>
     </g>
    </g>
    <g id="xtick_11">
     <g id="line2d_44">
      <path d="M 650.380395 468.960822 
L 650.380395 23.550058 
" clip-path="url(#p2e50a4342b)" style="fill: none; stroke-dasharray: 0.8,1.32; stroke-dashoffset: 0; stroke: #b0b0b0; stroke-width: 0.8"/>
     </g>
     <g id="line2d_45">
      <g>
       <use xlink:href="#m361b5fa4fe" x="650.380395" y="468.960822" style="stroke: #000000; stroke-width: 0.8"/>
      </g>
     </g>
     <g id="text_13">
      <!-- $\mathdefault{0.8}$ -->
      <g transform="translate(644.015356 482.049105)scale(0.1 -0.1)">
       <use xlink:href="#CMR17-30" transform="scale(0.996264)"/>
       <use xlink:href="#CMMI12-3a" transform="translate(45.690477 0)scale(0.996264)"/>
       <use xlink:href="#CMR17-38" transform="translate(72.787654 0)scale(0.996264)"/>
      </g>
     </g>
    </g>
    <g id="xtick_12">
     <g id="line2d_46">
      <path d="M 707.035695 468.960822 
L 707.035695 23.550058 
" clip-path="url(#p2e50a4342b)" style="fill: none; stroke-dasharray: 0.8,1.32; stroke-dashoffset: 0; stroke: #b0b0b0; stroke-width: 0.8"/>
     </g>
     <g id="line2d_47">
      <g>
       <use xlink:href="#m361b5fa4fe" x="707.035695" y="468.960822" style="stroke: #000000; stroke-width: 0.8"/>
      </g>
     </g>
     <g id="text_14">
      <!-- $\mathdefault{1.0}$ -->
      <g transform="translate(700.670656 482.049105)scale(0.1 -0.1)">
       <use xlink:href="#CMR17-31" transform="scale(0.996264)"/>
       <use xlink:href="#CMMI12-3a" transform="translate(45.690477 0)scale(0.996264)"/>
       <use xlink:href="#CMR17-30" transform="translate(72.787654 0)scale(0.996264)"/>
      </g>
     </g>
    </g>
    <g id="text_15">
     <!-- $kh\: / \: \pi$ -->
     <g transform="translate(543.414498 500.965398)scale(0.17 -0.17)">
      <defs>
       <path id="CMMI12-6b" d="M 1798 4255 
C 1805 4281 1818 4319 1818 4351 
C 1818 4416 1754 4416 1741 4416 
C 1734 4416 1504 4396 1389 4383 
C 1280 4377 1184 4364 1069 4358 
C 915 4345 870 4339 870 4223 
C 870 4159 934 4159 998 4159 
C 1325 4159 1325 4103 1325 4040 
C 1325 4014 1325 4002 1293 3888 
L 378 250 
C 352 153 352 141 352 102 
C 352 -39 461 -64 525 -64 
C 704 -64 742 76 794 275 
L 1094 1476 
C 1555 1425 1830 1232 1830 924 
C 1830 885 1830 860 1811 763 
C 1786 667 1786 590 1786 558 
C 1786 185 2029 -64 2355 -64 
C 2650 -64 2803 205 2854 295 
C 2989 532 3072 892 3072 917 
C 3072 949 3046 975 3008 975 
C 2950 975 2944 949 2918 847 
C 2829 513 2694 64 2368 64 
C 2240 64 2157 128 2157 372 
C 2157 494 2182 635 2208 731 
C 2234 847 2234 853 2234 930 
C 2234 1309 1894 1521 1306 1598 
C 1536 1739 1766 1989 1856 2086 
C 2221 2495 2470 2687 2765 2687 
C 2912 2687 2950 2655 2995 2624 
C 2758 2598 2669 2431 2669 2303 
C 2669 2150 2790 2099 2880 2099 
C 3053 2099 3206 2246 3206 2451 
C 3206 2634 3059 2816 2771 2816 
C 2419 2816 2131 2579 1677 2067 
C 1613 1989 1376 1746 1139 1656 
L 1798 4255 
z
" transform="scale(0.015625)"/>
      </defs>
      <use xlink:href="#CMMI12-6b" transform="scale(0.996264)"/>
      <use xlink:href="#CMMI12-68" transform="translate(54.079201 0)scale(0.996264)"/>
      <use xlink:href="#CMMI12-3d" transform="translate(132.373032 0)scale(0.996264)"/>
      <use xlink:href="#CMMI12-19" transform="translate(203.287157 0)scale(0.996264)"/>
     </g>
    </g>
   </g>
   <g id="matplotlib.axis_4">
    <g id="ytick_7">
     <g id="line2d_48">
      <path d="M 409.595371 423.407448 
L 721.19952 423.407448 
" clip-path="url(#p2e50a4342b)" style="fill: none; stroke-dasharray: 0.8,1.32; stroke-dashoffset: 0; stroke: #b0b0b0; stroke-width: 0.8"/>
     </g>
     <g id="line2d_49">
      <g>
       <use xlink:href="#m96747122b2" x="409.595371" y="423.407448" style="stroke: #000000; stroke-width: 0.8"/>
      </g>
     </g>
     <g id="text_16">
      <!-- $\mathdefault{−4}$ -->
      <g transform="translate(389.865292 426.45159)scale(0.1 -0.1)">
       <defs>
        <path id="CMSY10-0" d="M 4218 1472 
C 4326 1472 4442 1472 4442 1600 
C 4442 1728 4326 1728 4218 1728 
L 755 1728 
C 646 1728 531 1728 531 1600 
C 531 1472 646 1472 755 1472 
L 4218 1472 
z
" transform="scale(0.015625)"/>
       </defs>
       <use xlink:href="#CMSY10-0" transform="scale(0.996264)"/>
       <use xlink:href="#CMR17-34" transform="translate(77.487468 0)scale(0.996264)"/>
      </g>
     </g>
    </g>
    <g id="ytick_8">
     <g id="line2d_50">
      <path d="M 409.595371 347.485159 
L 721.19952 347.485159 
" clip-path="url(#p2e50a4342b)" style="fill: none; stroke-dasharray: 0.8,1.32; stroke-dashoffset: 0; stroke: #b0b0b0; stroke-width: 0.8"/>
     </g>
     <g id="line2d_51">
      <g>
       <use xlink:href="#m96747122b2" x="409.595371" y="347.485159" style="stroke: #000000; stroke-width: 0.8"/>
      </g>
     </g>
     <g id="text_17">
      <!-- $\mathdefault{−3}$ -->
      <g transform="translate(389.865292 350.5293)scale(0.1 -0.1)">
       <defs>
        <path id="CMR17-33" d="M 1414 2176 
C 1984 2176 2234 1673 2234 1094 
C 2234 322 1824 25 1453 25 
C 1114 25 563 193 390 691 
C 422 678 454 678 486 678 
C 640 678 755 780 755 947 
C 755 1132 614 1216 486 1216 
C 378 1216 211 1164 211 927 
C 211 335 787 -128 1466 -128 
C 2176 -128 2720 432 2720 1087 
C 2720 1718 2208 2176 1600 2246 
C 2086 2347 2554 2776 2554 3353 
C 2554 3856 2048 4224 1472 4224 
C 890 4224 378 3862 378 3347 
C 378 3123 544 3084 627 3084 
C 762 3084 877 3167 877 3334 
C 877 3500 762 3584 627 3584 
C 602 3584 570 3584 544 3571 
C 730 3999 1235 4076 1459 4076 
C 1683 4076 2106 3966 2106 3347 
C 2106 3167 2080 2851 1862 2574 
C 1670 2329 1453 2316 1242 2297 
C 1210 2297 1062 2284 1037 2284 
C 992 2278 966 2272 966 2227 
C 966 2182 973 2176 1101 2176 
L 1414 2176 
z
" transform="scale(0.015625)"/>
       </defs>
       <use xlink:href="#CMSY10-0" transform="scale(0.996264)"/>
       <use xlink:href="#CMR17-33" transform="translate(77.487468 0)scale(0.996264)"/>
      </g>
     </g>
    </g>
    <g id="ytick_9">
     <g id="line2d_52">
      <path d="M 409.595371 271.562869 
L 721.19952 271.562869 
" clip-path="url(#p2e50a4342b)" style="fill: none; stroke-dasharray: 0.8,1.32; stroke-dashoffset: 0; stroke: #b0b0b0; stroke-width: 0.8"/>
     </g>
     <g id="line2d_53">
      <g>
       <use xlink:href="#m96747122b2" x="409.595371" y="271.562869" style="stroke: #000000; stroke-width: 0.8"/>
      </g>
     </g>
     <g id="text_18">
      <!-- $\mathdefault{−2}$ -->
      <g transform="translate(389.865292 274.607011)scale(0.1 -0.1)">
       <use xlink:href="#CMSY10-0" transform="scale(0.996264)"/>
       <use xlink:href="#CMR17-32" transform="translate(77.487468 0)scale(0.996264)"/>
      </g>
     </g>
    </g>
    <g id="ytick_10">
     <g id="line2d_54">
      <path d="M 409.595371 195.64058 
L 721.19952 195.64058 
" clip-path="url(#p2e50a4342b)" style="fill: none; stroke-dasharray: 0.8,1.32; stroke-dashoffset: 0; stroke: #b0b0b0; stroke-width: 0.8"/>
     </g>
     <g id="line2d_55">
      <g>
       <use xlink:href="#m96747122b2" x="409.595371" y="195.64058" style="stroke: #000000; stroke-width: 0.8"/>
      </g>
     </g>
     <g id="text_19">
      <!-- $\mathdefault{−1}$ -->
      <g transform="translate(389.865292 198.684722)scale(0.1 -0.1)">
       <use xlink:href="#CMSY10-0" transform="scale(0.996264)"/>
       <use xlink:href="#CMR17-31" transform="translate(77.487468 0)scale(0.996264)"/>
      </g>
     </g>
    </g>
    <g id="ytick_11">
     <g id="line2d_56">
      <path d="M 409.595371 119.718291 
L 721.19952 119.718291 
" clip-path="url(#p2e50a4342b)" style="fill: none; stroke-dasharray: 0.8,1.32; stroke-dashoffset: 0; stroke: #b0b0b0; stroke-width: 0.8"/>
     </g>
     <g id="line2d_57">
      <g>
       <use xlink:href="#m96747122b2" x="409.595371" y="119.718291" style="stroke: #000000; stroke-width: 0.8"/>
      </g>
     </g>
     <g id="text_20">
      <!-- $\mathdefault{0}$ -->
      <g transform="translate(397.614036 122.762432)scale(0.1 -0.1)">
       <use xlink:href="#CMR17-30" transform="scale(0.996264)"/>
      </g>
     </g>
    </g>
    <g id="ytick_12">
     <g id="line2d_58">
      <path d="M 409.595371 43.796001 
L 721.19952 43.796001 
" clip-path="url(#p2e50a4342b)" style="fill: none; stroke-dasharray: 0.8,1.32; stroke-dashoffset: 0; stroke: #b0b0b0; stroke-width: 0.8"/>
     </g>
     <g id="line2d_59">
      <g>
       <use xlink:href="#m96747122b2" x="409.595371" y="43.796001" style="stroke: #000000; stroke-width: 0.8"/>
      </g>
     </g>
     <g id="text_21">
      <!-- $\mathdefault{1}$ -->
      <g transform="translate(397.614036 46.840143)scale(0.1 -0.1)">
       <use xlink:href="#CMR17-31" transform="scale(0.996264)"/>
      </g>
     </g>
    </g>
    <g id="text_22">
     <!-- $c_g^* \: / \: c$ -->
     <g transform="translate(379.373082 264.591206)rotate(-90)scale(0.17 -0.17)">
      <defs>
       <path id="CMMI12-67" d="M 2163 811 
C 2138 708 2125 683 2042 587 
C 1779 249 1510 128 1312 128 
C 1101 128 902 293 902 734 
C 902 1072 1094 1787 1235 2075 
C 1421 2432 1709 2687 1978 2687 
C 2400 2687 2483 2164 2483 2126 
L 2464 2036 
L 2163 811 
z
M 2560 2394 
C 2477 2579 2298 2816 1978 2816 
C 1280 2816 486 1941 486 989 
C 486 325 890 0 1299 0 
C 1638 0 1939 268 2054 396 
L 1914 -176 
C 1824 -520 1786 -677 1555 -896 
C 1293 -1152 1050 -1152 909 -1152 
C 717 -1152 557 -1140 397 -1090 
C 602 -1034 653 -858 653 -789 
C 653 -689 576 -589 435 -589 
C 282 -589 115 -714 115 -921 
C 115 -1178 378 -1280 922 -1280 
C 1747 -1280 2176 -758 2259 -420 
L 2970 2426 
C 2989 2502 2989 2515 2989 2528 
C 2989 2617 2918 2688 2822 2688 
C 2669 2688 2579 2560 2560 2388 
L 2560 2394 
z
" transform="scale(0.015625)"/>
      </defs>
      <use xlink:href="#CMMI12-63" transform="scale(0.996264)"/>
      <use xlink:href="#CMSY10-3" transform="translate(41.983234 36.153639)scale(0.697382)"/>
      <use xlink:href="#CMMI12-67" transform="translate(41.983234 -24.62935)scale(0.697382)"/>
      <use xlink:href="#CMMI12-3d" transform="translate(99.820254 0)scale(0.996264)"/>
      <use xlink:href="#CMMI12-63" transform="translate(170.73438 0)scale(0.996264)"/>
     </g>
    </g>
   </g>
   <g id="line2d_60">
    <path d="M 423.759196 43.796001 
L 428.728959 43.911288 
L 433.698722 44.256798 
L 438.668485 44.831482 
L 443.638249 45.633595 
L 448.608012 46.660701 
L 453.577775 47.90968 
L 458.547538 49.37674 
L 463.517301 51.057425 
L 469.19703 53.233212 
L 474.87676 55.672702 
L 480.556489 58.366219 
L 486.236218 61.303079 
L 491.915948 64.471634 
L 498.305643 68.297523 
L 504.695339 72.381518 
L 511.795 77.19703 
L 518.894662 82.276016 
L 526.70429 88.129607 
L 535.223884 94.783857 
L 545.16341 102.823992 
L 558.652767 114.044611 
L 587.76138 138.356111 
L 598.410872 146.8985 
L 606.930466 153.465302 
L 614.740094 159.221797 
L 621.839756 164.199082 
L 628.939417 168.900754 
L 635.329113 172.872491 
L 641.718808 176.577423 
L 647.398537 179.631645 
L 653.078267 182.44823 
L 658.757996 185.016007 
L 664.437725 187.32479 
L 670.117455 189.365423 
L 675.087218 190.92462 
L 680.056981 192.267566 
L 685.026744 193.390182 
L 689.996507 194.289058 
L 694.96627 194.961466 
L 699.936033 195.405363 
L 704.905797 195.619401 
L 707.035695 195.64058 
L 707.035695 195.64058 
" clip-path="url(#p2e50a4342b)" style="fill: none; stroke: #1f77b4; stroke-width: 1.5; stroke-linecap: square"/>
   </g>
   <g id="line2d_61">
    <path d="M 423.759196 43.796001 
L 451.447876 43.906754 
L 461.387403 44.168742 
L 469.19703 44.578037 
L 476.296692 45.173878 
L 482.686388 45.944892 
L 488.366117 46.856356 
L 493.33588 47.855928 
L 498.305643 49.067396 
L 503.275406 50.512451 
L 508.245169 52.21184 
L 512.504966 53.885667 
L 516.764763 55.771945 
L 521.02456 57.880897 
L 525.284357 60.221536 
L 529.544154 62.801523 
L 533.803951 65.627033 
L 538.063748 68.702636 
L 542.323545 72.031191 
L 546.583342 75.61375 
L 551.553105 80.113219 
L 556.522869 84.952534 
L 561.492632 90.123322 
L 566.462395 95.613466 
L 571.432158 101.407092 
L 577.111887 108.374689 
L 582.791617 115.677921 
L 589.181312 124.244 
L 596.99094 135.121839 
L 606.930466 149.407108 
L 628.939417 181.227746 
L 636.039079 191.057842 
L 642.428774 199.532356 
L 648.108504 206.687989 
L 653.078267 212.604052 
L 658.04803 218.153871 
L 662.307827 222.589024 
L 666.567624 226.70204 
L 670.827421 230.470787 
L 674.377252 233.333633 
L 677.927082 235.932346 
L 681.476913 238.257043 
L 685.026744 240.298846 
L 688.576575 242.049933 
L 692.126406 243.503572 
L 694.96627 244.448519 
L 697.806135 245.197159 
L 700.646 245.74764 
L 703.485864 246.098598 
L 706.325729 246.249164 
L 707.035695 246.25544 
L 707.035695 246.25544 
" clip-path="url(#p2e50a4342b)" style="fill: none; stroke: #ff7f0e; stroke-width: 1.5; stroke-linecap: square"/>
   </g>
   <g id="line2d_62">
    <path d="M 423.759196 43.796001 
L 474.166794 43.903136 
L 486.236218 44.168361 
L 494.755812 44.57 
L 501.855474 45.122776 
L 508.245169 45.855011 
L 513.924899 46.745446 
L 518.894662 47.749914 
L 523.864425 49.001895 
L 528.124222 50.300237 
L 532.384019 51.831884 
L 536.643816 53.621137 
L 540.903613 55.692117 
L 544.453444 57.650141 
L 548.003275 59.833251 
L 551.553105 62.253851 
L 555.102936 64.923479 
L 558.652767 67.852621 
L 562.202598 71.050521 
L 565.752429 74.525002 
L 569.302259 78.28229 
L 572.85209 82.326843 
L 576.401921 86.661201 
L 580.661718 92.245487 
L 584.921515 98.244291 
L 589.181312 104.649436 
L 593.441109 111.447733 
L 598.410872 119.851211 
L 603.380635 128.726502 
L 609.060365 139.385708 
L 615.45006 151.930875 
L 622.549722 166.384857 
L 636.039079 194.50791 
L 645.268639 213.461568 
L 651.658334 226.053215 
L 656.628097 235.386026 
L 660.887894 242.980905 
L 665.147691 250.137395 
L 668.697522 255.723699 
L 672.247353 260.932242 
L 675.797184 265.732465 
L 679.347015 270.09591 
L 682.186879 273.254555 
L 685.026744 276.104713 
L 687.866609 278.635323 
L 690.706473 280.836515 
L 693.546338 282.699668 
L 695.676236 283.870737 
L 697.806135 284.844914 
L 699.936033 285.620033 
L 702.065932 286.194371 
L 704.19583 286.566647 
L 706.325729 286.736031 
L 707.035695 286.747327 
L 707.035695 286.747327 
" clip-path="url(#p2e50a4342b)" style="fill: none; stroke: #2ca02c; stroke-width: 1.5; stroke-linecap: square"/>
   </g>
   <g id="line2d_63">
    <path d="M 423.759196 43.796001 
L 466.357166 43.90502 
L 481.266455 44.169283 
L 492.625914 44.586352 
L 501.855474 45.139315 
L 509.665102 45.813872 
L 516.764763 46.639266 
L 523.154459 47.596093 
L 528.834188 48.651314 
L 534.513917 49.933855 
L 539.483681 51.272198 
L 544.453444 52.841913 
L 548.713241 54.395315 
L 552.973038 56.16351 
L 557.232835 58.170054 
L 561.492632 60.440386 
L 565.752429 63.00185 
L 569.302259 65.379832 
L 572.85209 67.998152 
L 576.401921 70.875534 
L 579.951752 74.03146 
L 583.501583 77.486061 
L 587.051414 81.259979 
L 590.601244 85.374173 
L 594.151075 89.84969 
L 597.700906 94.707366 
L 601.250737 99.967474 
L 604.800568 105.649297 
L 608.350398 111.770623 
L 611.900229 118.34716 
L 615.45006 125.391873 
L 618.999891 132.914223 
L 622.549722 140.919338 
L 626.099552 149.407099 
L 630.359349 160.220094 
L 634.619146 171.693728 
L 638.878943 183.785608 
L 643.848707 198.589793 
L 649.528436 216.256024 
L 658.04803 243.640894 
L 667.27759 273.1615 
L 672.247353 288.305508 
L 676.50715 300.515291 
L 680.056981 309.967121 
L 682.896846 316.957959 
L 685.73671 323.368842 
L 688.576575 329.136055 
L 690.706473 333.003249 
L 692.836372 336.452078 
L 694.96627 339.461747 
L 697.096169 342.013822 
L 699.226067 344.092459 
L 700.646 345.208631 
L 702.065932 346.105386 
L 703.485864 346.78019 
L 704.905797 347.231129 
L 706.325729 347.45692 
L 707.035695 347.485159 
L 707.035695 347.485159 
" clip-path="url(#p2e50a4342b)" style="fill: none; stroke-dasharray: 5.55,2.4; stroke-dashoffset: 0; stroke: #ff7f0e; stroke-width: 1.5"/>
   </g>
   <g id="line2d_64">
    <path d="M 423.759196 43.796001 
L 500.435542 43.902895 
L 516.764763 44.155196 
L 528.124222 44.545383 
L 536.643816 45.040771 
L 543.743478 45.650922 
L 550.133173 46.409375 
L 555.812902 47.299894 
L 560.782666 48.288527 
L 565.752429 49.516545 
L 570.012226 50.797278 
L 574.272023 52.327046 
L 577.821853 53.822242 
L 581.371684 55.546971 
L 584.921515 57.531902 
L 588.471346 59.811124 
L 591.311211 61.87163 
L 594.151075 64.165672 
L 596.99094 66.716007 
L 599.830804 69.547081 
L 602.670669 72.685062 
L 605.510534 76.15783 
L 608.350398 79.99494 
L 611.190263 84.227542 
L 614.030128 88.88824 
L 616.869992 94.010892 
L 619.709857 99.63032 
L 622.549722 105.781932 
L 625.389586 112.501229 
L 628.229451 119.823185 
L 631.069316 127.781475 
L 633.90918 136.407551 
L 636.749045 145.729532 
L 639.58891 155.770918 
L 642.428774 166.549105 
L 645.268639 178.073723 
L 648.81847 193.528127 
L 652.368301 210.122057 
L 655.918131 227.794964 
L 660.177928 250.280658 
L 665.147691 277.930605 
L 673.667285 327.075104 
L 679.347015 359.18876 
L 682.896846 378.131401 
L 685.73671 392.298341 
L 688.576575 405.336123 
L 690.706473 414.236319 
L 692.836372 422.281705 
L 694.96627 429.386616 
L 697.096169 435.473107 
L 698.516101 438.930721 
L 699.936033 441.887415 
L 701.355966 444.327941 
L 702.775898 446.239585 
L 704.19583 447.612311 
L 704.905797 448.094203 
L 705.615763 448.438869 
L 706.325729 448.645853 
L 707.035695 448.714878 
L 707.035695 448.714878 
" clip-path="url(#p2e50a4342b)" style="fill: none; stroke-dasharray: 5.55,2.4; stroke-dashoffset: 0; stroke: #2ca02c; stroke-width: 1.5"/>
   </g>
   <g id="line2d_65">
    <path d="M 423.759196 43.796001 
L 707.035695 43.796001 
L 707.035695 43.796001 
" clip-path="url(#p2e50a4342b)" style="fill: none; stroke: #808080; stroke-width: 1.5; stroke-linecap: square"/>
   </g>
   <g id="patch_8">
    <path d="M 409.595371 468.960822 
L 409.595371 23.550058 
" style="fill: none; stroke: #000000; stroke-width: 0.8; stroke-linejoin: miter; stroke-linecap: square"/>
   </g>
   <g id="patch_9">
    <path d="M 721.19952 468.960822 
L 721.19952 23.550058 
" style="fill: none; stroke: #000000; stroke-width: 0.8; stroke-linejoin: miter; stroke-linecap: square"/>
   </g>
   <g id="patch_10">
    <path d="M 409.595371 468.960822 
L 721.19952 468.960822 
" style="fill: none; stroke: #000000; stroke-width: 0.8; stroke-linejoin: miter; stroke-linecap: square"/>
   </g>
   <g id="patch_11">
    <path d="M 409.595371 23.550058 
L 721.19952 23.550058 
" style="fill: none; stroke: #000000; stroke-width: 0.8; stroke-linejoin: miter; stroke-linecap: square"/>
   </g>
   <g id="text_23">
    <!-- Group velocity -->
    <g transform="translate(504.390853 17.550058)scale(0.17 -0.17)">
     <defs>
      <path id="CMTT12-47" d="M 2816 1356 
C 2944 1356 3110 1356 3110 1542 
C 3110 1728 2938 1728 2848 1728 
L 2131 1728 
C 2042 1728 1869 1728 1869 1542 
C 1869 1356 2042 1356 2131 1356 
L 2394 1356 
C 2362 971 2189 307 1664 307 
C 1146 307 653 996 653 1949 
C 653 2925 1165 3596 1670 3596 
C 1978 3596 2317 3356 2400 2722 
C 2419 2564 2541 2564 2605 2564 
C 2816 2564 2816 2678 2816 2804 
L 2816 3724 
C 2816 3827 2816 3968 2637 3968 
C 2528 3968 2490 3897 2470 3865 
L 2387 3660 
C 2176 3852 1920 3968 1638 3968 
C 883 3968 237 3109 237 1956 
C 237 781 890 -64 1638 -64 
C 1914 -64 2182 51 2400 288 
C 2400 121 2400 0 2611 0 
C 2816 0 2816 134 2816 256 
L 2816 1356 
z
" transform="scale(0.015625)"/>
      <path id="CMTT12-6f" d="M 2918 1369 
C 2918 2179 2336 2816 1645 2816 
C 954 2816 371 2179 371 1369 
C 371 553 960 -64 1645 -64 
C 2330 -64 2918 553 2918 1369 
z
M 1645 307 
C 1184 307 787 799 787 1414 
C 787 2017 1197 2444 1645 2444 
C 2093 2444 2502 2017 2502 1414 
C 2502 793 2106 307 1645 307 
z
" transform="scale(0.015625)"/>
      <path id="CMTT12-70" d="M 1293 -1408 
C 1382 -1408 1549 -1408 1549 -1223 
C 1549 -1037 1382 -1037 1293 -1037 
L 1030 -1037 
L 1030 294 
C 1184 121 1421 -64 1779 -64 
C 2458 -64 3053 546 3053 1366 
C 3053 2161 2515 2790 1850 2790 
C 1382 2790 1088 2508 1030 2444 
C 1030 2655 1030 2752 774 2752 
L 352 2752 
C 262 2752 96 2752 96 2566 
C 96 2380 262 2380 352 2380 
L 614 2380 
L 614 -1037 
L 352 -1037 
C 262 -1037 96 -1037 96 -1223 
C 96 -1408 262 -1408 352 -1408 
L 1293 -1408 
z
M 1030 1689 
C 1030 2057 1389 2419 1805 2419 
C 2266 2419 2637 1948 2637 1366 
C 2637 746 2202 307 1747 307 
C 1267 307 1030 856 1030 1179 
L 1030 1689 
z
" transform="scale(0.015625)"/>
      <path id="CMTT12-76" d="M 2714 2380 
L 2880 2380 
C 2970 2380 3142 2380 3142 2566 
C 3142 2752 2970 2752 2880 2752 
L 2176 2752 
C 2086 2752 1914 2752 1914 2566 
C 1914 2380 2086 2380 2176 2380 
L 2336 2380 
L 1645 296 
L 954 2380 
L 1114 2380 
C 1203 2380 1376 2380 1376 2566 
C 1376 2752 1203 2752 1114 2752 
L 410 2752 
C 320 2752 147 2752 147 2566 
C 147 2380 320 2380 410 2380 
L 576 2380 
L 1312 154 
C 1382 -64 1523 -64 1645 -64 
C 1766 -64 1907 -64 1978 154 
L 2714 2380 
z
" transform="scale(0.015625)"/>
      <path id="CMTT12-74" d="M 1382 2380 
L 2419 2380 
C 2509 2380 2675 2380 2675 2566 
C 2675 2752 2509 2752 2419 2752 
L 1382 2752 
L 1382 3261 
C 1382 3373 1382 3520 1178 3520 
C 966 3520 966 3373 966 3261 
L 966 2752 
L 422 2752 
C 333 2752 160 2752 160 2566 
C 160 2380 326 2380 416 2380 
L 966 2380 
L 966 752 
C 966 153 1376 -64 1837 -64 
C 2182 -64 2816 108 2816 765 
C 2816 895 2816 1037 2605 1037 
C 2400 1037 2400 895 2400 759 
C 2394 371 2029 307 1882 307 
C 1382 307 1382 630 1382 785 
L 1382 2380 
z
" transform="scale(0.015625)"/>
     </defs>
     <use xlink:href="#CMTT12-47" transform="scale(0.996264)"/>
     <use xlink:href="#CMTT12-72" transform="translate(51.266111 0)scale(0.996264)"/>
     <use xlink:href="#CMTT12-6f" transform="translate(102.532222 0)scale(0.996264)"/>
     <use xlink:href="#CMTT12-75" transform="translate(153.798333 0)scale(0.996264)"/>
     <use xlink:href="#CMTT12-70" transform="translate(205.064443 0)scale(0.996264)"/>
     <use xlink:href="#CMTT12-76" transform="translate(307.596665 0)scale(0.996264)"/>
     <use xlink:href="#CMTT12-65" transform="translate(358.862776 0)scale(0.996264)"/>
     <use xlink:href="#CMTT12-6c" transform="translate(410.128887 0)scale(0.996264)"/>
     <use xlink:href="#CMTT12-6f" transform="translate(461.394998 0)scale(0.996264)"/>
     <use xlink:href="#CMTT12-63" transform="translate(512.661108 0)scale(0.996264)"/>
     <use xlink:href="#CMTT12-69" transform="translate(563.927219 0)scale(0.996264)"/>
     <use xlink:href="#CMTT12-74" transform="translate(615.19333 0)scale(0.996264)"/>
     <use xlink:href="#CMTT12-79" transform="translate(666.459441 0)scale(0.996264)"/>
    </g>
   </g>
  </g>
  <g id="axes_3">
   <g id="patch_12">
    <path d="M 47.866567 468.960822 
L 359.470716 468.960822 
L 359.470716 262.180948 
L 47.866567 262.180948 
z
" style="fill: #ffffff"/>
   </g>
   <g id="matplotlib.axis_5">
    <g id="xtick_13">
     <g id="line2d_66">
      <path d="M 62.030392 468.960822 
L 62.030392 262.180948 
" clip-path="url(#p7dfc5c71fa)" style="fill: none; stroke-dasharray: 0.8,1.32; stroke-dashoffset: 0; stroke: #b0b0b0; stroke-width: 0.8"/>
     </g>
     <g id="line2d_67">
      <g>
       <use xlink:href="#m361b5fa4fe" x="62.030392" y="468.960822" style="stroke: #000000; stroke-width: 0.8"/>
      </g>
     </g>
     <g id="text_24">
      <!-- $\mathdefault{0.0}$ -->
      <g transform="translate(55.665353 482.049105)scale(0.1 -0.1)">
       <use xlink:href="#CMR17-30" transform="scale(0.996264)"/>
       <use xlink:href="#CMMI12-3a" transform="translate(45.690477 0)scale(0.996264)"/>
       <use xlink:href="#CMR17-30" transform="translate(72.787654 0)scale(0.996264)"/>
      </g>
     </g>
    </g>
    <g id="xtick_14">
     <g id="line2d_68">
      <path d="M 118.685692 468.960822 
L 118.685692 262.180948 
" clip-path="url(#p7dfc5c71fa)" style="fill: none; stroke-dasharray: 0.8,1.32; stroke-dashoffset: 0; stroke: #b0b0b0; stroke-width: 0.8"/>
     </g>
     <g id="line2d_69">
      <g>
       <use xlink:href="#m361b5fa4fe" x="118.685692" y="468.960822" style="stroke: #000000; stroke-width: 0.8"/>
      </g>
     </g>
     <g id="text_25">
      <!-- $\mathdefault{0.2}$ -->
      <g transform="translate(112.320652 482.049105)scale(0.1 -0.1)">
       <use xlink:href="#CMR17-30" transform="scale(0.996264)"/>
       <use xlink:href="#CMMI12-3a" transform="translate(45.690477 0)scale(0.996264)"/>
       <use xlink:href="#CMR17-32" transform="translate(72.787654 0)scale(0.996264)"/>
      </g>
     </g>
    </g>
    <g id="xtick_15">
     <g id="line2d_70">
      <path d="M 175.340992 468.960822 
L 175.340992 262.180948 
" clip-path="url(#p7dfc5c71fa)" style="fill: none; stroke-dasharray: 0.8,1.32; stroke-dashoffset: 0; stroke: #b0b0b0; stroke-width: 0.8"/>
     </g>
     <g id="line2d_71">
      <g>
       <use xlink:href="#m361b5fa4fe" x="175.340992" y="468.960822" style="stroke: #000000; stroke-width: 0.8"/>
      </g>
     </g>
     <g id="text_26">
      <!-- $\mathdefault{0.4}$ -->
      <g transform="translate(168.975952 482.049105)scale(0.1 -0.1)">
       <use xlink:href="#CMR17-30" transform="scale(0.996264)"/>
       <use xlink:href="#CMMI12-3a" transform="translate(45.690477 0)scale(0.996264)"/>
       <use xlink:href="#CMR17-34" transform="translate(72.787654 0)scale(0.996264)"/>
      </g>
     </g>
    </g>
    <g id="xtick_16">
     <g id="line2d_72">
      <path d="M 231.996291 468.960822 
L 231.996291 262.180948 
" clip-path="url(#p7dfc5c71fa)" style="fill: none; stroke-dasharray: 0.8,1.32; stroke-dashoffset: 0; stroke: #b0b0b0; stroke-width: 0.8"/>
     </g>
     <g id="line2d_73">
      <g>
       <use xlink:href="#m361b5fa4fe" x="231.996291" y="468.960822" style="stroke: #000000; stroke-width: 0.8"/>
      </g>
     </g>
     <g id="text_27">
      <!-- $\mathdefault{0.6}$ -->
      <g transform="translate(225.631252 482.049105)scale(0.1 -0.1)">
       <use xlink:href="#CMR17-30" transform="scale(0.996264)"/>
       <use xlink:href="#CMMI12-3a" transform="translate(45.690477 0)scale(0.996264)"/>
       <use xlink:href="#CMR17-36" transform="translate(72.787654 0)scale(0.996264)"/>
      </g>
     </g>
    </g>
    <g id="xtick_17">
     <g id="line2d_74">
      <path d="M 288.651591 468.960822 
L 288.651591 262.180948 
" clip-path="url(#p7dfc5c71fa)" style="fill: none; stroke-dasharray: 0.8,1.32; stroke-dashoffset: 0; stroke: #b0b0b0; stroke-width: 0.8"/>
     </g>
     <g id="line2d_75">
      <g>
       <use xlink:href="#m361b5fa4fe" x="288.651591" y="468.960822" style="stroke: #000000; stroke-width: 0.8"/>
      </g>
     </g>
     <g id="text_28">
      <!-- $\mathdefault{0.8}$ -->
      <g transform="translate(282.286552 482.049105)scale(0.1 -0.1)">
       <use xlink:href="#CMR17-30" transform="scale(0.996264)"/>
       <use xlink:href="#CMMI12-3a" transform="translate(45.690477 0)scale(0.996264)"/>
       <use xlink:href="#CMR17-38" transform="translate(72.787654 0)scale(0.996264)"/>
      </g>
     </g>
    </g>
    <g id="xtick_18">
     <g id="line2d_76">
      <path d="M 345.306891 468.960822 
L 345.306891 262.180948 
" clip-path="url(#p7dfc5c71fa)" style="fill: none; stroke-dasharray: 0.8,1.32; stroke-dashoffset: 0; stroke: #b0b0b0; stroke-width: 0.8"/>
     </g>
     <g id="line2d_77">
      <g>
       <use xlink:href="#m361b5fa4fe" x="345.306891" y="468.960822" style="stroke: #000000; stroke-width: 0.8"/>
      </g>
     </g>
     <g id="text_29">
      <!-- $\mathdefault{1.0}$ -->
      <g transform="translate(338.941852 482.049105)scale(0.1 -0.1)">
       <use xlink:href="#CMR17-31" transform="scale(0.996264)"/>
       <use xlink:href="#CMMI12-3a" transform="translate(45.690477 0)scale(0.996264)"/>
       <use xlink:href="#CMR17-30" transform="translate(72.787654 0)scale(0.996264)"/>
      </g>
     </g>
    </g>
    <g id="text_30">
     <!-- $kh \: / \: \pi$ -->
     <g transform="translate(181.685694 500.965398)scale(0.17 -0.17)">
      <use xlink:href="#CMMI12-6b" transform="scale(0.996264)"/>
      <use xlink:href="#CMMI12-68" transform="translate(54.079201 0)scale(0.996264)"/>
      <use xlink:href="#CMMI12-3d" transform="translate(132.373032 0)scale(0.996264)"/>
      <use xlink:href="#CMMI12-19" transform="translate(203.287157 0)scale(0.996264)"/>
     </g>
    </g>
   </g>
   <g id="matplotlib.axis_6">
    <g id="ytick_13">
     <g id="line2d_78">
      <path d="M 47.866567 459.561736 
L 359.470716 459.561736 
" clip-path="url(#p7dfc5c71fa)" style="fill: none; stroke-dasharray: 0.8,1.32; stroke-dashoffset: 0; stroke: #b0b0b0; stroke-width: 0.8"/>
     </g>
     <g id="line2d_79">
      <g>
       <use xlink:href="#m96747122b2" x="47.866567" y="459.561736" style="stroke: #000000; stroke-width: 0.8"/>
      </g>
     </g>
     <g id="text_31">
      <!-- $\mathdefault{0.0}$ -->
      <g transform="translate(28.136488 462.605878)scale(0.1 -0.1)">
       <use xlink:href="#CMR17-30" transform="scale(0.996264)"/>
       <use xlink:href="#CMMI12-3a" transform="translate(45.690477 0)scale(0.996264)"/>
       <use xlink:href="#CMR17-30" transform="translate(72.787654 0)scale(0.996264)"/>
      </g>
     </g>
    </g>
    <g id="ytick_14">
     <g id="line2d_80">
      <path d="M 47.866567 421.965396 
L 359.470716 421.965396 
" clip-path="url(#p7dfc5c71fa)" style="fill: none; stroke-dasharray: 0.8,1.32; stroke-dashoffset: 0; stroke: #b0b0b0; stroke-width: 0.8"/>
     </g>
     <g id="line2d_81">
      <g>
       <use xlink:href="#m96747122b2" x="47.866567" y="421.965396" style="stroke: #000000; stroke-width: 0.8"/>
      </g>
     </g>
     <g id="text_32">
      <!-- $\mathdefault{0.2}$ -->
      <g transform="translate(28.136488 425.009538)scale(0.1 -0.1)">
       <use xlink:href="#CMR17-30" transform="scale(0.996264)"/>
       <use xlink:href="#CMMI12-3a" transform="translate(45.690477 0)scale(0.996264)"/>
       <use xlink:href="#CMR17-32" transform="translate(72.787654 0)scale(0.996264)"/>
      </g>
     </g>
    </g>
    <g id="ytick_15">
     <g id="line2d_82">
      <path d="M 47.866567 384.369055 
L 359.470716 384.369055 
" clip-path="url(#p7dfc5c71fa)" style="fill: none; stroke-dasharray: 0.8,1.32; stroke-dashoffset: 0; stroke: #b0b0b0; stroke-width: 0.8"/>
     </g>
     <g id="line2d_83">
      <g>
       <use xlink:href="#m96747122b2" x="47.866567" y="384.369055" style="stroke: #000000; stroke-width: 0.8"/>
      </g>
     </g>
     <g id="text_33">
      <!-- $\mathdefault{0.4}$ -->
      <g transform="translate(28.136488 387.413197)scale(0.1 -0.1)">
       <use xlink:href="#CMR17-30" transform="scale(0.996264)"/>
       <use xlink:href="#CMMI12-3a" transform="translate(45.690477 0)scale(0.996264)"/>
       <use xlink:href="#CMR17-34" transform="translate(72.787654 0)scale(0.996264)"/>
      </g>
     </g>
    </g>
    <g id="ytick_16">
     <g id="line2d_84">
      <path d="M 47.866567 346.772715 
L 359.470716 346.772715 
" clip-path="url(#p7dfc5c71fa)" style="fill: none; stroke-dasharray: 0.8,1.32; stroke-dashoffset: 0; stroke: #b0b0b0; stroke-width: 0.8"/>
     </g>
     <g id="line2d_85">
      <g>
       <use xlink:href="#m96747122b2" x="47.866567" y="346.772715" style="stroke: #000000; stroke-width: 0.8"/>
      </g>
     </g>
     <g id="text_34">
      <!-- $\mathdefault{0.6}$ -->
      <g transform="translate(28.136488 349.816856)scale(0.1 -0.1)">
       <use xlink:href="#CMR17-30" transform="scale(0.996264)"/>
       <use xlink:href="#CMMI12-3a" transform="translate(45.690477 0)scale(0.996264)"/>
       <use xlink:href="#CMR17-36" transform="translate(72.787654 0)scale(0.996264)"/>
      </g>
     </g>
    </g>
    <g id="ytick_17">
     <g id="line2d_86">
      <path d="M 47.866567 309.176374 
L 359.470716 309.176374 
" clip-path="url(#p7dfc5c71fa)" style="fill: none; stroke-dasharray: 0.8,1.32; stroke-dashoffset: 0; stroke: #b0b0b0; stroke-width: 0.8"/>
     </g>
     <g id="line2d_87">
      <g>
       <use xlink:href="#m96747122b2" x="47.866567" y="309.176374" style="stroke: #000000; stroke-width: 0.8"/>
      </g>
     </g>
     <g id="text_35">
      <!-- $\mathdefault{0.8}$ -->
      <g transform="translate(28.136488 312.220516)scale(0.1 -0.1)">
       <use xlink:href="#CMR17-30" transform="scale(0.996264)"/>
       <use xlink:href="#CMMI12-3a" transform="translate(45.690477 0)scale(0.996264)"/>
       <use xlink:href="#CMR17-38" transform="translate(72.787654 0)scale(0.996264)"/>
      </g>
     </g>
    </g>
    <g id="ytick_18">
     <g id="line2d_88">
      <path d="M 47.866567 271.580033 
L 359.470716 271.580033 
" clip-path="url(#p7dfc5c71fa)" style="fill: none; stroke-dasharray: 0.8,1.32; stroke-dashoffset: 0; stroke: #b0b0b0; stroke-width: 0.8"/>
     </g>
     <g id="line2d_89">
      <g>
       <use xlink:href="#m96747122b2" x="47.866567" y="271.580033" style="stroke: #000000; stroke-width: 0.8"/>
      </g>
     </g>
     <g id="text_36">
      <!-- $\mathdefault{1.0}$ -->
      <g transform="translate(28.136488 274.624175)scale(0.1 -0.1)">
       <use xlink:href="#CMR17-31" transform="scale(0.996264)"/>
       <use xlink:href="#CMMI12-3a" transform="translate(45.690477 0)scale(0.996264)"/>
       <use xlink:href="#CMR17-30" transform="translate(72.787654 0)scale(0.996264)"/>
      </g>
     </g>
    </g>
    <g id="text_37">
     <!-- $c^* / \: c$ -->
     <g transform="translate(19.902366 381.94867)rotate(-90)scale(0.17 -0.17)">
      <use xlink:href="#CMMI12-63" transform="scale(0.996264)"/>
      <use xlink:href="#CMSY10-3" transform="translate(41.983234 36.153639)scale(0.697382)"/>
      <use xlink:href="#CMMI12-3d" transform="translate(77.350576 0)scale(0.996264)"/>
      <use xlink:href="#CMMI12-63" transform="translate(148.264701 0)scale(0.996264)"/>
     </g>
    </g>
   </g>
   <g id="line2d_90">
    <path d="M 62.030392 271.580033 
L 67.710121 271.704317 
L 73.389851 272.07687 
L 79.06958 272.696808 
L 84.749309 273.562654 
L 90.429039 274.672351 
L 96.108768 276.023261 
L 101.788497 277.612177 
L 107.468227 279.435329 
L 113.147956 281.488397 
L 118.827685 283.766522 
L 124.507414 286.264318 
L 130.89711 289.329558 
L 137.286805 292.656209 
L 143.676501 296.234378 
L 150.066196 300.053449 
L 157.165858 304.565632 
L 164.26552 309.344824 
L 172.075147 314.88961 
L 179.884775 320.712234 
L 188.404369 327.351263 
L 197.633929 334.842948 
L 207.573455 343.208789 
L 218.932914 353.075473 
L 232.422271 365.098747 
L 255.851155 386.348807 
L 275.730207 404.253504 
L 288.509598 415.475162 
L 299.15909 424.554711 
L 309.098617 432.747119 
L 318.328177 440.068101 
L 326.847771 446.549785 
L 335.367365 452.739873 
L 343.176993 458.137765 
L 345.306891 459.561736 
L 345.306891 459.561736 
" clip-path="url(#p7dfc5c71fa)" style="fill: none; stroke: #1f77b4; stroke-width: 1.5; stroke-linecap: square"/>
   </g>
   <g id="line2d_91">
    <path d="M 62.030392 271.580033 
L 94.688836 271.686191 
L 106.75826 271.94845 
L 115.98782 272.349936 
L 124.507414 272.943982 
L 131.607076 273.649234 
L 138.706738 274.585977 
L 145.096433 275.658786 
L 150.776162 276.818527 
L 156.455892 278.192183 
L 162.135621 279.798096 
L 167.81535 281.653566 
L 172.785113 283.494422 
L 177.754877 285.548342 
L 182.72464 287.824009 
L 187.694403 290.328944 
L 192.664166 293.069399 
L 197.633929 296.050259 
L 202.603692 299.274964 
L 207.573455 302.745437 
L 212.543219 306.462025 
L 218.222948 311.009222 
L 223.902677 315.871646 
L 229.582407 321.041953 
L 235.262136 326.509981 
L 240.941865 332.262797 
L 247.331561 339.055565 
L 253.721256 346.162756 
L 260.820918 354.39173 
L 268.630545 363.79348 
L 277.860106 375.285671 
L 289.219564 389.82127 
L 320.458075 430.040792 
L 329.687635 441.424555 
L 337.497263 450.697191 
L 344.596925 458.774556 
L 345.306891 459.561736 
L 345.306891 459.561736 
" clip-path="url(#p7dfc5c71fa)" style="fill: none; stroke: #ff7f0e; stroke-width: 1.5; stroke-linecap: square"/>
   </g>
   <g id="line2d_92">
    <path d="M 62.030392 271.580033 
L 122.377516 271.690622 
L 136.576839 271.955352 
L 146.516365 272.345782 
L 155.035959 272.894281 
L 162.135621 273.557332 
L 168.525317 274.35679 
L 174.915012 275.388478 
L 180.594741 276.533879 
L 186.274471 277.925616 
L 191.244234 279.369608 
L 196.213997 281.04628 
L 201.18376 282.975817 
L 206.153523 285.177679 
L 210.41332 287.295708 
L 214.673117 289.638088 
L 218.932914 292.214622 
L 223.192711 295.034006 
L 227.452508 298.103675 
L 231.712305 301.429651 
L 235.972102 305.016415 
L 240.231899 308.866774 
L 244.491696 312.981764 
L 249.461459 318.115831 
L 254.431222 323.604213 
L 259.400985 329.438554 
L 264.370749 335.606748 
L 270.050478 343.044418 
L 275.730207 350.867797 
L 282.119903 360.085643 
L 288.509598 369.687335 
L 296.319226 381.845212 
L 306.258752 397.784591 
L 331.817534 439.05128 
L 339.627162 451.112355 
L 345.306891 459.561736 
L 345.306891 459.561736 
" clip-path="url(#p7dfc5c71fa)" style="fill: none; stroke: #2ca02c; stroke-width: 1.5; stroke-linecap: square"/>
   </g>
   <g id="line2d_93">
    <path d="M 62.030392 271.580033 
L 112.43799 271.685893 
L 130.187144 271.944896 
L 143.676501 272.353801 
L 155.035959 272.920925 
L 164.26552 273.589324 
L 172.785113 274.420463 
L 180.594741 275.406638 
L 187.694403 276.528364 
L 194.084098 277.754571 
L 200.473794 279.219407 
L 206.153523 280.750897 
L 211.833252 282.527381 
L 216.803016 284.306735 
L 221.772779 286.319103 
L 226.742542 288.588039 
L 231.002339 290.755909 
L 235.262136 293.146995 
L 239.521933 295.778271 
L 243.78173 298.667127 
L 248.041527 301.831173 
L 252.301324 305.288007 
L 256.561121 309.054922 
L 260.820918 313.148549 
L 265.080715 317.584443 
L 269.340512 322.376598 
L 273.600309 327.536899 
L 277.860106 333.074513 
L 282.119903 338.995238 
L 286.3797 345.300812 
L 290.639497 351.988217 
L 294.899294 359.049003 
L 299.869057 367.738787 
L 304.83882 376.882372 
L 310.518549 387.826522 
L 316.908245 400.657594 
L 325.427839 418.341462 
L 341.75706 452.412461 
L 345.306891 459.561736 
L 345.306891 459.561736 
" clip-path="url(#p7dfc5c71fa)" style="fill: none; stroke-dasharray: 5.55,2.4; stroke-dashoffset: 0; stroke: #ff7f0e; stroke-width: 1.5"/>
   </g>
   <g id="line2d_94">
    <path d="M 62.030392 271.580033 
L 152.906061 271.685979 
L 172.075147 271.934308 
L 185.564504 272.324535 
L 196.213997 272.856548 
L 204.733591 273.496944 
L 211.833252 274.231037 
L 218.222948 275.09342 
L 223.902677 276.059662 
L 229.582407 277.254952 
L 234.55217 278.525219 
L 239.521933 280.042638 
L 243.78173 281.571102 
L 248.041527 283.340476 
L 252.301324 285.382954 
L 255.851155 287.319036 
L 259.400985 289.491356 
L 262.950816 291.923467 
L 266.500647 294.640258 
L 270.050478 297.667777 
L 273.600309 301.032965 
L 277.150139 304.763291 
L 280.69997 308.886267 
L 284.249801 313.42884 
L 287.799632 318.416624 
L 291.349463 323.872994 
L 294.899294 329.81802 
L 298.449124 336.267267 
L 301.998955 343.23048 
L 305.548786 350.710201 
L 309.098617 358.700379 
L 312.648448 367.185071 
L 316.908245 377.980664 
L 321.168042 389.3797 
L 326.137805 403.313695 
L 332.5275 421.931013 
L 345.306891 459.561736 
L 345.306891 459.561736 
" clip-path="url(#p7dfc5c71fa)" style="fill: none; stroke-dasharray: 5.55,2.4; stroke-dashoffset: 0; stroke: #2ca02c; stroke-width: 1.5"/>
   </g>
   <g id="line2d_95">
    <path d="M 62.030392 271.580033 
L 345.306891 271.580033 
L 345.306891 271.580033 
" clip-path="url(#p7dfc5c71fa)" style="fill: none; stroke: #808080; stroke-width: 1.5; stroke-linecap: square"/>
   </g>
   <g id="patch_13">
    <path d="M 47.866567 468.960822 
L 47.866567 262.180948 
" style="fill: none; stroke: #000000; stroke-width: 0.8; stroke-linejoin: miter; stroke-linecap: square"/>
   </g>
   <g id="patch_14">
    <path d="M 359.470716 468.960822 
L 359.470716 262.180948 
" style="fill: none; stroke: #000000; stroke-width: 0.8; stroke-linejoin: miter; stroke-linecap: square"/>
   </g>
   <g id="patch_15">
    <path d="M 47.866567 468.960822 
L 359.470716 468.960822 
" style="fill: none; stroke: #000000; stroke-width: 0.8; stroke-linejoin: miter; stroke-linecap: square"/>
   </g>
   <g id="patch_16">
    <path d="M 47.866567 262.180948 
L 359.470716 262.180948 
" style="fill: none; stroke: #000000; stroke-width: 0.8; stroke-linejoin: miter; stroke-linecap: square"/>
   </g>
   <g id="text_38">
    <!-- Phase velocity -->
    <g transform="translate(142.662049 256.180948)scale(0.17 -0.17)">
     <defs>
      <path id="CMTT12-50" d="M 1030 1600 
L 1824 1600 
C 2566 1600 3014 2186 3014 2748 
C 3014 3336 2554 3904 1824 3904 
L 442 3904 
C 352 3904 179 3904 179 3718 
C 179 3532 352 3532 442 3532 
L 614 3532 
L 614 371 
L 442 371 
C 352 371 179 371 179 185 
C 179 0 352 0 442 0 
L 1203 0 
C 1293 0 1466 0 1466 185 
C 1466 371 1293 371 1203 371 
L 1030 371 
L 1030 1600 
z
M 1030 3532 
L 1709 3532 
C 2323 3532 2598 3090 2598 2755 
C 2598 2394 2310 1971 1709 1971 
L 1030 1971 
L 1030 3532 
z
" transform="scale(0.015625)"/>
      <path id="CMTT12-68" d="M 2675 1889 
C 2675 2521 2381 2816 1856 2816 
C 1421 2816 1139 2572 1030 2451 
L 1030 3641 
C 1030 3839 992 3904 774 3904 
L 352 3904 
C 262 3904 96 3904 96 3718 
C 96 3532 262 3532 352 3532 
L 614 3532 
L 614 371 
L 352 371 
C 262 371 96 371 96 185 
C 96 0 262 0 352 0 
L 1293 0 
C 1382 0 1549 0 1549 185 
C 1549 371 1382 371 1293 371 
L 1030 371 
L 1030 1540 
C 1030 2167 1466 2444 1811 2444 
C 2182 2444 2259 2231 2259 1863 
L 2259 371 
L 1997 371 
C 1907 371 1741 371 1741 185 
C 1741 0 1907 0 1997 0 
L 2938 0 
C 3027 0 3194 0 3194 185 
C 3194 371 3027 371 2938 371 
L 2675 371 
L 2675 1889 
z
" transform="scale(0.015625)"/>
      <path id="CMTT12-73" d="M 2688 2572 
C 2688 2675 2688 2816 2509 2816 
C 2355 2816 2317 2668 2317 2662 
C 2061 2816 1766 2816 1638 2816 
C 595 2816 454 2282 454 2062 
C 454 1797 608 1615 826 1492 
C 1030 1376 1216 1343 1741 1259 
C 1990 1214 2502 1129 2502 773 
C 2502 533 2285 307 1690 307 
C 1280 307 1011 469 877 935 
C 845 1026 826 1097 666 1097 
C 454 1097 454 974 454 844 
L 454 179 
C 454 76 454 -64 634 -64 
C 710 -64 768 -64 864 198 
C 1158 -45 1491 -64 1690 -64 
C 2874 -64 2874 708 2874 773 
C 2874 1447 2080 1583 1773 1628 
C 1210 1725 826 1790 826 2062 
C 826 2237 1024 2444 1626 2444 
C 2234 2444 2259 2153 2272 1984 
C 2285 1855 2400 1835 2477 1835 
C 2688 1835 2688 1952 2688 2082 
L 2688 2572 
z
" transform="scale(0.015625)"/>
     </defs>
     <use xlink:href="#CMTT12-50" transform="scale(0.996264)"/>
     <use xlink:href="#CMTT12-68" transform="translate(51.266111 0)scale(0.996264)"/>
     <use xlink:href="#CMTT12-61" transform="translate(102.532222 0)scale(0.996264)"/>
     <use xlink:href="#CMTT12-73" transform="translate(153.798333 0)scale(0.996264)"/>
     <use xlink:href="#CMTT12-65" transform="translate(205.064443 0)scale(0.996264)"/>
     <use xlink:href="#CMTT12-76" transform="translate(307.596665 0)scale(0.996264)"/>
     <use xlink:href="#CMTT12-65" transform="translate(358.862776 0)scale(0.996264)"/>
     <use xlink:href="#CMTT12-6c" transform="translate(410.128887 0)scale(0.996264)"/>
     <use xlink:href="#CMTT12-6f" transform="translate(461.394998 0)scale(0.996264)"/>
     <use xlink:href="#CMTT12-63" transform="translate(512.661108 0)scale(0.996264)"/>
     <use xlink:href="#CMTT12-69" transform="translate(563.927219 0)scale(0.996264)"/>
     <use xlink:href="#CMTT12-74" transform="translate(615.19333 0)scale(0.996264)"/>
     <use xlink:href="#CMTT12-79" transform="translate(666.459441 0)scale(0.996264)"/>
    </g>
   </g>
  </g>
  <g id="legend_1">
   <g id="patch_17">
    <path d="M 86.69976 536.480635 
L 641.69976 536.480635 
Q 644.69976 536.480635 644.69976 533.480635 
L 644.69976 513.65976 
Q 644.69976 510.65976 641.69976 510.65976 
L 86.69976 510.65976 
Q 83.69976 510.65976 83.69976 513.65976 
L 83.69976 533.480635 
Q 83.69976 536.480635 86.69976 536.480635 
z
" style="fill: #f5deb3; opacity: 0.25; stroke: #cccccc; stroke-linejoin: miter"/>
   </g>
   <g id="line2d_96">
    <path d="M 89.69976 521.90976 
L 104.69976 521.90976 
L 119.69976 521.90976 
" style="fill: none; stroke: #808080; stroke-width: 1.5; stroke-linecap: square"/>
   </g>
   <g id="text_39">
    <!-- Exact -->
    <g transform="translate(131.69976 527.15976)scale(0.15 -0.15)">
     <defs>
      <path id="CMTT12-45" d="M 1030 1856 
L 1875 1856 
C 1875 1629 1875 1507 2086 1507 
C 2291 1507 2291 1655 2291 1771 
L 2291 2309 
C 2291 2422 2291 2567 2086 2567 
C 1875 2567 1875 2447 1875 2227 
L 1030 2227 
L 1030 3532 
L 2598 3532 
L 2598 3223 
C 2598 3110 2598 2965 2803 2965 
C 3014 2965 3014 3103 3014 3223 
L 3014 3641 
C 3014 3839 2976 3904 2758 3904 
L 442 3904 
C 352 3904 179 3904 179 3718 
C 179 3532 352 3532 442 3532 
L 614 3532 
L 614 371 
L 442 371 
C 352 371 179 371 179 185 
C 179 0 352 0 442 0 
L 2899 0 
C 3110 0 3155 57 3155 262 
L 3155 784 
C 3155 900 3155 1049 2950 1049 
C 2739 1049 2739 906 2739 784 
L 2739 371 
L 1030 371 
L 1030 1856 
z
" transform="scale(0.015625)"/>
      <path id="CMTT12-78" d="M 1805 1417 
L 2541 2380 
L 2765 2380 
C 2854 2380 3021 2380 3021 2566 
C 3021 2752 2854 2752 2765 2752 
L 2054 2752 
C 1965 2752 1798 2752 1798 2566 
C 1798 2380 1952 2380 2106 2380 
L 1626 1723 
L 1133 2380 
C 1280 2380 1434 2380 1434 2566 
C 1434 2752 1267 2752 1178 2752 
L 467 2752 
C 378 2752 211 2752 211 2566 
C 211 2380 378 2380 467 2380 
L 691 2380 
L 1453 1417 
L 653 371 
L 435 371 
C 346 371 173 371 173 185 
C 173 0 346 0 435 0 
L 1139 0 
C 1229 0 1395 0 1395 185 
C 1395 371 1248 371 1075 371 
L 1626 1175 
L 2202 371 
C 2042 371 1888 371 1888 185 
C 1888 0 2054 0 2144 0 
L 2854 0 
C 2944 0 3110 0 3110 185 
C 3110 371 2944 371 2854 371 
L 2630 371 
L 1805 1417 
z
" transform="scale(0.015625)"/>
     </defs>
     <use xlink:href="#CMTT12-45" transform="scale(0.996264)"/>
     <use xlink:href="#CMTT12-78" transform="translate(51.266111 0)scale(0.996264)"/>
     <use xlink:href="#CMTT12-61" transform="translate(102.532222 0)scale(0.996264)"/>
     <use xlink:href="#CMTT12-63" transform="translate(153.798333 0)scale(0.996264)"/>
     <use xlink:href="#CMTT12-74" transform="translate(205.064443 0)scale(0.996264)"/>
    </g>
   </g>
   <g id="line2d_97">
    <path d="M 206.479586 521.90976 
L 221.479586 521.90976 
L 236.479586 521.90976 
" style="fill: none; stroke: #1f77b4; stroke-width: 1.5; stroke-linecap: square"/>
   </g>
   <g id="text_40">
    <!-- E2 -->
    <g transform="translate(248.479586 527.15976)scale(0.15 -0.15)">
     <defs>
      <path id="CMTT12-32" d="M 2227 1401 
C 2317 1478 2963 2025 2963 2731 
C 2963 3456 2362 3968 1562 3968 
C 819 3968 326 3412 326 2877 
C 326 2610 550 2591 589 2591 
C 704 2591 845 2680 845 2852 
C 845 2973 800 3011 768 3037 
C 858 3374 1152 3596 1523 3596 
C 2067 3596 2547 3285 2547 2731 
C 2547 2235 2170 1853 1824 1554 
L 416 339 
C 346 281 326 262 326 185 
C 326 0 499 0 589 0 
L 2822 0 
C 2963 38 2963 166 2963 262 
L 2963 396 
C 2963 511 2963 657 2758 657 
C 2547 657 2547 523 2547 371 
L 1005 371 
L 2227 1401 
z
" transform="scale(0.015625)"/>
     </defs>
     <use xlink:href="#CMTT12-45" transform="scale(0.996264)"/>
     <use xlink:href="#CMTT12-32" transform="translate(51.266111 0)scale(0.996264)"/>
    </g>
   </g>
   <g id="line2d_98">
    <path d="M 300.189673 521.90976 
L 315.189673 521.90976 
L 330.189673 521.90976 
" style="fill: none; stroke: #ff7f0e; stroke-width: 1.5; stroke-linecap: square"/>
   </g>
   <g id="text_41">
    <!-- E4 -->
    <g transform="translate(342.189673 527.15976)scale(0.15 -0.15)">
     <defs>
      <path id="CMTT12-34" d="M 243 1549 
C 186 1465 186 1452 186 1337 
C 186 1113 269 1088 442 1088 
L 2010 1088 
L 2010 371 
L 1626 371 
C 1536 371 1370 371 1370 185 
C 1370 0 1536 0 1626 0 
L 2752 0 
C 2842 0 3008 0 3008 185 
C 3008 371 2842 371 2752 371 
L 2368 371 
L 2368 1088 
L 2848 1088 
C 2938 1088 3104 1088 3104 1273 
C 3104 1459 2938 1459 2848 1459 
L 2368 1459 
L 2368 3768 
C 2368 3980 2323 4032 2106 4032 
L 1958 4032 
C 1805 4032 1773 4025 1696 3903 
L 243 1549 
z
M 614 1459 
L 2010 3716 
L 2010 1459 
L 614 1459 
z
" transform="scale(0.015625)"/>
     </defs>
     <use xlink:href="#CMTT12-45" transform="scale(0.996264)"/>
     <use xlink:href="#CMTT12-34" transform="translate(51.266111 0)scale(0.996264)"/>
    </g>
   </g>
   <g id="line2d_99">
    <path d="M 393.89976 521.90976 
L 408.89976 521.90976 
L 423.89976 521.90976 
" style="fill: none; stroke: #2ca02c; stroke-width: 1.5; stroke-linecap: square"/>
   </g>
   <g id="text_42">
    <!-- E6 -->
    <g transform="translate(435.89976 527.15976)scale(0.15 -0.15)">
     <defs>
      <path id="CMTT12-36" d="M 762 2137 
C 826 2972 1382 3596 2010 3596 
C 2138 3596 2285 3577 2381 3478 
C 2355 3446 2330 3415 2330 3321 
C 2330 3203 2419 3072 2586 3072 
C 2752 3072 2848 3190 2848 3334 
C 2848 3667 2586 3968 2016 3968 
C 1178 3968 339 3196 339 1920 
C 339 383 1050 -64 1658 -64 
C 2342 -64 2950 479 2950 1244 
C 2950 1990 2394 2553 1728 2553 
C 1402 2553 1037 2432 762 2137 
z
M 1658 307 
C 973 307 832 1174 832 1180 
C 832 1187 838 1219 838 1238 
C 838 1276 813 1359 813 1436 
C 813 1806 1158 2176 1683 2176 
C 2182 2176 2534 1748 2534 1244 
C 2534 689 2118 307 1658 307 
z
" transform="scale(0.015625)"/>
     </defs>
     <use xlink:href="#CMTT12-45" transform="scale(0.996264)"/>
     <use xlink:href="#CMTT12-36" transform="translate(51.266111 0)scale(0.996264)"/>
    </g>
   </g>
   <g id="line2d_100">
    <path d="M 487.609847 521.90976 
L 502.609847 521.90976 
L 517.609847 521.90976 
" style="fill: none; stroke-dasharray: 5.55,2.4; stroke-dashoffset: 0; stroke: #ff7f0e; stroke-width: 1.5"/>
   </g>
   <g id="text_43">
    <!-- I4 -->
    <g transform="translate(529.609847 527.15976)scale(0.15 -0.15)">
     <defs>
      <path id="CMTT12-49" d="M 1856 3532 
L 2509 3532 
C 2598 3532 2765 3532 2765 3718 
C 2765 3904 2598 3904 2509 3904 
L 787 3904 
C 698 3904 531 3904 531 3718 
C 531 3532 698 3532 787 3532 
L 1440 3532 
L 1440 371 
L 787 371 
C 698 371 531 371 531 185 
C 531 0 698 0 787 0 
L 2509 0 
C 2598 0 2765 0 2765 185 
C 2765 371 2598 371 2509 371 
L 1856 371 
L 1856 3532 
z
" transform="scale(0.015625)"/>
     </defs>
     <use xlink:href="#CMTT12-49" transform="scale(0.996264)"/>
     <use xlink:href="#CMTT12-34" transform="translate(51.266111 0)scale(0.996264)"/>
    </g>
   </g>
   <g id="line2d_101">
    <path d="M 581.319934 521.90976 
L 596.319934 521.90976 
L 611.319934 521.90976 
" style="fill: none; stroke-dasharray: 5.55,2.4; stroke-dashoffset: 0; stroke: #2ca02c; stroke-width: 1.5"/>
   </g>
   <g id="text_44">
    <!-- I6 -->
    <g transform="translate(623.319934 527.15976)scale(0.15 -0.15)">
     <use xlink:href="#CMTT12-49" transform="scale(0.996264)"/>
     <use xlink:href="#CMTT12-36" transform="translate(51.266111 0)scale(0.996264)"/>
    </g>
   </g>
  </g>
 </g>
 <defs>
  <clipPath id="pd22bc15ac1">
   <rect x="47.866567" y="23.550058" width="311.604149" height="206.779873"/>
  </clipPath>
  <clipPath id="p2e50a4342b">
   <rect x="409.595371" y="23.550058" width="311.604149" height="445.410764"/>
  </clipPath>
  <clipPath id="p7dfc5c71fa">
   <rect x="47.866567" y="262.180948" width="311.604149" height="206.779873"/>
  </clipPath>
 </defs>
</svg>
