<?xml version="1.0" encoding="utf-8" standalone="no"?>
<!DOCTYPE svg PUBLIC "-//W3C//DTD SVG 1.1//EN"
  "http://www.w3.org/Graphics/SVG/1.1/DTD/svg11.dtd">
<!-- Created with matplotlib (https://matplotlib.org/) -->
<svg height="440.39952pt" version="1.1" viewBox="0 0 872.39952 440.39952" width="872.39952pt" xmlns="http://www.w3.org/2000/svg" xmlns:xlink="http://www.w3.org/1999/xlink">
 <metadata>
  <rdf:RDF xmlns:cc="http://creativecommons.org/ns#" xmlns:dc="http://purl.org/dc/elements/1.1/" xmlns:rdf="http://www.w3.org/1999/02/22-rdf-syntax-ns#">
   <cc:Work>
    <dc:type rdf:resource="http://purl.org/dc/dcmitype/StillImage"/>
    <dc:date>2022-03-11T18:05:08.382911</dc:date>
    <dc:format>image/svg+xml</dc:format>
    <dc:creator>
     <cc:Agent>
      <dc:title>Matplotlib v3.3.4, https://matplotlib.org/</dc:title>
     </cc:Agent>
    </dc:creator>
   </cc:Work>
  </rdf:RDF>
 </metadata>
 <defs>
  <style type="text/css">*{stroke-linecap:butt;stroke-linejoin:round;}</style>
 </defs>
 <g id="figure_1">
  <g id="patch_1">
   <path d="M 0 440.39952 
L 872.39952 440.39952 
L 872.39952 0 
L 0 0 
z
" style="fill:#ffffff;"/>
  </g>
  <g id="axes_1">
   <g id="patch_2">
    <path d="M 47.866567 396.960822 
L 427.750476 396.960822 
L 427.750476 23.550058 
L 47.866567 23.550058 
z
" style="fill:#ffffff;"/>
   </g>
   <g id="matplotlib.axis_1">
    <g id="xtick_1">
     <g id="line2d_1">
      <path clip-path="url(#pc076e7e2b3)" d="M 65.134018 396.960822 
L 65.134018 23.550058 
" style="fill:none;stroke:#b0b0b0;stroke-dasharray:0.8,1.32;stroke-dashoffset:0;stroke-width:0.8;"/>
     </g>
     <g id="line2d_2">
      <defs>
       <path d="M 0 0 
L 0 3.5 
" id="m9dfe0f0a3a" style="stroke:#000000;stroke-width:0.8;"/>
      </defs>
      <g>
       <use style="stroke:#000000;stroke-width:0.8;" x="65.134018" xlink:href="#m9dfe0f0a3a" y="396.960822"/>
      </g>
     </g>
     <g id="text_1">
      <!-- $\mathdefault{0.0}$ -->
      <g transform="translate(58.768978 410.049105)scale(0.1 -0.1)">
       <defs>
        <path d="M 42 31.84375 
C 42 37.96875 41.90625 48.421875 37.703125 56.453125 
C 34 63.484375 28.09375 66 22.90625 66 
C 18.09375 66 12 63.78125 8.203125 56.5625 
C 4.203125 49.015625 3.796875 39.671875 3.796875 31.84375 
C 3.796875 26.109375 3.90625 17.375 7 9.734375 
C 11.296875 -0.609375 19 -2 22.90625 -2 
C 27.5 -2 34.5 -0.109375 38.59375 9.4375 
C 41.59375 16.375 42 24.5 42 31.84375 
z
M 22.90625 -0.40625 
C 16.5 -0.40625 12.703125 5.125 11.296875 12.75 
C 10.203125 18.6875 10.203125 27.328125 10.203125 32.953125 
C 10.203125 40.6875 10.203125 47.109375 11.5 53.234375 
C 13.40625 61.78125 19 64.390625 22.90625 64.390625 
C 27 64.390625 32.296875 61.671875 34.203125 53.4375 
C 35.5 47.71875 35.59375 40.984375 35.59375 32.953125 
C 35.59375 26.421875 35.59375 18.375 34.40625 12.453125 
C 32.296875 1.5 26.40625 -0.40625 22.90625 -0.40625 
z
" id="CMR17-48"/>
        <path d="M 18.40625 4.796875 
C 18.40625 7.6875 16 9.6875 13.59375 9.6875 
C 10.703125 9.6875 8.703125 7.296875 8.703125 4.890625 
C 8.703125 2 11.09375 0 13.5 0 
C 16.40625 0 18.40625 2.390625 18.40625 4.796875 
z
" id="CMMI12-58"/>
       </defs>
       <use transform="scale(0.996264)" xlink:href="#CMR17-48"/>
       <use transform="translate(45.690477 0)scale(0.996264)" xlink:href="#CMMI12-58"/>
       <use transform="translate(72.787654 0)scale(0.996264)" xlink:href="#CMR17-48"/>
      </g>
     </g>
    </g>
    <g id="xtick_2">
     <g id="line2d_3">
      <path clip-path="url(#pc076e7e2b3)" d="M 134.203819 396.960822 
L 134.203819 23.550058 
" style="fill:none;stroke:#b0b0b0;stroke-dasharray:0.8,1.32;stroke-dashoffset:0;stroke-width:0.8;"/>
     </g>
     <g id="line2d_4">
      <g>
       <use style="stroke:#000000;stroke-width:0.8;" x="134.203819" xlink:href="#m9dfe0f0a3a" y="396.960822"/>
      </g>
     </g>
     <g id="text_2">
      <!-- $\mathdefault{0.2}$ -->
      <g transform="translate(127.83878 410.049105)scale(0.1 -0.1)">
       <defs>
        <path d="M 41.703125 15.46875 
L 39.90625 15.46875 
C 38.90625 8.390625 38.09375 7.1875 37.703125 6.59375 
C 37.203125 5.796875 30 5.796875 28.59375 5.796875 
L 9.40625 5.796875 
C 13 9.6875 20 16.765625 28.5 24.9375 
C 34.59375 30.71875 41.703125 37.5 41.703125 47.390625 
C 41.703125 59.1875 32.296875 66 21.796875 66 
C 10.796875 66 4.09375 56.296875 4.09375 47.296875 
C 4.09375 43.390625 7 42.890625 8.203125 42.890625 
C 9.203125 42.890625 12.203125 43.484375 12.203125 46.984375 
C 12.203125 50.09375 9.59375 51 8.203125 51 
C 7.59375 51 7 50.890625 6.59375 50.6875 
C 8.5 59.1875 14.296875 63.390625 20.40625 63.390625 
C 29.09375 63.390625 34.796875 56.5 34.796875 47.390625 
C 34.796875 38.703125 29.703125 31.21875 24 24.734375 
L 4.09375 2.296875 
L 4.09375 0 
L 39.296875 0 
z
" id="CMR17-50"/>
       </defs>
       <use transform="scale(0.996264)" xlink:href="#CMR17-48"/>
       <use transform="translate(45.690477 0)scale(0.996264)" xlink:href="#CMMI12-58"/>
       <use transform="translate(72.787654 0)scale(0.996264)" xlink:href="#CMR17-50"/>
      </g>
     </g>
    </g>
    <g id="xtick_3">
     <g id="line2d_5">
      <path clip-path="url(#pc076e7e2b3)" d="M 203.273621 396.960822 
L 203.273621 23.550058 
" style="fill:none;stroke:#b0b0b0;stroke-dasharray:0.8,1.32;stroke-dashoffset:0;stroke-width:0.8;"/>
     </g>
     <g id="line2d_6">
      <g>
       <use style="stroke:#000000;stroke-width:0.8;" x="203.273621" xlink:href="#m9dfe0f0a3a" y="396.960822"/>
      </g>
     </g>
     <g id="text_3">
      <!-- $\mathdefault{0.4}$ -->
      <g transform="translate(196.908581 410.049105)scale(0.1 -0.1)">
       <defs>
        <path d="M 33.59375 64.796875 
C 33.59375 66.890625 33.5 67 31.703125 67 
L 2 19.59375 
L 2 17 
L 27.796875 17 
L 27.796875 7.1875 
C 27.796875 3.59375 27.59375 2.59375 20.59375 2.59375 
L 18.703125 2.59375 
L 18.703125 0 
C 21.90625 0.1875 27.296875 0.1875 30.703125 0.1875 
C 34.09375 0.1875 39.5 0.1875 42.703125 0 
L 42.703125 2.59375 
L 40.796875 2.59375 
C 33.796875 2.59375 33.59375 3.59375 33.59375 7.1875 
L 33.59375 17 
L 43.796875 17 
L 43.796875 19.59375 
L 33.59375 19.59375 
z
M 28.09375 58.171875 
L 28.09375 19.59375 
L 4 19.59375 
z
" id="CMR17-52"/>
       </defs>
       <use transform="scale(0.996264)" xlink:href="#CMR17-48"/>
       <use transform="translate(45.690477 0)scale(0.996264)" xlink:href="#CMMI12-58"/>
       <use transform="translate(72.787654 0)scale(0.996264)" xlink:href="#CMR17-52"/>
      </g>
     </g>
    </g>
    <g id="xtick_4">
     <g id="line2d_7">
      <path clip-path="url(#pc076e7e2b3)" d="M 272.343422 396.960822 
L 272.343422 23.550058 
" style="fill:none;stroke:#b0b0b0;stroke-dasharray:0.8,1.32;stroke-dashoffset:0;stroke-width:0.8;"/>
     </g>
     <g id="line2d_8">
      <g>
       <use style="stroke:#000000;stroke-width:0.8;" x="272.343422" xlink:href="#m9dfe0f0a3a" y="396.960822"/>
      </g>
     </g>
     <g id="text_4">
      <!-- $\mathdefault{0.6}$ -->
      <g transform="translate(265.978383 410.049105)scale(0.1 -0.1)">
       <defs>
        <path d="M 10.59375 34.34375 
C 10.59375 58 21.796875 63.6875 28.296875 63.6875 
C 30.40625 63.6875 35.5 63.265625 37.5 59.09375 
C 35.90625 59.09375 32.90625 59.09375 32.90625 55.59375 
C 32.90625 52.890625 35.09375 52 36.5 52 
C 37.40625 52 40.09375 52.390625 40.09375 55.796875 
C 40.09375 62.296875 35.09375 66 28.203125 66 
C 16.296875 66 3.796875 53.296875 3.796875 31.421875 
C 3.796875 4.015625 15.09375 -2 23.09375 -2 
C 32.796875 -2 42 6.734375 42 20.234375 
C 42 32.828125 33.90625 42 23.703125 42 
C 17.59375 42 13.09375 37.96875 10.59375 30.921875 
z
M 23.09375 0.390625 
C 10.796875 0.390625 10.796875 18.9375 10.796875 22.65625 
C 10.796875 29.90625 14.203125 40.390625 23.5 40.390625 
C 25.203125 40.390625 30.09375 40.390625 33.40625 33.4375 
C 35.203125 29.515625 35.203125 25.375 35.203125 20.34375 
C 35.203125 14.90625 35.203125 10.875 33.09375 6.84375 
C 30.90625 2.703125 27.703125 0.390625 23.09375 0.390625 
z
" id="CMR17-54"/>
       </defs>
       <use transform="scale(0.996264)" xlink:href="#CMR17-48"/>
       <use transform="translate(45.690477 0)scale(0.996264)" xlink:href="#CMMI12-58"/>
       <use transform="translate(72.787654 0)scale(0.996264)" xlink:href="#CMR17-54"/>
      </g>
     </g>
    </g>
    <g id="xtick_5">
     <g id="line2d_9">
      <path clip-path="url(#pc076e7e2b3)" d="M 341.413224 396.960822 
L 341.413224 23.550058 
" style="fill:none;stroke:#b0b0b0;stroke-dasharray:0.8,1.32;stroke-dashoffset:0;stroke-width:0.8;"/>
     </g>
     <g id="line2d_10">
      <g>
       <use style="stroke:#000000;stroke-width:0.8;" x="341.413224" xlink:href="#m9dfe0f0a3a" y="396.960822"/>
      </g>
     </g>
     <g id="text_5">
      <!-- $\mathdefault{0.8}$ -->
      <g transform="translate(335.048185 410.049105)scale(0.1 -0.1)">
       <defs>
        <path d="M 27.203125 35.765625 
C 33.5 38.96875 39.90625 43.796875 39.90625 51.53125 
C 39.90625 60.6875 31.09375 66 23 66 
C 13.90625 66 5.90625 59.375 5.90625 50.234375 
C 5.90625 47.71875 6.5 43.390625 10.40625 39.578125 
C 11.40625 38.578125 15.59375 35.5625 18.296875 33.65625 
C 13.796875 31.34375 3.296875 25.8125 3.296875 14.765625 
C 3.296875 4.40625 13.09375 -2 22.796875 -2 
C 33.5 -2 42.5 5.71875 42.5 15.96875 
C 42.5 25.109375 36.40625 29.328125 32.40625 32.046875 
z
M 14.09375 44.609375 
C 13.296875 45.109375 9.296875 48.21875 9.296875 52.9375 
C 9.296875 59.078125 15.59375 63.6875 22.796875 63.6875 
C 30.703125 63.6875 36.5 58.0625 36.5 51.53125 
C 36.5 42.1875 26.09375 36.859375 25.59375 36.859375 
C 25.5 36.859375 25.40625 36.859375 24.59375 37.46875 
z
M 32.5 24 
C 34 22.90625 38.796875 19.578125 38.796875 13.453125 
C 38.796875 6.015625 31.40625 0.390625 23 0.390625 
C 13.90625 0.390625 7 6.921875 7 14.859375 
C 7 22.796875 13.09375 29.4375 20 32.546875 
z
" id="CMR17-56"/>
       </defs>
       <use transform="scale(0.996264)" xlink:href="#CMR17-48"/>
       <use transform="translate(45.690477 0)scale(0.996264)" xlink:href="#CMMI12-58"/>
       <use transform="translate(72.787654 0)scale(0.996264)" xlink:href="#CMR17-56"/>
      </g>
     </g>
    </g>
    <g id="xtick_6">
     <g id="line2d_11">
      <path clip-path="url(#pc076e7e2b3)" d="M 410.483026 396.960822 
L 410.483026 23.550058 
" style="fill:none;stroke:#b0b0b0;stroke-dasharray:0.8,1.32;stroke-dashoffset:0;stroke-width:0.8;"/>
     </g>
     <g id="line2d_12">
      <g>
       <use style="stroke:#000000;stroke-width:0.8;" x="410.483026" xlink:href="#m9dfe0f0a3a" y="396.960822"/>
      </g>
     </g>
     <g id="text_6">
      <!-- $\mathdefault{1.0}$ -->
      <g transform="translate(404.117986 410.049105)scale(0.1 -0.1)">
       <defs>
        <path d="M 26.59375 63.796875 
C 26.59375 65.890625 26.5 66 25.09375 66 
C 21.203125 61.359375 15.296875 59.890625 9.703125 59.6875 
C 9.40625 59.6875 8.90625 59.6875 8.796875 59.5 
C 8.703125 59.296875 8.703125 59.09375 8.703125 57 
C 11.796875 57 17 57.59375 21 59.984375 
L 21 7.296875 
C 21 3.796875 20.796875 2.59375 12.203125 2.59375 
L 9.203125 2.59375 
L 9.203125 0 
C 14 0.09375 19 0.1875 23.796875 0.1875 
C 28.59375 0.1875 33.59375 0.09375 38.40625 0 
L 38.40625 2.59375 
L 35.40625 2.59375 
C 26.796875 2.59375 26.59375 3.6875 26.59375 7.296875 
z
" id="CMR17-49"/>
       </defs>
       <use transform="scale(0.996264)" xlink:href="#CMR17-49"/>
       <use transform="translate(45.690477 0)scale(0.996264)" xlink:href="#CMMI12-58"/>
       <use transform="translate(72.787654 0)scale(0.996264)" xlink:href="#CMR17-48"/>
      </g>
     </g>
    </g>
    <g id="text_7">
     <!-- $kh \: / \: \pi$ -->
     <g transform="translate(215.825574 428.965398)scale(0.17 -0.17)">
      <defs>
       <path d="M 28.09375 66.484375 
C 28.203125 66.890625 28.40625 67.484375 28.40625 67.984375 
C 28.40625 69 27.40625 69 27.203125 69 
C 27.09375 69 23.5 68.6875 21.703125 68.484375 
C 20 68.390625 18.5 68.1875 16.703125 68.09375 
C 14.296875 67.890625 13.59375 67.796875 13.59375 65.984375 
C 13.59375 64.984375 14.59375 64.984375 15.59375 64.984375 
C 20.703125 64.984375 20.703125 64.109375 20.703125 63.125 
C 20.703125 62.71875 20.703125 62.53125 20.203125 60.75 
L 5.90625 3.90625 
C 5.5 2.390625 5.5 2.203125 5.5 1.59375 
C 5.5 -0.609375 7.203125 -1 8.203125 -1 
C 11 -1 11.59375 1.1875 12.40625 4.296875 
L 17.09375 23.0625 
C 24.296875 22.265625 28.59375 19.25 28.59375 14.4375 
C 28.59375 13.828125 28.59375 13.4375 28.296875 11.921875 
C 27.90625 10.421875 27.90625 9.21875 27.90625 8.71875 
C 27.90625 2.890625 31.703125 -1 36.796875 -1 
C 41.40625 -1 43.796875 3.203125 44.59375 4.609375 
C 46.703125 8.3125 48 13.9375 48 14.328125 
C 48 14.828125 47.59375 15.234375 47 15.234375 
C 46.09375 15.234375 46 14.828125 45.59375 13.234375 
C 44.203125 8.015625 42.09375 1 37 1 
C 35 1 33.703125 2 33.703125 5.8125 
C 33.703125 7.71875 34.09375 9.921875 34.5 11.421875 
C 34.90625 13.234375 34.90625 13.328125 34.90625 14.53125 
C 34.90625 20.453125 29.59375 23.765625 20.40625 24.96875 
C 24 27.171875 27.59375 31.078125 29 32.59375 
C 34.703125 38.984375 38.59375 41.984375 43.203125 41.984375 
C 45.5 41.984375 46.09375 41.484375 46.796875 41 
C 43.09375 40.59375 41.703125 37.984375 41.703125 35.984375 
C 41.703125 33.59375 43.59375 32.796875 45 32.796875 
C 47.703125 32.796875 50.09375 35.09375 50.09375 38.296875 
C 50.09375 41.15625 47.796875 44 43.296875 44 
C 37.796875 44 33.296875 40.296875 26.203125 32.296875 
C 25.203125 31.078125 21.5 27.28125 17.796875 25.875 
z
" id="CMMI12-107"/>
       <path d="M 28.09375 66.484375 
C 28.203125 66.890625 28.40625 67.484375 28.40625 67.984375 
C 28.40625 69 27.40625 69 27.203125 69 
C 27.09375 69 22.203125 68.59375 21.703125 68.484375 
C 20 68.390625 18.5 68.1875 16.703125 68.09375 
C 14.203125 67.890625 13.5 67.796875 13.5 65.984375 
C 13.5 64.984375 14.296875 64.984375 15.703125 64.984375 
C 20.59375 64.984375 20.703125 64.109375 20.703125 63.125 
C 20.703125 62.53125 20.5 61.734375 20.40625 61.4375 
L 5.90625 3.890625 
C 5.5 2.390625 5.5 2.1875 5.5 1.59375 
C 5.5 -0.609375 7.203125 -1 8.203125 -1 
C 9.90625 -1 11.203125 0.296875 11.703125 1.390625 
L 16.203125 19.453125 
C 16.703125 21.640625 17.296875 23.734375 17.796875 25.9375 
C 18.90625 30.125 18.90625 30.21875 20.796875 33.109375 
C 22.703125 36.015625 27.203125 41.984375 34.90625 41.984375 
C 38.90625 41.984375 40.296875 39 40.296875 35.015625 
C 40.296875 29.421875 36.40625 18.546875 34.203125 12.5625 
C 33.296875 10.171875 32.796875 8.875 32.796875 7.078125 
C 32.796875 2.59375 35.90625 -1 40.703125 -1 
C 50 -1 53.5 13.65625 53.5 14.265625 
C 53.5 14.765625 53.09375 15.15625 52.5 15.15625 
C 51.59375 15.15625 51.5 14.859375 51 13.15625 
C 48.703125 5.1875 45 1 41 1 
C 40 1 38.40625 1.09375 38.40625 4.28125 
C 38.40625 6.875 39.59375 10.078125 40 11.171875 
C 41.796875 15.953125 46.296875 27.734375 46.296875 33.515625 
C 46.296875 39.5 42.796875 44 35.203125 44 
C 29.5 44 24.5 41.296875 20.40625 36.109375 
z
" id="CMMI12-104"/>
       <path d="M 42.90625 71.296875 
C 42.90625 71.390625 43.5 72.890625 43.5 73.09375 
C 43.5 74.296875 42.5 75 41.703125 75 
C 41.203125 75 40.296875 75 39.5 72.796875 
L 6 -21.3125 
C 6 -21.40625 5.40625 -22.90625 5.40625 -23.109375 
C 5.40625 -24.3125 6.40625 -25 7.203125 -25 
C 7.796875 -25 8.703125 -24.90625 9.40625 -22.8125 
z
" id="CMMI12-61"/>
       <path d="M 25.90625 37.59375 
L 37.203125 37.59375 
C 34.5 26.421875 32.796875 19.140625 32.796875 11.171875 
C 32.796875 9.765625 32.796875 -1 36.90625 -1 
C 39 -1 40.796875 0.890625 40.796875 2.59375 
C 40.796875 3.09375 40.796875 3.28125 40.09375 4.78125 
C 37.40625 11.65625 37.40625 20.234375 37.40625 20.9375 
C 37.40625 21.53125 37.40625 28.625 39.5 37.59375 
L 50.703125 37.59375 
C 52 37.59375 55.296875 37.59375 55.296875 40.796875 
C 55.296875 43 53.40625 43 51.59375 43 
L 18.703125 43 
C 16.40625 43 13 43 8.40625 38.09375 
C 5.796875 35.203125 2.59375 29.921875 2.59375 29.3125 
C 2.59375 28.71875 3.09375 28.515625 3.703125 28.515625 
C 4.40625 28.515625 4.5 28.8125 5 29.421875 
C 10.203125 37.59375 15.40625 37.59375 17.90625 37.59375 
L 23.59375 37.59375 
C 21.40625 30.109375 18.90625 21.4375 10.703125 3.984375 
C 9.90625 2.390625 9.90625 2.1875 9.90625 1.59375 
C 9.90625 -0.5 11.703125 -1 12.59375 -1 
C 15.5 -1 16.296875 1.59375 17.5 5.78125 
C 19.09375 10.859375 19.09375 11.0625 20.09375 15.0625 
z
" id="CMMI12-25"/>
      </defs>
      <use transform="scale(0.996264)" xlink:href="#CMMI12-107"/>
      <use transform="translate(54.079201 0)scale(0.996264)" xlink:href="#CMMI12-104"/>
      <use transform="translate(132.373032 0)scale(0.996264)" xlink:href="#CMMI12-61"/>
      <use transform="translate(203.287157 0)scale(0.996264)" xlink:href="#CMMI12-25"/>
     </g>
    </g>
   </g>
   <g id="matplotlib.axis_2">
    <g id="ytick_1">
     <g id="line2d_13">
      <path clip-path="url(#pc076e7e2b3)" d="M 47.866567 382.929944 
L 427.750476 382.929944 
" style="fill:none;stroke:#b0b0b0;stroke-dasharray:0.8,1.32;stroke-dashoffset:0;stroke-width:0.8;"/>
     </g>
     <g id="line2d_14">
      <defs>
       <path d="M 0 0 
L -3.5 0 
" id="m35d5ff285c" style="stroke:#000000;stroke-width:0.8;"/>
      </defs>
      <g>
       <use style="stroke:#000000;stroke-width:0.8;" x="47.866567" xlink:href="#m35d5ff285c" y="382.929944"/>
      </g>
     </g>
     <g id="text_8">
      <!-- $\mathdefault{0.0}$ -->
      <g transform="translate(28.136488 385.974085)scale(0.1 -0.1)">
       <use transform="scale(0.996264)" xlink:href="#CMR17-48"/>
       <use transform="translate(45.690477 0)scale(0.996264)" xlink:href="#CMMI12-58"/>
       <use transform="translate(72.787654 0)scale(0.996264)" xlink:href="#CMR17-48"/>
      </g>
     </g>
    </g>
    <g id="ytick_2">
     <g id="line2d_15">
      <path clip-path="url(#pc076e7e2b3)" d="M 47.866567 313.860142 
L 427.750476 313.860142 
" style="fill:none;stroke:#b0b0b0;stroke-dasharray:0.8,1.32;stroke-dashoffset:0;stroke-width:0.8;"/>
     </g>
     <g id="line2d_16">
      <g>
       <use style="stroke:#000000;stroke-width:0.8;" x="47.866567" xlink:href="#m35d5ff285c" y="313.860142"/>
      </g>
     </g>
     <g id="text_9">
      <!-- $\mathdefault{0.2}$ -->
      <g transform="translate(28.136488 316.904284)scale(0.1 -0.1)">
       <use transform="scale(0.996264)" xlink:href="#CMR17-48"/>
       <use transform="translate(45.690477 0)scale(0.996264)" xlink:href="#CMMI12-58"/>
       <use transform="translate(72.787654 0)scale(0.996264)" xlink:href="#CMR17-50"/>
      </g>
     </g>
    </g>
    <g id="ytick_3">
     <g id="line2d_17">
      <path clip-path="url(#pc076e7e2b3)" d="M 47.866567 244.79034 
L 427.750476 244.79034 
" style="fill:none;stroke:#b0b0b0;stroke-dasharray:0.8,1.32;stroke-dashoffset:0;stroke-width:0.8;"/>
     </g>
     <g id="line2d_18">
      <g>
       <use style="stroke:#000000;stroke-width:0.8;" x="47.866567" xlink:href="#m35d5ff285c" y="244.79034"/>
      </g>
     </g>
     <g id="text_10">
      <!-- $\mathdefault{0.4}$ -->
      <g transform="translate(28.136488 247.834482)scale(0.1 -0.1)">
       <use transform="scale(0.996264)" xlink:href="#CMR17-48"/>
       <use transform="translate(45.690477 0)scale(0.996264)" xlink:href="#CMMI12-58"/>
       <use transform="translate(72.787654 0)scale(0.996264)" xlink:href="#CMR17-52"/>
      </g>
     </g>
    </g>
    <g id="ytick_4">
     <g id="line2d_19">
      <path clip-path="url(#pc076e7e2b3)" d="M 47.866567 175.720539 
L 427.750476 175.720539 
" style="fill:none;stroke:#b0b0b0;stroke-dasharray:0.8,1.32;stroke-dashoffset:0;stroke-width:0.8;"/>
     </g>
     <g id="line2d_20">
      <g>
       <use style="stroke:#000000;stroke-width:0.8;" x="47.866567" xlink:href="#m35d5ff285c" y="175.720539"/>
      </g>
     </g>
     <g id="text_11">
      <!-- $\mathdefault{0.6}$ -->
      <g transform="translate(28.136488 178.76468)scale(0.1 -0.1)">
       <use transform="scale(0.996264)" xlink:href="#CMR17-48"/>
       <use transform="translate(45.690477 0)scale(0.996264)" xlink:href="#CMMI12-58"/>
       <use transform="translate(72.787654 0)scale(0.996264)" xlink:href="#CMR17-54"/>
      </g>
     </g>
    </g>
    <g id="ytick_5">
     <g id="line2d_21">
      <path clip-path="url(#pc076e7e2b3)" d="M 47.866567 106.650737 
L 427.750476 106.650737 
" style="fill:none;stroke:#b0b0b0;stroke-dasharray:0.8,1.32;stroke-dashoffset:0;stroke-width:0.8;"/>
     </g>
     <g id="line2d_22">
      <g>
       <use style="stroke:#000000;stroke-width:0.8;" x="47.866567" xlink:href="#m35d5ff285c" y="106.650737"/>
      </g>
     </g>
     <g id="text_12">
      <!-- $\mathdefault{0.8}$ -->
      <g transform="translate(28.136488 109.694879)scale(0.1 -0.1)">
       <use transform="scale(0.996264)" xlink:href="#CMR17-48"/>
       <use transform="translate(45.690477 0)scale(0.996264)" xlink:href="#CMMI12-58"/>
       <use transform="translate(72.787654 0)scale(0.996264)" xlink:href="#CMR17-56"/>
      </g>
     </g>
    </g>
    <g id="ytick_6">
     <g id="line2d_23">
      <path clip-path="url(#pc076e7e2b3)" d="M 47.866567 37.580936 
L 427.750476 37.580936 
" style="fill:none;stroke:#b0b0b0;stroke-dasharray:0.8,1.32;stroke-dashoffset:0;stroke-width:0.8;"/>
     </g>
     <g id="line2d_24">
      <g>
       <use style="stroke:#000000;stroke-width:0.8;" x="47.866567" xlink:href="#m35d5ff285c" y="37.580936"/>
      </g>
     </g>
     <g id="text_13">
      <!-- $\mathdefault{1.0}$ -->
      <g transform="translate(28.136488 40.625077)scale(0.1 -0.1)">
       <use transform="scale(0.996264)" xlink:href="#CMR17-49"/>
       <use transform="translate(45.690477 0)scale(0.996264)" xlink:href="#CMMI12-58"/>
       <use transform="translate(72.787654 0)scale(0.996264)" xlink:href="#CMR17-48"/>
      </g>
     </g>
    </g>
    <g id="text_14">
     <!-- $c^* / \: c$ -->
     <g transform="translate(19.902366 226.633224)rotate(-90)scale(0.17 -0.17)">
      <defs>
       <path d="M 39.09375 38 
C 37.203125 38 36.296875 38 34.90625 36.796875 
C 34.296875 36.296875 33.203125 34.796875 33.203125 33.1875 
C 33.203125 31.1875 34.703125 29.984375 36.59375 29.984375 
C 39 29.984375 41.703125 31.984375 41.703125 35.984375 
C 41.703125 40.484375 37.09375 44 30.203125 44 
C 17.09375 44 4 30.1875 4 15.796875 
C 4 6.96875 9.40625 -1 19.59375 -1 
C 33.203125 -1 41.796875 9.71875 41.796875 11.03125 
C 41.796875 11.640625 41.203125 12.140625 40.796875 12.140625 
C 40.5 12.140625 40.40625 12.046875 39.5 11.125 
C 33.09375 2.515625 23.59375 1 19.796875 1 
C 12.90625 1 10.703125 7.078125 10.703125 12.140625 
C 10.703125 15.6875 12.40625 25.53125 16 32.390625 
C 18.59375 37.09375 24 41.984375 30.296875 41.984375 
C 31.59375 41.984375 37.09375 41.8125 39.09375 38 
z
" id="CMMI12-99"/>
       <path d="M 27.5 43.15625 
C 27.59375 44.578125 27.59375 47 25 47 
C 23.40625 47 22.09375 45.6875 22.40625 44.375 
L 22.40625 43.046875 
L 23.796875 27.1875 
L 11 36.703125 
C 10.09375 37.21875 9.90625 37.421875 9.203125 37.421875 
C 7.796875 37.421875 6.5 35.984375 6.5 34.5625 
C 6.5 32.921875 7.5 32.515625 8.5 32 
L 22.703125 25.046875 
L 8.90625 18.1875 
C 7.296875 17.375 6.5 16.953125 6.5 15.421875 
C 6.5 13.890625 7.796875 12.5625 9.203125 12.5625 
C 9.90625 12.5625 10.09375 12.5625 12.59375 14.5 
L 23.796875 22.796875 
L 22.296875 5.609375 
C 22.296875 3.5 24.09375 3 24.90625 3 
C 26.09375 3 27.59375 3.6875 27.59375 5.609375 
L 26.09375 22.796875 
L 38.90625 13.28125 
C 39.796875 12.765625 40 12.5625 40.703125 12.5625 
C 42.09375 12.5625 43.40625 14 43.40625 15.421875 
C 43.40625 16.953125 42.5 17.46875 41.296875 18.078125 
C 35.296875 21.15625 35.09375 21.15625 27.203125 24.9375 
L 41 31.796875 
C 42.59375 32.609375 43.40625 33.015625 43.40625 34.5625 
C 43.40625 36.09375 42.09375 37.421875 40.703125 37.421875 
C 40 37.421875 39.796875 37.421875 37.296875 35.484375 
L 26.09375 27.1875 
z
" id="CMSY10-3"/>
      </defs>
      <use transform="scale(0.996264)" xlink:href="#CMMI12-99"/>
      <use transform="translate(41.983234 36.153639)scale(0.697382)" xlink:href="#CMSY10-3"/>
      <use transform="translate(77.350576 0)scale(0.996264)" xlink:href="#CMMI12-61"/>
      <use transform="translate(148.264701 0)scale(0.996264)" xlink:href="#CMMI12-99"/>
     </g>
    </g>
   </g>
   <g id="line2d_25">
    <path clip-path="url(#pc076e7e2b3)" d="M 65.134018 37.580936 
L 70.327236 37.70938 
L 75.520454 38.094541 
L 80.713672 38.735903 
L 85.90689 39.632608 
L 91.100108 40.783455 
L 96.293327 42.186905 
L 101.486545 43.841082 
L 106.679763 45.743775 
L 111.872981 47.892441 
L 117.066199 50.284214 
L 122.259417 52.915904 
L 127.452636 55.784003 
L 132.645854 58.884694 
L 137.839072 62.213852 
L 143.897826 66.380712 
L 149.956581 70.844988 
L 156.015335 75.598633 
L 162.07409 80.633093 
L 168.132845 85.939325 
L 175.057135 92.324151 
L 181.981426 99.036595 
L 188.905717 106.06102 
L 195.830008 113.381112 
L 203.619835 121.948504 
L 211.409663 130.843616 
L 220.065026 141.079951 
L 228.72039 151.652352 
L 238.24129 163.625276 
L 248.627726 177.038386 
L 260.745235 193.062836 
L 275.459353 212.914893 
L 300.559908 247.24268 
L 321.33278 275.504238 
L 335.181362 293.987165 
L 347.298871 309.785466 
L 357.685308 322.972415 
L 367.206208 334.721184 
L 376.727108 346.102335 
L 385.382471 356.096645 
L 393.172298 364.780948 
L 400.962126 373.151357 
L 408.751953 381.190222 
L 410.483026 382.929944 
L 410.483026 382.929944 
" style="fill:none;stroke:#1f77b4;stroke-linecap:square;stroke-width:1.5;"/>
   </g>
   <g id="line2d_26">
    <path clip-path="url(#pc076e7e2b3)" d="M 65.134018 37.580936 
L 98.889936 37.682147 
L 111.872981 37.949125 
L 121.393881 38.346448 
L 130.049245 38.923865 
L 137.839072 39.671841 
L 144.763363 40.558428 
L 150.822117 41.534141 
L 156.880872 42.721678 
L 162.939626 44.145327 
L 168.132845 45.57189 
L 173.326063 47.20479 
L 178.519281 49.058776 
L 183.712499 51.148162 
L 188.905717 53.486696 
L 194.098935 56.087441 
L 199.292154 58.962656 
L 204.485372 62.123688 
L 209.67859 65.580859 
L 214.871808 69.34337 
L 220.065026 73.419205 
L 225.258244 77.815049 
L 230.451463 82.536205 
L 235.644681 87.586533 
L 240.837899 92.968387 
L 246.031117 98.682567 
L 251.224335 104.72828 
L 256.417553 111.103115 
L 261.610772 117.803021 
L 266.80399 124.822305 
L 272.862744 133.405254 
L 278.921499 142.398428 
L 284.980253 151.784441 
L 291.904544 162.966234 
L 298.828835 174.599959 
L 305.753126 186.64656 
L 313.542953 200.638602 
L 322.198317 216.652173 
L 332.584753 236.380544 
L 345.567799 261.558253 
L 374.996035 318.819593 
L 385.382471 338.439937 
L 394.037835 354.322134 
L 401.827662 368.157942 
L 408.751953 380.03048 
L 410.483026 382.929944 
L 410.483026 382.929944 
" style="fill:none;stroke:#ff7f0e;stroke-linecap:square;stroke-width:1.5;"/>
   </g>
   <g id="line2d_27">
    <path clip-path="url(#pc076e7e2b3)" d="M 65.134018 37.580936 
L 130.914781 37.686573 
L 146.494435 37.945402 
L 157.746408 38.349154 
L 167.267308 38.922104 
L 175.057135 39.61065 
L 181.981426 40.435927 
L 188.040181 41.3579 
L 194.098935 42.49932 
L 199.292154 43.677762 
L 204.485372 45.064286 
L 209.67859 46.68185 
L 214.871808 48.553958 
L 219.19949 50.325662 
L 223.527172 52.304481 
L 227.854853 54.504143 
L 232.182535 56.938175 
L 236.510217 59.619784 
L 240.837899 62.561735 
L 245.165581 65.776225 
L 249.493262 69.274764 
L 253.820944 73.068046 
L 258.148626 77.165836 
L 262.476308 81.576844 
L 266.80399 86.30862 
L 271.131671 91.367443 
L 275.459353 96.758221 
L 279.787035 102.4844 
L 284.114717 108.547884 
L 288.442399 114.948957 
L 293.635617 123.073785 
L 298.828835 131.676956 
L 304.022053 140.749112 
L 309.215271 150.277179 
L 314.40849 160.244367 
L 320.467244 172.400229 
L 326.525999 185.087053 
L 332.584753 198.259715 
L 339.509044 213.84319 
L 347.298871 231.946514 
L 356.819771 254.705056 
L 369.802817 286.399801 
L 388.844617 332.853377 
L 397.49998 353.401632 
L 405.289807 371.339844 
L 410.483026 382.929944 
L 410.483026 382.929944 
" style="fill:none;stroke:#2ca02c;stroke-linecap:square;stroke-width:1.5;"/>
   </g>
   <g id="line2d_28">
    <path clip-path="url(#pc076e7e2b3)" d="M 65.134018 37.580936 
L 117.931736 37.685874 
L 136.973536 37.949119 
L 151.687654 38.374694 
L 163.805163 38.951352 
L 174.191599 39.66957 
L 183.712499 40.562311 
L 192.367863 41.615069 
L 200.15769 42.799206 
L 207.081981 44.073006 
L 214.006272 45.587537 
L 220.065026 47.137581 
L 226.123781 48.924436 
L 231.316999 50.665855 
L 236.510217 52.621254 
L 241.703435 54.811347 
L 246.896653 57.25832 
L 252.089872 59.985854 
L 256.417553 62.491239 
L 260.745235 65.224274 
L 265.072917 68.201003 
L 269.400599 71.438122 
L 273.728281 74.952928 
L 278.055962 78.763246 
L 282.383644 82.887332 
L 286.711326 87.343762 
L 291.039008 92.151277 
L 295.36669 97.328613 
L 299.694371 102.89428 
L 304.022053 108.866318 
L 308.349735 115.262011 
L 312.677417 122.09755 
L 317.005099 129.387673 
L 321.33278 137.145249 
L 325.660462 145.380839 
L 329.988144 154.102212 
L 334.315826 163.313854 
L 338.643508 173.016445 
L 342.971189 183.206351 
L 348.164408 196.065225 
L 353.357626 209.588664 
L 358.550844 223.740011 
L 364.609598 240.97698 
L 370.668353 258.900056 
L 377.592644 280.062356 
L 387.113544 309.941239 
L 404.424271 364.466506 
L 410.483026 382.929944 
L 410.483026 382.929944 
" style="fill:none;stroke:#ff7f0e;stroke-dasharray:5.55,2.4;stroke-dashoffset:0;stroke-width:1.5;"/>
   </g>
   <g id="line2d_29">
    <path clip-path="url(#pc076e7e2b3)" d="M 65.134018 37.580936 
L 165.536235 37.686391 
L 187.174644 37.938127 
L 201.888763 38.316472 
L 214.006272 38.85011 
L 223.527172 39.479501 
L 232.182535 40.272542 
L 239.972362 41.220692 
L 246.896653 42.298439 
L 252.955408 43.46309 
L 259.014162 44.875324 
L 264.207381 46.317061 
L 269.400599 48.006565 
L 273.728281 49.630207 
L 278.055962 51.475165 
L 282.383644 53.567543 
L 286.711326 55.935943 
L 291.039008 58.611595 
L 294.501153 60.996058 
L 297.963299 63.617495 
L 301.425444 66.495712 
L 304.88759 69.651639 
L 308.349735 73.107303 
L 311.81188 76.885759 
L 315.274026 81.010998 
L 318.736171 85.507815 
L 322.198317 90.401634 
L 325.660462 95.718281 
L 329.122608 101.483703 
L 332.584753 107.72362 
L 336.046899 114.463119 
L 339.509044 121.726163 
L 342.971189 129.535035 
L 346.433335 137.909711 
L 349.89548 146.867151 
L 353.357626 156.420544 
L 356.819771 166.578498 
L 360.281917 177.344197 
L 363.744062 188.714569 
L 368.071744 203.761662 
L 372.399426 219.699959 
L 376.727108 236.471362 
L 381.920326 257.582138 
L 387.97908 283.335394 
L 395.768907 317.652032 
L 410.483026 382.929944 
L 410.483026 382.929944 
" style="fill:none;stroke:#2ca02c;stroke-dasharray:5.55,2.4;stroke-dashoffset:0;stroke-width:1.5;"/>
   </g>
   <g id="line2d_30">
    <path clip-path="url(#pc076e7e2b3)" d="M 65.134018 37.580936 
L 410.483026 37.580936 
L 410.483026 37.580936 
" style="fill:none;stroke:#808080;stroke-linecap:square;stroke-width:1.5;"/>
   </g>
   <g id="patch_3">
    <path d="M 47.866567 396.960822 
L 47.866567 23.550058 
" style="fill:none;stroke:#000000;stroke-linecap:square;stroke-linejoin:miter;stroke-width:0.8;"/>
   </g>
   <g id="patch_4">
    <path d="M 427.750476 396.960822 
L 427.750476 23.550058 
" style="fill:none;stroke:#000000;stroke-linecap:square;stroke-linejoin:miter;stroke-width:0.8;"/>
   </g>
   <g id="patch_5">
    <path d="M 47.866567 396.960822 
L 427.750476 396.960822 
" style="fill:none;stroke:#000000;stroke-linecap:square;stroke-linejoin:miter;stroke-width:0.8;"/>
   </g>
   <g id="patch_6">
    <path d="M 47.866567 23.550058 
L 427.750476 23.550058 
" style="fill:none;stroke:#000000;stroke-linecap:square;stroke-linejoin:miter;stroke-width:0.8;"/>
   </g>
   <g id="text_15">
    <!-- Phase velocity -->
    <g transform="translate(176.801929 17.550058)scale(0.17 -0.17)">
     <defs>
      <path d="M 16.09375 25 
L 28.5 25 
C 40.09375 25 47.09375 34.15625 47.09375 42.9375 
C 47.09375 52.125 39.90625 61 28.5 61 
L 6.90625 61 
C 5.5 61 2.796875 61 2.796875 58.09375 
C 2.796875 55.1875 5.5 55.1875 6.90625 55.1875 
L 9.59375 55.1875 
L 9.59375 5.796875 
L 6.90625 5.796875 
C 5.5 5.796875 2.796875 5.796875 2.796875 2.890625 
C 2.796875 0 5.5 0 6.90625 0 
L 18.796875 0 
C 20.203125 0 22.90625 0 22.90625 2.890625 
C 22.90625 5.796875 20.203125 5.796875 18.796875 5.796875 
L 16.09375 5.796875 
z
M 16.09375 55.1875 
L 26.703125 55.1875 
C 36.296875 55.1875 40.59375 48.28125 40.59375 43.046875 
C 40.59375 37.40625 36.09375 30.796875 26.703125 30.796875 
L 16.09375 30.796875 
z
" id="CMTT12-80"/>
      <path d="M 41.796875 29.515625 
C 41.796875 39.390625 37.203125 44 29 44 
C 22.203125 44 17.796875 40.1875 16.09375 38.296875 
L 16.09375 56.890625 
C 16.09375 59.984375 15.5 61 12.09375 61 
L 5.5 61 
C 4.09375 61 1.5 61 1.5 58.09375 
C 1.5 55.1875 4.09375 55.1875 5.5 55.1875 
L 9.59375 55.1875 
L 9.59375 5.796875 
L 5.5 5.796875 
C 4.09375 5.796875 1.5 5.796875 1.5 2.890625 
C 1.5 0 4.09375 0 5.5 0 
L 20.203125 0 
C 21.59375 0 24.203125 0 24.203125 2.890625 
C 24.203125 5.796875 21.59375 5.796875 20.203125 5.796875 
L 16.09375 5.796875 
L 16.09375 24.0625 
C 16.09375 33.859375 22.90625 38.1875 28.296875 38.1875 
C 34.09375 38.1875 35.296875 34.859375 35.296875 29.109375 
L 35.296875 5.796875 
L 31.203125 5.796875 
C 29.796875 5.796875 27.203125 5.796875 27.203125 2.890625 
C 27.203125 0 29.796875 0 31.203125 0 
L 45.90625 0 
C 47.296875 0 49.90625 0 49.90625 2.890625 
C 49.90625 5.796875 47.296875 5.796875 45.90625 5.796875 
L 41.796875 5.796875 
z
" id="CMTT12-104"/>
      <path d="M 41.40625 28.578125 
C 41.40625 36.03125 35.703125 44 22.203125 44 
C 18 44 8.296875 44 8.296875 37.109375 
C 8.296875 34.46875 10.203125 33 12.40625 33 
C 13 33 16.296875 33.1875 16.40625 37.3125 
C 16.40625 37.796875 16.5 37.890625 18.59375 38.09375 
C 19.796875 38.1875 21.09375 38.1875 22.296875 38.1875 
C 24.59375 38.1875 28 38.1875 31.296875 35.734375 
C 34.90625 33 34.90625 30.25 34.90625 27.390625 
C 29 27.1875 23.203125 26.796875 17 24.796875 
C 12 23.09375 5.59375 19.40625 5.59375 12.359375 
C 5.59375 5 11.90625 -1 21.203125 -1 
C 24.40625 -1 30.59375 -0.5 35.796875 3.09375 
C 37.796875 -0.203125 42.796875 -0.40625 46.59375 -0.40625 
C 49 -0.40625 51.40625 -0.40625 51.40625 2.5 
C 51.40625 5.421875 48.796875 5.421875 47.40625 5.421875 
C 44.796875 5.421875 42.796875 5.625 41.40625 6.25 
z
M 34.90625 13.078125 
C 34.90625 10.703125 34.90625 8.515625 30.796875 6.546875 
C 27.296875 4.796875 22.59375 4.796875 22.296875 4.796875 
C 16.40625 4.796875 12.09375 8.109375 12.09375 12.359375 
C 12.09375 18.46875 22.796875 22 34.90625 22 
z
" id="CMTT12-97"/>
      <path d="M 42 40.1875 
C 42 41.796875 42 44 39.203125 44 
C 36.796875 44 36.203125 41.6875 36.203125 41.59375 
C 32.203125 44 27.59375 44 25.59375 44 
C 9.296875 44 7.09375 35.65625 7.09375 32.21875 
C 7.09375 28.078125 9.5 25.234375 12.90625 23.3125 
C 16.09375 21.5 19 20.984375 27.203125 19.671875 
C 31.09375 18.96875 39.09375 17.640625 39.09375 12.078125 
C 39.09375 8.328125 35.703125 4.796875 26.40625 4.796875 
C 20 4.796875 15.796875 7.328125 13.703125 14.609375 
C 13.203125 16.03125 12.90625 17.140625 10.40625 17.140625 
C 7.09375 17.140625 7.09375 15.21875 7.09375 13.1875 
L 7.09375 2.796875 
C 7.09375 1.1875 7.09375 -1 9.90625 -1 
C 11.09375 -1 12 -1 13.5 3.09375 
C 18.09375 -0.703125 23.296875 -1 26.40625 -1 
C 44.90625 -1 44.90625 11.0625 44.90625 12.078125 
C 44.90625 22.609375 32.5 24.734375 27.703125 25.4375 
C 18.90625 26.953125 12.90625 27.96875 12.90625 32.21875 
C 12.90625 34.953125 16 38.1875 25.40625 38.1875 
C 34.90625 38.1875 35.296875 33.640625 35.5 31 
C 35.703125 28.984375 37.5 28.671875 38.703125 28.671875 
C 42 28.671875 42 30.5 42 32.53125 
z
" id="CMTT12-115"/>
      <path d="M 41.59375 19 
C 43.703125 19 45.59375 19 45.59375 22.6875 
C 45.59375 34.53125 39 44 26.5 44 
C 14.90625 44 5.59375 33.921875 5.59375 21.59375 
C 5.59375 8.84375 15.703125 -1 28 -1 
C 40.90625 -1 45.59375 7.9375 45.59375 10.578125 
C 45.59375 11.1875 45.40625 13.40625 42.296875 13.40625 
C 40.40625 13.40625 39.796875 12.703125 39.203125 11.1875 
C 36.703125 5.296875 30.203125 4.796875 28.296875 4.796875 
C 20 4.796875 13.40625 11.1875 12.296875 19 
z
M 12.40625 24.5 
C 13.703125 33.125 20.203125 38.1875 26.5 38.1875 
C 36.5 38.1875 38.59375 29.5625 39 24.5 
z
" id="CMTT12-101"/>
      <path d="M 42.40625 37.1875 
L 45 37.1875 
C 46.40625 37.1875 49.09375 37.1875 49.09375 40.09375 
C 49.09375 43 46.40625 43 45 43 
L 34 43 
C 32.59375 43 29.90625 43 29.90625 40.09375 
C 29.90625 37.1875 32.59375 37.1875 34 37.1875 
L 36.5 37.1875 
L 25.703125 4.625 
L 14.90625 37.1875 
L 17.40625 37.1875 
C 18.796875 37.1875 21.5 37.1875 21.5 40.09375 
C 21.5 43 18.796875 43 17.40625 43 
L 6.40625 43 
C 5 43 2.296875 43 2.296875 40.09375 
C 2.296875 37.1875 5 37.1875 6.40625 37.1875 
L 9 37.1875 
L 20.5 2.40625 
C 21.59375 -1 23.796875 -1 25.703125 -1 
C 27.59375 -1 29.796875 -1 30.90625 2.40625 
z
" id="CMTT12-118"/>
      <path d="M 29 56.890625 
C 29 59.984375 28.40625 61 25 61 
L 10.296875 61 
C 8.90625 61 6.296875 61 6.296875 58.09375 
C 6.296875 55.1875 8.90625 55.1875 10.296875 55.1875 
L 22.5 55.1875 
L 22.5 5.796875 
L 10.296875 5.796875 
C 8.90625 5.796875 6.296875 5.796875 6.296875 2.890625 
C 6.296875 0 8.90625 0 10.296875 0 
L 41.203125 0 
C 42.59375 0 45.203125 0 45.203125 2.890625 
C 45.203125 5.796875 42.59375 5.796875 41.203125 5.796875 
L 29 5.796875 
z
" id="CMTT12-108"/>
      <path d="M 45.59375 21.390625 
C 45.59375 34.046875 36.5 44 25.703125 44 
C 14.90625 44 5.796875 34.046875 5.796875 21.390625 
C 5.796875 8.640625 15 -1 25.703125 -1 
C 36.40625 -1 45.59375 8.640625 45.59375 21.390625 
z
M 25.703125 4.796875 
C 18.5 4.796875 12.296875 12.484375 12.296875 22.09375 
C 12.296875 31.515625 18.703125 38.1875 25.703125 38.1875 
C 32.703125 38.1875 39.09375 31.515625 39.09375 22.09375 
C 39.09375 12.390625 32.90625 4.796875 25.703125 4.796875 
z
" id="CMTT12-111"/>
      <path d="M 45.59375 10.5625 
C 45.59375 13.1875 43.09375 13.1875 42.296875 13.1875 
C 40 13.1875 39.59375 12.390625 39.09375 10.96875 
C 36.90625 5.40625 32 4.796875 29.59375 4.796875 
C 21.09375 4.796875 13.90625 11.984375 13.90625 21.390625 
C 13.90625 26.546875 16.796875 38.1875 29.90625 38.1875 
C 32.59375 38.1875 34.703125 37.984375 35.59375 37.890625 
C 36.296875 37.6875 36.40625 37.578125 36.40625 37.078125 
C 36.703125 32.921875 39.796875 32.828125 40.40625 32.828125 
C 42.59375 32.828125 44.5 34.34375 44.5 37.078125 
C 44.5 44 34.40625 44 30 44 
C 12.90625 44 7.40625 29.890625 7.40625 21.390625 
C 7.40625 9.046875 16.703125 -1 28.703125 -1 
C 42.09375 -1 45.59375 8.9375 45.59375 10.5625 
z
" id="CMTT12-99"/>
      <path d="M 30.203125 56.484375 
C 30.203125 58.984375 28.203125 61 25.703125 61 
C 23.203125 61 21.203125 58.984375 21.203125 56.484375 
C 21.203125 53.984375 23.203125 51.984375 25.703125 51.984375 
C 28.203125 51.984375 30.203125 53.984375 30.203125 56.484375 
z
M 13 43 
C 11.59375 43 9 43 9 40.09375 
C 9 37.1875 11.59375 37.1875 13 37.1875 
L 23.703125 37.1875 
L 23.703125 5.796875 
L 12.296875 5.796875 
C 10.90625 5.796875 8.203125 5.796875 8.203125 2.890625 
C 8.203125 0 10.90625 0 12.296875 0 
L 40.09375 0 
C 41.5 0 44.09375 0 44.09375 2.890625 
C 44.09375 5.796875 41.5 5.796875 40.09375 5.796875 
L 30.203125 5.796875 
L 30.203125 38.890625 
C 30.203125 41.984375 29.59375 43 26.203125 43 
z
" id="CMTT12-105"/>
      <path d="M 21.59375 37.1875 
L 37.796875 37.1875 
C 39.203125 37.1875 41.796875 37.1875 41.796875 40.09375 
C 41.796875 43 39.203125 43 37.796875 43 
L 21.59375 43 
L 21.59375 50.953125 
C 21.59375 52.703125 21.59375 55 18.40625 55 
C 15.09375 55 15.09375 52.703125 15.09375 50.953125 
L 15.09375 43 
L 6.59375 43 
C 5.203125 43 2.5 43 2.5 40.09375 
C 2.5 37.1875 5.09375 37.1875 6.5 37.1875 
L 15.09375 37.1875 
L 15.09375 11.75 
C 15.09375 2.390625 21.5 -1 28.703125 -1 
C 34.09375 -1 44 1.6875 44 11.953125 
C 44 13.984375 44 16.203125 40.703125 16.203125 
C 37.5 16.203125 37.5 13.984375 37.5 11.859375 
C 37.40625 5.796875 31.703125 4.796875 29.40625 4.796875 
C 21.59375 4.796875 21.59375 9.84375 21.59375 12.265625 
z
" id="CMTT12-116"/>
      <path d="M 42.40625 37.1875 
L 45 37.1875 
C 46.40625 37.1875 49.09375 37.1875 49.09375 40.09375 
C 49.09375 43 46.40625 43 45 43 
L 34 43 
C 32.59375 43 29.90625 43 29.90625 40.09375 
C 29.90625 37.1875 32.59375 37.1875 34 37.1875 
L 36.5 37.1875 
C 33.703125 28.96875 28 12.234375 26.59375 6.53125 
L 26.5 6.53125 
C 26 8.734375 25.59375 9.828125 24.59375 12.546875 
L 15.296875 37.1875 
L 17.59375 37.1875 
C 19 37.1875 21.703125 37.1875 21.703125 40.09375 
C 21.703125 43 19 43 17.59375 43 
L 6.59375 43 
C 5.203125 43 2.5 43 2.5 40.09375 
C 2.5 37.1875 5.203125 37.1875 6.59375 37.1875 
L 9.296875 37.1875 
L 23.296875 1.125 
C 23.703125 0.109375 23.703125 -0.078125 23.703125 -0.1875 
C 23.703125 -0.390625 21.09375 -9.109375 19.59375 -11.90625 
C 19 -12.90625 16.5 -17.609375 11.703125 -17.109375 
C 11.796875 -16.8125 12.09375 -16.203125 12.09375 -15.109375 
C 12.09375 -12.8125 10.5 -11.203125 8.203125 -11.203125 
C 5.703125 -11.203125 4.203125 -12.90625 4.203125 -15.203125 
C 4.203125 -19 7.40625 -23 12.40625 -23 
C 22.09375 -23 26.40625 -10.109375 26.703125 -9.296875 
z
" id="CMTT12-121"/>
     </defs>
     <use transform="scale(0.996264)" xlink:href="#CMTT12-80"/>
     <use transform="translate(51.266111 0)scale(0.996264)" xlink:href="#CMTT12-104"/>
     <use transform="translate(102.532222 0)scale(0.996264)" xlink:href="#CMTT12-97"/>
     <use transform="translate(153.798333 0)scale(0.996264)" xlink:href="#CMTT12-115"/>
     <use transform="translate(205.064443 0)scale(0.996264)" xlink:href="#CMTT12-101"/>
     <use transform="translate(307.596665 0)scale(0.996264)" xlink:href="#CMTT12-118"/>
     <use transform="translate(358.862776 0)scale(0.996264)" xlink:href="#CMTT12-101"/>
     <use transform="translate(410.128887 0)scale(0.996264)" xlink:href="#CMTT12-108"/>
     <use transform="translate(461.394998 0)scale(0.996264)" xlink:href="#CMTT12-111"/>
     <use transform="translate(512.661108 0)scale(0.996264)" xlink:href="#CMTT12-99"/>
     <use transform="translate(563.927219 0)scale(0.996264)" xlink:href="#CMTT12-105"/>
     <use transform="translate(615.19333 0)scale(0.996264)" xlink:href="#CMTT12-116"/>
     <use transform="translate(666.459441 0)scale(0.996264)" xlink:href="#CMTT12-121"/>
    </g>
   </g>
   <g id="legend_1">
    <g id="patch_7">
     <path d="M 58.366567 389.460822 
L 144.816131 389.460822 
Q 147.816131 389.460822 147.816131 386.460822 
L 147.816131 254.171509 
Q 147.816131 251.171509 144.816131 251.171509 
L 58.366567 251.171509 
Q 55.366567 251.171509 55.366567 254.171509 
L 55.366567 386.460822 
Q 55.366567 389.460822 58.366567 389.460822 
z
" style="fill:#ffffff;opacity:0.8;stroke:#cccccc;stroke-linejoin:miter;"/>
    </g>
    <g id="line2d_31">
     <path d="M 61.366567 263.398853 
L 91.366567 263.398853 
" style="fill:none;stroke:#1f77b4;stroke-linecap:square;stroke-width:1.5;"/>
    </g>
    <g id="line2d_32"/>
    <g id="text_16">
     <!-- E2 -->
     <g transform="translate(103.366567 268.648853)scale(0.15 -0.15)">
      <defs>
       <path d="M 16.09375 29 
L 29.296875 29 
C 29.296875 25.453125 29.296875 23.546875 32.59375 23.546875 
C 35.796875 23.546875 35.796875 25.859375 35.796875 27.671875 
L 35.796875 36.078125 
C 35.796875 37.84375 35.796875 40.109375 32.59375 40.109375 
C 29.296875 40.109375 29.296875 38.234375 29.296875 34.796875 
L 16.09375 34.796875 
L 16.09375 55.1875 
L 40.59375 55.1875 
L 40.59375 50.359375 
C 40.59375 48.59375 40.59375 46.328125 43.796875 46.328125 
C 47.09375 46.328125 47.09375 48.484375 47.09375 50.359375 
L 47.09375 56.890625 
C 47.09375 59.984375 46.5 61 43.09375 61 
L 6.90625 61 
C 5.5 61 2.796875 61 2.796875 58.09375 
C 2.796875 55.1875 5.5 55.1875 6.90625 55.1875 
L 9.59375 55.1875 
L 9.59375 5.796875 
L 6.90625 5.796875 
C 5.5 5.796875 2.796875 5.796875 2.796875 2.890625 
C 2.796875 0 5.5 0 6.90625 0 
L 45.296875 0 
C 48.59375 0 49.296875 0.890625 49.296875 4.09375 
L 49.296875 12.25 
C 49.296875 14.0625 49.296875 16.390625 46.09375 16.390625 
C 42.796875 16.390625 42.796875 14.15625 42.796875 12.25 
L 42.796875 5.796875 
L 16.09375 5.796875 
z
" id="CMTT12-69"/>
       <path d="M 34.796875 21.890625 
C 36.203125 23.09375 46.296875 31.640625 46.296875 42.671875 
C 46.296875 54 36.90625 62 24.40625 62 
C 12.796875 62 5.09375 53.3125 5.09375 44.953125 
C 5.09375 40.78125 8.59375 40.484375 9.203125 40.484375 
C 11 40.484375 13.203125 41.875 13.203125 44.5625 
C 13.203125 46.453125 12.5 47.046875 12 47.453125 
C 13.40625 52.71875 18 56.1875 23.796875 56.1875 
C 32.296875 56.1875 39.796875 51.328125 39.796875 42.671875 
C 39.796875 34.921875 33.90625 28.953125 28.5 24.28125 
L 6.5 5.296875 
C 5.40625 4.390625 5.09375 4.09375 5.09375 2.890625 
C 5.09375 0 7.796875 0 9.203125 0 
L 44.09375 0 
C 46.296875 0.59375 46.296875 2.59375 46.296875 4.09375 
L 46.296875 6.1875 
C 46.296875 7.984375 46.296875 10.265625 43.09375 10.265625 
C 39.796875 10.265625 39.796875 8.171875 39.796875 5.796875 
L 15.703125 5.796875 
z
" id="CMTT12-50"/>
      </defs>
      <use transform="scale(0.996264)" xlink:href="#CMTT12-69"/>
      <use transform="translate(51.266111 0)scale(0.996264)" xlink:href="#CMTT12-50"/>
     </g>
    </g>
    <g id="line2d_33">
     <path d="M 61.366567 285.697072 
L 91.366567 285.697072 
" style="fill:none;stroke:#ff7f0e;stroke-linecap:square;stroke-width:1.5;"/>
    </g>
    <g id="line2d_34"/>
    <g id="text_17">
     <!-- E4 -->
     <g transform="translate(103.366567 290.947072)scale(0.15 -0.15)">
      <defs>
       <path d="M 3.796875 24.203125 
C 2.90625 22.890625 2.90625 22.6875 2.90625 20.890625 
C 2.90625 17.390625 4.203125 17 6.90625 17 
L 31.40625 17 
L 31.40625 5.796875 
L 25.40625 5.796875 
C 24 5.796875 21.40625 5.796875 21.40625 2.890625 
C 21.40625 0 24 0 25.40625 0 
L 43 0 
C 44.40625 0 47 0 47 2.890625 
C 47 5.796875 44.40625 5.796875 43 5.796875 
L 37 5.796875 
L 37 17 
L 44.5 17 
C 45.90625 17 48.5 17 48.5 19.890625 
C 48.5 22.796875 45.90625 22.796875 44.5 22.796875 
L 37 22.796875 
L 37 58.875 
C 37 62.1875 36.296875 63 32.90625 63 
L 30.59375 63 
C 28.203125 63 27.703125 62.890625 26.5 60.984375 
z
M 9.59375 22.796875 
L 31.40625 58.0625 
L 31.40625 22.796875 
z
" id="CMTT12-52"/>
      </defs>
      <use transform="scale(0.996264)" xlink:href="#CMTT12-69"/>
      <use transform="translate(51.266111 0)scale(0.996264)" xlink:href="#CMTT12-52"/>
     </g>
    </g>
    <g id="line2d_35">
     <path d="M 61.366567 307.99529 
L 91.366567 307.99529 
" style="fill:none;stroke:#2ca02c;stroke-linecap:square;stroke-width:1.5;"/>
    </g>
    <g id="line2d_36"/>
    <g id="text_18">
     <!-- E6 -->
     <g transform="translate(103.366567 313.24529)scale(0.15 -0.15)">
      <defs>
       <path d="M 11.90625 33.390625 
C 12.90625 46.4375 21.59375 56.1875 31.40625 56.1875 
C 33.40625 56.1875 35.703125 55.890625 37.203125 54.34375 
C 36.796875 53.84375 36.40625 53.359375 36.40625 51.890625 
C 36.40625 50.046875 37.796875 48 40.40625 48 
C 43 48 44.5 49.84375 44.5 52.09375 
C 44.5 57.296875 40.40625 62 31.5 62 
C 18.40625 62 5.296875 49.9375 5.296875 30 
C 5.296875 5.984375 16.40625 -1 25.90625 -1 
C 36.59375 -1 46.09375 7.484375 46.09375 19.4375 
C 46.09375 31.09375 37.40625 39.890625 27 39.890625 
C 21.90625 39.890625 16.203125 38 11.90625 33.390625 
z
M 25.90625 4.796875 
C 15.203125 4.796875 13 18.34375 13 18.4375 
C 13 18.546875 13.09375 19.046875 13.09375 19.34375 
C 13.09375 19.9375 12.703125 21.234375 12.703125 22.4375 
C 12.703125 28.21875 18.09375 34 26.296875 34 
C 34.09375 34 39.59375 27.3125 39.59375 19.4375 
C 39.59375 10.765625 33.09375 4.796875 25.90625 4.796875 
z
" id="CMTT12-54"/>
      </defs>
      <use transform="scale(0.996264)" xlink:href="#CMTT12-69"/>
      <use transform="translate(51.266111 0)scale(0.996264)" xlink:href="#CMTT12-54"/>
     </g>
    </g>
    <g id="line2d_37">
     <path d="M 61.366567 330.293509 
L 91.366567 330.293509 
" style="fill:none;stroke:#ff7f0e;stroke-dasharray:5.55,2.4;stroke-dashoffset:0;stroke-width:1.5;"/>
    </g>
    <g id="line2d_38"/>
    <g id="text_19">
     <!-- I4 -->
     <g transform="translate(103.366567 335.543509)scale(0.15 -0.15)">
      <defs>
       <path d="M 29 55.1875 
L 39.203125 55.1875 
C 40.59375 55.1875 43.203125 55.1875 43.203125 58.09375 
C 43.203125 61 40.59375 61 39.203125 61 
L 12.296875 61 
C 10.90625 61 8.296875 61 8.296875 58.09375 
C 8.296875 55.1875 10.90625 55.1875 12.296875 55.1875 
L 22.5 55.1875 
L 22.5 5.796875 
L 12.296875 5.796875 
C 10.90625 5.796875 8.296875 5.796875 8.296875 2.890625 
C 8.296875 0 10.90625 0 12.296875 0 
L 39.203125 0 
C 40.59375 0 43.203125 0 43.203125 2.890625 
C 43.203125 5.796875 40.59375 5.796875 39.203125 5.796875 
L 29 5.796875 
z
" id="CMTT12-73"/>
      </defs>
      <use transform="scale(0.996264)" xlink:href="#CMTT12-73"/>
      <use transform="translate(51.266111 0)scale(0.996264)" xlink:href="#CMTT12-52"/>
     </g>
    </g>
    <g id="line2d_39">
     <path d="M 61.366567 352.591728 
L 91.366567 352.591728 
" style="fill:none;stroke:#2ca02c;stroke-dasharray:5.55,2.4;stroke-dashoffset:0;stroke-width:1.5;"/>
    </g>
    <g id="line2d_40"/>
    <g id="text_20">
     <!-- I6 -->
     <g transform="translate(103.366567 357.841728)scale(0.15 -0.15)">
      <use transform="scale(0.996264)" xlink:href="#CMTT12-73"/>
      <use transform="translate(51.266111 0)scale(0.996264)" xlink:href="#CMTT12-54"/>
     </g>
    </g>
    <g id="line2d_41">
     <path d="M 61.366567 374.889947 
L 91.366567 374.889947 
" style="fill:none;stroke:#808080;stroke-linecap:square;stroke-width:1.5;"/>
    </g>
    <g id="line2d_42"/>
    <g id="text_21">
     <!-- Exact -->
     <g transform="translate(103.366567 380.139947)scale(0.15 -0.15)">
      <defs>
       <path d="M 28.203125 22.140625 
L 39.703125 37.1875 
L 43.203125 37.1875 
C 44.59375 37.1875 47.203125 37.1875 47.203125 40.09375 
C 47.203125 43 44.59375 43 43.203125 43 
L 32.09375 43 
C 30.703125 43 28.09375 43 28.09375 40.09375 
C 28.09375 37.1875 30.5 37.1875 32.90625 37.1875 
L 25.40625 26.921875 
L 17.703125 37.1875 
C 20 37.1875 22.40625 37.1875 22.40625 40.09375 
C 22.40625 43 19.796875 43 18.40625 43 
L 7.296875 43 
C 5.90625 43 3.296875 43 3.296875 40.09375 
C 3.296875 37.1875 5.90625 37.1875 7.296875 37.1875 
L 10.796875 37.1875 
L 22.703125 22.140625 
L 10.203125 5.796875 
L 6.796875 5.796875 
C 5.40625 5.796875 2.703125 5.796875 2.703125 2.890625 
C 2.703125 0 5.40625 0 6.796875 0 
L 17.796875 0 
C 19.203125 0 21.796875 0 21.796875 2.890625 
C 21.796875 5.796875 19.5 5.796875 16.796875 5.796875 
L 25.40625 18.359375 
L 34.40625 5.796875 
C 31.90625 5.796875 29.5 5.796875 29.5 2.890625 
C 29.5 0 32.09375 0 33.5 0 
L 44.59375 0 
C 46 0 48.59375 0 48.59375 2.890625 
C 48.59375 5.796875 46 5.796875 44.59375 5.796875 
L 41.09375 5.796875 
z
" id="CMTT12-120"/>
      </defs>
      <use transform="scale(0.996264)" xlink:href="#CMTT12-69"/>
      <use transform="translate(51.266111 0)scale(0.996264)" xlink:href="#CMTT12-120"/>
      <use transform="translate(102.532222 0)scale(0.996264)" xlink:href="#CMTT12-97"/>
      <use transform="translate(153.798333 0)scale(0.996264)" xlink:href="#CMTT12-99"/>
      <use transform="translate(205.064443 0)scale(0.996264)" xlink:href="#CMTT12-116"/>
     </g>
    </g>
   </g>
  </g>
  <g id="axes_2">
   <g id="patch_8">
    <path d="M 485.315611 396.960822 
L 865.19952 396.960822 
L 865.19952 23.550058 
L 485.315611 23.550058 
z
" style="fill:#ffffff;"/>
   </g>
   <g id="matplotlib.axis_3">
    <g id="xtick_7">
     <g id="line2d_43">
      <path clip-path="url(#p6700ef5744)" d="M 502.583062 396.960822 
L 502.583062 23.550058 
" style="fill:none;stroke:#b0b0b0;stroke-dasharray:0.8,1.32;stroke-dashoffset:0;stroke-width:0.8;"/>
     </g>
     <g id="line2d_44">
      <g>
       <use style="stroke:#000000;stroke-width:0.8;" x="502.583062" xlink:href="#m9dfe0f0a3a" y="396.960822"/>
      </g>
     </g>
     <g id="text_22">
      <!-- $\mathdefault{0.0}$ -->
      <g transform="translate(496.218022 410.049105)scale(0.1 -0.1)">
       <use transform="scale(0.996264)" xlink:href="#CMR17-48"/>
       <use transform="translate(45.690477 0)scale(0.996264)" xlink:href="#CMMI12-58"/>
       <use transform="translate(72.787654 0)scale(0.996264)" xlink:href="#CMR17-48"/>
      </g>
     </g>
    </g>
    <g id="xtick_8">
     <g id="line2d_45">
      <path clip-path="url(#p6700ef5744)" d="M 571.652863 396.960822 
L 571.652863 23.550058 
" style="fill:none;stroke:#b0b0b0;stroke-dasharray:0.8,1.32;stroke-dashoffset:0;stroke-width:0.8;"/>
     </g>
     <g id="line2d_46">
      <g>
       <use style="stroke:#000000;stroke-width:0.8;" x="571.652863" xlink:href="#m9dfe0f0a3a" y="396.960822"/>
      </g>
     </g>
     <g id="text_23">
      <!-- $\mathdefault{0.2}$ -->
      <g transform="translate(565.287824 410.049105)scale(0.1 -0.1)">
       <use transform="scale(0.996264)" xlink:href="#CMR17-48"/>
       <use transform="translate(45.690477 0)scale(0.996264)" xlink:href="#CMMI12-58"/>
       <use transform="translate(72.787654 0)scale(0.996264)" xlink:href="#CMR17-50"/>
      </g>
     </g>
    </g>
    <g id="xtick_9">
     <g id="line2d_47">
      <path clip-path="url(#p6700ef5744)" d="M 640.722665 396.960822 
L 640.722665 23.550058 
" style="fill:none;stroke:#b0b0b0;stroke-dasharray:0.8,1.32;stroke-dashoffset:0;stroke-width:0.8;"/>
     </g>
     <g id="line2d_48">
      <g>
       <use style="stroke:#000000;stroke-width:0.8;" x="640.722665" xlink:href="#m9dfe0f0a3a" y="396.960822"/>
      </g>
     </g>
     <g id="text_24">
      <!-- $\mathdefault{0.4}$ -->
      <g transform="translate(634.357625 410.049105)scale(0.1 -0.1)">
       <use transform="scale(0.996264)" xlink:href="#CMR17-48"/>
       <use transform="translate(45.690477 0)scale(0.996264)" xlink:href="#CMMI12-58"/>
       <use transform="translate(72.787654 0)scale(0.996264)" xlink:href="#CMR17-52"/>
      </g>
     </g>
    </g>
    <g id="xtick_10">
     <g id="line2d_49">
      <path clip-path="url(#p6700ef5744)" d="M 709.792466 396.960822 
L 709.792466 23.550058 
" style="fill:none;stroke:#b0b0b0;stroke-dasharray:0.8,1.32;stroke-dashoffset:0;stroke-width:0.8;"/>
     </g>
     <g id="line2d_50">
      <g>
       <use style="stroke:#000000;stroke-width:0.8;" x="709.792466" xlink:href="#m9dfe0f0a3a" y="396.960822"/>
      </g>
     </g>
     <g id="text_25">
      <!-- $\mathdefault{0.6}$ -->
      <g transform="translate(703.427427 410.049105)scale(0.1 -0.1)">
       <use transform="scale(0.996264)" xlink:href="#CMR17-48"/>
       <use transform="translate(45.690477 0)scale(0.996264)" xlink:href="#CMMI12-58"/>
       <use transform="translate(72.787654 0)scale(0.996264)" xlink:href="#CMR17-54"/>
      </g>
     </g>
    </g>
    <g id="xtick_11">
     <g id="line2d_51">
      <path clip-path="url(#p6700ef5744)" d="M 778.862268 396.960822 
L 778.862268 23.550058 
" style="fill:none;stroke:#b0b0b0;stroke-dasharray:0.8,1.32;stroke-dashoffset:0;stroke-width:0.8;"/>
     </g>
     <g id="line2d_52">
      <g>
       <use style="stroke:#000000;stroke-width:0.8;" x="778.862268" xlink:href="#m9dfe0f0a3a" y="396.960822"/>
      </g>
     </g>
     <g id="text_26">
      <!-- $\mathdefault{0.8}$ -->
      <g transform="translate(772.497228 410.049105)scale(0.1 -0.1)">
       <use transform="scale(0.996264)" xlink:href="#CMR17-48"/>
       <use transform="translate(45.690477 0)scale(0.996264)" xlink:href="#CMMI12-58"/>
       <use transform="translate(72.787654 0)scale(0.996264)" xlink:href="#CMR17-56"/>
      </g>
     </g>
    </g>
    <g id="xtick_12">
     <g id="line2d_53">
      <path clip-path="url(#p6700ef5744)" d="M 847.93207 396.960822 
L 847.93207 23.550058 
" style="fill:none;stroke:#b0b0b0;stroke-dasharray:0.8,1.32;stroke-dashoffset:0;stroke-width:0.8;"/>
     </g>
     <g id="line2d_54">
      <g>
       <use style="stroke:#000000;stroke-width:0.8;" x="847.93207" xlink:href="#m9dfe0f0a3a" y="396.960822"/>
      </g>
     </g>
     <g id="text_27">
      <!-- $\mathdefault{1.0}$ -->
      <g transform="translate(841.56703 410.049105)scale(0.1 -0.1)">
       <use transform="scale(0.996264)" xlink:href="#CMR17-49"/>
       <use transform="translate(45.690477 0)scale(0.996264)" xlink:href="#CMMI12-58"/>
       <use transform="translate(72.787654 0)scale(0.996264)" xlink:href="#CMR17-48"/>
      </g>
     </g>
    </g>
    <g id="text_28">
     <!-- $kh\: / \: \pi$ -->
     <g transform="translate(653.274618 428.965398)scale(0.17 -0.17)">
      <use transform="scale(0.996264)" xlink:href="#CMMI12-107"/>
      <use transform="translate(54.079201 0)scale(0.996264)" xlink:href="#CMMI12-104"/>
      <use transform="translate(132.373032 0)scale(0.996264)" xlink:href="#CMMI12-61"/>
      <use transform="translate(203.287157 0)scale(0.996264)" xlink:href="#CMMI12-25"/>
     </g>
    </g>
   </g>
   <g id="matplotlib.axis_4">
    <g id="ytick_7">
     <g id="line2d_55">
      <path clip-path="url(#p6700ef5744)" d="M 485.315611 358.771084 
L 865.19952 358.771084 
" style="fill:none;stroke:#b0b0b0;stroke-dasharray:0.8,1.32;stroke-dashoffset:0;stroke-width:0.8;"/>
     </g>
     <g id="line2d_56">
      <g>
       <use style="stroke:#000000;stroke-width:0.8;" x="485.315611" xlink:href="#m35d5ff285c" y="358.771084"/>
      </g>
     </g>
     <g id="text_29">
      <!-- $\mathdefault{4}$ -->
      <g transform="translate(465.585532 361.815226)scale(0.1 -0.1)">
       <defs>
        <path d="M 65.90625 23 
C 67.59375 23 69.40625 23 69.40625 25 
C 69.40625 27 67.59375 27 65.90625 27 
L 11.796875 27 
C 10.09375 27 8.296875 27 8.296875 25 
C 8.296875 23 10.09375 23 11.796875 23 
z
" id="CMSY10-0"/>
       </defs>
       <use transform="scale(0.996264)" xlink:href="#CMSY10-0"/>
       <use transform="translate(77.487468 0)scale(0.996264)" xlink:href="#CMR17-52"/>
      </g>
     </g>
    </g>
    <g id="ytick_8">
     <g id="line2d_57">
      <path clip-path="url(#p6700ef5744)" d="M 485.315611 295.121522 
L 865.19952 295.121522 
" style="fill:none;stroke:#b0b0b0;stroke-dasharray:0.8,1.32;stroke-dashoffset:0;stroke-width:0.8;"/>
     </g>
     <g id="line2d_58">
      <g>
       <use style="stroke:#000000;stroke-width:0.8;" x="485.315611" xlink:href="#m35d5ff285c" y="295.121522"/>
      </g>
     </g>
     <g id="text_30">
      <!-- $\mathdefault{3}$ -->
      <g transform="translate(465.585532 298.165664)scale(0.1 -0.1)">
       <defs>
        <path d="M 22.09375 34 
C 31 34 34.90625 26.140625 34.90625 17.09375 
C 34.90625 5.03125 28.5 0.390625 22.703125 0.390625 
C 17.40625 0.390625 8.796875 3.015625 6.09375 10.796875 
C 6.59375 10.59375 7.09375 10.59375 7.59375 10.59375 
C 10 10.59375 11.796875 12.1875 11.796875 14.796875 
C 11.796875 17.6875 9.59375 19 7.59375 19 
C 5.90625 19 3.296875 18.1875 3.296875 14.484375 
C 3.296875 5.234375 12.296875 -2 22.90625 -2 
C 34 -2 42.5 6.75 42.5 16.984375 
C 42.5 26.84375 34.5 34 25 35.09375 
C 32.59375 36.671875 39.90625 43.375 39.90625 52.390625 
C 39.90625 60.25 32 66 23 66 
C 13.90625 66 5.90625 60.34375 5.90625 52.296875 
C 5.90625 48.796875 8.5 48.1875 9.796875 48.1875 
C 11.90625 48.1875 13.703125 49.484375 13.703125 52.09375 
C 13.703125 54.6875 11.90625 56 9.796875 56 
C 9.40625 56 8.90625 56 8.5 55.796875 
C 11.40625 62.484375 19.296875 63.6875 22.796875 63.6875 
C 26.296875 63.6875 32.90625 61.96875 32.90625 52.296875 
C 32.90625 49.484375 32.5 44.546875 29.09375 40.21875 
C 26.09375 36.390625 22.703125 36.1875 19.40625 35.890625 
C 18.90625 35.890625 16.59375 35.6875 16.203125 35.6875 
C 15.5 35.59375 15.09375 35.5 15.09375 34.796875 
C 15.09375 34.09375 15.203125 34 17.203125 34 
z
" id="CMR17-51"/>
       </defs>
       <use transform="scale(0.996264)" xlink:href="#CMSY10-0"/>
       <use transform="translate(77.487468 0)scale(0.996264)" xlink:href="#CMR17-51"/>
      </g>
     </g>
    </g>
    <g id="ytick_9">
     <g id="line2d_59">
      <path clip-path="url(#p6700ef5744)" d="M 485.315611 231.47196 
L 865.19952 231.47196 
" style="fill:none;stroke:#b0b0b0;stroke-dasharray:0.8,1.32;stroke-dashoffset:0;stroke-width:0.8;"/>
     </g>
     <g id="line2d_60">
      <g>
       <use style="stroke:#000000;stroke-width:0.8;" x="485.315611" xlink:href="#m35d5ff285c" y="231.47196"/>
      </g>
     </g>
     <g id="text_31">
      <!-- $\mathdefault{2}$ -->
      <g transform="translate(465.585532 234.516102)scale(0.1 -0.1)">
       <use transform="scale(0.996264)" xlink:href="#CMSY10-0"/>
       <use transform="translate(77.487468 0)scale(0.996264)" xlink:href="#CMR17-50"/>
      </g>
     </g>
    </g>
    <g id="ytick_10">
     <g id="line2d_61">
      <path clip-path="url(#p6700ef5744)" d="M 485.315611 167.822398 
L 865.19952 167.822398 
" style="fill:none;stroke:#b0b0b0;stroke-dasharray:0.8,1.32;stroke-dashoffset:0;stroke-width:0.8;"/>
     </g>
     <g id="line2d_62">
      <g>
       <use style="stroke:#000000;stroke-width:0.8;" x="485.315611" xlink:href="#m35d5ff285c" y="167.822398"/>
      </g>
     </g>
     <g id="text_32">
      <!-- $\mathdefault{1}$ -->
      <g transform="translate(465.585532 170.86654)scale(0.1 -0.1)">
       <use transform="scale(0.996264)" xlink:href="#CMSY10-0"/>
       <use transform="translate(77.487468 0)scale(0.996264)" xlink:href="#CMR17-49"/>
      </g>
     </g>
    </g>
    <g id="ytick_11">
     <g id="line2d_63">
      <path clip-path="url(#p6700ef5744)" d="M 485.315611 104.172836 
L 865.19952 104.172836 
" style="fill:none;stroke:#b0b0b0;stroke-dasharray:0.8,1.32;stroke-dashoffset:0;stroke-width:0.8;"/>
     </g>
     <g id="line2d_64">
      <g>
       <use style="stroke:#000000;stroke-width:0.8;" x="485.315611" xlink:href="#m35d5ff285c" y="104.172836"/>
      </g>
     </g>
     <g id="text_33">
      <!-- $\mathdefault{0}$ -->
      <g transform="translate(473.334276 107.216978)scale(0.1 -0.1)">
       <use transform="scale(0.996264)" xlink:href="#CMR17-48"/>
      </g>
     </g>
    </g>
    <g id="ytick_12">
     <g id="line2d_65">
      <path clip-path="url(#p6700ef5744)" d="M 485.315611 40.523274 
L 865.19952 40.523274 
" style="fill:none;stroke:#b0b0b0;stroke-dasharray:0.8,1.32;stroke-dashoffset:0;stroke-width:0.8;"/>
     </g>
     <g id="line2d_66">
      <g>
       <use style="stroke:#000000;stroke-width:0.8;" x="485.315611" xlink:href="#m35d5ff285c" y="40.523274"/>
      </g>
     </g>
     <g id="text_34">
      <!-- $\mathdefault{1}$ -->
      <g transform="translate(473.334276 43.567416)scale(0.1 -0.1)">
       <use transform="scale(0.996264)" xlink:href="#CMR17-49"/>
      </g>
     </g>
    </g>
    <g id="text_35">
     <!-- $c_g^* \: / \: c$ -->
     <g transform="translate(455.093322 228.591206)rotate(-90)scale(0.17 -0.17)">
      <defs>
       <path d="M 33.796875 12.671875 
C 33.40625 11.0625 33.203125 10.671875 31.90625 9.171875 
C 27.796875 3.890625 23.59375 2 20.5 2 
C 17.203125 2 14.09375 4.578125 14.09375 11.46875 
C 14.09375 16.75 17.09375 27.921875 19.296875 32.421875 
C 22.203125 38 26.703125 41.984375 30.90625 41.984375 
C 37.5 41.984375 38.796875 33.8125 38.796875 33.21875 
L 38.5 31.8125 
z
M 40 37.40625 
C 38.703125 40.296875 35.90625 44 30.90625 44 
C 20 44 7.59375 30.328125 7.59375 15.453125 
C 7.59375 5.078125 13.90625 0 20.296875 0 
C 25.59375 0 30.296875 4.1875 32.09375 6.1875 
L 29.90625 -2.75 
C 28.5 -8.125 27.90625 -10.578125 24.296875 -14 
C 20.203125 -18 16.40625 -18 14.203125 -18 
C 11.203125 -18 8.703125 -17.8125 6.203125 -17.03125 
C 9.40625 -16.15625 10.203125 -13.40625 10.203125 -12.328125 
C 10.203125 -10.765625 9 -9.203125 6.796875 -9.203125 
C 4.40625 -9.203125 1.796875 -11.15625 1.796875 -14.390625 
C 1.796875 -18.40625 5.90625 -20 14.40625 -20 
C 27.296875 -20 34 -11.84375 35.296875 -6.5625 
L 46.40625 37.90625 
C 46.703125 39.09375 46.703125 39.296875 46.703125 39.5 
C 46.703125 40.890625 45.59375 42 44.09375 42 
C 41.703125 42 40.296875 40 40 37.3125 
z
" id="CMMI12-103"/>
      </defs>
      <use transform="scale(0.996264)" xlink:href="#CMMI12-99"/>
      <use transform="translate(41.983234 36.153639)scale(0.697382)" xlink:href="#CMSY10-3"/>
      <use transform="translate(41.983234 -24.62935)scale(0.697382)" xlink:href="#CMMI12-103"/>
      <use transform="translate(99.820254 0)scale(0.996264)" xlink:href="#CMMI12-61"/>
      <use transform="translate(170.73438 0)scale(0.996264)" xlink:href="#CMMI12-99"/>
     </g>
    </g>
   </g>
   <g id="line2d_67">
    <path clip-path="url(#p6700ef5744)" d="M 502.583062 40.523274 
L 509.507352 40.649502 
L 516.431643 41.027685 
L 523.355934 41.656324 
L 530.280225 42.532925 
L 537.204516 43.654011 
L 544.128807 45.015135 
L 551.053098 46.610899 
L 557.977389 48.434973 
L 564.90168 50.480123 
L 571.82597 52.738237 
L 579.615798 55.521989 
L 587.405625 58.549943 
L 595.195452 61.806899 
L 603.850816 65.674402 
L 612.506179 69.780451 
L 622.027079 74.54222 
L 632.413516 79.988937 
L 644.531025 86.612582 
L 659.245143 94.934213 
L 712.042861 125.076655 
L 723.294834 131.110148 
L 733.68127 136.430639 
L 743.20217 141.056083 
L 751.857534 145.021966 
L 760.512897 148.734737 
L 768.302724 151.840772 
L 776.092552 154.70754 
L 783.882379 157.32065 
L 790.80667 159.419835 
L 797.730961 161.299892 
L 804.655252 162.953362 
L 811.579542 164.373689 
L 818.503833 165.555239 
L 825.428124 166.493325 
L 832.352415 167.184227 
L 839.276706 167.625204 
L 846.200997 167.814506 
L 847.93207 167.822398 
L 847.93207 167.822398 
" style="fill:none;stroke:#1f77b4;stroke-linecap:square;stroke-width:1.5;"/>
   </g>
   <g id="line2d_68">
    <path clip-path="url(#p6700ef5744)" d="M 502.583062 40.523274 
L 537.204516 40.625935 
L 550.187561 40.884857 
L 560.573998 41.307535 
L 569.229361 41.871081 
L 577.019189 42.588797 
L 583.943479 43.427504 
L 590.86777 44.48435 
L 597.792061 45.786872 
L 603.850816 47.14892 
L 609.90957 48.735961 
L 615.968325 50.563324 
L 622.027079 52.644737 
L 628.085834 54.992046 
L 634.144588 57.614964 
L 640.203343 60.520834 
L 646.262097 63.71442 
L 652.320852 67.19773 
L 658.379607 70.969867 
L 664.438361 75.026913 
L 670.497116 79.361851 
L 676.55587 83.964522 
L 682.614625 88.821616 
L 689.538916 94.662911 
L 696.463206 100.785586 
L 704.253034 107.966971 
L 712.908397 116.244509 
L 724.16037 127.335069 
L 754.454143 157.411717 
L 763.109506 165.587967 
L 770.033797 171.852495 
L 776.958088 177.810023 
L 783.016843 182.728021 
L 789.075597 187.334078 
L 794.268815 191.00863 
L 799.462033 194.409932 
L 804.655252 197.519657 
L 808.982933 199.876143 
L 813.310615 202.00947 
L 817.638297 203.911518 
L 821.965979 205.575018 
L 826.293661 206.993592 
L 830.621342 208.161785 
L 834.949024 209.075095 
L 839.276706 209.729995 
L 843.604388 210.123951 
L 847.93207 210.25544 
L 847.93207 210.25544 
" style="fill:none;stroke:#ff7f0e;stroke-linecap:square;stroke-width:1.5;"/>
   </g>
   <g id="line2d_69">
    <path clip-path="url(#p6700ef5744)" d="M 502.583062 40.523274 
L 565.767216 40.628906 
L 580.481334 40.878522 
L 591.733307 41.290717 
L 600.38867 41.816802 
L 608.178498 42.504895 
L 615.102788 43.333387 
L 621.161543 44.260667 
L 627.220298 45.408697 
L 633.279052 46.809159 
L 638.47227 48.234932 
L 643.665488 49.890189 
L 648.858707 51.794858 
L 654.051925 53.968126 
L 658.379607 55.997439 
L 662.707288 58.235526 
L 667.03497 60.691176 
L 671.362652 63.37214 
L 675.690334 66.284977 
L 680.018016 69.434904 
L 684.345697 72.825662 
L 688.673379 76.459377 
L 693.866597 81.140971 
L 699.059815 86.170077 
L 704.253034 91.53984 
L 709.446252 97.239202 
L 714.63947 103.252781 
L 720.698225 110.639152 
L 726.756979 118.387232 
L 733.68127 127.624654 
L 741.471097 138.405432 
L 751.857534 153.191568 
L 770.899333 180.357397 
L 778.689161 191.016109 
L 784.747915 198.947829 
L 789.941133 205.426169 
L 795.134352 211.55393 
L 799.462033 216.356369 
L 803.789715 220.852803 
L 808.117397 225.01697 
L 812.445079 228.824281 
L 815.907224 231.597871 
L 819.36937 234.117834 
L 822.831515 236.374419 
L 826.293661 238.358846 
L 829.755806 240.063357 
L 833.217951 241.481264 
L 836.680097 242.606981 
L 840.142242 243.436067 
L 843.604388 243.965239 
L 846.200997 244.163995 
L 847.93207 244.201873 
L 847.93207 244.201873 
" style="fill:none;stroke:#2ca02c;stroke-linecap:square;stroke-width:1.5;"/>
   </g>
   <g id="line2d_70">
    <path clip-path="url(#p6700ef5744)" d="M 502.583062 40.523274 
L 556.246316 40.627741 
L 575.288116 40.887056 
L 590.002234 41.308412 
L 602.119743 41.883989 
L 612.506179 42.607217 
L 621.161543 43.420651 
L 628.95137 44.35586 
L 636.741197 45.523081 
L 643.665488 46.790955 
L 649.724243 48.106927 
L 655.782997 49.643267 
L 661.841752 51.4291 
L 667.03497 53.182556 
L 672.228188 55.164623 
L 677.421406 57.398757 
L 682.614625 59.909986 
L 686.942306 62.233443 
L 691.269988 64.783813 
L 695.59767 67.57777 
L 699.925352 70.632462 
L 704.253034 73.965376 
L 708.580715 77.594154 
L 712.908397 81.536366 
L 717.236079 85.809239 
L 721.563761 90.429316 
L 725.891443 95.412065 
L 730.219124 100.771418 
L 734.546806 106.519233 
L 738.874488 112.6647 
L 743.20217 119.213657 
L 747.529852 126.167859 
L 751.857534 133.524183 
L 756.185215 141.273788 
L 761.378433 151.07023 
L 766.571652 161.369509 
L 772.630406 173.942074 
L 779.554697 188.887911 
L 791.672206 215.761414 
L 799.462033 232.812175 
L 804.655252 243.737829 
L 808.982933 252.411856 
L 813.310615 260.572978 
L 816.772761 266.655928 
L 820.234906 272.280478 
L 823.697051 277.391704 
L 826.293661 280.857033 
L 828.89027 283.984239 
L 831.486879 286.75469 
L 834.083488 289.15159 
L 836.680097 291.160186 
L 838.41117 292.277247 
L 840.142242 293.212992 
L 841.873315 293.964788 
L 843.604388 294.530511 
L 845.335461 294.908556 
L 847.066533 295.097848 
L 847.93207 295.121522 
L 847.93207 295.121522 
" style="fill:none;stroke:#ff7f0e;stroke-dasharray:5.55,2.4;stroke-dashoffset:0;stroke-width:1.5;"/>
   </g>
   <g id="line2d_71">
    <path clip-path="url(#p6700ef5744)" d="M 502.583062 40.523274 
L 598.657598 40.629575 
L 618.564934 40.870934 
L 632.413516 41.238794 
L 643.665488 41.750329 
L 653.186388 42.407924 
L 660.976216 43.158025 
L 667.900506 44.033965 
L 673.959261 45.002167 
L 680.018016 46.200238 
L 685.211234 47.445606 
L 690.404452 48.928788 
L 694.732134 50.374717 
L 699.059815 52.038787 
L 703.387497 53.949576 
L 707.715179 56.138731 
L 711.177325 58.113817 
L 714.63947 60.308756 
L 718.101615 62.744402 
L 721.563761 65.443053 
L 725.025906 68.428438 
L 728.488052 71.725677 
L 731.950197 75.361202 
L 735.412343 79.362628 
L 738.874488 83.758566 
L 742.336634 88.578367 
L 745.798779 93.851778 
L 749.260924 99.608502 
L 752.72307 105.877654 
L 756.185215 112.687078 
L 759.647361 120.062536 
L 763.109506 128.026741 
L 766.571652 136.598239 
L 770.033797 145.790121 
L 773.495943 155.608597 
L 776.958088 166.05142 
L 780.420233 177.106207 
L 784.747915 191.747033 
L 789.075597 207.227379 
L 794.268815 226.745696 
L 800.32757 250.450194 
L 813.310615 301.649443 
L 817.638297 317.719537 
L 821.100442 329.802663 
L 824.562588 340.987701 
L 827.159197 348.671213 
L 829.755806 355.663206 
L 832.352415 361.890046 
L 834.083488 365.582479 
L 835.814561 368.886347 
L 837.545633 371.785043 
L 839.276706 374.263792 
L 841.007779 376.30981 
L 842.738851 377.912439 
L 844.469924 379.063267 
L 846.200997 379.756213 
L 847.066533 379.929738 
L 847.93207 379.987605 
L 847.93207 379.987605 
" style="fill:none;stroke:#2ca02c;stroke-dasharray:5.55,2.4;stroke-dashoffset:0;stroke-width:1.5;"/>
   </g>
   <g id="line2d_72">
    <path clip-path="url(#p6700ef5744)" d="M 502.583062 40.523274 
L 847.93207 40.523274 
L 847.93207 40.523274 
" style="fill:none;stroke:#808080;stroke-linecap:square;stroke-width:1.5;"/>
   </g>
   <g id="patch_9">
    <path d="M 485.315611 396.960822 
L 485.315611 23.550058 
" style="fill:none;stroke:#000000;stroke-linecap:square;stroke-linejoin:miter;stroke-width:0.8;"/>
   </g>
   <g id="patch_10">
    <path d="M 865.19952 396.960822 
L 865.19952 23.550058 
" style="fill:none;stroke:#000000;stroke-linecap:square;stroke-linejoin:miter;stroke-width:0.8;"/>
   </g>
   <g id="patch_11">
    <path d="M 485.315611 396.960822 
L 865.19952 396.960822 
" style="fill:none;stroke:#000000;stroke-linecap:square;stroke-linejoin:miter;stroke-width:0.8;"/>
   </g>
   <g id="patch_12">
    <path d="M 485.315611 23.550058 
L 865.19952 23.550058 
" style="fill:none;stroke:#000000;stroke-linecap:square;stroke-linejoin:miter;stroke-width:0.8;"/>
   </g>
   <g id="text_36">
    <!-- Group velocity -->
    <g transform="translate(614.250973 17.550058)scale(0.17 -0.17)">
     <defs>
      <path d="M 44 21.1875 
C 46 21.1875 48.59375 21.1875 48.59375 24.09375 
C 48.59375 27 45.90625 27 44.5 27 
L 33.296875 27 
C 31.90625 27 29.203125 27 29.203125 24.09375 
C 29.203125 21.1875 31.90625 21.1875 33.296875 21.1875 
L 37.40625 21.1875 
C 36.90625 15.171875 34.203125 4.796875 26 4.796875 
C 17.90625 4.796875 10.203125 15.5625 10.203125 30.453125 
C 10.203125 45.703125 18.203125 56.1875 26.09375 56.1875 
C 30.90625 56.1875 36.203125 52.4375 37.5 42.53125 
C 37.796875 40.0625 39.703125 40.0625 40.703125 40.0625 
C 44 40.0625 44 41.84375 44 43.8125 
L 44 58.1875 
C 44 59.796875 44 62 41.203125 62 
C 39.5 62 38.90625 60.890625 38.59375 60.390625 
L 37.296875 57.1875 
C 34 60.1875 30 62 25.59375 62 
C 13.796875 62 3.703125 48.578125 3.703125 30.5625 
C 3.703125 12.203125 13.90625 -1 25.59375 -1 
C 29.90625 -1 34.09375 0.796875 37.5 4.5 
C 37.5 1.890625 37.5 0 40.796875 0 
C 44 0 44 2.09375 44 4 
z
" id="CMTT12-71"/>
      <path d="M 21.59375 18.84375 
C 21.59375 30.71875 30 37.796875 38.5 37.796875 
C 39 37.796875 39.59375 37.796875 40.09375 37.6875 
C 40.40625 34.109375 43.203125 33.796875 43.90625 33.796875 
C 46.203125 33.796875 47.796875 35.5 47.796875 37.6875 
C 47.796875 41.984375 43.59375 43.59375 38.59375 43.59375 
C 31.90625 43.59375 26.203125 40.59375 21.59375 35 
L 21.59375 38.890625 
C 21.59375 41.984375 21 43 17.59375 43 
L 7.5 43 
C 6.09375 43 3.5 43 3.5 40.09375 
C 3.5 37.1875 6.09375 37.1875 7.5 37.1875 
L 15.09375 37.1875 
L 15.09375 5.796875 
L 7.5 5.796875 
C 6.09375 5.796875 3.5 5.796875 3.5 2.890625 
C 3.5 0 6.09375 0 7.5 0 
L 32.09375 0 
C 33.5 0 36.09375 0 36.09375 2.890625 
C 36.09375 5.796875 33.5 5.796875 32.09375 5.796875 
L 21.59375 5.796875 
z
" id="CMTT12-114"/>
      <path d="M 41.796875 38.890625 
C 41.796875 41.984375 41.203125 43 37.796875 43 
L 31.203125 43 
C 29.796875 43 27.203125 43 27.203125 40.09375 
C 27.203125 37.1875 29.796875 37.1875 31.203125 37.1875 
L 35.296875 37.1875 
L 35.296875 15.296875 
C 35.296875 7.015625 28.5 4.796875 24 4.796875 
C 16.09375 4.796875 16.09375 8.421875 16.09375 11.5625 
L 16.09375 38.890625 
C 16.09375 41.984375 15.5 43 12.09375 43 
L 5.5 43 
C 4.09375 43 1.5 43 1.5 40.09375 
C 1.5 37.1875 4.09375 37.1875 5.5 37.1875 
L 9.59375 37.1875 
L 9.59375 11.046875 
C 9.59375 1.796875 15.59375 -1 23.296875 -1 
C 29.40625 -1 33.203125 1.5 35.203125 3.1875 
C 35.203125 -0.40625 37.59375 -0.40625 39.296875 -0.40625 
L 45.90625 -0.40625 
C 47.296875 -0.40625 49.90625 -0.40625 49.90625 2.5 
C 49.90625 5.390625 47.296875 5.390625 45.90625 5.390625 
L 41.796875 5.390625 
z
" id="CMTT12-117"/>
      <path d="M 20.203125 -22 
C 21.59375 -22 24.203125 -22 24.203125 -19.109375 
C 24.203125 -16.203125 21.59375 -16.203125 20.203125 -16.203125 
L 16.09375 -16.203125 
L 16.09375 4.59375 
C 18.5 1.890625 22.203125 -1 27.796875 -1 
C 38.40625 -1 47.703125 8.53125 47.703125 21.34375 
C 47.703125 33.765625 39.296875 43.59375 28.90625 43.59375 
C 21.59375 43.59375 17 39.1875 16.09375 38.1875 
C 16.09375 41.484375 16.09375 43 12.09375 43 
L 5.5 43 
C 4.09375 43 1.5 43 1.5 40.09375 
C 1.5 37.1875 4.09375 37.1875 5.5 37.1875 
L 9.59375 37.1875 
L 9.59375 -16.203125 
L 5.5 -16.203125 
C 4.09375 -16.203125 1.5 -16.203125 1.5 -19.109375 
C 1.5 -22 4.09375 -22 5.5 -22 
z
M 16.09375 26.390625 
C 16.09375 32.140625 21.703125 37.796875 28.203125 37.796875 
C 35.40625 37.796875 41.203125 30.4375 41.203125 21.34375 
C 41.203125 11.65625 34.40625 4.796875 27.296875 4.796875 
C 19.796875 4.796875 16.09375 13.375 16.09375 18.421875 
z
" id="CMTT12-112"/>
     </defs>
     <use transform="scale(0.996264)" xlink:href="#CMTT12-71"/>
     <use transform="translate(51.266111 0)scale(0.996264)" xlink:href="#CMTT12-114"/>
     <use transform="translate(102.532222 0)scale(0.996264)" xlink:href="#CMTT12-111"/>
     <use transform="translate(153.798333 0)scale(0.996264)" xlink:href="#CMTT12-117"/>
     <use transform="translate(205.064443 0)scale(0.996264)" xlink:href="#CMTT12-112"/>
     <use transform="translate(307.596665 0)scale(0.996264)" xlink:href="#CMTT12-118"/>
     <use transform="translate(358.862776 0)scale(0.996264)" xlink:href="#CMTT12-101"/>
     <use transform="translate(410.128887 0)scale(0.996264)" xlink:href="#CMTT12-108"/>
     <use transform="translate(461.394998 0)scale(0.996264)" xlink:href="#CMTT12-111"/>
     <use transform="translate(512.661108 0)scale(0.996264)" xlink:href="#CMTT12-99"/>
     <use transform="translate(563.927219 0)scale(0.996264)" xlink:href="#CMTT12-105"/>
     <use transform="translate(615.19333 0)scale(0.996264)" xlink:href="#CMTT12-116"/>
     <use transform="translate(666.459441 0)scale(0.996264)" xlink:href="#CMTT12-121"/>
    </g>
   </g>
   <g id="legend_2">
    <g id="patch_13">
     <path d="M 495.815611 389.460822 
L 582.265175 389.460822 
Q 585.265175 389.460822 585.265175 386.460822 
L 585.265175 254.171509 
Q 585.265175 251.171509 582.265175 251.171509 
L 495.815611 251.171509 
Q 492.815611 251.171509 492.815611 254.171509 
L 492.815611 386.460822 
Q 492.815611 389.460822 495.815611 389.460822 
z
" style="fill:#ffffff;opacity:0.8;stroke:#cccccc;stroke-linejoin:miter;"/>
    </g>
    <g id="line2d_73">
     <path d="M 498.815611 263.398853 
L 528.815611 263.398853 
" style="fill:none;stroke:#1f77b4;stroke-linecap:square;stroke-width:1.5;"/>
    </g>
    <g id="line2d_74"/>
    <g id="text_37">
     <!-- E2 -->
     <g transform="translate(540.815611 268.648853)scale(0.15 -0.15)">
      <use transform="scale(0.996264)" xlink:href="#CMTT12-69"/>
      <use transform="translate(51.266111 0)scale(0.996264)" xlink:href="#CMTT12-50"/>
     </g>
    </g>
    <g id="line2d_75">
     <path d="M 498.815611 285.697072 
L 528.815611 285.697072 
" style="fill:none;stroke:#ff7f0e;stroke-linecap:square;stroke-width:1.5;"/>
    </g>
    <g id="line2d_76"/>
    <g id="text_38">
     <!-- E4 -->
     <g transform="translate(540.815611 290.947072)scale(0.15 -0.15)">
      <use transform="scale(0.996264)" xlink:href="#CMTT12-69"/>
      <use transform="translate(51.266111 0)scale(0.996264)" xlink:href="#CMTT12-52"/>
     </g>
    </g>
    <g id="line2d_77">
     <path d="M 498.815611 307.99529 
L 528.815611 307.99529 
" style="fill:none;stroke:#2ca02c;stroke-linecap:square;stroke-width:1.5;"/>
    </g>
    <g id="line2d_78"/>
    <g id="text_39">
     <!-- E6 -->
     <g transform="translate(540.815611 313.24529)scale(0.15 -0.15)">
      <use transform="scale(0.996264)" xlink:href="#CMTT12-69"/>
      <use transform="translate(51.266111 0)scale(0.996264)" xlink:href="#CMTT12-54"/>
     </g>
    </g>
    <g id="line2d_79">
     <path d="M 498.815611 330.293509 
L 528.815611 330.293509 
" style="fill:none;stroke:#ff7f0e;stroke-dasharray:5.55,2.4;stroke-dashoffset:0;stroke-width:1.5;"/>
    </g>
    <g id="line2d_80"/>
    <g id="text_40">
     <!-- I4 -->
     <g transform="translate(540.815611 335.543509)scale(0.15 -0.15)">
      <use transform="scale(0.996264)" xlink:href="#CMTT12-73"/>
      <use transform="translate(51.266111 0)scale(0.996264)" xlink:href="#CMTT12-52"/>
     </g>
    </g>
    <g id="line2d_81">
     <path d="M 498.815611 352.591728 
L 528.815611 352.591728 
" style="fill:none;stroke:#2ca02c;stroke-dasharray:5.55,2.4;stroke-dashoffset:0;stroke-width:1.5;"/>
    </g>
    <g id="line2d_82"/>
    <g id="text_41">
     <!-- I6 -->
     <g transform="translate(540.815611 357.841728)scale(0.15 -0.15)">
      <use transform="scale(0.996264)" xlink:href="#CMTT12-73"/>
      <use transform="translate(51.266111 0)scale(0.996264)" xlink:href="#CMTT12-54"/>
     </g>
    </g>
    <g id="line2d_83">
     <path d="M 498.815611 374.889947 
L 528.815611 374.889947 
" style="fill:none;stroke:#808080;stroke-linecap:square;stroke-width:1.5;"/>
    </g>
    <g id="line2d_84"/>
    <g id="text_42">
     <!-- Exact -->
     <g transform="translate(540.815611 380.139947)scale(0.15 -0.15)">
      <use transform="scale(0.996264)" xlink:href="#CMTT12-69"/>
      <use transform="translate(51.266111 0)scale(0.996264)" xlink:href="#CMTT12-120"/>
      <use transform="translate(102.532222 0)scale(0.996264)" xlink:href="#CMTT12-97"/>
      <use transform="translate(153.798333 0)scale(0.996264)" xlink:href="#CMTT12-99"/>
      <use transform="translate(205.064443 0)scale(0.996264)" xlink:href="#CMTT12-116"/>
     </g>
    </g>
   </g>
  </g>
 </g>
 <defs>
  <clipPath id="pc076e7e2b3">
   <rect height="373.410764" width="379.883909" x="47.866567" y="23.550058"/>
  </clipPath>
  <clipPath id="p6700ef5744">
   <rect height="373.410764" width="379.883909" x="485.315611" y="23.550058"/>
  </clipPath>
 </defs>
</svg>
