<?xml version="1.0" encoding="utf-8" standalone="no"?>
<!DOCTYPE svg PUBLIC "-//W3C//DTD SVG 1.1//EN"
  "http://www.w3.org/Graphics/SVG/1.1/DTD/svg11.dtd">
<!-- Created with matplotlib (https://matplotlib.org/) -->
<svg height="368.39952pt" version="1.1" viewBox="0 0 728.39952 368.39952" width="728.39952pt" xmlns="http://www.w3.org/2000/svg" xmlns:xlink="http://www.w3.org/1999/xlink">
 <metadata>
  <rdf:RDF xmlns:cc="http://creativecommons.org/ns#" xmlns:dc="http://purl.org/dc/elements/1.1/" xmlns:rdf="http://www.w3.org/1999/02/22-rdf-syntax-ns#">
   <cc:Work>
    <dc:type rdf:resource="http://purl.org/dc/dcmitype/StillImage"/>
    <dc:date>2022-03-11T18:27:37.491026</dc:date>
    <dc:format>image/svg+xml</dc:format>
    <dc:creator>
     <cc:Agent>
      <dc:title>Matplotlib v3.3.4, https://matplotlib.org/</dc:title>
     </cc:Agent>
    </dc:creator>
   </cc:Work>
  </rdf:RDF>
 </metadata>
 <defs>
  <style type="text/css">*{stroke-linecap:butt;stroke-linejoin:round;}</style>
 </defs>
 <g id="figure_1">
  <g id="patch_1">
   <path d="M 0 368.39952 
L 728.39952 368.39952 
L 728.39952 0 
L 0 0 
z
" style="fill:#ffffff;"/>
  </g>
  <g id="axes_1">
   <g id="patch_2">
    <path d="M 38.331811 327.783595 
L 357.59952 327.783595 
L 357.59952 25.902366 
L 38.331811 25.902366 
z
" style="fill:#ffffff;"/>
   </g>
   <g id="matplotlib.axis_1">
    <g id="xtick_1">
     <g id="line2d_1">
      <path clip-path="url(#pac9b21c79d)" d="M 62.206669 327.783595 
L 62.206669 25.902366 
" style="fill:none;stroke:#b0b0b0;stroke-dasharray:0.8,1.32;stroke-dashoffset:0;stroke-width:0.8;"/>
     </g>
     <g id="line2d_2">
      <defs>
       <path d="M 0 0 
L 0 3.5 
" id="m4dde7dd925" style="stroke:#000000;stroke-width:0.8;"/>
      </defs>
      <g>
       <use style="stroke:#000000;stroke-width:0.8;" x="62.206669" xlink:href="#m4dde7dd925" y="327.783595"/>
      </g>
     </g>
     <g id="text_1">
      <!-- $\mathdefault{−15}$ -->
      <g transform="translate(53.350962 340.871878)scale(0.1 -0.1)">
       <defs>
        <path d="M 65.90625 23 
C 67.59375 23 69.40625 23 69.40625 25 
C 69.40625 27 67.59375 27 65.90625 27 
L 11.796875 27 
C 10.09375 27 8.296875 27 8.296875 25 
C 8.296875 23 10.09375 23 11.796875 23 
z
" id="CMSY10-0"/>
        <path d="M 26.59375 63.796875 
C 26.59375 65.890625 26.5 66 25.09375 66 
C 21.203125 61.359375 15.296875 59.890625 9.703125 59.6875 
C 9.40625 59.6875 8.90625 59.6875 8.796875 59.5 
C 8.703125 59.296875 8.703125 59.09375 8.703125 57 
C 11.796875 57 17 57.59375 21 59.984375 
L 21 7.296875 
C 21 3.796875 20.796875 2.59375 12.203125 2.59375 
L 9.203125 2.59375 
L 9.203125 0 
C 14 0.09375 19 0.1875 23.796875 0.1875 
C 28.59375 0.1875 33.59375 0.09375 38.40625 0 
L 38.40625 2.59375 
L 35.40625 2.59375 
C 26.796875 2.59375 26.59375 3.6875 26.59375 7.296875 
z
" id="CMR17-49"/>
        <path d="M 11.40625 58.59375 
C 12.40625 58.1875 16.5 56.890625 20.703125 56.890625 
C 30 56.890625 35.09375 61.890625 38 64.6875 
C 38 65.484375 38 66 37.40625 66 
C 37.296875 66 37.09375 66 36.296875 65.59375 
C 32.796875 64.09375 28.703125 63 23.703125 63 
C 20.703125 63 16.203125 63.359375 11.296875 65.484375 
C 10.203125 66 10 66 9.90625 66 
C 9.40625 66 9.296875 65.890625 9.296875 63.90625 
L 9.296875 34.859375 
C 9.296875 33.015625 9.296875 32.5 10.296875 32.5 
C 10.796875 32.5 11 32.703125 11.5 33.421875 
C 14.703125 38.046875 19.09375 40 24.09375 40 
C 27.59375 40 35.09375 37.734375 35.09375 20.203125 
C 35.09375 16.984375 35.09375 11.1875 32.09375 6.59375 
C 29.59375 2.484375 25.703125 0.390625 21.40625 0.390625 
C 14.796875 0.390625 8.09375 4.984375 6.296875 12.6875 
C 6.703125 12.59375 7.5 12.390625 7.90625 12.390625 
C 9.203125 12.390625 11.703125 13.09375 11.703125 16.1875 
C 11.703125 18.890625 9.796875 20 7.90625 20 
C 5.59375 20 4.09375 18.59375 4.09375 15.796875 
C 4.09375 7.09375 11 -2 21.59375 -2 
C 31.90625 -2 41.703125 6.890625 41.703125 19.796875 
C 41.703125 32.09375 33.90625 41.59375 24.203125 41.59375 
C 19.09375 41.59375 14.796875 39.6875 11.40625 36 
z
" id="CMR17-53"/>
       </defs>
       <use transform="scale(0.996264)" xlink:href="#CMSY10-0"/>
       <use transform="translate(77.487468 0)scale(0.996264)" xlink:href="#CMR17-49"/>
       <use transform="translate(123.177945 0)scale(0.996264)" xlink:href="#CMR17-53"/>
      </g>
     </g>
    </g>
    <g id="xtick_2">
     <g id="line2d_3">
      <path clip-path="url(#pac9b21c79d)" d="M 109.020116 327.783595 
L 109.020116 25.902366 
" style="fill:none;stroke:#b0b0b0;stroke-dasharray:0.8,1.32;stroke-dashoffset:0;stroke-width:0.8;"/>
     </g>
     <g id="line2d_4">
      <g>
       <use style="stroke:#000000;stroke-width:0.8;" x="109.020116" xlink:href="#m4dde7dd925" y="327.783595"/>
      </g>
     </g>
     <g id="text_2">
      <!-- $\mathdefault{−10}$ -->
      <g transform="translate(100.164409 340.871878)scale(0.1 -0.1)">
       <defs>
        <path d="M 42 31.84375 
C 42 37.96875 41.90625 48.421875 37.703125 56.453125 
C 34 63.484375 28.09375 66 22.90625 66 
C 18.09375 66 12 63.78125 8.203125 56.5625 
C 4.203125 49.015625 3.796875 39.671875 3.796875 31.84375 
C 3.796875 26.109375 3.90625 17.375 7 9.734375 
C 11.296875 -0.609375 19 -2 22.90625 -2 
C 27.5 -2 34.5 -0.109375 38.59375 9.4375 
C 41.59375 16.375 42 24.5 42 31.84375 
z
M 22.90625 -0.40625 
C 16.5 -0.40625 12.703125 5.125 11.296875 12.75 
C 10.203125 18.6875 10.203125 27.328125 10.203125 32.953125 
C 10.203125 40.6875 10.203125 47.109375 11.5 53.234375 
C 13.40625 61.78125 19 64.390625 22.90625 64.390625 
C 27 64.390625 32.296875 61.671875 34.203125 53.4375 
C 35.5 47.71875 35.59375 40.984375 35.59375 32.953125 
C 35.59375 26.421875 35.59375 18.375 34.40625 12.453125 
C 32.296875 1.5 26.40625 -0.40625 22.90625 -0.40625 
z
" id="CMR17-48"/>
       </defs>
       <use transform="scale(0.996264)" xlink:href="#CMSY10-0"/>
       <use transform="translate(77.487468 0)scale(0.996264)" xlink:href="#CMR17-49"/>
       <use transform="translate(123.177945 0)scale(0.996264)" xlink:href="#CMR17-48"/>
      </g>
     </g>
    </g>
    <g id="xtick_3">
     <g id="line2d_5">
      <path clip-path="url(#pac9b21c79d)" d="M 155.833563 327.783595 
L 155.833563 25.902366 
" style="fill:none;stroke:#b0b0b0;stroke-dasharray:0.8,1.32;stroke-dashoffset:0;stroke-width:0.8;"/>
     </g>
     <g id="line2d_6">
      <g>
       <use style="stroke:#000000;stroke-width:0.8;" x="155.833563" xlink:href="#m4dde7dd925" y="327.783595"/>
      </g>
     </g>
     <g id="text_3">
      <!-- $\mathdefault{−5}$ -->
      <g transform="translate(149.468524 340.871878)scale(0.1 -0.1)">
       <use transform="scale(0.996264)" xlink:href="#CMSY10-0"/>
       <use transform="translate(77.487468 0)scale(0.996264)" xlink:href="#CMR17-53"/>
      </g>
     </g>
    </g>
    <g id="xtick_4">
     <g id="line2d_7">
      <path clip-path="url(#pac9b21c79d)" d="M 202.64701 327.783595 
L 202.64701 25.902366 
" style="fill:none;stroke:#b0b0b0;stroke-dasharray:0.8,1.32;stroke-dashoffset:0;stroke-width:0.8;"/>
     </g>
     <g id="line2d_8">
      <g>
       <use style="stroke:#000000;stroke-width:0.8;" x="202.64701" xlink:href="#m4dde7dd925" y="327.783595"/>
      </g>
     </g>
     <g id="text_4">
      <!-- $\mathdefault{0}$ -->
      <g transform="translate(200.156343 340.871878)scale(0.1 -0.1)">
       <use transform="scale(0.996264)" xlink:href="#CMR17-48"/>
      </g>
     </g>
    </g>
    <g id="xtick_5">
     <g id="line2d_9">
      <path clip-path="url(#pac9b21c79d)" d="M 249.460457 327.783595 
L 249.460457 25.902366 
" style="fill:none;stroke:#b0b0b0;stroke-dasharray:0.8,1.32;stroke-dashoffset:0;stroke-width:0.8;"/>
     </g>
     <g id="line2d_10">
      <g>
       <use style="stroke:#000000;stroke-width:0.8;" x="249.460457" xlink:href="#m4dde7dd925" y="327.783595"/>
      </g>
     </g>
     <g id="text_5">
      <!-- $\mathdefault{5}$ -->
      <g transform="translate(246.96979 340.871878)scale(0.1 -0.1)">
       <use transform="scale(0.996264)" xlink:href="#CMR17-53"/>
      </g>
     </g>
    </g>
    <g id="xtick_6">
     <g id="line2d_11">
      <path clip-path="url(#pac9b21c79d)" d="M 296.273904 327.783595 
L 296.273904 25.902366 
" style="fill:none;stroke:#b0b0b0;stroke-dasharray:0.8,1.32;stroke-dashoffset:0;stroke-width:0.8;"/>
     </g>
     <g id="line2d_12">
      <g>
       <use style="stroke:#000000;stroke-width:0.8;" x="296.273904" xlink:href="#m4dde7dd925" y="327.783595"/>
      </g>
     </g>
     <g id="text_6">
      <!-- $\mathdefault{10}$ -->
      <g transform="translate(291.292569 340.871878)scale(0.1 -0.1)">
       <use transform="scale(0.996264)" xlink:href="#CMR17-49"/>
       <use transform="translate(45.690477 0)scale(0.996264)" xlink:href="#CMR17-48"/>
      </g>
     </g>
    </g>
    <g id="xtick_7">
     <g id="line2d_13">
      <path clip-path="url(#pac9b21c79d)" d="M 343.087351 327.783595 
L 343.087351 25.902366 
" style="fill:none;stroke:#b0b0b0;stroke-dasharray:0.8,1.32;stroke-dashoffset:0;stroke-width:0.8;"/>
     </g>
     <g id="line2d_14">
      <g>
       <use style="stroke:#000000;stroke-width:0.8;" x="343.087351" xlink:href="#m4dde7dd925" y="327.783595"/>
      </g>
     </g>
     <g id="text_7">
      <!-- $\mathdefault{15}$ -->
      <g transform="translate(338.106016 340.871878)scale(0.1 -0.1)">
       <use transform="scale(0.996264)" xlink:href="#CMR17-49"/>
       <use transform="translate(45.690477 0)scale(0.996264)" xlink:href="#CMR17-53"/>
      </g>
     </g>
    </g>
    <g id="text_8">
     <!-- Index j -->
     <g transform="translate(167.462369 357.435863)scale(0.17 -0.17)">
      <defs>
       <path d="M 29 55.1875 
L 39.203125 55.1875 
C 40.59375 55.1875 43.203125 55.1875 43.203125 58.09375 
C 43.203125 61 40.59375 61 39.203125 61 
L 12.296875 61 
C 10.90625 61 8.296875 61 8.296875 58.09375 
C 8.296875 55.1875 10.90625 55.1875 12.296875 55.1875 
L 22.5 55.1875 
L 22.5 5.796875 
L 12.296875 5.796875 
C 10.90625 5.796875 8.296875 5.796875 8.296875 2.890625 
C 8.296875 0 10.90625 0 12.296875 0 
L 39.203125 0 
C 40.59375 0 43.203125 0 43.203125 2.890625 
C 43.203125 5.796875 40.59375 5.796875 39.203125 5.796875 
L 29 5.796875 
z
" id="CMTT12-73"/>
       <path d="M 41.796875 29.515625 
C 41.796875 39.390625 37.203125 44 29 44 
C 22.203125 44 17.796875 40.1875 16.09375 38.296875 
C 16.09375 41.984375 16.09375 43.390625 12.09375 43.390625 
L 5.5 43.390625 
C 4.09375 43.390625 1.5 43.390625 1.5 40.484375 
C 1.5 37.59375 4.09375 37.59375 5.5 37.59375 
L 9.59375 37.59375 
L 9.59375 5.796875 
L 5.5 5.796875 
C 4.09375 5.796875 1.5 5.796875 1.5 2.890625 
C 1.5 0 4.09375 0 5.5 0 
L 20.203125 0 
C 21.59375 0 24.203125 0 24.203125 2.890625 
C 24.203125 5.796875 21.59375 5.796875 20.203125 5.796875 
L 16.09375 5.796875 
L 16.09375 24.0625 
C 16.09375 33.859375 22.90625 38.1875 28.296875 38.1875 
C 34.09375 38.1875 35.296875 34.859375 35.296875 29.109375 
L 35.296875 5.796875 
L 31.203125 5.796875 
C 29.796875 5.796875 27.203125 5.796875 27.203125 2.890625 
C 27.203125 0 29.796875 0 31.203125 0 
L 45.90625 0 
C 47.296875 0 49.90625 0 49.90625 2.890625 
C 49.90625 5.796875 47.296875 5.796875 45.90625 5.796875 
L 41.796875 5.796875 
z
" id="CMTT12-110"/>
       <path d="M 41.796875 56.890625 
C 41.796875 59.984375 41.203125 61 37.796875 61 
L 31.203125 61 
C 29.796875 61 27.203125 61 27.203125 58.09375 
C 27.203125 55.1875 29.796875 55.1875 31.203125 55.1875 
L 35.296875 55.1875 
L 35.296875 38.984375 
C 33.703125 40.59375 29.59375 44 23.5 44 
C 12.90625 44 3.703125 34.3125 3.703125 21.4375 
C 3.703125 8.875 12.296875 -1 22.59375 -1 
C 29.09375 -1 33.40625 2.890625 35.296875 5.09375 
C 35.296875 0.890625 35.296875 -0.40625 39.296875 -0.40625 
L 45.90625 -0.40625 
C 47.296875 -0.40625 49.90625 -0.40625 49.90625 2.5 
C 49.90625 5.40625 47.296875 5.40625 45.90625 5.40625 
L 41.796875 5.40625 
z
M 35.296875 18.890625 
C 35.296875 13.171875 30.703125 4.796875 23.203125 4.796875 
C 16 4.796875 10.203125 12.25 10.203125 21.4375 
C 10.203125 31.25 17 38.1875 24.09375 38.1875 
C 30.59375 38.1875 35.296875 32.171875 35.296875 26.859375 
z
" id="CMTT12-100"/>
       <path d="M 41.59375 19 
C 43.703125 19 45.59375 19 45.59375 22.6875 
C 45.59375 34.53125 39 44 26.5 44 
C 14.90625 44 5.59375 33.921875 5.59375 21.59375 
C 5.59375 8.84375 15.703125 -1 28 -1 
C 40.90625 -1 45.59375 7.9375 45.59375 10.578125 
C 45.59375 11.1875 45.40625 13.40625 42.296875 13.40625 
C 40.40625 13.40625 39.796875 12.703125 39.203125 11.1875 
C 36.703125 5.296875 30.203125 4.796875 28.296875 4.796875 
C 20 4.796875 13.40625 11.1875 12.296875 19 
z
M 12.40625 24.5 
C 13.703125 33.125 20.203125 38.1875 26.5 38.1875 
C 36.5 38.1875 38.59375 29.5625 39 24.5 
z
" id="CMTT12-101"/>
       <path d="M 28.203125 22.140625 
L 39.703125 37.1875 
L 43.203125 37.1875 
C 44.59375 37.1875 47.203125 37.1875 47.203125 40.09375 
C 47.203125 43 44.59375 43 43.203125 43 
L 32.09375 43 
C 30.703125 43 28.09375 43 28.09375 40.09375 
C 28.09375 37.1875 30.5 37.1875 32.90625 37.1875 
L 25.40625 26.921875 
L 17.703125 37.1875 
C 20 37.1875 22.40625 37.1875 22.40625 40.09375 
C 22.40625 43 19.796875 43 18.40625 43 
L 7.296875 43 
C 5.90625 43 3.296875 43 3.296875 40.09375 
C 3.296875 37.1875 5.90625 37.1875 7.296875 37.1875 
L 10.796875 37.1875 
L 22.703125 22.140625 
L 10.203125 5.796875 
L 6.796875 5.796875 
C 5.40625 5.796875 2.703125 5.796875 2.703125 2.890625 
C 2.703125 0 5.40625 0 6.796875 0 
L 17.796875 0 
C 19.203125 0 21.796875 0 21.796875 2.890625 
C 21.796875 5.796875 19.5 5.796875 16.796875 5.796875 
L 25.40625 18.359375 
L 34.40625 5.796875 
C 31.90625 5.796875 29.5 5.796875 29.5 2.890625 
C 29.5 0 32.09375 0 33.5 0 
L 44.59375 0 
C 46 0 48.59375 0 48.59375 2.890625 
C 48.59375 5.796875 46 5.796875 44.59375 5.796875 
L 41.09375 5.796875 
z
" id="CMTT12-120"/>
       <path d="M 36 56.484375 
C 36 58.984375 34 61 31.5 61 
C 29 61 27 58.984375 27 56.484375 
C 27 53.984375 29 51.984375 31.5 51.984375 
C 34 51.984375 36 53.984375 36 56.484375 
z
M 17.296875 43 
C 15.90625 43 13.296875 43 13.296875 40.09375 
C 13.296875 37.1875 15.703125 37.1875 17.296875 37.1875 
L 29.5 37.1875 
L 29.5 -4.078125 
C 29.5 -5.6875 29.5 -10 26.703125 -13.703125 
C 24 -17.203125 21.203125 -17.203125 18.796875 -17.203125 
C 16.796875 -17.203125 14.40625 -17.109375 12.703125 -16.703125 
C 12.703125 -15.296875 12.703125 -11.59375 8.796875 -11.59375 
C 7 -11.59375 4.703125 -12.90625 4.703125 -15.8125 
C 4.703125 -23 14.5 -23 18.5 -23 
C 22.09375 -23 26.203125 -23 31.203125 -17.90625 
C 32.203125 -16.90625 36 -12.296875 36 -4.578125 
L 36 38.890625 
C 36 41.984375 35.40625 43 32 43 
z
" id="CMTT12-106"/>
      </defs>
      <use transform="scale(0.996264)" xlink:href="#CMTT12-73"/>
      <use transform="translate(51.266111 0)scale(0.996264)" xlink:href="#CMTT12-110"/>
      <use transform="translate(102.532222 0)scale(0.996264)" xlink:href="#CMTT12-100"/>
      <use transform="translate(153.798333 0)scale(0.996264)" xlink:href="#CMTT12-101"/>
      <use transform="translate(205.064443 0)scale(0.996264)" xlink:href="#CMTT12-120"/>
      <use transform="translate(307.596665 0)scale(0.996264)" xlink:href="#CMTT12-106"/>
     </g>
    </g>
   </g>
   <g id="matplotlib.axis_2">
    <g id="ytick_1">
     <g id="line2d_15">
      <path clip-path="url(#pac9b21c79d)" d="M 38.331811 286.245317 
L 357.59952 286.245317 
" style="fill:none;stroke:#b0b0b0;stroke-dasharray:0.8,1.32;stroke-dashoffset:0;stroke-width:0.8;"/>
     </g>
     <g id="line2d_16">
      <defs>
       <path d="M 0 0 
L -3.5 0 
" id="m3833bcb66d" style="stroke:#000000;stroke-width:0.8;"/>
      </defs>
      <g>
       <use style="stroke:#000000;stroke-width:0.8;" x="38.331811" xlink:href="#m3833bcb66d" y="286.245317"/>
      </g>
     </g>
     <g id="text_9">
      <!-- $\mathdefault{10^{-17}}$ -->
      <g transform="translate(7.2 289.289459)scale(0.1 -0.1)">
       <defs>
        <path d="M 45.09375 61.796875 
L 45.09375 64 
L 21.59375 64 
C 9.90625 64 9.703125 65.09375 9.296875 67 
L 7.5 67 
L 4.59375 48.5 
L 6.40625 48.5 
C 6.703125 50.40625 7.40625 55.5 8.59375 57.390625 
C 9.203125 58.1875 16.59375 58.1875 18.296875 58.1875 
L 40.296875 58.1875 
L 29.203125 41.71875 
C 21.796875 30.640625 16.703125 15.671875 16.703125 2.59375 
C 16.703125 1.390625 16.703125 -2 20.296875 -2 
C 23.90625 -2 23.90625 1.390625 23.90625 2.6875 
L 23.90625 7.28125 
C 23.90625 23.65625 26.703125 34.4375 31.296875 41.3125 
z
" id="CMR17-55"/>
       </defs>
       <use transform="scale(0.996264)" xlink:href="#CMR17-49"/>
       <use transform="translate(45.690477 0)scale(0.996264)" xlink:href="#CMR17-48"/>
       <use transform="translate(91.380954 36.153639)scale(0.697382)" xlink:href="#CMSY10-0"/>
       <use transform="translate(145.621947 36.153639)scale(0.697382)" xlink:href="#CMR17-49"/>
       <use transform="translate(177.605129 36.153639)scale(0.697382)" xlink:href="#CMR17-55"/>
      </g>
     </g>
    </g>
    <g id="ytick_2">
     <g id="line2d_17">
      <path clip-path="url(#pac9b21c79d)" d="M 38.331811 242.116825 
L 357.59952 242.116825 
" style="fill:none;stroke:#b0b0b0;stroke-dasharray:0.8,1.32;stroke-dashoffset:0;stroke-width:0.8;"/>
     </g>
     <g id="line2d_18">
      <g>
       <use style="stroke:#000000;stroke-width:0.8;" x="38.331811" xlink:href="#m3833bcb66d" y="242.116825"/>
      </g>
     </g>
     <g id="text_10">
      <!-- $\mathdefault{10^{-14}}$ -->
      <g transform="translate(7.2 245.160967)scale(0.1 -0.1)">
       <defs>
        <path d="M 33.59375 64.796875 
C 33.59375 66.890625 33.5 67 31.703125 67 
L 2 19.59375 
L 2 17 
L 27.796875 17 
L 27.796875 7.1875 
C 27.796875 3.59375 27.59375 2.59375 20.59375 2.59375 
L 18.703125 2.59375 
L 18.703125 0 
C 21.90625 0.1875 27.296875 0.1875 30.703125 0.1875 
C 34.09375 0.1875 39.5 0.1875 42.703125 0 
L 42.703125 2.59375 
L 40.796875 2.59375 
C 33.796875 2.59375 33.59375 3.59375 33.59375 7.1875 
L 33.59375 17 
L 43.796875 17 
L 43.796875 19.59375 
L 33.59375 19.59375 
z
M 28.09375 58.171875 
L 28.09375 19.59375 
L 4 19.59375 
z
" id="CMR17-52"/>
       </defs>
       <use transform="scale(0.996264)" xlink:href="#CMR17-49"/>
       <use transform="translate(45.690477 0)scale(0.996264)" xlink:href="#CMR17-48"/>
       <use transform="translate(91.380954 36.153639)scale(0.697382)" xlink:href="#CMSY10-0"/>
       <use transform="translate(145.621947 36.153639)scale(0.697382)" xlink:href="#CMR17-49"/>
       <use transform="translate(177.605129 36.153639)scale(0.697382)" xlink:href="#CMR17-52"/>
      </g>
     </g>
    </g>
    <g id="ytick_3">
     <g id="line2d_19">
      <path clip-path="url(#pac9b21c79d)" d="M 38.331811 197.988333 
L 357.59952 197.988333 
" style="fill:none;stroke:#b0b0b0;stroke-dasharray:0.8,1.32;stroke-dashoffset:0;stroke-width:0.8;"/>
     </g>
     <g id="line2d_20">
      <g>
       <use style="stroke:#000000;stroke-width:0.8;" x="38.331811" xlink:href="#m3833bcb66d" y="197.988333"/>
      </g>
     </g>
     <g id="text_11">
      <!-- $\mathdefault{10^{-11}}$ -->
      <g transform="translate(7.2 201.032475)scale(0.1 -0.1)">
       <use transform="scale(0.996264)" xlink:href="#CMR17-49"/>
       <use transform="translate(45.690477 0)scale(0.996264)" xlink:href="#CMR17-48"/>
       <use transform="translate(91.380954 36.153639)scale(0.697382)" xlink:href="#CMSY10-0"/>
       <use transform="translate(145.621947 36.153639)scale(0.697382)" xlink:href="#CMR17-49"/>
       <use transform="translate(177.605129 36.153639)scale(0.697382)" xlink:href="#CMR17-49"/>
      </g>
     </g>
    </g>
    <g id="ytick_4">
     <g id="line2d_21">
      <path clip-path="url(#pac9b21c79d)" d="M 38.331811 153.859842 
L 357.59952 153.859842 
" style="fill:none;stroke:#b0b0b0;stroke-dasharray:0.8,1.32;stroke-dashoffset:0;stroke-width:0.8;"/>
     </g>
     <g id="line2d_22">
      <g>
       <use style="stroke:#000000;stroke-width:0.8;" x="38.331811" xlink:href="#m3833bcb66d" y="153.859842"/>
      </g>
     </g>
     <g id="text_12">
      <!-- $\mathdefault{10^{-8}}$ -->
      <g transform="translate(11.171238 156.903983)scale(0.1 -0.1)">
       <defs>
        <path d="M 27.203125 35.765625 
C 33.5 38.96875 39.90625 43.796875 39.90625 51.53125 
C 39.90625 60.6875 31.09375 66 23 66 
C 13.90625 66 5.90625 59.375 5.90625 50.234375 
C 5.90625 47.71875 6.5 43.390625 10.40625 39.578125 
C 11.40625 38.578125 15.59375 35.5625 18.296875 33.65625 
C 13.796875 31.34375 3.296875 25.8125 3.296875 14.765625 
C 3.296875 4.40625 13.09375 -2 22.796875 -2 
C 33.5 -2 42.5 5.71875 42.5 15.96875 
C 42.5 25.109375 36.40625 29.328125 32.40625 32.046875 
z
M 14.09375 44.609375 
C 13.296875 45.109375 9.296875 48.21875 9.296875 52.9375 
C 9.296875 59.078125 15.59375 63.6875 22.796875 63.6875 
C 30.703125 63.6875 36.5 58.0625 36.5 51.53125 
C 36.5 42.1875 26.09375 36.859375 25.59375 36.859375 
C 25.5 36.859375 25.40625 36.859375 24.59375 37.46875 
z
M 32.5 24 
C 34 22.90625 38.796875 19.578125 38.796875 13.453125 
C 38.796875 6.015625 31.40625 0.390625 23 0.390625 
C 13.90625 0.390625 7 6.921875 7 14.859375 
C 7 22.796875 13.09375 29.4375 20 32.546875 
z
" id="CMR17-56"/>
       </defs>
       <use transform="scale(0.996264)" xlink:href="#CMR17-49"/>
       <use transform="translate(45.690477 0)scale(0.996264)" xlink:href="#CMR17-48"/>
       <use transform="translate(91.380954 36.153639)scale(0.697382)" xlink:href="#CMSY10-0"/>
       <use transform="translate(145.621947 36.153639)scale(0.697382)" xlink:href="#CMR17-56"/>
      </g>
     </g>
    </g>
    <g id="ytick_5">
     <g id="line2d_23">
      <path clip-path="url(#pac9b21c79d)" d="M 38.331811 109.73135 
L 357.59952 109.73135 
" style="fill:none;stroke:#b0b0b0;stroke-dasharray:0.8,1.32;stroke-dashoffset:0;stroke-width:0.8;"/>
     </g>
     <g id="line2d_24">
      <g>
       <use style="stroke:#000000;stroke-width:0.8;" x="38.331811" xlink:href="#m3833bcb66d" y="109.73135"/>
      </g>
     </g>
     <g id="text_13">
      <!-- $\mathdefault{10^{-5}}$ -->
      <g transform="translate(11.171238 112.775492)scale(0.1 -0.1)">
       <use transform="scale(0.996264)" xlink:href="#CMR17-49"/>
       <use transform="translate(45.690477 0)scale(0.996264)" xlink:href="#CMR17-48"/>
       <use transform="translate(91.380954 36.153639)scale(0.697382)" xlink:href="#CMSY10-0"/>
       <use transform="translate(145.621947 36.153639)scale(0.697382)" xlink:href="#CMR17-53"/>
      </g>
     </g>
    </g>
    <g id="ytick_6">
     <g id="line2d_25">
      <path clip-path="url(#pac9b21c79d)" d="M 38.331811 65.602858 
L 357.59952 65.602858 
" style="fill:none;stroke:#b0b0b0;stroke-dasharray:0.8,1.32;stroke-dashoffset:0;stroke-width:0.8;"/>
     </g>
     <g id="line2d_26">
      <g>
       <use style="stroke:#000000;stroke-width:0.8;" x="38.331811" xlink:href="#m3833bcb66d" y="65.602858"/>
      </g>
     </g>
     <g id="text_14">
      <!-- $\mathdefault{10^{-2}}$ -->
      <g transform="translate(11.171238 68.647)scale(0.1 -0.1)">
       <defs>
        <path d="M 41.703125 15.46875 
L 39.90625 15.46875 
C 38.90625 8.390625 38.09375 7.1875 37.703125 6.59375 
C 37.203125 5.796875 30 5.796875 28.59375 5.796875 
L 9.40625 5.796875 
C 13 9.6875 20 16.765625 28.5 24.9375 
C 34.59375 30.71875 41.703125 37.5 41.703125 47.390625 
C 41.703125 59.1875 32.296875 66 21.796875 66 
C 10.796875 66 4.09375 56.296875 4.09375 47.296875 
C 4.09375 43.390625 7 42.890625 8.203125 42.890625 
C 9.203125 42.890625 12.203125 43.484375 12.203125 46.984375 
C 12.203125 50.09375 9.59375 51 8.203125 51 
C 7.59375 51 7 50.890625 6.59375 50.6875 
C 8.5 59.1875 14.296875 63.390625 20.40625 63.390625 
C 29.09375 63.390625 34.796875 56.5 34.796875 47.390625 
C 34.796875 38.703125 29.703125 31.21875 24 24.734375 
L 4.09375 2.296875 
L 4.09375 0 
L 39.296875 0 
z
" id="CMR17-50"/>
       </defs>
       <use transform="scale(0.996264)" xlink:href="#CMR17-49"/>
       <use transform="translate(45.690477 0)scale(0.996264)" xlink:href="#CMR17-48"/>
       <use transform="translate(91.380954 36.153639)scale(0.697382)" xlink:href="#CMSY10-0"/>
       <use transform="translate(145.621947 36.153639)scale(0.697382)" xlink:href="#CMR17-50"/>
      </g>
     </g>
    </g>
   </g>
   <g id="line2d_27">
    <path clip-path="url(#pac9b21c79d)" d="M 117.278886 369.39952 
L 118.382805 360.571721 
L 127.745495 293.58159 
L 137.108184 234.472651 
L 146.470874 183.244904 
L 155.833563 139.898349 
L 165.196253 104.432986 
L 174.558942 76.848814 
L 183.921631 57.145835 
L 193.284321 45.324047 
L 202.64701 41.383451 
L 212.0097 45.324047 
L 221.372389 57.145835 
L 230.735078 76.848814 
L 240.097768 104.432986 
L 249.460457 139.898349 
L 258.823147 183.244904 
L 268.185836 234.472651 
L 277.548526 293.58159 
L 286.911215 360.571721 
L 288.015135 369.39952 
" style="fill:none;stroke:#1f77b4;stroke-linecap:square;stroke-opacity:0.85;stroke-width:3;"/>
   </g>
   <g id="line2d_28">
    <defs>
     <path d="M -3 3 
L 3 -3 
M -3 -3 
L 3 3 
" id="m2817be50d1" style="stroke:#ff7f0e;"/>
    </defs>
    <g clip-path="url(#pac9b21c79d)">
     <use style="fill:#ff7f0e;stroke:#ff7f0e;" x="52.84398" xlink:href="#m2817be50d1" y="92.81664"/>
     <use style="fill:#ff7f0e;stroke:#ff7f0e;" x="62.206669" xlink:href="#m2817be50d1" y="92.757423"/>
     <use style="fill:#ff7f0e;stroke:#ff7f0e;" x="71.569358" xlink:href="#m2817be50d1" y="92.578771"/>
     <use style="fill:#ff7f0e;stroke:#ff7f0e;" x="80.932048" xlink:href="#m2817be50d1" y="92.277614"/>
     <use style="fill:#ff7f0e;stroke:#ff7f0e;" x="90.294737" xlink:href="#m2817be50d1" y="91.848628"/>
     <use style="fill:#ff7f0e;stroke:#ff7f0e;" x="99.657427" xlink:href="#m2817be50d1" y="91.283916"/>
     <use style="fill:#ff7f0e;stroke:#ff7f0e;" x="109.020116" xlink:href="#m2817be50d1" y="90.572508"/>
     <use style="fill:#ff7f0e;stroke:#ff7f0e;" x="118.382805" xlink:href="#m2817be50d1" y="89.699706"/>
     <use style="fill:#ff7f0e;stroke:#ff7f0e;" x="127.745495" xlink:href="#m2817be50d1" y="88.646276"/>
     <use style="fill:#ff7f0e;stroke:#ff7f0e;" x="137.108184" xlink:href="#m2817be50d1" y="87.387787"/>
     <use style="fill:#ff7f0e;stroke:#ff7f0e;" x="146.470874" xlink:href="#m2817be50d1" y="85.895166"/>
     <use style="fill:#ff7f0e;stroke:#ff7f0e;" x="155.833563" xlink:href="#m2817be50d1" y="84.139125"/>
     <use style="fill:#ff7f0e;stroke:#ff7f0e;" x="165.196253" xlink:href="#m2817be50d1" y="82.313976"/>
     <use style="fill:#ff7f0e;stroke:#ff7f0e;" x="174.558942" xlink:href="#m2817be50d1" y="73.766179"/>
     <use style="fill:#ff7f0e;stroke:#ff7f0e;" x="183.921631" xlink:href="#m2817be50d1" y="57.405011"/>
     <use style="fill:#ff7f0e;stroke:#ff7f0e;" x="193.284321" xlink:href="#m2817be50d1" y="45.272776"/>
     <use style="fill:#ff7f0e;stroke:#ff7f0e;" x="202.64701" xlink:href="#m2817be50d1" y="41.414093"/>
     <use style="fill:#ff7f0e;stroke:#ff7f0e;" x="212.0097" xlink:href="#m2817be50d1" y="45.272776"/>
     <use style="fill:#ff7f0e;stroke:#ff7f0e;" x="221.372389" xlink:href="#m2817be50d1" y="57.405011"/>
     <use style="fill:#ff7f0e;stroke:#ff7f0e;" x="230.735078" xlink:href="#m2817be50d1" y="73.766179"/>
     <use style="fill:#ff7f0e;stroke:#ff7f0e;" x="240.097768" xlink:href="#m2817be50d1" y="82.313976"/>
     <use style="fill:#ff7f0e;stroke:#ff7f0e;" x="249.460457" xlink:href="#m2817be50d1" y="84.139125"/>
     <use style="fill:#ff7f0e;stroke:#ff7f0e;" x="258.823147" xlink:href="#m2817be50d1" y="85.895166"/>
     <use style="fill:#ff7f0e;stroke:#ff7f0e;" x="268.185836" xlink:href="#m2817be50d1" y="87.387787"/>
     <use style="fill:#ff7f0e;stroke:#ff7f0e;" x="277.548526" xlink:href="#m2817be50d1" y="88.646276"/>
     <use style="fill:#ff7f0e;stroke:#ff7f0e;" x="286.911215" xlink:href="#m2817be50d1" y="89.699706"/>
     <use style="fill:#ff7f0e;stroke:#ff7f0e;" x="296.273904" xlink:href="#m2817be50d1" y="90.572508"/>
     <use style="fill:#ff7f0e;stroke:#ff7f0e;" x="305.636594" xlink:href="#m2817be50d1" y="91.283916"/>
     <use style="fill:#ff7f0e;stroke:#ff7f0e;" x="314.999283" xlink:href="#m2817be50d1" y="91.848628"/>
     <use style="fill:#ff7f0e;stroke:#ff7f0e;" x="324.361973" xlink:href="#m2817be50d1" y="92.277614"/>
     <use style="fill:#ff7f0e;stroke:#ff7f0e;" x="333.724662" xlink:href="#m2817be50d1" y="92.578771"/>
     <use style="fill:#ff7f0e;stroke:#ff7f0e;" x="343.087351" xlink:href="#m2817be50d1" y="92.757423"/>
    </g>
   </g>
   <g id="patch_3">
    <path d="M 38.331811 327.783595 
L 38.331811 25.902366 
" style="fill:none;stroke:#000000;stroke-linecap:square;stroke-linejoin:miter;stroke-width:0.8;"/>
   </g>
   <g id="patch_4">
    <path d="M 357.59952 327.783595 
L 357.59952 25.902366 
" style="fill:none;stroke:#000000;stroke-linecap:square;stroke-linejoin:miter;stroke-width:0.8;"/>
   </g>
   <g id="patch_5">
    <path d="M 38.331811 327.783595 
L 357.59952 327.783595 
" style="fill:none;stroke:#000000;stroke-linecap:square;stroke-linejoin:miter;stroke-width:0.8;"/>
   </g>
   <g id="patch_6">
    <path d="M 38.331811 25.902366 
L 357.59952 25.902366 
" style="fill:none;stroke:#000000;stroke-linecap:square;stroke-linejoin:miter;stroke-width:0.8;"/>
   </g>
   <g id="text_15">
    <!-- $L \, / \, \sigma \,=\, 4$ -->
    <g transform="translate(162.832074 19.902366)scale(0.17 -0.17)">
     <defs>
      <path d="M 36.703125 60.3125 
C 37.59375 64.09375 37.90625 65.09375 46.703125 65.09375 
C 49.40625 65.09375 50.09375 65.09375 50.09375 66.984375 
C 50.09375 68 49 68 48.59375 68 
C 46.59375 68 44.296875 67.796875 42.296875 67.796875 
L 28.90625 67.796875 
C 27 67.796875 24.796875 68 22.90625 68 
C 22.09375 68 21 68 21 66.09375 
C 21 65.09375 21.90625 65.09375 23.40625 65.09375 
C 29.5 65.09375 29.5 64.296875 29.5 63.203125 
C 29.5 63 29.5 62.40625 29.09375 60.90625 
L 15.59375 7.375 
C 14.703125 3.890625 14.5 2.890625 7.5 2.890625 
C 5.59375 2.890625 4.59375 2.890625 4.59375 1.09375 
C 4.59375 0 5.203125 0 7.203125 0 
L 52 0 
C 54.203125 0 54.296875 0.09375 55 1.890625 
L 62.703125 23.09375 
C 62.90625 23.59375 63.09375 24.1875 63.09375 24.484375 
C 63.09375 25.078125 62.59375 25.484375 62.09375 25.484375 
C 62 25.484375 61.5 25.484375 61.296875 25.078125 
C 61.09375 24.984375 61.09375 24.78125 60.296875 22.890625 
C 57.09375 14.140625 52.59375 2.890625 35.703125 2.890625 
L 26.09375 2.890625 
C 24.703125 2.890625 24.5 2.890625 23.90625 2.984375 
C 22.796875 3.09375 22.703125 3.296875 22.703125 4.09375 
C 22.703125 4.78125 22.90625 5.375 23.09375 6.28125 
z
" id="CMMI12-76"/>
      <path d="M 42.90625 71.296875 
C 42.90625 71.390625 43.5 72.890625 43.5 73.09375 
C 43.5 74.296875 42.5 75 41.703125 75 
C 41.203125 75 40.296875 75 39.5 72.796875 
L 6 -21.3125 
C 6 -21.40625 5.40625 -22.90625 5.40625 -23.109375 
C 5.40625 -24.3125 6.40625 -25 7.203125 -25 
C 7.796875 -25 8.703125 -24.90625 9.40625 -22.8125 
z
" id="CMMI12-61"/>
      <path d="M 50.796875 37.59375 
C 52.09375 37.59375 55.40625 37.59375 55.40625 40.796875 
C 55.40625 43 53.5 43 51.703125 43 
L 29.59375 43 
C 14.59375 43 3.796875 26.328125 3.796875 14.5625 
C 3.796875 6.078125 9.296875 -1 18.296875 -1 
C 30.09375 -1 43 11.65625 43 26.625 
C 43 30.515625 42.09375 34.296875 39.703125 37.59375 
z
M 18.40625 1 
C 13.296875 1 9.59375 4.875 9.59375 11.765625 
C 9.59375 17.75 13.203125 37.59375 27.90625 37.59375 
C 32.203125 37.59375 37 35.5 37 27.8125 
C 37 24.328125 35.40625 15.953125 31.90625 10.171875 
C 28.296875 4.28125 22.90625 1 18.40625 1 
z
" id="CMMI12-27"/>
      <path d="M 64.296875 32 
C 65.796875 32 67.296875 32 67.296875 33.6875 
C 67.296875 35.5 65.59375 35.5 63.90625 35.5 
L 8 35.5 
C 6.296875 35.5 4.59375 35.5 4.59375 33.6875 
C 4.59375 32 6.09375 32 7.59375 32 
z
M 63.90625 14.484375 
C 65.59375 14.484375 67.296875 14.484375 67.296875 16.296875 
C 67.296875 18 65.796875 18 64.296875 18 
L 7.59375 18 
C 6.09375 18 4.59375 18 4.59375 16.296875 
C 4.59375 14.484375 6.296875 14.484375 8 14.484375 
z
" id="CMR17-61"/>
     </defs>
     <use transform="scale(0.996264)" xlink:href="#CMMI12-76"/>
     <use transform="translate(82.975281 0)scale(0.996264)" xlink:href="#CMMI12-61"/>
     <use transform="translate(148.354605 0)scale(0.996264)" xlink:href="#CMMI12-27"/>
     <use transform="translate(251.653072 0)scale(0.996264)" xlink:href="#CMR17-61"/>
     <use transform="translate(367.646275 0)scale(0.996264)" xlink:href="#CMR17-52"/>
    </g>
   </g>
   <g id="legend_1">
    <g id="patch_7">
     <path d="M 135.516101 320.283595 
L 260.41523 320.283595 
Q 263.41523 320.283595 263.41523 317.283595 
L 263.41523 274.187158 
Q 263.41523 271.187158 260.41523 271.187158 
L 135.516101 271.187158 
Q 132.516101 271.187158 132.516101 274.187158 
L 132.516101 317.283595 
Q 132.516101 320.283595 135.516101 320.283595 
z
" style="fill:#ffffff;opacity:0.8;stroke:#cccccc;stroke-linejoin:miter;"/>
    </g>
    <g id="line2d_29">
     <path d="M 138.516101 283.414501 
L 168.516101 283.414501 
" style="fill:none;stroke:#1f77b4;stroke-linecap:square;stroke-opacity:0.85;stroke-width:3;"/>
    </g>
    <g id="line2d_30"/>
    <g id="text_16">
     <!-- Analytical -->
     <g transform="translate(180.516101 288.664501)scale(0.15 -0.15)">
      <defs>
       <path d="M 30.796875 59.375 
C 30 63 28 63 25.703125 63 
C 22.59375 63 21.40625 62.59375 20.703125 59.375 
L 8.296875 5.796875 
C 5 5.796875 2.703125 5.796875 2.703125 2.890625 
C 2.703125 0 5.40625 0 6.796875 0 
L 16.40625 0 
C 17.796875 0 20.5 0 20.5 2.890625 
C 20.5 5.796875 18.09375 5.796875 15 5.796875 
L 17.59375 17 
L 33.796875 17 
L 36.40625 5.796875 
C 33.296875 5.796875 30.90625 5.796875 30.90625 2.890625 
C 30.90625 0 33.59375 0 35 0 
L 44.59375 0 
C 46 0 48.703125 0 48.703125 2.890625 
C 48.703125 5.796875 46.40625 5.796875 43.09375 5.796875 
z
M 18.90625 22.796875 
C 19.59375 25.828125 25.09375 49.75 25.59375 54.609375 
L 25.703125 54.609375 
C 26 52.28125 27.40625 46.09375 27.40625 46 
L 32.5 22.796875 
z
" id="CMTT12-65"/>
       <path d="M 41.40625 28.578125 
C 41.40625 36.03125 35.703125 44 22.203125 44 
C 18 44 8.296875 44 8.296875 37.109375 
C 8.296875 34.46875 10.203125 33 12.40625 33 
C 13 33 16.296875 33.1875 16.40625 37.3125 
C 16.40625 37.796875 16.5 37.890625 18.59375 38.09375 
C 19.796875 38.1875 21.09375 38.1875 22.296875 38.1875 
C 24.59375 38.1875 28 38.1875 31.296875 35.734375 
C 34.90625 33 34.90625 30.25 34.90625 27.390625 
C 29 27.1875 23.203125 26.796875 17 24.796875 
C 12 23.09375 5.59375 19.40625 5.59375 12.359375 
C 5.59375 5 11.90625 -1 21.203125 -1 
C 24.40625 -1 30.59375 -0.5 35.796875 3.09375 
C 37.796875 -0.203125 42.796875 -0.40625 46.59375 -0.40625 
C 49 -0.40625 51.40625 -0.40625 51.40625 2.5 
C 51.40625 5.421875 48.796875 5.421875 47.40625 5.421875 
C 44.796875 5.421875 42.796875 5.625 41.40625 6.25 
z
M 34.90625 13.078125 
C 34.90625 10.703125 34.90625 8.515625 30.796875 6.546875 
C 27.296875 4.796875 22.59375 4.796875 22.296875 4.796875 
C 16.40625 4.796875 12.09375 8.109375 12.09375 12.359375 
C 12.09375 18.46875 22.796875 22 34.90625 22 
z
" id="CMTT12-97"/>
       <path d="M 29 56.890625 
C 29 59.984375 28.40625 61 25 61 
L 10.296875 61 
C 8.90625 61 6.296875 61 6.296875 58.09375 
C 6.296875 55.1875 8.90625 55.1875 10.296875 55.1875 
L 22.5 55.1875 
L 22.5 5.796875 
L 10.296875 5.796875 
C 8.90625 5.796875 6.296875 5.796875 6.296875 2.890625 
C 6.296875 0 8.90625 0 10.296875 0 
L 41.203125 0 
C 42.59375 0 45.203125 0 45.203125 2.890625 
C 45.203125 5.796875 42.59375 5.796875 41.203125 5.796875 
L 29 5.796875 
z
" id="CMTT12-108"/>
       <path d="M 42.40625 37.1875 
L 45 37.1875 
C 46.40625 37.1875 49.09375 37.1875 49.09375 40.09375 
C 49.09375 43 46.40625 43 45 43 
L 34 43 
C 32.59375 43 29.90625 43 29.90625 40.09375 
C 29.90625 37.1875 32.59375 37.1875 34 37.1875 
L 36.5 37.1875 
C 33.703125 28.96875 28 12.234375 26.59375 6.53125 
L 26.5 6.53125 
C 26 8.734375 25.59375 9.828125 24.59375 12.546875 
L 15.296875 37.1875 
L 17.59375 37.1875 
C 19 37.1875 21.703125 37.1875 21.703125 40.09375 
C 21.703125 43 19 43 17.59375 43 
L 6.59375 43 
C 5.203125 43 2.5 43 2.5 40.09375 
C 2.5 37.1875 5.203125 37.1875 6.59375 37.1875 
L 9.296875 37.1875 
L 23.296875 1.125 
C 23.703125 0.109375 23.703125 -0.078125 23.703125 -0.1875 
C 23.703125 -0.390625 21.09375 -9.109375 19.59375 -11.90625 
C 19 -12.90625 16.5 -17.609375 11.703125 -17.109375 
C 11.796875 -16.8125 12.09375 -16.203125 12.09375 -15.109375 
C 12.09375 -12.8125 10.5 -11.203125 8.203125 -11.203125 
C 5.703125 -11.203125 4.203125 -12.90625 4.203125 -15.203125 
C 4.203125 -19 7.40625 -23 12.40625 -23 
C 22.09375 -23 26.40625 -10.109375 26.703125 -9.296875 
z
" id="CMTT12-121"/>
       <path d="M 21.59375 37.1875 
L 37.796875 37.1875 
C 39.203125 37.1875 41.796875 37.1875 41.796875 40.09375 
C 41.796875 43 39.203125 43 37.796875 43 
L 21.59375 43 
L 21.59375 50.953125 
C 21.59375 52.703125 21.59375 55 18.40625 55 
C 15.09375 55 15.09375 52.703125 15.09375 50.953125 
L 15.09375 43 
L 6.59375 43 
C 5.203125 43 2.5 43 2.5 40.09375 
C 2.5 37.1875 5.09375 37.1875 6.5 37.1875 
L 15.09375 37.1875 
L 15.09375 11.75 
C 15.09375 2.390625 21.5 -1 28.703125 -1 
C 34.09375 -1 44 1.6875 44 11.953125 
C 44 13.984375 44 16.203125 40.703125 16.203125 
C 37.5 16.203125 37.5 13.984375 37.5 11.859375 
C 37.40625 5.796875 31.703125 4.796875 29.40625 4.796875 
C 21.59375 4.796875 21.59375 9.84375 21.59375 12.265625 
z
" id="CMTT12-116"/>
       <path d="M 30.203125 56.484375 
C 30.203125 58.984375 28.203125 61 25.703125 61 
C 23.203125 61 21.203125 58.984375 21.203125 56.484375 
C 21.203125 53.984375 23.203125 51.984375 25.703125 51.984375 
C 28.203125 51.984375 30.203125 53.984375 30.203125 56.484375 
z
M 13 43 
C 11.59375 43 9 43 9 40.09375 
C 9 37.1875 11.59375 37.1875 13 37.1875 
L 23.703125 37.1875 
L 23.703125 5.796875 
L 12.296875 5.796875 
C 10.90625 5.796875 8.203125 5.796875 8.203125 2.890625 
C 8.203125 0 10.90625 0 12.296875 0 
L 40.09375 0 
C 41.5 0 44.09375 0 44.09375 2.890625 
C 44.09375 5.796875 41.5 5.796875 40.09375 5.796875 
L 30.203125 5.796875 
L 30.203125 38.890625 
C 30.203125 41.984375 29.59375 43 26.203125 43 
z
" id="CMTT12-105"/>
       <path d="M 45.59375 10.5625 
C 45.59375 13.1875 43.09375 13.1875 42.296875 13.1875 
C 40 13.1875 39.59375 12.390625 39.09375 10.96875 
C 36.90625 5.40625 32 4.796875 29.59375 4.796875 
C 21.09375 4.796875 13.90625 11.984375 13.90625 21.390625 
C 13.90625 26.546875 16.796875 38.1875 29.90625 38.1875 
C 32.59375 38.1875 34.703125 37.984375 35.59375 37.890625 
C 36.296875 37.6875 36.40625 37.578125 36.40625 37.078125 
C 36.703125 32.921875 39.796875 32.828125 40.40625 32.828125 
C 42.59375 32.828125 44.5 34.34375 44.5 37.078125 
C 44.5 44 34.40625 44 30 44 
C 12.90625 44 7.40625 29.890625 7.40625 21.390625 
C 7.40625 9.046875 16.703125 -1 28.703125 -1 
C 42.09375 -1 45.59375 8.9375 45.59375 10.5625 
z
" id="CMTT12-99"/>
      </defs>
      <use transform="scale(0.996264)" xlink:href="#CMTT12-65"/>
      <use transform="translate(51.266111 0)scale(0.996264)" xlink:href="#CMTT12-110"/>
      <use transform="translate(102.532222 0)scale(0.996264)" xlink:href="#CMTT12-97"/>
      <use transform="translate(153.798333 0)scale(0.996264)" xlink:href="#CMTT12-108"/>
      <use transform="translate(205.064443 0)scale(0.996264)" xlink:href="#CMTT12-121"/>
      <use transform="translate(256.330554 0)scale(0.996264)" xlink:href="#CMTT12-116"/>
      <use transform="translate(307.596665 0)scale(0.996264)" xlink:href="#CMTT12-105"/>
      <use transform="translate(358.862776 0)scale(0.996264)" xlink:href="#CMTT12-99"/>
      <use transform="translate(410.128887 0)scale(0.996264)" xlink:href="#CMTT12-97"/>
      <use transform="translate(461.394998 0)scale(0.996264)" xlink:href="#CMTT12-108"/>
     </g>
    </g>
    <g id="line2d_31"/>
    <g id="line2d_32">
     <g>
      <use style="fill:#ff7f0e;stroke:#ff7f0e;" x="153.516101" xlink:href="#m2817be50d1" y="305.71272"/>
     </g>
    </g>
    <g id="text_17">
     <!-- Numerical -->
     <g transform="translate(180.516101 310.96272)scale(0.15 -0.15)">
      <defs>
       <path d="M 18.703125 57.59375 
C 17.5 61 15.5 61 13.40625 61 
L 6.90625 61 
C 5.40625 61 2.90625 61 2.90625 58.09375 
C 2.90625 55.1875 5.5 55.1875 6.90625 55.1875 
L 9.09375 55.1875 
L 9.09375 5.796875 
L 6.90625 5.796875 
C 5.5 5.796875 2.90625 5.796875 2.90625 2.890625 
C 2.90625 0 5.40625 0 6.90625 0 
L 16.90625 0 
C 18.296875 0 21 0 21 2.890625 
C 21 5.796875 18.296875 5.796875 16.90625 5.796875 
L 14.703125 5.796875 
L 14.703125 54.09375 
L 14.796875 54.09375 
C 15.09375 53 16 50.40625 17.796875 45.3125 
L 32.703125 3.390625 
C 33.90625 0 35.90625 0 38.09375 0 
C 41.09375 0 42.296875 0.296875 42.296875 4.09375 
L 42.296875 55.1875 
L 44.5 55.1875 
C 45.90625 55.1875 48.5 55.1875 48.5 58.09375 
C 48.5 61 46 61 44.5 61 
L 34.5 61 
C 33.09375 61 30.40625 61 30.40625 58.09375 
C 30.40625 55.1875 33.09375 55.1875 34.5 55.1875 
L 36.703125 55.1875 
L 36.703125 6.890625 
L 36.59375 6.890625 
C 36.296875 7.984375 35.40625 10.578125 33.59375 15.671875 
z
" id="CMTT12-78"/>
       <path d="M 41.796875 38.890625 
C 41.796875 41.984375 41.203125 43 37.796875 43 
L 31.203125 43 
C 29.796875 43 27.203125 43 27.203125 40.09375 
C 27.203125 37.1875 29.796875 37.1875 31.203125 37.1875 
L 35.296875 37.1875 
L 35.296875 15.296875 
C 35.296875 7.015625 28.5 4.796875 24 4.796875 
C 16.09375 4.796875 16.09375 8.421875 16.09375 11.5625 
L 16.09375 38.890625 
C 16.09375 41.984375 15.5 43 12.09375 43 
L 5.5 43 
C 4.09375 43 1.5 43 1.5 40.09375 
C 1.5 37.1875 4.09375 37.1875 5.5 37.1875 
L 9.59375 37.1875 
L 9.59375 11.046875 
C 9.59375 1.796875 15.59375 -1 23.296875 -1 
C 29.40625 -1 33.203125 1.5 35.203125 3.1875 
C 35.203125 -0.40625 37.59375 -0.40625 39.296875 -0.40625 
L 45.90625 -0.40625 
C 47.296875 -0.40625 49.90625 -0.40625 49.90625 2.5 
C 49.90625 5.390625 47.296875 5.390625 45.90625 5.390625 
L 41.796875 5.390625 
z
" id="CMTT12-117"/>
       <path d="M 45.296875 30.515625 
C 45.296875 32.75 45.296875 44 36.5 44 
C 33 44 29.59375 42.390625 26.90625 38.6875 
C 26.296875 40.1875 24.09375 44 19.296875 44 
C 14.796875 44 11.703125 41.09375 10.90625 40.1875 
C 10.796875 43.390625 8.703125 43.390625 6.90625 43.390625 
L 3.90625 43.390625 
C 2.5 43.390625 -0.109375 43.390625 -0.109375 40.484375 
C -0.109375 37.59375 2.203125 37.59375 5.296875 37.59375 
L 5.296875 5.796875 
C 2.09375 5.796875 -0.109375 5.796875 -0.109375 2.890625 
C -0.109375 0 2.5 0 3.90625 0 
L 12.296875 0 
C 13.703125 0 16.296875 0 16.296875 2.890625 
C 16.296875 5.796875 14 5.796875 10.90625 5.796875 
L 10.90625 24.359375 
C 10.90625 32.84375 14.5 38.1875 18.90625 38.1875 
C 21.703125 38.1875 22.5 34.65625 22.5 29.921875 
L 22.5 5.796875 
C 20.796875 5.796875 18.09375 5.796875 18.09375 2.890625 
C 18.09375 0 20.796875 0 22.203125 0 
L 29.5 0 
C 30.90625 0 33.5 0 33.5 2.890625 
C 33.5 5.796875 31.203125 5.796875 28.09375 5.796875 
L 28.09375 24.359375 
C 28.09375 32.84375 31.703125 38.1875 36.09375 38.1875 
C 38.90625 38.1875 39.703125 34.65625 39.703125 29.921875 
L 39.703125 5.796875 
C 38 5.796875 35.296875 5.796875 35.296875 2.890625 
C 35.296875 0 38 0 39.40625 0 
L 46.703125 0 
C 48.09375 0 50.703125 0 50.703125 2.890625 
C 50.703125 5.796875 48.40625 5.796875 45.296875 5.796875 
z
" id="CMTT12-109"/>
       <path d="M 21.59375 18.84375 
C 21.59375 30.71875 30 37.796875 38.5 37.796875 
C 39 37.796875 39.59375 37.796875 40.09375 37.6875 
C 40.40625 34.109375 43.203125 33.796875 43.90625 33.796875 
C 46.203125 33.796875 47.796875 35.5 47.796875 37.6875 
C 47.796875 41.984375 43.59375 43.59375 38.59375 43.59375 
C 31.90625 43.59375 26.203125 40.59375 21.59375 35 
L 21.59375 38.890625 
C 21.59375 41.984375 21 43 17.59375 43 
L 7.5 43 
C 6.09375 43 3.5 43 3.5 40.09375 
C 3.5 37.1875 6.09375 37.1875 7.5 37.1875 
L 15.09375 37.1875 
L 15.09375 5.796875 
L 7.5 5.796875 
C 6.09375 5.796875 3.5 5.796875 3.5 2.890625 
C 3.5 0 6.09375 0 7.5 0 
L 32.09375 0 
C 33.5 0 36.09375 0 36.09375 2.890625 
C 36.09375 5.796875 33.5 5.796875 32.09375 5.796875 
L 21.59375 5.796875 
z
" id="CMTT12-114"/>
      </defs>
      <use transform="scale(0.996264)" xlink:href="#CMTT12-78"/>
      <use transform="translate(51.266111 0)scale(0.996264)" xlink:href="#CMTT12-117"/>
      <use transform="translate(102.532222 0)scale(0.996264)" xlink:href="#CMTT12-109"/>
      <use transform="translate(153.798333 0)scale(0.996264)" xlink:href="#CMTT12-101"/>
      <use transform="translate(205.064443 0)scale(0.996264)" xlink:href="#CMTT12-114"/>
      <use transform="translate(256.330554 0)scale(0.996264)" xlink:href="#CMTT12-105"/>
      <use transform="translate(307.596665 0)scale(0.996264)" xlink:href="#CMTT12-99"/>
      <use transform="translate(358.862776 0)scale(0.996264)" xlink:href="#CMTT12-97"/>
      <use transform="translate(410.128887 0)scale(0.996264)" xlink:href="#CMTT12-108"/>
     </g>
    </g>
   </g>
  </g>
  <g id="axes_2">
   <g id="patch_8">
    <path d="M 401.931811 327.783595 
L 721.19952 327.783595 
L 721.19952 25.902366 
L 401.931811 25.902366 
z
" style="fill:#ffffff;"/>
   </g>
   <g id="matplotlib.axis_3">
    <g id="xtick_8">
     <g id="line2d_33">
      <path clip-path="url(#p1be25664d8)" d="M 425.585503 327.783595 
L 425.585503 25.902366 
" style="fill:none;stroke:#b0b0b0;stroke-dasharray:0.8,1.32;stroke-dashoffset:0;stroke-width:0.8;"/>
     </g>
     <g id="line2d_34">
      <g>
       <use style="stroke:#000000;stroke-width:0.8;" x="425.585503" xlink:href="#m4dde7dd925" y="327.783595"/>
      </g>
     </g>
     <g id="text_18">
      <!-- $\mathdefault{−60}$ -->
      <g transform="translate(416.729796 340.871878)scale(0.1 -0.1)">
       <defs>
        <path d="M 10.59375 34.34375 
C 10.59375 58 21.796875 63.6875 28.296875 63.6875 
C 30.40625 63.6875 35.5 63.265625 37.5 59.09375 
C 35.90625 59.09375 32.90625 59.09375 32.90625 55.59375 
C 32.90625 52.890625 35.09375 52 36.5 52 
C 37.40625 52 40.09375 52.390625 40.09375 55.796875 
C 40.09375 62.296875 35.09375 66 28.203125 66 
C 16.296875 66 3.796875 53.296875 3.796875 31.421875 
C 3.796875 4.015625 15.09375 -2 23.09375 -2 
C 32.796875 -2 42 6.734375 42 20.234375 
C 42 32.828125 33.90625 42 23.703125 42 
C 17.59375 42 13.09375 37.96875 10.59375 30.921875 
z
M 23.09375 0.390625 
C 10.796875 0.390625 10.796875 18.9375 10.796875 22.65625 
C 10.796875 29.90625 14.203125 40.390625 23.5 40.390625 
C 25.203125 40.390625 30.09375 40.390625 33.40625 33.4375 
C 35.203125 29.515625 35.203125 25.375 35.203125 20.34375 
C 35.203125 14.90625 35.203125 10.875 33.09375 6.84375 
C 30.90625 2.703125 27.703125 0.390625 23.09375 0.390625 
z
" id="CMR17-54"/>
       </defs>
       <use transform="scale(0.996264)" xlink:href="#CMSY10-0"/>
       <use transform="translate(77.487468 0)scale(0.996264)" xlink:href="#CMR17-54"/>
       <use transform="translate(123.177945 0)scale(0.996264)" xlink:href="#CMR17-48"/>
      </g>
     </g>
    </g>
    <g id="xtick_9">
     <g id="line2d_35">
      <path clip-path="url(#p1be25664d8)" d="M 471.293121 327.783595 
L 471.293121 25.902366 
" style="fill:none;stroke:#b0b0b0;stroke-dasharray:0.8,1.32;stroke-dashoffset:0;stroke-width:0.8;"/>
     </g>
     <g id="line2d_36">
      <g>
       <use style="stroke:#000000;stroke-width:0.8;" x="471.293121" xlink:href="#m4dde7dd925" y="327.783595"/>
      </g>
     </g>
     <g id="text_19">
      <!-- $\mathdefault{−40}$ -->
      <g transform="translate(462.437414 340.871878)scale(0.1 -0.1)">
       <use transform="scale(0.996264)" xlink:href="#CMSY10-0"/>
       <use transform="translate(77.487468 0)scale(0.996264)" xlink:href="#CMR17-52"/>
       <use transform="translate(123.177945 0)scale(0.996264)" xlink:href="#CMR17-48"/>
      </g>
     </g>
    </g>
    <g id="xtick_10">
     <g id="line2d_37">
      <path clip-path="url(#p1be25664d8)" d="M 517.000738 327.783595 
L 517.000738 25.902366 
" style="fill:none;stroke:#b0b0b0;stroke-dasharray:0.8,1.32;stroke-dashoffset:0;stroke-width:0.8;"/>
     </g>
     <g id="line2d_38">
      <g>
       <use style="stroke:#000000;stroke-width:0.8;" x="517.000738" xlink:href="#m4dde7dd925" y="327.783595"/>
      </g>
     </g>
     <g id="text_20">
      <!-- $\mathdefault{−20}$ -->
      <g transform="translate(508.145031 340.871878)scale(0.1 -0.1)">
       <use transform="scale(0.996264)" xlink:href="#CMSY10-0"/>
       <use transform="translate(77.487468 0)scale(0.996264)" xlink:href="#CMR17-50"/>
       <use transform="translate(123.177945 0)scale(0.996264)" xlink:href="#CMR17-48"/>
      </g>
     </g>
    </g>
    <g id="xtick_11">
     <g id="line2d_39">
      <path clip-path="url(#p1be25664d8)" d="M 562.708356 327.783595 
L 562.708356 25.902366 
" style="fill:none;stroke:#b0b0b0;stroke-dasharray:0.8,1.32;stroke-dashoffset:0;stroke-width:0.8;"/>
     </g>
     <g id="line2d_40">
      <g>
       <use style="stroke:#000000;stroke-width:0.8;" x="562.708356" xlink:href="#m4dde7dd925" y="327.783595"/>
      </g>
     </g>
     <g id="text_21">
      <!-- $\mathdefault{0}$ -->
      <g transform="translate(560.217688 340.871878)scale(0.1 -0.1)">
       <use transform="scale(0.996264)" xlink:href="#CMR17-48"/>
      </g>
     </g>
    </g>
    <g id="xtick_12">
     <g id="line2d_41">
      <path clip-path="url(#p1be25664d8)" d="M 608.415974 327.783595 
L 608.415974 25.902366 
" style="fill:none;stroke:#b0b0b0;stroke-dasharray:0.8,1.32;stroke-dashoffset:0;stroke-width:0.8;"/>
     </g>
     <g id="line2d_42">
      <g>
       <use style="stroke:#000000;stroke-width:0.8;" x="608.415974" xlink:href="#m4dde7dd925" y="327.783595"/>
      </g>
     </g>
     <g id="text_22">
      <!-- $\mathdefault{20}$ -->
      <g transform="translate(603.434638 340.871878)scale(0.1 -0.1)">
       <use transform="scale(0.996264)" xlink:href="#CMR17-50"/>
       <use transform="translate(45.690477 0)scale(0.996264)" xlink:href="#CMR17-48"/>
      </g>
     </g>
    </g>
    <g id="xtick_13">
     <g id="line2d_43">
      <path clip-path="url(#p1be25664d8)" d="M 654.123591 327.783595 
L 654.123591 25.902366 
" style="fill:none;stroke:#b0b0b0;stroke-dasharray:0.8,1.32;stroke-dashoffset:0;stroke-width:0.8;"/>
     </g>
     <g id="line2d_44">
      <g>
       <use style="stroke:#000000;stroke-width:0.8;" x="654.123591" xlink:href="#m4dde7dd925" y="327.783595"/>
      </g>
     </g>
     <g id="text_23">
      <!-- $\mathdefault{40}$ -->
      <g transform="translate(649.142256 340.871878)scale(0.1 -0.1)">
       <use transform="scale(0.996264)" xlink:href="#CMR17-52"/>
       <use transform="translate(45.690477 0)scale(0.996264)" xlink:href="#CMR17-48"/>
      </g>
     </g>
    </g>
    <g id="xtick_14">
     <g id="line2d_45">
      <path clip-path="url(#p1be25664d8)" d="M 699.831209 327.783595 
L 699.831209 25.902366 
" style="fill:none;stroke:#b0b0b0;stroke-dasharray:0.8,1.32;stroke-dashoffset:0;stroke-width:0.8;"/>
     </g>
     <g id="line2d_46">
      <g>
       <use style="stroke:#000000;stroke-width:0.8;" x="699.831209" xlink:href="#m4dde7dd925" y="327.783595"/>
      </g>
     </g>
     <g id="text_24">
      <!-- $\mathdefault{60}$ -->
      <g transform="translate(694.849874 340.871878)scale(0.1 -0.1)">
       <use transform="scale(0.996264)" xlink:href="#CMR17-54"/>
       <use transform="translate(45.690477 0)scale(0.996264)" xlink:href="#CMR17-48"/>
      </g>
     </g>
    </g>
    <g id="text_25">
     <!-- Index j -->
     <g transform="translate(531.062369 357.435863)scale(0.17 -0.17)">
      <use transform="scale(0.996264)" xlink:href="#CMTT12-73"/>
      <use transform="translate(51.266111 0)scale(0.996264)" xlink:href="#CMTT12-110"/>
      <use transform="translate(102.532222 0)scale(0.996264)" xlink:href="#CMTT12-100"/>
      <use transform="translate(153.798333 0)scale(0.996264)" xlink:href="#CMTT12-101"/>
      <use transform="translate(205.064443 0)scale(0.996264)" xlink:href="#CMTT12-120"/>
      <use transform="translate(307.596665 0)scale(0.996264)" xlink:href="#CMTT12-106"/>
     </g>
    </g>
   </g>
   <g id="matplotlib.axis_4">
    <g id="ytick_7">
     <g id="line2d_47">
      <path clip-path="url(#p1be25664d8)" d="M 401.931811 286.245317 
L 721.19952 286.245317 
" style="fill:none;stroke:#b0b0b0;stroke-dasharray:0.8,1.32;stroke-dashoffset:0;stroke-width:0.8;"/>
     </g>
     <g id="line2d_48">
      <g>
       <use style="stroke:#000000;stroke-width:0.8;" x="401.931811" xlink:href="#m3833bcb66d" y="286.245317"/>
      </g>
     </g>
     <g id="text_26">
      <!-- $\mathdefault{10^{-17}}$ -->
      <g transform="translate(370.8 289.289459)scale(0.1 -0.1)">
       <use transform="scale(0.996264)" xlink:href="#CMR17-49"/>
       <use transform="translate(45.690477 0)scale(0.996264)" xlink:href="#CMR17-48"/>
       <use transform="translate(91.380954 36.153639)scale(0.697382)" xlink:href="#CMSY10-0"/>
       <use transform="translate(145.621947 36.153639)scale(0.697382)" xlink:href="#CMR17-49"/>
       <use transform="translate(177.605129 36.153639)scale(0.697382)" xlink:href="#CMR17-55"/>
      </g>
     </g>
    </g>
    <g id="ytick_8">
     <g id="line2d_49">
      <path clip-path="url(#p1be25664d8)" d="M 401.931811 242.116825 
L 721.19952 242.116825 
" style="fill:none;stroke:#b0b0b0;stroke-dasharray:0.8,1.32;stroke-dashoffset:0;stroke-width:0.8;"/>
     </g>
     <g id="line2d_50">
      <g>
       <use style="stroke:#000000;stroke-width:0.8;" x="401.931811" xlink:href="#m3833bcb66d" y="242.116825"/>
      </g>
     </g>
     <g id="text_27">
      <!-- $\mathdefault{10^{-14}}$ -->
      <g transform="translate(370.8 245.160967)scale(0.1 -0.1)">
       <use transform="scale(0.996264)" xlink:href="#CMR17-49"/>
       <use transform="translate(45.690477 0)scale(0.996264)" xlink:href="#CMR17-48"/>
       <use transform="translate(91.380954 36.153639)scale(0.697382)" xlink:href="#CMSY10-0"/>
       <use transform="translate(145.621947 36.153639)scale(0.697382)" xlink:href="#CMR17-49"/>
       <use transform="translate(177.605129 36.153639)scale(0.697382)" xlink:href="#CMR17-52"/>
      </g>
     </g>
    </g>
    <g id="ytick_9">
     <g id="line2d_51">
      <path clip-path="url(#p1be25664d8)" d="M 401.931811 197.988333 
L 721.19952 197.988333 
" style="fill:none;stroke:#b0b0b0;stroke-dasharray:0.8,1.32;stroke-dashoffset:0;stroke-width:0.8;"/>
     </g>
     <g id="line2d_52">
      <g>
       <use style="stroke:#000000;stroke-width:0.8;" x="401.931811" xlink:href="#m3833bcb66d" y="197.988333"/>
      </g>
     </g>
     <g id="text_28">
      <!-- $\mathdefault{10^{-11}}$ -->
      <g transform="translate(370.8 201.032475)scale(0.1 -0.1)">
       <use transform="scale(0.996264)" xlink:href="#CMR17-49"/>
       <use transform="translate(45.690477 0)scale(0.996264)" xlink:href="#CMR17-48"/>
       <use transform="translate(91.380954 36.153639)scale(0.697382)" xlink:href="#CMSY10-0"/>
       <use transform="translate(145.621947 36.153639)scale(0.697382)" xlink:href="#CMR17-49"/>
       <use transform="translate(177.605129 36.153639)scale(0.697382)" xlink:href="#CMR17-49"/>
      </g>
     </g>
    </g>
    <g id="ytick_10">
     <g id="line2d_53">
      <path clip-path="url(#p1be25664d8)" d="M 401.931811 153.859842 
L 721.19952 153.859842 
" style="fill:none;stroke:#b0b0b0;stroke-dasharray:0.8,1.32;stroke-dashoffset:0;stroke-width:0.8;"/>
     </g>
     <g id="line2d_54">
      <g>
       <use style="stroke:#000000;stroke-width:0.8;" x="401.931811" xlink:href="#m3833bcb66d" y="153.859842"/>
      </g>
     </g>
     <g id="text_29">
      <!-- $\mathdefault{10^{-8}}$ -->
      <g transform="translate(374.771238 156.903983)scale(0.1 -0.1)">
       <use transform="scale(0.996264)" xlink:href="#CMR17-49"/>
       <use transform="translate(45.690477 0)scale(0.996264)" xlink:href="#CMR17-48"/>
       <use transform="translate(91.380954 36.153639)scale(0.697382)" xlink:href="#CMSY10-0"/>
       <use transform="translate(145.621947 36.153639)scale(0.697382)" xlink:href="#CMR17-56"/>
      </g>
     </g>
    </g>
    <g id="ytick_11">
     <g id="line2d_55">
      <path clip-path="url(#p1be25664d8)" d="M 401.931811 109.73135 
L 721.19952 109.73135 
" style="fill:none;stroke:#b0b0b0;stroke-dasharray:0.8,1.32;stroke-dashoffset:0;stroke-width:0.8;"/>
     </g>
     <g id="line2d_56">
      <g>
       <use style="stroke:#000000;stroke-width:0.8;" x="401.931811" xlink:href="#m3833bcb66d" y="109.73135"/>
      </g>
     </g>
     <g id="text_30">
      <!-- $\mathdefault{10^{-5}}$ -->
      <g transform="translate(374.771238 112.775492)scale(0.1 -0.1)">
       <use transform="scale(0.996264)" xlink:href="#CMR17-49"/>
       <use transform="translate(45.690477 0)scale(0.996264)" xlink:href="#CMR17-48"/>
       <use transform="translate(91.380954 36.153639)scale(0.697382)" xlink:href="#CMSY10-0"/>
       <use transform="translate(145.621947 36.153639)scale(0.697382)" xlink:href="#CMR17-53"/>
      </g>
     </g>
    </g>
    <g id="ytick_12">
     <g id="line2d_57">
      <path clip-path="url(#p1be25664d8)" d="M 401.931811 65.602858 
L 721.19952 65.602858 
" style="fill:none;stroke:#b0b0b0;stroke-dasharray:0.8,1.32;stroke-dashoffset:0;stroke-width:0.8;"/>
     </g>
     <g id="line2d_58">
      <g>
       <use style="stroke:#000000;stroke-width:0.8;" x="401.931811" xlink:href="#m3833bcb66d" y="65.602858"/>
      </g>
     </g>
     <g id="text_31">
      <!-- $\mathdefault{10^{-2}}$ -->
      <g transform="translate(374.771238 68.647)scale(0.1 -0.1)">
       <use transform="scale(0.996264)" xlink:href="#CMR17-49"/>
       <use transform="translate(45.690477 0)scale(0.996264)" xlink:href="#CMR17-48"/>
       <use transform="translate(91.380954 36.153639)scale(0.697382)" xlink:href="#CMSY10-0"/>
       <use transform="translate(145.621947 36.153639)scale(0.697382)" xlink:href="#CMR17-50"/>
      </g>
     </g>
    </g>
   </g>
   <g id="line2d_59">
    <path clip-path="url(#p1be25664d8)" d="M 480.43833 369.39952 
L 485.005406 334.947506 
L 489.576168 302.43759 
L 494.14693 271.897972 
L 498.717691 243.328651 
L 503.288453 216.729629 
L 507.859215 192.100904 
L 512.429977 169.442478 
L 517.000738 148.754349 
L 519.286119 139.149146 
L 521.5715 130.036518 
L 523.856881 121.416465 
L 526.142262 113.288986 
L 528.427643 105.654081 
L 530.713024 98.511751 
L 532.998404 91.861995 
L 535.283785 85.704814 
L 537.569166 80.040207 
L 539.854547 74.868175 
L 542.139928 70.188718 
L 544.425309 66.001834 
L 546.71069 62.307526 
L 548.996071 59.105792 
L 551.281452 56.396632 
L 553.566832 54.180047 
L 555.852213 52.456036 
L 558.137594 51.2246 
L 560.422975 50.485738 
L 562.708356 50.239451 
L 564.993737 50.485738 
L 567.279118 51.2246 
L 569.564499 52.456036 
L 571.849879 54.180047 
L 574.13526 56.396632 
L 576.420641 59.105792 
L 578.706022 62.307526 
L 580.991403 66.001834 
L 583.276784 70.188718 
L 585.562165 74.868175 
L 587.847546 80.040207 
L 590.132927 85.704814 
L 592.418307 91.861995 
L 594.703688 98.511751 
L 596.989069 105.654081 
L 599.27445 113.288986 
L 601.559831 121.416465 
L 603.845212 130.036518 
L 606.130593 139.149146 
L 608.415974 148.754349 
L 612.986735 169.442478 
L 617.557497 192.100904 
L 622.128259 216.729629 
L 626.699021 243.328651 
L 631.269782 271.897972 
L 635.840544 302.43759 
L 640.411306 334.947506 
L 644.978382 369.39952 
L 644.978382 369.39952 
" style="fill:none;stroke:#1f77b4;stroke-linecap:square;stroke-opacity:0.85;stroke-width:3;"/>
   </g>
   <g id="line2d_60">
    <g clip-path="url(#p1be25664d8)">
     <use style="fill:#ff7f0e;stroke:#ff7f0e;" x="416.44398" xlink:href="#m2817be50d1" y="288.579858"/>
     <use style="fill:#ff7f0e;stroke:#ff7f0e;" x="418.72936" xlink:href="#m2817be50d1" y="288.551907"/>
     <use style="fill:#ff7f0e;stroke:#ff7f0e;" x="421.014741" xlink:href="#m2817be50d1" y="288.567405"/>
     <use style="fill:#ff7f0e;stroke:#ff7f0e;" x="423.300122" xlink:href="#m2817be50d1" y="288.282238"/>
     <use style="fill:#ff7f0e;stroke:#ff7f0e;" x="425.585503" xlink:href="#m2817be50d1" y="301.863857"/>
     <use style="fill:#ff7f0e;stroke:#ff7f0e;" x="427.870884" xlink:href="#m2817be50d1" y="299.012862"/>
     <use style="fill:#ff7f0e;stroke:#ff7f0e;" x="430.156265" xlink:href="#m2817be50d1" y="297.386335"/>
     <use style="fill:#ff7f0e;stroke:#ff7f0e;" x="432.441646" xlink:href="#m2817be50d1" y="296.94794"/>
     <use style="fill:#ff7f0e;stroke:#ff7f0e;" x="434.727027" xlink:href="#m2817be50d1" y="297.386335"/>
     <use style="fill:#ff7f0e;stroke:#ff7f0e;" x="437.012408" xlink:href="#m2817be50d1" y="299.693828"/>
     <use style="fill:#ff7f0e;stroke:#ff7f0e;" x="439.297788" xlink:href="#m2817be50d1" y="295.004815"/>
     <use style="fill:#ff7f0e;stroke:#ff7f0e;" x="441.583169" xlink:href="#m2817be50d1" y="299.854339"/>
     <use style="fill:#ff7f0e;stroke:#ff7f0e;" x="443.86855" xlink:href="#m2817be50d1" y="306.761441"/>
     <use style="fill:#ff7f0e;stroke:#ff7f0e;" x="446.153931" xlink:href="#m2817be50d1" y="301.138035"/>
     <use style="fill:#ff7f0e;stroke:#ff7f0e;" x="448.439312" xlink:href="#m2817be50d1" y="293.798045"/>
     <use style="fill:#ff7f0e;stroke:#ff7f0e;" x="450.724693" xlink:href="#m2817be50d1" y="296.264085"/>
     <use style="fill:#ff7f0e;stroke:#ff7f0e;" x="453.010074" xlink:href="#m2817be50d1" y="310.344326"/>
     <use style="fill:#ff7f0e;stroke:#ff7f0e;" x="455.295455" xlink:href="#m2817be50d1" y="297.40975"/>
     <use style="fill:#ff7f0e;stroke:#ff7f0e;" x="457.580835" xlink:href="#m2817be50d1" y="289.363833"/>
     <use style="fill:#ff7f0e;stroke:#ff7f0e;" x="459.866216" xlink:href="#m2817be50d1" y="293.548711"/>
     <use style="fill:#ff7f0e;stroke:#ff7f0e;" x="462.151597" xlink:href="#m2817be50d1" y="297.906717"/>
     <use style="fill:#ff7f0e;stroke:#ff7f0e;" x="464.436978" xlink:href="#m2817be50d1" y="295.922562"/>
     <use style="fill:#ff7f0e;stroke:#ff7f0e;" x="466.722359" xlink:href="#m2817be50d1" y="302.132009"/>
     <use style="fill:#ff7f0e;stroke:#ff7f0e;" x="469.00774" xlink:href="#m2817be50d1" y="299.739254"/>
     <use style="fill:#ff7f0e;stroke:#ff7f0e;" x="471.293121" xlink:href="#m2817be50d1" y="300.030619"/>
     <use style="fill:#ff7f0e;stroke:#ff7f0e;" x="473.578502" xlink:href="#m2817be50d1" y="299.823085"/>
     <use style="fill:#ff7f0e;stroke:#ff7f0e;" x="475.863882" xlink:href="#m2817be50d1" y="297.02717"/>
     <use style="fill:#ff7f0e;stroke:#ff7f0e;" x="478.149263" xlink:href="#m2817be50d1" y="291.765462"/>
     <use style="fill:#ff7f0e;stroke:#ff7f0e;" x="480.434644" xlink:href="#m2817be50d1" y="301.699731"/>
     <use style="fill:#ff7f0e;stroke:#ff7f0e;" x="482.720025" xlink:href="#m2817be50d1" y="294.806899"/>
     <use style="fill:#ff7f0e;stroke:#ff7f0e;" x="485.005406" xlink:href="#m2817be50d1" y="294.55708"/>
     <use style="fill:#ff7f0e;stroke:#ff7f0e;" x="487.290787" xlink:href="#m2817be50d1" y="293.850783"/>
     <use style="fill:#ff7f0e;stroke:#ff7f0e;" x="489.576168" xlink:href="#m2817be50d1" y="14745.681132"/>
     <use style="fill:#ff7f0e;stroke:#ff7f0e;" x="491.861549" xlink:href="#m2817be50d1" y="285.727101"/>
     <use style="fill:#ff7f0e;stroke:#ff7f0e;" x="494.14693" xlink:href="#m2817be50d1" y="271.882625"/>
     <use style="fill:#ff7f0e;stroke:#ff7f0e;" x="496.43231" xlink:href="#m2817be50d1" y="257.375342"/>
     <use style="fill:#ff7f0e;stroke:#ff7f0e;" x="498.717691" xlink:href="#m2817be50d1" y="243.327333"/>
     <use style="fill:#ff7f0e;stroke:#ff7f0e;" x="501.003072" xlink:href="#m2817be50d1" y="229.783142"/>
     <use style="fill:#ff7f0e;stroke:#ff7f0e;" x="503.288453" xlink:href="#m2817be50d1" y="216.729659"/>
     <use style="fill:#ff7f0e;stroke:#ff7f0e;" x="505.573834" xlink:href="#m2817be50d1" y="204.168979"/>
     <use style="fill:#ff7f0e;stroke:#ff7f0e;" x="507.859215" xlink:href="#m2817be50d1" y="192.100903"/>
     <use style="fill:#ff7f0e;stroke:#ff7f0e;" x="510.144596" xlink:href="#m2817be50d1" y="180.525404"/>
     <use style="fill:#ff7f0e;stroke:#ff7f0e;" x="512.429977" xlink:href="#m2817be50d1" y="169.442478"/>
     <use style="fill:#ff7f0e;stroke:#ff7f0e;" x="514.715357" xlink:href="#m2817be50d1" y="158.852126"/>
     <use style="fill:#ff7f0e;stroke:#ff7f0e;" x="517.000738" xlink:href="#m2817be50d1" y="148.754349"/>
     <use style="fill:#ff7f0e;stroke:#ff7f0e;" x="519.286119" xlink:href="#m2817be50d1" y="139.149146"/>
     <use style="fill:#ff7f0e;stroke:#ff7f0e;" x="521.5715" xlink:href="#m2817be50d1" y="130.036518"/>
     <use style="fill:#ff7f0e;stroke:#ff7f0e;" x="523.856881" xlink:href="#m2817be50d1" y="121.416465"/>
     <use style="fill:#ff7f0e;stroke:#ff7f0e;" x="526.142262" xlink:href="#m2817be50d1" y="113.288986"/>
     <use style="fill:#ff7f0e;stroke:#ff7f0e;" x="528.427643" xlink:href="#m2817be50d1" y="105.654081"/>
     <use style="fill:#ff7f0e;stroke:#ff7f0e;" x="530.713024" xlink:href="#m2817be50d1" y="98.511751"/>
     <use style="fill:#ff7f0e;stroke:#ff7f0e;" x="532.998404" xlink:href="#m2817be50d1" y="91.861995"/>
     <use style="fill:#ff7f0e;stroke:#ff7f0e;" x="535.283785" xlink:href="#m2817be50d1" y="85.704814"/>
     <use style="fill:#ff7f0e;stroke:#ff7f0e;" x="537.569166" xlink:href="#m2817be50d1" y="80.040207"/>
     <use style="fill:#ff7f0e;stroke:#ff7f0e;" x="539.854547" xlink:href="#m2817be50d1" y="74.868175"/>
     <use style="fill:#ff7f0e;stroke:#ff7f0e;" x="542.139928" xlink:href="#m2817be50d1" y="70.188718"/>
     <use style="fill:#ff7f0e;stroke:#ff7f0e;" x="544.425309" xlink:href="#m2817be50d1" y="66.001834"/>
     <use style="fill:#ff7f0e;stroke:#ff7f0e;" x="546.71069" xlink:href="#m2817be50d1" y="62.307526"/>
     <use style="fill:#ff7f0e;stroke:#ff7f0e;" x="548.996071" xlink:href="#m2817be50d1" y="59.105792"/>
     <use style="fill:#ff7f0e;stroke:#ff7f0e;" x="551.281452" xlink:href="#m2817be50d1" y="56.396632"/>
     <use style="fill:#ff7f0e;stroke:#ff7f0e;" x="553.566832" xlink:href="#m2817be50d1" y="54.180047"/>
     <use style="fill:#ff7f0e;stroke:#ff7f0e;" x="555.852213" xlink:href="#m2817be50d1" y="52.456036"/>
     <use style="fill:#ff7f0e;stroke:#ff7f0e;" x="558.137594" xlink:href="#m2817be50d1" y="51.2246"/>
     <use style="fill:#ff7f0e;stroke:#ff7f0e;" x="560.422975" xlink:href="#m2817be50d1" y="50.485738"/>
     <use style="fill:#ff7f0e;stroke:#ff7f0e;" x="562.708356" xlink:href="#m2817be50d1" y="50.239451"/>
     <use style="fill:#ff7f0e;stroke:#ff7f0e;" x="564.993737" xlink:href="#m2817be50d1" y="50.485738"/>
     <use style="fill:#ff7f0e;stroke:#ff7f0e;" x="567.279118" xlink:href="#m2817be50d1" y="51.2246"/>
     <use style="fill:#ff7f0e;stroke:#ff7f0e;" x="569.564499" xlink:href="#m2817be50d1" y="52.456036"/>
     <use style="fill:#ff7f0e;stroke:#ff7f0e;" x="571.849879" xlink:href="#m2817be50d1" y="54.180047"/>
     <use style="fill:#ff7f0e;stroke:#ff7f0e;" x="574.13526" xlink:href="#m2817be50d1" y="56.396632"/>
     <use style="fill:#ff7f0e;stroke:#ff7f0e;" x="576.420641" xlink:href="#m2817be50d1" y="59.105792"/>
     <use style="fill:#ff7f0e;stroke:#ff7f0e;" x="578.706022" xlink:href="#m2817be50d1" y="62.307526"/>
     <use style="fill:#ff7f0e;stroke:#ff7f0e;" x="580.991403" xlink:href="#m2817be50d1" y="66.001834"/>
     <use style="fill:#ff7f0e;stroke:#ff7f0e;" x="583.276784" xlink:href="#m2817be50d1" y="70.188718"/>
     <use style="fill:#ff7f0e;stroke:#ff7f0e;" x="585.562165" xlink:href="#m2817be50d1" y="74.868175"/>
     <use style="fill:#ff7f0e;stroke:#ff7f0e;" x="587.847546" xlink:href="#m2817be50d1" y="80.040207"/>
     <use style="fill:#ff7f0e;stroke:#ff7f0e;" x="590.132927" xlink:href="#m2817be50d1" y="85.704814"/>
     <use style="fill:#ff7f0e;stroke:#ff7f0e;" x="592.418307" xlink:href="#m2817be50d1" y="91.861995"/>
     <use style="fill:#ff7f0e;stroke:#ff7f0e;" x="594.703688" xlink:href="#m2817be50d1" y="98.511751"/>
     <use style="fill:#ff7f0e;stroke:#ff7f0e;" x="596.989069" xlink:href="#m2817be50d1" y="105.654081"/>
     <use style="fill:#ff7f0e;stroke:#ff7f0e;" x="599.27445" xlink:href="#m2817be50d1" y="113.288986"/>
     <use style="fill:#ff7f0e;stroke:#ff7f0e;" x="601.559831" xlink:href="#m2817be50d1" y="121.416465"/>
     <use style="fill:#ff7f0e;stroke:#ff7f0e;" x="603.845212" xlink:href="#m2817be50d1" y="130.036518"/>
     <use style="fill:#ff7f0e;stroke:#ff7f0e;" x="606.130593" xlink:href="#m2817be50d1" y="139.149146"/>
     <use style="fill:#ff7f0e;stroke:#ff7f0e;" x="608.415974" xlink:href="#m2817be50d1" y="148.754349"/>
     <use style="fill:#ff7f0e;stroke:#ff7f0e;" x="610.701354" xlink:href="#m2817be50d1" y="158.852126"/>
     <use style="fill:#ff7f0e;stroke:#ff7f0e;" x="612.986735" xlink:href="#m2817be50d1" y="169.442478"/>
     <use style="fill:#ff7f0e;stroke:#ff7f0e;" x="615.272116" xlink:href="#m2817be50d1" y="180.525404"/>
     <use style="fill:#ff7f0e;stroke:#ff7f0e;" x="617.557497" xlink:href="#m2817be50d1" y="192.100903"/>
     <use style="fill:#ff7f0e;stroke:#ff7f0e;" x="619.842878" xlink:href="#m2817be50d1" y="204.168979"/>
     <use style="fill:#ff7f0e;stroke:#ff7f0e;" x="622.128259" xlink:href="#m2817be50d1" y="216.729659"/>
     <use style="fill:#ff7f0e;stroke:#ff7f0e;" x="624.41364" xlink:href="#m2817be50d1" y="229.783142"/>
     <use style="fill:#ff7f0e;stroke:#ff7f0e;" x="626.699021" xlink:href="#m2817be50d1" y="243.327333"/>
     <use style="fill:#ff7f0e;stroke:#ff7f0e;" x="628.984401" xlink:href="#m2817be50d1" y="257.375342"/>
     <use style="fill:#ff7f0e;stroke:#ff7f0e;" x="631.269782" xlink:href="#m2817be50d1" y="271.882625"/>
     <use style="fill:#ff7f0e;stroke:#ff7f0e;" x="633.555163" xlink:href="#m2817be50d1" y="285.727101"/>
     <use style="fill:#ff7f0e;stroke:#ff7f0e;" x="635.840544" xlink:href="#m2817be50d1" y="14745.681132"/>
     <use style="fill:#ff7f0e;stroke:#ff7f0e;" x="638.125925" xlink:href="#m2817be50d1" y="293.850783"/>
     <use style="fill:#ff7f0e;stroke:#ff7f0e;" x="640.411306" xlink:href="#m2817be50d1" y="294.55708"/>
     <use style="fill:#ff7f0e;stroke:#ff7f0e;" x="642.696687" xlink:href="#m2817be50d1" y="294.806899"/>
     <use style="fill:#ff7f0e;stroke:#ff7f0e;" x="644.982068" xlink:href="#m2817be50d1" y="301.699731"/>
     <use style="fill:#ff7f0e;stroke:#ff7f0e;" x="647.267449" xlink:href="#m2817be50d1" y="291.765462"/>
     <use style="fill:#ff7f0e;stroke:#ff7f0e;" x="649.552829" xlink:href="#m2817be50d1" y="297.02717"/>
     <use style="fill:#ff7f0e;stroke:#ff7f0e;" x="651.83821" xlink:href="#m2817be50d1" y="299.823085"/>
     <use style="fill:#ff7f0e;stroke:#ff7f0e;" x="654.123591" xlink:href="#m2817be50d1" y="300.030619"/>
     <use style="fill:#ff7f0e;stroke:#ff7f0e;" x="656.408972" xlink:href="#m2817be50d1" y="299.739254"/>
     <use style="fill:#ff7f0e;stroke:#ff7f0e;" x="658.694353" xlink:href="#m2817be50d1" y="302.132009"/>
     <use style="fill:#ff7f0e;stroke:#ff7f0e;" x="660.979734" xlink:href="#m2817be50d1" y="295.922562"/>
     <use style="fill:#ff7f0e;stroke:#ff7f0e;" x="663.265115" xlink:href="#m2817be50d1" y="297.906717"/>
     <use style="fill:#ff7f0e;stroke:#ff7f0e;" x="665.550496" xlink:href="#m2817be50d1" y="293.548711"/>
     <use style="fill:#ff7f0e;stroke:#ff7f0e;" x="667.835876" xlink:href="#m2817be50d1" y="289.363833"/>
     <use style="fill:#ff7f0e;stroke:#ff7f0e;" x="670.121257" xlink:href="#m2817be50d1" y="297.40975"/>
     <use style="fill:#ff7f0e;stroke:#ff7f0e;" x="672.406638" xlink:href="#m2817be50d1" y="310.344326"/>
     <use style="fill:#ff7f0e;stroke:#ff7f0e;" x="674.692019" xlink:href="#m2817be50d1" y="296.264085"/>
     <use style="fill:#ff7f0e;stroke:#ff7f0e;" x="676.9774" xlink:href="#m2817be50d1" y="293.798045"/>
     <use style="fill:#ff7f0e;stroke:#ff7f0e;" x="679.262781" xlink:href="#m2817be50d1" y="301.138035"/>
     <use style="fill:#ff7f0e;stroke:#ff7f0e;" x="681.548162" xlink:href="#m2817be50d1" y="306.761441"/>
     <use style="fill:#ff7f0e;stroke:#ff7f0e;" x="683.833543" xlink:href="#m2817be50d1" y="299.854339"/>
     <use style="fill:#ff7f0e;stroke:#ff7f0e;" x="686.118923" xlink:href="#m2817be50d1" y="295.004815"/>
     <use style="fill:#ff7f0e;stroke:#ff7f0e;" x="688.404304" xlink:href="#m2817be50d1" y="299.693828"/>
     <use style="fill:#ff7f0e;stroke:#ff7f0e;" x="690.689685" xlink:href="#m2817be50d1" y="297.386335"/>
     <use style="fill:#ff7f0e;stroke:#ff7f0e;" x="692.975066" xlink:href="#m2817be50d1" y="296.94794"/>
     <use style="fill:#ff7f0e;stroke:#ff7f0e;" x="695.260447" xlink:href="#m2817be50d1" y="297.386335"/>
     <use style="fill:#ff7f0e;stroke:#ff7f0e;" x="697.545828" xlink:href="#m2817be50d1" y="299.012862"/>
     <use style="fill:#ff7f0e;stroke:#ff7f0e;" x="699.831209" xlink:href="#m2817be50d1" y="301.863857"/>
     <use style="fill:#ff7f0e;stroke:#ff7f0e;" x="702.11659" xlink:href="#m2817be50d1" y="288.282238"/>
     <use style="fill:#ff7f0e;stroke:#ff7f0e;" x="704.401971" xlink:href="#m2817be50d1" y="288.567405"/>
     <use style="fill:#ff7f0e;stroke:#ff7f0e;" x="706.687351" xlink:href="#m2817be50d1" y="288.551907"/>
    </g>
   </g>
   <g id="patch_9">
    <path d="M 401.931811 327.783595 
L 401.931811 25.902366 
" style="fill:none;stroke:#000000;stroke-linecap:square;stroke-linejoin:miter;stroke-width:0.8;"/>
   </g>
   <g id="patch_10">
    <path d="M 721.19952 327.783595 
L 721.19952 25.902366 
" style="fill:none;stroke:#000000;stroke-linecap:square;stroke-linejoin:miter;stroke-width:0.8;"/>
   </g>
   <g id="patch_11">
    <path d="M 401.931811 327.783595 
L 721.19952 327.783595 
" style="fill:none;stroke:#000000;stroke-linecap:square;stroke-linejoin:miter;stroke-width:0.8;"/>
   </g>
   <g id="patch_12">
    <path d="M 401.931811 25.902366 
L 721.19952 25.902366 
" style="fill:none;stroke:#000000;stroke-linecap:square;stroke-linejoin:miter;stroke-width:0.8;"/>
   </g>
   <g id="text_32">
    <!-- $L \, / \, \sigma \,=\, 16$ -->
    <g transform="translate(522.548383 19.902366)scale(0.17 -0.17)">
     <use transform="scale(0.996264)" xlink:href="#CMMI12-76"/>
     <use transform="translate(82.975281 0)scale(0.996264)" xlink:href="#CMMI12-61"/>
     <use transform="translate(148.354605 0)scale(0.996264)" xlink:href="#CMMI12-27"/>
     <use transform="translate(251.653072 0)scale(0.996264)" xlink:href="#CMR17-61"/>
     <use transform="translate(367.646275 0)scale(0.996264)" xlink:href="#CMR17-49"/>
     <use transform="translate(413.336752 0)scale(0.996264)" xlink:href="#CMR17-54"/>
    </g>
   </g>
  </g>
 </g>
 <defs>
  <clipPath id="pac9b21c79d">
   <rect height="301.881229" width="319.267709" x="38.331811" y="25.902366"/>
  </clipPath>
  <clipPath id="p1be25664d8">
   <rect height="301.881229" width="319.267709" x="401.931811" y="25.902366"/>
  </clipPath>
 </defs>
</svg>
