<?xml version="1.0" encoding="utf-8" standalone="no"?>
<!DOCTYPE svg PUBLIC "-//W3C//DTD SVG 1.1//EN"
  "http://www.w3.org/Graphics/SVG/1.1/DTD/svg11.dtd">
<!-- Created with matplotlib (https://matplotlib.org/) -->
<svg height="368.39952pt" version="1.1" viewBox="0 0 728.39952 368.39952" width="728.39952pt" xmlns="http://www.w3.org/2000/svg" xmlns:xlink="http://www.w3.org/1999/xlink">
 <metadata>
  <rdf:RDF xmlns:cc="http://creativecommons.org/ns#" xmlns:dc="http://purl.org/dc/elements/1.1/" xmlns:rdf="http://www.w3.org/1999/02/22-rdf-syntax-ns#">
   <cc:Work>
    <dc:type rdf:resource="http://purl.org/dc/dcmitype/StillImage"/>
    <dc:date>2022-03-11T18:39:15.149420</dc:date>
    <dc:format>image/svg+xml</dc:format>
    <dc:creator>
     <cc:Agent>
      <dc:title>Matplotlib v3.3.4, https://matplotlib.org/</dc:title>
     </cc:Agent>
    </dc:creator>
   </cc:Work>
  </rdf:RDF>
 </metadata>
 <defs>
  <style type="text/css">*{stroke-linecap:butt;stroke-linejoin:round;}</style>
 </defs>
 <g id="figure_1">
  <g id="patch_1">
   <path d="M 0 368.39952 
L 728.39952 368.39952 
L 728.39952 0 
L 0 0 
z
" style="fill:#ffffff;"/>
  </g>
  <g id="axes_1">
   <g id="patch_2">
    <path d="M 56.445526 327.783595 
L 721.19952 327.783595 
L 721.19952 7.2 
L 56.445526 7.2 
z
" style="fill:#ffffff;"/>
   </g>
   <g id="matplotlib.axis_1">
    <g id="xtick_1">
     <g id="line2d_1">
      <path clip-path="url(#p5061d748b4)" d="M 105.695374 327.783595 
L 105.695374 7.2 
" style="fill:none;stroke:#b0b0b0;stroke-dasharray:0.8,1.32;stroke-dashoffset:0;stroke-width:0.8;"/>
     </g>
     <g id="line2d_2">
      <defs>
       <path d="M 0 0 
L 0 3.5 
" id="me895befb52" style="stroke:#000000;stroke-width:0.8;"/>
      </defs>
      <g>
       <use style="stroke:#000000;stroke-width:0.8;" x="105.695374" xlink:href="#me895befb52" y="327.783595"/>
      </g>
     </g>
     <g id="text_1">
      <!-- $\mathdefault{−60}$ -->
      <g transform="translate(96.839667 340.871878)scale(0.1 -0.1)">
       <defs>
        <path d="M 65.90625 23 
C 67.59375 23 69.40625 23 69.40625 25 
C 69.40625 27 67.59375 27 65.90625 27 
L 11.796875 27 
C 10.09375 27 8.296875 27 8.296875 25 
C 8.296875 23 10.09375 23 11.796875 23 
z
" id="CMSY10-0"/>
        <path d="M 10.59375 34.34375 
C 10.59375 58 21.796875 63.6875 28.296875 63.6875 
C 30.40625 63.6875 35.5 63.265625 37.5 59.09375 
C 35.90625 59.09375 32.90625 59.09375 32.90625 55.59375 
C 32.90625 52.890625 35.09375 52 36.5 52 
C 37.40625 52 40.09375 52.390625 40.09375 55.796875 
C 40.09375 62.296875 35.09375 66 28.203125 66 
C 16.296875 66 3.796875 53.296875 3.796875 31.421875 
C 3.796875 4.015625 15.09375 -2 23.09375 -2 
C 32.796875 -2 42 6.734375 42 20.234375 
C 42 32.828125 33.90625 42 23.703125 42 
C 17.59375 42 13.09375 37.96875 10.59375 30.921875 
z
M 23.09375 0.390625 
C 10.796875 0.390625 10.796875 18.9375 10.796875 22.65625 
C 10.796875 29.90625 14.203125 40.390625 23.5 40.390625 
C 25.203125 40.390625 30.09375 40.390625 33.40625 33.4375 
C 35.203125 29.515625 35.203125 25.375 35.203125 20.34375 
C 35.203125 14.90625 35.203125 10.875 33.09375 6.84375 
C 30.90625 2.703125 27.703125 0.390625 23.09375 0.390625 
z
" id="CMR17-54"/>
        <path d="M 42 31.84375 
C 42 37.96875 41.90625 48.421875 37.703125 56.453125 
C 34 63.484375 28.09375 66 22.90625 66 
C 18.09375 66 12 63.78125 8.203125 56.5625 
C 4.203125 49.015625 3.796875 39.671875 3.796875 31.84375 
C 3.796875 26.109375 3.90625 17.375 7 9.734375 
C 11.296875 -0.609375 19 -2 22.90625 -2 
C 27.5 -2 34.5 -0.109375 38.59375 9.4375 
C 41.59375 16.375 42 24.5 42 31.84375 
z
M 22.90625 -0.40625 
C 16.5 -0.40625 12.703125 5.125 11.296875 12.75 
C 10.203125 18.6875 10.203125 27.328125 10.203125 32.953125 
C 10.203125 40.6875 10.203125 47.109375 11.5 53.234375 
C 13.40625 61.78125 19 64.390625 22.90625 64.390625 
C 27 64.390625 32.296875 61.671875 34.203125 53.4375 
C 35.5 47.71875 35.59375 40.984375 35.59375 32.953125 
C 35.59375 26.421875 35.59375 18.375 34.40625 12.453125 
C 32.296875 1.5 26.40625 -0.40625 22.90625 -0.40625 
z
" id="CMR17-48"/>
       </defs>
       <use transform="scale(0.996264)" xlink:href="#CMSY10-0"/>
       <use transform="translate(77.487468 0)scale(0.996264)" xlink:href="#CMR17-54"/>
       <use transform="translate(123.177945 0)scale(0.996264)" xlink:href="#CMR17-48"/>
      </g>
     </g>
    </g>
    <g id="xtick_2">
     <g id="line2d_3">
      <path clip-path="url(#p5061d748b4)" d="M 200.864164 327.783595 
L 200.864164 7.2 
" style="fill:none;stroke:#b0b0b0;stroke-dasharray:0.8,1.32;stroke-dashoffset:0;stroke-width:0.8;"/>
     </g>
     <g id="line2d_4">
      <g>
       <use style="stroke:#000000;stroke-width:0.8;" x="200.864164" xlink:href="#me895befb52" y="327.783595"/>
      </g>
     </g>
     <g id="text_2">
      <!-- $\mathdefault{−40}$ -->
      <g transform="translate(192.008457 340.871878)scale(0.1 -0.1)">
       <defs>
        <path d="M 33.59375 64.796875 
C 33.59375 66.890625 33.5 67 31.703125 67 
L 2 19.59375 
L 2 17 
L 27.796875 17 
L 27.796875 7.1875 
C 27.796875 3.59375 27.59375 2.59375 20.59375 2.59375 
L 18.703125 2.59375 
L 18.703125 0 
C 21.90625 0.1875 27.296875 0.1875 30.703125 0.1875 
C 34.09375 0.1875 39.5 0.1875 42.703125 0 
L 42.703125 2.59375 
L 40.796875 2.59375 
C 33.796875 2.59375 33.59375 3.59375 33.59375 7.1875 
L 33.59375 17 
L 43.796875 17 
L 43.796875 19.59375 
L 33.59375 19.59375 
z
M 28.09375 58.171875 
L 28.09375 19.59375 
L 4 19.59375 
z
" id="CMR17-52"/>
       </defs>
       <use transform="scale(0.996264)" xlink:href="#CMSY10-0"/>
       <use transform="translate(77.487468 0)scale(0.996264)" xlink:href="#CMR17-52"/>
       <use transform="translate(123.177945 0)scale(0.996264)" xlink:href="#CMR17-48"/>
      </g>
     </g>
    </g>
    <g id="xtick_3">
     <g id="line2d_5">
      <path clip-path="url(#p5061d748b4)" d="M 296.032953 327.783595 
L 296.032953 7.2 
" style="fill:none;stroke:#b0b0b0;stroke-dasharray:0.8,1.32;stroke-dashoffset:0;stroke-width:0.8;"/>
     </g>
     <g id="line2d_6">
      <g>
       <use style="stroke:#000000;stroke-width:0.8;" x="296.032953" xlink:href="#me895befb52" y="327.783595"/>
      </g>
     </g>
     <g id="text_3">
      <!-- $\mathdefault{−20}$ -->
      <g transform="translate(287.177246 340.871878)scale(0.1 -0.1)">
       <defs>
        <path d="M 41.703125 15.46875 
L 39.90625 15.46875 
C 38.90625 8.390625 38.09375 7.1875 37.703125 6.59375 
C 37.203125 5.796875 30 5.796875 28.59375 5.796875 
L 9.40625 5.796875 
C 13 9.6875 20 16.765625 28.5 24.9375 
C 34.59375 30.71875 41.703125 37.5 41.703125 47.390625 
C 41.703125 59.1875 32.296875 66 21.796875 66 
C 10.796875 66 4.09375 56.296875 4.09375 47.296875 
C 4.09375 43.390625 7 42.890625 8.203125 42.890625 
C 9.203125 42.890625 12.203125 43.484375 12.203125 46.984375 
C 12.203125 50.09375 9.59375 51 8.203125 51 
C 7.59375 51 7 50.890625 6.59375 50.6875 
C 8.5 59.1875 14.296875 63.390625 20.40625 63.390625 
C 29.09375 63.390625 34.796875 56.5 34.796875 47.390625 
C 34.796875 38.703125 29.703125 31.21875 24 24.734375 
L 4.09375 2.296875 
L 4.09375 0 
L 39.296875 0 
z
" id="CMR17-50"/>
       </defs>
       <use transform="scale(0.996264)" xlink:href="#CMSY10-0"/>
       <use transform="translate(77.487468 0)scale(0.996264)" xlink:href="#CMR17-50"/>
       <use transform="translate(123.177945 0)scale(0.996264)" xlink:href="#CMR17-48"/>
      </g>
     </g>
    </g>
    <g id="xtick_4">
     <g id="line2d_7">
      <path clip-path="url(#p5061d748b4)" d="M 391.201743 327.783595 
L 391.201743 7.2 
" style="fill:none;stroke:#b0b0b0;stroke-dasharray:0.8,1.32;stroke-dashoffset:0;stroke-width:0.8;"/>
     </g>
     <g id="line2d_8">
      <g>
       <use style="stroke:#000000;stroke-width:0.8;" x="391.201743" xlink:href="#me895befb52" y="327.783595"/>
      </g>
     </g>
     <g id="text_4">
      <!-- $\mathdefault{0}$ -->
      <g transform="translate(388.711075 340.871878)scale(0.1 -0.1)">
       <use transform="scale(0.996264)" xlink:href="#CMR17-48"/>
      </g>
     </g>
    </g>
    <g id="xtick_5">
     <g id="line2d_9">
      <path clip-path="url(#p5061d748b4)" d="M 486.370532 327.783595 
L 486.370532 7.2 
" style="fill:none;stroke:#b0b0b0;stroke-dasharray:0.8,1.32;stroke-dashoffset:0;stroke-width:0.8;"/>
     </g>
     <g id="line2d_10">
      <g>
       <use style="stroke:#000000;stroke-width:0.8;" x="486.370532" xlink:href="#me895befb52" y="327.783595"/>
      </g>
     </g>
     <g id="text_5">
      <!-- $\mathdefault{20}$ -->
      <g transform="translate(481.389197 340.871878)scale(0.1 -0.1)">
       <use transform="scale(0.996264)" xlink:href="#CMR17-50"/>
       <use transform="translate(45.690477 0)scale(0.996264)" xlink:href="#CMR17-48"/>
      </g>
     </g>
    </g>
    <g id="xtick_6">
     <g id="line2d_11">
      <path clip-path="url(#p5061d748b4)" d="M 581.539322 327.783595 
L 581.539322 7.2 
" style="fill:none;stroke:#b0b0b0;stroke-dasharray:0.8,1.32;stroke-dashoffset:0;stroke-width:0.8;"/>
     </g>
     <g id="line2d_12">
      <g>
       <use style="stroke:#000000;stroke-width:0.8;" x="581.539322" xlink:href="#me895befb52" y="327.783595"/>
      </g>
     </g>
     <g id="text_6">
      <!-- $\mathdefault{40}$ -->
      <g transform="translate(576.557986 340.871878)scale(0.1 -0.1)">
       <use transform="scale(0.996264)" xlink:href="#CMR17-52"/>
       <use transform="translate(45.690477 0)scale(0.996264)" xlink:href="#CMR17-48"/>
      </g>
     </g>
    </g>
    <g id="xtick_7">
     <g id="line2d_13">
      <path clip-path="url(#p5061d748b4)" d="M 676.708111 327.783595 
L 676.708111 7.2 
" style="fill:none;stroke:#b0b0b0;stroke-dasharray:0.8,1.32;stroke-dashoffset:0;stroke-width:0.8;"/>
     </g>
     <g id="line2d_14">
      <g>
       <use style="stroke:#000000;stroke-width:0.8;" x="676.708111" xlink:href="#me895befb52" y="327.783595"/>
      </g>
     </g>
     <g id="text_7">
      <!-- $\mathdefault{60}$ -->
      <g transform="translate(671.726776 340.871878)scale(0.1 -0.1)">
       <use transform="scale(0.996264)" xlink:href="#CMR17-54"/>
       <use transform="translate(45.690477 0)scale(0.996264)" xlink:href="#CMR17-48"/>
      </g>
     </g>
    </g>
    <g id="text_8">
     <!-- Index j -->
     <g transform="translate(358.319227 357.435863)scale(0.17 -0.17)">
      <defs>
       <path d="M 29 55.1875 
L 39.203125 55.1875 
C 40.59375 55.1875 43.203125 55.1875 43.203125 58.09375 
C 43.203125 61 40.59375 61 39.203125 61 
L 12.296875 61 
C 10.90625 61 8.296875 61 8.296875 58.09375 
C 8.296875 55.1875 10.90625 55.1875 12.296875 55.1875 
L 22.5 55.1875 
L 22.5 5.796875 
L 12.296875 5.796875 
C 10.90625 5.796875 8.296875 5.796875 8.296875 2.890625 
C 8.296875 0 10.90625 0 12.296875 0 
L 39.203125 0 
C 40.59375 0 43.203125 0 43.203125 2.890625 
C 43.203125 5.796875 40.59375 5.796875 39.203125 5.796875 
L 29 5.796875 
z
" id="CMTT12-73"/>
       <path d="M 41.796875 29.515625 
C 41.796875 39.390625 37.203125 44 29 44 
C 22.203125 44 17.796875 40.1875 16.09375 38.296875 
C 16.09375 41.984375 16.09375 43.390625 12.09375 43.390625 
L 5.5 43.390625 
C 4.09375 43.390625 1.5 43.390625 1.5 40.484375 
C 1.5 37.59375 4.09375 37.59375 5.5 37.59375 
L 9.59375 37.59375 
L 9.59375 5.796875 
L 5.5 5.796875 
C 4.09375 5.796875 1.5 5.796875 1.5 2.890625 
C 1.5 0 4.09375 0 5.5 0 
L 20.203125 0 
C 21.59375 0 24.203125 0 24.203125 2.890625 
C 24.203125 5.796875 21.59375 5.796875 20.203125 5.796875 
L 16.09375 5.796875 
L 16.09375 24.0625 
C 16.09375 33.859375 22.90625 38.1875 28.296875 38.1875 
C 34.09375 38.1875 35.296875 34.859375 35.296875 29.109375 
L 35.296875 5.796875 
L 31.203125 5.796875 
C 29.796875 5.796875 27.203125 5.796875 27.203125 2.890625 
C 27.203125 0 29.796875 0 31.203125 0 
L 45.90625 0 
C 47.296875 0 49.90625 0 49.90625 2.890625 
C 49.90625 5.796875 47.296875 5.796875 45.90625 5.796875 
L 41.796875 5.796875 
z
" id="CMTT12-110"/>
       <path d="M 41.796875 56.890625 
C 41.796875 59.984375 41.203125 61 37.796875 61 
L 31.203125 61 
C 29.796875 61 27.203125 61 27.203125 58.09375 
C 27.203125 55.1875 29.796875 55.1875 31.203125 55.1875 
L 35.296875 55.1875 
L 35.296875 38.984375 
C 33.703125 40.59375 29.59375 44 23.5 44 
C 12.90625 44 3.703125 34.3125 3.703125 21.4375 
C 3.703125 8.875 12.296875 -1 22.59375 -1 
C 29.09375 -1 33.40625 2.890625 35.296875 5.09375 
C 35.296875 0.890625 35.296875 -0.40625 39.296875 -0.40625 
L 45.90625 -0.40625 
C 47.296875 -0.40625 49.90625 -0.40625 49.90625 2.5 
C 49.90625 5.40625 47.296875 5.40625 45.90625 5.40625 
L 41.796875 5.40625 
z
M 35.296875 18.890625 
C 35.296875 13.171875 30.703125 4.796875 23.203125 4.796875 
C 16 4.796875 10.203125 12.25 10.203125 21.4375 
C 10.203125 31.25 17 38.1875 24.09375 38.1875 
C 30.59375 38.1875 35.296875 32.171875 35.296875 26.859375 
z
" id="CMTT12-100"/>
       <path d="M 41.59375 19 
C 43.703125 19 45.59375 19 45.59375 22.6875 
C 45.59375 34.53125 39 44 26.5 44 
C 14.90625 44 5.59375 33.921875 5.59375 21.59375 
C 5.59375 8.84375 15.703125 -1 28 -1 
C 40.90625 -1 45.59375 7.9375 45.59375 10.578125 
C 45.59375 11.1875 45.40625 13.40625 42.296875 13.40625 
C 40.40625 13.40625 39.796875 12.703125 39.203125 11.1875 
C 36.703125 5.296875 30.203125 4.796875 28.296875 4.796875 
C 20 4.796875 13.40625 11.1875 12.296875 19 
z
M 12.40625 24.5 
C 13.703125 33.125 20.203125 38.1875 26.5 38.1875 
C 36.5 38.1875 38.59375 29.5625 39 24.5 
z
" id="CMTT12-101"/>
       <path d="M 28.203125 22.140625 
L 39.703125 37.1875 
L 43.203125 37.1875 
C 44.59375 37.1875 47.203125 37.1875 47.203125 40.09375 
C 47.203125 43 44.59375 43 43.203125 43 
L 32.09375 43 
C 30.703125 43 28.09375 43 28.09375 40.09375 
C 28.09375 37.1875 30.5 37.1875 32.90625 37.1875 
L 25.40625 26.921875 
L 17.703125 37.1875 
C 20 37.1875 22.40625 37.1875 22.40625 40.09375 
C 22.40625 43 19.796875 43 18.40625 43 
L 7.296875 43 
C 5.90625 43 3.296875 43 3.296875 40.09375 
C 3.296875 37.1875 5.90625 37.1875 7.296875 37.1875 
L 10.796875 37.1875 
L 22.703125 22.140625 
L 10.203125 5.796875 
L 6.796875 5.796875 
C 5.40625 5.796875 2.703125 5.796875 2.703125 2.890625 
C 2.703125 0 5.40625 0 6.796875 0 
L 17.796875 0 
C 19.203125 0 21.796875 0 21.796875 2.890625 
C 21.796875 5.796875 19.5 5.796875 16.796875 5.796875 
L 25.40625 18.359375 
L 34.40625 5.796875 
C 31.90625 5.796875 29.5 5.796875 29.5 2.890625 
C 29.5 0 32.09375 0 33.5 0 
L 44.59375 0 
C 46 0 48.59375 0 48.59375 2.890625 
C 48.59375 5.796875 46 5.796875 44.59375 5.796875 
L 41.09375 5.796875 
z
" id="CMTT12-120"/>
       <path d="M 36 56.484375 
C 36 58.984375 34 61 31.5 61 
C 29 61 27 58.984375 27 56.484375 
C 27 53.984375 29 51.984375 31.5 51.984375 
C 34 51.984375 36 53.984375 36 56.484375 
z
M 17.296875 43 
C 15.90625 43 13.296875 43 13.296875 40.09375 
C 13.296875 37.1875 15.703125 37.1875 17.296875 37.1875 
L 29.5 37.1875 
L 29.5 -4.078125 
C 29.5 -5.6875 29.5 -10 26.703125 -13.703125 
C 24 -17.203125 21.203125 -17.203125 18.796875 -17.203125 
C 16.796875 -17.203125 14.40625 -17.109375 12.703125 -16.703125 
C 12.703125 -15.296875 12.703125 -11.59375 8.796875 -11.59375 
C 7 -11.59375 4.703125 -12.90625 4.703125 -15.8125 
C 4.703125 -23 14.5 -23 18.5 -23 
C 22.09375 -23 26.203125 -23 31.203125 -17.90625 
C 32.203125 -16.90625 36 -12.296875 36 -4.578125 
L 36 38.890625 
C 36 41.984375 35.40625 43 32 43 
z
" id="CMTT12-106"/>
      </defs>
      <use transform="scale(0.996264)" xlink:href="#CMTT12-73"/>
      <use transform="translate(51.266111 0)scale(0.996264)" xlink:href="#CMTT12-110"/>
      <use transform="translate(102.532222 0)scale(0.996264)" xlink:href="#CMTT12-100"/>
      <use transform="translate(153.798333 0)scale(0.996264)" xlink:href="#CMTT12-101"/>
      <use transform="translate(205.064443 0)scale(0.996264)" xlink:href="#CMTT12-120"/>
      <use transform="translate(307.596665 0)scale(0.996264)" xlink:href="#CMTT12-106"/>
     </g>
    </g>
   </g>
   <g id="matplotlib.axis_2">
    <g id="ytick_1">
     <g id="line2d_15">
      <path clip-path="url(#p5061d748b4)" d="M 56.445526 283.671907 
L 721.19952 283.671907 
" style="fill:none;stroke:#b0b0b0;stroke-dasharray:0.8,1.32;stroke-dashoffset:0;stroke-width:0.8;"/>
     </g>
     <g id="line2d_16">
      <defs>
       <path d="M 0 0 
L -3.5 0 
" id="m7aad9894c9" style="stroke:#000000;stroke-width:0.8;"/>
      </defs>
      <g>
       <use style="stroke:#000000;stroke-width:0.8;" x="56.445526" xlink:href="#m7aad9894c9" y="283.671907"/>
      </g>
     </g>
     <g id="text_9">
      <!-- $\mathdefault{10^{-17}}$ -->
      <g transform="translate(25.313715 286.716049)scale(0.1 -0.1)">
       <defs>
        <path d="M 26.59375 63.796875 
C 26.59375 65.890625 26.5 66 25.09375 66 
C 21.203125 61.359375 15.296875 59.890625 9.703125 59.6875 
C 9.40625 59.6875 8.90625 59.6875 8.796875 59.5 
C 8.703125 59.296875 8.703125 59.09375 8.703125 57 
C 11.796875 57 17 57.59375 21 59.984375 
L 21 7.296875 
C 21 3.796875 20.796875 2.59375 12.203125 2.59375 
L 9.203125 2.59375 
L 9.203125 0 
C 14 0.09375 19 0.1875 23.796875 0.1875 
C 28.59375 0.1875 33.59375 0.09375 38.40625 0 
L 38.40625 2.59375 
L 35.40625 2.59375 
C 26.796875 2.59375 26.59375 3.6875 26.59375 7.296875 
z
" id="CMR17-49"/>
        <path d="M 45.09375 61.796875 
L 45.09375 64 
L 21.59375 64 
C 9.90625 64 9.703125 65.09375 9.296875 67 
L 7.5 67 
L 4.59375 48.5 
L 6.40625 48.5 
C 6.703125 50.40625 7.40625 55.5 8.59375 57.390625 
C 9.203125 58.1875 16.59375 58.1875 18.296875 58.1875 
L 40.296875 58.1875 
L 29.203125 41.71875 
C 21.796875 30.640625 16.703125 15.671875 16.703125 2.59375 
C 16.703125 1.390625 16.703125 -2 20.296875 -2 
C 23.90625 -2 23.90625 1.390625 23.90625 2.6875 
L 23.90625 7.28125 
C 23.90625 23.65625 26.703125 34.4375 31.296875 41.3125 
z
" id="CMR17-55"/>
       </defs>
       <use transform="scale(0.996264)" xlink:href="#CMR17-49"/>
       <use transform="translate(45.690477 0)scale(0.996264)" xlink:href="#CMR17-48"/>
       <use transform="translate(91.380954 36.153639)scale(0.697382)" xlink:href="#CMSY10-0"/>
       <use transform="translate(145.621947 36.153639)scale(0.697382)" xlink:href="#CMR17-49"/>
       <use transform="translate(177.605129 36.153639)scale(0.697382)" xlink:href="#CMR17-55"/>
      </g>
     </g>
    </g>
    <g id="ytick_2">
     <g id="line2d_17">
      <path clip-path="url(#p5061d748b4)" d="M 56.445526 236.809535 
L 721.19952 236.809535 
" style="fill:none;stroke:#b0b0b0;stroke-dasharray:0.8,1.32;stroke-dashoffset:0;stroke-width:0.8;"/>
     </g>
     <g id="line2d_18">
      <g>
       <use style="stroke:#000000;stroke-width:0.8;" x="56.445526" xlink:href="#m7aad9894c9" y="236.809535"/>
      </g>
     </g>
     <g id="text_10">
      <!-- $\mathdefault{10^{-14}}$ -->
      <g transform="translate(25.313715 239.853677)scale(0.1 -0.1)">
       <use transform="scale(0.996264)" xlink:href="#CMR17-49"/>
       <use transform="translate(45.690477 0)scale(0.996264)" xlink:href="#CMR17-48"/>
       <use transform="translate(91.380954 36.153639)scale(0.697382)" xlink:href="#CMSY10-0"/>
       <use transform="translate(145.621947 36.153639)scale(0.697382)" xlink:href="#CMR17-49"/>
       <use transform="translate(177.605129 36.153639)scale(0.697382)" xlink:href="#CMR17-52"/>
      </g>
     </g>
    </g>
    <g id="ytick_3">
     <g id="line2d_19">
      <path clip-path="url(#p5061d748b4)" d="M 56.445526 189.947163 
L 721.19952 189.947163 
" style="fill:none;stroke:#b0b0b0;stroke-dasharray:0.8,1.32;stroke-dashoffset:0;stroke-width:0.8;"/>
     </g>
     <g id="line2d_20">
      <g>
       <use style="stroke:#000000;stroke-width:0.8;" x="56.445526" xlink:href="#m7aad9894c9" y="189.947163"/>
      </g>
     </g>
     <g id="text_11">
      <!-- $\mathdefault{10^{-11}}$ -->
      <g transform="translate(25.313715 192.991304)scale(0.1 -0.1)">
       <use transform="scale(0.996264)" xlink:href="#CMR17-49"/>
       <use transform="translate(45.690477 0)scale(0.996264)" xlink:href="#CMR17-48"/>
       <use transform="translate(91.380954 36.153639)scale(0.697382)" xlink:href="#CMSY10-0"/>
       <use transform="translate(145.621947 36.153639)scale(0.697382)" xlink:href="#CMR17-49"/>
       <use transform="translate(177.605129 36.153639)scale(0.697382)" xlink:href="#CMR17-49"/>
      </g>
     </g>
    </g>
    <g id="ytick_4">
     <g id="line2d_21">
      <path clip-path="url(#p5061d748b4)" d="M 56.445526 143.08479 
L 721.19952 143.08479 
" style="fill:none;stroke:#b0b0b0;stroke-dasharray:0.8,1.32;stroke-dashoffset:0;stroke-width:0.8;"/>
     </g>
     <g id="line2d_22">
      <g>
       <use style="stroke:#000000;stroke-width:0.8;" x="56.445526" xlink:href="#m7aad9894c9" y="143.08479"/>
      </g>
     </g>
     <g id="text_12">
      <!-- $\mathdefault{10^{-8}}$ -->
      <g transform="translate(29.284952 146.128932)scale(0.1 -0.1)">
       <defs>
        <path d="M 27.203125 35.765625 
C 33.5 38.96875 39.90625 43.796875 39.90625 51.53125 
C 39.90625 60.6875 31.09375 66 23 66 
C 13.90625 66 5.90625 59.375 5.90625 50.234375 
C 5.90625 47.71875 6.5 43.390625 10.40625 39.578125 
C 11.40625 38.578125 15.59375 35.5625 18.296875 33.65625 
C 13.796875 31.34375 3.296875 25.8125 3.296875 14.765625 
C 3.296875 4.40625 13.09375 -2 22.796875 -2 
C 33.5 -2 42.5 5.71875 42.5 15.96875 
C 42.5 25.109375 36.40625 29.328125 32.40625 32.046875 
z
M 14.09375 44.609375 
C 13.296875 45.109375 9.296875 48.21875 9.296875 52.9375 
C 9.296875 59.078125 15.59375 63.6875 22.796875 63.6875 
C 30.703125 63.6875 36.5 58.0625 36.5 51.53125 
C 36.5 42.1875 26.09375 36.859375 25.59375 36.859375 
C 25.5 36.859375 25.40625 36.859375 24.59375 37.46875 
z
M 32.5 24 
C 34 22.90625 38.796875 19.578125 38.796875 13.453125 
C 38.796875 6.015625 31.40625 0.390625 23 0.390625 
C 13.90625 0.390625 7 6.921875 7 14.859375 
C 7 22.796875 13.09375 29.4375 20 32.546875 
z
" id="CMR17-56"/>
       </defs>
       <use transform="scale(0.996264)" xlink:href="#CMR17-49"/>
       <use transform="translate(45.690477 0)scale(0.996264)" xlink:href="#CMR17-48"/>
       <use transform="translate(91.380954 36.153639)scale(0.697382)" xlink:href="#CMSY10-0"/>
       <use transform="translate(145.621947 36.153639)scale(0.697382)" xlink:href="#CMR17-56"/>
      </g>
     </g>
    </g>
    <g id="ytick_5">
     <g id="line2d_23">
      <path clip-path="url(#p5061d748b4)" d="M 56.445526 96.222418 
L 721.19952 96.222418 
" style="fill:none;stroke:#b0b0b0;stroke-dasharray:0.8,1.32;stroke-dashoffset:0;stroke-width:0.8;"/>
     </g>
     <g id="line2d_24">
      <g>
       <use style="stroke:#000000;stroke-width:0.8;" x="56.445526" xlink:href="#m7aad9894c9" y="96.222418"/>
      </g>
     </g>
     <g id="text_13">
      <!-- $\mathdefault{10^{-5}}$ -->
      <g transform="translate(29.284952 99.26656)scale(0.1 -0.1)">
       <defs>
        <path d="M 11.40625 58.59375 
C 12.40625 58.1875 16.5 56.890625 20.703125 56.890625 
C 30 56.890625 35.09375 61.890625 38 64.6875 
C 38 65.484375 38 66 37.40625 66 
C 37.296875 66 37.09375 66 36.296875 65.59375 
C 32.796875 64.09375 28.703125 63 23.703125 63 
C 20.703125 63 16.203125 63.359375 11.296875 65.484375 
C 10.203125 66 10 66 9.90625 66 
C 9.40625 66 9.296875 65.890625 9.296875 63.90625 
L 9.296875 34.859375 
C 9.296875 33.015625 9.296875 32.5 10.296875 32.5 
C 10.796875 32.5 11 32.703125 11.5 33.421875 
C 14.703125 38.046875 19.09375 40 24.09375 40 
C 27.59375 40 35.09375 37.734375 35.09375 20.203125 
C 35.09375 16.984375 35.09375 11.1875 32.09375 6.59375 
C 29.59375 2.484375 25.703125 0.390625 21.40625 0.390625 
C 14.796875 0.390625 8.09375 4.984375 6.296875 12.6875 
C 6.703125 12.59375 7.5 12.390625 7.90625 12.390625 
C 9.203125 12.390625 11.703125 13.09375 11.703125 16.1875 
C 11.703125 18.890625 9.796875 20 7.90625 20 
C 5.59375 20 4.09375 18.59375 4.09375 15.796875 
C 4.09375 7.09375 11 -2 21.59375 -2 
C 31.90625 -2 41.703125 6.890625 41.703125 19.796875 
C 41.703125 32.09375 33.90625 41.59375 24.203125 41.59375 
C 19.09375 41.59375 14.796875 39.6875 11.40625 36 
z
" id="CMR17-53"/>
       </defs>
       <use transform="scale(0.996264)" xlink:href="#CMR17-49"/>
       <use transform="translate(45.690477 0)scale(0.996264)" xlink:href="#CMR17-48"/>
       <use transform="translate(91.380954 36.153639)scale(0.697382)" xlink:href="#CMSY10-0"/>
       <use transform="translate(145.621947 36.153639)scale(0.697382)" xlink:href="#CMR17-53"/>
      </g>
     </g>
    </g>
    <g id="ytick_6">
     <g id="line2d_25">
      <path clip-path="url(#p5061d748b4)" d="M 56.445526 49.360046 
L 721.19952 49.360046 
" style="fill:none;stroke:#b0b0b0;stroke-dasharray:0.8,1.32;stroke-dashoffset:0;stroke-width:0.8;"/>
     </g>
     <g id="line2d_26">
      <g>
       <use style="stroke:#000000;stroke-width:0.8;" x="56.445526" xlink:href="#m7aad9894c9" y="49.360046"/>
      </g>
     </g>
     <g id="text_14">
      <!-- $\mathdefault{10^{-2}}$ -->
      <g transform="translate(29.284952 52.404187)scale(0.1 -0.1)">
       <use transform="scale(0.996264)" xlink:href="#CMR17-49"/>
       <use transform="translate(45.690477 0)scale(0.996264)" xlink:href="#CMR17-48"/>
       <use transform="translate(91.380954 36.153639)scale(0.697382)" xlink:href="#CMSY10-0"/>
       <use transform="translate(145.621947 36.153639)scale(0.697382)" xlink:href="#CMR17-50"/>
      </g>
     </g>
    </g>
    <g id="text_15">
     <!-- Amplitude -->
     <g transform="translate(17.550058 206.710321)rotate(-90)scale(0.17 -0.17)">
      <defs>
       <path d="M 30.796875 59.375 
C 30 63 28 63 25.703125 63 
C 22.59375 63 21.40625 62.59375 20.703125 59.375 
L 8.296875 5.796875 
C 5 5.796875 2.703125 5.796875 2.703125 2.890625 
C 2.703125 0 5.40625 0 6.796875 0 
L 16.40625 0 
C 17.796875 0 20.5 0 20.5 2.890625 
C 20.5 5.796875 18.09375 5.796875 15 5.796875 
L 17.59375 17 
L 33.796875 17 
L 36.40625 5.796875 
C 33.296875 5.796875 30.90625 5.796875 30.90625 2.890625 
C 30.90625 0 33.59375 0 35 0 
L 44.59375 0 
C 46 0 48.703125 0 48.703125 2.890625 
C 48.703125 5.796875 46.40625 5.796875 43.09375 5.796875 
z
M 18.90625 22.796875 
C 19.59375 25.828125 25.09375 49.75 25.59375 54.609375 
L 25.703125 54.609375 
C 26 52.28125 27.40625 46.09375 27.40625 46 
L 32.5 22.796875 
z
" id="CMTT12-65"/>
       <path d="M 45.296875 30.515625 
C 45.296875 32.75 45.296875 44 36.5 44 
C 33 44 29.59375 42.390625 26.90625 38.6875 
C 26.296875 40.1875 24.09375 44 19.296875 44 
C 14.796875 44 11.703125 41.09375 10.90625 40.1875 
C 10.796875 43.390625 8.703125 43.390625 6.90625 43.390625 
L 3.90625 43.390625 
C 2.5 43.390625 -0.109375 43.390625 -0.109375 40.484375 
C -0.109375 37.59375 2.203125 37.59375 5.296875 37.59375 
L 5.296875 5.796875 
C 2.09375 5.796875 -0.109375 5.796875 -0.109375 2.890625 
C -0.109375 0 2.5 0 3.90625 0 
L 12.296875 0 
C 13.703125 0 16.296875 0 16.296875 2.890625 
C 16.296875 5.796875 14 5.796875 10.90625 5.796875 
L 10.90625 24.359375 
C 10.90625 32.84375 14.5 38.1875 18.90625 38.1875 
C 21.703125 38.1875 22.5 34.65625 22.5 29.921875 
L 22.5 5.796875 
C 20.796875 5.796875 18.09375 5.796875 18.09375 2.890625 
C 18.09375 0 20.796875 0 22.203125 0 
L 29.5 0 
C 30.90625 0 33.5 0 33.5 2.890625 
C 33.5 5.796875 31.203125 5.796875 28.09375 5.796875 
L 28.09375 24.359375 
C 28.09375 32.84375 31.703125 38.1875 36.09375 38.1875 
C 38.90625 38.1875 39.703125 34.65625 39.703125 29.921875 
L 39.703125 5.796875 
C 38 5.796875 35.296875 5.796875 35.296875 2.890625 
C 35.296875 0 38 0 39.40625 0 
L 46.703125 0 
C 48.09375 0 50.703125 0 50.703125 2.890625 
C 50.703125 5.796875 48.40625 5.796875 45.296875 5.796875 
z
" id="CMTT12-109"/>
       <path d="M 20.203125 -22 
C 21.59375 -22 24.203125 -22 24.203125 -19.109375 
C 24.203125 -16.203125 21.59375 -16.203125 20.203125 -16.203125 
L 16.09375 -16.203125 
L 16.09375 4.59375 
C 18.5 1.890625 22.203125 -1 27.796875 -1 
C 38.40625 -1 47.703125 8.53125 47.703125 21.34375 
C 47.703125 33.765625 39.296875 43.59375 28.90625 43.59375 
C 21.59375 43.59375 17 39.1875 16.09375 38.1875 
C 16.09375 41.484375 16.09375 43 12.09375 43 
L 5.5 43 
C 4.09375 43 1.5 43 1.5 40.09375 
C 1.5 37.1875 4.09375 37.1875 5.5 37.1875 
L 9.59375 37.1875 
L 9.59375 -16.203125 
L 5.5 -16.203125 
C 4.09375 -16.203125 1.5 -16.203125 1.5 -19.109375 
C 1.5 -22 4.09375 -22 5.5 -22 
z
M 16.09375 26.390625 
C 16.09375 32.140625 21.703125 37.796875 28.203125 37.796875 
C 35.40625 37.796875 41.203125 30.4375 41.203125 21.34375 
C 41.203125 11.65625 34.40625 4.796875 27.296875 4.796875 
C 19.796875 4.796875 16.09375 13.375 16.09375 18.421875 
z
" id="CMTT12-112"/>
       <path d="M 29 56.890625 
C 29 59.984375 28.40625 61 25 61 
L 10.296875 61 
C 8.90625 61 6.296875 61 6.296875 58.09375 
C 6.296875 55.1875 8.90625 55.1875 10.296875 55.1875 
L 22.5 55.1875 
L 22.5 5.796875 
L 10.296875 5.796875 
C 8.90625 5.796875 6.296875 5.796875 6.296875 2.890625 
C 6.296875 0 8.90625 0 10.296875 0 
L 41.203125 0 
C 42.59375 0 45.203125 0 45.203125 2.890625 
C 45.203125 5.796875 42.59375 5.796875 41.203125 5.796875 
L 29 5.796875 
z
" id="CMTT12-108"/>
       <path d="M 30.203125 56.484375 
C 30.203125 58.984375 28.203125 61 25.703125 61 
C 23.203125 61 21.203125 58.984375 21.203125 56.484375 
C 21.203125 53.984375 23.203125 51.984375 25.703125 51.984375 
C 28.203125 51.984375 30.203125 53.984375 30.203125 56.484375 
z
M 13 43 
C 11.59375 43 9 43 9 40.09375 
C 9 37.1875 11.59375 37.1875 13 37.1875 
L 23.703125 37.1875 
L 23.703125 5.796875 
L 12.296875 5.796875 
C 10.90625 5.796875 8.203125 5.796875 8.203125 2.890625 
C 8.203125 0 10.90625 0 12.296875 0 
L 40.09375 0 
C 41.5 0 44.09375 0 44.09375 2.890625 
C 44.09375 5.796875 41.5 5.796875 40.09375 5.796875 
L 30.203125 5.796875 
L 30.203125 38.890625 
C 30.203125 41.984375 29.59375 43 26.203125 43 
z
" id="CMTT12-105"/>
       <path d="M 21.59375 37.1875 
L 37.796875 37.1875 
C 39.203125 37.1875 41.796875 37.1875 41.796875 40.09375 
C 41.796875 43 39.203125 43 37.796875 43 
L 21.59375 43 
L 21.59375 50.953125 
C 21.59375 52.703125 21.59375 55 18.40625 55 
C 15.09375 55 15.09375 52.703125 15.09375 50.953125 
L 15.09375 43 
L 6.59375 43 
C 5.203125 43 2.5 43 2.5 40.09375 
C 2.5 37.1875 5.09375 37.1875 6.5 37.1875 
L 15.09375 37.1875 
L 15.09375 11.75 
C 15.09375 2.390625 21.5 -1 28.703125 -1 
C 34.09375 -1 44 1.6875 44 11.953125 
C 44 13.984375 44 16.203125 40.703125 16.203125 
C 37.5 16.203125 37.5 13.984375 37.5 11.859375 
C 37.40625 5.796875 31.703125 4.796875 29.40625 4.796875 
C 21.59375 4.796875 21.59375 9.84375 21.59375 12.265625 
z
" id="CMTT12-116"/>
       <path d="M 41.796875 38.890625 
C 41.796875 41.984375 41.203125 43 37.796875 43 
L 31.203125 43 
C 29.796875 43 27.203125 43 27.203125 40.09375 
C 27.203125 37.1875 29.796875 37.1875 31.203125 37.1875 
L 35.296875 37.1875 
L 35.296875 15.296875 
C 35.296875 7.015625 28.5 4.796875 24 4.796875 
C 16.09375 4.796875 16.09375 8.421875 16.09375 11.5625 
L 16.09375 38.890625 
C 16.09375 41.984375 15.5 43 12.09375 43 
L 5.5 43 
C 4.09375 43 1.5 43 1.5 40.09375 
C 1.5 37.1875 4.09375 37.1875 5.5 37.1875 
L 9.59375 37.1875 
L 9.59375 11.046875 
C 9.59375 1.796875 15.59375 -1 23.296875 -1 
C 29.40625 -1 33.203125 1.5 35.203125 3.1875 
C 35.203125 -0.40625 37.59375 -0.40625 39.296875 -0.40625 
L 45.90625 -0.40625 
C 47.296875 -0.40625 49.90625 -0.40625 49.90625 2.5 
C 49.90625 5.390625 47.296875 5.390625 45.90625 5.390625 
L 41.796875 5.390625 
z
" id="CMTT12-117"/>
      </defs>
      <use transform="scale(0.996264)" xlink:href="#CMTT12-65"/>
      <use transform="translate(51.266111 0)scale(0.996264)" xlink:href="#CMTT12-109"/>
      <use transform="translate(102.532222 0)scale(0.996264)" xlink:href="#CMTT12-112"/>
      <use transform="translate(153.798333 0)scale(0.996264)" xlink:href="#CMTT12-108"/>
      <use transform="translate(205.064443 0)scale(0.996264)" xlink:href="#CMTT12-105"/>
      <use transform="translate(256.330554 0)scale(0.996264)" xlink:href="#CMTT12-116"/>
      <use transform="translate(307.596665 0)scale(0.996264)" xlink:href="#CMTT12-117"/>
      <use transform="translate(358.862776 0)scale(0.996264)" xlink:href="#CMTT12-100"/>
      <use transform="translate(410.128887 0)scale(0.996264)" xlink:href="#CMTT12-101"/>
     </g>
    </g>
   </g>
   <g id="LineCollection_1">
    <path clip-path="url(#p5061d748b4)" d="M 315.066711 330.53428 
L 315.066711 -1 
" style="fill:none;stroke:#000000;stroke-dasharray:5.55,2.4;stroke-dashoffset:0;stroke-opacity:0.5;stroke-width:1.5;"/>
   </g>
   <g id="LineCollection_2">
    <path clip-path="url(#p5061d748b4)" d="M 467.336774 330.53428 
L 467.336774 -1 
" style="fill:none;stroke:#000000;stroke-dasharray:5.55,2.4;stroke-dashoffset:0;stroke-opacity:0.5;stroke-width:1.5;"/>
   </g>
   <g id="line2d_27">
    <path clip-path="url(#p5061d748b4)" d="M 145.636184 369.39952 
L 148.52133 358.14029 
L 153.279769 340.093657 
L 158.038209 322.570114 
L 162.796648 305.569662 
L 167.555087 289.092301 
L 172.313527 273.138031 
L 177.071966 257.706852 
L 181.830406 242.798763 
L 186.588845 228.413766 
L 191.347285 214.551859 
L 196.105724 201.213043 
L 200.864164 188.397318 
L 205.622603 176.104683 
L 210.381043 164.33514 
L 215.139482 153.088687 
L 219.897922 142.365325 
L 224.656361 132.165054 
L 229.414801 122.487874 
L 234.17324 113.333784 
L 238.93168 104.702786 
L 243.690119 96.594878 
L 248.448558 89.010061 
L 253.206998 81.948335 
L 257.965437 75.409699 
L 262.723877 69.394155 
L 267.482316 63.901701 
L 272.240756 58.932338 
L 276.999195 54.486066 
L 281.757635 50.562885 
L 286.516074 47.162795 
L 291.274514 44.285795 
L 296.032953 41.931887 
L 300.791393 40.101069 
L 305.549832 38.793342 
L 310.308272 38.008705 
L 315.066711 37.74716 
L 319.825151 38.008705 
L 324.58359 38.793342 
L 329.34203 40.101069 
L 334.100469 41.931887 
L 338.858908 44.285795 
L 343.617348 47.162795 
L 348.375787 50.562885 
L 353.134227 54.486066 
L 357.892666 58.932338 
L 362.651106 63.901699 
L 367.409545 69.394125 
L 372.167985 75.409349 
L 376.926424 81.944198 
L 386.443303 96.042657 
L 391.201743 100.000459 
L 395.960182 96.042657 
L 405.477061 81.944198 
L 410.235501 75.409349 
L 414.99394 69.394125 
L 419.752379 63.901699 
L 424.510819 58.932338 
L 429.269258 54.486066 
L 434.027698 50.562885 
L 438.786137 47.162795 
L 443.544577 44.285795 
L 448.303016 41.931887 
L 453.061456 40.101069 
L 457.819895 38.793342 
L 462.578335 38.008705 
L 467.336774 37.74716 
L 472.095214 38.008705 
L 476.853653 38.793342 
L 481.612093 40.101069 
L 486.370532 41.931887 
L 491.128972 44.285795 
L 495.887411 47.162795 
L 500.64585 50.562885 
L 505.40429 54.486066 
L 510.162729 58.932338 
L 514.921169 63.901701 
L 519.679608 69.394155 
L 524.438048 75.409699 
L 529.196487 81.948335 
L 533.954927 89.010061 
L 538.713366 96.594878 
L 543.471806 104.702786 
L 548.230245 113.333784 
L 552.988685 122.487874 
L 557.747124 132.165054 
L 562.505564 142.365325 
L 567.264003 153.088687 
L 572.022443 164.33514 
L 576.780882 176.104683 
L 581.539322 188.397318 
L 586.297761 201.213043 
L 591.0562 214.551859 
L 595.81464 228.413766 
L 600.573079 242.798763 
L 605.331519 257.706852 
L 610.089958 273.138031 
L 614.848398 289.092301 
L 619.606837 305.569662 
L 624.365277 322.570114 
L 629.123716 340.093657 
L 636.767302 369.39952 
L 636.767302 369.39952 
" style="fill:none;stroke:#1f77b4;stroke-linecap:square;stroke-opacity:0.85;stroke-width:3;"/>
   </g>
   <g id="line2d_28">
    <defs>
     <path d="M -3 3 
L 3 -3 
M -3 -3 
L 3 3 
" id="m7b8387421b" style="stroke:#ff7f0e;"/>
    </defs>
    <g clip-path="url(#p5061d748b4)">
     <use style="fill:#ff7f0e;stroke:#ff7f0e;" x="86.661616" xlink:href="#m7b8387421b" y="295.504582"/>
     <use style="fill:#ff7f0e;stroke:#ff7f0e;" x="91.420056" xlink:href="#m7b8387421b" y="297.21715"/>
     <use style="fill:#ff7f0e;stroke:#ff7f0e;" x="96.178495" xlink:href="#m7b8387421b" y="295.108879"/>
     <use style="fill:#ff7f0e;stroke:#ff7f0e;" x="100.936935" xlink:href="#m7b8387421b" y="291.937168"/>
     <use style="fill:#ff7f0e;stroke:#ff7f0e;" x="105.695374" xlink:href="#m7b8387421b" y="298.245349"/>
     <use style="fill:#ff7f0e;stroke:#ff7f0e;" x="110.453814" xlink:href="#m7b8387421b" y="291.070555"/>
     <use style="fill:#ff7f0e;stroke:#ff7f0e;" x="115.212253" xlink:href="#m7b8387421b" y="297.106544"/>
     <use style="fill:#ff7f0e;stroke:#ff7f0e;" x="119.970693" xlink:href="#m7b8387421b" y="293.538479"/>
     <use style="fill:#ff7f0e;stroke:#ff7f0e;" x="124.729132" xlink:href="#m7b8387421b" y="304.754746"/>
     <use style="fill:#ff7f0e;stroke:#ff7f0e;" x="129.487572" xlink:href="#m7b8387421b" y="297.274135"/>
     <use style="fill:#ff7f0e;stroke:#ff7f0e;" x="134.246011" xlink:href="#m7b8387421b" y="286.950484"/>
     <use style="fill:#ff7f0e;stroke:#ff7f0e;" x="139.004451" xlink:href="#m7b8387421b" y="286.033877"/>
     <use style="fill:#ff7f0e;stroke:#ff7f0e;" x="143.76289" xlink:href="#m7b8387421b" y="300.258059"/>
     <use style="fill:#ff7f0e;stroke:#ff7f0e;" x="148.52133" xlink:href="#m7b8387421b" y="290.853406"/>
     <use style="fill:#ff7f0e;stroke:#ff7f0e;" x="153.279769" xlink:href="#m7b8387421b" y="290.0965"/>
     <use style="fill:#ff7f0e;stroke:#ff7f0e;" x="158.038209" xlink:href="#m7b8387421b" y="284.431629"/>
     <use style="fill:#ff7f0e;stroke:#ff7f0e;" x="162.796648" xlink:href="#m7b8387421b" y="15638.909239"/>
     <use style="fill:#ff7f0e;stroke:#ff7f0e;" x="167.555087" xlink:href="#m7b8387421b" y="294.041921"/>
     <use style="fill:#ff7f0e;stroke:#ff7f0e;" x="172.313527" xlink:href="#m7b8387421b" y="272.478163"/>
     <use style="fill:#ff7f0e;stroke:#ff7f0e;" x="177.071966" xlink:href="#m7b8387421b" y="257.728315"/>
     <use style="fill:#ff7f0e;stroke:#ff7f0e;" x="181.830406" xlink:href="#m7b8387421b" y="242.799538"/>
     <use style="fill:#ff7f0e;stroke:#ff7f0e;" x="186.588845" xlink:href="#m7b8387421b" y="228.414141"/>
     <use style="fill:#ff7f0e;stroke:#ff7f0e;" x="191.347285" xlink:href="#m7b8387421b" y="214.551915"/>
     <use style="fill:#ff7f0e;stroke:#ff7f0e;" x="196.105724" xlink:href="#m7b8387421b" y="201.21305"/>
     <use style="fill:#ff7f0e;stroke:#ff7f0e;" x="200.864164" xlink:href="#m7b8387421b" y="188.397318"/>
     <use style="fill:#ff7f0e;stroke:#ff7f0e;" x="205.622603" xlink:href="#m7b8387421b" y="176.104683"/>
     <use style="fill:#ff7f0e;stroke:#ff7f0e;" x="210.381043" xlink:href="#m7b8387421b" y="164.33514"/>
     <use style="fill:#ff7f0e;stroke:#ff7f0e;" x="215.139482" xlink:href="#m7b8387421b" y="153.088687"/>
     <use style="fill:#ff7f0e;stroke:#ff7f0e;" x="219.897922" xlink:href="#m7b8387421b" y="142.365325"/>
     <use style="fill:#ff7f0e;stroke:#ff7f0e;" x="224.656361" xlink:href="#m7b8387421b" y="132.165054"/>
     <use style="fill:#ff7f0e;stroke:#ff7f0e;" x="229.414801" xlink:href="#m7b8387421b" y="122.487874"/>
     <use style="fill:#ff7f0e;stroke:#ff7f0e;" x="234.17324" xlink:href="#m7b8387421b" y="113.333784"/>
     <use style="fill:#ff7f0e;stroke:#ff7f0e;" x="238.93168" xlink:href="#m7b8387421b" y="104.702786"/>
     <use style="fill:#ff7f0e;stroke:#ff7f0e;" x="243.690119" xlink:href="#m7b8387421b" y="96.594878"/>
     <use style="fill:#ff7f0e;stroke:#ff7f0e;" x="248.448558" xlink:href="#m7b8387421b" y="89.010061"/>
     <use style="fill:#ff7f0e;stroke:#ff7f0e;" x="253.206998" xlink:href="#m7b8387421b" y="81.948335"/>
     <use style="fill:#ff7f0e;stroke:#ff7f0e;" x="257.965437" xlink:href="#m7b8387421b" y="75.409699"/>
     <use style="fill:#ff7f0e;stroke:#ff7f0e;" x="262.723877" xlink:href="#m7b8387421b" y="69.394155"/>
     <use style="fill:#ff7f0e;stroke:#ff7f0e;" x="267.482316" xlink:href="#m7b8387421b" y="63.901701"/>
     <use style="fill:#ff7f0e;stroke:#ff7f0e;" x="272.240756" xlink:href="#m7b8387421b" y="58.932338"/>
     <use style="fill:#ff7f0e;stroke:#ff7f0e;" x="276.999195" xlink:href="#m7b8387421b" y="54.486066"/>
     <use style="fill:#ff7f0e;stroke:#ff7f0e;" x="281.757635" xlink:href="#m7b8387421b" y="50.562885"/>
     <use style="fill:#ff7f0e;stroke:#ff7f0e;" x="286.516074" xlink:href="#m7b8387421b" y="47.162795"/>
     <use style="fill:#ff7f0e;stroke:#ff7f0e;" x="291.274514" xlink:href="#m7b8387421b" y="44.285795"/>
     <use style="fill:#ff7f0e;stroke:#ff7f0e;" x="296.032953" xlink:href="#m7b8387421b" y="41.931887"/>
     <use style="fill:#ff7f0e;stroke:#ff7f0e;" x="300.791393" xlink:href="#m7b8387421b" y="40.101069"/>
     <use style="fill:#ff7f0e;stroke:#ff7f0e;" x="305.549832" xlink:href="#m7b8387421b" y="38.793342"/>
     <use style="fill:#ff7f0e;stroke:#ff7f0e;" x="310.308272" xlink:href="#m7b8387421b" y="38.008705"/>
     <use style="fill:#ff7f0e;stroke:#ff7f0e;" x="315.066711" xlink:href="#m7b8387421b" y="37.74716"/>
     <use style="fill:#ff7f0e;stroke:#ff7f0e;" x="319.825151" xlink:href="#m7b8387421b" y="38.008705"/>
     <use style="fill:#ff7f0e;stroke:#ff7f0e;" x="324.58359" xlink:href="#m7b8387421b" y="38.793342"/>
     <use style="fill:#ff7f0e;stroke:#ff7f0e;" x="329.34203" xlink:href="#m7b8387421b" y="40.101069"/>
     <use style="fill:#ff7f0e;stroke:#ff7f0e;" x="334.100469" xlink:href="#m7b8387421b" y="41.931887"/>
     <use style="fill:#ff7f0e;stroke:#ff7f0e;" x="338.858908" xlink:href="#m7b8387421b" y="44.285795"/>
     <use style="fill:#ff7f0e;stroke:#ff7f0e;" x="343.617348" xlink:href="#m7b8387421b" y="47.162795"/>
     <use style="fill:#ff7f0e;stroke:#ff7f0e;" x="348.375787" xlink:href="#m7b8387421b" y="50.562885"/>
     <use style="fill:#ff7f0e;stroke:#ff7f0e;" x="353.134227" xlink:href="#m7b8387421b" y="54.486066"/>
     <use style="fill:#ff7f0e;stroke:#ff7f0e;" x="357.892666" xlink:href="#m7b8387421b" y="58.932338"/>
     <use style="fill:#ff7f0e;stroke:#ff7f0e;" x="362.651106" xlink:href="#m7b8387421b" y="63.901699"/>
     <use style="fill:#ff7f0e;stroke:#ff7f0e;" x="367.409545" xlink:href="#m7b8387421b" y="69.394125"/>
     <use style="fill:#ff7f0e;stroke:#ff7f0e;" x="372.167985" xlink:href="#m7b8387421b" y="75.409349"/>
     <use style="fill:#ff7f0e;stroke:#ff7f0e;" x="376.926424" xlink:href="#m7b8387421b" y="81.944198"/>
     <use style="fill:#ff7f0e;stroke:#ff7f0e;" x="381.684864" xlink:href="#m7b8387421b" y="88.961446"/>
     <use style="fill:#ff7f0e;stroke:#ff7f0e;" x="386.443303" xlink:href="#m7b8387421b" y="96.042657"/>
     <use style="fill:#ff7f0e;stroke:#ff7f0e;" x="391.201743" xlink:href="#m7b8387421b" y="100.000459"/>
     <use style="fill:#ff7f0e;stroke:#ff7f0e;" x="395.960182" xlink:href="#m7b8387421b" y="96.042657"/>
     <use style="fill:#ff7f0e;stroke:#ff7f0e;" x="400.718622" xlink:href="#m7b8387421b" y="88.961446"/>
     <use style="fill:#ff7f0e;stroke:#ff7f0e;" x="405.477061" xlink:href="#m7b8387421b" y="81.944198"/>
     <use style="fill:#ff7f0e;stroke:#ff7f0e;" x="410.235501" xlink:href="#m7b8387421b" y="75.409349"/>
     <use style="fill:#ff7f0e;stroke:#ff7f0e;" x="414.99394" xlink:href="#m7b8387421b" y="69.394125"/>
     <use style="fill:#ff7f0e;stroke:#ff7f0e;" x="419.752379" xlink:href="#m7b8387421b" y="63.901699"/>
     <use style="fill:#ff7f0e;stroke:#ff7f0e;" x="424.510819" xlink:href="#m7b8387421b" y="58.932338"/>
     <use style="fill:#ff7f0e;stroke:#ff7f0e;" x="429.269258" xlink:href="#m7b8387421b" y="54.486066"/>
     <use style="fill:#ff7f0e;stroke:#ff7f0e;" x="434.027698" xlink:href="#m7b8387421b" y="50.562885"/>
     <use style="fill:#ff7f0e;stroke:#ff7f0e;" x="438.786137" xlink:href="#m7b8387421b" y="47.162795"/>
     <use style="fill:#ff7f0e;stroke:#ff7f0e;" x="443.544577" xlink:href="#m7b8387421b" y="44.285795"/>
     <use style="fill:#ff7f0e;stroke:#ff7f0e;" x="448.303016" xlink:href="#m7b8387421b" y="41.931887"/>
     <use style="fill:#ff7f0e;stroke:#ff7f0e;" x="453.061456" xlink:href="#m7b8387421b" y="40.101069"/>
     <use style="fill:#ff7f0e;stroke:#ff7f0e;" x="457.819895" xlink:href="#m7b8387421b" y="38.793342"/>
     <use style="fill:#ff7f0e;stroke:#ff7f0e;" x="462.578335" xlink:href="#m7b8387421b" y="38.008705"/>
     <use style="fill:#ff7f0e;stroke:#ff7f0e;" x="467.336774" xlink:href="#m7b8387421b" y="37.74716"/>
     <use style="fill:#ff7f0e;stroke:#ff7f0e;" x="472.095214" xlink:href="#m7b8387421b" y="38.008705"/>
     <use style="fill:#ff7f0e;stroke:#ff7f0e;" x="476.853653" xlink:href="#m7b8387421b" y="38.793342"/>
     <use style="fill:#ff7f0e;stroke:#ff7f0e;" x="481.612093" xlink:href="#m7b8387421b" y="40.101069"/>
     <use style="fill:#ff7f0e;stroke:#ff7f0e;" x="486.370532" xlink:href="#m7b8387421b" y="41.931887"/>
     <use style="fill:#ff7f0e;stroke:#ff7f0e;" x="491.128972" xlink:href="#m7b8387421b" y="44.285795"/>
     <use style="fill:#ff7f0e;stroke:#ff7f0e;" x="495.887411" xlink:href="#m7b8387421b" y="47.162795"/>
     <use style="fill:#ff7f0e;stroke:#ff7f0e;" x="500.64585" xlink:href="#m7b8387421b" y="50.562885"/>
     <use style="fill:#ff7f0e;stroke:#ff7f0e;" x="505.40429" xlink:href="#m7b8387421b" y="54.486066"/>
     <use style="fill:#ff7f0e;stroke:#ff7f0e;" x="510.162729" xlink:href="#m7b8387421b" y="58.932338"/>
     <use style="fill:#ff7f0e;stroke:#ff7f0e;" x="514.921169" xlink:href="#m7b8387421b" y="63.901701"/>
     <use style="fill:#ff7f0e;stroke:#ff7f0e;" x="519.679608" xlink:href="#m7b8387421b" y="69.394155"/>
     <use style="fill:#ff7f0e;stroke:#ff7f0e;" x="524.438048" xlink:href="#m7b8387421b" y="75.409699"/>
     <use style="fill:#ff7f0e;stroke:#ff7f0e;" x="529.196487" xlink:href="#m7b8387421b" y="81.948335"/>
     <use style="fill:#ff7f0e;stroke:#ff7f0e;" x="533.954927" xlink:href="#m7b8387421b" y="89.010061"/>
     <use style="fill:#ff7f0e;stroke:#ff7f0e;" x="538.713366" xlink:href="#m7b8387421b" y="96.594878"/>
     <use style="fill:#ff7f0e;stroke:#ff7f0e;" x="543.471806" xlink:href="#m7b8387421b" y="104.702786"/>
     <use style="fill:#ff7f0e;stroke:#ff7f0e;" x="548.230245" xlink:href="#m7b8387421b" y="113.333784"/>
     <use style="fill:#ff7f0e;stroke:#ff7f0e;" x="552.988685" xlink:href="#m7b8387421b" y="122.487874"/>
     <use style="fill:#ff7f0e;stroke:#ff7f0e;" x="557.747124" xlink:href="#m7b8387421b" y="132.165054"/>
     <use style="fill:#ff7f0e;stroke:#ff7f0e;" x="562.505564" xlink:href="#m7b8387421b" y="142.365325"/>
     <use style="fill:#ff7f0e;stroke:#ff7f0e;" x="567.264003" xlink:href="#m7b8387421b" y="153.088687"/>
     <use style="fill:#ff7f0e;stroke:#ff7f0e;" x="572.022443" xlink:href="#m7b8387421b" y="164.33514"/>
     <use style="fill:#ff7f0e;stroke:#ff7f0e;" x="576.780882" xlink:href="#m7b8387421b" y="176.104683"/>
     <use style="fill:#ff7f0e;stroke:#ff7f0e;" x="581.539322" xlink:href="#m7b8387421b" y="188.397318"/>
     <use style="fill:#ff7f0e;stroke:#ff7f0e;" x="586.297761" xlink:href="#m7b8387421b" y="201.21305"/>
     <use style="fill:#ff7f0e;stroke:#ff7f0e;" x="591.0562" xlink:href="#m7b8387421b" y="214.551915"/>
     <use style="fill:#ff7f0e;stroke:#ff7f0e;" x="595.81464" xlink:href="#m7b8387421b" y="228.414141"/>
     <use style="fill:#ff7f0e;stroke:#ff7f0e;" x="600.573079" xlink:href="#m7b8387421b" y="242.799538"/>
     <use style="fill:#ff7f0e;stroke:#ff7f0e;" x="605.331519" xlink:href="#m7b8387421b" y="257.728315"/>
     <use style="fill:#ff7f0e;stroke:#ff7f0e;" x="610.089958" xlink:href="#m7b8387421b" y="272.478163"/>
     <use style="fill:#ff7f0e;stroke:#ff7f0e;" x="614.848398" xlink:href="#m7b8387421b" y="294.041921"/>
     <use style="fill:#ff7f0e;stroke:#ff7f0e;" x="619.606837" xlink:href="#m7b8387421b" y="15638.909239"/>
     <use style="fill:#ff7f0e;stroke:#ff7f0e;" x="624.365277" xlink:href="#m7b8387421b" y="284.431629"/>
     <use style="fill:#ff7f0e;stroke:#ff7f0e;" x="629.123716" xlink:href="#m7b8387421b" y="290.0965"/>
     <use style="fill:#ff7f0e;stroke:#ff7f0e;" x="633.882156" xlink:href="#m7b8387421b" y="290.853406"/>
     <use style="fill:#ff7f0e;stroke:#ff7f0e;" x="638.640595" xlink:href="#m7b8387421b" y="300.258059"/>
     <use style="fill:#ff7f0e;stroke:#ff7f0e;" x="643.399035" xlink:href="#m7b8387421b" y="286.033877"/>
     <use style="fill:#ff7f0e;stroke:#ff7f0e;" x="648.157474" xlink:href="#m7b8387421b" y="286.950484"/>
     <use style="fill:#ff7f0e;stroke:#ff7f0e;" x="652.915914" xlink:href="#m7b8387421b" y="297.274135"/>
     <use style="fill:#ff7f0e;stroke:#ff7f0e;" x="657.674353" xlink:href="#m7b8387421b" y="304.754746"/>
     <use style="fill:#ff7f0e;stroke:#ff7f0e;" x="662.432793" xlink:href="#m7b8387421b" y="293.538479"/>
     <use style="fill:#ff7f0e;stroke:#ff7f0e;" x="667.191232" xlink:href="#m7b8387421b" y="297.106544"/>
     <use style="fill:#ff7f0e;stroke:#ff7f0e;" x="671.949671" xlink:href="#m7b8387421b" y="291.070555"/>
     <use style="fill:#ff7f0e;stroke:#ff7f0e;" x="676.708111" xlink:href="#m7b8387421b" y="298.245349"/>
     <use style="fill:#ff7f0e;stroke:#ff7f0e;" x="681.46655" xlink:href="#m7b8387421b" y="291.937168"/>
     <use style="fill:#ff7f0e;stroke:#ff7f0e;" x="686.22499" xlink:href="#m7b8387421b" y="295.108879"/>
     <use style="fill:#ff7f0e;stroke:#ff7f0e;" x="690.983429" xlink:href="#m7b8387421b" y="297.21715"/>
    </g>
   </g>
   <g id="patch_3">
    <path d="M 56.445526 327.783595 
L 56.445526 7.2 
" style="fill:none;stroke:#000000;stroke-linecap:square;stroke-linejoin:miter;stroke-width:0.8;"/>
   </g>
   <g id="patch_4">
    <path d="M 721.19952 327.783595 
L 721.19952 7.2 
" style="fill:none;stroke:#000000;stroke-linecap:square;stroke-linejoin:miter;stroke-width:0.8;"/>
   </g>
   <g id="patch_5">
    <path d="M 56.445526 327.783595 
L 721.19952 327.783595 
" style="fill:none;stroke:#000000;stroke-linecap:square;stroke-linejoin:miter;stroke-width:0.8;"/>
   </g>
   <g id="patch_6">
    <path d="M 56.445526 7.2 
L 721.19952 7.2 
" style="fill:none;stroke:#000000;stroke-linecap:square;stroke-linejoin:miter;stroke-width:0.8;"/>
   </g>
   <g id="legend_1">
    <g id="patch_7">
     <path d="M 562.730653 86.094656 
L 710.69952 86.094656 
Q 713.69952 86.094656 713.69952 83.094656 
L 713.69952 17.7 
Q 713.69952 14.7 710.69952 14.7 
L 562.730653 14.7 
Q 559.730653 14.7 559.730653 17.7 
L 559.730653 83.094656 
Q 559.730653 86.094656 562.730653 86.094656 
z
" style="fill:#ffffff;opacity:0.8;stroke:#cccccc;stroke-linejoin:miter;"/>
    </g>
    <g id="line2d_29">
     <path d="M 565.730653 26.927344 
L 595.730653 26.927344 
" style="fill:none;stroke:#1f77b4;stroke-linecap:square;stroke-opacity:0.85;stroke-width:3;"/>
    </g>
    <g id="line2d_30"/>
    <g id="text_16">
     <!-- Analytical FT -->
     <g transform="translate(607.730653 32.177344)scale(0.15 -0.15)">
      <defs>
       <path d="M 41.40625 28.578125 
C 41.40625 36.03125 35.703125 44 22.203125 44 
C 18 44 8.296875 44 8.296875 37.109375 
C 8.296875 34.46875 10.203125 33 12.40625 33 
C 13 33 16.296875 33.1875 16.40625 37.3125 
C 16.40625 37.796875 16.5 37.890625 18.59375 38.09375 
C 19.796875 38.1875 21.09375 38.1875 22.296875 38.1875 
C 24.59375 38.1875 28 38.1875 31.296875 35.734375 
C 34.90625 33 34.90625 30.25 34.90625 27.390625 
C 29 27.1875 23.203125 26.796875 17 24.796875 
C 12 23.09375 5.59375 19.40625 5.59375 12.359375 
C 5.59375 5 11.90625 -1 21.203125 -1 
C 24.40625 -1 30.59375 -0.5 35.796875 3.09375 
C 37.796875 -0.203125 42.796875 -0.40625 46.59375 -0.40625 
C 49 -0.40625 51.40625 -0.40625 51.40625 2.5 
C 51.40625 5.421875 48.796875 5.421875 47.40625 5.421875 
C 44.796875 5.421875 42.796875 5.625 41.40625 6.25 
z
M 34.90625 13.078125 
C 34.90625 10.703125 34.90625 8.515625 30.796875 6.546875 
C 27.296875 4.796875 22.59375 4.796875 22.296875 4.796875 
C 16.40625 4.796875 12.09375 8.109375 12.09375 12.359375 
C 12.09375 18.46875 22.796875 22 34.90625 22 
z
" id="CMTT12-97"/>
       <path d="M 42.40625 37.1875 
L 45 37.1875 
C 46.40625 37.1875 49.09375 37.1875 49.09375 40.09375 
C 49.09375 43 46.40625 43 45 43 
L 34 43 
C 32.59375 43 29.90625 43 29.90625 40.09375 
C 29.90625 37.1875 32.59375 37.1875 34 37.1875 
L 36.5 37.1875 
C 33.703125 28.96875 28 12.234375 26.59375 6.53125 
L 26.5 6.53125 
C 26 8.734375 25.59375 9.828125 24.59375 12.546875 
L 15.296875 37.1875 
L 17.59375 37.1875 
C 19 37.1875 21.703125 37.1875 21.703125 40.09375 
C 21.703125 43 19 43 17.59375 43 
L 6.59375 43 
C 5.203125 43 2.5 43 2.5 40.09375 
C 2.5 37.1875 5.203125 37.1875 6.59375 37.1875 
L 9.296875 37.1875 
L 23.296875 1.125 
C 23.703125 0.109375 23.703125 -0.078125 23.703125 -0.1875 
C 23.703125 -0.390625 21.09375 -9.109375 19.59375 -11.90625 
C 19 -12.90625 16.5 -17.609375 11.703125 -17.109375 
C 11.796875 -16.8125 12.09375 -16.203125 12.09375 -15.109375 
C 12.09375 -12.8125 10.5 -11.203125 8.203125 -11.203125 
C 5.703125 -11.203125 4.203125 -12.90625 4.203125 -15.203125 
C 4.203125 -19 7.40625 -23 12.40625 -23 
C 22.09375 -23 26.40625 -10.109375 26.703125 -9.296875 
z
" id="CMTT12-121"/>
       <path d="M 45.59375 10.5625 
C 45.59375 13.1875 43.09375 13.1875 42.296875 13.1875 
C 40 13.1875 39.59375 12.390625 39.09375 10.96875 
C 36.90625 5.40625 32 4.796875 29.59375 4.796875 
C 21.09375 4.796875 13.90625 11.984375 13.90625 21.390625 
C 13.90625 26.546875 16.796875 38.1875 29.90625 38.1875 
C 32.59375 38.1875 34.703125 37.984375 35.59375 37.890625 
C 36.296875 37.6875 36.40625 37.578125 36.40625 37.078125 
C 36.703125 32.921875 39.796875 32.828125 40.40625 32.828125 
C 42.59375 32.828125 44.5 34.34375 44.5 37.078125 
C 44.5 44 34.40625 44 30 44 
C 12.90625 44 7.40625 29.890625 7.40625 21.390625 
C 7.40625 9.046875 16.703125 -1 28.703125 -1 
C 42.09375 -1 45.59375 8.9375 45.59375 10.5625 
z
" id="CMTT12-99"/>
       <path d="M 16.703125 28 
L 30.296875 28 
C 30.296875 24.4375 30.296875 22.515625 33.59375 22.515625 
C 36.796875 22.515625 36.796875 24.84375 36.796875 26.671875 
L 36.796875 35.0625 
C 36.796875 36.828125 36.796875 39.09375 33.59375 39.09375 
C 30.296875 39.09375 30.296875 37.234375 30.296875 33.796875 
L 16.703125 33.796875 
L 16.703125 55.1875 
L 41.5 55.1875 
L 41.5 50.375 
C 41.5 48.609375 41.5 46.359375 44.703125 46.359375 
C 48 46.359375 48 48.515625 48 50.375 
L 48 56.890625 
C 48 59.984375 47.40625 61 44 61 
L 7.203125 61 
C 5.796875 61 3.09375 61 3.09375 58.09375 
C 3.09375 55.1875 5.796875 55.1875 7.203125 55.1875 
L 10.203125 55.1875 
L 10.203125 5.796875 
L 7.203125 5.796875 
C 5.796875 5.796875 3.09375 5.796875 3.09375 2.890625 
C 3.09375 0 5.796875 0 7.203125 0 
L 21.5 0 
C 22.90625 0 25.5 0 25.5 2.890625 
C 25.5 5.796875 22.90625 5.796875 21.5 5.796875 
L 16.703125 5.796875 
z
" id="CMTT12-70"/>
       <path d="M 29 55.1875 
L 42.296875 55.1875 
L 42.296875 50.296875 
C 42.296875 48.5 42.296875 46.203125 45.5 46.203125 
C 48.796875 46.203125 48.796875 48.40625 48.796875 50.296875 
L 48.796875 56.890625 
C 48.796875 59.984375 48.203125 61 44.796875 61 
L 6.703125 61 
C 3.40625 61 2.59375 60.1875 2.59375 56.890625 
L 2.59375 50.296875 
C 2.59375 48.5 2.59375 46.203125 5.796875 46.203125 
C 9.09375 46.203125 9.09375 48.40625 9.09375 50.296875 
L 9.09375 55.1875 
L 22.5 55.1875 
L 22.5 5.796875 
L 17.703125 5.796875 
C 16.296875 5.796875 13.703125 5.796875 13.703125 2.890625 
C 13.703125 0 16.296875 0 17.703125 0 
L 33.796875 0 
C 35.203125 0 37.796875 0 37.796875 2.890625 
C 37.796875 5.796875 35.203125 5.796875 33.796875 5.796875 
L 29 5.796875 
z
" id="CMTT12-84"/>
      </defs>
      <use transform="scale(0.996264)" xlink:href="#CMTT12-65"/>
      <use transform="translate(51.266111 0)scale(0.996264)" xlink:href="#CMTT12-110"/>
      <use transform="translate(102.532222 0)scale(0.996264)" xlink:href="#CMTT12-97"/>
      <use transform="translate(153.798333 0)scale(0.996264)" xlink:href="#CMTT12-108"/>
      <use transform="translate(205.064443 0)scale(0.996264)" xlink:href="#CMTT12-121"/>
      <use transform="translate(256.330554 0)scale(0.996264)" xlink:href="#CMTT12-116"/>
      <use transform="translate(307.596665 0)scale(0.996264)" xlink:href="#CMTT12-105"/>
      <use transform="translate(358.862776 0)scale(0.996264)" xlink:href="#CMTT12-99"/>
      <use transform="translate(410.128887 0)scale(0.996264)" xlink:href="#CMTT12-97"/>
      <use transform="translate(461.394998 0)scale(0.996264)" xlink:href="#CMTT12-108"/>
      <use transform="translate(563.927219 0)scale(0.996264)" xlink:href="#CMTT12-70"/>
      <use transform="translate(615.19333 0)scale(0.996264)" xlink:href="#CMTT12-84"/>
     </g>
    </g>
    <g id="line2d_31"/>
    <g id="line2d_32">
     <g>
      <use style="fill:#ff7f0e;stroke:#ff7f0e;" x="580.730653" xlink:href="#m7b8387421b" y="49.225562"/>
     </g>
    </g>
    <g id="text_17">
     <!-- Numerical FFT -->
     <g transform="translate(607.730653 54.475562)scale(0.15 -0.15)">
      <defs>
       <path d="M 18.703125 57.59375 
C 17.5 61 15.5 61 13.40625 61 
L 6.90625 61 
C 5.40625 61 2.90625 61 2.90625 58.09375 
C 2.90625 55.1875 5.5 55.1875 6.90625 55.1875 
L 9.09375 55.1875 
L 9.09375 5.796875 
L 6.90625 5.796875 
C 5.5 5.796875 2.90625 5.796875 2.90625 2.890625 
C 2.90625 0 5.40625 0 6.90625 0 
L 16.90625 0 
C 18.296875 0 21 0 21 2.890625 
C 21 5.796875 18.296875 5.796875 16.90625 5.796875 
L 14.703125 5.796875 
L 14.703125 54.09375 
L 14.796875 54.09375 
C 15.09375 53 16 50.40625 17.796875 45.3125 
L 32.703125 3.390625 
C 33.90625 0 35.90625 0 38.09375 0 
C 41.09375 0 42.296875 0.296875 42.296875 4.09375 
L 42.296875 55.1875 
L 44.5 55.1875 
C 45.90625 55.1875 48.5 55.1875 48.5 58.09375 
C 48.5 61 46 61 44.5 61 
L 34.5 61 
C 33.09375 61 30.40625 61 30.40625 58.09375 
C 30.40625 55.1875 33.09375 55.1875 34.5 55.1875 
L 36.703125 55.1875 
L 36.703125 6.890625 
L 36.59375 6.890625 
C 36.296875 7.984375 35.40625 10.578125 33.59375 15.671875 
z
" id="CMTT12-78"/>
       <path d="M 21.59375 18.84375 
C 21.59375 30.71875 30 37.796875 38.5 37.796875 
C 39 37.796875 39.59375 37.796875 40.09375 37.6875 
C 40.40625 34.109375 43.203125 33.796875 43.90625 33.796875 
C 46.203125 33.796875 47.796875 35.5 47.796875 37.6875 
C 47.796875 41.984375 43.59375 43.59375 38.59375 43.59375 
C 31.90625 43.59375 26.203125 40.59375 21.59375 35 
L 21.59375 38.890625 
C 21.59375 41.984375 21 43 17.59375 43 
L 7.5 43 
C 6.09375 43 3.5 43 3.5 40.09375 
C 3.5 37.1875 6.09375 37.1875 7.5 37.1875 
L 15.09375 37.1875 
L 15.09375 5.796875 
L 7.5 5.796875 
C 6.09375 5.796875 3.5 5.796875 3.5 2.890625 
C 3.5 0 6.09375 0 7.5 0 
L 32.09375 0 
C 33.5 0 36.09375 0 36.09375 2.890625 
C 36.09375 5.796875 33.5 5.796875 32.09375 5.796875 
L 21.59375 5.796875 
z
" id="CMTT12-114"/>
      </defs>
      <use transform="scale(0.996264)" xlink:href="#CMTT12-78"/>
      <use transform="translate(51.266111 0)scale(0.996264)" xlink:href="#CMTT12-117"/>
      <use transform="translate(102.532222 0)scale(0.996264)" xlink:href="#CMTT12-109"/>
      <use transform="translate(153.798333 0)scale(0.996264)" xlink:href="#CMTT12-101"/>
      <use transform="translate(205.064443 0)scale(0.996264)" xlink:href="#CMTT12-114"/>
      <use transform="translate(256.330554 0)scale(0.996264)" xlink:href="#CMTT12-105"/>
      <use transform="translate(307.596665 0)scale(0.996264)" xlink:href="#CMTT12-99"/>
      <use transform="translate(358.862776 0)scale(0.996264)" xlink:href="#CMTT12-97"/>
      <use transform="translate(410.128887 0)scale(0.996264)" xlink:href="#CMTT12-108"/>
      <use transform="translate(512.661108 0)scale(0.996264)" xlink:href="#CMTT12-70"/>
      <use transform="translate(563.927219 0)scale(0.996264)" xlink:href="#CMTT12-70"/>
      <use transform="translate(615.19333 0)scale(0.996264)" xlink:href="#CMTT12-84"/>
     </g>
    </g>
    <g id="line2d_33">
     <path d="M 565.730653 71.523781 
L 595.730653 71.523781 
" style="fill:none;stroke:#000000;stroke-dasharray:5.55,2.4;stroke-dashoffset:0;stroke-opacity:0.5;stroke-width:1.5;"/>
    </g>
    <g id="text_18">
     <!-- Cosine peaks -->
     <g transform="translate(607.730653 76.773781)scale(0.15 -0.15)">
      <defs>
       <path d="M 47.40625 58.1875 
C 47.40625 59.796875 47.40625 62 44.59375 62 
C 42.796875 62 42.296875 60.890625 41.90625 60.1875 
C 41.59375 59.390625 40.796875 57.59375 40.5 56.890625 
C 36.40625 60.484375 31.796875 62 27.59375 62 
C 14.703125 62 4 48.265625 4 30.546875 
C 4 12.421875 15 -1 27.59375 -1 
C 39.296875 -1 47.40625 8.265625 47.40625 16.96875 
C 47.40625 20.046875 45.296875 20.046875 44.09375 20.046875 
C 42.703125 20.046875 41.09375 19.546875 40.90625 17.859375 
C 40.09375 5.484375 30 4.796875 28.296875 4.796875 
C 19 4.796875 10.5 15.59375 10.5 30.546875 
C 10.5 45.5 19.09375 56.1875 28.203125 56.1875 
C 33.59375 56.1875 39.5 51.9375 40.90625 42.8125 
C 41.203125 40.640625 42.09375 40.046875 44.09375 40.046875 
C 47.40625 40.046875 47.40625 41.828125 47.40625 43.8125 
z
" id="CMTT12-67"/>
       <path d="M 45.59375 21.390625 
C 45.59375 34.046875 36.5 44 25.703125 44 
C 14.90625 44 5.796875 34.046875 5.796875 21.390625 
C 5.796875 8.640625 15 -1 25.703125 -1 
C 36.40625 -1 45.59375 8.640625 45.59375 21.390625 
z
M 25.703125 4.796875 
C 18.5 4.796875 12.296875 12.484375 12.296875 22.09375 
C 12.296875 31.515625 18.703125 38.1875 25.703125 38.1875 
C 32.703125 38.1875 39.09375 31.515625 39.09375 22.09375 
C 39.09375 12.390625 32.90625 4.796875 25.703125 4.796875 
z
" id="CMTT12-111"/>
       <path d="M 42 40.1875 
C 42 41.796875 42 44 39.203125 44 
C 36.796875 44 36.203125 41.6875 36.203125 41.59375 
C 32.203125 44 27.59375 44 25.59375 44 
C 9.296875 44 7.09375 35.65625 7.09375 32.21875 
C 7.09375 28.078125 9.5 25.234375 12.90625 23.3125 
C 16.09375 21.5 19 20.984375 27.203125 19.671875 
C 31.09375 18.96875 39.09375 17.640625 39.09375 12.078125 
C 39.09375 8.328125 35.703125 4.796875 26.40625 4.796875 
C 20 4.796875 15.796875 7.328125 13.703125 14.609375 
C 13.203125 16.03125 12.90625 17.140625 10.40625 17.140625 
C 7.09375 17.140625 7.09375 15.21875 7.09375 13.1875 
L 7.09375 2.796875 
C 7.09375 1.1875 7.09375 -1 9.90625 -1 
C 11.09375 -1 12 -1 13.5 3.09375 
C 18.09375 -0.703125 23.296875 -1 26.40625 -1 
C 44.90625 -1 44.90625 11.0625 44.90625 12.078125 
C 44.90625 22.609375 32.5 24.734375 27.703125 25.4375 
C 18.90625 26.953125 12.90625 27.96875 12.90625 32.21875 
C 12.90625 34.953125 16 38.1875 25.40625 38.1875 
C 34.90625 38.1875 35.296875 33.640625 35.5 31 
C 35.703125 28.984375 37.5 28.671875 38.703125 28.671875 
C 42 28.671875 42 30.5 42 32.53125 
z
" id="CMTT12-115"/>
       <path d="M 28.203125 25.4375 
L 40.59375 37.1875 
L 43.59375 37.1875 
C 45 37.1875 47.59375 37.1875 47.59375 40.09375 
C 47.59375 43 45 43 43.59375 43 
L 29 43 
C 27.59375 43 24.90625 43 24.90625 40.09375 
C 24.90625 37.1875 27.59375 37.1875 29 37.1875 
L 32.5 37.1875 
L 16.296875 21.84375 
L 16.296875 56.890625 
C 16.296875 59.984375 15.703125 61 12.296875 61 
L 6.203125 61 
C 4.796875 61 2.09375 61 2.09375 58.09375 
C 2.09375 55.1875 4.796875 55.1875 6.203125 55.1875 
L 10.703125 55.1875 
L 10.703125 5.796875 
L 6.203125 5.796875 
C 4.796875 5.796875 2.09375 5.796875 2.09375 2.890625 
C 2.09375 0 4.796875 0 6.203125 0 
L 20.796875 0 
C 22.203125 0 24.90625 0 24.90625 2.890625 
C 24.90625 5.796875 22.203125 5.796875 20.796875 5.796875 
L 16.296875 5.796875 
L 16.296875 14.171875 
L 24.09375 21.546875 
L 36 5.796875 
C 32.796875 5.796875 30.40625 5.796875 30.40625 2.890625 
C 30.40625 0 33.09375 0 34.5 0 
L 45.703125 0 
C 47.09375 0 49.703125 0 49.703125 2.890625 
C 49.703125 5.796875 47.09375 5.796875 45.703125 5.796875 
L 43 5.796875 
z
" id="CMTT12-107"/>
      </defs>
      <use transform="scale(0.996264)" xlink:href="#CMTT12-67"/>
      <use transform="translate(51.266111 0)scale(0.996264)" xlink:href="#CMTT12-111"/>
      <use transform="translate(102.532222 0)scale(0.996264)" xlink:href="#CMTT12-115"/>
      <use transform="translate(153.798333 0)scale(0.996264)" xlink:href="#CMTT12-105"/>
      <use transform="translate(205.064443 0)scale(0.996264)" xlink:href="#CMTT12-110"/>
      <use transform="translate(256.330554 0)scale(0.996264)" xlink:href="#CMTT12-101"/>
      <use transform="translate(358.862776 0)scale(0.996264)" xlink:href="#CMTT12-112"/>
      <use transform="translate(410.128887 0)scale(0.996264)" xlink:href="#CMTT12-101"/>
      <use transform="translate(461.394998 0)scale(0.996264)" xlink:href="#CMTT12-97"/>
      <use transform="translate(512.661108 0)scale(0.996264)" xlink:href="#CMTT12-107"/>
      <use transform="translate(563.927219 0)scale(0.996264)" xlink:href="#CMTT12-115"/>
     </g>
    </g>
   </g>
  </g>
 </g>
 <defs>
  <clipPath id="p5061d748b4">
   <rect height="320.583595" width="664.753994" x="56.445526" y="7.2"/>
  </clipPath>
 </defs>
</svg>
