<?xml version="1.0" encoding="utf-8" standalone="no"?>
<!DOCTYPE svg PUBLIC "-//W3C//DTD SVG 1.1//EN"
  "http://www.w3.org/Graphics/SVG/1.1/DTD/svg11.dtd">
<svg xmlns:xlink="http://www.w3.org/1999/xlink" width="656.39952pt" height="368.39952pt" viewBox="0 0 656.39952 368.39952" xmlns="http://www.w3.org/2000/svg" version="1.1">
 <metadata>
  <rdf:RDF xmlns:dc="http://purl.org/dc/elements/1.1/" xmlns:cc="http://creativecommons.org/ns#" xmlns:rdf="http://www.w3.org/1999/02/22-rdf-syntax-ns#">
   <cc:Work>
    <dc:type rdf:resource="http://purl.org/dc/dcmitype/StillImage"/>
    <dc:date>2023-03-18T03:18:55.346342</dc:date>
    <dc:format>image/svg+xml</dc:format>
    <dc:creator>
     <cc:Agent>
      <dc:title>Matplotlib v3.5.1, https://matplotlib.org/</dc:title>
     </cc:Agent>
    </dc:creator>
   </cc:Work>
  </rdf:RDF>
 </metadata>
 <defs>
  <style type="text/css">*{stroke-linejoin: round; stroke-linecap: butt}</style>
 </defs>
 <g id="figure_1">
  <g id="patch_1">
   <path d="M 0 368.39952 
L 656.39952 368.39952 
L 656.39952 0 
L 0 0 
z
" style="fill: #ffffff"/>
  </g>
  <g id="axes_1">
   <g id="patch_2">
    <path d="M 55.297062 325.923198 
L 649.19952 325.923198 
L 649.19952 7.2 
L 55.297062 7.2 
z
" style="fill: #ffffff"/>
   </g>
   <g id="matplotlib.axis_1">
    <g id="xtick_1">
     <g id="line2d_1">
      <path d="M 265.341979 325.923198 
L 265.341979 7.2 
" clip-path="url(#p53fe41c49d)" style="fill: none; stroke-dasharray: 0.8,1.32; stroke-dashoffset: 0; stroke: #b0b0b0; stroke-width: 0.8"/>
     </g>
     <g id="line2d_2">
      <defs>
       <path id="m4dfabc4c46" d="M 0 0 
L 0 2 
" style="stroke: #000000; stroke-width: 0.6"/>
      </defs>
      <g>
       <use xlink:href="#m4dfabc4c46" x="265.341979" y="325.923198" style="stroke: #000000; stroke-width: 0.6"/>
      </g>
     </g>
     <g id="text_1">
      <!-- $\mathdefault{2\times10^{-1}}$ -->
      <g transform="translate(246.682786 338.325854)scale(0.1 -0.1)">
       <defs>
        <path id="CMR17-32" d="M 2669 990 
L 2554 990 
C 2490 537 2438 460 2413 422 
C 2381 371 1920 371 1830 371 
L 602 371 
C 832 620 1280 1073 1824 1596 
C 2214 1966 2669 2400 2669 3033 
C 2669 3788 2067 4224 1395 4224 
C 691 4224 262 3603 262 3027 
C 262 2777 448 2745 525 2745 
C 589 2745 781 2783 781 3007 
C 781 3206 614 3264 525 3264 
C 486 3264 448 3257 422 3244 
C 544 3788 915 4057 1306 4057 
C 1862 4057 2227 3616 2227 3033 
C 2227 2477 1901 1998 1536 1583 
L 262 147 
L 262 0 
L 2515 0 
L 2669 990 
z
" transform="scale(0.015625)"/>
        <path id="CMSY10-2" d="M 2490 1775 
L 1210 3046 
C 1133 3123 1120 3136 1069 3136 
C 1005 3136 941 3078 941 3008 
C 941 2963 954 2950 1024 2880 
L 2304 1596 
L 1024 313 
C 954 243 941 230 941 185 
C 941 115 1005 57 1069 57 
C 1120 57 1133 70 1210 147 
L 2483 1418 
L 3808 95 
C 3821 89 3866 57 3904 57 
C 3981 57 4032 115 4032 185 
C 4032 198 4032 223 4013 255 
C 4006 268 2989 1271 2669 1596 
L 3840 2765 
C 3872 2803 3968 2886 4000 2925 
C 4006 2937 4032 2963 4032 3008 
C 4032 3078 3981 3136 3904 3136 
C 3853 3136 3827 3110 3757 3040 
L 2490 1775 
z
" transform="scale(0.015625)"/>
        <path id="CMR17-31" d="M 1702 4083 
C 1702 4217 1696 4224 1606 4224 
C 1357 3927 979 3833 621 3820 
C 602 3820 570 3820 563 3808 
C 557 3795 557 3782 557 3648 
C 755 3648 1088 3686 1344 3839 
L 1344 467 
C 1344 243 1331 166 781 166 
L 589 166 
L 589 0 
C 896 6 1216 12 1523 12 
C 1830 12 2150 6 2458 0 
L 2458 166 
L 2266 166 
C 1715 166 1702 236 1702 467 
L 1702 4083 
z
" transform="scale(0.015625)"/>
        <path id="CMR17-30" d="M 2688 2038 
C 2688 2430 2682 3099 2413 3613 
C 2176 4063 1798 4224 1466 4224 
C 1158 4224 768 4082 525 3620 
C 269 3137 243 2539 243 2038 
C 243 1671 250 1112 448 623 
C 723 -39 1216 -128 1466 -128 
C 1760 -128 2208 -7 2470 604 
C 2662 1048 2688 1568 2688 2038 
z
M 1466 -26 
C 1056 -26 813 328 723 816 
C 653 1196 653 1749 653 2109 
C 653 2604 653 3015 736 3407 
C 858 3954 1216 4121 1466 4121 
C 1728 4121 2067 3947 2189 3420 
C 2272 3054 2278 2623 2278 2109 
C 2278 1691 2278 1176 2202 797 
C 2067 96 1690 -26 1466 -26 
z
" transform="scale(0.015625)"/>
        <path id="CMSY10-0" d="M 4218 1472 
C 4326 1472 4442 1472 4442 1600 
C 4442 1728 4326 1728 4218 1728 
L 755 1728 
C 646 1728 531 1728 531 1600 
C 531 1472 646 1472 755 1472 
L 4218 1472 
z
" transform="scale(0.015625)"/>
       </defs>
       <use xlink:href="#CMR17-32" transform="scale(0.996264)"/>
       <use xlink:href="#CMSY10-2" transform="translate(67.829684 0)scale(0.996264)"/>
       <use xlink:href="#CMR17-31" transform="translate(167.456359 0)scale(0.996264)"/>
       <use xlink:href="#CMR17-30" transform="translate(213.146836 0)scale(0.996264)"/>
       <use xlink:href="#CMSY10-0" transform="translate(258.837313 36.153639)scale(0.697382)"/>
       <use xlink:href="#CMR17-31" transform="translate(313.078306 36.153639)scale(0.697382)"/>
      </g>
     </g>
    </g>
    <g id="xtick_2">
     <g id="line2d_3">
      <path d="M 423.255918 325.923198 
L 423.255918 7.2 
" clip-path="url(#p53fe41c49d)" style="fill: none; stroke-dasharray: 0.8,1.32; stroke-dashoffset: 0; stroke: #b0b0b0; stroke-width: 0.8"/>
     </g>
     <g id="line2d_4">
      <g>
       <use xlink:href="#m4dfabc4c46" x="423.255918" y="325.923198" style="stroke: #000000; stroke-width: 0.6"/>
      </g>
     </g>
     <g id="text_2">
      <!-- $\mathdefault{3\times10^{-1}}$ -->
      <g transform="translate(404.596726 338.325854)scale(0.1 -0.1)">
       <defs>
        <path id="CMR17-33" d="M 1414 2176 
C 1984 2176 2234 1673 2234 1094 
C 2234 322 1824 25 1453 25 
C 1114 25 563 193 390 691 
C 422 678 454 678 486 678 
C 640 678 755 780 755 947 
C 755 1132 614 1216 486 1216 
C 378 1216 211 1164 211 927 
C 211 335 787 -128 1466 -128 
C 2176 -128 2720 432 2720 1087 
C 2720 1718 2208 2176 1600 2246 
C 2086 2347 2554 2776 2554 3353 
C 2554 3856 2048 4224 1472 4224 
C 890 4224 378 3862 378 3347 
C 378 3123 544 3084 627 3084 
C 762 3084 877 3167 877 3334 
C 877 3500 762 3584 627 3584 
C 602 3584 570 3584 544 3571 
C 730 3999 1235 4076 1459 4076 
C 1683 4076 2106 3966 2106 3347 
C 2106 3167 2080 2851 1862 2574 
C 1670 2329 1453 2316 1242 2297 
C 1210 2297 1062 2284 1037 2284 
C 992 2278 966 2272 966 2227 
C 966 2182 973 2176 1101 2176 
L 1414 2176 
z
" transform="scale(0.015625)"/>
       </defs>
       <use xlink:href="#CMR17-33" transform="scale(0.996264)"/>
       <use xlink:href="#CMSY10-2" transform="translate(67.829684 0)scale(0.996264)"/>
       <use xlink:href="#CMR17-31" transform="translate(167.456359 0)scale(0.996264)"/>
       <use xlink:href="#CMR17-30" transform="translate(213.146836 0)scale(0.996264)"/>
       <use xlink:href="#CMSY10-0" transform="translate(258.837313 36.153639)scale(0.697382)"/>
       <use xlink:href="#CMR17-31" transform="translate(313.078306 36.153639)scale(0.697382)"/>
      </g>
     </g>
    </g>
    <g id="xtick_3">
     <g id="line2d_5">
      <path d="M 535.297641 325.923198 
L 535.297641 7.2 
" clip-path="url(#p53fe41c49d)" style="fill: none; stroke-dasharray: 0.8,1.32; stroke-dashoffset: 0; stroke: #b0b0b0; stroke-width: 0.8"/>
     </g>
     <g id="line2d_6">
      <g>
       <use xlink:href="#m4dfabc4c46" x="535.297641" y="325.923198" style="stroke: #000000; stroke-width: 0.6"/>
      </g>
     </g>
     <g id="text_3">
      <!-- $\mathdefault{4\times10^{-1}}$ -->
      <g transform="translate(516.638449 338.325854)scale(0.1 -0.1)">
       <defs>
        <path id="CMR17-34" d="M 2150 4147 
C 2150 4281 2144 4288 2029 4288 
L 128 1254 
L 128 1088 
L 1779 1088 
L 1779 460 
C 1779 230 1766 166 1318 166 
L 1197 166 
L 1197 0 
C 1402 12 1747 12 1965 12 
C 2182 12 2528 12 2733 0 
L 2733 166 
L 2611 166 
C 2163 166 2150 230 2150 460 
L 2150 1088 
L 2803 1088 
L 2803 1254 
L 2150 1254 
L 2150 4147 
z
M 1798 3723 
L 1798 1254 
L 256 1254 
L 1798 3723 
z
" transform="scale(0.015625)"/>
       </defs>
       <use xlink:href="#CMR17-34" transform="scale(0.996264)"/>
       <use xlink:href="#CMSY10-2" transform="translate(67.829684 0)scale(0.996264)"/>
       <use xlink:href="#CMR17-31" transform="translate(167.456359 0)scale(0.996264)"/>
       <use xlink:href="#CMR17-30" transform="translate(213.146836 0)scale(0.996264)"/>
       <use xlink:href="#CMSY10-0" transform="translate(258.837313 36.153639)scale(0.697382)"/>
       <use xlink:href="#CMR17-31" transform="translate(313.078306 36.153639)scale(0.697382)"/>
      </g>
     </g>
    </g>
    <g id="xtick_4">
     <g id="line2d_7">
      <path d="M 622.203954 325.923198 
L 622.203954 7.2 
" clip-path="url(#p53fe41c49d)" style="fill: none; stroke-dasharray: 0.8,1.32; stroke-dashoffset: 0; stroke: #b0b0b0; stroke-width: 0.8"/>
     </g>
     <g id="line2d_8">
      <g>
       <use xlink:href="#m4dfabc4c46" x="622.203954" y="325.923198" style="stroke: #000000; stroke-width: 0.6"/>
      </g>
     </g>
    </g>
    <g id="text_4">
     <!-- $h\:/\:\sigma$ -->
     <g transform="translate(334.852762 356.965398)scale(0.17 -0.17)">
      <defs>
       <path id="CMMI12-68" d="M 1798 4255 
C 1805 4281 1818 4319 1818 4351 
C 1818 4416 1754 4416 1741 4416 
C 1734 4416 1421 4390 1389 4383 
C 1280 4377 1184 4364 1069 4358 
C 909 4345 864 4339 864 4223 
C 864 4159 915 4159 1005 4159 
C 1318 4159 1325 4103 1325 4040 
C 1325 4002 1312 3951 1306 3932 
L 378 249 
C 352 153 352 140 352 102 
C 352 -39 461 -64 525 -64 
C 634 -64 717 19 749 89 
L 1037 1245 
C 1069 1385 1107 1519 1139 1660 
C 1210 1928 1210 1934 1331 2119 
C 1453 2305 1741 2687 2234 2687 
C 2490 2687 2579 2496 2579 2241 
C 2579 1883 2330 1187 2189 804 
C 2131 651 2099 568 2099 453 
C 2099 166 2298 -64 2605 -64 
C 3200 -64 3424 874 3424 913 
C 3424 945 3398 970 3360 970 
C 3302 970 3296 951 3264 842 
C 3117 332 2880 64 2624 64 
C 2560 64 2458 70 2458 274 
C 2458 440 2534 645 2560 715 
C 2675 1021 2963 1775 2963 2145 
C 2963 2528 2739 2816 2253 2816 
C 1888 2816 1568 2643 1306 2311 
L 1798 4255 
z
" transform="scale(0.015625)"/>
       <path id="CMMI12-3d" d="M 2746 4563 
C 2746 4569 2784 4665 2784 4678 
C 2784 4755 2720 4800 2669 4800 
C 2637 4800 2579 4800 2528 4659 
L 384 -1364 
C 384 -1370 346 -1466 346 -1479 
C 346 -1556 410 -1600 461 -1600 
C 499 -1600 557 -1594 602 -1460 
L 2746 4563 
z
" transform="scale(0.015625)"/>
       <path id="CMMI12-1b" d="M 3251 2406 
C 3334 2406 3546 2406 3546 2611 
C 3546 2752 3424 2752 3309 2752 
L 1894 2752 
C 934 2752 243 1685 243 932 
C 243 389 595 -64 1171 -64 
C 1926 -64 2752 746 2752 1704 
C 2752 1953 2694 2195 2541 2406 
L 3251 2406 
z
M 1178 64 
C 851 64 614 312 614 753 
C 614 1136 845 2406 1786 2406 
C 2061 2406 2368 2272 2368 1780 
C 2368 1557 2266 1021 2042 651 
C 1811 274 1466 64 1178 64 
z
" transform="scale(0.015625)"/>
      </defs>
      <use xlink:href="#CMMI12-68" transform="scale(0.996264)"/>
      <use xlink:href="#CMMI12-3d" transform="translate(78.293831 0)scale(0.996264)"/>
      <use xlink:href="#CMMI12-1b" transform="translate(149.207957 0)scale(0.996264)"/>
     </g>
    </g>
   </g>
   <g id="matplotlib.axis_2">
    <g id="ytick_1">
     <g id="line2d_9">
      <path d="M 55.297062 308.340987 
L 649.19952 308.340987 
" clip-path="url(#p53fe41c49d)" style="fill: none; stroke-dasharray: 0.8,1.32; stroke-dashoffset: 0; stroke: #b0b0b0; stroke-width: 0.8"/>
     </g>
     <g id="line2d_10">
      <defs>
       <path id="m802e2740e7" d="M 0 0 
L -3.5 0 
" style="stroke: #000000; stroke-width: 0.8"/>
      </defs>
      <g>
       <use xlink:href="#m802e2740e7" x="55.297062" y="308.340987" style="stroke: #000000; stroke-width: 0.8"/>
      </g>
     </g>
     <g id="text_5">
      <!-- $\mathdefault{10^{-3}}$ -->
      <g transform="translate(28.136488 311.800236)scale(0.1 -0.1)">
       <use xlink:href="#CMR17-31" transform="scale(0.996264)"/>
       <use xlink:href="#CMR17-30" transform="translate(45.690477 0)scale(0.996264)"/>
       <use xlink:href="#CMSY10-0" transform="translate(91.380954 36.153639)scale(0.697382)"/>
       <use xlink:href="#CMR17-33" transform="translate(145.621947 36.153639)scale(0.697382)"/>
      </g>
     </g>
    </g>
    <g id="ytick_2">
     <g id="line2d_11">
      <path d="M 55.297062 217.460815 
L 649.19952 217.460815 
" clip-path="url(#p53fe41c49d)" style="fill: none; stroke-dasharray: 0.8,1.32; stroke-dashoffset: 0; stroke: #b0b0b0; stroke-width: 0.8"/>
     </g>
     <g id="line2d_12">
      <g>
       <use xlink:href="#m802e2740e7" x="55.297062" y="217.460815" style="stroke: #000000; stroke-width: 0.8"/>
      </g>
     </g>
     <g id="text_6">
      <!-- $\mathdefault{10^{-2}}$ -->
      <g transform="translate(28.136488 220.920064)scale(0.1 -0.1)">
       <use xlink:href="#CMR17-31" transform="scale(0.996264)"/>
       <use xlink:href="#CMR17-30" transform="translate(45.690477 0)scale(0.996264)"/>
       <use xlink:href="#CMSY10-0" transform="translate(91.380954 36.153639)scale(0.697382)"/>
       <use xlink:href="#CMR17-32" transform="translate(145.621947 36.153639)scale(0.697382)"/>
      </g>
     </g>
    </g>
    <g id="ytick_3">
     <g id="line2d_13">
      <path d="M 55.297062 126.580644 
L 649.19952 126.580644 
" clip-path="url(#p53fe41c49d)" style="fill: none; stroke-dasharray: 0.8,1.32; stroke-dashoffset: 0; stroke: #b0b0b0; stroke-width: 0.8"/>
     </g>
     <g id="line2d_14">
      <g>
       <use xlink:href="#m802e2740e7" x="55.297062" y="126.580644" style="stroke: #000000; stroke-width: 0.8"/>
      </g>
     </g>
     <g id="text_7">
      <!-- $\mathdefault{10^{-1}}$ -->
      <g transform="translate(28.136488 130.039893)scale(0.1 -0.1)">
       <use xlink:href="#CMR17-31" transform="scale(0.996264)"/>
       <use xlink:href="#CMR17-30" transform="translate(45.690477 0)scale(0.996264)"/>
       <use xlink:href="#CMSY10-0" transform="translate(91.380954 36.153639)scale(0.697382)"/>
       <use xlink:href="#CMR17-31" transform="translate(145.621947 36.153639)scale(0.697382)"/>
      </g>
     </g>
    </g>
    <g id="ytick_4">
     <g id="line2d_15">
      <path d="M 55.297062 35.700472 
L 649.19952 35.700472 
" clip-path="url(#p53fe41c49d)" style="fill: none; stroke-dasharray: 0.8,1.32; stroke-dashoffset: 0; stroke: #b0b0b0; stroke-width: 0.8"/>
     </g>
     <g id="line2d_16">
      <g>
       <use xlink:href="#m802e2740e7" x="55.297062" y="35.700472" style="stroke: #000000; stroke-width: 0.8"/>
      </g>
     </g>
     <g id="text_8">
      <!-- $\mathdefault{10^{0}}$ -->
      <g transform="translate(34.363153 39.159721)scale(0.1 -0.1)">
       <use xlink:href="#CMR17-31" transform="scale(0.996264)"/>
       <use xlink:href="#CMR17-30" transform="translate(45.690477 0)scale(0.996264)"/>
       <use xlink:href="#CMR17-30" transform="translate(91.380954 36.153639)scale(0.697382)"/>
      </g>
     </g>
    </g>
    <g id="ytick_5">
     <g id="line2d_17">
      <path d="M 55.297062 322.418504 
L 649.19952 322.418504 
" clip-path="url(#p53fe41c49d)" style="fill: none; stroke-dasharray: 0.8,1.32; stroke-dashoffset: 0; stroke: #b0b0b0; stroke-width: 0.8"/>
     </g>
     <g id="line2d_18">
      <defs>
       <path id="m57cea0282e" d="M 0 0 
L -2 0 
" style="stroke: #000000; stroke-width: 0.6"/>
      </defs>
      <g>
       <use xlink:href="#m57cea0282e" x="55.297062" y="322.418504" style="stroke: #000000; stroke-width: 0.6"/>
      </g>
     </g>
    </g>
    <g id="ytick_6">
     <g id="line2d_19">
      <path d="M 55.297062 317.148186 
L 649.19952 317.148186 
" clip-path="url(#p53fe41c49d)" style="fill: none; stroke-dasharray: 0.8,1.32; stroke-dashoffset: 0; stroke: #b0b0b0; stroke-width: 0.8"/>
     </g>
     <g id="line2d_20">
      <g>
       <use xlink:href="#m57cea0282e" x="55.297062" y="317.148186" style="stroke: #000000; stroke-width: 0.6"/>
      </g>
     </g>
    </g>
    <g id="ytick_7">
     <g id="line2d_21">
      <path d="M 55.297062 312.499436 
L 649.19952 312.499436 
" clip-path="url(#p53fe41c49d)" style="fill: none; stroke-dasharray: 0.8,1.32; stroke-dashoffset: 0; stroke: #b0b0b0; stroke-width: 0.8"/>
     </g>
     <g id="line2d_22">
      <g>
       <use xlink:href="#m57cea0282e" x="55.297062" y="312.499436" style="stroke: #000000; stroke-width: 0.6"/>
      </g>
     </g>
    </g>
    <g id="ytick_8">
     <g id="line2d_23">
      <path d="M 55.297062 280.983329 
L 649.19952 280.983329 
" clip-path="url(#p53fe41c49d)" style="fill: none; stroke-dasharray: 0.8,1.32; stroke-dashoffset: 0; stroke: #b0b0b0; stroke-width: 0.8"/>
     </g>
     <g id="line2d_24">
      <g>
       <use xlink:href="#m57cea0282e" x="55.297062" y="280.983329" style="stroke: #000000; stroke-width: 0.6"/>
      </g>
     </g>
    </g>
    <g id="ytick_9">
     <g id="line2d_25">
      <path d="M 55.297062 264.980125 
L 649.19952 264.980125 
" clip-path="url(#p53fe41c49d)" style="fill: none; stroke-dasharray: 0.8,1.32; stroke-dashoffset: 0; stroke: #b0b0b0; stroke-width: 0.8"/>
     </g>
     <g id="line2d_26">
      <g>
       <use xlink:href="#m57cea0282e" x="55.297062" y="264.980125" style="stroke: #000000; stroke-width: 0.6"/>
      </g>
     </g>
    </g>
    <g id="ytick_10">
     <g id="line2d_27">
      <path d="M 55.297062 253.625672 
L 649.19952 253.625672 
" clip-path="url(#p53fe41c49d)" style="fill: none; stroke-dasharray: 0.8,1.32; stroke-dashoffset: 0; stroke: #b0b0b0; stroke-width: 0.8"/>
     </g>
     <g id="line2d_28">
      <g>
       <use xlink:href="#m57cea0282e" x="55.297062" y="253.625672" style="stroke: #000000; stroke-width: 0.6"/>
      </g>
     </g>
    </g>
    <g id="ytick_11">
     <g id="line2d_29">
      <path d="M 55.297062 244.818473 
L 649.19952 244.818473 
" clip-path="url(#p53fe41c49d)" style="fill: none; stroke-dasharray: 0.8,1.32; stroke-dashoffset: 0; stroke: #b0b0b0; stroke-width: 0.8"/>
     </g>
     <g id="line2d_30">
      <g>
       <use xlink:href="#m57cea0282e" x="55.297062" y="244.818473" style="stroke: #000000; stroke-width: 0.6"/>
      </g>
     </g>
    </g>
    <g id="ytick_12">
     <g id="line2d_31">
      <path d="M 55.297062 237.622468 
L 649.19952 237.622468 
" clip-path="url(#p53fe41c49d)" style="fill: none; stroke-dasharray: 0.8,1.32; stroke-dashoffset: 0; stroke: #b0b0b0; stroke-width: 0.8"/>
     </g>
     <g id="line2d_32">
      <g>
       <use xlink:href="#m57cea0282e" x="55.297062" y="237.622468" style="stroke: #000000; stroke-width: 0.6"/>
      </g>
     </g>
    </g>
    <g id="ytick_13">
     <g id="line2d_33">
      <path d="M 55.297062 231.538332 
L 649.19952 231.538332 
" clip-path="url(#p53fe41c49d)" style="fill: none; stroke-dasharray: 0.8,1.32; stroke-dashoffset: 0; stroke: #b0b0b0; stroke-width: 0.8"/>
     </g>
     <g id="line2d_34">
      <g>
       <use xlink:href="#m57cea0282e" x="55.297062" y="231.538332" style="stroke: #000000; stroke-width: 0.6"/>
      </g>
     </g>
    </g>
    <g id="ytick_14">
     <g id="line2d_35">
      <path d="M 55.297062 226.268014 
L 649.19952 226.268014 
" clip-path="url(#p53fe41c49d)" style="fill: none; stroke-dasharray: 0.8,1.32; stroke-dashoffset: 0; stroke: #b0b0b0; stroke-width: 0.8"/>
     </g>
     <g id="line2d_36">
      <g>
       <use xlink:href="#m57cea0282e" x="55.297062" y="226.268014" style="stroke: #000000; stroke-width: 0.6"/>
      </g>
     </g>
    </g>
    <g id="ytick_15">
     <g id="line2d_37">
      <path d="M 55.297062 221.619264 
L 649.19952 221.619264 
" clip-path="url(#p53fe41c49d)" style="fill: none; stroke-dasharray: 0.8,1.32; stroke-dashoffset: 0; stroke: #b0b0b0; stroke-width: 0.8"/>
     </g>
     <g id="line2d_38">
      <g>
       <use xlink:href="#m57cea0282e" x="55.297062" y="221.619264" style="stroke: #000000; stroke-width: 0.6"/>
      </g>
     </g>
    </g>
    <g id="ytick_16">
     <g id="line2d_39">
      <path d="M 55.297062 190.103158 
L 649.19952 190.103158 
" clip-path="url(#p53fe41c49d)" style="fill: none; stroke-dasharray: 0.8,1.32; stroke-dashoffset: 0; stroke: #b0b0b0; stroke-width: 0.8"/>
     </g>
     <g id="line2d_40">
      <g>
       <use xlink:href="#m57cea0282e" x="55.297062" y="190.103158" style="stroke: #000000; stroke-width: 0.6"/>
      </g>
     </g>
    </g>
    <g id="ytick_17">
     <g id="line2d_41">
      <path d="M 55.297062 174.099954 
L 649.19952 174.099954 
" clip-path="url(#p53fe41c49d)" style="fill: none; stroke-dasharray: 0.8,1.32; stroke-dashoffset: 0; stroke: #b0b0b0; stroke-width: 0.8"/>
     </g>
     <g id="line2d_42">
      <g>
       <use xlink:href="#m57cea0282e" x="55.297062" y="174.099954" style="stroke: #000000; stroke-width: 0.6"/>
      </g>
     </g>
    </g>
    <g id="ytick_18">
     <g id="line2d_43">
      <path d="M 55.297062 162.7455 
L 649.19952 162.7455 
" clip-path="url(#p53fe41c49d)" style="fill: none; stroke-dasharray: 0.8,1.32; stroke-dashoffset: 0; stroke: #b0b0b0; stroke-width: 0.8"/>
     </g>
     <g id="line2d_44">
      <g>
       <use xlink:href="#m57cea0282e" x="55.297062" y="162.7455" style="stroke: #000000; stroke-width: 0.6"/>
      </g>
     </g>
    </g>
    <g id="ytick_19">
     <g id="line2d_45">
      <path d="M 55.297062 153.938301 
L 649.19952 153.938301 
" clip-path="url(#p53fe41c49d)" style="fill: none; stroke-dasharray: 0.8,1.32; stroke-dashoffset: 0; stroke: #b0b0b0; stroke-width: 0.8"/>
     </g>
     <g id="line2d_46">
      <g>
       <use xlink:href="#m57cea0282e" x="55.297062" y="153.938301" style="stroke: #000000; stroke-width: 0.6"/>
      </g>
     </g>
    </g>
    <g id="ytick_20">
     <g id="line2d_47">
      <path d="M 55.297062 146.742296 
L 649.19952 146.742296 
" clip-path="url(#p53fe41c49d)" style="fill: none; stroke-dasharray: 0.8,1.32; stroke-dashoffset: 0; stroke: #b0b0b0; stroke-width: 0.8"/>
     </g>
     <g id="line2d_48">
      <g>
       <use xlink:href="#m57cea0282e" x="55.297062" y="146.742296" style="stroke: #000000; stroke-width: 0.6"/>
      </g>
     </g>
    </g>
    <g id="ytick_21">
     <g id="line2d_49">
      <path d="M 55.297062 140.65816 
L 649.19952 140.65816 
" clip-path="url(#p53fe41c49d)" style="fill: none; stroke-dasharray: 0.8,1.32; stroke-dashoffset: 0; stroke: #b0b0b0; stroke-width: 0.8"/>
     </g>
     <g id="line2d_50">
      <g>
       <use xlink:href="#m57cea0282e" x="55.297062" y="140.65816" style="stroke: #000000; stroke-width: 0.6"/>
      </g>
     </g>
    </g>
    <g id="ytick_22">
     <g id="line2d_51">
      <path d="M 55.297062 135.387842 
L 649.19952 135.387842 
" clip-path="url(#p53fe41c49d)" style="fill: none; stroke-dasharray: 0.8,1.32; stroke-dashoffset: 0; stroke: #b0b0b0; stroke-width: 0.8"/>
     </g>
     <g id="line2d_52">
      <g>
       <use xlink:href="#m57cea0282e" x="55.297062" y="135.387842" style="stroke: #000000; stroke-width: 0.6"/>
      </g>
     </g>
    </g>
    <g id="ytick_23">
     <g id="line2d_53">
      <path d="M 55.297062 130.739092 
L 649.19952 130.739092 
" clip-path="url(#p53fe41c49d)" style="fill: none; stroke-dasharray: 0.8,1.32; stroke-dashoffset: 0; stroke: #b0b0b0; stroke-width: 0.8"/>
     </g>
     <g id="line2d_54">
      <g>
       <use xlink:href="#m57cea0282e" x="55.297062" y="130.739092" style="stroke: #000000; stroke-width: 0.6"/>
      </g>
     </g>
    </g>
    <g id="ytick_24">
     <g id="line2d_55">
      <path d="M 55.297062 99.222986 
L 649.19952 99.222986 
" clip-path="url(#p53fe41c49d)" style="fill: none; stroke-dasharray: 0.8,1.32; stroke-dashoffset: 0; stroke: #b0b0b0; stroke-width: 0.8"/>
     </g>
     <g id="line2d_56">
      <g>
       <use xlink:href="#m57cea0282e" x="55.297062" y="99.222986" style="stroke: #000000; stroke-width: 0.6"/>
      </g>
     </g>
    </g>
    <g id="ytick_25">
     <g id="line2d_57">
      <path d="M 55.297062 83.219782 
L 649.19952 83.219782 
" clip-path="url(#p53fe41c49d)" style="fill: none; stroke-dasharray: 0.8,1.32; stroke-dashoffset: 0; stroke: #b0b0b0; stroke-width: 0.8"/>
     </g>
     <g id="line2d_58">
      <g>
       <use xlink:href="#m57cea0282e" x="55.297062" y="83.219782" style="stroke: #000000; stroke-width: 0.6"/>
      </g>
     </g>
    </g>
    <g id="ytick_26">
     <g id="line2d_59">
      <path d="M 55.297062 71.865328 
L 649.19952 71.865328 
" clip-path="url(#p53fe41c49d)" style="fill: none; stroke-dasharray: 0.8,1.32; stroke-dashoffset: 0; stroke: #b0b0b0; stroke-width: 0.8"/>
     </g>
     <g id="line2d_60">
      <g>
       <use xlink:href="#m57cea0282e" x="55.297062" y="71.865328" style="stroke: #000000; stroke-width: 0.6"/>
      </g>
     </g>
    </g>
    <g id="ytick_27">
     <g id="line2d_61">
      <path d="M 55.297062 63.058129 
L 649.19952 63.058129 
" clip-path="url(#p53fe41c49d)" style="fill: none; stroke-dasharray: 0.8,1.32; stroke-dashoffset: 0; stroke: #b0b0b0; stroke-width: 0.8"/>
     </g>
     <g id="line2d_62">
      <g>
       <use xlink:href="#m57cea0282e" x="55.297062" y="63.058129" style="stroke: #000000; stroke-width: 0.6"/>
      </g>
     </g>
    </g>
    <g id="ytick_28">
     <g id="line2d_63">
      <path d="M 55.297062 55.862124 
L 649.19952 55.862124 
" clip-path="url(#p53fe41c49d)" style="fill: none; stroke-dasharray: 0.8,1.32; stroke-dashoffset: 0; stroke: #b0b0b0; stroke-width: 0.8"/>
     </g>
     <g id="line2d_64">
      <g>
       <use xlink:href="#m57cea0282e" x="55.297062" y="55.862124" style="stroke: #000000; stroke-width: 0.6"/>
      </g>
     </g>
    </g>
    <g id="ytick_29">
     <g id="line2d_65">
      <path d="M 55.297062 49.777988 
L 649.19952 49.777988 
" clip-path="url(#p53fe41c49d)" style="fill: none; stroke-dasharray: 0.8,1.32; stroke-dashoffset: 0; stroke: #b0b0b0; stroke-width: 0.8"/>
     </g>
     <g id="line2d_66">
      <g>
       <use xlink:href="#m57cea0282e" x="55.297062" y="49.777988" style="stroke: #000000; stroke-width: 0.6"/>
      </g>
     </g>
    </g>
    <g id="ytick_30">
     <g id="line2d_67">
      <path d="M 55.297062 44.50767 
L 649.19952 44.50767 
" clip-path="url(#p53fe41c49d)" style="fill: none; stroke-dasharray: 0.8,1.32; stroke-dashoffset: 0; stroke: #b0b0b0; stroke-width: 0.8"/>
     </g>
     <g id="line2d_68">
      <g>
       <use xlink:href="#m57cea0282e" x="55.297062" y="44.50767" style="stroke: #000000; stroke-width: 0.6"/>
      </g>
     </g>
    </g>
    <g id="ytick_31">
     <g id="line2d_69">
      <path d="M 55.297062 39.85892 
L 649.19952 39.85892 
" clip-path="url(#p53fe41c49d)" style="fill: none; stroke-dasharray: 0.8,1.32; stroke-dashoffset: 0; stroke: #b0b0b0; stroke-width: 0.8"/>
     </g>
     <g id="line2d_70">
      <g>
       <use xlink:href="#m57cea0282e" x="55.297062" y="39.85892" style="stroke: #000000; stroke-width: 0.6"/>
      </g>
     </g>
    </g>
    <g id="ytick_32">
     <g id="line2d_71">
      <path d="M 55.297062 8.342814 
L 649.19952 8.342814 
" clip-path="url(#p53fe41c49d)" style="fill: none; stroke-dasharray: 0.8,1.32; stroke-dashoffset: 0; stroke: #b0b0b0; stroke-width: 0.8"/>
     </g>
     <g id="line2d_72">
      <g>
       <use xlink:href="#m57cea0282e" x="55.297062" y="8.342814" style="stroke: #000000; stroke-width: 0.6"/>
      </g>
     </g>
    </g>
    <g id="text_9">
     <!-- Global error at $ct\:/\:L \:=\: 0.5$ -->
     <g transform="translate(19.902366 264.655303)rotate(-90)scale(0.17 -0.17)">
      <defs>
       <path id="CMR17-47" d="M 3974 1258 
C 3974 1503 3994 1536 4390 1536 
L 4390 1702 
C 4237 1689 3891 1689 3718 1689 
C 3539 1689 3040 1696 2797 1702 
L 2797 1536 
L 2989 1536 
C 3539 1536 3552 1464 3552 1232 
L 3552 806 
C 3552 96 2720 38 2522 38 
C 1862 38 781 496 781 2179 
C 781 3862 1843 4313 2464 4313 
C 3187 4313 3712 3681 3834 2785 
C 3846 2708 3846 2695 3904 2695 
C 3974 2695 3974 2708 3974 2824 
L 3974 4351 
C 3974 4467 3968 4473 3930 4473 
C 3904 4473 3898 4467 3853 4390 
L 3571 3849 
C 3258 4249 2874 4480 2381 4480 
C 1286 4480 294 3507 294 2179 
C 294 858 1267 -128 2394 -128 
C 2912 -128 3418 57 3616 425 
C 3725 161 3904 -20 3936 -20 
C 3968 -20 3974 -13 3974 102 
L 3974 1258 
z
" transform="scale(0.015625)"/>
       <path id="CMR17-6c" d="M 979 4416 
L 218 4345 
L 218 4179 
C 595 4179 653 4141 653 3835 
L 653 439 
C 653 198 627 166 218 166 
L 218 0 
C 371 12 653 12 813 12 
C 979 12 1261 12 1414 0 
L 1414 166 
C 1005 166 979 191 979 439 
L 979 4416 
z
" transform="scale(0.015625)"/>
       <path id="CMR17-6f" d="M 2758 1356 
C 2758 2176 2163 2816 1466 2816 
C 768 2816 173 2176 173 1356 
C 173 550 768 -64 1466 -64 
C 2163 -64 2758 550 2758 1356 
z
M 1466 51 
C 1165 51 909 230 762 480 
C 602 768 582 1126 582 1408 
C 582 1676 595 2009 762 2297 
C 890 2508 1139 2713 1466 2713 
C 1754 2713 1997 2553 2150 2329 
C 2349 2028 2349 1606 2349 1408 
C 2349 1158 2336 774 2163 467 
C 1984 172 1709 51 1466 51 
z
" transform="scale(0.015625)"/>
       <path id="CMR17-62" d="M 960 4416 
L 198 4345 
L 198 4179 
C 576 4179 634 4141 634 3843 
L 634 -13 
L 749 -13 
L 934 445 
C 1120 141 1395 -64 1766 -64 
C 2406 -64 3053 503 3053 1382 
C 3053 2209 2477 2816 1830 2816 
C 1434 2816 1152 2603 960 2351 
L 960 4416 
z
M 973 2022 
C 973 2138 973 2157 1062 2293 
C 1312 2681 1670 2713 1792 2713 
C 1984 2713 2643 2610 2643 1388 
C 2643 109 1888 38 1734 38 
C 1536 38 1248 115 1043 490 
C 973 613 973 626 973 742 
L 973 2022 
z
" transform="scale(0.015625)"/>
       <path id="CMR17-61" d="M 2304 1656 
C 2304 2048 2304 2275 2035 2534 
C 1798 2751 1523 2816 1306 2816 
C 800 2816 435 2408 435 1977 
C 435 1740 627 1728 666 1728 
C 749 1728 896 1779 896 1958 
C 896 2118 774 2188 666 2188 
C 640 2188 608 2182 589 2176 
C 723 2594 1069 2713 1293 2713 
C 1613 2713 1965 2421 1965 1875 
L 1965 1632 
C 1587 1619 1133 1568 774 1373 
C 371 1147 256 822 256 576 
C 256 77 832 -64 1171 -64 
C 1523 -64 1850 135 1990 505 
C 2003 219 2182 -39 2464 -39 
C 2598 -39 2938 51 2938 563 
L 2938 926 
L 2822 926 
L 2822 557 
C 2822 161 2650 109 2566 109 
C 2304 109 2304 446 2304 732 
L 2304 1656 
z
M 1965 887 
C 1965 323 1568 38 1216 38 
C 896 38 646 278 646 576 
C 646 771 730 1114 1101 1322 
C 1408 1497 1760 1523 1965 1536 
L 1965 887 
z
" transform="scale(0.015625)"/>
       <path id="CMR17-65" d="M 2438 1503 
C 2464 1529 2464 1542 2464 1606 
C 2464 2251 2118 2816 1389 2816 
C 710 2816 173 2175 173 1394 
C 173 554 781 -64 1459 -64 
C 2176 -64 2458 619 2458 755 
C 2458 800 2419 800 2406 800 
C 2362 800 2355 787 2330 709 
C 2189 270 1837 51 1504 51 
C 1229 51 954 206 781 490 
C 582 819 582 1200 582 1503 
L 2438 1503 
z
M 589 1600 
C 634 2511 1126 2713 1382 2713 
C 1818 2713 2112 2308 2118 1600 
L 589 1600 
z
" transform="scale(0.015625)"/>
       <path id="CMR17-72" d="M 960 1517 
C 960 2134 1222 2713 1702 2713 
C 1747 2713 1792 2707 1837 2687 
C 1837 2687 1696 2642 1696 2475 
C 1696 2321 1818 2257 1914 2257 
C 1990 2257 2131 2302 2131 2482 
C 2131 2687 1926 2816 1709 2816 
C 1222 2816 1011 2340 947 2115 
L 941 2115 
L 941 2816 
L 198 2745 
L 198 2578 
C 576 2578 634 2540 634 2231 
L 634 443 
C 634 198 608 166 198 166 
L 198 0 
C 352 12 646 12 813 12 
C 998 12 1325 12 1498 0 
L 1498 166 
C 1037 166 960 166 960 455 
L 960 1517 
z
" transform="scale(0.015625)"/>
       <path id="CMR17-74" d="M 966 2585 
L 1862 2585 
L 1862 2752 
L 966 2752 
L 966 3968 
L 851 3968 
C 838 3292 614 2700 70 2687 
L 70 2585 
L 627 2585 
L 627 778 
C 627 655 627 -64 1370 -64 
C 1747 -64 1965 308 1965 784 
L 1965 1151 
L 1850 1151 
L 1850 790 
C 1850 347 1677 51 1408 51 
C 1222 51 966 179 966 765 
L 966 2585 
z
" transform="scale(0.015625)"/>
       <path id="CMMI12-63" d="M 2502 2432 
C 2381 2432 2323 2432 2234 2355 
C 2195 2323 2125 2227 2125 2124 
C 2125 1996 2221 1919 2342 1919 
C 2496 1919 2669 2047 2669 2303 
C 2669 2591 2374 2816 1933 2816 
C 1094 2816 256 1932 256 1011 
C 256 446 602 -64 1254 -64 
C 2125 -64 2675 622 2675 706 
C 2675 745 2637 777 2611 777 
C 2592 777 2586 771 2528 712 
C 2118 161 1510 64 1267 64 
C 826 64 685 453 685 777 
C 685 1004 794 1634 1024 2073 
C 1190 2374 1536 2687 1939 2687 
C 2022 2687 2374 2676 2502 2432 
z
" transform="scale(0.015625)"/>
       <path id="CMMI12-74" d="M 1286 2566 
L 1875 2566 
C 1997 2566 2061 2566 2061 2681 
C 2061 2752 2022 2752 1894 2752 
L 1331 2752 
L 1568 3664 
C 1594 3752 1594 3764 1594 3808 
C 1594 3910 1510 3968 1427 3968 
C 1376 3968 1229 3948 1178 3746 
L 928 2752 
L 326 2752 
C 198 2752 141 2752 141 2630 
C 141 2566 186 2566 307 2566 
L 877 2566 
L 454 881 
C 403 657 384 593 384 510 
C 384 210 595 -64 954 -64 
C 1600 -64 1946 868 1946 913 
C 1946 951 1920 970 1882 970 
C 1869 970 1843 970 1830 944 
C 1824 938 1818 932 1773 830 
C 1638 510 1344 64 973 64 
C 781 64 768 223 768 364 
C 768 370 768 491 787 568 
L 1286 2566 
z
" transform="scale(0.015625)"/>
       <path id="CMMI12-4c" d="M 2349 3860 
C 2406 4102 2426 4166 2989 4166 
C 3162 4166 3206 4166 3206 4287 
C 3206 4352 3136 4352 3110 4352 
C 2982 4352 2835 4339 2707 4339 
L 1850 4339 
C 1728 4339 1587 4352 1466 4352 
C 1414 4352 1344 4352 1344 4230 
C 1344 4166 1402 4166 1498 4166 
C 1888 4166 1888 4115 1888 4045 
C 1888 4032 1888 3994 1862 3898 
L 998 472 
C 941 249 928 185 480 185 
C 358 185 294 185 294 70 
C 294 0 333 0 461 0 
L 3328 0 
C 3469 0 3475 6 3520 121 
L 4013 1478 
C 4026 1510 4038 1548 4038 1567 
C 4038 1605 4006 1631 3974 1631 
C 3968 1631 3936 1631 3923 1605 
C 3910 1599 3910 1586 3859 1465 
C 3654 905 3366 185 2285 185 
L 1670 185 
C 1581 185 1568 185 1530 191 
C 1459 198 1453 211 1453 262 
C 1453 306 1466 344 1478 402 
L 2349 3860 
z
" transform="scale(0.015625)"/>
       <path id="CMR17-3d" d="M 4115 2048 
C 4211 2048 4307 2048 4307 2156 
C 4307 2272 4198 2272 4090 2272 
L 512 2272 
C 403 2272 294 2272 294 2156 
C 294 2048 390 2048 486 2048 
L 4115 2048 
z
M 4090 927 
C 4198 927 4307 927 4307 1043 
C 4307 1152 4211 1152 4115 1152 
L 486 1152 
C 390 1152 294 1152 294 1043 
C 294 927 403 927 512 927 
L 4090 927 
z
" transform="scale(0.015625)"/>
       <path id="CMMI12-3a" d="M 1178 307 
C 1178 492 1024 620 870 620 
C 685 620 557 467 557 313 
C 557 128 710 0 864 0 
C 1050 0 1178 153 1178 307 
z
" transform="scale(0.015625)"/>
       <path id="CMR17-35" d="M 730 3750 
C 794 3724 1056 3641 1325 3641 
C 1920 3641 2246 3961 2432 4140 
C 2432 4191 2432 4224 2394 4224 
C 2387 4224 2374 4224 2323 4198 
C 2099 4102 1837 4032 1517 4032 
C 1325 4032 1037 4055 723 4191 
C 653 4224 640 4224 634 4224 
C 602 4224 595 4217 595 4090 
L 595 2231 
C 595 2113 595 2080 659 2080 
C 691 2080 704 2093 736 2139 
C 941 2435 1222 2560 1542 2560 
C 1766 2560 2246 2415 2246 1293 
C 2246 1087 2246 716 2054 422 
C 1894 159 1645 25 1370 25 
C 947 25 518 319 403 812 
C 429 806 480 793 506 793 
C 589 793 749 838 749 1036 
C 749 1209 627 1280 506 1280 
C 358 1280 262 1190 262 1011 
C 262 454 704 -128 1382 -128 
C 2042 -128 2669 441 2669 1267 
C 2669 2054 2170 2662 1549 2662 
C 1222 2662 947 2540 730 2304 
L 730 3750 
z
" transform="scale(0.015625)"/>
      </defs>
      <use xlink:href="#CMR17-47" transform="scale(0.996264)"/>
      <use xlink:href="#CMR17-6c" transform="translate(72.355346 0)scale(0.996264)"/>
      <use xlink:href="#CMR17-6f" transform="translate(97.226404 0)scale(0.996264)"/>
      <use xlink:href="#CMR17-62" transform="translate(142.916882 0)scale(0.996264)"/>
      <use xlink:href="#CMR17-61" transform="translate(193.812251 0)scale(0.996264)"/>
      <use xlink:href="#CMR17-6c" transform="translate(239.502728 0)scale(0.996264)"/>
      <use xlink:href="#CMR17-65" transform="translate(294.449753 0)scale(0.996264)"/>
      <use xlink:href="#CMR17-72" transform="translate(334.935414 0)scale(0.996264)"/>
      <use xlink:href="#CMR17-72" transform="translate(370.216182 0)scale(0.996264)"/>
      <use xlink:href="#CMR17-6f" transform="translate(405.496949 0)scale(0.996264)"/>
      <use xlink:href="#CMR17-72" transform="translate(451.187426 0)scale(0.996264)"/>
      <use xlink:href="#CMR17-61" transform="translate(516.544161 0)scale(0.996264)"/>
      <use xlink:href="#CMR17-74" transform="translate(562.234638 0)scale(0.996264)"/>
      <use xlink:href="#CMMI12-63" transform="translate(627.591372 0)scale(0.996264)"/>
      <use xlink:href="#CMMI12-74" transform="translate(669.574605 0)scale(0.996264)"/>
      <use xlink:href="#CMMI12-3d" transform="translate(726.940143 0)scale(0.996264)"/>
      <use xlink:href="#CMMI12-4c" transform="translate(797.854268 0)scale(0.996264)"/>
      <use xlink:href="#CMR17-3d" transform="translate(914.03836 0)scale(0.996264)"/>
      <use xlink:href="#CMR17-30" transform="translate(1035.566364 0)scale(0.996264)"/>
      <use xlink:href="#CMMI12-3a" transform="translate(1081.256841 0)scale(0.996264)"/>
      <use xlink:href="#CMR17-35" transform="translate(1108.354018 0)scale(0.996264)"/>
     </g>
    </g>
   </g>
   <g id="line2d_73">
    <path d="M 622.203954 49.355078 
L 352.248291 81.752125 
L 82.292628 131.118049 
" clip-path="url(#p53fe41c49d)" style="fill: none; stroke: #1f77b4; stroke-width: 1.5; stroke-linecap: square"/>
    <defs>
     <path id="m8df2e2b9c0" d="M 0 3 
C 0.795609 3 1.55874 2.683901 2.12132 2.12132 
C 2.683901 1.55874 3 0.795609 3 0 
C 3 -0.795609 2.683901 -1.55874 2.12132 -2.12132 
C 1.55874 -2.683901 0.795609 -3 0 -3 
C -0.795609 -3 -1.55874 -2.683901 -2.12132 -2.12132 
C -2.683901 -1.55874 -3 -0.795609 -3 0 
C -3 0.795609 -2.683901 1.55874 -2.12132 2.12132 
C -1.55874 2.683901 -0.795609 3 0 3 
z
" style="stroke: #1f77b4"/>
    </defs>
    <g clip-path="url(#p53fe41c49d)">
     <use xlink:href="#m8df2e2b9c0" x="622.203954" y="49.355078" style="fill: #1f77b4; stroke: #1f77b4"/>
     <use xlink:href="#m8df2e2b9c0" x="352.248291" y="81.752125" style="fill: #1f77b4; stroke: #1f77b4"/>
     <use xlink:href="#m8df2e2b9c0" x="82.292628" y="131.118049" style="fill: #1f77b4; stroke: #1f77b4"/>
    </g>
   </g>
   <g id="line2d_74">
    <path d="M 622.203954 21.687418 
L 352.248291 76.402734 
L 82.292628 131.118049 
" clip-path="url(#p53fe41c49d)" style="fill: none; stroke-dasharray: 5.55,2.4; stroke-dashoffset: 0; stroke: #000000; stroke-opacity: 0.5; stroke-width: 1.5"/>
   </g>
   <g id="line2d_75">
    <path d="M 622.203954 87.753917 
L 352.248291 164.961487 
L 82.292628 268.839211 
" clip-path="url(#p53fe41c49d)" style="fill: none; stroke: #ff7f0e; stroke-width: 1.5; stroke-linecap: square"/>
    <defs>
     <path id="m993f0e5695" d="M 0 3 
C 0.795609 3 1.55874 2.683901 2.12132 2.12132 
C 2.683901 1.55874 3 0.795609 3 0 
C 3 -0.795609 2.683901 -1.55874 2.12132 -2.12132 
C 1.55874 -2.683901 0.795609 -3 0 -3 
C -0.795609 -3 -1.55874 -2.683901 -2.12132 -2.12132 
C -2.683901 -1.55874 -3 -0.795609 -3 0 
C -3 0.795609 -2.683901 1.55874 -2.12132 2.12132 
C -1.55874 2.683901 -0.795609 3 0 3 
z
" style="stroke: #ff7f0e"/>
    </defs>
    <g clip-path="url(#p53fe41c49d)">
     <use xlink:href="#m993f0e5695" x="622.203954" y="87.753917" style="fill: #ff7f0e; stroke: #ff7f0e"/>
     <use xlink:href="#m993f0e5695" x="352.248291" y="164.961487" style="fill: #ff7f0e; stroke: #ff7f0e"/>
     <use xlink:href="#m993f0e5695" x="82.292628" y="268.839211" style="fill: #ff7f0e; stroke: #ff7f0e"/>
    </g>
   </g>
   <g id="line2d_76">
    <path d="M 622.203954 49.97795 
L 352.248291 159.408581 
L 82.292628 268.839211 
" clip-path="url(#p53fe41c49d)" style="fill: none; stroke-dasharray: 9.6,2.4,1.5,2.4; stroke-dashoffset: 0; stroke: #000000; stroke-opacity: 0.5; stroke-width: 1.5"/>
   </g>
   <g id="line2d_77">
    <path d="M 622.203954 117.889765 
L 352.248291 204.892049 
L 82.292628 311.43578 
" clip-path="url(#p53fe41c49d)" style="fill: none; stroke: #2ca02c; stroke-width: 1.5; stroke-linecap: square"/>
    <defs>
     <path id="m727fa2d7de" d="M 0 3 
C 0.795609 3 1.55874 2.683901 2.12132 2.12132 
C 2.683901 1.55874 3 0.795609 3 0 
C 3 -0.795609 2.683901 -1.55874 2.12132 -2.12132 
C 1.55874 -2.683901 0.795609 -3 0 -3 
C -0.795609 -3 -1.55874 -2.683901 -2.12132 -2.12132 
C -2.683901 -1.55874 -3 -0.795609 -3 0 
C -3 0.795609 -2.683901 1.55874 -2.12132 2.12132 
C -1.55874 2.683901 -0.795609 3 0 3 
z
" style="stroke: #2ca02c"/>
    </defs>
    <g clip-path="url(#p53fe41c49d)">
     <use xlink:href="#m727fa2d7de" x="622.203954" y="117.889765" style="fill: #2ca02c; stroke: #2ca02c"/>
     <use xlink:href="#m727fa2d7de" x="352.248291" y="204.892049" style="fill: #2ca02c; stroke: #2ca02c"/>
     <use xlink:href="#m727fa2d7de" x="82.292628" y="311.43578" style="fill: #2ca02c; stroke: #2ca02c"/>
    </g>
   </g>
   <g id="line2d_78">
    <path d="M 622.203954 92.574518 
L 352.248291 202.005149 
L 82.292628 311.43578 
" clip-path="url(#p53fe41c49d)" style="fill: none; stroke-dasharray: 1.5,2.475; stroke-dashoffset: 0; stroke: #000000; stroke-opacity: 0.5; stroke-width: 1.5"/>
   </g>
   <g id="line2d_79">
    <path d="M 622.203954 83.118799 
L 352.248291 132.536858 
L 82.292628 203.790176 
" clip-path="url(#p53fe41c49d)" style="fill: none; stroke: #d62728; stroke-width: 1.5; stroke-linecap: square"/>
    <defs>
     <path id="m1897e99aef" d="M 0 3 
C 0.795609 3 1.55874 2.683901 2.12132 2.12132 
C 2.683901 1.55874 3 0.795609 3 0 
C 3 -0.795609 2.683901 -1.55874 2.12132 -2.12132 
C 1.55874 -2.683901 0.795609 -3 0 -3 
C -0.795609 -3 -1.55874 -2.683901 -2.12132 -2.12132 
C -2.683901 -1.55874 -3 -0.795609 -3 0 
C -3 0.795609 -2.683901 1.55874 -2.12132 2.12132 
C -1.55874 2.683901 -0.795609 3 0 3 
z
" style="stroke: #d62728"/>
    </defs>
    <g clip-path="url(#p53fe41c49d)">
     <use xlink:href="#m1897e99aef" x="622.203954" y="83.118799" style="fill: #d62728; stroke: #d62728"/>
     <use xlink:href="#m1897e99aef" x="352.248291" y="132.536858" style="fill: #d62728; stroke: #d62728"/>
     <use xlink:href="#m1897e99aef" x="82.292628" y="203.790176" style="fill: #d62728; stroke: #d62728"/>
    </g>
   </g>
   <g id="line2d_80">
    <path d="M 622.203954 39.64423 
L 352.248291 121.717203 
L 82.292628 203.790176 
" clip-path="url(#p53fe41c49d)" style="fill: none; stroke: #000000; stroke-opacity: 0.5; stroke-width: 1.5; stroke-linecap: square"/>
   </g>
   <g id="patch_3">
    <path d="M 55.297062 325.923198 
L 55.297062 7.2 
" style="fill: none; stroke: #000000; stroke-width: 0.8; stroke-linejoin: miter; stroke-linecap: square"/>
   </g>
   <g id="patch_4">
    <path d="M 649.19952 325.923198 
L 649.19952 7.2 
" style="fill: none; stroke: #000000; stroke-width: 0.8; stroke-linejoin: miter; stroke-linecap: square"/>
   </g>
   <g id="patch_5">
    <path d="M 55.297062 325.923198 
L 649.19952 325.923198 
" style="fill: none; stroke: #000000; stroke-width: 0.8; stroke-linejoin: miter; stroke-linecap: square"/>
   </g>
   <g id="patch_6">
    <path d="M 55.297062 7.2 
L 649.19952 7.2 
" style="fill: none; stroke: #000000; stroke-width: 0.8; stroke-linejoin: miter; stroke-linecap: square"/>
   </g>
   <g id="legend_1">
    <g id="patch_7">
     <path d="M 538.838943 318.423198 
L 638.69952 318.423198 
Q 641.69952 318.423198 641.69952 315.423198 
L 641.69952 149.677241 
Q 641.69952 146.677241 638.69952 146.677241 
L 538.838943 146.677241 
Q 535.838943 146.677241 535.838943 149.677241 
L 535.838943 315.423198 
Q 535.838943 318.423198 538.838943 318.423198 
z
" style="fill: #ffffff; opacity: 0.8; stroke: #cccccc; stroke-linejoin: miter"/>
    </g>
    <g id="line2d_81">
     <path d="M 541.838943 157.927241 
L 556.838943 157.927241 
L 571.838943 157.927241 
" style="fill: none; stroke: #1f77b4; stroke-width: 1.5; stroke-linecap: square"/>
     <g>
      <use xlink:href="#m8df2e2b9c0" x="556.838943" y="157.927241" style="fill: #1f77b4; stroke: #1f77b4"/>
     </g>
    </g>
    <g id="text_10">
     <!-- E2 -->
     <g transform="translate(583.838943 163.177241)scale(0.15 -0.15)">
      <defs>
       <path id="CMR17-45" d="M 3885 1614 
L 3770 1614 
C 3629 676 3546 166 2419 166 
L 1530 166 
C 1274 166 1261 198 1261 415 
L 1261 2176 
L 1862 2176 
C 2464 2176 2522 1959 2522 1429 
L 2637 1429 
L 2637 3086 
L 2522 3086 
C 2522 2558 2464 2342 1862 2342 
L 1261 2342 
L 1261 3924 
C 1261 4141 1274 4172 1530 4172 
L 2406 4172 
C 3398 4172 3514 3778 3603 2933 
L 3718 2933 
L 3565 4339 
L 326 4339 
L 326 4172 
C 768 4172 838 4172 838 3886 
L 838 453 
C 838 166 768 166 326 166 
L 326 0 
L 3654 0 
L 3885 1614 
z
" transform="scale(0.015625)"/>
      </defs>
      <use xlink:href="#CMR17-45" transform="scale(0.996264)"/>
      <use xlink:href="#CMR17-32" transform="translate(62.586301 0)scale(0.996264)"/>
     </g>
    </g>
    <g id="line2d_82">
     <path d="M 541.838943 178.832985 
L 556.838943 178.832985 
L 571.838943 178.832985 
" style="fill: none; stroke-dasharray: 5.55,2.4; stroke-dashoffset: 0; stroke: #000000; stroke-opacity: 0.5; stroke-width: 1.5"/>
    </g>
    <g id="text_11">
     <!-- order $h^2$ -->
     <g transform="translate(583.838943 184.082985)scale(0.15 -0.15)">
      <defs>
       <path id="CMR17-64" d="M 1869 4345 
L 1869 4179 
C 2246 4179 2304 4141 2304 3843 
L 2304 2371 
C 2278 2403 2016 2816 1498 2816 
C 845 2816 211 2228 211 1376 
C 211 529 806 -64 1434 -64 
C 1978 -64 2259 361 2291 406 
L 2291 -64 
L 3066 -13 
L 3066 154 
C 2688 154 2630 193 2630 503 
L 2630 4416 
L 1869 4345 
z
M 2291 762 
C 2291 568 2176 393 2029 264 
C 1811 70 1594 38 1472 38 
C 1286 38 621 135 621 1369 
C 621 2636 1363 2713 1530 2713 
C 1824 2713 2061 2545 2208 2313 
C 2291 2177 2291 2157 2291 2041 
L 2291 762 
z
" transform="scale(0.015625)"/>
      </defs>
      <use xlink:href="#CMR17-6f" transform="scale(0.996264)"/>
      <use xlink:href="#CMR17-72" transform="translate(45.690477 0)scale(0.996264)"/>
      <use xlink:href="#CMR17-64" transform="translate(80.971245 0)scale(0.996264)"/>
      <use xlink:href="#CMR17-65" transform="translate(131.866615 0)scale(0.996264)"/>
      <use xlink:href="#CMR17-72" transform="translate(172.352275 0)scale(0.996264)"/>
      <use xlink:href="#CMMI12-68" transform="translate(237.709009 0)scale(0.996264)"/>
      <use xlink:href="#CMR17-32" transform="translate(293.863633 36.153639)scale(0.697382)"/>
     </g>
    </g>
    <g id="line2d_83">
     <path d="M 541.838943 199.73873 
L 556.838943 199.73873 
L 571.838943 199.73873 
" style="fill: none; stroke: #ff7f0e; stroke-width: 1.5; stroke-linecap: square"/>
     <g>
      <use xlink:href="#m993f0e5695" x="556.838943" y="199.73873" style="fill: #ff7f0e; stroke: #ff7f0e"/>
     </g>
    </g>
    <g id="text_12">
     <!-- E4 -->
     <g transform="translate(583.838943 204.98873)scale(0.15 -0.15)">
      <use xlink:href="#CMR17-45" transform="scale(0.996264)"/>
      <use xlink:href="#CMR17-34" transform="translate(62.586301 0)scale(0.996264)"/>
     </g>
    </g>
    <g id="line2d_84">
     <path d="M 541.838943 220.644475 
L 556.838943 220.644475 
L 571.838943 220.644475 
" style="fill: none; stroke-dasharray: 9.6,2.4,1.5,2.4; stroke-dashoffset: 0; stroke: #000000; stroke-opacity: 0.5; stroke-width: 1.5"/>
    </g>
    <g id="text_13">
     <!-- order $h^4$ -->
     <g transform="translate(583.838943 225.894475)scale(0.15 -0.15)">
      <use xlink:href="#CMR17-6f" transform="scale(0.996264)"/>
      <use xlink:href="#CMR17-72" transform="translate(45.690477 0)scale(0.996264)"/>
      <use xlink:href="#CMR17-64" transform="translate(80.971245 0)scale(0.996264)"/>
      <use xlink:href="#CMR17-65" transform="translate(131.866615 0)scale(0.996264)"/>
      <use xlink:href="#CMR17-72" transform="translate(172.352275 0)scale(0.996264)"/>
      <use xlink:href="#CMMI12-68" transform="translate(237.709009 0)scale(0.996264)"/>
      <use xlink:href="#CMR17-34" transform="translate(293.863633 36.153639)scale(0.697382)"/>
     </g>
    </g>
    <g id="line2d_85">
     <path d="M 541.838943 241.550219 
L 556.838943 241.550219 
L 571.838943 241.550219 
" style="fill: none; stroke: #2ca02c; stroke-width: 1.5; stroke-linecap: square"/>
     <g>
      <use xlink:href="#m727fa2d7de" x="556.838943" y="241.550219" style="fill: #2ca02c; stroke: #2ca02c"/>
     </g>
    </g>
    <g id="text_14">
     <!-- I4 -->
     <g transform="translate(583.838943 246.800219)scale(0.15 -0.15)">
      <defs>
       <path id="CMR17-49" d="M 1261 3898 
C 1261 4185 1338 4185 1798 4185 
L 1798 4352 
C 1594 4339 1267 4339 1050 4339 
C 832 4339 506 4339 301 4352 
L 301 4185 
C 762 4185 838 4185 838 3898 
L 838 453 
C 838 166 762 166 301 166 
L 301 0 
C 506 12 832 12 1050 12 
C 1267 12 1594 12 1798 0 
L 1798 166 
C 1338 166 1261 166 1261 453 
L 1261 3898 
z
" transform="scale(0.015625)"/>
      </defs>
      <use xlink:href="#CMR17-49" transform="scale(0.996264)"/>
      <use xlink:href="#CMR17-34" transform="translate(32.638409 0)scale(0.996264)"/>
     </g>
    </g>
    <g id="line2d_86">
     <path d="M 541.838943 262.455964 
L 556.838943 262.455964 
L 571.838943 262.455964 
" style="fill: none; stroke-dasharray: 1.5,2.475; stroke-dashoffset: 0; stroke: #000000; stroke-opacity: 0.5; stroke-width: 1.5"/>
    </g>
    <g id="text_15">
     <!-- order $h^4$ -->
     <g transform="translate(583.838943 267.705964)scale(0.15 -0.15)">
      <use xlink:href="#CMR17-6f" transform="scale(0.996264)"/>
      <use xlink:href="#CMR17-72" transform="translate(45.690477 0)scale(0.996264)"/>
      <use xlink:href="#CMR17-64" transform="translate(80.971245 0)scale(0.996264)"/>
      <use xlink:href="#CMR17-65" transform="translate(131.866615 0)scale(0.996264)"/>
      <use xlink:href="#CMR17-72" transform="translate(172.352275 0)scale(0.996264)"/>
      <use xlink:href="#CMMI12-68" transform="translate(237.709009 0)scale(0.996264)"/>
      <use xlink:href="#CMR17-34" transform="translate(293.863633 36.153639)scale(0.697382)"/>
     </g>
    </g>
    <g id="line2d_87">
     <path d="M 541.838943 283.361709 
L 556.838943 283.361709 
L 571.838943 283.361709 
" style="fill: none; stroke: #d62728; stroke-width: 1.5; stroke-linecap: square"/>
     <g>
      <use xlink:href="#m1897e99aef" x="556.838943" y="283.361709" style="fill: #d62728; stroke: #d62728"/>
     </g>
    </g>
    <g id="text_16">
     <!-- D3 -->
     <g transform="translate(583.838943 288.611709)scale(0.15 -0.15)">
      <defs>
       <path id="CMR17-44" d="M 333 4352 
L 333 4185 
C 774 4185 845 4185 845 3898 
L 845 453 
C 845 166 774 166 333 166 
L 333 0 
L 2368 0 
C 3398 0 4224 943 4224 2140 
C 4224 3344 3411 4352 2368 4352 
L 333 4352 
z
M 1523 166 
C 1267 166 1254 198 1254 414 
L 1254 3936 
C 1254 4153 1267 4185 1523 4185 
L 2240 4185 
C 2771 4185 3750 3873 3750 2140 
C 3750 1242 3488 879 3366 707 
C 3213 510 2848 166 2240 166 
L 1523 166 
z
" transform="scale(0.015625)"/>
      </defs>
      <use xlink:href="#CMR17-44" transform="scale(0.996264)"/>
      <use xlink:href="#CMR17-33" transform="translate(70.393556 0)scale(0.996264)"/>
     </g>
    </g>
    <g id="line2d_88">
     <path d="M 541.838943 304.267453 
L 556.838943 304.267453 
L 571.838943 304.267453 
" style="fill: none; stroke: #000000; stroke-opacity: 0.5; stroke-width: 1.5; stroke-linecap: square"/>
    </g>
    <g id="text_17">
     <!-- order $h^3$ -->
     <g transform="translate(583.838943 309.517453)scale(0.15 -0.15)">
      <use xlink:href="#CMR17-6f" transform="scale(0.996264)"/>
      <use xlink:href="#CMR17-72" transform="translate(45.690477 0)scale(0.996264)"/>
      <use xlink:href="#CMR17-64" transform="translate(80.971245 0)scale(0.996264)"/>
      <use xlink:href="#CMR17-65" transform="translate(131.866615 0)scale(0.996264)"/>
      <use xlink:href="#CMR17-72" transform="translate(172.352275 0)scale(0.996264)"/>
      <use xlink:href="#CMMI12-68" transform="translate(237.709009 0)scale(0.996264)"/>
      <use xlink:href="#CMR17-33" transform="translate(293.863633 36.153639)scale(0.697382)"/>
     </g>
    </g>
   </g>
  </g>
 </g>
 <defs>
  <clipPath id="p53fe41c49d">
   <rect x="55.297062" y="7.2" width="593.902458" height="318.723198"/>
  </clipPath>
 </defs>
</svg>
