<?xml version="1.0" encoding="utf-8" standalone="no"?>
<!DOCTYPE svg PUBLIC "-//W3C//DTD SVG 1.1//EN"
  "http://www.w3.org/Graphics/SVG/1.1/DTD/svg11.dtd">
<!-- Created with matplotlib (https://matplotlib.org/) -->
<svg height="368.39952pt" version="1.1" viewBox="0 0 656.39952 368.39952" width="656.39952pt" xmlns="http://www.w3.org/2000/svg" xmlns:xlink="http://www.w3.org/1999/xlink">
 <metadata>
  <rdf:RDF xmlns:cc="http://creativecommons.org/ns#" xmlns:dc="http://purl.org/dc/elements/1.1/" xmlns:rdf="http://www.w3.org/1999/02/22-rdf-syntax-ns#">
   <cc:Work>
    <dc:type rdf:resource="http://purl.org/dc/dcmitype/StillImage"/>
    <dc:date>2022-03-11T23:53:03.901176</dc:date>
    <dc:format>image/svg+xml</dc:format>
    <dc:creator>
     <cc:Agent>
      <dc:title>Matplotlib v3.3.4, https://matplotlib.org/</dc:title>
     </cc:Agent>
    </dc:creator>
   </cc:Work>
  </rdf:RDF>
 </metadata>
 <defs>
  <style type="text/css">*{stroke-linecap:butt;stroke-linejoin:round;}</style>
 </defs>
 <g id="figure_1">
  <g id="patch_1">
   <path d="M 0 368.39952 
L 656.39952 368.39952 
L 656.39952 0 
L 0 0 
z
" style="fill:#ffffff;"/>
  </g>
  <g id="axes_1">
   <g id="patch_2">
    <path d="M 55.297062 325.923198 
L 649.19952 325.923198 
L 649.19952 7.2 
L 55.297062 7.2 
z
" style="fill:#ffffff;"/>
   </g>
   <g id="matplotlib.axis_1">
    <g id="xtick_1">
     <g id="line2d_1">
      <path clip-path="url(#p53d8640509)" d="M 265.341979 325.923198 
L 265.341979 7.2 
" style="fill:none;stroke:#b0b0b0;stroke-dasharray:0.8,1.32;stroke-dashoffset:0;stroke-width:0.8;"/>
     </g>
     <g id="line2d_2">
      <defs>
       <path d="M 0 0 
L 0 2 
" id="ma9ca7498d7" style="stroke:#000000;stroke-width:0.6;"/>
      </defs>
      <g>
       <use style="stroke:#000000;stroke-width:0.6;" x="265.341979" xlink:href="#ma9ca7498d7" y="325.923198"/>
      </g>
     </g>
     <g id="text_1">
      <!-- $\mathdefault{2\times10^{-1}}$ -->
      <g transform="translate(246.682786 338.049105)scale(0.1 -0.1)">
       <defs>
        <path d="M 41.703125 15.46875 
L 39.90625 15.46875 
C 38.90625 8.390625 38.09375 7.1875 37.703125 6.59375 
C 37.203125 5.796875 30 5.796875 28.59375 5.796875 
L 9.40625 5.796875 
C 13 9.6875 20 16.765625 28.5 24.9375 
C 34.59375 30.71875 41.703125 37.5 41.703125 47.390625 
C 41.703125 59.1875 32.296875 66 21.796875 66 
C 10.796875 66 4.09375 56.296875 4.09375 47.296875 
C 4.09375 43.390625 7 42.890625 8.203125 42.890625 
C 9.203125 42.890625 12.203125 43.484375 12.203125 46.984375 
C 12.203125 50.09375 9.59375 51 8.203125 51 
C 7.59375 51 7 50.890625 6.59375 50.6875 
C 8.5 59.1875 14.296875 63.390625 20.40625 63.390625 
C 29.09375 63.390625 34.796875 56.5 34.796875 47.390625 
C 34.796875 38.703125 29.703125 31.21875 24 24.734375 
L 4.09375 2.296875 
L 4.09375 0 
L 39.296875 0 
z
" id="CMR17-50"/>
        <path d="M 38.90625 27.734375 
L 18.90625 47.59375 
C 17.703125 48.796875 17.5 49 16.703125 49 
C 15.703125 49 14.703125 48.09375 14.703125 47 
C 14.703125 46.296875 14.90625 46.09375 16 45 
L 36 24.9375 
L 16 4.890625 
C 14.90625 3.796875 14.703125 3.59375 14.703125 2.890625 
C 14.703125 1.796875 15.703125 0.890625 16.703125 0.890625 
C 17.5 0.890625 17.703125 1.09375 18.90625 2.296875 
L 38.796875 22.15625 
L 59.5 1.484375 
C 59.703125 1.390625 60.40625 0.890625 61 0.890625 
C 62.203125 0.890625 63 1.796875 63 2.890625 
C 63 3.09375 63 3.484375 62.703125 3.984375 
C 62.59375 4.1875 46.703125 19.859375 41.703125 24.9375 
L 60 43.203125 
C 60.5 43.796875 62 45.09375 62.5 45.703125 
C 62.59375 45.890625 63 46.296875 63 47 
C 63 48.09375 62.203125 49 61 49 
C 60.203125 49 59.796875 48.59375 58.703125 47.5 
z
" id="CMSY10-2"/>
        <path d="M 26.59375 63.796875 
C 26.59375 65.890625 26.5 66 25.09375 66 
C 21.203125 61.359375 15.296875 59.890625 9.703125 59.6875 
C 9.40625 59.6875 8.90625 59.6875 8.796875 59.5 
C 8.703125 59.296875 8.703125 59.09375 8.703125 57 
C 11.796875 57 17 57.59375 21 59.984375 
L 21 7.296875 
C 21 3.796875 20.796875 2.59375 12.203125 2.59375 
L 9.203125 2.59375 
L 9.203125 0 
C 14 0.09375 19 0.1875 23.796875 0.1875 
C 28.59375 0.1875 33.59375 0.09375 38.40625 0 
L 38.40625 2.59375 
L 35.40625 2.59375 
C 26.796875 2.59375 26.59375 3.6875 26.59375 7.296875 
z
" id="CMR17-49"/>
        <path d="M 42 31.84375 
C 42 37.96875 41.90625 48.421875 37.703125 56.453125 
C 34 63.484375 28.09375 66 22.90625 66 
C 18.09375 66 12 63.78125 8.203125 56.5625 
C 4.203125 49.015625 3.796875 39.671875 3.796875 31.84375 
C 3.796875 26.109375 3.90625 17.375 7 9.734375 
C 11.296875 -0.609375 19 -2 22.90625 -2 
C 27.5 -2 34.5 -0.109375 38.59375 9.4375 
C 41.59375 16.375 42 24.5 42 31.84375 
z
M 22.90625 -0.40625 
C 16.5 -0.40625 12.703125 5.125 11.296875 12.75 
C 10.203125 18.6875 10.203125 27.328125 10.203125 32.953125 
C 10.203125 40.6875 10.203125 47.109375 11.5 53.234375 
C 13.40625 61.78125 19 64.390625 22.90625 64.390625 
C 27 64.390625 32.296875 61.671875 34.203125 53.4375 
C 35.5 47.71875 35.59375 40.984375 35.59375 32.953125 
C 35.59375 26.421875 35.59375 18.375 34.40625 12.453125 
C 32.296875 1.5 26.40625 -0.40625 22.90625 -0.40625 
z
" id="CMR17-48"/>
        <path d="M 65.90625 23 
C 67.59375 23 69.40625 23 69.40625 25 
C 69.40625 27 67.59375 27 65.90625 27 
L 11.796875 27 
C 10.09375 27 8.296875 27 8.296875 25 
C 8.296875 23 10.09375 23 11.796875 23 
z
" id="CMSY10-0"/>
       </defs>
       <use transform="scale(0.996264)" xlink:href="#CMR17-50"/>
       <use transform="translate(67.829684 0)scale(0.996264)" xlink:href="#CMSY10-2"/>
       <use transform="translate(167.456359 0)scale(0.996264)" xlink:href="#CMR17-49"/>
       <use transform="translate(213.146836 0)scale(0.996264)" xlink:href="#CMR17-48"/>
       <use transform="translate(258.837313 36.153639)scale(0.697382)" xlink:href="#CMSY10-0"/>
       <use transform="translate(313.078306 36.153639)scale(0.697382)" xlink:href="#CMR17-49"/>
      </g>
     </g>
    </g>
    <g id="xtick_2">
     <g id="line2d_3">
      <path clip-path="url(#p53d8640509)" d="M 423.255918 325.923198 
L 423.255918 7.2 
" style="fill:none;stroke:#b0b0b0;stroke-dasharray:0.8,1.32;stroke-dashoffset:0;stroke-width:0.8;"/>
     </g>
     <g id="line2d_4">
      <g>
       <use style="stroke:#000000;stroke-width:0.6;" x="423.255918" xlink:href="#ma9ca7498d7" y="325.923198"/>
      </g>
     </g>
     <g id="text_2">
      <!-- $\mathdefault{3\times10^{-1}}$ -->
      <g transform="translate(404.596726 338.049105)scale(0.1 -0.1)">
       <defs>
        <path d="M 22.09375 34 
C 31 34 34.90625 26.140625 34.90625 17.09375 
C 34.90625 5.03125 28.5 0.390625 22.703125 0.390625 
C 17.40625 0.390625 8.796875 3.015625 6.09375 10.796875 
C 6.59375 10.59375 7.09375 10.59375 7.59375 10.59375 
C 10 10.59375 11.796875 12.1875 11.796875 14.796875 
C 11.796875 17.6875 9.59375 19 7.59375 19 
C 5.90625 19 3.296875 18.1875 3.296875 14.484375 
C 3.296875 5.234375 12.296875 -2 22.90625 -2 
C 34 -2 42.5 6.75 42.5 16.984375 
C 42.5 26.84375 34.5 34 25 35.09375 
C 32.59375 36.671875 39.90625 43.375 39.90625 52.390625 
C 39.90625 60.25 32 66 23 66 
C 13.90625 66 5.90625 60.34375 5.90625 52.296875 
C 5.90625 48.796875 8.5 48.1875 9.796875 48.1875 
C 11.90625 48.1875 13.703125 49.484375 13.703125 52.09375 
C 13.703125 54.6875 11.90625 56 9.796875 56 
C 9.40625 56 8.90625 56 8.5 55.796875 
C 11.40625 62.484375 19.296875 63.6875 22.796875 63.6875 
C 26.296875 63.6875 32.90625 61.96875 32.90625 52.296875 
C 32.90625 49.484375 32.5 44.546875 29.09375 40.21875 
C 26.09375 36.390625 22.703125 36.1875 19.40625 35.890625 
C 18.90625 35.890625 16.59375 35.6875 16.203125 35.6875 
C 15.5 35.59375 15.09375 35.5 15.09375 34.796875 
C 15.09375 34.09375 15.203125 34 17.203125 34 
z
" id="CMR17-51"/>
       </defs>
       <use transform="scale(0.996264)" xlink:href="#CMR17-51"/>
       <use transform="translate(67.829684 0)scale(0.996264)" xlink:href="#CMSY10-2"/>
       <use transform="translate(167.456359 0)scale(0.996264)" xlink:href="#CMR17-49"/>
       <use transform="translate(213.146836 0)scale(0.996264)" xlink:href="#CMR17-48"/>
       <use transform="translate(258.837313 36.153639)scale(0.697382)" xlink:href="#CMSY10-0"/>
       <use transform="translate(313.078306 36.153639)scale(0.697382)" xlink:href="#CMR17-49"/>
      </g>
     </g>
    </g>
    <g id="xtick_3">
     <g id="line2d_5">
      <path clip-path="url(#p53d8640509)" d="M 535.297641 325.923198 
L 535.297641 7.2 
" style="fill:none;stroke:#b0b0b0;stroke-dasharray:0.8,1.32;stroke-dashoffset:0;stroke-width:0.8;"/>
     </g>
     <g id="line2d_6">
      <g>
       <use style="stroke:#000000;stroke-width:0.6;" x="535.297641" xlink:href="#ma9ca7498d7" y="325.923198"/>
      </g>
     </g>
     <g id="text_3">
      <!-- $\mathdefault{4\times10^{-1}}$ -->
      <g transform="translate(516.638449 338.049105)scale(0.1 -0.1)">
       <defs>
        <path d="M 33.59375 64.796875 
C 33.59375 66.890625 33.5 67 31.703125 67 
L 2 19.59375 
L 2 17 
L 27.796875 17 
L 27.796875 7.1875 
C 27.796875 3.59375 27.59375 2.59375 20.59375 2.59375 
L 18.703125 2.59375 
L 18.703125 0 
C 21.90625 0.1875 27.296875 0.1875 30.703125 0.1875 
C 34.09375 0.1875 39.5 0.1875 42.703125 0 
L 42.703125 2.59375 
L 40.796875 2.59375 
C 33.796875 2.59375 33.59375 3.59375 33.59375 7.1875 
L 33.59375 17 
L 43.796875 17 
L 43.796875 19.59375 
L 33.59375 19.59375 
z
M 28.09375 58.171875 
L 28.09375 19.59375 
L 4 19.59375 
z
" id="CMR17-52"/>
       </defs>
       <use transform="scale(0.996264)" xlink:href="#CMR17-52"/>
       <use transform="translate(67.829684 0)scale(0.996264)" xlink:href="#CMSY10-2"/>
       <use transform="translate(167.456359 0)scale(0.996264)" xlink:href="#CMR17-49"/>
       <use transform="translate(213.146836 0)scale(0.996264)" xlink:href="#CMR17-48"/>
       <use transform="translate(258.837313 36.153639)scale(0.697382)" xlink:href="#CMSY10-0"/>
       <use transform="translate(313.078306 36.153639)scale(0.697382)" xlink:href="#CMR17-49"/>
      </g>
     </g>
    </g>
    <g id="xtick_4">
     <g id="line2d_7">
      <path clip-path="url(#p53d8640509)" d="M 622.203954 325.923198 
L 622.203954 7.2 
" style="fill:none;stroke:#b0b0b0;stroke-dasharray:0.8,1.32;stroke-dashoffset:0;stroke-width:0.8;"/>
     </g>
     <g id="line2d_8">
      <g>
       <use style="stroke:#000000;stroke-width:0.6;" x="622.203954" xlink:href="#ma9ca7498d7" y="325.923198"/>
      </g>
     </g>
    </g>
    <g id="text_4">
     <!-- $h\:/\:\sigma$ -->
     <g transform="translate(334.852762 356.965398)scale(0.17 -0.17)">
      <defs>
       <path d="M 28.09375 66.484375 
C 28.203125 66.890625 28.40625 67.484375 28.40625 67.984375 
C 28.40625 69 27.40625 69 27.203125 69 
C 27.09375 69 22.203125 68.59375 21.703125 68.484375 
C 20 68.390625 18.5 68.1875 16.703125 68.09375 
C 14.203125 67.890625 13.5 67.796875 13.5 65.984375 
C 13.5 64.984375 14.296875 64.984375 15.703125 64.984375 
C 20.59375 64.984375 20.703125 64.109375 20.703125 63.125 
C 20.703125 62.53125 20.5 61.734375 20.40625 61.4375 
L 5.90625 3.890625 
C 5.5 2.390625 5.5 2.1875 5.5 1.59375 
C 5.5 -0.609375 7.203125 -1 8.203125 -1 
C 9.90625 -1 11.203125 0.296875 11.703125 1.390625 
L 16.203125 19.453125 
C 16.703125 21.640625 17.296875 23.734375 17.796875 25.9375 
C 18.90625 30.125 18.90625 30.21875 20.796875 33.109375 
C 22.703125 36.015625 27.203125 41.984375 34.90625 41.984375 
C 38.90625 41.984375 40.296875 39 40.296875 35.015625 
C 40.296875 29.421875 36.40625 18.546875 34.203125 12.5625 
C 33.296875 10.171875 32.796875 8.875 32.796875 7.078125 
C 32.796875 2.59375 35.90625 -1 40.703125 -1 
C 50 -1 53.5 13.65625 53.5 14.265625 
C 53.5 14.765625 53.09375 15.15625 52.5 15.15625 
C 51.59375 15.15625 51.5 14.859375 51 13.15625 
C 48.703125 5.1875 45 1 41 1 
C 40 1 38.40625 1.09375 38.40625 4.28125 
C 38.40625 6.875 39.59375 10.078125 40 11.171875 
C 41.796875 15.953125 46.296875 27.734375 46.296875 33.515625 
C 46.296875 39.5 42.796875 44 35.203125 44 
C 29.5 44 24.5 41.296875 20.40625 36.109375 
z
" id="CMMI12-104"/>
       <path d="M 42.90625 71.296875 
C 42.90625 71.390625 43.5 72.890625 43.5 73.09375 
C 43.5 74.296875 42.5 75 41.703125 75 
C 41.203125 75 40.296875 75 39.5 72.796875 
L 6 -21.3125 
C 6 -21.40625 5.40625 -22.90625 5.40625 -23.109375 
C 5.40625 -24.3125 6.40625 -25 7.203125 -25 
C 7.796875 -25 8.703125 -24.90625 9.40625 -22.8125 
z
" id="CMMI12-61"/>
       <path d="M 50.796875 37.59375 
C 52.09375 37.59375 55.40625 37.59375 55.40625 40.796875 
C 55.40625 43 53.5 43 51.703125 43 
L 29.59375 43 
C 14.59375 43 3.796875 26.328125 3.796875 14.5625 
C 3.796875 6.078125 9.296875 -1 18.296875 -1 
C 30.09375 -1 43 11.65625 43 26.625 
C 43 30.515625 42.09375 34.296875 39.703125 37.59375 
z
M 18.40625 1 
C 13.296875 1 9.59375 4.875 9.59375 11.765625 
C 9.59375 17.75 13.203125 37.59375 27.90625 37.59375 
C 32.203125 37.59375 37 35.5 37 27.8125 
C 37 24.328125 35.40625 15.953125 31.90625 10.171875 
C 28.296875 4.28125 22.90625 1 18.40625 1 
z
" id="CMMI12-27"/>
      </defs>
      <use transform="scale(0.996264)" xlink:href="#CMMI12-104"/>
      <use transform="translate(78.293831 0)scale(0.996264)" xlink:href="#CMMI12-61"/>
      <use transform="translate(149.207957 0)scale(0.996264)" xlink:href="#CMMI12-27"/>
     </g>
    </g>
   </g>
   <g id="matplotlib.axis_2">
    <g id="ytick_1">
     <g id="line2d_9">
      <path clip-path="url(#p53d8640509)" d="M 55.297062 308.014272 
L 649.19952 308.014272 
" style="fill:none;stroke:#b0b0b0;stroke-dasharray:0.8,1.32;stroke-dashoffset:0;stroke-width:0.8;"/>
     </g>
     <g id="line2d_10">
      <defs>
       <path d="M 0 0 
L -3.5 0 
" id="m24cf68d5e7" style="stroke:#000000;stroke-width:0.8;"/>
      </defs>
      <g>
       <use style="stroke:#000000;stroke-width:0.8;" x="55.297062" xlink:href="#m24cf68d5e7" y="308.014272"/>
      </g>
     </g>
     <g id="text_5">
      <!-- $\mathdefault{10^{-6}}$ -->
      <g transform="translate(28.136488 311.058414)scale(0.1 -0.1)">
       <defs>
        <path d="M 10.59375 34.34375 
C 10.59375 58 21.796875 63.6875 28.296875 63.6875 
C 30.40625 63.6875 35.5 63.265625 37.5 59.09375 
C 35.90625 59.09375 32.90625 59.09375 32.90625 55.59375 
C 32.90625 52.890625 35.09375 52 36.5 52 
C 37.40625 52 40.09375 52.390625 40.09375 55.796875 
C 40.09375 62.296875 35.09375 66 28.203125 66 
C 16.296875 66 3.796875 53.296875 3.796875 31.421875 
C 3.796875 4.015625 15.09375 -2 23.09375 -2 
C 32.796875 -2 42 6.734375 42 20.234375 
C 42 32.828125 33.90625 42 23.703125 42 
C 17.59375 42 13.09375 37.96875 10.59375 30.921875 
z
M 23.09375 0.390625 
C 10.796875 0.390625 10.796875 18.9375 10.796875 22.65625 
C 10.796875 29.90625 14.203125 40.390625 23.5 40.390625 
C 25.203125 40.390625 30.09375 40.390625 33.40625 33.4375 
C 35.203125 29.515625 35.203125 25.375 35.203125 20.34375 
C 35.203125 14.90625 35.203125 10.875 33.09375 6.84375 
C 30.90625 2.703125 27.703125 0.390625 23.09375 0.390625 
z
" id="CMR17-54"/>
       </defs>
       <use transform="scale(0.996264)" xlink:href="#CMR17-49"/>
       <use transform="translate(45.690477 0)scale(0.996264)" xlink:href="#CMR17-48"/>
       <use transform="translate(91.380954 36.153639)scale(0.697382)" xlink:href="#CMSY10-0"/>
       <use transform="translate(145.621947 36.153639)scale(0.697382)" xlink:href="#CMR17-54"/>
      </g>
     </g>
    </g>
    <g id="ytick_2">
     <g id="line2d_11">
      <path clip-path="url(#p53d8640509)" d="M 55.297062 257.777111 
L 649.19952 257.777111 
" style="fill:none;stroke:#b0b0b0;stroke-dasharray:0.8,1.32;stroke-dashoffset:0;stroke-width:0.8;"/>
     </g>
     <g id="line2d_12">
      <g>
       <use style="stroke:#000000;stroke-width:0.8;" x="55.297062" xlink:href="#m24cf68d5e7" y="257.777111"/>
      </g>
     </g>
     <g id="text_6">
      <!-- $\mathdefault{10^{-5}}$ -->
      <g transform="translate(28.136488 260.821253)scale(0.1 -0.1)">
       <defs>
        <path d="M 11.40625 58.59375 
C 12.40625 58.1875 16.5 56.890625 20.703125 56.890625 
C 30 56.890625 35.09375 61.890625 38 64.6875 
C 38 65.484375 38 66 37.40625 66 
C 37.296875 66 37.09375 66 36.296875 65.59375 
C 32.796875 64.09375 28.703125 63 23.703125 63 
C 20.703125 63 16.203125 63.359375 11.296875 65.484375 
C 10.203125 66 10 66 9.90625 66 
C 9.40625 66 9.296875 65.890625 9.296875 63.90625 
L 9.296875 34.859375 
C 9.296875 33.015625 9.296875 32.5 10.296875 32.5 
C 10.796875 32.5 11 32.703125 11.5 33.421875 
C 14.703125 38.046875 19.09375 40 24.09375 40 
C 27.59375 40 35.09375 37.734375 35.09375 20.203125 
C 35.09375 16.984375 35.09375 11.1875 32.09375 6.59375 
C 29.59375 2.484375 25.703125 0.390625 21.40625 0.390625 
C 14.796875 0.390625 8.09375 4.984375 6.296875 12.6875 
C 6.703125 12.59375 7.5 12.390625 7.90625 12.390625 
C 9.203125 12.390625 11.703125 13.09375 11.703125 16.1875 
C 11.703125 18.890625 9.796875 20 7.90625 20 
C 5.59375 20 4.09375 18.59375 4.09375 15.796875 
C 4.09375 7.09375 11 -2 21.59375 -2 
C 31.90625 -2 41.703125 6.890625 41.703125 19.796875 
C 41.703125 32.09375 33.90625 41.59375 24.203125 41.59375 
C 19.09375 41.59375 14.796875 39.6875 11.40625 36 
z
" id="CMR17-53"/>
       </defs>
       <use transform="scale(0.996264)" xlink:href="#CMR17-49"/>
       <use transform="translate(45.690477 0)scale(0.996264)" xlink:href="#CMR17-48"/>
       <use transform="translate(91.380954 36.153639)scale(0.697382)" xlink:href="#CMSY10-0"/>
       <use transform="translate(145.621947 36.153639)scale(0.697382)" xlink:href="#CMR17-53"/>
      </g>
     </g>
    </g>
    <g id="ytick_3">
     <g id="line2d_13">
      <path clip-path="url(#p53d8640509)" d="M 55.297062 207.53995 
L 649.19952 207.53995 
" style="fill:none;stroke:#b0b0b0;stroke-dasharray:0.8,1.32;stroke-dashoffset:0;stroke-width:0.8;"/>
     </g>
     <g id="line2d_14">
      <g>
       <use style="stroke:#000000;stroke-width:0.8;" x="55.297062" xlink:href="#m24cf68d5e7" y="207.53995"/>
      </g>
     </g>
     <g id="text_7">
      <!-- $\mathdefault{10^{-4}}$ -->
      <g transform="translate(28.136488 210.584092)scale(0.1 -0.1)">
       <use transform="scale(0.996264)" xlink:href="#CMR17-49"/>
       <use transform="translate(45.690477 0)scale(0.996264)" xlink:href="#CMR17-48"/>
       <use transform="translate(91.380954 36.153639)scale(0.697382)" xlink:href="#CMSY10-0"/>
       <use transform="translate(145.621947 36.153639)scale(0.697382)" xlink:href="#CMR17-52"/>
      </g>
     </g>
    </g>
    <g id="ytick_4">
     <g id="line2d_15">
      <path clip-path="url(#p53d8640509)" d="M 55.297062 157.302789 
L 649.19952 157.302789 
" style="fill:none;stroke:#b0b0b0;stroke-dasharray:0.8,1.32;stroke-dashoffset:0;stroke-width:0.8;"/>
     </g>
     <g id="line2d_16">
      <g>
       <use style="stroke:#000000;stroke-width:0.8;" x="55.297062" xlink:href="#m24cf68d5e7" y="157.302789"/>
      </g>
     </g>
     <g id="text_8">
      <!-- $\mathdefault{10^{-3}}$ -->
      <g transform="translate(28.136488 160.346931)scale(0.1 -0.1)">
       <use transform="scale(0.996264)" xlink:href="#CMR17-49"/>
       <use transform="translate(45.690477 0)scale(0.996264)" xlink:href="#CMR17-48"/>
       <use transform="translate(91.380954 36.153639)scale(0.697382)" xlink:href="#CMSY10-0"/>
       <use transform="translate(145.621947 36.153639)scale(0.697382)" xlink:href="#CMR17-51"/>
      </g>
     </g>
    </g>
    <g id="ytick_5">
     <g id="line2d_17">
      <path clip-path="url(#p53d8640509)" d="M 55.297062 107.065628 
L 649.19952 107.065628 
" style="fill:none;stroke:#b0b0b0;stroke-dasharray:0.8,1.32;stroke-dashoffset:0;stroke-width:0.8;"/>
     </g>
     <g id="line2d_18">
      <g>
       <use style="stroke:#000000;stroke-width:0.8;" x="55.297062" xlink:href="#m24cf68d5e7" y="107.065628"/>
      </g>
     </g>
     <g id="text_9">
      <!-- $\mathdefault{10^{-2}}$ -->
      <g transform="translate(28.136488 110.109769)scale(0.1 -0.1)">
       <use transform="scale(0.996264)" xlink:href="#CMR17-49"/>
       <use transform="translate(45.690477 0)scale(0.996264)" xlink:href="#CMR17-48"/>
       <use transform="translate(91.380954 36.153639)scale(0.697382)" xlink:href="#CMSY10-0"/>
       <use transform="translate(145.621947 36.153639)scale(0.697382)" xlink:href="#CMR17-50"/>
      </g>
     </g>
    </g>
    <g id="ytick_6">
     <g id="line2d_19">
      <path clip-path="url(#p53d8640509)" d="M 55.297062 56.828467 
L 649.19952 56.828467 
" style="fill:none;stroke:#b0b0b0;stroke-dasharray:0.8,1.32;stroke-dashoffset:0;stroke-width:0.8;"/>
     </g>
     <g id="line2d_20">
      <g>
       <use style="stroke:#000000;stroke-width:0.8;" x="55.297062" xlink:href="#m24cf68d5e7" y="56.828467"/>
      </g>
     </g>
     <g id="text_10">
      <!-- $\mathdefault{10^{-1}}$ -->
      <g transform="translate(28.136488 59.872608)scale(0.1 -0.1)">
       <use transform="scale(0.996264)" xlink:href="#CMR17-49"/>
       <use transform="translate(45.690477 0)scale(0.996264)" xlink:href="#CMR17-48"/>
       <use transform="translate(91.380954 36.153639)scale(0.697382)" xlink:href="#CMSY10-0"/>
       <use transform="translate(145.621947 36.153639)scale(0.697382)" xlink:href="#CMR17-49"/>
      </g>
     </g>
    </g>
    <g id="ytick_7">
     <g id="line2d_21">
      <path clip-path="url(#p53d8640509)" d="M 55.297062 323.137165 
L 649.19952 323.137165 
" style="fill:none;stroke:#b0b0b0;stroke-dasharray:0.8,1.32;stroke-dashoffset:0;stroke-width:0.8;"/>
     </g>
     <g id="line2d_22">
      <defs>
       <path d="M 0 0 
L -2 0 
" id="meea19bc0af" style="stroke:#000000;stroke-width:0.6;"/>
      </defs>
      <g>
       <use style="stroke:#000000;stroke-width:0.6;" x="55.297062" xlink:href="#meea19bc0af" y="323.137165"/>
      </g>
     </g>
    </g>
    <g id="ytick_8">
     <g id="line2d_23">
      <path clip-path="url(#p53d8640509)" d="M 55.297062 319.159324 
L 649.19952 319.159324 
" style="fill:none;stroke:#b0b0b0;stroke-dasharray:0.8,1.32;stroke-dashoffset:0;stroke-width:0.8;"/>
     </g>
     <g id="line2d_24">
      <g>
       <use style="stroke:#000000;stroke-width:0.6;" x="55.297062" xlink:href="#meea19bc0af" y="319.159324"/>
      </g>
     </g>
    </g>
    <g id="ytick_9">
     <g id="line2d_25">
      <path clip-path="url(#p53d8640509)" d="M 55.297062 315.796107 
L 649.19952 315.796107 
" style="fill:none;stroke:#b0b0b0;stroke-dasharray:0.8,1.32;stroke-dashoffset:0;stroke-width:0.8;"/>
     </g>
     <g id="line2d_26">
      <g>
       <use style="stroke:#000000;stroke-width:0.6;" x="55.297062" xlink:href="#meea19bc0af" y="315.796107"/>
      </g>
     </g>
    </g>
    <g id="ytick_10">
     <g id="line2d_27">
      <path clip-path="url(#p53d8640509)" d="M 55.297062 312.882756 
L 649.19952 312.882756 
" style="fill:none;stroke:#b0b0b0;stroke-dasharray:0.8,1.32;stroke-dashoffset:0;stroke-width:0.8;"/>
     </g>
     <g id="line2d_28">
      <g>
       <use style="stroke:#000000;stroke-width:0.6;" x="55.297062" xlink:href="#meea19bc0af" y="312.882756"/>
      </g>
     </g>
    </g>
    <g id="ytick_11">
     <g id="line2d_29">
      <path clip-path="url(#p53d8640509)" d="M 55.297062 310.312999 
L 649.19952 310.312999 
" style="fill:none;stroke:#b0b0b0;stroke-dasharray:0.8,1.32;stroke-dashoffset:0;stroke-width:0.8;"/>
     </g>
     <g id="line2d_30">
      <g>
       <use style="stroke:#000000;stroke-width:0.6;" x="55.297062" xlink:href="#meea19bc0af" y="310.312999"/>
      </g>
     </g>
    </g>
    <g id="ytick_12">
     <g id="line2d_31">
      <path clip-path="url(#p53d8640509)" d="M 55.297062 292.89138 
L 649.19952 292.89138 
" style="fill:none;stroke:#b0b0b0;stroke-dasharray:0.8,1.32;stroke-dashoffset:0;stroke-width:0.8;"/>
     </g>
     <g id="line2d_32">
      <g>
       <use style="stroke:#000000;stroke-width:0.6;" x="55.297062" xlink:href="#meea19bc0af" y="292.89138"/>
      </g>
     </g>
    </g>
    <g id="ytick_13">
     <g id="line2d_33">
      <path clip-path="url(#p53d8640509)" d="M 55.297062 284.045055 
L 649.19952 284.045055 
" style="fill:none;stroke:#b0b0b0;stroke-dasharray:0.8,1.32;stroke-dashoffset:0;stroke-width:0.8;"/>
     </g>
     <g id="line2d_34">
      <g>
       <use style="stroke:#000000;stroke-width:0.6;" x="55.297062" xlink:href="#meea19bc0af" y="284.045055"/>
      </g>
     </g>
    </g>
    <g id="ytick_14">
     <g id="line2d_35">
      <path clip-path="url(#p53d8640509)" d="M 55.297062 277.768487 
L 649.19952 277.768487 
" style="fill:none;stroke:#b0b0b0;stroke-dasharray:0.8,1.32;stroke-dashoffset:0;stroke-width:0.8;"/>
     </g>
     <g id="line2d_36">
      <g>
       <use style="stroke:#000000;stroke-width:0.6;" x="55.297062" xlink:href="#meea19bc0af" y="277.768487"/>
      </g>
     </g>
    </g>
    <g id="ytick_15">
     <g id="line2d_37">
      <path clip-path="url(#p53d8640509)" d="M 55.297062 272.900003 
L 649.19952 272.900003 
" style="fill:none;stroke:#b0b0b0;stroke-dasharray:0.8,1.32;stroke-dashoffset:0;stroke-width:0.8;"/>
     </g>
     <g id="line2d_38">
      <g>
       <use style="stroke:#000000;stroke-width:0.6;" x="55.297062" xlink:href="#meea19bc0af" y="272.900003"/>
      </g>
     </g>
    </g>
    <g id="ytick_16">
     <g id="line2d_39">
      <path clip-path="url(#p53d8640509)" d="M 55.297062 268.922162 
L 649.19952 268.922162 
" style="fill:none;stroke:#b0b0b0;stroke-dasharray:0.8,1.32;stroke-dashoffset:0;stroke-width:0.8;"/>
     </g>
     <g id="line2d_40">
      <g>
       <use style="stroke:#000000;stroke-width:0.6;" x="55.297062" xlink:href="#meea19bc0af" y="268.922162"/>
      </g>
     </g>
    </g>
    <g id="ytick_17">
     <g id="line2d_41">
      <path clip-path="url(#p53d8640509)" d="M 55.297062 265.558946 
L 649.19952 265.558946 
" style="fill:none;stroke:#b0b0b0;stroke-dasharray:0.8,1.32;stroke-dashoffset:0;stroke-width:0.8;"/>
     </g>
     <g id="line2d_42">
      <g>
       <use style="stroke:#000000;stroke-width:0.6;" x="55.297062" xlink:href="#meea19bc0af" y="265.558946"/>
      </g>
     </g>
    </g>
    <g id="ytick_18">
     <g id="line2d_43">
      <path clip-path="url(#p53d8640509)" d="M 55.297062 262.645595 
L 649.19952 262.645595 
" style="fill:none;stroke:#b0b0b0;stroke-dasharray:0.8,1.32;stroke-dashoffset:0;stroke-width:0.8;"/>
     </g>
     <g id="line2d_44">
      <g>
       <use style="stroke:#000000;stroke-width:0.6;" x="55.297062" xlink:href="#meea19bc0af" y="262.645595"/>
      </g>
     </g>
    </g>
    <g id="ytick_19">
     <g id="line2d_45">
      <path clip-path="url(#p53d8640509)" d="M 55.297062 260.075837 
L 649.19952 260.075837 
" style="fill:none;stroke:#b0b0b0;stroke-dasharray:0.8,1.32;stroke-dashoffset:0;stroke-width:0.8;"/>
     </g>
     <g id="line2d_46">
      <g>
       <use style="stroke:#000000;stroke-width:0.6;" x="55.297062" xlink:href="#meea19bc0af" y="260.075837"/>
      </g>
     </g>
    </g>
    <g id="ytick_20">
     <g id="line2d_47">
      <path clip-path="url(#p53d8640509)" d="M 55.297062 242.654219 
L 649.19952 242.654219 
" style="fill:none;stroke:#b0b0b0;stroke-dasharray:0.8,1.32;stroke-dashoffset:0;stroke-width:0.8;"/>
     </g>
     <g id="line2d_48">
      <g>
       <use style="stroke:#000000;stroke-width:0.6;" x="55.297062" xlink:href="#meea19bc0af" y="242.654219"/>
      </g>
     </g>
    </g>
    <g id="ytick_21">
     <g id="line2d_49">
      <path clip-path="url(#p53d8640509)" d="M 55.297062 233.807894 
L 649.19952 233.807894 
" style="fill:none;stroke:#b0b0b0;stroke-dasharray:0.8,1.32;stroke-dashoffset:0;stroke-width:0.8;"/>
     </g>
     <g id="line2d_50">
      <g>
       <use style="stroke:#000000;stroke-width:0.6;" x="55.297062" xlink:href="#meea19bc0af" y="233.807894"/>
      </g>
     </g>
    </g>
    <g id="ytick_22">
     <g id="line2d_51">
      <path clip-path="url(#p53d8640509)" d="M 55.297062 227.531326 
L 649.19952 227.531326 
" style="fill:none;stroke:#b0b0b0;stroke-dasharray:0.8,1.32;stroke-dashoffset:0;stroke-width:0.8;"/>
     </g>
     <g id="line2d_52">
      <g>
       <use style="stroke:#000000;stroke-width:0.6;" x="55.297062" xlink:href="#meea19bc0af" y="227.531326"/>
      </g>
     </g>
    </g>
    <g id="ytick_23">
     <g id="line2d_53">
      <path clip-path="url(#p53d8640509)" d="M 55.297062 222.662842 
L 649.19952 222.662842 
" style="fill:none;stroke:#b0b0b0;stroke-dasharray:0.8,1.32;stroke-dashoffset:0;stroke-width:0.8;"/>
     </g>
     <g id="line2d_54">
      <g>
       <use style="stroke:#000000;stroke-width:0.6;" x="55.297062" xlink:href="#meea19bc0af" y="222.662842"/>
      </g>
     </g>
    </g>
    <g id="ytick_24">
     <g id="line2d_55">
      <path clip-path="url(#p53d8640509)" d="M 55.297062 218.685001 
L 649.19952 218.685001 
" style="fill:none;stroke:#b0b0b0;stroke-dasharray:0.8,1.32;stroke-dashoffset:0;stroke-width:0.8;"/>
     </g>
     <g id="line2d_56">
      <g>
       <use style="stroke:#000000;stroke-width:0.6;" x="55.297062" xlink:href="#meea19bc0af" y="218.685001"/>
      </g>
     </g>
    </g>
    <g id="ytick_25">
     <g id="line2d_57">
      <path clip-path="url(#p53d8640509)" d="M 55.297062 215.321785 
L 649.19952 215.321785 
" style="fill:none;stroke:#b0b0b0;stroke-dasharray:0.8,1.32;stroke-dashoffset:0;stroke-width:0.8;"/>
     </g>
     <g id="line2d_58">
      <g>
       <use style="stroke:#000000;stroke-width:0.6;" x="55.297062" xlink:href="#meea19bc0af" y="215.321785"/>
      </g>
     </g>
    </g>
    <g id="ytick_26">
     <g id="line2d_59">
      <path clip-path="url(#p53d8640509)" d="M 55.297062 212.408434 
L 649.19952 212.408434 
" style="fill:none;stroke:#b0b0b0;stroke-dasharray:0.8,1.32;stroke-dashoffset:0;stroke-width:0.8;"/>
     </g>
     <g id="line2d_60">
      <g>
       <use style="stroke:#000000;stroke-width:0.6;" x="55.297062" xlink:href="#meea19bc0af" y="212.408434"/>
      </g>
     </g>
    </g>
    <g id="ytick_27">
     <g id="line2d_61">
      <path clip-path="url(#p53d8640509)" d="M 55.297062 209.838676 
L 649.19952 209.838676 
" style="fill:none;stroke:#b0b0b0;stroke-dasharray:0.8,1.32;stroke-dashoffset:0;stroke-width:0.8;"/>
     </g>
     <g id="line2d_62">
      <g>
       <use style="stroke:#000000;stroke-width:0.6;" x="55.297062" xlink:href="#meea19bc0af" y="209.838676"/>
      </g>
     </g>
    </g>
    <g id="ytick_28">
     <g id="line2d_63">
      <path clip-path="url(#p53d8640509)" d="M 55.297062 192.417058 
L 649.19952 192.417058 
" style="fill:none;stroke:#b0b0b0;stroke-dasharray:0.8,1.32;stroke-dashoffset:0;stroke-width:0.8;"/>
     </g>
     <g id="line2d_64">
      <g>
       <use style="stroke:#000000;stroke-width:0.6;" x="55.297062" xlink:href="#meea19bc0af" y="192.417058"/>
      </g>
     </g>
    </g>
    <g id="ytick_29">
     <g id="line2d_65">
      <path clip-path="url(#p53d8640509)" d="M 55.297062 183.570733 
L 649.19952 183.570733 
" style="fill:none;stroke:#b0b0b0;stroke-dasharray:0.8,1.32;stroke-dashoffset:0;stroke-width:0.8;"/>
     </g>
     <g id="line2d_66">
      <g>
       <use style="stroke:#000000;stroke-width:0.6;" x="55.297062" xlink:href="#meea19bc0af" y="183.570733"/>
      </g>
     </g>
    </g>
    <g id="ytick_30">
     <g id="line2d_67">
      <path clip-path="url(#p53d8640509)" d="M 55.297062 177.294165 
L 649.19952 177.294165 
" style="fill:none;stroke:#b0b0b0;stroke-dasharray:0.8,1.32;stroke-dashoffset:0;stroke-width:0.8;"/>
     </g>
     <g id="line2d_68">
      <g>
       <use style="stroke:#000000;stroke-width:0.6;" x="55.297062" xlink:href="#meea19bc0af" y="177.294165"/>
      </g>
     </g>
    </g>
    <g id="ytick_31">
     <g id="line2d_69">
      <path clip-path="url(#p53d8640509)" d="M 55.297062 172.425681 
L 649.19952 172.425681 
" style="fill:none;stroke:#b0b0b0;stroke-dasharray:0.8,1.32;stroke-dashoffset:0;stroke-width:0.8;"/>
     </g>
     <g id="line2d_70">
      <g>
       <use style="stroke:#000000;stroke-width:0.6;" x="55.297062" xlink:href="#meea19bc0af" y="172.425681"/>
      </g>
     </g>
    </g>
    <g id="ytick_32">
     <g id="line2d_71">
      <path clip-path="url(#p53d8640509)" d="M 55.297062 168.44784 
L 649.19952 168.44784 
" style="fill:none;stroke:#b0b0b0;stroke-dasharray:0.8,1.32;stroke-dashoffset:0;stroke-width:0.8;"/>
     </g>
     <g id="line2d_72">
      <g>
       <use style="stroke:#000000;stroke-width:0.6;" x="55.297062" xlink:href="#meea19bc0af" y="168.44784"/>
      </g>
     </g>
    </g>
    <g id="ytick_33">
     <g id="line2d_73">
      <path clip-path="url(#p53d8640509)" d="M 55.297062 165.084624 
L 649.19952 165.084624 
" style="fill:none;stroke:#b0b0b0;stroke-dasharray:0.8,1.32;stroke-dashoffset:0;stroke-width:0.8;"/>
     </g>
     <g id="line2d_74">
      <g>
       <use style="stroke:#000000;stroke-width:0.6;" x="55.297062" xlink:href="#meea19bc0af" y="165.084624"/>
      </g>
     </g>
    </g>
    <g id="ytick_34">
     <g id="line2d_75">
      <path clip-path="url(#p53d8640509)" d="M 55.297062 162.171273 
L 649.19952 162.171273 
" style="fill:none;stroke:#b0b0b0;stroke-dasharray:0.8,1.32;stroke-dashoffset:0;stroke-width:0.8;"/>
     </g>
     <g id="line2d_76">
      <g>
       <use style="stroke:#000000;stroke-width:0.6;" x="55.297062" xlink:href="#meea19bc0af" y="162.171273"/>
      </g>
     </g>
    </g>
    <g id="ytick_35">
     <g id="line2d_77">
      <path clip-path="url(#p53d8640509)" d="M 55.297062 159.601515 
L 649.19952 159.601515 
" style="fill:none;stroke:#b0b0b0;stroke-dasharray:0.8,1.32;stroke-dashoffset:0;stroke-width:0.8;"/>
     </g>
     <g id="line2d_78">
      <g>
       <use style="stroke:#000000;stroke-width:0.6;" x="55.297062" xlink:href="#meea19bc0af" y="159.601515"/>
      </g>
     </g>
    </g>
    <g id="ytick_36">
     <g id="line2d_79">
      <path clip-path="url(#p53d8640509)" d="M 55.297062 142.179896 
L 649.19952 142.179896 
" style="fill:none;stroke:#b0b0b0;stroke-dasharray:0.8,1.32;stroke-dashoffset:0;stroke-width:0.8;"/>
     </g>
     <g id="line2d_80">
      <g>
       <use style="stroke:#000000;stroke-width:0.6;" x="55.297062" xlink:href="#meea19bc0af" y="142.179896"/>
      </g>
     </g>
    </g>
    <g id="ytick_37">
     <g id="line2d_81">
      <path clip-path="url(#p53d8640509)" d="M 55.297062 133.333571 
L 649.19952 133.333571 
" style="fill:none;stroke:#b0b0b0;stroke-dasharray:0.8,1.32;stroke-dashoffset:0;stroke-width:0.8;"/>
     </g>
     <g id="line2d_82">
      <g>
       <use style="stroke:#000000;stroke-width:0.6;" x="55.297062" xlink:href="#meea19bc0af" y="133.333571"/>
      </g>
     </g>
    </g>
    <g id="ytick_38">
     <g id="line2d_83">
      <path clip-path="url(#p53d8640509)" d="M 55.297062 127.057004 
L 649.19952 127.057004 
" style="fill:none;stroke:#b0b0b0;stroke-dasharray:0.8,1.32;stroke-dashoffset:0;stroke-width:0.8;"/>
     </g>
     <g id="line2d_84">
      <g>
       <use style="stroke:#000000;stroke-width:0.6;" x="55.297062" xlink:href="#meea19bc0af" y="127.057004"/>
      </g>
     </g>
    </g>
    <g id="ytick_39">
     <g id="line2d_85">
      <path clip-path="url(#p53d8640509)" d="M 55.297062 122.18852 
L 649.19952 122.18852 
" style="fill:none;stroke:#b0b0b0;stroke-dasharray:0.8,1.32;stroke-dashoffset:0;stroke-width:0.8;"/>
     </g>
     <g id="line2d_86">
      <g>
       <use style="stroke:#000000;stroke-width:0.6;" x="55.297062" xlink:href="#meea19bc0af" y="122.18852"/>
      </g>
     </g>
    </g>
    <g id="ytick_40">
     <g id="line2d_87">
      <path clip-path="url(#p53d8640509)" d="M 55.297062 118.210679 
L 649.19952 118.210679 
" style="fill:none;stroke:#b0b0b0;stroke-dasharray:0.8,1.32;stroke-dashoffset:0;stroke-width:0.8;"/>
     </g>
     <g id="line2d_88">
      <g>
       <use style="stroke:#000000;stroke-width:0.6;" x="55.297062" xlink:href="#meea19bc0af" y="118.210679"/>
      </g>
     </g>
    </g>
    <g id="ytick_41">
     <g id="line2d_89">
      <path clip-path="url(#p53d8640509)" d="M 55.297062 114.847462 
L 649.19952 114.847462 
" style="fill:none;stroke:#b0b0b0;stroke-dasharray:0.8,1.32;stroke-dashoffset:0;stroke-width:0.8;"/>
     </g>
     <g id="line2d_90">
      <g>
       <use style="stroke:#000000;stroke-width:0.6;" x="55.297062" xlink:href="#meea19bc0af" y="114.847462"/>
      </g>
     </g>
    </g>
    <g id="ytick_42">
     <g id="line2d_91">
      <path clip-path="url(#p53d8640509)" d="M 55.297062 111.934112 
L 649.19952 111.934112 
" style="fill:none;stroke:#b0b0b0;stroke-dasharray:0.8,1.32;stroke-dashoffset:0;stroke-width:0.8;"/>
     </g>
     <g id="line2d_92">
      <g>
       <use style="stroke:#000000;stroke-width:0.6;" x="55.297062" xlink:href="#meea19bc0af" y="111.934112"/>
      </g>
     </g>
    </g>
    <g id="ytick_43">
     <g id="line2d_93">
      <path clip-path="url(#p53d8640509)" d="M 55.297062 109.364354 
L 649.19952 109.364354 
" style="fill:none;stroke:#b0b0b0;stroke-dasharray:0.8,1.32;stroke-dashoffset:0;stroke-width:0.8;"/>
     </g>
     <g id="line2d_94">
      <g>
       <use style="stroke:#000000;stroke-width:0.6;" x="55.297062" xlink:href="#meea19bc0af" y="109.364354"/>
      </g>
     </g>
    </g>
    <g id="ytick_44">
     <g id="line2d_95">
      <path clip-path="url(#p53d8640509)" d="M 55.297062 91.942735 
L 649.19952 91.942735 
" style="fill:none;stroke:#b0b0b0;stroke-dasharray:0.8,1.32;stroke-dashoffset:0;stroke-width:0.8;"/>
     </g>
     <g id="line2d_96">
      <g>
       <use style="stroke:#000000;stroke-width:0.6;" x="55.297062" xlink:href="#meea19bc0af" y="91.942735"/>
      </g>
     </g>
    </g>
    <g id="ytick_45">
     <g id="line2d_97">
      <path clip-path="url(#p53d8640509)" d="M 55.297062 83.09641 
L 649.19952 83.09641 
" style="fill:none;stroke:#b0b0b0;stroke-dasharray:0.8,1.32;stroke-dashoffset:0;stroke-width:0.8;"/>
     </g>
     <g id="line2d_98">
      <g>
       <use style="stroke:#000000;stroke-width:0.6;" x="55.297062" xlink:href="#meea19bc0af" y="83.09641"/>
      </g>
     </g>
    </g>
    <g id="ytick_46">
     <g id="line2d_99">
      <path clip-path="url(#p53d8640509)" d="M 55.297062 76.819843 
L 649.19952 76.819843 
" style="fill:none;stroke:#b0b0b0;stroke-dasharray:0.8,1.32;stroke-dashoffset:0;stroke-width:0.8;"/>
     </g>
     <g id="line2d_100">
      <g>
       <use style="stroke:#000000;stroke-width:0.6;" x="55.297062" xlink:href="#meea19bc0af" y="76.819843"/>
      </g>
     </g>
    </g>
    <g id="ytick_47">
     <g id="line2d_101">
      <path clip-path="url(#p53d8640509)" d="M 55.297062 71.951359 
L 649.19952 71.951359 
" style="fill:none;stroke:#b0b0b0;stroke-dasharray:0.8,1.32;stroke-dashoffset:0;stroke-width:0.8;"/>
     </g>
     <g id="line2d_102">
      <g>
       <use style="stroke:#000000;stroke-width:0.6;" x="55.297062" xlink:href="#meea19bc0af" y="71.951359"/>
      </g>
     </g>
    </g>
    <g id="ytick_48">
     <g id="line2d_103">
      <path clip-path="url(#p53d8640509)" d="M 55.297062 67.973518 
L 649.19952 67.973518 
" style="fill:none;stroke:#b0b0b0;stroke-dasharray:0.8,1.32;stroke-dashoffset:0;stroke-width:0.8;"/>
     </g>
     <g id="line2d_104">
      <g>
       <use style="stroke:#000000;stroke-width:0.6;" x="55.297062" xlink:href="#meea19bc0af" y="67.973518"/>
      </g>
     </g>
    </g>
    <g id="ytick_49">
     <g id="line2d_105">
      <path clip-path="url(#p53d8640509)" d="M 55.297062 64.610301 
L 649.19952 64.610301 
" style="fill:none;stroke:#b0b0b0;stroke-dasharray:0.8,1.32;stroke-dashoffset:0;stroke-width:0.8;"/>
     </g>
     <g id="line2d_106">
      <g>
       <use style="stroke:#000000;stroke-width:0.6;" x="55.297062" xlink:href="#meea19bc0af" y="64.610301"/>
      </g>
     </g>
    </g>
    <g id="ytick_50">
     <g id="line2d_107">
      <path clip-path="url(#p53d8640509)" d="M 55.297062 61.696951 
L 649.19952 61.696951 
" style="fill:none;stroke:#b0b0b0;stroke-dasharray:0.8,1.32;stroke-dashoffset:0;stroke-width:0.8;"/>
     </g>
     <g id="line2d_108">
      <g>
       <use style="stroke:#000000;stroke-width:0.6;" x="55.297062" xlink:href="#meea19bc0af" y="61.696951"/>
      </g>
     </g>
    </g>
    <g id="ytick_51">
     <g id="line2d_109">
      <path clip-path="url(#p53d8640509)" d="M 55.297062 59.127193 
L 649.19952 59.127193 
" style="fill:none;stroke:#b0b0b0;stroke-dasharray:0.8,1.32;stroke-dashoffset:0;stroke-width:0.8;"/>
     </g>
     <g id="line2d_110">
      <g>
       <use style="stroke:#000000;stroke-width:0.6;" x="55.297062" xlink:href="#meea19bc0af" y="59.127193"/>
      </g>
     </g>
    </g>
    <g id="ytick_52">
     <g id="line2d_111">
      <path clip-path="url(#p53d8640509)" d="M 55.297062 41.705574 
L 649.19952 41.705574 
" style="fill:none;stroke:#b0b0b0;stroke-dasharray:0.8,1.32;stroke-dashoffset:0;stroke-width:0.8;"/>
     </g>
     <g id="line2d_112">
      <g>
       <use style="stroke:#000000;stroke-width:0.6;" x="55.297062" xlink:href="#meea19bc0af" y="41.705574"/>
      </g>
     </g>
    </g>
    <g id="ytick_53">
     <g id="line2d_113">
      <path clip-path="url(#p53d8640509)" d="M 55.297062 32.859249 
L 649.19952 32.859249 
" style="fill:none;stroke:#b0b0b0;stroke-dasharray:0.8,1.32;stroke-dashoffset:0;stroke-width:0.8;"/>
     </g>
     <g id="line2d_114">
      <g>
       <use style="stroke:#000000;stroke-width:0.6;" x="55.297062" xlink:href="#meea19bc0af" y="32.859249"/>
      </g>
     </g>
    </g>
    <g id="ytick_54">
     <g id="line2d_115">
      <path clip-path="url(#p53d8640509)" d="M 55.297062 26.582682 
L 649.19952 26.582682 
" style="fill:none;stroke:#b0b0b0;stroke-dasharray:0.8,1.32;stroke-dashoffset:0;stroke-width:0.8;"/>
     </g>
     <g id="line2d_116">
      <g>
       <use style="stroke:#000000;stroke-width:0.6;" x="55.297062" xlink:href="#meea19bc0af" y="26.582682"/>
      </g>
     </g>
    </g>
    <g id="ytick_55">
     <g id="line2d_117">
      <path clip-path="url(#p53d8640509)" d="M 55.297062 21.714198 
L 649.19952 21.714198 
" style="fill:none;stroke:#b0b0b0;stroke-dasharray:0.8,1.32;stroke-dashoffset:0;stroke-width:0.8;"/>
     </g>
     <g id="line2d_118">
      <g>
       <use style="stroke:#000000;stroke-width:0.6;" x="55.297062" xlink:href="#meea19bc0af" y="21.714198"/>
      </g>
     </g>
    </g>
    <g id="ytick_56">
     <g id="line2d_119">
      <path clip-path="url(#p53d8640509)" d="M 55.297062 17.736357 
L 649.19952 17.736357 
" style="fill:none;stroke:#b0b0b0;stroke-dasharray:0.8,1.32;stroke-dashoffset:0;stroke-width:0.8;"/>
     </g>
     <g id="line2d_120">
      <g>
       <use style="stroke:#000000;stroke-width:0.6;" x="55.297062" xlink:href="#meea19bc0af" y="17.736357"/>
      </g>
     </g>
    </g>
    <g id="ytick_57">
     <g id="line2d_121">
      <path clip-path="url(#p53d8640509)" d="M 55.297062 14.37314 
L 649.19952 14.37314 
" style="fill:none;stroke:#b0b0b0;stroke-dasharray:0.8,1.32;stroke-dashoffset:0;stroke-width:0.8;"/>
     </g>
     <g id="line2d_122">
      <g>
       <use style="stroke:#000000;stroke-width:0.6;" x="55.297062" xlink:href="#meea19bc0af" y="14.37314"/>
      </g>
     </g>
    </g>
    <g id="ytick_58">
     <g id="line2d_123">
      <path clip-path="url(#p53d8640509)" d="M 55.297062 11.459789 
L 649.19952 11.459789 
" style="fill:none;stroke:#b0b0b0;stroke-dasharray:0.8,1.32;stroke-dashoffset:0;stroke-width:0.8;"/>
     </g>
     <g id="line2d_124">
      <g>
       <use style="stroke:#000000;stroke-width:0.6;" x="55.297062" xlink:href="#meea19bc0af" y="11.459789"/>
      </g>
     </g>
    </g>
    <g id="ytick_59">
     <g id="line2d_125">
      <path clip-path="url(#p53d8640509)" d="M 55.297062 8.890032 
L 649.19952 8.890032 
" style="fill:none;stroke:#b0b0b0;stroke-dasharray:0.8,1.32;stroke-dashoffset:0;stroke-width:0.8;"/>
     </g>
     <g id="line2d_126">
      <g>
       <use style="stroke:#000000;stroke-width:0.6;" x="55.297062" xlink:href="#meea19bc0af" y="8.890032"/>
      </g>
     </g>
    </g>
    <g id="text_11">
     <!-- Global error at $ct\:/\:L \:=\: 0.5$ -->
     <g transform="translate(19.902366 281.031894)rotate(-90)scale(0.17 -0.17)">
      <defs>
       <path d="M 44 21.1875 
C 46 21.1875 48.59375 21.1875 48.59375 24.09375 
C 48.59375 27 45.90625 27 44.5 27 
L 33.296875 27 
C 31.90625 27 29.203125 27 29.203125 24.09375 
C 29.203125 21.1875 31.90625 21.1875 33.296875 21.1875 
L 37.40625 21.1875 
C 36.90625 15.171875 34.203125 4.796875 26 4.796875 
C 17.90625 4.796875 10.203125 15.5625 10.203125 30.453125 
C 10.203125 45.703125 18.203125 56.1875 26.09375 56.1875 
C 30.90625 56.1875 36.203125 52.4375 37.5 42.53125 
C 37.796875 40.0625 39.703125 40.0625 40.703125 40.0625 
C 44 40.0625 44 41.84375 44 43.8125 
L 44 58.1875 
C 44 59.796875 44 62 41.203125 62 
C 39.5 62 38.90625 60.890625 38.59375 60.390625 
L 37.296875 57.1875 
C 34 60.1875 30 62 25.59375 62 
C 13.796875 62 3.703125 48.578125 3.703125 30.5625 
C 3.703125 12.203125 13.90625 -1 25.59375 -1 
C 29.90625 -1 34.09375 0.796875 37.5 4.5 
C 37.5 1.890625 37.5 0 40.796875 0 
C 44 0 44 2.09375 44 4 
z
" id="CMTT12-71"/>
       <path d="M 29 56.890625 
C 29 59.984375 28.40625 61 25 61 
L 10.296875 61 
C 8.90625 61 6.296875 61 6.296875 58.09375 
C 6.296875 55.1875 8.90625 55.1875 10.296875 55.1875 
L 22.5 55.1875 
L 22.5 5.796875 
L 10.296875 5.796875 
C 8.90625 5.796875 6.296875 5.796875 6.296875 2.890625 
C 6.296875 0 8.90625 0 10.296875 0 
L 41.203125 0 
C 42.59375 0 45.203125 0 45.203125 2.890625 
C 45.203125 5.796875 42.59375 5.796875 41.203125 5.796875 
L 29 5.796875 
z
" id="CMTT12-108"/>
       <path d="M 45.59375 21.390625 
C 45.59375 34.046875 36.5 44 25.703125 44 
C 14.90625 44 5.796875 34.046875 5.796875 21.390625 
C 5.796875 8.640625 15 -1 25.703125 -1 
C 36.40625 -1 45.59375 8.640625 45.59375 21.390625 
z
M 25.703125 4.796875 
C 18.5 4.796875 12.296875 12.484375 12.296875 22.09375 
C 12.296875 31.515625 18.703125 38.1875 25.703125 38.1875 
C 32.703125 38.1875 39.09375 31.515625 39.09375 22.09375 
C 39.09375 12.390625 32.90625 4.796875 25.703125 4.796875 
z
" id="CMTT12-111"/>
       <path d="M 16.09375 56.890625 
C 16.09375 59.984375 15.5 61 12.09375 61 
L 5.5 61 
C 4.09375 61 1.5 61 1.5 58.09375 
C 1.5 55.1875 4.09375 55.1875 5.5 55.1875 
L 9.59375 55.1875 
L 9.59375 3.6875 
C 9.59375 1.890625 9.59375 -0.40625 12.90625 -0.40625 
C 16.09375 -0.40625 16.09375 1.6875 16.09375 4.59375 
C 18.5 1.890625 22.203125 -1 27.796875 -1 
C 38.40625 -1 47.703125 8.578125 47.703125 21.546875 
C 47.703125 34.109375 39.296875 44 28.90625 44 
C 21.59375 44 17 39.59375 16.09375 38.59375 
z
M 16.09375 26.65625 
C 16.09375 32.46875 21.703125 38.1875 28.203125 38.1875 
C 35.40625 38.1875 41.203125 30.734375 41.203125 21.546875 
C 41.203125 11.734375 34.40625 4.796875 27.296875 4.796875 
C 19.796875 4.796875 16.09375 13.46875 16.09375 18.578125 
z
" id="CMTT12-98"/>
       <path d="M 41.40625 28.578125 
C 41.40625 36.03125 35.703125 44 22.203125 44 
C 18 44 8.296875 44 8.296875 37.109375 
C 8.296875 34.46875 10.203125 33 12.40625 33 
C 13 33 16.296875 33.1875 16.40625 37.3125 
C 16.40625 37.796875 16.5 37.890625 18.59375 38.09375 
C 19.796875 38.1875 21.09375 38.1875 22.296875 38.1875 
C 24.59375 38.1875 28 38.1875 31.296875 35.734375 
C 34.90625 33 34.90625 30.25 34.90625 27.390625 
C 29 27.1875 23.203125 26.796875 17 24.796875 
C 12 23.09375 5.59375 19.40625 5.59375 12.359375 
C 5.59375 5 11.90625 -1 21.203125 -1 
C 24.40625 -1 30.59375 -0.5 35.796875 3.09375 
C 37.796875 -0.203125 42.796875 -0.40625 46.59375 -0.40625 
C 49 -0.40625 51.40625 -0.40625 51.40625 2.5 
C 51.40625 5.421875 48.796875 5.421875 47.40625 5.421875 
C 44.796875 5.421875 42.796875 5.625 41.40625 6.25 
z
M 34.90625 13.078125 
C 34.90625 10.703125 34.90625 8.515625 30.796875 6.546875 
C 27.296875 4.796875 22.59375 4.796875 22.296875 4.796875 
C 16.40625 4.796875 12.09375 8.109375 12.09375 12.359375 
C 12.09375 18.46875 22.796875 22 34.90625 22 
z
" id="CMTT12-97"/>
       <path d="M 41.59375 19 
C 43.703125 19 45.59375 19 45.59375 22.6875 
C 45.59375 34.53125 39 44 26.5 44 
C 14.90625 44 5.59375 33.921875 5.59375 21.59375 
C 5.59375 8.84375 15.703125 -1 28 -1 
C 40.90625 -1 45.59375 7.9375 45.59375 10.578125 
C 45.59375 11.1875 45.40625 13.40625 42.296875 13.40625 
C 40.40625 13.40625 39.796875 12.703125 39.203125 11.1875 
C 36.703125 5.296875 30.203125 4.796875 28.296875 4.796875 
C 20 4.796875 13.40625 11.1875 12.296875 19 
z
M 12.40625 24.5 
C 13.703125 33.125 20.203125 38.1875 26.5 38.1875 
C 36.5 38.1875 38.59375 29.5625 39 24.5 
z
" id="CMTT12-101"/>
       <path d="M 21.59375 18.84375 
C 21.59375 30.71875 30 37.796875 38.5 37.796875 
C 39 37.796875 39.59375 37.796875 40.09375 37.6875 
C 40.40625 34.109375 43.203125 33.796875 43.90625 33.796875 
C 46.203125 33.796875 47.796875 35.5 47.796875 37.6875 
C 47.796875 41.984375 43.59375 43.59375 38.59375 43.59375 
C 31.90625 43.59375 26.203125 40.59375 21.59375 35 
L 21.59375 38.890625 
C 21.59375 41.984375 21 43 17.59375 43 
L 7.5 43 
C 6.09375 43 3.5 43 3.5 40.09375 
C 3.5 37.1875 6.09375 37.1875 7.5 37.1875 
L 15.09375 37.1875 
L 15.09375 5.796875 
L 7.5 5.796875 
C 6.09375 5.796875 3.5 5.796875 3.5 2.890625 
C 3.5 0 6.09375 0 7.5 0 
L 32.09375 0 
C 33.5 0 36.09375 0 36.09375 2.890625 
C 36.09375 5.796875 33.5 5.796875 32.09375 5.796875 
L 21.59375 5.796875 
z
" id="CMTT12-114"/>
       <path d="M 21.59375 37.1875 
L 37.796875 37.1875 
C 39.203125 37.1875 41.796875 37.1875 41.796875 40.09375 
C 41.796875 43 39.203125 43 37.796875 43 
L 21.59375 43 
L 21.59375 50.953125 
C 21.59375 52.703125 21.59375 55 18.40625 55 
C 15.09375 55 15.09375 52.703125 15.09375 50.953125 
L 15.09375 43 
L 6.59375 43 
C 5.203125 43 2.5 43 2.5 40.09375 
C 2.5 37.1875 5.09375 37.1875 6.5 37.1875 
L 15.09375 37.1875 
L 15.09375 11.75 
C 15.09375 2.390625 21.5 -1 28.703125 -1 
C 34.09375 -1 44 1.6875 44 11.953125 
C 44 13.984375 44 16.203125 40.703125 16.203125 
C 37.5 16.203125 37.5 13.984375 37.5 11.859375 
C 37.40625 5.796875 31.703125 4.796875 29.40625 4.796875 
C 21.59375 4.796875 21.59375 9.84375 21.59375 12.265625 
z
" id="CMTT12-116"/>
       <path d="M 39.09375 38 
C 37.203125 38 36.296875 38 34.90625 36.796875 
C 34.296875 36.296875 33.203125 34.796875 33.203125 33.1875 
C 33.203125 31.1875 34.703125 29.984375 36.59375 29.984375 
C 39 29.984375 41.703125 31.984375 41.703125 35.984375 
C 41.703125 40.484375 37.09375 44 30.203125 44 
C 17.09375 44 4 30.1875 4 15.796875 
C 4 6.96875 9.40625 -1 19.59375 -1 
C 33.203125 -1 41.796875 9.71875 41.796875 11.03125 
C 41.796875 11.640625 41.203125 12.140625 40.796875 12.140625 
C 40.5 12.140625 40.40625 12.046875 39.5 11.125 
C 33.09375 2.515625 23.59375 1 19.796875 1 
C 12.90625 1 10.703125 7.078125 10.703125 12.140625 
C 10.703125 15.6875 12.40625 25.53125 16 32.390625 
C 18.59375 37.09375 24 41.984375 30.296875 41.984375 
C 31.59375 41.984375 37.09375 41.8125 39.09375 38 
z
" id="CMMI12-99"/>
       <path d="M 20.09375 40.09375 
L 29.296875 40.09375 
C 31.203125 40.09375 32.203125 40.09375 32.203125 41.890625 
C 32.203125 43 31.59375 43 29.59375 43 
L 20.796875 43 
L 24.5 57.25 
C 24.90625 58.625 24.90625 58.8125 24.90625 59.5 
C 24.90625 61.09375 23.59375 62 22.296875 62 
C 21.5 62 19.203125 61.6875 18.40625 58.53125 
L 14.5 43 
L 5.09375 43 
C 3.09375 43 2.203125 43 2.203125 41.09375 
C 2.203125 40.09375 2.90625 40.09375 4.796875 40.09375 
L 13.703125 40.09375 
L 7.09375 13.765625 
C 6.296875 10.265625 6 9.265625 6 7.96875 
C 6 3.28125 9.296875 -1 14.90625 -1 
C 25 -1 30.40625 13.5625 30.40625 14.265625 
C 30.40625 14.859375 30 15.15625 29.40625 15.15625 
C 29.203125 15.15625 28.796875 15.15625 28.59375 14.75 
C 28.5 14.65625 28.40625 14.5625 27.703125 12.96875 
C 25.59375 7.96875 21 1 15.203125 1 
C 12.203125 1 12 3.484375 12 5.6875 
C 12 5.78125 12 7.671875 12.296875 8.875 
z
" id="CMMI12-116"/>
       <path d="M 36.703125 60.3125 
C 37.59375 64.09375 37.90625 65.09375 46.703125 65.09375 
C 49.40625 65.09375 50.09375 65.09375 50.09375 66.984375 
C 50.09375 68 49 68 48.59375 68 
C 46.59375 68 44.296875 67.796875 42.296875 67.796875 
L 28.90625 67.796875 
C 27 67.796875 24.796875 68 22.90625 68 
C 22.09375 68 21 68 21 66.09375 
C 21 65.09375 21.90625 65.09375 23.40625 65.09375 
C 29.5 65.09375 29.5 64.296875 29.5 63.203125 
C 29.5 63 29.5 62.40625 29.09375 60.90625 
L 15.59375 7.375 
C 14.703125 3.890625 14.5 2.890625 7.5 2.890625 
C 5.59375 2.890625 4.59375 2.890625 4.59375 1.09375 
C 4.59375 0 5.203125 0 7.203125 0 
L 52 0 
C 54.203125 0 54.296875 0.09375 55 1.890625 
L 62.703125 23.09375 
C 62.90625 23.59375 63.09375 24.1875 63.09375 24.484375 
C 63.09375 25.078125 62.59375 25.484375 62.09375 25.484375 
C 62 25.484375 61.5 25.484375 61.296875 25.078125 
C 61.09375 24.984375 61.09375 24.78125 60.296875 22.890625 
C 57.09375 14.140625 52.59375 2.890625 35.703125 2.890625 
L 26.09375 2.890625 
C 24.703125 2.890625 24.5 2.890625 23.90625 2.984375 
C 22.796875 3.09375 22.703125 3.296875 22.703125 4.09375 
C 22.703125 4.78125 22.90625 5.375 23.09375 6.28125 
z
" id="CMMI12-76"/>
       <path d="M 64.296875 32 
C 65.796875 32 67.296875 32 67.296875 33.6875 
C 67.296875 35.5 65.59375 35.5 63.90625 35.5 
L 8 35.5 
C 6.296875 35.5 4.59375 35.5 4.59375 33.6875 
C 4.59375 32 6.09375 32 7.59375 32 
z
M 63.90625 14.484375 
C 65.59375 14.484375 67.296875 14.484375 67.296875 16.296875 
C 67.296875 18 65.796875 18 64.296875 18 
L 7.59375 18 
C 6.09375 18 4.59375 18 4.59375 16.296875 
C 4.59375 14.484375 6.296875 14.484375 8 14.484375 
z
" id="CMR17-61"/>
       <path d="M 18.40625 4.796875 
C 18.40625 7.6875 16 9.6875 13.59375 9.6875 
C 10.703125 9.6875 8.703125 7.296875 8.703125 4.890625 
C 8.703125 2 11.09375 0 13.5 0 
C 16.40625 0 18.40625 2.390625 18.40625 4.796875 
z
" id="CMMI12-58"/>
      </defs>
      <use transform="scale(0.996264)" xlink:href="#CMTT12-71"/>
      <use transform="translate(51.266111 0)scale(0.996264)" xlink:href="#CMTT12-108"/>
      <use transform="translate(102.532222 0)scale(0.996264)" xlink:href="#CMTT12-111"/>
      <use transform="translate(153.798333 0)scale(0.996264)" xlink:href="#CMTT12-98"/>
      <use transform="translate(205.064443 0)scale(0.996264)" xlink:href="#CMTT12-97"/>
      <use transform="translate(256.330554 0)scale(0.996264)" xlink:href="#CMTT12-108"/>
      <use transform="translate(358.862776 0)scale(0.996264)" xlink:href="#CMTT12-101"/>
      <use transform="translate(410.128887 0)scale(0.996264)" xlink:href="#CMTT12-114"/>
      <use transform="translate(461.394998 0)scale(0.996264)" xlink:href="#CMTT12-114"/>
      <use transform="translate(512.661108 0)scale(0.996264)" xlink:href="#CMTT12-111"/>
      <use transform="translate(563.927219 0)scale(0.996264)" xlink:href="#CMTT12-114"/>
      <use transform="translate(666.459441 0)scale(0.996264)" xlink:href="#CMTT12-97"/>
      <use transform="translate(717.725552 0)scale(0.996264)" xlink:href="#CMTT12-116"/>
      <use transform="translate(820.257774 0)scale(0.996264)" xlink:href="#CMMI12-99"/>
      <use transform="translate(862.241007 0)scale(0.996264)" xlink:href="#CMMI12-116"/>
      <use transform="translate(919.606544 0)scale(0.996264)" xlink:href="#CMMI12-61"/>
      <use transform="translate(990.52067 0)scale(0.996264)" xlink:href="#CMMI12-76"/>
      <use transform="translate(1106.704761 0)scale(0.996264)" xlink:href="#CMR17-61"/>
      <use transform="translate(1228.232765 0)scale(0.996264)" xlink:href="#CMR17-48"/>
      <use transform="translate(1273.923243 0)scale(0.996264)" xlink:href="#CMMI12-58"/>
      <use transform="translate(1301.02042 0)scale(0.996264)" xlink:href="#CMR17-53"/>
     </g>
    </g>
   </g>
   <g id="line2d_127">
    <path clip-path="url(#p53d8640509)" d="M 622.203954 21.687418 
L 352.248291 57.504597 
L 82.292628 112.082044 
" style="fill:none;stroke:#1f77b4;stroke-linecap:square;stroke-width:1.5;"/>
    <defs>
     <path d="M 0 3 
C 0.795609 3 1.55874 2.683901 2.12132 2.12132 
C 2.683901 1.55874 3 0.795609 3 0 
C 3 -0.795609 2.683901 -1.55874 2.12132 -2.12132 
C 1.55874 -2.683901 0.795609 -3 0 -3 
C -0.795609 -3 -1.55874 -2.683901 -2.12132 -2.12132 
C -2.683901 -1.55874 -3 -0.795609 -3 0 
C -3 0.795609 -2.683901 1.55874 -2.12132 2.12132 
C -1.55874 2.683901 -0.795609 3 0 3 
z
" id="mdb9e583d16" style="stroke:#1f77b4;"/>
    </defs>
    <g clip-path="url(#p53d8640509)">
     <use style="fill:#1f77b4;stroke:#1f77b4;" x="622.203954" xlink:href="#mdb9e583d16" y="21.687418"/>
     <use style="fill:#1f77b4;stroke:#1f77b4;" x="352.248291" xlink:href="#mdb9e583d16" y="57.504597"/>
     <use style="fill:#1f77b4;stroke:#1f77b4;" x="82.292628" xlink:href="#mdb9e583d16" y="112.082044"/>
    </g>
   </g>
   <g id="line2d_128">
    <path clip-path="url(#p53d8640509)" d="M 622.203954 64.139994 
L 352.248291 149.498308 
L 82.292628 264.342324 
" style="fill:none;stroke:#ff7f0e;stroke-linecap:square;stroke-width:1.5;"/>
    <defs>
     <path d="M 0 3 
C 0.795609 3 1.55874 2.683901 2.12132 2.12132 
C 2.683901 1.55874 3 0.795609 3 0 
C 3 -0.795609 2.683901 -1.55874 2.12132 -2.12132 
C 1.55874 -2.683901 0.795609 -3 0 -3 
C -0.795609 -3 -1.55874 -2.683901 -2.12132 -2.12132 
C -2.683901 -1.55874 -3 -0.795609 -3 0 
C -3 0.795609 -2.683901 1.55874 -2.12132 2.12132 
C -1.55874 2.683901 -0.795609 3 0 3 
z
" id="m2b6c2fac6e" style="stroke:#ff7f0e;"/>
    </defs>
    <g clip-path="url(#p53d8640509)">
     <use style="fill:#ff7f0e;stroke:#ff7f0e;" x="622.203954" xlink:href="#m2b6c2fac6e" y="64.139994"/>
     <use style="fill:#ff7f0e;stroke:#ff7f0e;" x="352.248291" xlink:href="#m2b6c2fac6e" y="149.498308"/>
     <use style="fill:#ff7f0e;stroke:#ff7f0e;" x="82.292628" xlink:href="#m2b6c2fac6e" y="264.342324"/>
    </g>
   </g>
   <g id="line2d_129">
    <path clip-path="url(#p53d8640509)" d="M 622.203954 97.45726 
L 352.248291 193.644308 
L 82.292628 311.43578 
" style="fill:none;stroke:#2ca02c;stroke-linecap:square;stroke-width:1.5;"/>
    <defs>
     <path d="M 0 3 
C 0.795609 3 1.55874 2.683901 2.12132 2.12132 
C 2.683901 1.55874 3 0.795609 3 0 
C 3 -0.795609 2.683901 -1.55874 2.12132 -2.12132 
C 1.55874 -2.683901 0.795609 -3 0 -3 
C -0.795609 -3 -1.55874 -2.683901 -2.12132 -2.12132 
C -2.683901 -1.55874 -3 -0.795609 -3 0 
C -3 0.795609 -2.683901 1.55874 -2.12132 2.12132 
C -1.55874 2.683901 -0.795609 3 0 3 
z
" id="m574feba14a" style="stroke:#2ca02c;"/>
    </defs>
    <g clip-path="url(#p53d8640509)">
     <use style="fill:#2ca02c;stroke:#2ca02c;" x="622.203954" xlink:href="#m574feba14a" y="97.45726"/>
     <use style="fill:#2ca02c;stroke:#2ca02c;" x="352.248291" xlink:href="#m574feba14a" y="193.644308"/>
     <use style="fill:#2ca02c;stroke:#2ca02c;" x="82.292628" xlink:href="#m574feba14a" y="311.43578"/>
    </g>
   </g>
   <g id="line2d_130">
    <path clip-path="url(#p53d8640509)" d="M 622.203954 36.83709 
L 352.248291 67.082875 
L 82.292628 97.32866 
" style="fill:none;stroke:#000000;stroke-dasharray:5.55,2.4;stroke-dashoffset:0;stroke-width:1.5;"/>
   </g>
   <g id="line2d_131">
    <path clip-path="url(#p53d8640509)" d="M 622.203954 67.082875 
L 352.248291 127.574445 
L 82.292628 188.066014 
" style="fill:none;stroke:#000000;stroke-dasharray:9.6,2.4,1.5,2.4;stroke-dashoffset:0;stroke-width:1.5;"/>
   </g>
   <g id="patch_3">
    <path d="M 55.297062 325.923198 
L 55.297062 7.2 
" style="fill:none;stroke:#000000;stroke-linecap:square;stroke-linejoin:miter;stroke-width:0.8;"/>
   </g>
   <g id="patch_4">
    <path d="M 649.19952 325.923198 
L 649.19952 7.2 
" style="fill:none;stroke:#000000;stroke-linecap:square;stroke-linejoin:miter;stroke-width:0.8;"/>
   </g>
   <g id="patch_5">
    <path d="M 55.297062 325.923198 
L 649.19952 325.923198 
" style="fill:none;stroke:#000000;stroke-linecap:square;stroke-linejoin:miter;stroke-width:0.8;"/>
   </g>
   <g id="patch_6">
    <path d="M 55.297062 7.2 
L 649.19952 7.2 
" style="fill:none;stroke:#000000;stroke-linecap:square;stroke-linejoin:miter;stroke-width:0.8;"/>
   </g>
   <g id="legend_1">
    <g id="patch_7">
     <path d="M 530.906486 318.423198 
L 638.69952 318.423198 
Q 641.69952 318.423198 641.69952 315.423198 
L 641.69952 205.432104 
Q 641.69952 202.432104 638.69952 202.432104 
L 530.906486 202.432104 
Q 527.906486 202.432104 527.906486 205.432104 
L 527.906486 315.423198 
Q 527.906486 318.423198 530.906486 318.423198 
z
" style="fill:#ffffff;opacity:0.8;stroke:#cccccc;stroke-linejoin:miter;"/>
    </g>
    <g id="line2d_132">
     <path d="M 533.906486 214.659448 
L 563.906486 214.659448 
" style="fill:none;stroke:#1f77b4;stroke-linecap:square;stroke-width:1.5;"/>
    </g>
    <g id="line2d_133">
     <g>
      <use style="fill:#1f77b4;stroke:#1f77b4;" x="548.906486" xlink:href="#mdb9e583d16" y="214.659448"/>
     </g>
    </g>
    <g id="text_12">
     <!-- E2 -->
     <g transform="translate(575.906486 219.909448)scale(0.15 -0.15)">
      <defs>
       <path d="M 16.09375 29 
L 29.296875 29 
C 29.296875 25.453125 29.296875 23.546875 32.59375 23.546875 
C 35.796875 23.546875 35.796875 25.859375 35.796875 27.671875 
L 35.796875 36.078125 
C 35.796875 37.84375 35.796875 40.109375 32.59375 40.109375 
C 29.296875 40.109375 29.296875 38.234375 29.296875 34.796875 
L 16.09375 34.796875 
L 16.09375 55.1875 
L 40.59375 55.1875 
L 40.59375 50.359375 
C 40.59375 48.59375 40.59375 46.328125 43.796875 46.328125 
C 47.09375 46.328125 47.09375 48.484375 47.09375 50.359375 
L 47.09375 56.890625 
C 47.09375 59.984375 46.5 61 43.09375 61 
L 6.90625 61 
C 5.5 61 2.796875 61 2.796875 58.09375 
C 2.796875 55.1875 5.5 55.1875 6.90625 55.1875 
L 9.59375 55.1875 
L 9.59375 5.796875 
L 6.90625 5.796875 
C 5.5 5.796875 2.796875 5.796875 2.796875 2.890625 
C 2.796875 0 5.5 0 6.90625 0 
L 45.296875 0 
C 48.59375 0 49.296875 0.890625 49.296875 4.09375 
L 49.296875 12.25 
C 49.296875 14.0625 49.296875 16.390625 46.09375 16.390625 
C 42.796875 16.390625 42.796875 14.15625 42.796875 12.25 
L 42.796875 5.796875 
L 16.09375 5.796875 
z
" id="CMTT12-69"/>
       <path d="M 34.796875 21.890625 
C 36.203125 23.09375 46.296875 31.640625 46.296875 42.671875 
C 46.296875 54 36.90625 62 24.40625 62 
C 12.796875 62 5.09375 53.3125 5.09375 44.953125 
C 5.09375 40.78125 8.59375 40.484375 9.203125 40.484375 
C 11 40.484375 13.203125 41.875 13.203125 44.5625 
C 13.203125 46.453125 12.5 47.046875 12 47.453125 
C 13.40625 52.71875 18 56.1875 23.796875 56.1875 
C 32.296875 56.1875 39.796875 51.328125 39.796875 42.671875 
C 39.796875 34.921875 33.90625 28.953125 28.5 24.28125 
L 6.5 5.296875 
C 5.40625 4.390625 5.09375 4.09375 5.09375 2.890625 
C 5.09375 0 7.796875 0 9.203125 0 
L 44.09375 0 
C 46.296875 0.59375 46.296875 2.59375 46.296875 4.09375 
L 46.296875 6.1875 
C 46.296875 7.984375 46.296875 10.265625 43.09375 10.265625 
C 39.796875 10.265625 39.796875 8.171875 39.796875 5.796875 
L 15.703125 5.796875 
z
" id="CMTT12-50"/>
      </defs>
      <use transform="scale(0.996264)" xlink:href="#CMTT12-69"/>
      <use transform="translate(51.266111 0)scale(0.996264)" xlink:href="#CMTT12-50"/>
     </g>
    </g>
    <g id="line2d_134">
     <path d="M 533.906486 236.957667 
L 563.906486 236.957667 
" style="fill:none;stroke:#ff7f0e;stroke-linecap:square;stroke-width:1.5;"/>
    </g>
    <g id="line2d_135">
     <g>
      <use style="fill:#ff7f0e;stroke:#ff7f0e;" x="548.906486" xlink:href="#m2b6c2fac6e" y="236.957667"/>
     </g>
    </g>
    <g id="text_13">
     <!-- E4 -->
     <g transform="translate(575.906486 242.207667)scale(0.15 -0.15)">
      <defs>
       <path d="M 3.796875 24.203125 
C 2.90625 22.890625 2.90625 22.6875 2.90625 20.890625 
C 2.90625 17.390625 4.203125 17 6.90625 17 
L 31.40625 17 
L 31.40625 5.796875 
L 25.40625 5.796875 
C 24 5.796875 21.40625 5.796875 21.40625 2.890625 
C 21.40625 0 24 0 25.40625 0 
L 43 0 
C 44.40625 0 47 0 47 2.890625 
C 47 5.796875 44.40625 5.796875 43 5.796875 
L 37 5.796875 
L 37 17 
L 44.5 17 
C 45.90625 17 48.5 17 48.5 19.890625 
C 48.5 22.796875 45.90625 22.796875 44.5 22.796875 
L 37 22.796875 
L 37 58.875 
C 37 62.1875 36.296875 63 32.90625 63 
L 30.59375 63 
C 28.203125 63 27.703125 62.890625 26.5 60.984375 
z
M 9.59375 22.796875 
L 31.40625 58.0625 
L 31.40625 22.796875 
z
" id="CMTT12-52"/>
      </defs>
      <use transform="scale(0.996264)" xlink:href="#CMTT12-69"/>
      <use transform="translate(51.266111 0)scale(0.996264)" xlink:href="#CMTT12-52"/>
     </g>
    </g>
    <g id="line2d_136">
     <path d="M 533.906486 259.255886 
L 563.906486 259.255886 
" style="fill:none;stroke:#2ca02c;stroke-linecap:square;stroke-width:1.5;"/>
    </g>
    <g id="line2d_137">
     <g>
      <use style="fill:#2ca02c;stroke:#2ca02c;" x="548.906486" xlink:href="#m574feba14a" y="259.255886"/>
     </g>
    </g>
    <g id="text_14">
     <!-- I4 -->
     <g transform="translate(575.906486 264.505886)scale(0.15 -0.15)">
      <defs>
       <path d="M 29 55.1875 
L 39.203125 55.1875 
C 40.59375 55.1875 43.203125 55.1875 43.203125 58.09375 
C 43.203125 61 40.59375 61 39.203125 61 
L 12.296875 61 
C 10.90625 61 8.296875 61 8.296875 58.09375 
C 8.296875 55.1875 10.90625 55.1875 12.296875 55.1875 
L 22.5 55.1875 
L 22.5 5.796875 
L 12.296875 5.796875 
C 10.90625 5.796875 8.296875 5.796875 8.296875 2.890625 
C 8.296875 0 10.90625 0 12.296875 0 
L 39.203125 0 
C 40.59375 0 43.203125 0 43.203125 2.890625 
C 43.203125 5.796875 40.59375 5.796875 39.203125 5.796875 
L 29 5.796875 
z
" id="CMTT12-73"/>
      </defs>
      <use transform="scale(0.996264)" xlink:href="#CMTT12-73"/>
      <use transform="translate(51.266111 0)scale(0.996264)" xlink:href="#CMTT12-52"/>
     </g>
    </g>
    <g id="line2d_138">
     <path d="M 533.906486 281.554104 
L 563.906486 281.554104 
" style="fill:none;stroke:#000000;stroke-dasharray:5.55,2.4;stroke-dashoffset:0;stroke-width:1.5;"/>
    </g>
    <g id="line2d_139"/>
    <g id="text_15">
     <!-- order $h^2$ -->
     <g transform="translate(575.906486 286.804104)scale(0.15 -0.15)">
      <defs>
       <path d="M 41.796875 56.890625 
C 41.796875 59.984375 41.203125 61 37.796875 61 
L 31.203125 61 
C 29.796875 61 27.203125 61 27.203125 58.09375 
C 27.203125 55.1875 29.796875 55.1875 31.203125 55.1875 
L 35.296875 55.1875 
L 35.296875 38.984375 
C 33.703125 40.59375 29.59375 44 23.5 44 
C 12.90625 44 3.703125 34.3125 3.703125 21.4375 
C 3.703125 8.875 12.296875 -1 22.59375 -1 
C 29.09375 -1 33.40625 2.890625 35.296875 5.09375 
C 35.296875 0.890625 35.296875 -0.40625 39.296875 -0.40625 
L 45.90625 -0.40625 
C 47.296875 -0.40625 49.90625 -0.40625 49.90625 2.5 
C 49.90625 5.40625 47.296875 5.40625 45.90625 5.40625 
L 41.796875 5.40625 
z
M 35.296875 18.890625 
C 35.296875 13.171875 30.703125 4.796875 23.203125 4.796875 
C 16 4.796875 10.203125 12.25 10.203125 21.4375 
C 10.203125 31.25 17 38.1875 24.09375 38.1875 
C 30.59375 38.1875 35.296875 32.171875 35.296875 26.859375 
z
" id="CMTT12-100"/>
      </defs>
      <use transform="scale(0.996264)" xlink:href="#CMTT12-111"/>
      <use transform="translate(51.266111 0)scale(0.996264)" xlink:href="#CMTT12-114"/>
      <use transform="translate(102.532222 0)scale(0.996264)" xlink:href="#CMTT12-100"/>
      <use transform="translate(153.798333 0)scale(0.996264)" xlink:href="#CMTT12-101"/>
      <use transform="translate(205.064443 0)scale(0.996264)" xlink:href="#CMTT12-114"/>
      <use transform="translate(307.596665 0)scale(0.996264)" xlink:href="#CMMI12-104"/>
      <use transform="translate(363.751289 36.153639)scale(0.697382)" xlink:href="#CMR17-50"/>
     </g>
    </g>
    <g id="line2d_140">
     <path d="M 533.906486 303.852323 
L 563.906486 303.852323 
" style="fill:none;stroke:#000000;stroke-dasharray:9.6,2.4,1.5,2.4;stroke-dashoffset:0;stroke-width:1.5;"/>
    </g>
    <g id="line2d_141"/>
    <g id="text_16">
     <!-- order $h^4$ -->
     <g transform="translate(575.906486 309.102323)scale(0.15 -0.15)">
      <use transform="scale(0.996264)" xlink:href="#CMTT12-111"/>
      <use transform="translate(51.266111 0)scale(0.996264)" xlink:href="#CMTT12-114"/>
      <use transform="translate(102.532222 0)scale(0.996264)" xlink:href="#CMTT12-100"/>
      <use transform="translate(153.798333 0)scale(0.996264)" xlink:href="#CMTT12-101"/>
      <use transform="translate(205.064443 0)scale(0.996264)" xlink:href="#CMTT12-114"/>
      <use transform="translate(307.596665 0)scale(0.996264)" xlink:href="#CMMI12-104"/>
      <use transform="translate(363.751289 36.153639)scale(0.697382)" xlink:href="#CMR17-52"/>
     </g>
    </g>
   </g>
  </g>
 </g>
 <defs>
  <clipPath id="p53d8640509">
   <rect height="318.723198" width="593.902458" x="55.297062" y="7.2"/>
  </clipPath>
 </defs>
</svg>
