<?xml version="1.0" encoding="utf-8" standalone="no"?>
<!DOCTYPE svg PUBLIC "-//W3C//DTD SVG 1.1//EN"
  "http://www.w3.org/Graphics/SVG/1.1/DTD/svg11.dtd">
<!-- Created with matplotlib (https://matplotlib.org/) -->
<svg height="440.39952pt" version="1.1" viewBox="0 0 728.39952 440.39952" width="728.39952pt" xmlns="http://www.w3.org/2000/svg" xmlns:xlink="http://www.w3.org/1999/xlink">
 <metadata>
  <rdf:RDF xmlns:cc="http://creativecommons.org/ns#" xmlns:dc="http://purl.org/dc/elements/1.1/" xmlns:rdf="http://www.w3.org/1999/02/22-rdf-syntax-ns#">
   <cc:Work>
    <dc:type rdf:resource="http://purl.org/dc/dcmitype/StillImage"/>
    <dc:date>2022-03-11T17:50:32.278374</dc:date>
    <dc:format>image/svg+xml</dc:format>
    <dc:creator>
     <cc:Agent>
      <dc:title>Matplotlib v3.3.4, https://matplotlib.org/</dc:title>
     </cc:Agent>
    </dc:creator>
   </cc:Work>
  </rdf:RDF>
 </metadata>
 <defs>
  <style type="text/css">*{stroke-linecap:butt;stroke-linejoin:round;}</style>
 </defs>
 <g id="figure_1">
  <g id="patch_1">
   <path d="M 0 440.39952 
L 728.39952 440.39952 
L 728.39952 0 
L 0 0 
z
" style="fill:#ffffff;"/>
  </g>
  <g id="axes_1">
   <g id="patch_2">
    <path d="M 65.548566 195.170171 
L 721.19952 195.170171 
L 721.19952 7.2 
L 65.548566 7.2 
z
" style="fill:#ffffff;"/>
   </g>
   <g id="line2d_1">
    <path clip-path="url(#pa53d5a0734)" d="M 25.06504 -1 
L 26.619577 6.244043 
L 29.675228 19.614739 
L 32.730878 32.137287 
L 35.786529 43.835259 
L 38.842179 54.735039 
L 41.89783 64.865367 
L 44.953481 74.256908 
L 48.009131 82.941833 
L 51.064782 90.953425 
L 54.120433 98.325718 
L 57.176083 105.093155 
L 60.231734 111.290277 
L 63.287384 116.95145 
L 66.343035 122.11061 
L 69.398686 126.801046 
L 72.454336 131.055213 
L 75.509987 134.904563 
L 78.565638 138.37942 
L 81.621288 141.508864 
L 84.676939 144.320653 
L 87.732589 146.841155 
L 90.78824 149.095313 
L 93.843891 151.10662 
L 96.899541 152.89711 
L 99.955192 154.487373 
L 103.010843 155.896572 
L 106.066493 157.142477 
L 109.122144 158.241509 
L 112.177794 159.208784 
L 118.289096 160.802367 
L 124.400397 162.020352 
L 130.511698 162.942955 
L 136.622999 163.6356 
L 145.789951 164.355719 
L 154.956903 164.809027 
L 167.179506 165.155066 
L 185.513409 165.381666 
L 216.069916 165.476479 
L 353.574194 165.49067 
L 729.39952 165.49067 
L 729.39952 165.49067 
" style="fill:none;stroke:#808080;stroke-linecap:square;stroke-opacity:0.5;stroke-width:2;"/>
   </g>
   <g id="matplotlib.axis_1">
    <g id="xtick_1">
     <g id="line2d_2">
      <path clip-path="url(#pa53d5a0734)" d="M 126.539352 195.170171 
L 126.539352 7.2 
" style="fill:none;stroke:#b0b0b0;stroke-dasharray:0.8,1.32;stroke-dashoffset:0;stroke-width:0.8;"/>
     </g>
     <g id="line2d_3">
      <defs>
       <path d="M 0 0 
L 0 3.5 
" id="m5fd74fbaf3" style="stroke:#000000;stroke-width:0.8;"/>
      </defs>
      <g>
       <use style="stroke:#000000;stroke-width:0.8;" x="126.539352" xlink:href="#m5fd74fbaf3" y="195.170171"/>
      </g>
     </g>
    </g>
    <g id="xtick_2">
     <g id="line2d_4">
      <path clip-path="url(#pa53d5a0734)" d="M 202.777835 195.170171 
L 202.777835 7.2 
" style="fill:none;stroke:#b0b0b0;stroke-dasharray:0.8,1.32;stroke-dashoffset:0;stroke-width:0.8;"/>
     </g>
     <g id="line2d_5">
      <g>
       <use style="stroke:#000000;stroke-width:0.8;" x="202.777835" xlink:href="#m5fd74fbaf3" y="195.170171"/>
      </g>
     </g>
    </g>
    <g id="xtick_3">
     <g id="line2d_6">
      <path clip-path="url(#pa53d5a0734)" d="M 279.016318 195.170171 
L 279.016318 7.2 
" style="fill:none;stroke:#b0b0b0;stroke-dasharray:0.8,1.32;stroke-dashoffset:0;stroke-width:0.8;"/>
     </g>
     <g id="line2d_7">
      <g>
       <use style="stroke:#000000;stroke-width:0.8;" x="279.016318" xlink:href="#m5fd74fbaf3" y="195.170171"/>
      </g>
     </g>
    </g>
    <g id="xtick_4">
     <g id="line2d_8">
      <path clip-path="url(#pa53d5a0734)" d="M 355.254801 195.170171 
L 355.254801 7.2 
" style="fill:none;stroke:#b0b0b0;stroke-dasharray:0.8,1.32;stroke-dashoffset:0;stroke-width:0.8;"/>
     </g>
     <g id="line2d_9">
      <g>
       <use style="stroke:#000000;stroke-width:0.8;" x="355.254801" xlink:href="#m5fd74fbaf3" y="195.170171"/>
      </g>
     </g>
    </g>
    <g id="xtick_5">
     <g id="line2d_10">
      <path clip-path="url(#pa53d5a0734)" d="M 431.493284 195.170171 
L 431.493284 7.2 
" style="fill:none;stroke:#b0b0b0;stroke-dasharray:0.8,1.32;stroke-dashoffset:0;stroke-width:0.8;"/>
     </g>
     <g id="line2d_11">
      <g>
       <use style="stroke:#000000;stroke-width:0.8;" x="431.493284" xlink:href="#m5fd74fbaf3" y="195.170171"/>
      </g>
     </g>
    </g>
    <g id="xtick_6">
     <g id="line2d_12">
      <path clip-path="url(#pa53d5a0734)" d="M 507.731768 195.170171 
L 507.731768 7.2 
" style="fill:none;stroke:#b0b0b0;stroke-dasharray:0.8,1.32;stroke-dashoffset:0;stroke-width:0.8;"/>
     </g>
     <g id="line2d_13">
      <g>
       <use style="stroke:#000000;stroke-width:0.8;" x="507.731768" xlink:href="#m5fd74fbaf3" y="195.170171"/>
      </g>
     </g>
    </g>
    <g id="xtick_7">
     <g id="line2d_14">
      <path clip-path="url(#pa53d5a0734)" d="M 583.970251 195.170171 
L 583.970251 7.2 
" style="fill:none;stroke:#b0b0b0;stroke-dasharray:0.8,1.32;stroke-dashoffset:0;stroke-width:0.8;"/>
     </g>
     <g id="line2d_15">
      <g>
       <use style="stroke:#000000;stroke-width:0.8;" x="583.970251" xlink:href="#m5fd74fbaf3" y="195.170171"/>
      </g>
     </g>
    </g>
    <g id="xtick_8">
     <g id="line2d_16">
      <path clip-path="url(#pa53d5a0734)" d="M 660.208734 195.170171 
L 660.208734 7.2 
" style="fill:none;stroke:#b0b0b0;stroke-dasharray:0.8,1.32;stroke-dashoffset:0;stroke-width:0.8;"/>
     </g>
     <g id="line2d_17">
      <g>
       <use style="stroke:#000000;stroke-width:0.8;" x="660.208734" xlink:href="#m5fd74fbaf3" y="195.170171"/>
      </g>
     </g>
    </g>
   </g>
   <g id="matplotlib.axis_2">
    <g id="ytick_1">
     <g id="line2d_18">
      <path clip-path="url(#pa53d5a0734)" d="M 65.548566 190.223587 
L 721.19952 190.223587 
" style="fill:none;stroke:#b0b0b0;stroke-dasharray:0.8,1.32;stroke-dashoffset:0;stroke-width:0.8;"/>
     </g>
     <g id="line2d_19">
      <defs>
       <path d="M 0 0 
L -3.5 0 
" id="mf1f0ed7cf0" style="stroke:#000000;stroke-width:0.8;"/>
      </defs>
      <g>
       <use style="stroke:#000000;stroke-width:0.8;" x="65.548566" xlink:href="#mf1f0ed7cf0" y="190.223587"/>
      </g>
     </g>
     <g id="text_1">
      <!-- $\mathdefault{−0.025}$ -->
      <g transform="translate(28.107073 193.267729)scale(0.1 -0.1)">
       <defs>
        <path d="M 65.90625 23 
C 67.59375 23 69.40625 23 69.40625 25 
C 69.40625 27 67.59375 27 65.90625 27 
L 11.796875 27 
C 10.09375 27 8.296875 27 8.296875 25 
C 8.296875 23 10.09375 23 11.796875 23 
z
" id="CMSY10-0"/>
        <path d="M 42 31.84375 
C 42 37.96875 41.90625 48.421875 37.703125 56.453125 
C 34 63.484375 28.09375 66 22.90625 66 
C 18.09375 66 12 63.78125 8.203125 56.5625 
C 4.203125 49.015625 3.796875 39.671875 3.796875 31.84375 
C 3.796875 26.109375 3.90625 17.375 7 9.734375 
C 11.296875 -0.609375 19 -2 22.90625 -2 
C 27.5 -2 34.5 -0.109375 38.59375 9.4375 
C 41.59375 16.375 42 24.5 42 31.84375 
z
M 22.90625 -0.40625 
C 16.5 -0.40625 12.703125 5.125 11.296875 12.75 
C 10.203125 18.6875 10.203125 27.328125 10.203125 32.953125 
C 10.203125 40.6875 10.203125 47.109375 11.5 53.234375 
C 13.40625 61.78125 19 64.390625 22.90625 64.390625 
C 27 64.390625 32.296875 61.671875 34.203125 53.4375 
C 35.5 47.71875 35.59375 40.984375 35.59375 32.953125 
C 35.59375 26.421875 35.59375 18.375 34.40625 12.453125 
C 32.296875 1.5 26.40625 -0.40625 22.90625 -0.40625 
z
" id="CMR17-48"/>
        <path d="M 18.40625 4.796875 
C 18.40625 7.6875 16 9.6875 13.59375 9.6875 
C 10.703125 9.6875 8.703125 7.296875 8.703125 4.890625 
C 8.703125 2 11.09375 0 13.5 0 
C 16.40625 0 18.40625 2.390625 18.40625 4.796875 
z
" id="CMMI12-58"/>
        <path d="M 41.703125 15.46875 
L 39.90625 15.46875 
C 38.90625 8.390625 38.09375 7.1875 37.703125 6.59375 
C 37.203125 5.796875 30 5.796875 28.59375 5.796875 
L 9.40625 5.796875 
C 13 9.6875 20 16.765625 28.5 24.9375 
C 34.59375 30.71875 41.703125 37.5 41.703125 47.390625 
C 41.703125 59.1875 32.296875 66 21.796875 66 
C 10.796875 66 4.09375 56.296875 4.09375 47.296875 
C 4.09375 43.390625 7 42.890625 8.203125 42.890625 
C 9.203125 42.890625 12.203125 43.484375 12.203125 46.984375 
C 12.203125 50.09375 9.59375 51 8.203125 51 
C 7.59375 51 7 50.890625 6.59375 50.6875 
C 8.5 59.1875 14.296875 63.390625 20.40625 63.390625 
C 29.09375 63.390625 34.796875 56.5 34.796875 47.390625 
C 34.796875 38.703125 29.703125 31.21875 24 24.734375 
L 4.09375 2.296875 
L 4.09375 0 
L 39.296875 0 
z
" id="CMR17-50"/>
        <path d="M 11.40625 58.59375 
C 12.40625 58.1875 16.5 56.890625 20.703125 56.890625 
C 30 56.890625 35.09375 61.890625 38 64.6875 
C 38 65.484375 38 66 37.40625 66 
C 37.296875 66 37.09375 66 36.296875 65.59375 
C 32.796875 64.09375 28.703125 63 23.703125 63 
C 20.703125 63 16.203125 63.359375 11.296875 65.484375 
C 10.203125 66 10 66 9.90625 66 
C 9.40625 66 9.296875 65.890625 9.296875 63.90625 
L 9.296875 34.859375 
C 9.296875 33.015625 9.296875 32.5 10.296875 32.5 
C 10.796875 32.5 11 32.703125 11.5 33.421875 
C 14.703125 38.046875 19.09375 40 24.09375 40 
C 27.59375 40 35.09375 37.734375 35.09375 20.203125 
C 35.09375 16.984375 35.09375 11.1875 32.09375 6.59375 
C 29.59375 2.484375 25.703125 0.390625 21.40625 0.390625 
C 14.796875 0.390625 8.09375 4.984375 6.296875 12.6875 
C 6.703125 12.59375 7.5 12.390625 7.90625 12.390625 
C 9.203125 12.390625 11.703125 13.09375 11.703125 16.1875 
C 11.703125 18.890625 9.796875 20 7.90625 20 
C 5.59375 20 4.09375 18.59375 4.09375 15.796875 
C 4.09375 7.09375 11 -2 21.59375 -2 
C 31.90625 -2 41.703125 6.890625 41.703125 19.796875 
C 41.703125 32.09375 33.90625 41.59375 24.203125 41.59375 
C 19.09375 41.59375 14.796875 39.6875 11.40625 36 
z
" id="CMR17-53"/>
       </defs>
       <use transform="scale(0.996264)" xlink:href="#CMSY10-0"/>
       <use transform="translate(77.487468 0)scale(0.996264)" xlink:href="#CMR17-48"/>
       <use transform="translate(123.177945 0)scale(0.996264)" xlink:href="#CMMI12-58"/>
       <use transform="translate(150.275122 0)scale(0.996264)" xlink:href="#CMR17-48"/>
       <use transform="translate(195.965599 0)scale(0.996264)" xlink:href="#CMR17-50"/>
       <use transform="translate(241.656076 0)scale(0.996264)" xlink:href="#CMR17-53"/>
      </g>
     </g>
    </g>
    <g id="ytick_2">
     <g id="line2d_20">
      <path clip-path="url(#pa53d5a0734)" d="M 65.548566 165.49067 
L 721.19952 165.49067 
" style="fill:none;stroke:#b0b0b0;stroke-dasharray:0.8,1.32;stroke-dashoffset:0;stroke-width:0.8;"/>
     </g>
     <g id="line2d_21">
      <g>
       <use style="stroke:#000000;stroke-width:0.8;" x="65.548566" xlink:href="#mf1f0ed7cf0" y="165.49067"/>
      </g>
     </g>
     <g id="text_2">
      <!-- $\mathdefault{0.000}$ -->
      <g transform="translate(35.855816 168.534812)scale(0.1 -0.1)">
       <use transform="scale(0.996264)" xlink:href="#CMR17-48"/>
       <use transform="translate(45.690477 0)scale(0.996264)" xlink:href="#CMMI12-58"/>
       <use transform="translate(72.787654 0)scale(0.996264)" xlink:href="#CMR17-48"/>
       <use transform="translate(118.478131 0)scale(0.996264)" xlink:href="#CMR17-48"/>
       <use transform="translate(164.168608 0)scale(0.996264)" xlink:href="#CMR17-48"/>
      </g>
     </g>
    </g>
    <g id="ytick_3">
     <g id="line2d_22">
      <path clip-path="url(#pa53d5a0734)" d="M 65.548566 140.757753 
L 721.19952 140.757753 
" style="fill:none;stroke:#b0b0b0;stroke-dasharray:0.8,1.32;stroke-dashoffset:0;stroke-width:0.8;"/>
     </g>
     <g id="line2d_23">
      <g>
       <use style="stroke:#000000;stroke-width:0.8;" x="65.548566" xlink:href="#mf1f0ed7cf0" y="140.757753"/>
      </g>
     </g>
     <g id="text_3">
      <!-- $\mathdefault{0.025}$ -->
      <g transform="translate(35.855816 143.801895)scale(0.1 -0.1)">
       <use transform="scale(0.996264)" xlink:href="#CMR17-48"/>
       <use transform="translate(45.690477 0)scale(0.996264)" xlink:href="#CMMI12-58"/>
       <use transform="translate(72.787654 0)scale(0.996264)" xlink:href="#CMR17-48"/>
       <use transform="translate(118.478131 0)scale(0.996264)" xlink:href="#CMR17-50"/>
       <use transform="translate(164.168608 0)scale(0.996264)" xlink:href="#CMR17-53"/>
      </g>
     </g>
    </g>
    <g id="ytick_4">
     <g id="line2d_24">
      <path clip-path="url(#pa53d5a0734)" d="M 65.548566 116.024836 
L 721.19952 116.024836 
" style="fill:none;stroke:#b0b0b0;stroke-dasharray:0.8,1.32;stroke-dashoffset:0;stroke-width:0.8;"/>
     </g>
     <g id="line2d_25">
      <g>
       <use style="stroke:#000000;stroke-width:0.8;" x="65.548566" xlink:href="#mf1f0ed7cf0" y="116.024836"/>
      </g>
     </g>
     <g id="text_4">
      <!-- $\mathdefault{0.050}$ -->
      <g transform="translate(35.855816 119.068977)scale(0.1 -0.1)">
       <use transform="scale(0.996264)" xlink:href="#CMR17-48"/>
       <use transform="translate(45.690477 0)scale(0.996264)" xlink:href="#CMMI12-58"/>
       <use transform="translate(72.787654 0)scale(0.996264)" xlink:href="#CMR17-48"/>
       <use transform="translate(118.478131 0)scale(0.996264)" xlink:href="#CMR17-53"/>
       <use transform="translate(164.168608 0)scale(0.996264)" xlink:href="#CMR17-48"/>
      </g>
     </g>
    </g>
    <g id="ytick_5">
     <g id="line2d_26">
      <path clip-path="url(#pa53d5a0734)" d="M 65.548566 91.291919 
L 721.19952 91.291919 
" style="fill:none;stroke:#b0b0b0;stroke-dasharray:0.8,1.32;stroke-dashoffset:0;stroke-width:0.8;"/>
     </g>
     <g id="line2d_27">
      <g>
       <use style="stroke:#000000;stroke-width:0.8;" x="65.548566" xlink:href="#mf1f0ed7cf0" y="91.291919"/>
      </g>
     </g>
     <g id="text_5">
      <!-- $\mathdefault{0.075}$ -->
      <g transform="translate(35.855816 94.33606)scale(0.1 -0.1)">
       <defs>
        <path d="M 45.09375 61.796875 
L 45.09375 64 
L 21.59375 64 
C 9.90625 64 9.703125 65.09375 9.296875 67 
L 7.5 67 
L 4.59375 48.5 
L 6.40625 48.5 
C 6.703125 50.40625 7.40625 55.5 8.59375 57.390625 
C 9.203125 58.1875 16.59375 58.1875 18.296875 58.1875 
L 40.296875 58.1875 
L 29.203125 41.71875 
C 21.796875 30.640625 16.703125 15.671875 16.703125 2.59375 
C 16.703125 1.390625 16.703125 -2 20.296875 -2 
C 23.90625 -2 23.90625 1.390625 23.90625 2.6875 
L 23.90625 7.28125 
C 23.90625 23.65625 26.703125 34.4375 31.296875 41.3125 
z
" id="CMR17-55"/>
       </defs>
       <use transform="scale(0.996264)" xlink:href="#CMR17-48"/>
       <use transform="translate(45.690477 0)scale(0.996264)" xlink:href="#CMMI12-58"/>
       <use transform="translate(72.787654 0)scale(0.996264)" xlink:href="#CMR17-48"/>
       <use transform="translate(118.478131 0)scale(0.996264)" xlink:href="#CMR17-55"/>
       <use transform="translate(164.168608 0)scale(0.996264)" xlink:href="#CMR17-53"/>
      </g>
     </g>
    </g>
    <g id="ytick_6">
     <g id="line2d_28">
      <path clip-path="url(#pa53d5a0734)" d="M 65.548566 66.559001 
L 721.19952 66.559001 
" style="fill:none;stroke:#b0b0b0;stroke-dasharray:0.8,1.32;stroke-dashoffset:0;stroke-width:0.8;"/>
     </g>
     <g id="line2d_29">
      <g>
       <use style="stroke:#000000;stroke-width:0.8;" x="65.548566" xlink:href="#mf1f0ed7cf0" y="66.559001"/>
      </g>
     </g>
     <g id="text_6">
      <!-- $\mathdefault{0.100}$ -->
      <g transform="translate(35.855816 69.603143)scale(0.1 -0.1)">
       <defs>
        <path d="M 26.59375 63.796875 
C 26.59375 65.890625 26.5 66 25.09375 66 
C 21.203125 61.359375 15.296875 59.890625 9.703125 59.6875 
C 9.40625 59.6875 8.90625 59.6875 8.796875 59.5 
C 8.703125 59.296875 8.703125 59.09375 8.703125 57 
C 11.796875 57 17 57.59375 21 59.984375 
L 21 7.296875 
C 21 3.796875 20.796875 2.59375 12.203125 2.59375 
L 9.203125 2.59375 
L 9.203125 0 
C 14 0.09375 19 0.1875 23.796875 0.1875 
C 28.59375 0.1875 33.59375 0.09375 38.40625 0 
L 38.40625 2.59375 
L 35.40625 2.59375 
C 26.796875 2.59375 26.59375 3.6875 26.59375 7.296875 
z
" id="CMR17-49"/>
       </defs>
       <use transform="scale(0.996264)" xlink:href="#CMR17-48"/>
       <use transform="translate(45.690477 0)scale(0.996264)" xlink:href="#CMMI12-58"/>
       <use transform="translate(72.787654 0)scale(0.996264)" xlink:href="#CMR17-49"/>
       <use transform="translate(118.478131 0)scale(0.996264)" xlink:href="#CMR17-48"/>
       <use transform="translate(164.168608 0)scale(0.996264)" xlink:href="#CMR17-48"/>
      </g>
     </g>
    </g>
    <g id="ytick_7">
     <g id="line2d_30">
      <path clip-path="url(#pa53d5a0734)" d="M 65.548566 41.826084 
L 721.19952 41.826084 
" style="fill:none;stroke:#b0b0b0;stroke-dasharray:0.8,1.32;stroke-dashoffset:0;stroke-width:0.8;"/>
     </g>
     <g id="line2d_31">
      <g>
       <use style="stroke:#000000;stroke-width:0.8;" x="65.548566" xlink:href="#mf1f0ed7cf0" y="41.826084"/>
      </g>
     </g>
     <g id="text_7">
      <!-- $\mathdefault{0.125}$ -->
      <g transform="translate(35.855816 44.870226)scale(0.1 -0.1)">
       <use transform="scale(0.996264)" xlink:href="#CMR17-48"/>
       <use transform="translate(45.690477 0)scale(0.996264)" xlink:href="#CMMI12-58"/>
       <use transform="translate(72.787654 0)scale(0.996264)" xlink:href="#CMR17-49"/>
       <use transform="translate(118.478131 0)scale(0.996264)" xlink:href="#CMR17-50"/>
       <use transform="translate(164.168608 0)scale(0.996264)" xlink:href="#CMR17-53"/>
      </g>
     </g>
    </g>
    <g id="ytick_8">
     <g id="line2d_32">
      <path clip-path="url(#pa53d5a0734)" d="M 65.548566 17.093167 
L 721.19952 17.093167 
" style="fill:none;stroke:#b0b0b0;stroke-dasharray:0.8,1.32;stroke-dashoffset:0;stroke-width:0.8;"/>
     </g>
     <g id="line2d_33">
      <g>
       <use style="stroke:#000000;stroke-width:0.8;" x="65.548566" xlink:href="#mf1f0ed7cf0" y="17.093167"/>
      </g>
     </g>
     <g id="text_8">
      <!-- $\mathdefault{0.150}$ -->
      <g transform="translate(35.855816 20.137309)scale(0.1 -0.1)">
       <use transform="scale(0.996264)" xlink:href="#CMR17-48"/>
       <use transform="translate(45.690477 0)scale(0.996264)" xlink:href="#CMMI12-58"/>
       <use transform="translate(72.787654 0)scale(0.996264)" xlink:href="#CMR17-49"/>
       <use transform="translate(118.478131 0)scale(0.996264)" xlink:href="#CMR17-53"/>
       <use transform="translate(164.168608 0)scale(0.996264)" xlink:href="#CMR17-48"/>
      </g>
     </g>
    </g>
    <g id="text_9">
     <!-- $u(x, t=0.648)$ -->
     <g transform="translate(19.887119 151.961144)rotate(-90)scale(0.17 -0.17)">
      <defs>
       <path d="M 34.09375 5.78125 
C 35.40625 0.1875 40.203125 -1 42.59375 -1 
C 45.796875 -1 48.203125 1.09375 49.796875 4.484375 
C 51.5 8.078125 52.796875 13.953125 52.796875 14.265625 
C 52.796875 14.75 52.40625 15.15625 51.796875 15.15625 
C 50.90625 15.15625 50.796875 14.65625 50.40625 13.15625 
C 48.59375 6.28125 46.796875 1 42.796875 1 
C 39.796875 1 39.796875 4.28125 39.796875 5.578125 
C 39.796875 7.875 40.09375 8.875 41.09375 13.0625 
C 41.796875 15.75 42.5 18.453125 43.09375 21.234375 
L 47.203125 37.5 
C 47.90625 40 47.90625 40.1875 47.90625 40.484375 
C 47.90625 41.984375 46.703125 43 45.203125 43 
C 42.296875 43 41.59375 40.484375 41 38 
C 40 34.109375 34.59375 12.65625 33.90625 9.171875 
C 33.796875 9.171875 29.90625 1 22.59375 1 
C 17.40625 1 16.40625 5.484375 16.40625 9.171875 
C 16.40625 14.859375 19.203125 22.84375 21.796875 29.53125 
C 23 32.71875 23.5 34.015625 23.5 36.015625 
C 23.5 40.296875 20.40625 44 15.59375 44 
C 6.40625 44 2.703125 29.53125 2.703125 28.71875 
C 2.703125 28.328125 3.09375 27.828125 3.796875 27.828125 
C 4.703125 27.828125 4.796875 28.234375 5.203125 29.625 
C 7.59375 38.203125 11.5 41.984375 15.296875 41.984375 
C 16.296875 41.984375 17.90625 41.890625 17.90625 38.703125 
C 17.90625 36.109375 16.796875 33.21875 15.296875 29.421875 
C 10.90625 17.546875 10.40625 13.765625 10.40625 10.765625 
C 10.40625 0.59375 18.09375 -1 22.203125 -1 
C 28.59375 -1 32.09375 3.390625 34.09375 5.78125 
z
" id="CMMI12-117"/>
       <path d="M 30.59375 -24.40625 
C 30.59375 -24.3125 30.59375 -24.109375 30.296875 -23.8125 
C 25.703125 -19.109375 13.40625 -6.296875 13.40625 24.9375 
C 13.40625 56.171875 25.5 68.875 30.40625 73.890625 
C 30.40625 73.984375 30.59375 74.1875 30.59375 74.484375 
C 30.59375 74.796875 30.296875 75 29.90625 75 
C 28.796875 75 20.296875 67.578125 15.40625 56.5625 
C 10.40625 45.453125 9 34.65625 9 25.046875 
C 9 17.828125 9.703125 5.625 15.703125 -7.296875 
C 20.5 -17.703125 28.703125 -25 29.90625 -25 
C 30.40625 -25 30.59375 -24.8125 30.59375 -24.40625 
z
" id="CMR17-40"/>
       <path d="M 47.40625 41 
C 44.203125 40.390625 43 37.984375 43 36.09375 
C 43 33.6875 44.90625 32.890625 46.296875 32.890625 
C 49.296875 32.890625 51.40625 35.484375 51.40625 38.1875 
C 51.40625 42.09375 46.59375 44 42.40625 44 
C 36.296875 44 32.90625 38.296875 32 36.390625 
C 29.703125 43.59375 23.5 44 21.703125 44 
C 11.5 44 6.09375 31.140625 6.09375 28.890625 
C 6.09375 28.484375 6.5 27.96875 7.203125 27.96875 
C 8 27.96875 8.203125 28.578125 8.40625 28.984375 
C 11.796875 40.1875 18.5 41.984375 21.40625 41.984375 
C 25.90625 41.984375 26.796875 38.09375 26.796875 35.6875 
C 26.796875 33.484375 26.203125 31.140625 25 26.21875 
L 21.59375 12.15625 
C 20.09375 6.09375 17.203125 1 11.90625 1 
C 11.40625 1 8.90625 1 6.796875 1.96875 
C 10.40625 2.59375 11.203125 5.59375 11.203125 6.796875 
C 11.203125 8.796875 9.703125 10 7.796875 10 
C 5.40625 10 2.796875 7.890625 2.796875 4.6875 
C 2.796875 0.890625 7.5 -1 11.796875 -1 
C 16.59375 -1 20 2.390625 22.09375 6.484375 
C 23.703125 1 28.703125 -1 32.40625 -1 
C 42.59375 -1 48 11.734375 48 14 
C 48 14.515625 47.59375 14.921875 47 14.921875 
C 46.09375 14.921875 46 14.40625 45.703125 13.59375 
C 43 4.6875 37.203125 1 32.703125 1 
C 29.203125 1 27.296875 3.1875 27.296875 7.296875 
C 27.296875 9.484375 27.703125 11.125 29.296875 17.90625 
L 32.796875 31.859375 
C 34.296875 37.890625 37.703125 41.984375 42.296875 41.984375 
C 42.5 41.984375 45.296875 41.984375 47.40625 41 
z
" id="CMMI12-120"/>
       <path d="M 19.5 -0.40625 
C 19.5 5.390625 17.59375 9.6875 13.5 9.6875 
C 10.296875 9.6875 8.703125 7.09375 8.703125 4.890625 
C 8.703125 2.6875 10.203125 0 13.59375 0 
C 14.90625 0 16 0.390625 16.90625 1.296875 
C 17.09375 1.5 17.203125 1.5 17.296875 1.5 
C 17.5 1.5 17.5 0.09375 17.5 -0.40625 
C 17.5 -3.640625 16.90625 -10.03125 11.09375 -16.421875 
C 10 -17.609375 10 -17.8125 10 -18 
C 10 -18.5 10.5 -19 11 -19 
C 11.796875 -19 19.5 -11.703125 19.5 -0.40625 
z
" id="CMMI12-59"/>
       <path d="M 20.09375 40.09375 
L 29.296875 40.09375 
C 31.203125 40.09375 32.203125 40.09375 32.203125 41.890625 
C 32.203125 43 31.59375 43 29.59375 43 
L 20.796875 43 
L 24.5 57.25 
C 24.90625 58.625 24.90625 58.8125 24.90625 59.5 
C 24.90625 61.09375 23.59375 62 22.296875 62 
C 21.5 62 19.203125 61.6875 18.40625 58.53125 
L 14.5 43 
L 5.09375 43 
C 3.09375 43 2.203125 43 2.203125 41.09375 
C 2.203125 40.09375 2.90625 40.09375 4.796875 40.09375 
L 13.703125 40.09375 
L 7.09375 13.765625 
C 6.296875 10.265625 6 9.265625 6 7.96875 
C 6 3.28125 9.296875 -1 14.90625 -1 
C 25 -1 30.40625 13.5625 30.40625 14.265625 
C 30.40625 14.859375 30 15.15625 29.40625 15.15625 
C 29.203125 15.15625 28.796875 15.15625 28.59375 14.75 
C 28.5 14.65625 28.40625 14.5625 27.703125 12.96875 
C 25.59375 7.96875 21 1 15.203125 1 
C 12.203125 1 12 3.484375 12 5.6875 
C 12 5.78125 12 7.671875 12.296875 8.875 
z
" id="CMMI12-116"/>
       <path d="M 64.296875 32 
C 65.796875 32 67.296875 32 67.296875 33.6875 
C 67.296875 35.5 65.59375 35.5 63.90625 35.5 
L 8 35.5 
C 6.296875 35.5 4.59375 35.5 4.59375 33.6875 
C 4.59375 32 6.09375 32 7.59375 32 
z
M 63.90625 14.484375 
C 65.59375 14.484375 67.296875 14.484375 67.296875 16.296875 
C 67.296875 18 65.796875 18 64.296875 18 
L 7.59375 18 
C 6.09375 18 4.59375 18 4.59375 16.296875 
C 4.59375 14.484375 6.296875 14.484375 8 14.484375 
z
" id="CMR17-61"/>
       <path d="M 10.59375 34.34375 
C 10.59375 58 21.796875 63.6875 28.296875 63.6875 
C 30.40625 63.6875 35.5 63.265625 37.5 59.09375 
C 35.90625 59.09375 32.90625 59.09375 32.90625 55.59375 
C 32.90625 52.890625 35.09375 52 36.5 52 
C 37.40625 52 40.09375 52.390625 40.09375 55.796875 
C 40.09375 62.296875 35.09375 66 28.203125 66 
C 16.296875 66 3.796875 53.296875 3.796875 31.421875 
C 3.796875 4.015625 15.09375 -2 23.09375 -2 
C 32.796875 -2 42 6.734375 42 20.234375 
C 42 32.828125 33.90625 42 23.703125 42 
C 17.59375 42 13.09375 37.96875 10.59375 30.921875 
z
M 23.09375 0.390625 
C 10.796875 0.390625 10.796875 18.9375 10.796875 22.65625 
C 10.796875 29.90625 14.203125 40.390625 23.5 40.390625 
C 25.203125 40.390625 30.09375 40.390625 33.40625 33.4375 
C 35.203125 29.515625 35.203125 25.375 35.203125 20.34375 
C 35.203125 14.90625 35.203125 10.875 33.09375 6.84375 
C 30.90625 2.703125 27.703125 0.390625 23.09375 0.390625 
z
" id="CMR17-54"/>
       <path d="M 33.59375 64.796875 
C 33.59375 66.890625 33.5 67 31.703125 67 
L 2 19.59375 
L 2 17 
L 27.796875 17 
L 27.796875 7.1875 
C 27.796875 3.59375 27.59375 2.59375 20.59375 2.59375 
L 18.703125 2.59375 
L 18.703125 0 
C 21.90625 0.1875 27.296875 0.1875 30.703125 0.1875 
C 34.09375 0.1875 39.5 0.1875 42.703125 0 
L 42.703125 2.59375 
L 40.796875 2.59375 
C 33.796875 2.59375 33.59375 3.59375 33.59375 7.1875 
L 33.59375 17 
L 43.796875 17 
L 43.796875 19.59375 
L 33.59375 19.59375 
z
M 28.09375 58.171875 
L 28.09375 19.59375 
L 4 19.59375 
z
" id="CMR17-52"/>
       <path d="M 27.203125 35.765625 
C 33.5 38.96875 39.90625 43.796875 39.90625 51.53125 
C 39.90625 60.6875 31.09375 66 23 66 
C 13.90625 66 5.90625 59.375 5.90625 50.234375 
C 5.90625 47.71875 6.5 43.390625 10.40625 39.578125 
C 11.40625 38.578125 15.59375 35.5625 18.296875 33.65625 
C 13.796875 31.34375 3.296875 25.8125 3.296875 14.765625 
C 3.296875 4.40625 13.09375 -2 22.796875 -2 
C 33.5 -2 42.5 5.71875 42.5 15.96875 
C 42.5 25.109375 36.40625 29.328125 32.40625 32.046875 
z
M 14.09375 44.609375 
C 13.296875 45.109375 9.296875 48.21875 9.296875 52.9375 
C 9.296875 59.078125 15.59375 63.6875 22.796875 63.6875 
C 30.703125 63.6875 36.5 58.0625 36.5 51.53125 
C 36.5 42.1875 26.09375 36.859375 25.59375 36.859375 
C 25.5 36.859375 25.40625 36.859375 24.59375 37.46875 
z
M 32.5 24 
C 34 22.90625 38.796875 19.578125 38.796875 13.453125 
C 38.796875 6.015625 31.40625 0.390625 23 0.390625 
C 13.90625 0.390625 7 6.921875 7 14.859375 
C 7 22.796875 13.09375 29.4375 20 32.546875 
z
" id="CMR17-56"/>
       <path d="M 26.296875 24.9375 
C 26.296875 32.140625 25.59375 44.359375 19.59375 57.265625 
C 14.796875 67.6875 6.59375 75 5.40625 75 
C 5.09375 75 4.703125 74.890625 4.703125 74.390625 
C 4.703125 74.1875 4.796875 74.09375 4.90625 73.890625 
C 9.703125 68.875 21.90625 56.171875 21.90625 25.046875 
C 21.90625 -6.1875 9.796875 -18.90625 4.90625 -23.90625 
C 4.796875 -24.109375 4.703125 -24.203125 4.703125 -24.40625 
C 4.703125 -24.90625 5.09375 -25 5.40625 -25 
C 6.5 -25 15 -17.609375 19.90625 -6.59375 
C 24.90625 4.515625 26.296875 15.328125 26.296875 24.9375 
z
" id="CMR17-41"/>
      </defs>
      <use transform="scale(0.996264)" xlink:href="#CMMI12-117"/>
      <use transform="translate(55.52033 0)scale(0.996264)" xlink:href="#CMR17-40"/>
      <use transform="translate(90.801097 0)scale(0.996264)" xlink:href="#CMMI12-120"/>
      <use transform="translate(146.235157 0)scale(0.996264)" xlink:href="#CMMI12-59"/>
      <use transform="translate(189.936739 0)scale(0.996264)" xlink:href="#CMMI12-116"/>
      <use transform="translate(252.837078 0)scale(0.996264)" xlink:href="#CMR17-61"/>
      <use transform="translate(352.225875 0)scale(0.996264)" xlink:href="#CMR17-48"/>
      <use transform="translate(397.916352 0)scale(0.996264)" xlink:href="#CMMI12-58"/>
      <use transform="translate(425.01353 0)scale(0.996264)" xlink:href="#CMR17-54"/>
      <use transform="translate(470.704007 0)scale(0.996264)" xlink:href="#CMR17-52"/>
      <use transform="translate(516.394484 0)scale(0.996264)" xlink:href="#CMR17-56"/>
      <use transform="translate(562.084961 0)scale(0.996264)" xlink:href="#CMR17-41"/>
     </g>
    </g>
   </g>
   <g id="line2d_34">
    <path clip-path="url(#pa53d5a0734)" d="M 22.095036 -1 
L 26.476343 19.98395 
L 38.388606 64.20047 
L 50.300869 97.196161 
L 62.213132 120.86022 
L 74.125395 137.270807 
L 86.037658 148.170406 
L 97.949921 155.245603 
L 109.862184 159.559776 
L 121.774447 162.245375 
L 133.68671 163.672197 
L 145.598973 164.629483 
L 169.423499 165.36084 
L 181.335762 165.258372 
L 193.248025 165.594412 
L 205.160288 165.27793 
L 217.072551 165.715113 
L 228.984814 165.199911 
L 240.897077 165.837771 
L 252.80934 165.067889 
L 264.721603 165.998224 
L 276.633866 164.883156 
L 288.546129 166.212833 
L 300.458392 164.637145 
L 312.370655 166.493165 
L 324.282918 164.320536 
L 336.195181 166.847785 
L 348.107444 163.926917 
L 360.019707 167.280611 
L 371.93197 163.455685 
L 383.844233 167.788269 
L 395.756496 162.914925 
L 407.668759 168.357285 
L 419.581022 162.324095 
L 431.493284 168.961787 
L 443.405547 161.715814 
L 455.31781 169.562302 
L 467.230073 161.136173 
L 479.142336 170.106594 
L 491.054599 160.642781 
L 502.966862 170.532831 
L 514.879125 160.300171 
L 526.791388 170.77559 
L 538.703651 160.172618 
L 550.615914 170.774066 
L 562.528177 160.315001 
L 574.44044 170.481763 
L 586.352703 160.763032 
L 598.264966 169.875945 
L 610.177229 161.524589 
L 622.089492 168.965012 
L 634.001755 162.574155 
L 645.914018 167.791821 
L 657.826281 163.851956 
L 669.738544 166.431908 
L 681.650807 165.268623 
L 693.56307 164.985955 
L 705.475333 166.715207 
L 717.387596 163.567656 
L 729.39952 168.028595 
L 729.39952 168.028595 
" style="fill:none;stroke:#1f77b4;stroke-linecap:square;stroke-width:1.5;"/>
    <defs>
     <path d="M 0 1.5 
C 0.397805 1.5 0.77937 1.341951 1.06066 1.06066 
C 1.341951 0.77937 1.5 0.397805 1.5 0 
C 1.5 -0.397805 1.341951 -0.77937 1.06066 -1.06066 
C 0.77937 -1.341951 0.397805 -1.5 0 -1.5 
C -0.397805 -1.5 -0.77937 -1.341951 -1.06066 -1.06066 
C -1.341951 -0.77937 -1.5 -0.397805 -1.5 0 
C -1.5 0.397805 -1.341951 0.77937 -1.06066 1.06066 
C -0.77937 1.341951 -0.397805 1.5 0 1.5 
z
" id="m9d288e289c" style="stroke:#1f77b4;"/>
    </defs>
    <g clip-path="url(#pa53d5a0734)">
     <use style="fill:#1f77b4;stroke:#1f77b4;" x="22.095036" xlink:href="#m9d288e289c" y="-1"/>
     <use style="fill:#1f77b4;stroke:#1f77b4;" x="26.476343" xlink:href="#m9d288e289c" y="19.98395"/>
     <use style="fill:#1f77b4;stroke:#1f77b4;" x="38.388606" xlink:href="#m9d288e289c" y="64.20047"/>
     <use style="fill:#1f77b4;stroke:#1f77b4;" x="50.300869" xlink:href="#m9d288e289c" y="97.196161"/>
     <use style="fill:#1f77b4;stroke:#1f77b4;" x="62.213132" xlink:href="#m9d288e289c" y="120.86022"/>
     <use style="fill:#1f77b4;stroke:#1f77b4;" x="74.125395" xlink:href="#m9d288e289c" y="137.270807"/>
     <use style="fill:#1f77b4;stroke:#1f77b4;" x="86.037658" xlink:href="#m9d288e289c" y="148.170406"/>
     <use style="fill:#1f77b4;stroke:#1f77b4;" x="97.949921" xlink:href="#m9d288e289c" y="155.245603"/>
     <use style="fill:#1f77b4;stroke:#1f77b4;" x="109.862184" xlink:href="#m9d288e289c" y="159.559776"/>
     <use style="fill:#1f77b4;stroke:#1f77b4;" x="121.774447" xlink:href="#m9d288e289c" y="162.245375"/>
     <use style="fill:#1f77b4;stroke:#1f77b4;" x="133.68671" xlink:href="#m9d288e289c" y="163.672197"/>
     <use style="fill:#1f77b4;stroke:#1f77b4;" x="145.598973" xlink:href="#m9d288e289c" y="164.629483"/>
     <use style="fill:#1f77b4;stroke:#1f77b4;" x="157.511236" xlink:href="#m9d288e289c" y="164.945171"/>
     <use style="fill:#1f77b4;stroke:#1f77b4;" x="169.423499" xlink:href="#m9d288e289c" y="165.36084"/>
     <use style="fill:#1f77b4;stroke:#1f77b4;" x="181.335762" xlink:href="#m9d288e289c" y="165.258372"/>
     <use style="fill:#1f77b4;stroke:#1f77b4;" x="193.248025" xlink:href="#m9d288e289c" y="165.594412"/>
     <use style="fill:#1f77b4;stroke:#1f77b4;" x="205.160288" xlink:href="#m9d288e289c" y="165.27793"/>
     <use style="fill:#1f77b4;stroke:#1f77b4;" x="217.072551" xlink:href="#m9d288e289c" y="165.715113"/>
     <use style="fill:#1f77b4;stroke:#1f77b4;" x="228.984814" xlink:href="#m9d288e289c" y="165.199911"/>
     <use style="fill:#1f77b4;stroke:#1f77b4;" x="240.897077" xlink:href="#m9d288e289c" y="165.837771"/>
     <use style="fill:#1f77b4;stroke:#1f77b4;" x="252.80934" xlink:href="#m9d288e289c" y="165.067889"/>
     <use style="fill:#1f77b4;stroke:#1f77b4;" x="264.721603" xlink:href="#m9d288e289c" y="165.998224"/>
     <use style="fill:#1f77b4;stroke:#1f77b4;" x="276.633866" xlink:href="#m9d288e289c" y="164.883156"/>
     <use style="fill:#1f77b4;stroke:#1f77b4;" x="288.546129" xlink:href="#m9d288e289c" y="166.212833"/>
     <use style="fill:#1f77b4;stroke:#1f77b4;" x="300.458392" xlink:href="#m9d288e289c" y="164.637145"/>
     <use style="fill:#1f77b4;stroke:#1f77b4;" x="312.370655" xlink:href="#m9d288e289c" y="166.493165"/>
     <use style="fill:#1f77b4;stroke:#1f77b4;" x="324.282918" xlink:href="#m9d288e289c" y="164.320536"/>
     <use style="fill:#1f77b4;stroke:#1f77b4;" x="336.195181" xlink:href="#m9d288e289c" y="166.847785"/>
     <use style="fill:#1f77b4;stroke:#1f77b4;" x="348.107444" xlink:href="#m9d288e289c" y="163.926917"/>
     <use style="fill:#1f77b4;stroke:#1f77b4;" x="360.019707" xlink:href="#m9d288e289c" y="167.280611"/>
     <use style="fill:#1f77b4;stroke:#1f77b4;" x="371.93197" xlink:href="#m9d288e289c" y="163.455685"/>
     <use style="fill:#1f77b4;stroke:#1f77b4;" x="383.844233" xlink:href="#m9d288e289c" y="167.788269"/>
     <use style="fill:#1f77b4;stroke:#1f77b4;" x="395.756496" xlink:href="#m9d288e289c" y="162.914925"/>
     <use style="fill:#1f77b4;stroke:#1f77b4;" x="407.668759" xlink:href="#m9d288e289c" y="168.357285"/>
     <use style="fill:#1f77b4;stroke:#1f77b4;" x="419.581022" xlink:href="#m9d288e289c" y="162.324095"/>
     <use style="fill:#1f77b4;stroke:#1f77b4;" x="431.493284" xlink:href="#m9d288e289c" y="168.961787"/>
     <use style="fill:#1f77b4;stroke:#1f77b4;" x="443.405547" xlink:href="#m9d288e289c" y="161.715814"/>
     <use style="fill:#1f77b4;stroke:#1f77b4;" x="455.31781" xlink:href="#m9d288e289c" y="169.562302"/>
     <use style="fill:#1f77b4;stroke:#1f77b4;" x="467.230073" xlink:href="#m9d288e289c" y="161.136173"/>
     <use style="fill:#1f77b4;stroke:#1f77b4;" x="479.142336" xlink:href="#m9d288e289c" y="170.106594"/>
     <use style="fill:#1f77b4;stroke:#1f77b4;" x="491.054599" xlink:href="#m9d288e289c" y="160.642781"/>
     <use style="fill:#1f77b4;stroke:#1f77b4;" x="502.966862" xlink:href="#m9d288e289c" y="170.532831"/>
     <use style="fill:#1f77b4;stroke:#1f77b4;" x="514.879125" xlink:href="#m9d288e289c" y="160.300171"/>
     <use style="fill:#1f77b4;stroke:#1f77b4;" x="526.791388" xlink:href="#m9d288e289c" y="170.77559"/>
     <use style="fill:#1f77b4;stroke:#1f77b4;" x="538.703651" xlink:href="#m9d288e289c" y="160.172618"/>
     <use style="fill:#1f77b4;stroke:#1f77b4;" x="550.615914" xlink:href="#m9d288e289c" y="170.774066"/>
     <use style="fill:#1f77b4;stroke:#1f77b4;" x="562.528177" xlink:href="#m9d288e289c" y="160.315001"/>
     <use style="fill:#1f77b4;stroke:#1f77b4;" x="574.44044" xlink:href="#m9d288e289c" y="170.481763"/>
     <use style="fill:#1f77b4;stroke:#1f77b4;" x="586.352703" xlink:href="#m9d288e289c" y="160.763032"/>
     <use style="fill:#1f77b4;stroke:#1f77b4;" x="598.264966" xlink:href="#m9d288e289c" y="169.875945"/>
     <use style="fill:#1f77b4;stroke:#1f77b4;" x="610.177229" xlink:href="#m9d288e289c" y="161.524589"/>
     <use style="fill:#1f77b4;stroke:#1f77b4;" x="622.089492" xlink:href="#m9d288e289c" y="168.965012"/>
     <use style="fill:#1f77b4;stroke:#1f77b4;" x="634.001755" xlink:href="#m9d288e289c" y="162.574155"/>
     <use style="fill:#1f77b4;stroke:#1f77b4;" x="645.914018" xlink:href="#m9d288e289c" y="167.791821"/>
     <use style="fill:#1f77b4;stroke:#1f77b4;" x="657.826281" xlink:href="#m9d288e289c" y="163.851956"/>
     <use style="fill:#1f77b4;stroke:#1f77b4;" x="669.738544" xlink:href="#m9d288e289c" y="166.431908"/>
     <use style="fill:#1f77b4;stroke:#1f77b4;" x="681.650807" xlink:href="#m9d288e289c" y="165.268623"/>
     <use style="fill:#1f77b4;stroke:#1f77b4;" x="693.56307" xlink:href="#m9d288e289c" y="164.985955"/>
     <use style="fill:#1f77b4;stroke:#1f77b4;" x="705.475333" xlink:href="#m9d288e289c" y="166.715207"/>
     <use style="fill:#1f77b4;stroke:#1f77b4;" x="717.387596" xlink:href="#m9d288e289c" y="163.567656"/>
     <use style="fill:#1f77b4;stroke:#1f77b4;" x="729.299859" xlink:href="#m9d288e289c" y="168.077021"/>
     <use style="fill:#1f77b4;stroke:#1f77b4;" x="741.212122" xlink:href="#m9d288e289c" y="162.288816"/>
     <use style="fill:#1f77b4;stroke:#1f77b4;" x="753.124385" xlink:href="#m9d288e289c" y="169.248946"/>
     <use style="fill:#1f77b4;stroke:#1f77b4;" x="765.036648" xlink:href="#m9d288e289c" y="161.244424"/>
     <use style="fill:#1f77b4;stroke:#1f77b4;" x="776.948911" xlink:href="#m9d288e289c" y="170.149174"/>
     <use style="fill:#1f77b4;stroke:#1f77b4;" x="788.861174" xlink:href="#m9d288e289c" y="160.500577"/>
     <use style="fill:#1f77b4;stroke:#1f77b4;" x="800.773437" xlink:href="#m9d288e289c" y="170.729092"/>
     <use style="fill:#1f77b4;stroke:#1f77b4;" x="812.6857" xlink:href="#m9d288e289c" y="160.087408"/>
     <use style="fill:#1f77b4;stroke:#1f77b4;" x="824.597963" xlink:href="#m9d288e289c" y="170.977282"/>
     <use style="fill:#1f77b4;stroke:#1f77b4;" x="836.510226" xlink:href="#m9d288e289c" y="159.998162"/>
     <use style="fill:#1f77b4;stroke:#1f77b4;" x="848.422489" xlink:href="#m9d288e289c" y="170.917438"/>
     <use style="fill:#1f77b4;stroke:#1f77b4;" x="860.334752" xlink:href="#m9d288e289c" y="160.194037"/>
     <use style="fill:#1f77b4;stroke:#1f77b4;" x="872.247015" xlink:href="#m9d288e289c" y="170.601094"/>
     <use style="fill:#1f77b4;stroke:#1f77b4;" x="884.159277" xlink:href="#m9d288e289c" y="160.613497"/>
     <use style="fill:#1f77b4;stroke:#1f77b4;" x="896.07154" xlink:href="#m9d288e289c" y="170.096929"/>
     <use style="fill:#1f77b4;stroke:#1f77b4;" x="907.983803" xlink:href="#m9d288e289c" y="161.183621"/>
     <use style="fill:#1f77b4;stroke:#1f77b4;" x="919.896066" xlink:href="#m9d288e289c" y="169.479269"/>
     <use style="fill:#1f77b4;stroke:#1f77b4;" x="931.808329" xlink:href="#m9d288e289c" y="161.831277"/>
     <use style="fill:#1f77b4;stroke:#1f77b4;" x="943.720592" xlink:href="#m9d288e289c" y="168.817782"/>
     <use style="fill:#1f77b4;stroke:#1f77b4;" x="955.632855" xlink:href="#m9d288e289c" y="162.49215"/>
     <use style="fill:#1f77b4;stroke:#1f77b4;" x="967.545118" xlink:href="#m9d288e289c" y="168.170017"/>
     <use style="fill:#1f77b4;stroke:#1f77b4;" x="979.457381" xlink:href="#m9d288e289c" y="163.116419"/>
     <use style="fill:#1f77b4;stroke:#1f77b4;" x="991.369644" xlink:href="#m9d288e289c" y="167.577495"/>
     <use style="fill:#1f77b4;stroke:#1f77b4;" x="1003.281907" xlink:href="#m9d288e289c" y="163.67099"/>
     <use style="fill:#1f77b4;stroke:#1f77b4;" x="1015.19417" xlink:href="#m9d288e289c" y="167.065049"/>
     <use style="fill:#1f77b4;stroke:#1f77b4;" x="1027.106433" xlink:href="#m9d288e289c" y="164.13871"/>
     <use style="fill:#1f77b4;stroke:#1f77b4;" x="1039.018696" xlink:href="#m9d288e289c" y="166.64269"/>
     <use style="fill:#1f77b4;stroke:#1f77b4;" x="1050.930959" xlink:href="#m9d288e289c" y="164.515304"/>
     <use style="fill:#1f77b4;stroke:#1f77b4;" x="1062.843222" xlink:href="#m9d288e289c" y="166.308546"/>
     <use style="fill:#1f77b4;stroke:#1f77b4;" x="1074.755485" xlink:href="#m9d288e289c" y="164.804736"/>
     <use style="fill:#1f77b4;stroke:#1f77b4;" x="1086.667748" xlink:href="#m9d288e289c" y="166.05066"/>
     <use style="fill:#1f77b4;stroke:#1f77b4;" x="1098.580011" xlink:href="#m9d288e289c" y="165.010906"/>
     <use style="fill:#1f77b4;stroke:#1f77b4;" x="1110.492274" xlink:href="#m9d288e289c" y="165.841445"/>
     <use style="fill:#1f77b4;stroke:#1f77b4;" x="1122.404537" xlink:href="#m9d288e289c" y="165.116435"/>
     <use style="fill:#1f77b4;stroke:#1f77b4;" x="1134.3168" xlink:href="#m9d288e289c" y="165.605562"/>
     <use style="fill:#1f77b4;stroke:#1f77b4;" x="1146.229063" xlink:href="#m9d288e289c" y="165.016667"/>
     <use style="fill:#1f77b4;stroke:#1f77b4;" x="1158.141326" xlink:href="#m9d288e289c" y="165.10983"/>
     <use style="fill:#1f77b4;stroke:#1f77b4;" x="1170.053589" xlink:href="#m9d288e289c" y="164.315807"/>
     <use style="fill:#1f77b4;stroke:#1f77b4;" x="1181.965852" xlink:href="#m9d288e289c" y="163.62013"/>
    </g>
   </g>
   <g id="patch_3">
    <path d="M 65.548566 195.170171 
L 65.548566 7.2 
" style="fill:none;stroke:#000000;stroke-linecap:square;stroke-linejoin:miter;stroke-width:0.8;"/>
   </g>
   <g id="patch_4">
    <path d="M 721.19952 195.170171 
L 721.19952 7.2 
" style="fill:none;stroke:#000000;stroke-linecap:square;stroke-linejoin:miter;stroke-width:0.8;"/>
   </g>
   <g id="patch_5">
    <path d="M 65.548566 195.170171 
L 721.19952 195.170171 
" style="fill:none;stroke:#000000;stroke-linecap:square;stroke-linejoin:miter;stroke-width:0.8;"/>
   </g>
   <g id="patch_6">
    <path d="M 65.548566 7.2 
L 721.19952 7.2 
" style="fill:none;stroke:#000000;stroke-linecap:square;stroke-linejoin:miter;stroke-width:0.8;"/>
   </g>
  </g>
  <g id="axes_2">
   <g id="patch_7">
    <path d="M 65.548566 396.960822 
L 721.19952 396.960822 
L 721.19952 208.990651 
L 65.548566 208.990651 
z
" style="fill:#ffffff;"/>
   </g>
   <g id="line2d_35">
    <path clip-path="url(#pe29745be0d)" d="M 23.058451 -1 
L 26.619577 25.894557 
L 29.675228 48.074434 
L 32.730878 69.42637 
L 35.786529 89.920962 
L 38.842179 109.535902 
L 41.89783 128.255667 
L 44.953481 146.07116 
L 48.009131 162.979318 
L 51.064782 178.982685 
L 54.120433 194.088965 
L 57.176083 208.310556 
L 60.231734 221.664079 
L 63.287384 234.169895 
L 66.343035 245.851636 
L 69.398686 256.735737 
L 72.454336 266.850984 
L 75.509987 276.228073 
L 78.565638 284.899202 
L 81.621288 292.897673 
L 84.676939 300.25753 
L 87.732589 307.013222 
L 90.78824 313.19929 
L 93.843891 318.850091 
L 96.899541 323.999553 
L 99.955192 328.680949 
L 103.010843 332.926715 
L 106.066493 336.768282 
L 109.122144 340.23595 
L 112.177794 343.358774 
L 115.233445 346.164483 
L 118.289096 348.679418 
L 121.344746 350.928494 
L 124.400397 352.935173 
L 127.456048 354.721462 
L 130.511698 356.307921 
L 133.567349 357.713684 
L 136.622999 358.956496 
L 139.67865 360.052748 
L 142.734301 361.017533 
L 148.845602 362.60691 
L 154.956903 363.821571 
L 161.068204 364.741573 
L 167.179506 365.432204 
L 176.346457 366.150152 
L 185.513409 366.602033 
L 197.736012 366.946931 
L 216.069916 367.172738 
L 246.626422 367.26719 
L 384.1307 367.281321 
L 729.39952 367.281321 
L 729.39952 367.281321 
" style="fill:none;stroke:#808080;stroke-linecap:square;stroke-opacity:0.5;stroke-width:2;"/>
   </g>
   <g id="matplotlib.axis_3">
    <g id="xtick_9">
     <g id="line2d_36">
      <path clip-path="url(#pe29745be0d)" d="M 126.539352 396.960822 
L 126.539352 208.990651 
" style="fill:none;stroke:#b0b0b0;stroke-dasharray:0.8,1.32;stroke-dashoffset:0;stroke-width:0.8;"/>
     </g>
     <g id="line2d_37">
      <g>
       <use style="stroke:#000000;stroke-width:0.8;" x="126.539352" xlink:href="#m5fd74fbaf3" y="396.960822"/>
      </g>
     </g>
     <g id="text_10">
      <!-- $\mathdefault{−0.20}$ -->
      <g transform="translate(113.809273 410.049105)scale(0.1 -0.1)">
       <use transform="scale(0.996264)" xlink:href="#CMSY10-0"/>
       <use transform="translate(77.487468 0)scale(0.996264)" xlink:href="#CMR17-48"/>
       <use transform="translate(123.177945 0)scale(0.996264)" xlink:href="#CMMI12-58"/>
       <use transform="translate(150.275122 0)scale(0.996264)" xlink:href="#CMR17-50"/>
       <use transform="translate(195.965599 0)scale(0.996264)" xlink:href="#CMR17-48"/>
      </g>
     </g>
    </g>
    <g id="xtick_10">
     <g id="line2d_38">
      <path clip-path="url(#pe29745be0d)" d="M 202.777835 396.960822 
L 202.777835 208.990651 
" style="fill:none;stroke:#b0b0b0;stroke-dasharray:0.8,1.32;stroke-dashoffset:0;stroke-width:0.8;"/>
     </g>
     <g id="line2d_39">
      <g>
       <use style="stroke:#000000;stroke-width:0.8;" x="202.777835" xlink:href="#m5fd74fbaf3" y="396.960822"/>
      </g>
     </g>
     <g id="text_11">
      <!-- $\mathdefault{−0.15}$ -->
      <g transform="translate(190.047756 410.049105)scale(0.1 -0.1)">
       <use transform="scale(0.996264)" xlink:href="#CMSY10-0"/>
       <use transform="translate(77.487468 0)scale(0.996264)" xlink:href="#CMR17-48"/>
       <use transform="translate(123.177945 0)scale(0.996264)" xlink:href="#CMMI12-58"/>
       <use transform="translate(150.275122 0)scale(0.996264)" xlink:href="#CMR17-49"/>
       <use transform="translate(195.965599 0)scale(0.996264)" xlink:href="#CMR17-53"/>
      </g>
     </g>
    </g>
    <g id="xtick_11">
     <g id="line2d_40">
      <path clip-path="url(#pe29745be0d)" d="M 279.016318 396.960822 
L 279.016318 208.990651 
" style="fill:none;stroke:#b0b0b0;stroke-dasharray:0.8,1.32;stroke-dashoffset:0;stroke-width:0.8;"/>
     </g>
     <g id="line2d_41">
      <g>
       <use style="stroke:#000000;stroke-width:0.8;" x="279.016318" xlink:href="#m5fd74fbaf3" y="396.960822"/>
      </g>
     </g>
     <g id="text_12">
      <!-- $\mathdefault{−0.10}$ -->
      <g transform="translate(266.286239 410.049105)scale(0.1 -0.1)">
       <use transform="scale(0.996264)" xlink:href="#CMSY10-0"/>
       <use transform="translate(77.487468 0)scale(0.996264)" xlink:href="#CMR17-48"/>
       <use transform="translate(123.177945 0)scale(0.996264)" xlink:href="#CMMI12-58"/>
       <use transform="translate(150.275122 0)scale(0.996264)" xlink:href="#CMR17-49"/>
       <use transform="translate(195.965599 0)scale(0.996264)" xlink:href="#CMR17-48"/>
      </g>
     </g>
    </g>
    <g id="xtick_12">
     <g id="line2d_42">
      <path clip-path="url(#pe29745be0d)" d="M 355.254801 396.960822 
L 355.254801 208.990651 
" style="fill:none;stroke:#b0b0b0;stroke-dasharray:0.8,1.32;stroke-dashoffset:0;stroke-width:0.8;"/>
     </g>
     <g id="line2d_43">
      <g>
       <use style="stroke:#000000;stroke-width:0.8;" x="355.254801" xlink:href="#m5fd74fbaf3" y="396.960822"/>
      </g>
     </g>
     <g id="text_13">
      <!-- $\mathdefault{−0.05}$ -->
      <g transform="translate(342.524722 410.049105)scale(0.1 -0.1)">
       <use transform="scale(0.996264)" xlink:href="#CMSY10-0"/>
       <use transform="translate(77.487468 0)scale(0.996264)" xlink:href="#CMR17-48"/>
       <use transform="translate(123.177945 0)scale(0.996264)" xlink:href="#CMMI12-58"/>
       <use transform="translate(150.275122 0)scale(0.996264)" xlink:href="#CMR17-48"/>
       <use transform="translate(195.965599 0)scale(0.996264)" xlink:href="#CMR17-53"/>
      </g>
     </g>
    </g>
    <g id="xtick_13">
     <g id="line2d_44">
      <path clip-path="url(#pe29745be0d)" d="M 431.493284 396.960822 
L 431.493284 208.990651 
" style="fill:none;stroke:#b0b0b0;stroke-dasharray:0.8,1.32;stroke-dashoffset:0;stroke-width:0.8;"/>
     </g>
     <g id="line2d_45">
      <g>
       <use style="stroke:#000000;stroke-width:0.8;" x="431.493284" xlink:href="#m5fd74fbaf3" y="396.960822"/>
      </g>
     </g>
     <g id="text_14">
      <!-- $\mathdefault{0.00}$ -->
      <g transform="translate(422.637577 410.049105)scale(0.1 -0.1)">
       <use transform="scale(0.996264)" xlink:href="#CMR17-48"/>
       <use transform="translate(45.690477 0)scale(0.996264)" xlink:href="#CMMI12-58"/>
       <use transform="translate(72.787654 0)scale(0.996264)" xlink:href="#CMR17-48"/>
       <use transform="translate(118.478131 0)scale(0.996264)" xlink:href="#CMR17-48"/>
      </g>
     </g>
    </g>
    <g id="xtick_14">
     <g id="line2d_46">
      <path clip-path="url(#pe29745be0d)" d="M 507.731768 396.960822 
L 507.731768 208.990651 
" style="fill:none;stroke:#b0b0b0;stroke-dasharray:0.8,1.32;stroke-dashoffset:0;stroke-width:0.8;"/>
     </g>
     <g id="line2d_47">
      <g>
       <use style="stroke:#000000;stroke-width:0.8;" x="507.731768" xlink:href="#m5fd74fbaf3" y="396.960822"/>
      </g>
     </g>
     <g id="text_15">
      <!-- $\mathdefault{0.05}$ -->
      <g transform="translate(498.87606 410.049105)scale(0.1 -0.1)">
       <use transform="scale(0.996264)" xlink:href="#CMR17-48"/>
       <use transform="translate(45.690477 0)scale(0.996264)" xlink:href="#CMMI12-58"/>
       <use transform="translate(72.787654 0)scale(0.996264)" xlink:href="#CMR17-48"/>
       <use transform="translate(118.478131 0)scale(0.996264)" xlink:href="#CMR17-53"/>
      </g>
     </g>
    </g>
    <g id="xtick_15">
     <g id="line2d_48">
      <path clip-path="url(#pe29745be0d)" d="M 583.970251 396.960822 
L 583.970251 208.990651 
" style="fill:none;stroke:#b0b0b0;stroke-dasharray:0.8,1.32;stroke-dashoffset:0;stroke-width:0.8;"/>
     </g>
     <g id="line2d_49">
      <g>
       <use style="stroke:#000000;stroke-width:0.8;" x="583.970251" xlink:href="#m5fd74fbaf3" y="396.960822"/>
      </g>
     </g>
     <g id="text_16">
      <!-- $\mathdefault{0.10}$ -->
      <g transform="translate(575.114543 410.049105)scale(0.1 -0.1)">
       <use transform="scale(0.996264)" xlink:href="#CMR17-48"/>
       <use transform="translate(45.690477 0)scale(0.996264)" xlink:href="#CMMI12-58"/>
       <use transform="translate(72.787654 0)scale(0.996264)" xlink:href="#CMR17-49"/>
       <use transform="translate(118.478131 0)scale(0.996264)" xlink:href="#CMR17-48"/>
      </g>
     </g>
    </g>
    <g id="xtick_16">
     <g id="line2d_50">
      <path clip-path="url(#pe29745be0d)" d="M 660.208734 396.960822 
L 660.208734 208.990651 
" style="fill:none;stroke:#b0b0b0;stroke-dasharray:0.8,1.32;stroke-dashoffset:0;stroke-width:0.8;"/>
     </g>
     <g id="line2d_51">
      <g>
       <use style="stroke:#000000;stroke-width:0.8;" x="660.208734" xlink:href="#m5fd74fbaf3" y="396.960822"/>
      </g>
     </g>
     <g id="text_17">
      <!-- $\mathdefault{0.15}$ -->
      <g transform="translate(651.353026 410.049105)scale(0.1 -0.1)">
       <use transform="scale(0.996264)" xlink:href="#CMR17-48"/>
       <use transform="translate(45.690477 0)scale(0.996264)" xlink:href="#CMMI12-58"/>
       <use transform="translate(72.787654 0)scale(0.996264)" xlink:href="#CMR17-49"/>
       <use transform="translate(118.478131 0)scale(0.996264)" xlink:href="#CMR17-53"/>
      </g>
     </g>
    </g>
    <g id="text_18">
     <!-- $x\:/\:L$ -->
     <g transform="translate(375.111108 428.965398)scale(0.17 -0.17)">
      <defs>
       <path d="M 42.90625 71.296875 
C 42.90625 71.390625 43.5 72.890625 43.5 73.09375 
C 43.5 74.296875 42.5 75 41.703125 75 
C 41.203125 75 40.296875 75 39.5 72.796875 
L 6 -21.3125 
C 6 -21.40625 5.40625 -22.90625 5.40625 -23.109375 
C 5.40625 -24.3125 6.40625 -25 7.203125 -25 
C 7.796875 -25 8.703125 -24.90625 9.40625 -22.8125 
z
" id="CMMI12-61"/>
       <path d="M 36.703125 60.3125 
C 37.59375 64.09375 37.90625 65.09375 46.703125 65.09375 
C 49.40625 65.09375 50.09375 65.09375 50.09375 66.984375 
C 50.09375 68 49 68 48.59375 68 
C 46.59375 68 44.296875 67.796875 42.296875 67.796875 
L 28.90625 67.796875 
C 27 67.796875 24.796875 68 22.90625 68 
C 22.09375 68 21 68 21 66.09375 
C 21 65.09375 21.90625 65.09375 23.40625 65.09375 
C 29.5 65.09375 29.5 64.296875 29.5 63.203125 
C 29.5 63 29.5 62.40625 29.09375 60.90625 
L 15.59375 7.375 
C 14.703125 3.890625 14.5 2.890625 7.5 2.890625 
C 5.59375 2.890625 4.59375 2.890625 4.59375 1.09375 
C 4.59375 0 5.203125 0 7.203125 0 
L 52 0 
C 54.203125 0 54.296875 0.09375 55 1.890625 
L 62.703125 23.09375 
C 62.90625 23.59375 63.09375 24.1875 63.09375 24.484375 
C 63.09375 25.078125 62.59375 25.484375 62.09375 25.484375 
C 62 25.484375 61.5 25.484375 61.296875 25.078125 
C 61.09375 24.984375 61.09375 24.78125 60.296875 22.890625 
C 57.09375 14.140625 52.59375 2.890625 35.703125 2.890625 
L 26.09375 2.890625 
C 24.703125 2.890625 24.5 2.890625 23.90625 2.984375 
C 22.796875 3.09375 22.703125 3.296875 22.703125 4.09375 
C 22.703125 4.78125 22.90625 5.375 23.09375 6.28125 
z
" id="CMMI12-76"/>
      </defs>
      <use transform="scale(0.996264)" xlink:href="#CMMI12-120"/>
      <use transform="translate(77.573267 0)scale(0.996264)" xlink:href="#CMMI12-61"/>
      <use transform="translate(148.487392 0)scale(0.996264)" xlink:href="#CMMI12-76"/>
     </g>
    </g>
   </g>
   <g id="matplotlib.axis_4">
    <g id="ytick_9">
     <g id="line2d_52">
      <path clip-path="url(#pe29745be0d)" d="M 65.548566 392.014238 
L 721.19952 392.014238 
" style="fill:none;stroke:#b0b0b0;stroke-dasharray:0.8,1.32;stroke-dashoffset:0;stroke-width:0.8;"/>
     </g>
     <g id="line2d_53">
      <g>
       <use style="stroke:#000000;stroke-width:0.8;" x="65.548566" xlink:href="#mf1f0ed7cf0" y="392.014238"/>
      </g>
     </g>
     <g id="text_19">
      <!-- $\mathdefault{−0.025}$ -->
      <g transform="translate(28.107073 395.05838)scale(0.1 -0.1)">
       <use transform="scale(0.996264)" xlink:href="#CMSY10-0"/>
       <use transform="translate(77.487468 0)scale(0.996264)" xlink:href="#CMR17-48"/>
       <use transform="translate(123.177945 0)scale(0.996264)" xlink:href="#CMMI12-58"/>
       <use transform="translate(150.275122 0)scale(0.996264)" xlink:href="#CMR17-48"/>
       <use transform="translate(195.965599 0)scale(0.996264)" xlink:href="#CMR17-50"/>
       <use transform="translate(241.656076 0)scale(0.996264)" xlink:href="#CMR17-53"/>
      </g>
     </g>
    </g>
    <g id="ytick_10">
     <g id="line2d_54">
      <path clip-path="url(#pe29745be0d)" d="M 65.548566 367.281321 
L 721.19952 367.281321 
" style="fill:none;stroke:#b0b0b0;stroke-dasharray:0.8,1.32;stroke-dashoffset:0;stroke-width:0.8;"/>
     </g>
     <g id="line2d_55">
      <g>
       <use style="stroke:#000000;stroke-width:0.8;" x="65.548566" xlink:href="#mf1f0ed7cf0" y="367.281321"/>
      </g>
     </g>
     <g id="text_20">
      <!-- $\mathdefault{0.000}$ -->
      <g transform="translate(35.855816 370.325463)scale(0.1 -0.1)">
       <use transform="scale(0.996264)" xlink:href="#CMR17-48"/>
       <use transform="translate(45.690477 0)scale(0.996264)" xlink:href="#CMMI12-58"/>
       <use transform="translate(72.787654 0)scale(0.996264)" xlink:href="#CMR17-48"/>
       <use transform="translate(118.478131 0)scale(0.996264)" xlink:href="#CMR17-48"/>
       <use transform="translate(164.168608 0)scale(0.996264)" xlink:href="#CMR17-48"/>
      </g>
     </g>
    </g>
    <g id="ytick_11">
     <g id="line2d_56">
      <path clip-path="url(#pe29745be0d)" d="M 65.548566 342.548404 
L 721.19952 342.548404 
" style="fill:none;stroke:#b0b0b0;stroke-dasharray:0.8,1.32;stroke-dashoffset:0;stroke-width:0.8;"/>
     </g>
     <g id="line2d_57">
      <g>
       <use style="stroke:#000000;stroke-width:0.8;" x="65.548566" xlink:href="#mf1f0ed7cf0" y="342.548404"/>
      </g>
     </g>
     <g id="text_21">
      <!-- $\mathdefault{0.025}$ -->
      <g transform="translate(35.855816 345.592545)scale(0.1 -0.1)">
       <use transform="scale(0.996264)" xlink:href="#CMR17-48"/>
       <use transform="translate(45.690477 0)scale(0.996264)" xlink:href="#CMMI12-58"/>
       <use transform="translate(72.787654 0)scale(0.996264)" xlink:href="#CMR17-48"/>
       <use transform="translate(118.478131 0)scale(0.996264)" xlink:href="#CMR17-50"/>
       <use transform="translate(164.168608 0)scale(0.996264)" xlink:href="#CMR17-53"/>
      </g>
     </g>
    </g>
    <g id="ytick_12">
     <g id="line2d_58">
      <path clip-path="url(#pe29745be0d)" d="M 65.548566 317.815487 
L 721.19952 317.815487 
" style="fill:none;stroke:#b0b0b0;stroke-dasharray:0.8,1.32;stroke-dashoffset:0;stroke-width:0.8;"/>
     </g>
     <g id="line2d_59">
      <g>
       <use style="stroke:#000000;stroke-width:0.8;" x="65.548566" xlink:href="#mf1f0ed7cf0" y="317.815487"/>
      </g>
     </g>
     <g id="text_22">
      <!-- $\mathdefault{0.050}$ -->
      <g transform="translate(35.855816 320.859628)scale(0.1 -0.1)">
       <use transform="scale(0.996264)" xlink:href="#CMR17-48"/>
       <use transform="translate(45.690477 0)scale(0.996264)" xlink:href="#CMMI12-58"/>
       <use transform="translate(72.787654 0)scale(0.996264)" xlink:href="#CMR17-48"/>
       <use transform="translate(118.478131 0)scale(0.996264)" xlink:href="#CMR17-53"/>
       <use transform="translate(164.168608 0)scale(0.996264)" xlink:href="#CMR17-48"/>
      </g>
     </g>
    </g>
    <g id="ytick_13">
     <g id="line2d_60">
      <path clip-path="url(#pe29745be0d)" d="M 65.548566 293.082569 
L 721.19952 293.082569 
" style="fill:none;stroke:#b0b0b0;stroke-dasharray:0.8,1.32;stroke-dashoffset:0;stroke-width:0.8;"/>
     </g>
     <g id="line2d_61">
      <g>
       <use style="stroke:#000000;stroke-width:0.8;" x="65.548566" xlink:href="#mf1f0ed7cf0" y="293.082569"/>
      </g>
     </g>
     <g id="text_23">
      <!-- $\mathdefault{0.075}$ -->
      <g transform="translate(35.855816 296.126711)scale(0.1 -0.1)">
       <use transform="scale(0.996264)" xlink:href="#CMR17-48"/>
       <use transform="translate(45.690477 0)scale(0.996264)" xlink:href="#CMMI12-58"/>
       <use transform="translate(72.787654 0)scale(0.996264)" xlink:href="#CMR17-48"/>
       <use transform="translate(118.478131 0)scale(0.996264)" xlink:href="#CMR17-55"/>
       <use transform="translate(164.168608 0)scale(0.996264)" xlink:href="#CMR17-53"/>
      </g>
     </g>
    </g>
    <g id="ytick_14">
     <g id="line2d_62">
      <path clip-path="url(#pe29745be0d)" d="M 65.548566 268.349652 
L 721.19952 268.349652 
" style="fill:none;stroke:#b0b0b0;stroke-dasharray:0.8,1.32;stroke-dashoffset:0;stroke-width:0.8;"/>
     </g>
     <g id="line2d_63">
      <g>
       <use style="stroke:#000000;stroke-width:0.8;" x="65.548566" xlink:href="#mf1f0ed7cf0" y="268.349652"/>
      </g>
     </g>
     <g id="text_24">
      <!-- $\mathdefault{0.100}$ -->
      <g transform="translate(35.855816 271.393794)scale(0.1 -0.1)">
       <use transform="scale(0.996264)" xlink:href="#CMR17-48"/>
       <use transform="translate(45.690477 0)scale(0.996264)" xlink:href="#CMMI12-58"/>
       <use transform="translate(72.787654 0)scale(0.996264)" xlink:href="#CMR17-49"/>
       <use transform="translate(118.478131 0)scale(0.996264)" xlink:href="#CMR17-48"/>
       <use transform="translate(164.168608 0)scale(0.996264)" xlink:href="#CMR17-48"/>
      </g>
     </g>
    </g>
    <g id="ytick_15">
     <g id="line2d_64">
      <path clip-path="url(#pe29745be0d)" d="M 65.548566 243.616735 
L 721.19952 243.616735 
" style="fill:none;stroke:#b0b0b0;stroke-dasharray:0.8,1.32;stroke-dashoffset:0;stroke-width:0.8;"/>
     </g>
     <g id="line2d_65">
      <g>
       <use style="stroke:#000000;stroke-width:0.8;" x="65.548566" xlink:href="#mf1f0ed7cf0" y="243.616735"/>
      </g>
     </g>
     <g id="text_25">
      <!-- $\mathdefault{0.125}$ -->
      <g transform="translate(35.855816 246.660877)scale(0.1 -0.1)">
       <use transform="scale(0.996264)" xlink:href="#CMR17-48"/>
       <use transform="translate(45.690477 0)scale(0.996264)" xlink:href="#CMMI12-58"/>
       <use transform="translate(72.787654 0)scale(0.996264)" xlink:href="#CMR17-49"/>
       <use transform="translate(118.478131 0)scale(0.996264)" xlink:href="#CMR17-50"/>
       <use transform="translate(164.168608 0)scale(0.996264)" xlink:href="#CMR17-53"/>
      </g>
     </g>
    </g>
    <g id="ytick_16">
     <g id="line2d_66">
      <path clip-path="url(#pe29745be0d)" d="M 65.548566 218.883818 
L 721.19952 218.883818 
" style="fill:none;stroke:#b0b0b0;stroke-dasharray:0.8,1.32;stroke-dashoffset:0;stroke-width:0.8;"/>
     </g>
     <g id="line2d_67">
      <g>
       <use style="stroke:#000000;stroke-width:0.8;" x="65.548566" xlink:href="#mf1f0ed7cf0" y="218.883818"/>
      </g>
     </g>
     <g id="text_26">
      <!-- $\mathdefault{0.150}$ -->
      <g transform="translate(35.855816 221.927959)scale(0.1 -0.1)">
       <use transform="scale(0.996264)" xlink:href="#CMR17-48"/>
       <use transform="translate(45.690477 0)scale(0.996264)" xlink:href="#CMMI12-58"/>
       <use transform="translate(72.787654 0)scale(0.996264)" xlink:href="#CMR17-49"/>
       <use transform="translate(118.478131 0)scale(0.996264)" xlink:href="#CMR17-53"/>
       <use transform="translate(164.168608 0)scale(0.996264)" xlink:href="#CMR17-48"/>
      </g>
     </g>
    </g>
    <g id="text_27">
     <!-- $u(x, t=0.672)$ -->
     <g transform="translate(19.887119 353.751795)rotate(-90)scale(0.17 -0.17)">
      <use transform="scale(0.996264)" xlink:href="#CMMI12-117"/>
      <use transform="translate(55.52033 0)scale(0.996264)" xlink:href="#CMR17-40"/>
      <use transform="translate(90.801097 0)scale(0.996264)" xlink:href="#CMMI12-120"/>
      <use transform="translate(146.235157 0)scale(0.996264)" xlink:href="#CMMI12-59"/>
      <use transform="translate(189.936739 0)scale(0.996264)" xlink:href="#CMMI12-116"/>
      <use transform="translate(252.837078 0)scale(0.996264)" xlink:href="#CMR17-61"/>
      <use transform="translate(352.225875 0)scale(0.996264)" xlink:href="#CMR17-48"/>
      <use transform="translate(397.916352 0)scale(0.996264)" xlink:href="#CMMI12-58"/>
      <use transform="translate(425.01353 0)scale(0.996264)" xlink:href="#CMR17-54"/>
      <use transform="translate(470.704007 0)scale(0.996264)" xlink:href="#CMR17-55"/>
      <use transform="translate(516.394484 0)scale(0.996264)" xlink:href="#CMR17-50"/>
      <use transform="translate(562.084961 0)scale(0.996264)" xlink:href="#CMR17-41"/>
     </g>
    </g>
   </g>
   <g id="line2d_68">
    <path clip-path="url(#pe29745be0d)" d="M 25.089043 -1 
L 26.476343 10.111285 
L 38.388606 93.999404 
L 50.300869 164.758302 
L 62.213132 221.701392 
L 74.125395 266.062352 
L 86.037658 298.881944 
L 97.949921 322.774535 
L 109.862184 338.904355 
L 121.774447 350.157733 
L 133.68671 356.796345 
L 145.598973 361.649764 
L 157.511236 363.673372 
L 169.423499 365.907734 
L 181.335762 365.883456 
L 193.248025 367.384137 
L 205.160288 366.375454 
L 217.072551 367.974579 
L 228.984814 366.288314 
L 240.897077 368.361368 
L 252.80934 365.990846 
L 264.721603 368.755591 
L 276.633866 365.584109 
L 288.546129 369.21223 
L 300.458392 365.095396 
L 312.370655 369.737201 
L 324.282918 364.541131 
L 336.195181 370.316198 
L 348.107444 363.945197 
L 360.019707 370.920226 
L 371.93197 363.343841 
L 383.844233 371.506613 
L 395.756496 362.786192 
L 407.668759 372.020593 
L 419.581022 362.3317 
L 431.493284 372.399294 
L 443.405547 362.045036 
L 455.31781 372.578251 
L 467.230073 361.988308 
L 479.142336 372.500006 
L 491.054599 362.211864 
L 502.966862 372.123779 
L 514.879125 362.744641 
L 526.791388 371.434472 
L 538.703651 363.586243 
L 550.615914 370.449153 
L 562.528177 364.7024 
L 574.44044 369.219185 
L 586.352703 366.025393 
L 598.264966 367.827114 
L 610.177229 367.460091 
L 622.089492 366.377922 
L 634.001755 368.894916 
L 645.914018 364.986116 
L 657.826281 370.216238 
L 669.738544 363.7606 
L 681.650807 371.32356 
L 693.56307 362.790189 
L 705.475333 372.142556 
L 717.387596 362.132531 
L 729.299859 372.633692 
L 729.39952 372.543125 
L 729.39952 372.543125 
" style="fill:none;stroke:#1f77b4;stroke-linecap:square;stroke-width:1.5;"/>
    <g clip-path="url(#pe29745be0d)">
     <use style="fill:#1f77b4;stroke:#1f77b4;" x="25.089043" xlink:href="#m9d288e289c" y="-1"/>
     <use style="fill:#1f77b4;stroke:#1f77b4;" x="26.476343" xlink:href="#m9d288e289c" y="10.111285"/>
     <use style="fill:#1f77b4;stroke:#1f77b4;" x="38.388606" xlink:href="#m9d288e289c" y="93.999404"/>
     <use style="fill:#1f77b4;stroke:#1f77b4;" x="50.300869" xlink:href="#m9d288e289c" y="164.758302"/>
     <use style="fill:#1f77b4;stroke:#1f77b4;" x="62.213132" xlink:href="#m9d288e289c" y="221.701392"/>
     <use style="fill:#1f77b4;stroke:#1f77b4;" x="74.125395" xlink:href="#m9d288e289c" y="266.062352"/>
     <use style="fill:#1f77b4;stroke:#1f77b4;" x="86.037658" xlink:href="#m9d288e289c" y="298.881944"/>
     <use style="fill:#1f77b4;stroke:#1f77b4;" x="97.949921" xlink:href="#m9d288e289c" y="322.774535"/>
     <use style="fill:#1f77b4;stroke:#1f77b4;" x="109.862184" xlink:href="#m9d288e289c" y="338.904355"/>
     <use style="fill:#1f77b4;stroke:#1f77b4;" x="121.774447" xlink:href="#m9d288e289c" y="350.157733"/>
     <use style="fill:#1f77b4;stroke:#1f77b4;" x="133.68671" xlink:href="#m9d288e289c" y="356.796345"/>
     <use style="fill:#1f77b4;stroke:#1f77b4;" x="145.598973" xlink:href="#m9d288e289c" y="361.649764"/>
     <use style="fill:#1f77b4;stroke:#1f77b4;" x="157.511236" xlink:href="#m9d288e289c" y="363.673372"/>
     <use style="fill:#1f77b4;stroke:#1f77b4;" x="169.423499" xlink:href="#m9d288e289c" y="365.907734"/>
     <use style="fill:#1f77b4;stroke:#1f77b4;" x="181.335762" xlink:href="#m9d288e289c" y="365.883456"/>
     <use style="fill:#1f77b4;stroke:#1f77b4;" x="193.248025" xlink:href="#m9d288e289c" y="367.384137"/>
     <use style="fill:#1f77b4;stroke:#1f77b4;" x="205.160288" xlink:href="#m9d288e289c" y="366.375454"/>
     <use style="fill:#1f77b4;stroke:#1f77b4;" x="217.072551" xlink:href="#m9d288e289c" y="367.974579"/>
     <use style="fill:#1f77b4;stroke:#1f77b4;" x="228.984814" xlink:href="#m9d288e289c" y="366.288314"/>
     <use style="fill:#1f77b4;stroke:#1f77b4;" x="240.897077" xlink:href="#m9d288e289c" y="368.361368"/>
     <use style="fill:#1f77b4;stroke:#1f77b4;" x="252.80934" xlink:href="#m9d288e289c" y="365.990846"/>
     <use style="fill:#1f77b4;stroke:#1f77b4;" x="264.721603" xlink:href="#m9d288e289c" y="368.755591"/>
     <use style="fill:#1f77b4;stroke:#1f77b4;" x="276.633866" xlink:href="#m9d288e289c" y="365.584109"/>
     <use style="fill:#1f77b4;stroke:#1f77b4;" x="288.546129" xlink:href="#m9d288e289c" y="369.21223"/>
     <use style="fill:#1f77b4;stroke:#1f77b4;" x="300.458392" xlink:href="#m9d288e289c" y="365.095396"/>
     <use style="fill:#1f77b4;stroke:#1f77b4;" x="312.370655" xlink:href="#m9d288e289c" y="369.737201"/>
     <use style="fill:#1f77b4;stroke:#1f77b4;" x="324.282918" xlink:href="#m9d288e289c" y="364.541131"/>
     <use style="fill:#1f77b4;stroke:#1f77b4;" x="336.195181" xlink:href="#m9d288e289c" y="370.316198"/>
     <use style="fill:#1f77b4;stroke:#1f77b4;" x="348.107444" xlink:href="#m9d288e289c" y="363.945197"/>
     <use style="fill:#1f77b4;stroke:#1f77b4;" x="360.019707" xlink:href="#m9d288e289c" y="370.920226"/>
     <use style="fill:#1f77b4;stroke:#1f77b4;" x="371.93197" xlink:href="#m9d288e289c" y="363.343841"/>
     <use style="fill:#1f77b4;stroke:#1f77b4;" x="383.844233" xlink:href="#m9d288e289c" y="371.506613"/>
     <use style="fill:#1f77b4;stroke:#1f77b4;" x="395.756496" xlink:href="#m9d288e289c" y="362.786192"/>
     <use style="fill:#1f77b4;stroke:#1f77b4;" x="407.668759" xlink:href="#m9d288e289c" y="372.020593"/>
     <use style="fill:#1f77b4;stroke:#1f77b4;" x="419.581022" xlink:href="#m9d288e289c" y="362.3317"/>
     <use style="fill:#1f77b4;stroke:#1f77b4;" x="431.493284" xlink:href="#m9d288e289c" y="372.399294"/>
     <use style="fill:#1f77b4;stroke:#1f77b4;" x="443.405547" xlink:href="#m9d288e289c" y="362.045036"/>
     <use style="fill:#1f77b4;stroke:#1f77b4;" x="455.31781" xlink:href="#m9d288e289c" y="372.578251"/>
     <use style="fill:#1f77b4;stroke:#1f77b4;" x="467.230073" xlink:href="#m9d288e289c" y="361.988308"/>
     <use style="fill:#1f77b4;stroke:#1f77b4;" x="479.142336" xlink:href="#m9d288e289c" y="372.500006"/>
     <use style="fill:#1f77b4;stroke:#1f77b4;" x="491.054599" xlink:href="#m9d288e289c" y="362.211864"/>
     <use style="fill:#1f77b4;stroke:#1f77b4;" x="502.966862" xlink:href="#m9d288e289c" y="372.123779"/>
     <use style="fill:#1f77b4;stroke:#1f77b4;" x="514.879125" xlink:href="#m9d288e289c" y="362.744641"/>
     <use style="fill:#1f77b4;stroke:#1f77b4;" x="526.791388" xlink:href="#m9d288e289c" y="371.434472"/>
     <use style="fill:#1f77b4;stroke:#1f77b4;" x="538.703651" xlink:href="#m9d288e289c" y="363.586243"/>
     <use style="fill:#1f77b4;stroke:#1f77b4;" x="550.615914" xlink:href="#m9d288e289c" y="370.449153"/>
     <use style="fill:#1f77b4;stroke:#1f77b4;" x="562.528177" xlink:href="#m9d288e289c" y="364.7024"/>
     <use style="fill:#1f77b4;stroke:#1f77b4;" x="574.44044" xlink:href="#m9d288e289c" y="369.219185"/>
     <use style="fill:#1f77b4;stroke:#1f77b4;" x="586.352703" xlink:href="#m9d288e289c" y="366.025393"/>
     <use style="fill:#1f77b4;stroke:#1f77b4;" x="598.264966" xlink:href="#m9d288e289c" y="367.827114"/>
     <use style="fill:#1f77b4;stroke:#1f77b4;" x="610.177229" xlink:href="#m9d288e289c" y="367.460091"/>
     <use style="fill:#1f77b4;stroke:#1f77b4;" x="622.089492" xlink:href="#m9d288e289c" y="366.377922"/>
     <use style="fill:#1f77b4;stroke:#1f77b4;" x="634.001755" xlink:href="#m9d288e289c" y="368.894916"/>
     <use style="fill:#1f77b4;stroke:#1f77b4;" x="645.914018" xlink:href="#m9d288e289c" y="364.986116"/>
     <use style="fill:#1f77b4;stroke:#1f77b4;" x="657.826281" xlink:href="#m9d288e289c" y="370.216238"/>
     <use style="fill:#1f77b4;stroke:#1f77b4;" x="669.738544" xlink:href="#m9d288e289c" y="363.7606"/>
     <use style="fill:#1f77b4;stroke:#1f77b4;" x="681.650807" xlink:href="#m9d288e289c" y="371.32356"/>
     <use style="fill:#1f77b4;stroke:#1f77b4;" x="693.56307" xlink:href="#m9d288e289c" y="362.790189"/>
     <use style="fill:#1f77b4;stroke:#1f77b4;" x="705.475333" xlink:href="#m9d288e289c" y="372.142556"/>
     <use style="fill:#1f77b4;stroke:#1f77b4;" x="717.387596" xlink:href="#m9d288e289c" y="362.132531"/>
     <use style="fill:#1f77b4;stroke:#1f77b4;" x="729.299859" xlink:href="#m9d288e289c" y="372.633692"/>
     <use style="fill:#1f77b4;stroke:#1f77b4;" x="741.212122" xlink:href="#m9d288e289c" y="361.808411"/>
     <use style="fill:#1f77b4;stroke:#1f77b4;" x="753.124385" xlink:href="#m9d288e289c" y="372.794813"/>
     <use style="fill:#1f77b4;stroke:#1f77b4;" x="765.036648" xlink:href="#m9d288e289c" y="361.802208"/>
     <use style="fill:#1f77b4;stroke:#1f77b4;" x="776.948911" xlink:href="#m9d288e289c" y="372.657723"/>
     <use style="fill:#1f77b4;stroke:#1f77b4;" x="788.861174" xlink:href="#m9d288e289c" y="362.068047"/>
     <use style="fill:#1f77b4;stroke:#1f77b4;" x="800.773437" xlink:href="#m9d288e289c" y="372.279844"/>
     <use style="fill:#1f77b4;stroke:#1f77b4;" x="812.6857" xlink:href="#m9d288e289c" y="362.539833"/>
     <use style="fill:#1f77b4;stroke:#1f77b4;" x="824.597963" xlink:href="#m9d288e289c" y="371.732999"/>
     <use style="fill:#1f77b4;stroke:#1f77b4;" x="836.510226" xlink:href="#m9d288e289c" y="363.14291"/>
     <use style="fill:#1f77b4;stroke:#1f77b4;" x="848.422489" xlink:href="#m9d288e289c" y="371.091882"/>
     <use style="fill:#1f77b4;stroke:#1f77b4;" x="860.334752" xlink:href="#m9d288e289c" y="363.805011"/>
     <use style="fill:#1f77b4;stroke:#1f77b4;" x="872.247015" xlink:href="#m9d288e289c" y="370.424261"/>
     <use style="fill:#1f77b4;stroke:#1f77b4;" x="884.159277" xlink:href="#m9d288e289c" y="364.464588"/>
     <use style="fill:#1f77b4;stroke:#1f77b4;" x="896.07154" xlink:href="#m9d288e289c" y="369.784213"/>
     <use style="fill:#1f77b4;stroke:#1f77b4;" x="907.983803" xlink:href="#m9d288e289c" y="365.075778"/>
     <use style="fill:#1f77b4;stroke:#1f77b4;" x="919.896066" xlink:href="#m9d288e289c" y="369.209064"/>
     <use style="fill:#1f77b4;stroke:#1f77b4;" x="931.808329" xlink:href="#m9d288e289c" y="365.609762"/>
     <use style="fill:#1f77b4;stroke:#1f77b4;" x="943.720592" xlink:href="#m9d288e289c" y="368.719491"/>
     <use style="fill:#1f77b4;stroke:#1f77b4;" x="955.632855" xlink:href="#m9d288e289c" y="366.053361"/>
     <use style="fill:#1f77b4;stroke:#1f77b4;" x="967.545118" xlink:href="#m9d288e289c" y="368.322003"/>
     <use style="fill:#1f77b4;stroke:#1f77b4;" x="979.457381" xlink:href="#m9d288e289c" y="366.405771"/>
     <use style="fill:#1f77b4;stroke:#1f77b4;" x="991.369644" xlink:href="#m9d288e289c" y="368.012692"/>
     <use style="fill:#1f77b4;stroke:#1f77b4;" x="1003.281907" xlink:href="#m9d288e289c" y="366.674645"/>
     <use style="fill:#1f77b4;stroke:#1f77b4;" x="1015.19417" xlink:href="#m9d288e289c" y="367.781123"/>
     <use style="fill:#1f77b4;stroke:#1f77b4;" x="1027.106433" xlink:href="#m9d288e289c" y="366.872311"/>
     <use style="fill:#1f77b4;stroke:#1f77b4;" x="1039.018696" xlink:href="#m9d288e289c" y="367.613824"/>
     <use style="fill:#1f77b4;stroke:#1f77b4;" x="1050.930959" xlink:href="#m9d288e289c" y="367.012693"/>
     <use style="fill:#1f77b4;stroke:#1f77b4;" x="1062.843222" xlink:href="#m9d288e289c" y="367.496852"/>
     <use style="fill:#1f77b4;stroke:#1f77b4;" x="1074.755485" xlink:href="#m9d288e289c" y="367.109117"/>
     <use style="fill:#1f77b4;stroke:#1f77b4;" x="1086.667748" xlink:href="#m9d288e289c" y="367.417248"/>
     <use style="fill:#1f77b4;stroke:#1f77b4;" x="1098.580011" xlink:href="#m9d288e289c" y="367.172639"/>
     <use style="fill:#1f77b4;stroke:#1f77b4;" x="1110.492274" xlink:href="#m9d288e289c" y="367.362914"/>
     <use style="fill:#1f77b4;stroke:#1f77b4;" x="1122.404537" xlink:href="#m9d288e289c" y="367.209434"/>
     <use style="fill:#1f77b4;stroke:#1f77b4;" x="1134.3168" xlink:href="#m9d288e289c" y="367.318311"/>
     <use style="fill:#1f77b4;stroke:#1f77b4;" x="1146.229063" xlink:href="#m9d288e289c" y="367.211715"/>
     <use style="fill:#1f77b4;stroke:#1f77b4;" x="1158.141326" xlink:href="#m9d288e289c" y="367.246627"/>
     <use style="fill:#1f77b4;stroke:#1f77b4;" x="1170.053589" xlink:href="#m9d288e289c" y="367.122255"/>
     <use style="fill:#1f77b4;stroke:#1f77b4;" x="1181.965852" xlink:href="#m9d288e289c" y="367.021165"/>
    </g>
   </g>
   <g id="patch_8">
    <path d="M 65.548566 396.960822 
L 65.548566 208.990651 
" style="fill:none;stroke:#000000;stroke-linecap:square;stroke-linejoin:miter;stroke-width:0.8;"/>
   </g>
   <g id="patch_9">
    <path d="M 721.19952 396.960822 
L 721.19952 208.990651 
" style="fill:none;stroke:#000000;stroke-linecap:square;stroke-linejoin:miter;stroke-width:0.8;"/>
   </g>
   <g id="patch_10">
    <path d="M 65.548566 396.960822 
L 721.19952 396.960822 
" style="fill:none;stroke:#000000;stroke-linecap:square;stroke-linejoin:miter;stroke-width:0.8;"/>
   </g>
   <g id="patch_11">
    <path d="M 65.548566 208.990651 
L 721.19952 208.990651 
" style="fill:none;stroke:#000000;stroke-linecap:square;stroke-linejoin:miter;stroke-width:0.8;"/>
   </g>
   <g id="legend_1">
    <g id="patch_12">
     <path d="M 524.281089 265.587088 
L 710.69952 265.587088 
Q 713.69952 265.587088 713.69952 262.587088 
L 713.69952 219.490651 
Q 713.69952 216.490651 710.69952 216.490651 
L 524.281089 216.490651 
Q 521.281089 216.490651 521.281089 219.490651 
L 521.281089 262.587088 
Q 521.281089 265.587088 524.281089 265.587088 
z
" style="fill:#ffffff;opacity:0.8;stroke:#cccccc;stroke-linejoin:miter;"/>
    </g>
    <g id="line2d_69">
     <path d="M 527.281089 228.717995 
L 557.281089 228.717995 
" style="fill:none;stroke:#1f77b4;stroke-linecap:square;stroke-width:1.5;"/>
    </g>
    <g id="line2d_70">
     <g>
      <use style="fill:#1f77b4;stroke:#1f77b4;" x="542.281089" xlink:href="#m9d288e289c" y="228.717995"/>
     </g>
    </g>
    <g id="text_28">
     <!-- Numerical solution -->
     <g transform="translate(569.281089 233.967995)scale(0.15 -0.15)">
      <defs>
       <path d="M 18.703125 57.59375 
C 17.5 61 15.5 61 13.40625 61 
L 6.90625 61 
C 5.40625 61 2.90625 61 2.90625 58.09375 
C 2.90625 55.1875 5.5 55.1875 6.90625 55.1875 
L 9.09375 55.1875 
L 9.09375 5.796875 
L 6.90625 5.796875 
C 5.5 5.796875 2.90625 5.796875 2.90625 2.890625 
C 2.90625 0 5.40625 0 6.90625 0 
L 16.90625 0 
C 18.296875 0 21 0 21 2.890625 
C 21 5.796875 18.296875 5.796875 16.90625 5.796875 
L 14.703125 5.796875 
L 14.703125 54.09375 
L 14.796875 54.09375 
C 15.09375 53 16 50.40625 17.796875 45.3125 
L 32.703125 3.390625 
C 33.90625 0 35.90625 0 38.09375 0 
C 41.09375 0 42.296875 0.296875 42.296875 4.09375 
L 42.296875 55.1875 
L 44.5 55.1875 
C 45.90625 55.1875 48.5 55.1875 48.5 58.09375 
C 48.5 61 46 61 44.5 61 
L 34.5 61 
C 33.09375 61 30.40625 61 30.40625 58.09375 
C 30.40625 55.1875 33.09375 55.1875 34.5 55.1875 
L 36.703125 55.1875 
L 36.703125 6.890625 
L 36.59375 6.890625 
C 36.296875 7.984375 35.40625 10.578125 33.59375 15.671875 
z
" id="CMTT12-78"/>
       <path d="M 41.796875 38.890625 
C 41.796875 41.984375 41.203125 43 37.796875 43 
L 31.203125 43 
C 29.796875 43 27.203125 43 27.203125 40.09375 
C 27.203125 37.1875 29.796875 37.1875 31.203125 37.1875 
L 35.296875 37.1875 
L 35.296875 15.296875 
C 35.296875 7.015625 28.5 4.796875 24 4.796875 
C 16.09375 4.796875 16.09375 8.421875 16.09375 11.5625 
L 16.09375 38.890625 
C 16.09375 41.984375 15.5 43 12.09375 43 
L 5.5 43 
C 4.09375 43 1.5 43 1.5 40.09375 
C 1.5 37.1875 4.09375 37.1875 5.5 37.1875 
L 9.59375 37.1875 
L 9.59375 11.046875 
C 9.59375 1.796875 15.59375 -1 23.296875 -1 
C 29.40625 -1 33.203125 1.5 35.203125 3.1875 
C 35.203125 -0.40625 37.59375 -0.40625 39.296875 -0.40625 
L 45.90625 -0.40625 
C 47.296875 -0.40625 49.90625 -0.40625 49.90625 2.5 
C 49.90625 5.390625 47.296875 5.390625 45.90625 5.390625 
L 41.796875 5.390625 
z
" id="CMTT12-117"/>
       <path d="M 45.296875 30.515625 
C 45.296875 32.75 45.296875 44 36.5 44 
C 33 44 29.59375 42.390625 26.90625 38.6875 
C 26.296875 40.1875 24.09375 44 19.296875 44 
C 14.796875 44 11.703125 41.09375 10.90625 40.1875 
C 10.796875 43.390625 8.703125 43.390625 6.90625 43.390625 
L 3.90625 43.390625 
C 2.5 43.390625 -0.109375 43.390625 -0.109375 40.484375 
C -0.109375 37.59375 2.203125 37.59375 5.296875 37.59375 
L 5.296875 5.796875 
C 2.09375 5.796875 -0.109375 5.796875 -0.109375 2.890625 
C -0.109375 0 2.5 0 3.90625 0 
L 12.296875 0 
C 13.703125 0 16.296875 0 16.296875 2.890625 
C 16.296875 5.796875 14 5.796875 10.90625 5.796875 
L 10.90625 24.359375 
C 10.90625 32.84375 14.5 38.1875 18.90625 38.1875 
C 21.703125 38.1875 22.5 34.65625 22.5 29.921875 
L 22.5 5.796875 
C 20.796875 5.796875 18.09375 5.796875 18.09375 2.890625 
C 18.09375 0 20.796875 0 22.203125 0 
L 29.5 0 
C 30.90625 0 33.5 0 33.5 2.890625 
C 33.5 5.796875 31.203125 5.796875 28.09375 5.796875 
L 28.09375 24.359375 
C 28.09375 32.84375 31.703125 38.1875 36.09375 38.1875 
C 38.90625 38.1875 39.703125 34.65625 39.703125 29.921875 
L 39.703125 5.796875 
C 38 5.796875 35.296875 5.796875 35.296875 2.890625 
C 35.296875 0 38 0 39.40625 0 
L 46.703125 0 
C 48.09375 0 50.703125 0 50.703125 2.890625 
C 50.703125 5.796875 48.40625 5.796875 45.296875 5.796875 
z
" id="CMTT12-109"/>
       <path d="M 41.59375 19 
C 43.703125 19 45.59375 19 45.59375 22.6875 
C 45.59375 34.53125 39 44 26.5 44 
C 14.90625 44 5.59375 33.921875 5.59375 21.59375 
C 5.59375 8.84375 15.703125 -1 28 -1 
C 40.90625 -1 45.59375 7.9375 45.59375 10.578125 
C 45.59375 11.1875 45.40625 13.40625 42.296875 13.40625 
C 40.40625 13.40625 39.796875 12.703125 39.203125 11.1875 
C 36.703125 5.296875 30.203125 4.796875 28.296875 4.796875 
C 20 4.796875 13.40625 11.1875 12.296875 19 
z
M 12.40625 24.5 
C 13.703125 33.125 20.203125 38.1875 26.5 38.1875 
C 36.5 38.1875 38.59375 29.5625 39 24.5 
z
" id="CMTT12-101"/>
       <path d="M 21.59375 18.84375 
C 21.59375 30.71875 30 37.796875 38.5 37.796875 
C 39 37.796875 39.59375 37.796875 40.09375 37.6875 
C 40.40625 34.109375 43.203125 33.796875 43.90625 33.796875 
C 46.203125 33.796875 47.796875 35.5 47.796875 37.6875 
C 47.796875 41.984375 43.59375 43.59375 38.59375 43.59375 
C 31.90625 43.59375 26.203125 40.59375 21.59375 35 
L 21.59375 38.890625 
C 21.59375 41.984375 21 43 17.59375 43 
L 7.5 43 
C 6.09375 43 3.5 43 3.5 40.09375 
C 3.5 37.1875 6.09375 37.1875 7.5 37.1875 
L 15.09375 37.1875 
L 15.09375 5.796875 
L 7.5 5.796875 
C 6.09375 5.796875 3.5 5.796875 3.5 2.890625 
C 3.5 0 6.09375 0 7.5 0 
L 32.09375 0 
C 33.5 0 36.09375 0 36.09375 2.890625 
C 36.09375 5.796875 33.5 5.796875 32.09375 5.796875 
L 21.59375 5.796875 
z
" id="CMTT12-114"/>
       <path d="M 30.203125 56.484375 
C 30.203125 58.984375 28.203125 61 25.703125 61 
C 23.203125 61 21.203125 58.984375 21.203125 56.484375 
C 21.203125 53.984375 23.203125 51.984375 25.703125 51.984375 
C 28.203125 51.984375 30.203125 53.984375 30.203125 56.484375 
z
M 13 43 
C 11.59375 43 9 43 9 40.09375 
C 9 37.1875 11.59375 37.1875 13 37.1875 
L 23.703125 37.1875 
L 23.703125 5.796875 
L 12.296875 5.796875 
C 10.90625 5.796875 8.203125 5.796875 8.203125 2.890625 
C 8.203125 0 10.90625 0 12.296875 0 
L 40.09375 0 
C 41.5 0 44.09375 0 44.09375 2.890625 
C 44.09375 5.796875 41.5 5.796875 40.09375 5.796875 
L 30.203125 5.796875 
L 30.203125 38.890625 
C 30.203125 41.984375 29.59375 43 26.203125 43 
z
" id="CMTT12-105"/>
       <path d="M 45.59375 10.5625 
C 45.59375 13.1875 43.09375 13.1875 42.296875 13.1875 
C 40 13.1875 39.59375 12.390625 39.09375 10.96875 
C 36.90625 5.40625 32 4.796875 29.59375 4.796875 
C 21.09375 4.796875 13.90625 11.984375 13.90625 21.390625 
C 13.90625 26.546875 16.796875 38.1875 29.90625 38.1875 
C 32.59375 38.1875 34.703125 37.984375 35.59375 37.890625 
C 36.296875 37.6875 36.40625 37.578125 36.40625 37.078125 
C 36.703125 32.921875 39.796875 32.828125 40.40625 32.828125 
C 42.59375 32.828125 44.5 34.34375 44.5 37.078125 
C 44.5 44 34.40625 44 30 44 
C 12.90625 44 7.40625 29.890625 7.40625 21.390625 
C 7.40625 9.046875 16.703125 -1 28.703125 -1 
C 42.09375 -1 45.59375 8.9375 45.59375 10.5625 
z
" id="CMTT12-99"/>
       <path d="M 41.40625 28.578125 
C 41.40625 36.03125 35.703125 44 22.203125 44 
C 18 44 8.296875 44 8.296875 37.109375 
C 8.296875 34.46875 10.203125 33 12.40625 33 
C 13 33 16.296875 33.1875 16.40625 37.3125 
C 16.40625 37.796875 16.5 37.890625 18.59375 38.09375 
C 19.796875 38.1875 21.09375 38.1875 22.296875 38.1875 
C 24.59375 38.1875 28 38.1875 31.296875 35.734375 
C 34.90625 33 34.90625 30.25 34.90625 27.390625 
C 29 27.1875 23.203125 26.796875 17 24.796875 
C 12 23.09375 5.59375 19.40625 5.59375 12.359375 
C 5.59375 5 11.90625 -1 21.203125 -1 
C 24.40625 -1 30.59375 -0.5 35.796875 3.09375 
C 37.796875 -0.203125 42.796875 -0.40625 46.59375 -0.40625 
C 49 -0.40625 51.40625 -0.40625 51.40625 2.5 
C 51.40625 5.421875 48.796875 5.421875 47.40625 5.421875 
C 44.796875 5.421875 42.796875 5.625 41.40625 6.25 
z
M 34.90625 13.078125 
C 34.90625 10.703125 34.90625 8.515625 30.796875 6.546875 
C 27.296875 4.796875 22.59375 4.796875 22.296875 4.796875 
C 16.40625 4.796875 12.09375 8.109375 12.09375 12.359375 
C 12.09375 18.46875 22.796875 22 34.90625 22 
z
" id="CMTT12-97"/>
       <path d="M 29 56.890625 
C 29 59.984375 28.40625 61 25 61 
L 10.296875 61 
C 8.90625 61 6.296875 61 6.296875 58.09375 
C 6.296875 55.1875 8.90625 55.1875 10.296875 55.1875 
L 22.5 55.1875 
L 22.5 5.796875 
L 10.296875 5.796875 
C 8.90625 5.796875 6.296875 5.796875 6.296875 2.890625 
C 6.296875 0 8.90625 0 10.296875 0 
L 41.203125 0 
C 42.59375 0 45.203125 0 45.203125 2.890625 
C 45.203125 5.796875 42.59375 5.796875 41.203125 5.796875 
L 29 5.796875 
z
" id="CMTT12-108"/>
       <path d="M 42 40.1875 
C 42 41.796875 42 44 39.203125 44 
C 36.796875 44 36.203125 41.6875 36.203125 41.59375 
C 32.203125 44 27.59375 44 25.59375 44 
C 9.296875 44 7.09375 35.65625 7.09375 32.21875 
C 7.09375 28.078125 9.5 25.234375 12.90625 23.3125 
C 16.09375 21.5 19 20.984375 27.203125 19.671875 
C 31.09375 18.96875 39.09375 17.640625 39.09375 12.078125 
C 39.09375 8.328125 35.703125 4.796875 26.40625 4.796875 
C 20 4.796875 15.796875 7.328125 13.703125 14.609375 
C 13.203125 16.03125 12.90625 17.140625 10.40625 17.140625 
C 7.09375 17.140625 7.09375 15.21875 7.09375 13.1875 
L 7.09375 2.796875 
C 7.09375 1.1875 7.09375 -1 9.90625 -1 
C 11.09375 -1 12 -1 13.5 3.09375 
C 18.09375 -0.703125 23.296875 -1 26.40625 -1 
C 44.90625 -1 44.90625 11.0625 44.90625 12.078125 
C 44.90625 22.609375 32.5 24.734375 27.703125 25.4375 
C 18.90625 26.953125 12.90625 27.96875 12.90625 32.21875 
C 12.90625 34.953125 16 38.1875 25.40625 38.1875 
C 34.90625 38.1875 35.296875 33.640625 35.5 31 
C 35.703125 28.984375 37.5 28.671875 38.703125 28.671875 
C 42 28.671875 42 30.5 42 32.53125 
z
" id="CMTT12-115"/>
       <path d="M 45.59375 21.390625 
C 45.59375 34.046875 36.5 44 25.703125 44 
C 14.90625 44 5.796875 34.046875 5.796875 21.390625 
C 5.796875 8.640625 15 -1 25.703125 -1 
C 36.40625 -1 45.59375 8.640625 45.59375 21.390625 
z
M 25.703125 4.796875 
C 18.5 4.796875 12.296875 12.484375 12.296875 22.09375 
C 12.296875 31.515625 18.703125 38.1875 25.703125 38.1875 
C 32.703125 38.1875 39.09375 31.515625 39.09375 22.09375 
C 39.09375 12.390625 32.90625 4.796875 25.703125 4.796875 
z
" id="CMTT12-111"/>
       <path d="M 21.59375 37.1875 
L 37.796875 37.1875 
C 39.203125 37.1875 41.796875 37.1875 41.796875 40.09375 
C 41.796875 43 39.203125 43 37.796875 43 
L 21.59375 43 
L 21.59375 50.953125 
C 21.59375 52.703125 21.59375 55 18.40625 55 
C 15.09375 55 15.09375 52.703125 15.09375 50.953125 
L 15.09375 43 
L 6.59375 43 
C 5.203125 43 2.5 43 2.5 40.09375 
C 2.5 37.1875 5.09375 37.1875 6.5 37.1875 
L 15.09375 37.1875 
L 15.09375 11.75 
C 15.09375 2.390625 21.5 -1 28.703125 -1 
C 34.09375 -1 44 1.6875 44 11.953125 
C 44 13.984375 44 16.203125 40.703125 16.203125 
C 37.5 16.203125 37.5 13.984375 37.5 11.859375 
C 37.40625 5.796875 31.703125 4.796875 29.40625 4.796875 
C 21.59375 4.796875 21.59375 9.84375 21.59375 12.265625 
z
" id="CMTT12-116"/>
       <path d="M 41.796875 29.515625 
C 41.796875 39.390625 37.203125 44 29 44 
C 22.203125 44 17.796875 40.1875 16.09375 38.296875 
C 16.09375 41.984375 16.09375 43.390625 12.09375 43.390625 
L 5.5 43.390625 
C 4.09375 43.390625 1.5 43.390625 1.5 40.484375 
C 1.5 37.59375 4.09375 37.59375 5.5 37.59375 
L 9.59375 37.59375 
L 9.59375 5.796875 
L 5.5 5.796875 
C 4.09375 5.796875 1.5 5.796875 1.5 2.890625 
C 1.5 0 4.09375 0 5.5 0 
L 20.203125 0 
C 21.59375 0 24.203125 0 24.203125 2.890625 
C 24.203125 5.796875 21.59375 5.796875 20.203125 5.796875 
L 16.09375 5.796875 
L 16.09375 24.0625 
C 16.09375 33.859375 22.90625 38.1875 28.296875 38.1875 
C 34.09375 38.1875 35.296875 34.859375 35.296875 29.109375 
L 35.296875 5.796875 
L 31.203125 5.796875 
C 29.796875 5.796875 27.203125 5.796875 27.203125 2.890625 
C 27.203125 0 29.796875 0 31.203125 0 
L 45.90625 0 
C 47.296875 0 49.90625 0 49.90625 2.890625 
C 49.90625 5.796875 47.296875 5.796875 45.90625 5.796875 
L 41.796875 5.796875 
z
" id="CMTT12-110"/>
      </defs>
      <use transform="scale(0.996264)" xlink:href="#CMTT12-78"/>
      <use transform="translate(51.266111 0)scale(0.996264)" xlink:href="#CMTT12-117"/>
      <use transform="translate(102.532222 0)scale(0.996264)" xlink:href="#CMTT12-109"/>
      <use transform="translate(153.798333 0)scale(0.996264)" xlink:href="#CMTT12-101"/>
      <use transform="translate(205.064443 0)scale(0.996264)" xlink:href="#CMTT12-114"/>
      <use transform="translate(256.330554 0)scale(0.996264)" xlink:href="#CMTT12-105"/>
      <use transform="translate(307.596665 0)scale(0.996264)" xlink:href="#CMTT12-99"/>
      <use transform="translate(358.862776 0)scale(0.996264)" xlink:href="#CMTT12-97"/>
      <use transform="translate(410.128887 0)scale(0.996264)" xlink:href="#CMTT12-108"/>
      <use transform="translate(512.661108 0)scale(0.996264)" xlink:href="#CMTT12-115"/>
      <use transform="translate(563.927219 0)scale(0.996264)" xlink:href="#CMTT12-111"/>
      <use transform="translate(615.19333 0)scale(0.996264)" xlink:href="#CMTT12-108"/>
      <use transform="translate(666.459441 0)scale(0.996264)" xlink:href="#CMTT12-117"/>
      <use transform="translate(717.725552 0)scale(0.996264)" xlink:href="#CMTT12-116"/>
      <use transform="translate(768.991663 0)scale(0.996264)" xlink:href="#CMTT12-105"/>
      <use transform="translate(820.257774 0)scale(0.996264)" xlink:href="#CMTT12-111"/>
      <use transform="translate(871.523884 0)scale(0.996264)" xlink:href="#CMTT12-110"/>
     </g>
    </g>
    <g id="line2d_71">
     <path d="M 527.281089 251.016213 
L 557.281089 251.016213 
" style="fill:none;stroke:#808080;stroke-linecap:square;stroke-opacity:0.5;stroke-width:2;"/>
    </g>
    <g id="line2d_72"/>
    <g id="text_29">
     <!-- Analytic solution -->
     <g transform="translate(569.281089 256.266213)scale(0.15 -0.15)">
      <defs>
       <path d="M 30.796875 59.375 
C 30 63 28 63 25.703125 63 
C 22.59375 63 21.40625 62.59375 20.703125 59.375 
L 8.296875 5.796875 
C 5 5.796875 2.703125 5.796875 2.703125 2.890625 
C 2.703125 0 5.40625 0 6.796875 0 
L 16.40625 0 
C 17.796875 0 20.5 0 20.5 2.890625 
C 20.5 5.796875 18.09375 5.796875 15 5.796875 
L 17.59375 17 
L 33.796875 17 
L 36.40625 5.796875 
C 33.296875 5.796875 30.90625 5.796875 30.90625 2.890625 
C 30.90625 0 33.59375 0 35 0 
L 44.59375 0 
C 46 0 48.703125 0 48.703125 2.890625 
C 48.703125 5.796875 46.40625 5.796875 43.09375 5.796875 
z
M 18.90625 22.796875 
C 19.59375 25.828125 25.09375 49.75 25.59375 54.609375 
L 25.703125 54.609375 
C 26 52.28125 27.40625 46.09375 27.40625 46 
L 32.5 22.796875 
z
" id="CMTT12-65"/>
       <path d="M 42.40625 37.1875 
L 45 37.1875 
C 46.40625 37.1875 49.09375 37.1875 49.09375 40.09375 
C 49.09375 43 46.40625 43 45 43 
L 34 43 
C 32.59375 43 29.90625 43 29.90625 40.09375 
C 29.90625 37.1875 32.59375 37.1875 34 37.1875 
L 36.5 37.1875 
C 33.703125 28.96875 28 12.234375 26.59375 6.53125 
L 26.5 6.53125 
C 26 8.734375 25.59375 9.828125 24.59375 12.546875 
L 15.296875 37.1875 
L 17.59375 37.1875 
C 19 37.1875 21.703125 37.1875 21.703125 40.09375 
C 21.703125 43 19 43 17.59375 43 
L 6.59375 43 
C 5.203125 43 2.5 43 2.5 40.09375 
C 2.5 37.1875 5.203125 37.1875 6.59375 37.1875 
L 9.296875 37.1875 
L 23.296875 1.125 
C 23.703125 0.109375 23.703125 -0.078125 23.703125 -0.1875 
C 23.703125 -0.390625 21.09375 -9.109375 19.59375 -11.90625 
C 19 -12.90625 16.5 -17.609375 11.703125 -17.109375 
C 11.796875 -16.8125 12.09375 -16.203125 12.09375 -15.109375 
C 12.09375 -12.8125 10.5 -11.203125 8.203125 -11.203125 
C 5.703125 -11.203125 4.203125 -12.90625 4.203125 -15.203125 
C 4.203125 -19 7.40625 -23 12.40625 -23 
C 22.09375 -23 26.40625 -10.109375 26.703125 -9.296875 
z
" id="CMTT12-121"/>
      </defs>
      <use transform="scale(0.996264)" xlink:href="#CMTT12-65"/>
      <use transform="translate(51.266111 0)scale(0.996264)" xlink:href="#CMTT12-110"/>
      <use transform="translate(102.532222 0)scale(0.996264)" xlink:href="#CMTT12-97"/>
      <use transform="translate(153.798333 0)scale(0.996264)" xlink:href="#CMTT12-108"/>
      <use transform="translate(205.064443 0)scale(0.996264)" xlink:href="#CMTT12-121"/>
      <use transform="translate(256.330554 0)scale(0.996264)" xlink:href="#CMTT12-116"/>
      <use transform="translate(307.596665 0)scale(0.996264)" xlink:href="#CMTT12-105"/>
      <use transform="translate(358.862776 0)scale(0.996264)" xlink:href="#CMTT12-99"/>
      <use transform="translate(461.394998 0)scale(0.996264)" xlink:href="#CMTT12-115"/>
      <use transform="translate(512.661108 0)scale(0.996264)" xlink:href="#CMTT12-111"/>
      <use transform="translate(563.927219 0)scale(0.996264)" xlink:href="#CMTT12-108"/>
      <use transform="translate(615.19333 0)scale(0.996264)" xlink:href="#CMTT12-117"/>
      <use transform="translate(666.459441 0)scale(0.996264)" xlink:href="#CMTT12-116"/>
      <use transform="translate(717.725552 0)scale(0.996264)" xlink:href="#CMTT12-105"/>
      <use transform="translate(768.991663 0)scale(0.996264)" xlink:href="#CMTT12-111"/>
      <use transform="translate(820.257774 0)scale(0.996264)" xlink:href="#CMTT12-110"/>
     </g>
    </g>
   </g>
  </g>
 </g>
 <defs>
  <clipPath id="pa53d5a0734">
   <rect height="187.970171" width="655.650954" x="65.548566" y="7.2"/>
  </clipPath>
  <clipPath id="pe29745be0d">
   <rect height="187.970171" width="655.650954" x="65.548566" y="208.990651"/>
  </clipPath>
 </defs>
</svg>
